# Blender v2.80 (sub 75) OBJ File: 'weapon_demonlord_axe.blend'
# www.blender.org
mtllib weapon_demonlord_axe.mtl
o INFERNAL_AXE_Cube
v 0.500000 1.375000 0.500000
v 0.562500 1.187500 0.437500
v 0.468750 1.312500 0.531250
v 0.562500 1.187500 0.562500
v 0.468750 1.312500 0.468750
v 0.437500 1.187500 0.437500
v 0.531250 1.312500 0.531250
v 0.437500 1.187500 0.562500
v 0.531250 1.312500 0.468750
v 0.468750 0.187500 0.531250
v 0.468750 1.187500 0.531250
v 0.468750 0.187500 0.468750
v 0.468750 1.187500 0.468750
v 0.531250 0.187500 0.531250
v 0.531250 1.187500 0.531250
v 0.531250 0.187500 0.468750
v 0.531250 1.187500 0.468750
v 0.562500 1.250000 0.562500
v 0.437500 1.250000 0.562500
v 0.562500 1.250000 0.437500
v 0.437500 1.250000 0.437500
v 0.468750 1.250000 0.531250
v 0.468750 1.250000 0.468750
v 0.531250 1.250000 0.531250
v 0.531250 1.250000 0.468750
v 0.468750 0.000000 0.531250
v 0.468750 0.000000 0.468750
v 0.531250 0.000000 0.531250
v 0.531250 0.000000 0.468750
v 0.500000 0.031250 0.500000
v 0.500000 -0.250000 0.500000
v 0.437500 0.187500 0.437500
v 0.562500 0.187500 0.437500
v 0.437500 0.187500 0.562500
v 0.562500 0.187500 0.562500
v 0.437500 0.125000 0.562500
v 0.437500 0.125000 0.437500
v 0.562500 0.125000 0.562500
v 0.562500 0.125000 0.437500
v 0.468750 0.062500 0.531250
v 0.468750 0.062500 0.468750
v 0.531250 0.062500 0.531250
v 0.531250 0.062500 0.468750
v 0.500000 0.031250 0.500000
v 0.468750 0.125000 0.531250
v 0.468750 0.125000 0.468750
v 0.531250 0.125000 0.531250
v 0.531250 0.125000 0.468750
v 0.812500 1.062500 0.515625
v 0.812500 1.062500 0.484375
v 0.875000 1.750000 0.500000
v 0.875000 1.062500 0.500000
v 0.812500 1.750000 0.515625
v 0.812500 1.750000 0.484375
v 0.856694 1.794194 0.500000
v 0.625000 1.250000 0.484375
v 0.625000 1.672335 0.484375
v 0.625000 1.250000 0.515625
v 0.625000 1.672335 0.515625
v 0.408471 1.970971 0.484375
v 0.408471 1.970971 0.515625
v 0.591529 1.970971 0.484375
v 0.591529 1.970971 0.515625
v 0.635723 2.015165 0.500000
v 0.375000 1.672335 0.515625
v 0.679917 1.882582 0.484375
v 0.375000 1.250000 0.515625
v 0.143306 1.794194 0.500000
v 0.187500 1.750000 0.515625
v 0.679917 1.882582 0.515625
v 0.187500 1.750000 0.484375
v 0.125000 1.062500 0.500000
v 0.125000 1.750000 0.500000
v 0.724112 1.926777 0.500000
v 0.187500 1.062500 0.515625
v 0.187500 1.062500 0.484375
v 0.547551 1.749784 0.515625
v 0.547551 1.749784 0.484375
v 0.547300 1.926812 0.515625
v 0.375000 1.672335 0.484375
v 0.375000 1.250000 0.484375
v 0.547300 1.926812 0.484375
v 0.364277 2.015165 0.500000
v 0.320083 1.882582 0.515625
v 0.320083 1.882582 0.484375
v 0.275888 1.926777 0.500000
v 0.452449 1.749784 0.484375
v 0.452449 1.749784 0.515625
v 0.452700 1.926812 0.484375
v 0.452700 1.926812 0.515625
v 0.593750 1.437500 0.531250
v 0.718750 1.406250 0.515625
v 0.593750 1.437500 0.468750
v 0.593750 1.375000 0.531250
v 0.593750 1.375000 0.468750
v 0.531250 1.406250 0.500000
v 0.593750 1.625000 0.531250
v 0.718750 1.593750 0.515625
v 0.593750 1.625000 0.468750
v 0.593750 1.562500 0.531250
v 0.593750 1.562500 0.468750
v 0.531250 1.593750 0.500000
v 0.718750 1.406250 0.484375
v 0.718750 1.593750 0.484375
v 0.406250 1.437500 0.531250
v 0.281250 1.406250 0.515625
v 0.406250 1.437500 0.468750
v 0.406250 1.375000 0.531250
v 0.406250 1.375000 0.468750
v 0.468750 1.406250 0.500000
v 0.406250 1.625000 0.531250
v 0.281250 1.593750 0.515625
v 0.406250 1.625000 0.468750
v 0.406250 1.562500 0.531250
v 0.406250 1.562500 0.468750
v 0.468750 1.593750 0.500000
v 0.281250 1.406250 0.484375
v 0.281250 1.593750 0.484375
v 0.375000 1.156250 0.531250
v 0.375000 1.156250 0.593750
v 0.437500 1.156250 0.531250
v 0.437500 1.156250 0.593750
v 0.406250 0.906250 0.562500
v 0.406250 1.218750 0.562500
v 0.625000 1.156250 0.468750
v 0.625000 1.156250 0.406250
v 0.562500 1.156250 0.468750
v 0.562500 1.156250 0.406250
v 0.593750 0.906250 0.437500
v 0.593750 1.218750 0.437500
v 0.375000 1.156250 0.468750
v 0.375000 1.156250 0.406250
v 0.437500 1.156250 0.468750
v 0.437500 1.156250 0.406250
v 0.406250 0.906250 0.437500
v 0.406250 1.218750 0.437500
v 0.625000 1.156250 0.531250
v 0.625000 1.156250 0.593750
v 0.562500 1.156250 0.531250
v 0.562500 1.156250 0.593750
v 0.593750 0.906250 0.562500
v 0.593750 1.218750 0.562500
v 0.468750 1.687500 0.531250
v 0.468750 1.687500 0.468750
v 0.531250 1.687500 0.531250
v 0.531250 1.687500 0.468750
v 0.500000 1.937500 0.500000
v 0.500000 1.625000 0.500000
v 0.500000 1.562500 0.500000
v 0.468750 1.500000 0.531250
v 0.468750 1.500000 0.468750
v 0.531250 1.500000 0.531250
v 0.531250 1.500000 0.468750
v 0.500000 1.437500 0.500000
vt 0.687500 0.562500
vt 0.750000 0.562500
vt 0.687500 0.625000
vt 0.625000 0.562500
vt 0.625000 0.625000
vt 0.687500 0.562500
vt 0.625000 0.562500
vt 0.687500 0.562500
vt 0.750000 0.562500
vt 0.750000 0.312500
vt 0.875000 0.312500
vt 0.875000 0.375000
vt 0.750000 0.375000
vt 0.750000 0.312500
vt 0.750000 0.375000
vt 0.750000 0.375000
vt 0.750000 0.500000
vt 0.875000 0.500000
vt 0.875000 0.375000
vt 0.625000 0.375000
vt 0.750000 0.500000
vt 0.625000 0.500000
vt 0.937500 0.000000
vt 0.937500 1.000000
vt 0.875000 1.000000
vt 0.875000 0.000000
vt 1.000000 -0.000000
vt 1.000000 1.000000
vt 0.937500 1.000000
vt 0.937500 0.000000
vt 0.875000 1.000000
vt 0.875000 -0.000000
vt 1.000000 0.000000
vt 1.000000 1.000000
vt 0.625000 0.312500
vt 0.687500 0.500000
vt 0.750000 0.500000
vt 0.687500 0.500000
vt 0.625000 0.500000
vt 0.625000 0.500000
vt 0.687500 0.500000
vt 0.750000 0.500000
vt 0.750000 0.312500
vt 0.750000 0.250000
vt 0.812500 0.250000
vt 0.812500 0.312500
vt 0.875000 0.250000
vt 0.812500 0.250000
vt 0.875000 0.250000
vt 0.812500 0.250000
vt 0.750000 0.250000
vt 0.875000 0.562500
vt 0.812500 0.562500
vt 0.812500 0.625000
vt 0.875000 0.625000
vt 0.750000 0.562500
vt 0.812500 0.562500
vt 0.812500 0.625000
vt 0.750000 0.625000
vt 0.750000 0.562500
vt 0.750000 0.625000
vt 0.812500 0.562500
vt 0.875000 0.562500
vt 0.875000 0.625000
vt 0.812500 0.625000
vt 0.812500 0.000000
vt 0.750000 0.000000
vt 0.625000 0.312500
vt 0.750000 0.312500
vt 0.750000 0.375000
vt 0.625000 0.375000
vt 0.750000 0.312500
vt 0.750000 0.375000
vt 0.750000 0.500000
vt 0.625000 0.500000
vt 0.750000 0.375000
vt 0.750000 0.500000
vt 0.875000 0.500000
vt 0.875000 0.375000
vt 0.875000 0.312500
vt 0.875000 0.375000
vt 0.812500 0.500000
vt 0.875000 0.500000
vt 0.062500 0.000000
vt 0.062500 0.687500
vt 0.250000 0.608750
vt 0.250000 0.187500
vt 0.062500 0.000000
vt 0.062500 0.687500
vt -0.000000 0.687500
vt 0.000000 0.000000
vt 0.312500 0.187500
vt 0.312500 0.125000
vt 0.250000 0.125000
vt 0.500000 0.125000
vt 0.500000 0.187500
vt 0.000000 0.750000
vt 0.141000 0.062500
vt 0.141000 0.000000
vt 0.562500 0.000000
vt 0.562500 0.062500
vt 0.250000 0.187500
vt 0.250000 0.608750
vt 0.250000 0.062500
vt 0.250000 0.125000
vt 0.187500 0.062500
vt 0.312500 0.937500
vt 0.187500 0.937500
vt 0.187500 1.000000
vt 0.312500 1.000000
vt 0.546500 0.125000
vt 0.437500 0.125000
vt 0.437500 0.062500
vt 0.546500 0.062500
vt 0.000000 0.937500
vt 0.187500 0.937500
vt 0.000000 1.000000
vt 0.000000 0.750000
vt 0.062500 0.687500
vt 0.000000 0.687500
vt 0.312500 0.937500
vt 0.312500 0.187500
vt 0.312500 0.125000
vt 0.250000 0.125000
vt 0.062500 0.000000
vt 0.250000 0.608750
vt 0.250000 0.187500
vt 0.000000 0.000000
vt 0.000000 0.937500
vt 0.062500 0.000000
vt 0.062500 0.687500
vt 0.187704 0.750000
vt 0.312500 0.875000
vt 0.250000 0.187500
vt 0.250000 0.608750
vt 0.141000 0.062500
vt 0.141000 0.000000
vt 0.562500 0.000000
vt 0.562500 0.062500
vt 0.312500 0.062500
vt 0.312500 0.125000
vt 0.500000 0.125000
vt 0.500000 0.187500
vt 0.078750 0.750000
vt 0.187704 0.750000
vt 0.078750 0.750000
vt 0.312500 0.875000
vt 0.250000 0.062500
vt 0.250000 0.125000
vt 0.187500 0.062500
vt 0.312500 0.937500
vt 0.187500 0.937500
vt 0.187500 1.000000
vt 0.312500 1.000000
vt 0.546500 0.125000
vt 0.437500 0.125000
vt 0.437500 0.062500
vt 0.546500 0.062500
vt 0.000000 0.937500
vt 0.187500 0.937500
vt 0.000000 1.000000
vt 0.312500 0.937500
vt 0.000000 0.937500
vt 0.187704 0.750000
vt 0.312500 0.875000
vt 0.312500 0.062500
vt 0.312500 0.125000
vt 0.078750 0.750000
vt 0.187704 0.750000
vt 0.078750 0.750000
vt 0.312500 0.875000
vt 0.312500 0.250000
vt 0.312500 0.187500
vt 0.437500 0.187500
vt 0.437500 0.250000
vt 0.312500 0.250000
vt 0.312500 0.312500
vt 0.312500 0.312500
vt 0.312500 0.250000
vt 0.437500 0.250000
vt 0.312500 0.187500
vt 0.250000 0.250000
vt 0.312500 0.312500
vt 0.312500 0.375000
vt 0.437500 0.375000
vt 0.437500 0.312500
vt 0.312500 0.375000
vt 0.312500 0.312500
vt 0.312500 0.437500
vt 0.312500 0.437500
vt 0.312500 0.375000
vt 0.437500 0.375000
vt 0.250000 0.375000
vt 0.312500 0.437500
vt 0.312500 0.250000
vt 0.437500 0.250000
vt 0.437500 0.187500
vt 0.312500 0.187500
vt 0.312500 0.250000
vt 0.312500 0.312500
vt 0.312500 0.312500
vt 0.437500 0.250000
vt 0.312500 0.250000
vt 0.312500 0.187500
vt 0.250000 0.250000
vt 0.312500 0.312500
vt 0.437500 0.312500
vt 0.437500 0.375000
vt 0.312500 0.375000
vt 0.312500 0.375000
vt 0.312500 0.312500
vt 0.312500 0.437500
vt 0.312500 0.437500
vt 0.437500 0.375000
vt 0.312500 0.375000
vt 0.250000 0.375000
vt 0.312500 0.437500
vt 0.625000 0.250000
vt 0.687500 0.250000
vt 0.687500 0.312500
vt 0.562500 0.250000
vt 0.625000 0.250000
vt 0.625000 -0.000000
vt 0.687500 -0.000000
vt 0.687500 0.250000
vt 0.750000 0.250000
vt 0.750000 -0.000000
vt 0.750000 0.312500
vt 0.625000 0.312500
vt 0.687500 0.250000
vt 0.625000 0.250000
vt 0.687500 0.312500
vt 0.625000 0.250000
vt 0.562500 0.250000
vt 0.625000 -0.000000
vt 0.687500 -0.000000
vt 0.687500 0.250000
vt 0.625000 0.250000
vt 0.687500 0.250000
vt 0.750000 0.250000
vt 0.750000 -0.000000
vt 0.750000 0.312500
vt 0.625000 0.312500
vt 0.687500 0.250000
vt 0.687500 0.312500
vt 0.625000 0.250000
vt 0.562500 0.250000
vt 0.625000 -0.000000
vt 0.625000 0.250000
vt 0.687500 -0.000000
vt 0.687500 0.250000
vt 0.625000 0.250000
vt 0.750000 0.250000
vt 0.750000 -0.000000
vt 0.687500 0.250000
vt 0.750000 0.312500
vt 0.625000 0.312500
vt 0.625000 0.250000
vt 0.687500 0.312500
vt 0.687500 0.250000
vt 0.625000 -0.000000
vt 0.562500 0.250000
vt 0.687500 -0.000000
vt 0.625000 0.250000
vt 0.687500 0.250000
vt 0.750000 -0.000000
vt 0.750000 0.250000
vt 0.750000 0.312500
vt 0.625000 0.312500
vt 0.562500 0.250000
vt 0.500000 0.250000
vt 0.500000 0.187500
vt 0.437500 0.250000
vt 0.500000 0.250000
vt 0.437500 0.500000
vt 0.500000 0.500000
vt 0.562500 0.250000
vt 0.500000 0.250000
vt 0.437500 0.250000
vt 0.437500 0.187500
vt 0.312500 0.500000
vt 0.250000 0.500000
vt 0.250000 0.562500
vt 0.375000 0.500000
vt 0.312500 0.562500
vt 0.312500 0.500000
vt 0.375000 0.500000
vt 0.250000 0.500000
vt 0.312500 0.500000
vt 0.250000 0.437500
vt 0.312500 0.437500
vn 0.0000 0.4472 0.8944
vn -0.8944 0.4472 0.0000
vn 0.8944 0.4472 0.0000
vn 0.0000 0.4472 -0.8944
vn 1.0000 0.0000 0.0000
vn 0.0000 0.0000 -1.0000
vn 0.0000 -1.0000 0.0000
vn 0.0000 1.0000 0.0000
vn -1.0000 0.0000 0.0000
vn 0.0000 0.0000 1.0000
vn 0.7071 0.7071 0.0000
vn 0.0000 0.7071 0.7071
vn 0.0000 0.7071 -0.7071
vn -0.7071 0.7071 0.0000
vn 0.0000 -0.1240 0.9923
vn 0.0000 -0.1240 -0.9923
vn 0.9923 -0.1240 0.0000
vn -0.9923 -0.1240 0.0000
vn -0.7071 -0.7071 0.0000
vn 0.0000 -0.7071 -0.7071
vn 0.0000 -0.7071 0.7071
vn 0.7071 -0.7071 0.0000
vn 0.2425 0.0000 -0.9701
vn 0.2425 0.0000 0.9701
vn 0.2413 0.1000 0.9653
vn 0.2413 0.1000 -0.9653
vn 0.1715 0.1715 0.9701
vn 0.1715 0.1715 -0.9701
vn -0.2413 0.1000 -0.9653
vn -0.2425 0.0000 -0.9701
vn -0.2425 0.0000 0.9701
vn -0.2413 0.1000 0.9653
vn -0.7065 0.7077 0.0000
vn -1.0000 -0.0014 -0.0000
vn -0.1715 0.1715 -0.9701
vn -0.1715 0.1715 0.9701
vn 0.7065 0.7077 0.0000
vn 1.0000 -0.0014 0.0000
vn 0.2425 0.9701 0.0000
vn 0.1240 0.0000 -0.9923
vn 0.1240 0.0000 0.9923
vn 0.2425 -0.9701 0.0000
vn -0.4472 0.0000 0.8944
vn -0.4472 0.0000 -0.8944
vn -0.4472 0.8944 0.0000
vn -0.4472 -0.8944 0.0000
vn -0.2425 0.9701 0.0000
vn -0.1240 0.0000 -0.9923
vn -0.1240 0.0000 0.9923
vn -0.2425 -0.9701 0.0000
vn 0.4472 0.0000 0.8944
vn 0.4472 0.0000 -0.8944
vn 0.4472 0.8944 0.0000
vn 0.4472 -0.8944 0.0000
vn 0.8944 -0.4472 0.0000
vn 0.0000 0.1240 -0.9923
vn 0.9923 0.1240 0.0000
vn -0.9923 0.1240 0.0000
vn 0.0000 0.1240 0.9923
vn -0.8944 -0.4472 0.0000
vn 0.0000 -0.4472 0.8944
vn 0.0000 -0.4472 -0.8944
usemtl AXE
s off
f 3/1/1 7/2/1 1/3/1
f 5/4/2 3/1/2 1/5/2
f 7/6/3 9/7/3 1/5/3
f 9/8/4 5/9/4 1/3/4
f 4/10/5 2/11/5 20/12/5 18/13/5
f 2/11/6 6/14/6 21/15/6 20/12/6
f 8/16/7 6/17/7 2/18/7 4/19/7
f 19/20/8 18/13/8 20/21/8 21/22/8
f 10/23/9 11/24/9 13/25/9 12/26/9
f 12/27/6 13/28/6 17/29/6 16/30/6
f 16/30/5 17/29/5 15/31/5 14/32/5
f 14/33/10 15/34/10 11/24/10 10/23/10
f 6/14/9 8/35/9 19/20/9 21/15/9
f 8/35/10 4/10/10 18/13/10 19/20/10
f 5/9/6 9/8/6 25/36/6 23/37/6
f 9/7/5 7/6/5 24/38/5 25/39/5
f 3/1/9 5/4/9 23/40/9 22/41/9
f 7/2/10 3/1/10 22/41/10 24/42/10
f 30/43/11 28/44/11 29/45/11
f 30/46/12 26/47/12 28/48/12
f 30/46/13 29/45/13 27/49/13
f 30/43/14 27/50/14 26/51/14
f 40/52/10 42/53/10 47/54/10 45/55/10
f 41/56/9 40/57/9 45/58/9 46/59/9
f 42/53/5 43/60/5 48/61/5 47/54/5
f 43/62/6 41/63/6 46/64/6 48/65/6
f 28/48/15 26/47/15 31/66/15
f 27/49/16 29/45/16 31/66/16
f 29/45/17 28/44/17 31/67/17
f 26/51/18 27/50/18 31/67/18
f 36/68/10 38/69/10 35/70/10 34/71/10
f 37/72/9 36/68/9 34/71/9 32/73/9
f 34/71/8 35/70/8 33/74/8 32/75/8
f 36/76/7 37/77/7 39/78/7 38/79/7
f 39/80/6 37/72/6 32/73/6 33/81/6
f 38/69/5 39/80/5 33/81/5 35/70/5
f 40/57/19 41/56/19 44/82/19
f 41/63/20 43/62/20 44/83/20
f 42/53/21 40/52/21 44/83/21
f 43/60/22 42/53/22 44/82/22
f 49/84/10 53/85/10 59/86/10 58/87/10
f 50/88/23 54/89/23 51/90/23 52/91/23
f 53/85/24 49/84/24 52/91/24 51/90/24
f 49/92/7 50/93/7 52/94/7
f 56/95/19 50/93/19 49/92/19 58/96/19
f 55/97/25 53/85/25 51/90/25
f 55/97/26 51/90/26 54/89/26
f 59/98/9 57/99/9 56/100/9 58/101/9
f 56/102/6 57/103/6 54/89/6 50/88/6
f 62/104/14 63/105/14 64/106/14
f 63/107/27 70/108/27 74/109/27 64/110/27
f 59/111/19 77/112/19 78/113/19 57/114/19
f 54/115/28 66/116/28 74/109/28 55/117/28
f 68/118/29 71/119/29 73/120/29
f 66/116/28 62/121/28 64/110/28 74/109/28
f 76/122/7 75/123/7 72/124/7
f 76/125/6 71/119/6 80/126/6 81/127/6
f 71/119/30 76/125/30 72/128/30 73/120/30
f 70/108/27 53/129/27 55/117/27 74/109/27
f 75/130/31 69/131/31 73/120/31 72/128/31
f 77/132/10 70/108/10 63/107/10 79/133/10
f 67/134/10 65/135/10 69/131/10 75/130/10
f 80/136/5 65/137/5 67/138/5 81/139/5
f 68/118/32 73/120/32 69/131/32
f 63/105/33 62/104/33 82/140/33 79/141/33
f 67/142/22 75/123/22 76/122/22 81/143/22
f 57/144/6 78/145/6 66/116/6 54/115/6
f 53/129/10 70/108/10 77/132/10 59/146/10
f 77/112/34 79/141/34 82/140/34 78/113/34
f 66/116/6 78/145/6 82/147/6 62/121/6
f 61/148/11 60/149/11 83/150/11
f 60/151/35 85/152/35 86/153/35 83/154/35
f 80/155/22 87/156/22 88/157/22 65/158/22
f 69/159/36 84/160/36 86/153/36 68/161/36
f 84/160/36 61/162/36 83/154/36 86/153/36
f 85/152/35 71/163/35 68/161/35 86/153/35
f 87/164/6 85/152/6 60/151/6 89/165/6
f 60/149/37 61/148/37 90/166/37 89/167/37
f 65/168/10 88/169/10 84/160/10 69/159/10
f 71/163/6 85/152/6 87/164/6 80/170/6
f 87/156/38 89/167/38 90/166/38 88/157/38
f 84/160/10 88/169/10 90/171/10 61/162/10
f 93/172/39 91/173/39 92/174/39 103/175/39
f 95/176/40 93/177/40 103/175/40
f 91/178/41 94/179/41 92/180/41
f 94/181/42 95/176/42 103/175/42 92/174/42
f 94/179/43 91/178/43 96/182/43
f 93/177/44 95/176/44 96/182/44
f 91/173/45 93/172/45 96/182/45
f 95/176/46 94/181/46 96/182/46
f 100/183/42 101/184/42 104/185/42 98/186/42
f 99/187/39 97/188/39 98/186/39 104/185/39
f 101/184/40 99/189/40 104/185/40
f 97/190/41 100/191/41 98/192/41
f 100/191/43 97/190/43 102/193/43
f 99/187/44 101/194/44 102/193/44
f 97/188/45 99/187/45 102/193/45
f 101/184/46 100/183/46 102/193/46
f 107/195/47 117/196/47 106/197/47 105/198/47
f 109/199/48 117/196/48 107/200/48
f 105/201/49 106/202/49 108/203/49
f 108/204/50 106/197/50 117/196/50 109/199/50
f 108/203/51 110/205/51 105/201/51
f 107/200/52 110/205/52 109/199/52
f 105/198/53 110/205/53 107/195/53
f 109/199/54 110/205/54 108/204/54
f 114/206/50 112/207/50 118/208/50 115/209/50
f 113/210/47 118/208/47 112/207/47 111/211/47
f 115/209/48 118/208/48 113/212/48
f 111/213/49 112/214/49 114/215/49
f 114/215/51 116/216/51 111/213/51
f 113/210/52 116/216/52 115/217/52
f 111/211/53 116/216/53 113/210/53
f 115/209/54 116/216/54 114/206/54
f 122/218/3 121/219/3 124/220/3
f 122/221/15 120/222/15 123/223/15
f 121/219/17 122/218/17 123/224/17
f 120/222/18 119/225/18 123/224/18
f 119/226/16 121/219/16 123/227/16
f 119/225/2 120/222/2 124/220/2
f 121/219/4 119/226/4 124/228/4
f 120/222/1 122/221/1 124/229/1
f 128/230/2 127/231/2 130/232/2
f 128/233/16 126/234/16 129/235/16
f 127/231/18 128/230/18 129/236/18
f 126/237/17 125/238/17 129/236/17
f 125/239/15 127/240/15 129/241/15
f 125/238/3 126/237/3 130/232/3
f 127/240/1 125/239/1 130/242/1
f 126/234/4 128/233/4 130/243/4
f 134/244/3 136/245/3 133/246/3
f 134/247/16 135/248/16 132/249/16
f 133/246/17 135/250/17 134/244/17
f 132/251/18 135/250/18 131/252/18
f 131/253/15 135/254/15 133/255/15
f 131/252/2 136/245/2 132/251/2
f 133/255/1 136/256/1 131/253/1
f 132/249/4 136/257/4 134/247/4
f 140/258/2 142/259/2 139/260/2
f 140/258/15 141/261/15 138/262/15
f 139/260/18 141/263/18 140/258/18
f 138/264/17 141/263/17 137/265/17
f 137/265/16 141/266/16 139/267/16
f 137/265/3 142/259/3 138/264/3
f 139/267/4 142/268/4 137/265/4
f 138/262/1 142/269/1 140/258/1
f 146/270/55 145/271/55 148/272/55
f 146/273/56 144/274/56 147/275/56
f 145/271/57 146/270/57 147/276/57
f 144/277/58 143/278/58 147/276/58
f 143/278/59 145/279/59 147/275/59
f 143/278/60 144/277/60 148/272/60
f 145/279/61 143/278/61 148/280/61
f 144/274/62 146/273/62 148/280/62
f 150/281/1 152/282/1 149/283/1
f 151/284/2 150/281/2 149/285/2
f 152/286/3 153/287/3 149/285/3
f 153/288/4 151/289/4 149/283/4
f 152/282/61 150/281/61 154/290/61
f 151/289/62 153/288/62 154/290/62
f 153/287/55 152/286/55 154/291/55
f 150/281/60 151/284/60 154/291/60
