# Blender v2.80 (sub 75) OBJ File: 'book_weaving.blend'
# www.blender.org
mtllib book_weaving_open.mtl
o PAGES_RIGHT_OPEN_Cube.022
v 0.174127 0.125000 0.585090
v 0.174127 0.875000 0.585090
v 0.197003 0.125000 0.499713
v 0.197003 0.875000 0.499713
v 0.486627 0.125000 1.126356
v 0.486627 0.875000 1.126356
v 0.509503 0.125000 1.040979
v 0.509503 0.875000 1.040979
vt 0.437500 0.562500
vt 0.125000 0.562500
vt 0.125000 0.187500
vt 0.437500 0.187500
vt 0.000000 0.562500
vt 0.000000 0.187500
vt 0.031250 0.187500
vt 0.031250 0.562500
vt 0.031250 0.562500
vt -0.000000 0.531250
vt -0.000000 0.218750
vt 0.031250 0.250000
vt 0.000000 0.250000
vt 0.031250 0.218750
vt 0.031250 0.531250
vt 0.000000 0.562500
vt 0.000000 0.562500
vt 0.000000 0.187500
vt 0.093750 0.187500
vt 0.093750 0.562500
vn 0.8660 0.0000 -0.5000
vn 0.9659 0.0000 0.2588
vn 0.0000 1.0000 -0.0000
vn 0.0000 -1.0000 0.0000
vn -0.9659 0.0000 -0.2588
usemtl MAIN
s off
f 4/1/1 8/2/1 7/3/1 3/4/1
f 6/5/2 5/6/2 7/7/2 8/8/2
f 4/9/3 2/10/3 6/11/3 8/12/3
f 7/13/4 5/14/4 1/15/4 3/16/4
f 4/17/5 3/18/5 1/19/5 2/20/5
o PAGES_LEFT_OPEN_Cube.026
v 0.174127 0.125000 0.414910
v 0.174127 0.875000 0.414910
v 0.197003 0.125000 0.500287
v 0.197003 0.875000 0.500287
v 0.486627 0.125000 -0.126356
v 0.486627 0.875000 -0.126356
v 0.509503 0.125000 -0.040979
v 0.509503 0.875000 -0.040979
v 0.486627 0.812500 -0.126356
v 0.502803 0.812500 -0.186726
v 0.486627 0.750000 -0.126356
v 0.502803 0.750000 -0.186726
v 0.513690 0.687500 -0.110731
v 0.540103 0.687500 -0.167375
v 0.513690 0.625000 -0.110731
v 0.540103 0.625000 -0.167375
v 0.473095 0.562500 -0.134168
v 0.483948 0.562500 -0.195719
v 0.473095 0.500000 -0.134168
v 0.483948 0.500000 -0.195719
v 0.500158 0.437500 -0.118543
v 0.521534 0.437500 -0.177274
v 0.500158 0.375000 -0.118543
v 0.521534 0.375000 -0.177274
v 0.459563 0.312500 -0.141981
v 0.465010 0.312500 -0.204243
v 0.459563 0.250000 -0.141981
v 0.465010 0.250000 -0.204243
vt 0.031250 0.531250
vt 0.062500 0.562500
vt 0.062500 0.250000
vt 0.031250 0.218750
vt 0.062500 0.218750
vt 0.031250 0.250000
vt 0.031250 0.562500
vt 0.062500 0.531250
vt 0.062500 0.187500
vt 0.031250 0.562500
vt 0.031250 0.187500
vt 0.437500 0.187500
vt 0.750000 0.187500
vt 0.750000 0.562500
vt 0.437500 0.562500
vt 0.031250 0.187500
vt 0.031250 0.562500
vt 0.125000 0.562500
vt 0.125000 0.187500
vn 0.0000 1.0000 0.0000
vn 0.0000 -1.0000 -0.0000
vn 0.9659 0.0000 -0.2588
vn 0.8660 0.0000 0.5000
vn -0.9659 0.0000 0.2588
usemtl MAIN
s off
f 16/21/6 14/22/6 10/23/6 12/24/6
f 11/25/7 9/26/7 13/27/7 15/28/7
f 13/29/8 14/22/8 16/30/8 15/31/8
f 11/32/9 15/33/9 16/34/9 12/35/9
f 11/36/10 12/37/10 10/38/10 9/39/10
o RIBBONS_BACK_OPEN_Plane.004
v 0.282222 0.875000 0.321434
v 0.250972 0.875000 0.375561
v 0.142718 0.937500 0.313061
v 0.173968 0.937500 0.258934
v 0.187500 0.953125 0.266747
v 0.156250 0.953125 0.320873
v 0.210377 0.953125 0.352123
v 0.241627 0.953125 0.297997
v 0.173968 0.312500 0.258934
v 0.331190 0.875000 0.205369
v 0.142718 0.312500 0.313061
v 0.362440 0.875000 0.151242
v 0.236468 0.937500 0.150681
v 0.267718 0.937500 0.096555
v 0.281250 0.953125 0.104367
v 0.250000 0.953125 0.158494
v 0.304127 0.953125 0.189744
v 0.335377 0.953125 0.135617
v 0.236468 0.250000 0.150681
v 0.267718 0.250000 0.096555
v 0.267718 0.562500 0.096555
v 0.236468 0.562500 0.150681
v 0.142718 0.562500 0.313061
v 0.173968 0.562500 0.258934
v 0.142718 0.250000 0.313061
v 0.267718 0.187500 0.096555
v 0.282222 0.875000 0.321434
v 0.250972 0.875000 0.375561
v 0.142718 0.937500 0.313061
v 0.173968 0.937500 0.258934
v 0.187500 0.953125 0.266747
v 0.156250 0.953125 0.320873
v 0.210377 0.953125 0.352123
v 0.241627 0.953125 0.297997
v 0.173968 0.312500 0.258934
v 0.331190 0.875000 0.205369
v 0.142718 0.312500 0.313061
v 0.362440 0.875000 0.151242
v 0.236468 0.937500 0.150681
v 0.267718 0.937500 0.096555
v 0.281250 0.953125 0.104367
v 0.250000 0.953125 0.158494
v 0.304127 0.953125 0.189744
v 0.335377 0.953125 0.135617
v 0.236468 0.250000 0.150681
v 0.267718 0.250000 0.096555
v 0.267718 0.562500 0.096555
v 0.236468 0.562500 0.150681
v 0.142718 0.562500 0.313061
v 0.173968 0.562500 0.258934
v 0.142718 0.250000 0.313061
v 0.267718 0.187500 0.096555
vt 0.875000 0.562500
vt 0.875000 0.437500
vt 0.906250 0.437500
vt 0.906250 0.562500
vt 0.875000 0.375000
vt 0.875000 0.406250
vt 0.906250 0.406250
vt 0.906250 0.375000
vt 0.906250 0.562500
vt 0.906250 0.406250
vt 0.937500 0.406250
vt 0.937500 0.562500
vt 0.875000 0.375000
vt 0.906250 0.375000
vt 0.875000 0.375000
vt 0.875000 0.343750
vt 0.906250 0.343750
vt 0.906250 0.375000
vt 0.906250 0.375000
vt 0.906250 0.406250
vt 0.937500 0.406250
vt 0.937500 0.375000
vt 0.906250 0.375000
vt 0.937500 0.375000
vt 0.906250 0.375000
vt 0.906250 0.343750
vt 0.937500 0.343750
vt 0.937500 0.375000
vt 0.906250 0.406250
vt 0.906250 0.593750
vt 0.937500 0.593750
vt 0.937500 0.406250
vt 0.875000 0.406250
vt 0.875000 0.593750
vt 0.906250 0.593750
vt 0.906250 0.406250
vt 0.968750 0.437500
vt 0.937500 0.468750
vt 0.968750 0.468750
vt 1.000000 0.437500
vt 0.968750 0.468750
vt 1.000000 0.468750
vt 0.875000 0.562500
vt 0.906250 0.562500
vt 0.906250 0.437500
vt 0.875000 0.437500
vt 0.875000 0.375000
vt 0.906250 0.375000
vt 0.906250 0.406250
vt 0.875000 0.406250
vt 0.906250 0.562500
vt 0.937500 0.562500
vt 0.937500 0.406250
vt 0.906250 0.406250
vt 0.906250 0.375000
vt 0.875000 0.375000
vt 0.875000 0.375000
vt 0.906250 0.375000
vt 0.906250 0.343750
vt 0.875000 0.343750
vt 0.906250 0.375000
vt 0.937500 0.375000
vt 0.937500 0.406250
vt 0.906250 0.406250
vt 0.937500 0.375000
vt 0.906250 0.375000
vt 0.906250 0.375000
vt 0.937500 0.375000
vt 0.937500 0.343750
vt 0.906250 0.343750
vt 0.906250 0.406250
vt 0.937500 0.406250
vt 0.937500 0.593750
vt 0.906250 0.593750
vt 0.875000 0.406250
vt 0.906250 0.406250
vt 0.906250 0.593750
vt 0.875000 0.593750
vt 0.968750 0.437500
vt 0.968750 0.468750
vt 0.937500 0.468750
vt 1.000000 0.437500
vt 1.000000 0.468750
vt 0.968750 0.468750
vn -0.8660 0.0000 -0.5000
vn 0.0000 1.0000 0.0000
vn -0.6124 0.7071 -0.3536
vn 0.7426 0.5145 0.4287
vn 0.8041 0.3714 0.4642
vn 0.8660 0.0000 0.5000
vn 0.0000 -1.0000 0.0000
vn 0.6124 -0.7071 0.3536
vn -0.7426 -0.5145 -0.4287
vn -0.8041 -0.3714 -0.4642
usemtl MAIN
s off
f 60/40/11 45/41/11 47/42/11 59/43/11
f 44/44/12 41/45/12 42/46/12 43/47/12
f 57/48/11 56/49/11 55/50/11 58/51/11
f 41/45/13 40/52/13 39/53/13 42/46/13
f 37/54/14 44/55/14 43/56/14 38/57/14
f 54/58/12 51/59/12 52/60/12 53/61/12
f 51/59/13 50/62/13 49/63/13 52/60/13
f 48/64/15 54/65/15 53/66/15 46/67/15
f 50/68/11 57/69/11 58/70/11 49/71/11
f 40/72/11 60/73/11 59/74/11 39/75/11
f 47/76/11 45/77/11 61/78/11
f 55/79/11 56/80/11 62/81/11
f 86/82/16 85/83/16 73/84/16 71/85/16
f 70/86/17 69/87/17 68/88/17 67/89/17
f 83/90/16 84/91/16 81/92/16 82/93/16
f 67/89/18 68/88/18 65/94/18 66/95/18
f 63/96/19 64/97/19 69/98/19 70/99/19
f 80/100/17 79/101/17 78/102/17 77/103/17
f 77/103/18 78/102/18 75/104/18 76/105/18
f 74/106/20 72/107/20 79/108/20 80/109/20
f 76/110/16 75/111/16 84/112/16 83/113/16
f 66/114/16 65/115/16 85/116/16 86/117/16
f 73/118/16 87/119/16 71/120/16
f 81/121/16 88/122/16 82/123/16
o RIBBONS_FRONT_OPEN_Plane.003
v 0.282222 0.875000 0.678566
v 0.344722 0.875000 0.786819
v 0.236468 0.937500 0.849319
v 0.173968 0.937500 0.741066
v 0.187500 0.953125 0.733253
v 0.250000 0.953125 0.841506
v 0.304127 0.953125 0.810256
v 0.241627 0.953125 0.702003
v 0.205218 -0.062500 0.795192
v 0.236468 -0.125000 0.849319
v 0.173968 -0.125000 0.741066
v 0.236468 0.000000 0.849319
v 0.173968 0.000000 0.741066
v 0.236468 -0.062500 0.849319
v 0.173968 -0.062500 0.741066
v 0.173968 0.562500 0.741066
v 0.236468 0.562500 0.849319
v 0.173968 -0.062500 0.741066
v 0.236468 -0.062500 0.849319
v 0.173968 0.000000 0.741066
v 0.236468 0.000000 0.849319
v 0.344722 0.875000 0.786819
v 0.282222 0.875000 0.678566
v 0.236468 0.937500 0.849319
v 0.173968 0.937500 0.741066
v 0.187500 0.953125 0.733253
v 0.250000 0.953125 0.841506
v 0.304127 0.953125 0.810256
v 0.241627 0.953125 0.702003
v 0.205218 -0.062500 0.795192
v 0.236468 -0.125000 0.849319
v 0.173968 -0.125000 0.741066
v 0.236468 0.000000 0.849319
v 0.173968 0.000000 0.741066
v 0.236468 -0.062500 0.849319
v 0.173968 -0.062500 0.741066
v 0.173968 0.562500 0.741066
v 0.236468 0.562500 0.849319
v 0.173968 -0.062500 0.741066
v 0.236468 -0.062500 0.849319
v 0.173968 0.000000 0.741066
v 0.236468 0.000000 0.849319
vt 1.000000 0.375000
vt 1.000000 0.406250
vt 0.937500 0.406250
vt 0.937500 0.375000
vt 0.375000 0.968750
vt 0.375000 0.937500
vt 0.406250 0.968750
vt 1.000000 0.375000
vt 1.000000 0.406250
vt 0.937500 0.406250
vt 0.937500 0.375000
vt 1.000000 0.343750
vt 0.937500 0.343750
vt 0.437500 0.937500
vt 0.437500 0.968750
vt 0.937500 0.562500
vt 1.000000 0.562500
vt 1.000000 0.281250
vt 0.937500 0.281250
vt 1.000000 0.593750
vt 0.937500 0.593750
vt 0.375000 0.968750
vt 0.437500 0.968750
vt 0.437500 1.000000
vt 0.375000 1.000000
vt 1.000000 0.375000
vt 0.937500 0.375000
vt 0.937500 0.406250
vt 1.000000 0.406250
vt 0.375000 0.968750
vt 0.406250 0.968750
vt 0.375000 0.937500
vt 1.000000 0.375000
vt 0.937500 0.375000
vt 0.937500 0.406250
vt 1.000000 0.406250
vt 1.000000 0.343750
vt 0.937500 0.343750
vt 0.437500 0.968750
vt 0.437500 0.937500
vt 0.937500 0.562500
vt 0.937500 0.281250
vt 1.000000 0.281250
vt 1.000000 0.562500
vt 0.937500 0.593750
vt 1.000000 0.593750
vt 0.375000 0.968750
vt 0.375000 1.000000
vt 0.437500 1.000000
vt 0.437500 0.968750
vn 0.0000 1.0000 0.0000
vn -0.8660 0.0000 0.5000
vn -0.6124 0.7071 0.3536
vn 0.7426 0.5145 -0.4287
vn 0.0000 -1.0000 0.0000
vn 0.8660 0.0000 -0.5000
vn 0.6124 -0.7071 -0.3536
vn -0.7426 -0.5145 0.4287
usemtl MAIN
s off
f 96/124/21 93/125/21 94/126/21 95/127/21
f 103/128/22 99/129/22 97/130/22
f 93/131/23 92/132/23 91/133/23 94/134/23
f 89/135/24 96/124/24 95/127/24 90/136/24
f 97/130/22 98/137/22 102/138/22
f 105/139/22 104/140/22 101/141/22 100/142/22
f 91/133/22 92/132/22 104/143/22 105/144/22
f 106/145/22 107/146/22 109/147/22 108/148/22
f 117/149/25 116/150/25 115/151/25 114/152/25
f 124/153/26 118/154/26 120/155/26
f 114/156/27 115/157/27 112/158/27 113/159/27
f 111/160/28 110/161/28 116/150/28 117/149/28
f 118/154/26 123/162/26 119/163/26
f 126/164/26 121/165/26 122/166/26 125/167/26
f 112/158/26 126/168/26 125/169/26 113/159/26
f 127/170/26 129/171/26 130/172/26 128/173/26
o COVER_RIGHT_OPEN_NOTINT_Cube.006
v 0.426062 0.437500 1.208954
v 0.488562 0.437500 1.317207
v 0.426062 0.562500 1.208954
v 0.488562 0.562500 1.317207
v 0.480188 0.437500 1.177704
v 0.542688 0.437500 1.285957
v 0.480188 0.562500 1.177704
v 0.542688 0.562500 1.285957
v 0.296875 0.312500 0.922696
v 0.310407 0.312500 0.914884
v 0.328125 0.312500 0.976823
v 0.341657 0.312500 0.969010
v 0.296875 0.500000 0.922696
v 0.310407 0.500000 0.914884
v 0.341657 0.500000 0.969010
v 0.328125 0.500000 0.976823
v 0.312500 0.554127 0.949760
v 0.326032 0.554127 0.941947
v 0.242748 0.562500 0.828946
v 0.256280 0.562500 0.821134
v 0.258373 0.616627 0.856010
v 0.271905 0.616627 0.848197
v 0.395783 0.562500 1.062760
v 0.382252 0.562500 1.070573
v 0.366627 0.616627 1.043509
v 0.380158 0.616627 1.035697
v 0.227123 0.616627 0.801883
v 0.380158 0.679127 1.035697
v 0.240655 0.616627 0.794070
v 0.366627 0.679127 1.043509
v 0.411408 0.616627 1.089824
v 0.397877 0.616627 1.097636
v 0.271905 0.679127 0.848197
v 0.258373 0.679127 0.856010
v 0.294782 0.250000 0.887820
v 0.281250 0.250000 0.895633
v 0.357282 0.250000 0.996074
v 0.343750 0.250000 1.003886
v 0.294782 0.187500 0.887820
v 0.281250 0.187500 0.895633
v 0.357282 0.187500 0.996074
v 0.343750 0.187500 1.003886
v 0.375000 0.250000 1.058013
v 0.388532 0.250000 1.050200
v 0.375000 0.187500 1.058013
v 0.388532 0.187500 1.050200
v 0.263532 0.250000 0.833694
v 0.250000 0.250000 0.841506
v 0.263532 0.187500 0.833694
v 0.250000 0.187500 0.841506
v 0.397877 0.679127 1.097636
v 0.227123 0.679127 0.801883
v 0.240655 0.679127 0.794070
v 0.411408 0.679127 1.089824
v 0.343750 0.750000 1.003886
v 0.343750 0.812500 1.003886
v 0.357282 0.750000 0.996074
v 0.357282 0.812500 0.996074
v 0.375000 0.750000 1.058013
v 0.375000 0.812500 1.058013
v 0.388532 0.750000 1.050200
v 0.388532 0.812500 1.050200
v 0.372907 0.695873 1.023137
v 0.359375 0.695873 1.030949
v 0.406250 0.750000 1.112139
v 0.406250 0.687500 1.112139
v 0.419782 0.687500 1.104327
v 0.419782 0.750000 1.104327
v 0.437500 0.687500 1.166266
v 0.437500 0.750000 1.166266
v 0.451032 0.687500 1.158453
v 0.451032 0.750000 1.158453
v 0.435407 0.633373 1.131390
v 0.421875 0.633373 1.139203
v 0.281250 0.750000 0.895633
v 0.281250 0.812500 0.895633
v 0.294782 0.750000 0.887820
v 0.294782 0.812500 0.887820
v 0.250000 0.750000 0.841506
v 0.250000 0.812500 0.841506
v 0.263532 0.750000 0.833694
v 0.263532 0.812500 0.833694
v 0.279157 0.695873 0.860757
v 0.265625 0.695873 0.868570
v 0.218750 0.750000 0.787380
v 0.218750 0.687500 0.787380
v 0.232282 0.687500 0.779567
v 0.232282 0.750000 0.779567
v 0.187500 0.687500 0.733253
v 0.187500 0.750000 0.733253
v 0.201032 0.687500 0.725441
v 0.201032 0.750000 0.725441
v 0.216657 0.633373 0.752504
v 0.203125 0.633373 0.760316
vt 0.375000 0.937500
vt 0.437500 0.937500
vt 0.437500 1.000000
vt 0.375000 1.000000
vt 0.437500 0.937500
vt 0.406250 1.000000
vt 0.406250 0.937500
vt 0.437500 0.937500
vt 0.437500 1.000000
vt 0.375000 1.000000
vt 0.375000 0.937500
vt 0.437500 0.937500
vt 0.437500 0.968750
vt 0.375000 0.968750
vt 0.406250 1.000000
vt 0.375000 1.000000
vt 0.406250 0.937500
vt 0.406250 1.000000
vt 0.406250 0.937500
vt 0.968750 0.125000
vt 0.968750 0.218750
vt 1.000000 0.218750
vt 1.000000 0.125000
vt 1.000000 0.125000
vt 1.000000 0.218750
vt 0.968750 0.218750
vt 0.968750 0.125000
vt 0.937500 0.218750
vt 0.937500 0.125000
vt 0.937500 0.250000
vt 0.937500 0.125000
vt 0.968750 0.125000
vt 0.968750 0.093750
vt 0.937500 0.093750
vt 0.968750 0.218750
vt 1.000000 0.218750
vt 1.000000 0.156250
vt 0.968750 0.156250
vt 0.937500 0.156250
vt 0.968750 0.218750
vt 1.000000 0.218750
vt 1.000000 0.156250
vt 0.968750 0.156250
vt 0.968750 0.218750
vt 1.000000 0.218750
vt 1.000000 0.156250
vt 0.968750 0.156250
vt 0.937500 0.218750
vt 0.968750 0.156250
vt 0.937500 0.156250
vt 1.000000 0.156250
vt 0.968750 0.093750
vt 0.968750 0.125000
vt 1.000000 0.125000
vt 1.000000 0.093750
vt 0.968750 0.156250
vt 1.000000 0.156250
vt 0.968750 0.125000
vt 1.000000 0.125000
vt 1.000000 0.093750
vt 1.000000 0.125000
vt 0.968750 0.125000
vt 1.000000 0.156250
vt 0.968750 0.156250
vt 0.968750 0.125000
vt 1.000000 0.125000
vt 0.937500 0.125000
vt 0.968750 0.125000
vt 0.968750 0.062500
vt 0.968750 0.031250
vt 1.000000 0.031250
vt 1.000000 0.062500
vt 1.000000 0.093750
vt 0.968750 0.093750
vt 0.968750 0.062500
vt 1.000000 0.062500
vt 0.968750 0.093750
vt 1.000000 0.093750
vt 0.937500 0.140625
vt 0.937500 0.109375
vt 0.968750 0.093750
vt 0.968750 0.156250
vt 0.968750 0.031250
vt 0.968750 0.093750
vt 1.000000 0.093750
vt 1.000000 0.031250
vt 1.000000 -0.000000
vt 1.000000 0.031250
vt 0.968750 0.031250
vt 0.968750 -0.000000
vt 0.937500 0.125000
vt 0.937500 0.062500
vt 0.968750 0.062500
vt 0.968750 0.125000
vt 0.968750 0.062500
vt 0.968750 0.031250
vt 1.000000 0.031250
vt 1.000000 0.062500
vt 0.937500 0.093750
vt 0.937500 0.062500
vt 0.968750 0.062500
vt 0.968750 0.093750
vt 0.968750 0.031250
vt 0.968750 0.062500
vt 0.968750 0.031250
vt 1.000000 0.031250
vt 1.000000 0.000000
vt 0.968750 0.000000
vt 1.000000 0.031250
vt 1.000000 -0.000000
vt 0.968750 0.031250
vt 0.968750 0.031250
vt 0.968750 0.062500
vt 0.937500 0.062500
vt 0.937500 0.031250
vt 0.968750 0.093750
vt 1.000000 0.093750
vt 0.968750 0.093750
vt 1.000000 0.093750
vt 1.000000 0.125000
vt 0.968750 0.125000
vt 0.968750 0.093750
vt 1.000000 0.093750
vt 0.968750 0.125000
vt 1.000000 0.125000
vt 1.000000 0.093750
vt 0.968750 0.093750
vt 0.937500 0.093750
vt 0.968750 0.187500
vt 0.968750 0.156250
vt 1.000000 0.156250
vt 1.000000 0.187500
vt 1.000000 0.125000
vt 1.000000 0.093750
vt 0.968750 0.093750
vt 0.968750 0.125000
vt 1.000000 0.187500
vt 1.000000 0.156250
vt 0.968750 0.156250
vt 0.968750 0.187500
vt 0.937500 0.156250
vt 0.937500 0.187500
vt 1.000000 0.218750
vt 0.968750 0.218750
vt 1.000000 0.187500
vt 0.968750 0.187500
vt 1.000000 0.156250
vt 0.968750 0.125000
vt 0.968750 0.093750
vt 1.000000 0.093750
vt 1.000000 0.125000
vt 0.937500 0.093750
vt 0.937500 0.125000
vt 1.000000 0.156250
vt 0.968750 0.156250
vt 1.000000 0.125000
vt 0.968750 0.125000
vt 1.000000 0.093750
vt 0.968750 0.187500
vt 1.000000 0.187500
vt 1.000000 0.156250
vt 0.968750 0.156250
vt 1.000000 0.125000
vt 0.968750 0.125000
vt 0.968750 0.093750
vt 1.000000 0.093750
vt 1.000000 0.187500
vt 0.968750 0.187500
vt 0.968750 0.156250
vt 1.000000 0.156250
vt 0.937500 0.187500
vt 0.937500 0.156250
vt 0.968750 0.218750
vt 1.000000 0.218750
vt 0.968750 0.187500
vt 1.000000 0.156250
vt 1.000000 0.187500
vt 0.968750 0.125000
vt 1.000000 0.125000
vt 1.000000 0.093750
vt 0.968750 0.093750
vt 0.937500 0.125000
vt 0.937500 0.093750
vt 0.968750 0.156250
vt 1.000000 0.156250
vt 0.968750 0.125000
vt 1.000000 0.093750
vt 1.000000 0.125000
vn -0.8660 0.0000 0.5000
vn 0.0000 1.0000 0.0000
vn 0.8660 0.0000 -0.5000
vn 0.0000 -1.0000 0.0000
vn -0.5000 0.0000 -0.8660
vn 0.5000 0.0000 0.8660
vn 0.2500 0.8660 0.4330
vn -0.2500 -0.8660 -0.4330
vn -0.2500 0.8660 -0.4330
vn 0.2500 -0.8660 0.4330
vn -0.4330 -0.5000 -0.7500
vn 0.4330 -0.5000 0.7500
vn -0.4472 0.4472 -0.7746
vn 0.4472 0.4472 0.7746
usemtl MAIN
s off
f 131/174/29 132/175/29 134/176/29 133/177/29
f 133/178/30 134/176/30 138/179/30 137/180/30
f 137/181/31 138/182/31 136/183/31 135/184/31
f 135/184/32 136/185/32 132/186/32 131/187/32
f 133/188/33 137/189/33 135/184/33 131/190/33
f 138/182/34 134/191/34 132/192/34 136/185/34
f 139/193/33 143/194/33 144/195/33 140/196/33
f 142/197/34 145/198/34 146/199/34 141/200/34
f 141/200/29 146/199/29 143/201/29 139/202/29
f 143/201/29 146/199/29 147/203/29
f 157/204/29 151/205/29 164/206/29 182/207/29
f 147/208/35 148/209/35 152/210/35 151/211/35
f 143/201/29 147/208/29 151/211/29 149/212/29
f 144/213/36 143/214/36 149/215/36 150/216/36
f 148/217/37 147/218/37 155/219/37 156/220/37
f 147/221/29 146/199/29 154/222/29 155/223/29
f 146/199/38 145/198/38 153/224/38 154/222/38
f 158/225/30 160/226/30 181/227/30 184/228/30
f 149/229/29 151/205/29 157/204/29
f 150/230/39 149/229/39 157/231/39 159/232/39
f 164/206/30 163/233/30 183/234/30 182/235/30
f 154/236/40 153/237/40 161/238/40 162/239/40
f 155/240/29 154/222/29 162/241/29
f 167/242/30 168/243/30 173/244/30 174/245/30
f 139/246/41 140/247/41 165/248/41 166/249/41
f 142/197/42 141/200/42 168/250/42 167/251/42
f 141/252/29 139/253/29 166/254/29 168/255/29
f 169/256/32 171/257/32 172/258/32 170/259/32
f 166/260/30 165/261/30 177/262/30 178/263/30
f 168/264/29 166/265/29 170/266/29 172/267/29
f 174/268/34 173/269/34 175/270/34 176/271/34
f 168/272/29 172/273/29 175/274/29 173/275/29
f 172/276/32 171/277/32 176/271/32 175/270/32
f 178/278/33 177/279/33 179/280/33 180/281/33
f 169/282/32 170/283/32 180/281/32 179/284/32
f 170/285/29 166/286/29 178/287/29 180/288/29
f 162/239/34 161/238/34 184/289/34 181/290/34
f 151/291/34 152/292/34 163/293/34 164/294/34
f 159/232/33 157/231/33 182/295/33 183/296/33
f 156/297/33 155/298/33 160/299/33 158/225/33
f 155/240/29 162/241/29 181/300/29 160/301/29
f 185/302/33 186/303/33 188/304/33 187/305/33
f 201/306/34 202/307/34 200/308/34 199/309/34
f 191/310/34 192/311/34 190/312/34 189/313/34
f 189/313/29 190/312/29 186/314/29 185/315/29
f 185/302/39 187/305/39 193/316/39 194/317/39
f 192/318/30 188/319/30 186/303/30 190/320/30
f 191/310/40 189/313/40 194/317/40 193/316/40
f 189/313/29 185/315/29 194/317/29
f 196/321/33 195/322/33 198/323/33 197/324/33
f 199/309/29 200/308/29 195/325/29 196/326/29
f 196/321/39 197/324/39 203/327/39 204/328/39
f 202/329/30 198/330/30 195/322/30 200/331/30
f 201/306/40 199/309/40 204/328/40 203/327/40
f 199/309/29 196/326/29 204/328/29
f 205/332/34 207/333/34 208/334/34 206/335/34
f 221/336/33 219/337/33 220/338/33 222/339/33
f 211/340/33 209/341/33 210/342/33 212/343/33
f 209/344/29 205/332/29 206/335/29 210/345/29
f 205/332/40 214/346/40 213/347/40 207/333/40
f 212/348/30 210/342/30 206/349/30 208/350/30
f 211/340/39 213/347/39 214/346/39 209/341/39
f 209/344/29 214/346/29 205/332/29
f 216/351/34 217/352/34 218/353/34 215/354/34
f 219/355/29 216/351/29 215/354/29 220/356/29
f 216/351/40 224/357/40 223/358/40 217/352/40
f 222/359/30 220/338/30 215/360/30 218/361/30
f 221/336/39 223/358/39 224/357/39 219/337/39
f 219/355/29 224/357/29 216/351/29
o COVER_LEFT_OPEN_NOTINT_Cube.009
v 0.480188 0.437500 -0.177704
v 0.542688 0.437500 -0.285957
v 0.480188 0.562500 -0.177704
v 0.542688 0.562500 -0.285957
v 0.426062 0.437500 -0.208954
v 0.488562 0.437500 -0.317207
v 0.426062 0.562500 -0.208954
v 0.488562 0.562500 -0.317207
vt 0.375000 0.937500
vt 0.437500 0.937500
vt 0.437500 1.000000
vt 0.375000 1.000000
vt 0.437500 0.937500
vt 0.406250 1.000000
vt 0.406250 0.937500
vt 0.437500 0.937500
vt 0.437500 1.000000
vt 0.375000 1.000000
vt 0.375000 0.937500
vt 0.437500 0.937500
vt 0.437500 0.968750
vt 0.375000 0.968750
vt 0.406250 1.000000
vt 0.375000 1.000000
vt 0.406250 0.937500
vt 0.406250 1.000000
vt 0.406250 0.937500
vn 0.8660 0.0000 0.5000
vn 0.0000 1.0000 0.0000
vn -0.8660 0.0000 -0.5000
vn 0.0000 -1.0000 0.0000
vn -0.5000 0.0000 0.8660
vn 0.5000 0.0000 -0.8660
usemtl MAIN
s off
f 225/362/43 226/363/43 228/364/43 227/365/43
f 227/366/44 228/364/44 232/367/44 231/368/44
f 231/369/45 232/370/45 230/371/45 229/372/45
f 229/372/46 230/373/46 226/374/46 225/375/46
f 227/376/47 231/377/47 229/372/47 225/378/47
f 232/370/48 228/379/48 226/380/48 230/373/48
