# Blender v2.80 (sub 75) OBJ File: 'book_weaving.blend'
# www.blender.org
mtllib book_weaving_open_tint.mtl
o SPINE_OPEN_Cube.024
v 0.187500 0.125000 0.625000
v 0.187500 0.875000 0.625000
v 0.187500 0.125000 0.562500
v 0.187500 0.875000 0.562500
v 0.125000 0.125000 0.562500
v 0.125000 0.125000 0.625000
v 0.125000 0.875000 0.625000
v 0.125000 0.875000 0.562500
v 0.187500 0.937500 0.625000
v 0.187500 0.937500 0.562500
v 0.125000 0.937500 0.625000
v 0.125000 0.937500 0.562500
v 0.187500 0.062500 0.562500
v 0.187500 0.062500 0.625000
v 0.125000 0.062500 0.562500
v 0.125000 0.062500 0.625000
v 0.187500 0.125000 0.375000
v 0.187500 0.875000 0.375000
v 0.187500 0.125000 0.437500
v 0.187500 0.875000 0.437500
v 0.125000 0.125000 0.437500
v 0.125000 0.125000 0.375000
v 0.125000 0.875000 0.375000
v 0.125000 0.875000 0.437500
v 0.187500 0.937500 0.375000
v 0.187500 0.937500 0.437500
v 0.125000 0.937500 0.375000
v 0.125000 0.937500 0.437500
v 0.187500 0.062500 0.437500
v 0.187500 0.062500 0.375000
v 0.125000 0.062500 0.437500
v 0.125000 0.062500 0.375000
v 0.140625 0.875000 0.562500
v 0.140625 0.125000 0.562500
v 0.140625 0.875000 0.437500
v 0.140625 0.125000 0.437500
vt 0.000000 0.968750
vt 0.031250 0.968750
vt 0.031250 1.000000
vt 0.000000 1.000000
vt 0.031250 0.968750
vt 0.000000 0.968750
vt 0.000000 0.937500
vt 0.031250 0.937500
vt 0.031250 0.562500
vt 0.031250 0.937500
vt 0.000000 0.937500
vt 0.000000 0.562500
vt 0.031250 0.562500
vt 0.031250 0.937500
vt 0.000000 0.937500
vt 0.000000 0.562500
vt 0.031250 0.968750
vt 0.031250 1.000000
vt 0.000000 0.968750
vt 0.031250 0.937500
vt 0.031250 0.968750
vt 0.000000 0.968750
vt 0.000000 0.937500
vt 0.000000 0.968750
vt 0.031250 0.968750
vt 0.031250 1.000000
vt 0.000000 1.000000
vt 0.000000 0.562500
vt 0.031250 0.562500
vt 0.031250 0.937500
vt 0.000000 0.937500
vt 0.031250 0.968750
vt 0.000000 0.968750
vt 0.000000 0.937500
vt 0.031250 0.968750
vt 0.000000 0.968750
vt 0.031250 0.937500
vt 0.000000 1.000000
vt 0.000000 0.968750
vt 0.031250 0.968750
vt 0.031250 0.968750
vt 0.031250 1.000000
vt 0.000000 1.000000
vt 0.000000 0.968750
vt 0.000000 0.968750
vt 0.000000 0.937500
vt 0.031250 0.937500
vt 0.031250 0.968750
vt 0.000000 0.562500
vt 0.031250 0.562500
vt 0.031250 0.937500
vt 0.000000 0.937500
vt 0.000000 0.562500
vt 0.031250 0.562500
vt 0.031250 0.937500
vt 0.000000 0.937500
vt 0.031250 1.000000
vt 0.000000 0.968750
vt 0.031250 0.968750
vt 0.000000 0.937500
vt 0.031250 0.937500
vt 0.031250 0.968750
vt 0.000000 0.968750
vt 0.031250 0.968750
vt 0.031250 1.000000
vt 0.000000 1.000000
vt 0.000000 0.968750
vt 0.031250 0.562500
vt 0.031250 0.937500
vt 0.000000 0.937500
vt 0.000000 0.562500
vt 0.031250 0.968750
vt 0.000000 0.968750
vt 0.000000 0.937500
vt 0.000000 0.968750
vt 0.031250 0.937500
vt 0.031250 0.968750
vt 0.000000 1.000000
vt 0.000000 0.968750
vt 0.031250 0.968750
vt 0.750000 0.968750
vt 0.687500 0.968750
vt 0.687500 1.000000
vt 0.750000 1.000000
vt 0.687500 0.968750
vt 0.750000 0.968750
vt 0.750000 1.000000
vt 0.687500 1.000000
vt 0.687500 0.968750
vt 0.750000 0.968750
vt 0.031250 0.562500
vt 0.031250 0.937500
vt 0.000000 0.937500
vt 0.000000 0.562500
vt 0.750000 0.968750
vt 0.687500 0.968750
vt 0.687500 0.937500
vt 0.750000 0.937500
vt 0.750000 0.968750
vt 0.687500 0.968750
vt 0.687500 0.937500
vt 0.750000 0.937500
vt 0.687500 0.968750
vt 0.750000 0.968750
vt 0.750000 0.562500
vt 0.812500 0.562500
vt 0.812500 0.937500
vt 0.750000 0.937500
vt 0.750000 0.937500
vt 0.687500 0.937500
vt 0.687500 0.562500
vt 0.750000 0.562500
vt 0.750000 0.937500
vt 0.687500 0.937500
vt 0.750000 1.000000
vt 0.687500 1.000000
vt 0.687500 0.968750
vt 0.750000 0.968750
vt 0.000000 0.937500
vt 0.000000 0.562500
vt 0.031250 0.562500
vt 0.031250 0.937500
vn -1.0000 0.0000 0.0000
vn 0.0000 0.0000 1.0000
vn 0.0000 1.0000 0.0000
vn 1.0000 0.0000 0.0000
vn 0.0000 -1.0000 0.0000
vn 0.0000 0.0000 -1.0000
usemtl MAIN
s off
f 8/1/1 7/2/1 11/3/1 12/4/1
f 1/5/2 6/6/2 16/7/2 14/8/2
f 6/9/1 7/10/1 8/11/1 5/12/1
f 1/13/2 2/14/2 7/15/2 6/16/2
f 9/17/3 10/18/3 12/4/3 11/19/3
f 13/20/4 3/21/4 1/22/4 14/23/4
f 7/24/2 2/25/2 9/26/2 11/27/2
f 1/28/4 3/29/4 4/30/4 2/31/4
f 13/20/5 14/32/5 16/33/5 15/34/5
f 6/35/1 5/36/1 15/34/1 16/37/1
f 9/38/4 2/39/4 4/40/4 10/18/4
f 24/41/1 28/42/1 27/43/1 23/44/1
f 17/45/6 30/46/6 32/47/6 22/48/6
f 22/49/1 21/50/1 24/51/1 23/52/1
f 17/53/6 22/54/6 23/55/6 18/56/6
f 25/57/3 27/43/3 28/58/3 26/59/3
f 29/60/4 30/61/4 17/62/4 19/63/4
f 23/64/6 27/65/6 25/66/6 18/67/6
f 17/68/4 18/69/4 20/70/4 19/71/4
f 29/72/5 31/73/5 32/74/5 30/61/5
f 22/75/1 32/74/1 31/76/1 21/77/1
f 25/57/4 26/78/4 20/79/4 18/80/4
f 4/81/4 20/82/4 26/83/4 10/84/4
f 10/84/3 26/83/3 28/85/3 12/86/3
f 12/87/1 28/88/1 24/89/1 8/90/1
f 5/91/6 8/92/6 33/93/6 34/94/6
f 5/95/1 21/96/1 31/97/1 15/98/1
f 15/99/5 31/100/5 29/101/5 13/102/5
f 13/102/4 29/101/4 19/103/4 3/104/4
f 3/105/4 19/106/4 20/107/4 4/108/4
f 33/109/1 35/110/1 36/111/1 34/112/1
f 21/96/3 5/95/3 34/113/3 36/114/3
f 8/115/5 24/116/5 35/117/5 33/118/5
f 24/119/2 21/120/2 36/121/2 35/122/2
o COVER_LEFT_OPEN_Cube.025
v 0.156250 0.125000 0.320873
v 0.156250 0.875000 0.320873
v 0.210377 0.125000 0.352123
v 0.210377 0.875000 0.352123
v 0.468750 0.125000 -0.220392
v 0.468750 0.875000 -0.220392
v 0.522877 0.125000 -0.189142
v 0.522877 0.875000 -0.189142
v 0.554127 0.875000 -0.243269
v 0.554127 0.125000 -0.243269
v 0.500000 0.125000 -0.274519
v 0.500000 0.875000 -0.274519
v 0.179127 0.125000 0.406250
v 0.125000 0.125000 0.375000
v 0.125000 0.875000 0.375000
v 0.179127 0.875000 0.406250
v 0.156250 0.937500 0.320873
v 0.210377 0.937500 0.352123
v 0.522877 0.937500 -0.189142
v 0.468750 0.937500 -0.220392
v 0.125000 0.937500 0.375000
v 0.179127 0.937500 0.406250
v 0.210377 0.062500 0.352123
v 0.156250 0.062500 0.320873
v 0.522877 0.062500 -0.189142
v 0.468750 0.062500 -0.220392
v 0.179127 0.062500 0.406250
v 0.125000 0.062500 0.375000
v 0.169782 0.125000 0.328686
v 0.169782 0.875000 0.328686
v 0.482282 0.875000 -0.212580
v 0.482282 0.125000 -0.212580
v 0.632560 0.437500 -0.327727
v 0.632560 0.562500 -0.327727
v 0.503626 0.440625 -0.279237
v 0.503626 0.559375 -0.279237
v 0.672734 0.562500 -0.279850
v 0.672734 0.437500 -0.279850
v 0.503626 0.559375 -0.219862
v 0.503626 0.440625 -0.219862
v 0.566126 0.559375 -0.280799
v 0.584682 0.562500 -0.287553
v 0.584682 0.437500 -0.287553
v 0.566126 0.440625 -0.280799
v 0.566126 0.562500 -0.218299
v 0.624857 0.562500 -0.239675
v 0.624857 0.437500 -0.239675
v 0.566126 0.437500 -0.218299
v 0.544749 0.562500 -0.277030
v 0.603480 0.559375 -0.298406
v 0.603480 0.440625 -0.298406
v 0.544749 0.437500 -0.277030
v 0.566126 0.562500 -0.218299
v 0.624857 0.562500 -0.239675
v 0.624857 0.437500 -0.239675
v 0.566126 0.437500 -0.218299
vt 0.000000 0.968750
vt 0.000000 1.000000
vt 0.031250 1.000000
vt 0.031250 0.968750
vt 0.687500 0.562500
vt 0.375000 0.562500
vt 0.375000 0.937500
vt 0.687500 0.937500
vt 0.000000 0.968750
vt 0.000000 1.000000
vt 0.031250 1.000000
vt 0.031250 0.968750
vt 0.062500 0.937500
vt 0.062500 0.968750
vt 0.375000 0.968750
vt 0.375000 0.937500
vt 0.062500 0.968750
vt 0.062500 0.937500
vt 0.375000 0.937500
vt 0.375000 0.968750
vt 0.062500 0.968750
vt 0.031250 1.000000
vt 0.031250 0.968750
vt 0.062500 0.562500
vt 0.031250 0.562500
vt 0.031250 0.937500
vt 0.062500 0.937500
vt 0.062500 0.562500
vt 0.031250 0.562500
vt 0.031250 0.937500
vt 0.062500 0.937500
vt 0.031250 0.937500
vt 0.062500 0.937500
vt 0.062500 0.562500
vt 0.031250 0.562500
vt 0.031250 0.968750
vt 0.031250 0.937500
vt 0.000000 0.937500
vt 0.000000 0.968750
vt 0.031250 0.562500
vt 0.000000 0.562500
vt 0.000000 0.937500
vt 0.031250 0.937500
vt 0.062500 0.968750
vt 0.031250 0.937500
vt 0.031250 0.968750
vt 0.000000 0.937500
vt 0.031250 0.937500
vt 0.031250 0.562500
vt 0.000000 0.562500
vt 0.031250 0.562500
vt 0.000000 0.562500
vt 0.000000 0.937500
vt 0.031250 0.937500
vt 0.031250 0.968750
vt 0.000000 0.968750
vt 0.031250 1.000000
vt 0.062500 1.000000
vt 0.031250 0.968750
vt 0.031250 1.000000
vt 0.375000 1.000000
vt 0.375000 0.968750
vt 0.062500 0.968750
vt 0.062500 1.000000
vt 0.062500 0.968750
vt 0.062500 1.000000
vt 0.375000 1.000000
vt 0.375000 0.968750
vt 0.375000 0.968750
vt 0.062500 0.968750
vt 0.031250 0.968750
vt 0.062500 0.968750
vt 0.000000 0.968750
vt 0.000000 1.000000
vt 0.031250 1.000000
vt 0.031250 0.968750
vt 0.062500 0.968750
vt 0.375000 0.968750
vt 0.031250 0.968750
vt 0.062500 0.968750
vt 0.062500 0.937500
vt 0.031250 0.937500
vt 0.000000 0.937500
vt 0.000000 0.968750
vt 0.031250 0.968750
vt 0.031250 0.968750
vt 0.031250 0.937500
vt 0.000000 0.968750
vt 0.031250 0.968750
vt 0.031250 0.937500
vt 0.031250 0.968750
vt 0.031250 0.937500
vt 0.000000 0.937500
vt 0.000000 0.968750
vt 0.375000 0.968750
vt 0.375000 0.937500
vt 0.062500 0.937500
vt 0.062500 0.968750
vt 0.687500 0.562500
vt 0.375000 0.562500
vt 0.375000 0.937500
vt 0.687500 0.937500
vt 0.000000 0.937500
vt 0.031250 0.937500
vt 0.031250 0.562500
vt 0.000000 0.562500
vt 0.375000 1.000000
vt 0.375000 0.968750
vt 0.062500 0.968750
vt 0.062500 1.000000
vt 0.062500 0.562500
vt 0.031250 0.562500
vt 0.031250 0.937500
vt 0.062500 0.937500
vt 0.968750 0.812500
vt 0.906250 0.812500
vt 0.906250 0.781250
vt 0.968750 0.781250
vt 0.968750 0.812500
vt 0.968750 0.781250
vt 0.906250 0.781250
vt 0.906250 0.812500
vt 1.000000 0.843750
vt 0.968750 0.843750
vt 0.968750 0.875000
vt 1.000000 0.875000
vt 1.000000 0.812500
vt 0.968750 0.812500
vt 0.968750 0.781250
vt 1.000000 0.781250
vt 0.968750 0.875000
vt 0.968750 0.812500
vt 1.000000 0.812500
vt 1.000000 0.875000
vt 1.000000 0.875000
vt 0.968750 0.875000
vt 0.968750 0.843750
vt 1.000000 0.843750
vt 1.000000 0.781250
vt 1.000000 0.812500
vt 0.906250 0.843750
vt 0.906250 0.875000
vt 0.968750 0.875000
vt 0.906250 0.875000
vt 0.906250 0.843750
vt 0.968750 0.843750
vt 1.000000 0.843750
vt 0.968750 0.843750
vt 0.968750 0.812500
vt 1.000000 0.812500
vt 1.000000 0.812500
vt 0.968750 0.812500
vt 0.968750 0.843750
vt 1.000000 0.843750
vt 0.906250 0.812500
vt 0.906250 0.843750
vt 0.968750 0.843750
vt 0.906250 0.843750
vt 0.906250 0.812500
vt 0.968750 0.812500
vn -0.5000 0.0000 0.8660
vn 0.8660 0.0000 0.5000
vn 0.0000 1.0000 0.0000
vn 0.5000 0.0000 -0.8660
vn -0.8660 0.0000 -0.5000
vn 0.3536 0.7071 -0.6124
vn 0.0000 -1.0000 0.0000
vn 0.3536 -0.7071 -0.6124
vn -0.0250 0.0000 -0.9997
vn -0.0250 0.0000 0.9997
vn -0.0250 -0.9994 -0.0256
vn 0.7660 0.0000 -0.6428
vn -0.0250 0.9994 -0.0256
vn 0.6428 0.0000 0.7660
vn -0.6428 0.0000 -0.7660
vn 0.0149 -0.9994 -0.0320
vn 0.0149 0.9994 -0.0320
vn 0.3420 0.0000 0.9397
vn -0.3420 -0.0000 -0.9397
usemtl MAIN
s off
f 52/123/7 58/124/7 57/125/7 51/126/7
f 39/127/8 43/128/8 44/129/8 40/130/8
f 40/131/8 54/132/8 58/133/8 52/134/8
f 37/135/9 65/136/9 68/137/9 41/138/9
f 39/139/8 59/140/8 61/141/8 43/142/8
f 45/143/8 55/144/8 44/145/8
f 46/146/10 47/147/10 48/148/10 45/149/10
f 43/150/8 46/151/8 45/152/8 44/153/8
f 42/154/11 48/155/11 47/156/11 41/157/11
f 37/158/11 60/159/11 64/160/11 50/161/11
f 50/162/7 49/163/7 52/164/7 51/165/7
f 47/166/11 62/167/11 41/168/11
f 40/169/8 52/170/8 49/171/8 39/172/8
f 37/173/11 50/174/11 51/175/11 38/176/11
f 53/177/9 57/178/9 58/124/9 54/179/9
f 55/180/12 45/143/12 48/181/12 56/182/12
f 55/183/9 56/184/9 53/185/9 54/186/9
f 38/187/11 53/188/11 56/189/11 42/190/11
f 44/191/8 55/183/8 54/186/8 40/192/8
f 42/193/11 56/182/11 48/194/11
f 51/195/11 57/196/11 53/197/11 38/198/11
f 59/140/13 60/199/13 62/200/13 61/141/13
f 62/167/14 47/201/14 46/202/14 61/203/14
f 59/204/13 63/205/13 64/206/13 60/207/13
f 50/208/7 64/209/7 63/205/7 49/210/7
f 43/211/8 61/212/8 46/202/8
f 49/213/8 63/214/8 59/215/8 39/216/8
f 41/217/11 62/218/11 60/219/11 37/220/11
f 68/221/11 65/222/11 66/223/11 67/224/11
f 38/225/10 66/226/10 65/227/10 37/228/10
f 42/229/13 67/230/13 66/231/13 38/232/13
f 41/233/7 68/234/7 67/235/7 42/236/7
f 77/237/15 80/238/15 71/239/15 72/240/15
f 81/241/16 75/242/16 76/243/16 84/244/16
f 78/245/9 82/246/9 73/247/9 70/248/9
f 80/249/17 84/250/17 76/251/17 71/252/17
f 69/253/18 70/254/18 73/255/18 74/256/18
f 69/257/13 74/258/13 83/259/13 79/260/13
f 72/261/19 75/242/19 81/241/19 77/262/19
f 73/247/20 82/246/20 83/263/20 74/264/20
f 70/265/21 69/266/21 79/267/21 78/268/21
f 87/269/22 91/270/22 92/271/22 88/272/22
f 85/273/23 89/274/23 90/275/23 86/276/23
f 90/275/24 89/274/24 92/277/24 91/278/24
f 86/279/25 87/280/25 88/281/25 85/282/25
o COVER_RIGHT_OPEN_Cube.005
v 0.156250 0.125000 0.679127
v 0.156250 0.875000 0.679127
v 0.210377 0.125000 0.647877
v 0.210377 0.875000 0.647877
v 0.468750 0.125000 1.220392
v 0.468750 0.875000 1.220392
v 0.522877 0.125000 1.189142
v 0.522877 0.875000 1.189142
v 0.554127 0.875000 1.243269
v 0.554127 0.125000 1.243269
v 0.500000 0.125000 1.274519
v 0.500000 0.875000 1.274519
v 0.179127 0.125000 0.593750
v 0.125000 0.125000 0.625000
v 0.125000 0.875000 0.625000
v 0.179127 0.875000 0.593750
v 0.156250 0.937500 0.679127
v 0.210377 0.937500 0.647877
v 0.522877 0.937500 1.189142
v 0.468750 0.937500 1.220392
v 0.125000 0.937500 0.625000
v 0.179127 0.937500 0.593750
v 0.210377 0.062500 0.647877
v 0.156250 0.062500 0.679127
v 0.522877 0.062500 1.189142
v 0.468750 0.062500 1.220392
v 0.179127 0.062500 0.593750
v 0.125000 0.062500 0.625000
v 0.169782 0.125000 0.671314
v 0.169782 0.875000 0.671314
v 0.482282 0.875000 1.212580
v 0.482282 0.125000 1.212580
vt 0.000000 0.968750
vt 0.031250 0.968750
vt 0.031250 1.000000
vt 0.000000 1.000000
vt 0.687500 0.562500
vt 0.687500 0.937500
vt 0.375000 0.937500
vt 0.375000 0.562500
vt 0.000000 0.968750
vt 0.031250 0.968750
vt 0.031250 1.000000
vt 0.000000 1.000000
vt 0.062500 0.937500
vt 0.375000 0.937500
vt 0.375000 0.968750
vt 0.062500 0.968750
vt 0.062500 0.968750
vt 0.375000 0.968750
vt 0.375000 0.937500
vt 0.062500 0.937500
vt 0.062500 0.968750
vt 0.031250 0.968750
vt 0.031250 1.000000
vt 0.062500 0.562500
vt 0.062500 0.937500
vt 0.031250 0.937500
vt 0.031250 0.562500
vt 0.062500 0.562500
vt 0.062500 0.937500
vt 0.031250 0.937500
vt 0.031250 0.562500
vt 0.031250 0.937500
vt 0.031250 0.562500
vt 0.062500 0.562500
vt 0.062500 0.937500
vt 0.031250 0.968750
vt 0.000000 0.968750
vt 0.000000 0.937500
vt 0.031250 0.937500
vt 0.031250 0.562500
vt 0.031250 0.937500
vt 0.000000 0.937500
vt 0.000000 0.562500
vt 0.062500 0.968750
vt 0.031250 0.968750
vt 0.031250 0.937500
vt 0.000000 0.937500
vt 0.000000 0.562500
vt 0.031250 0.562500
vt 0.031250 0.937500
vt 0.031250 0.562500
vt 0.031250 0.937500
vt 0.000000 0.937500
vt 0.000000 0.562500
vt 0.031250 0.968750
vt 0.031250 1.000000
vt 0.000000 0.968750
vt 0.062500 1.000000
vt 0.031250 1.000000
vt 0.031250 0.968750
vt 0.375000 1.000000
vt 0.062500 1.000000
vt 0.062500 0.968750
vt 0.375000 0.968750
vt 0.062500 0.968750
vt 0.375000 0.968750
vt 0.375000 1.000000
vt 0.062500 1.000000
vt 0.375000 0.968750
vt 0.062500 0.968750
vt 0.031250 0.968750
vt 0.062500 0.968750
vt 0.000000 0.968750
vt 0.031250 0.968750
vt 0.031250 1.000000
vt 0.000000 1.000000
vt 0.375000 0.968750
vt 0.062500 0.968750
vt 0.062500 0.937500
vt 0.062500 0.968750
vt 0.031250 0.968750
vt 0.031250 0.937500
vt 0.031250 0.968750
vt 0.000000 0.968750
vt 0.000000 0.937500
vt 0.031250 0.968750
vt 0.000000 0.968750
vt 0.031250 0.937500
vt 0.031250 0.968750
vt 0.031250 0.937500
vt 0.031250 0.968750
vt 0.000000 0.968750
vt 0.000000 0.937500
vt 0.031250 0.937500
vt 0.375000 0.968750
vt 0.062500 0.968750
vt 0.062500 0.937500
vt 0.375000 0.937500
vt 0.375000 0.562500
vt 0.375000 0.937500
vt 0.062500 0.937500
vt 0.062500 0.562500
vt 0.000000 0.937500
vt 0.000000 0.562500
vt 0.031250 0.562500
vt 0.031250 0.937500
vt 0.375000 1.000000
vt 0.062500 1.000000
vt 0.062500 0.968750
vt 0.375000 0.968750
vt 0.062500 0.562500
vt 0.062500 0.937500
vt 0.031250 0.937500
vt 0.031250 0.562500
vn -0.5000 0.0000 -0.8660
vn 0.8660 0.0000 -0.5000
vn 0.0000 1.0000 0.0000
vn 0.5000 0.0000 0.8660
vn -0.8660 0.0000 0.5000
vn 0.3536 0.7071 0.6124
vn 0.0000 -1.0000 0.0000
vn 0.3536 -0.7071 0.6124
usemtl MAIN
s off
f 108/283/26 107/284/26 113/285/26 114/286/26
f 95/287/27 96/288/27 100/289/27 99/290/27
f 96/291/27 108/292/27 114/293/27 110/294/27
f 93/295/28 97/296/28 124/297/28 121/298/28
f 95/299/27 99/300/27 117/301/27 115/302/27
f 101/303/27 100/304/27 111/305/27
f 102/306/29 101/307/29 104/308/29 103/309/29
f 99/310/27 100/311/27 101/312/27 102/313/27
f 98/314/30 97/315/30 103/316/30 104/317/30
f 93/318/30 106/319/30 120/320/30 116/321/30
f 106/322/26 107/323/26 108/324/26 105/325/26
f 103/326/30 97/327/30 118/328/30
f 96/329/27 95/330/27 105/331/27 108/332/27
f 93/333/30 94/334/30 107/335/30 106/336/30
f 109/337/28 110/338/28 114/286/28 113/339/28
f 111/340/31 112/341/31 104/342/31 101/303/31
f 111/343/28 110/344/28 109/345/28 112/346/28
f 94/347/30 98/348/30 112/349/30 109/350/30
f 100/351/27 96/352/27 110/344/27 111/343/27
f 98/353/30 104/354/30 112/341/30
f 107/355/30 94/356/30 109/357/30 113/358/30
f 115/302/32 117/301/32 118/359/32 116/360/32
f 118/328/33 117/361/33 102/362/33 103/363/33
f 115/364/32 116/365/32 120/366/32 119/367/32
f 106/368/26 105/369/26 119/367/26 120/370/26
f 99/371/27 102/362/27 117/372/27
f 105/373/27 95/374/27 115/375/27 119/376/27
f 97/377/30 93/378/30 116/379/30 118/380/30
f 124/381/30 123/382/30 122/383/30 121/384/30
f 94/385/29 93/386/29 121/387/29 122/388/29
f 98/389/32 94/390/32 122/391/32 123/392/32
f 97/393/26 98/394/26 123/395/26 124/396/26
