# Blender v2.80 (sub 75) OBJ File: 'spellbook.blend'
# www.blender.org
mtllib mandala_circle.mtl
o MANDALA_CIRCLE_Plane.019
v 0.000000 -0.125000 -0.125000
v -0.000000 0.125000 -0.125000
v 0.000000 -0.125000 0.125000
v -0.000000 0.125000 0.125000
v 0.000000 -0.125000 -0.125000
v -0.000000 0.125000 -0.125000
v 0.000000 -0.125000 0.125000
v -0.000000 0.125000 0.125000
vt 0.000000 0.000000
vt 1.000000 0.000000
vt 1.000000 1.000000
vt 0.000000 1.000000
vt 0.000000 0.000000
vt 0.000000 1.000000
vt 1.000000 1.000000
vt 1.000000 0.000000
vn 1.0000 0.0000 0.0000
vn -1.0000 -0.0000 -0.0000
usemtl MANDALA_CIRCLE
s off
f 1/1/1 2/2/1 4/3/1 3/4/1
f 5/5/2 7/6/2 8/7/2 6/8/2
