# Blender v2.80 (sub 75) OBJ File: 'spellbook.blend'
# www.blender.org
mtllib spellbook_open_tint.mtl
o COVER_BACK_VAR1_OPEN_Cube.053
v 0.156250 0.125000 0.258373
v 0.156250 0.875000 0.258373
v 0.210377 0.125000 0.289623
v 0.210377 0.875000 0.289623
v 0.468750 0.125000 -0.282892
v 0.468750 0.875000 -0.282892
v 0.522877 0.125000 -0.251642
v 0.522877 0.875000 -0.251642
v 0.554127 0.875000 -0.305769
v 0.554127 0.125000 -0.305769
v 0.500000 0.125000 -0.337019
v 0.500000 0.875000 -0.337019
v 0.179127 0.125000 0.343750
v 0.125000 0.125000 0.312500
v 0.125000 0.875000 0.312500
v 0.179127 0.875000 0.343750
v 0.156250 0.937500 0.258373
v 0.210377 0.937500 0.289623
v 0.522877 0.937500 -0.251642
v 0.468750 0.937500 -0.282892
v 0.125000 0.937500 0.312500
v 0.179127 0.937500 0.343750
v 0.210377 0.062500 0.289623
v 0.156250 0.062500 0.258373
v 0.522877 0.062500 -0.251642
v 0.468750 0.062500 -0.282892
v 0.179127 0.062500 0.343750
v 0.125000 0.062500 0.312500
v 0.169782 0.125000 0.266186
v 0.169782 0.875000 0.266186
v 0.482282 0.875000 -0.275080
v 0.482282 0.125000 -0.275080
vt 0.000000 0.968750
vt 0.000000 1.000000
vt 0.031250 1.000000
vt 0.031250 0.968750
vt 0.687500 0.562500
vt 0.375000 0.562500
vt 0.375000 0.937500
vt 0.687500 0.937500
vt 0.000000 0.968750
vt 0.000000 1.000000
vt 0.031250 1.000000
vt 0.031250 0.968750
vt 0.062500 0.937500
vt 0.062500 0.968750
vt 0.375000 0.968750
vt 0.375000 0.937500
vt 0.062500 0.968750
vt 0.062500 0.937500
vt 0.375000 0.937500
vt 0.375000 0.968750
vt 0.062500 0.968750
vt 0.031250 1.000000
vt 0.031250 0.968750
vt 0.062500 0.562500
vt 0.031250 0.562500
vt 0.031250 0.937500
vt 0.062500 0.937500
vt 0.062500 0.562500
vt 0.031250 0.562500
vt 0.031250 0.937500
vt 0.062500 0.937500
vt 0.031250 0.937500
vt 0.062500 0.937500
vt 0.062500 0.562500
vt 0.031250 0.562500
vt 0.031250 0.968750
vt 0.031250 0.937500
vt 0.000000 0.937500
vt 0.000000 0.968750
vt 0.031250 0.562500
vt 0.000000 0.562500
vt 0.000000 0.937500
vt 0.031250 0.937500
vt 0.062500 0.968750
vt 0.031250 0.937500
vt 0.031250 0.968750
vt 0.000000 0.937500
vt 0.031250 0.937500
vt 0.031250 0.562500
vt 0.000000 0.562500
vt 0.031250 0.562500
vt 0.000000 0.562500
vt 0.000000 0.937500
vt 0.031250 0.937500
vt 0.031250 0.968750
vt 0.000000 0.968750
vt 0.031250 1.000000
vt 0.062500 1.000000
vt 0.031250 0.968750
vt 0.031250 1.000000
vt 0.375000 1.000000
vt 0.375000 0.968750
vt 0.062500 0.968750
vt 0.062500 1.000000
vt 0.062500 0.968750
vt 0.062500 1.000000
vt 0.375000 1.000000
vt 0.375000 0.968750
vt 0.375000 0.968750
vt 0.062500 0.968750
vt 0.031250 0.968750
vt 0.062500 0.968750
vt 0.000000 0.968750
vt 0.000000 1.000000
vt 0.031250 1.000000
vt 0.031250 0.968750
vt 0.062500 0.968750
vt 0.375000 0.968750
vt 0.031250 0.968750
vt 0.062500 0.968750
vt 0.062500 0.937500
vt 0.031250 0.937500
vt 0.000000 0.937500
vt 0.000000 0.968750
vt 0.031250 0.968750
vt 0.031250 0.968750
vt 0.031250 0.937500
vt 0.000000 0.968750
vt 0.031250 0.968750
vt 0.031250 0.937500
vt 0.031250 0.968750
vt 0.031250 0.937500
vt 0.000000 0.937500
vt 0.000000 0.968750
vt 0.375000 0.968750
vt 0.375000 0.937500
vt 0.062500 0.937500
vt 0.062500 0.968750
vt 0.687500 0.562500
vt 0.375000 0.562500
vt 0.375000 0.937500
vt 0.687500 0.937500
vt 0.000000 0.937500
vt 0.031250 0.937500
vt 0.031250 0.562500
vt 0.000000 0.562500
vt 0.375000 1.000000
vt 0.375000 0.968750
vt 0.062500 0.968750
vt 0.062500 1.000000
vt 0.062500 0.562500
vt 0.031250 0.562500
vt 0.031250 0.937500
vt 0.062500 0.937500
vn -0.5000 0.0000 0.8660
vn 0.8660 0.0000 0.5000
vn 0.0000 1.0000 0.0000
vn 0.5000 0.0000 -0.8660
vn -0.8660 0.0000 -0.5000
vn 0.3536 0.7071 -0.6124
vn 0.0000 -1.0000 0.0000
vn 0.3536 -0.7071 -0.6124
usemtl MAIN
s off
f 16/1/1 22/2/1 21/3/1 15/4/1
f 3/5/2 7/6/2 8/7/2 4/8/2
f 4/9/2 18/10/2 22/11/2 16/12/2
f 1/13/3 29/14/3 32/15/3 5/16/3
f 3/17/2 23/18/2 25/19/2 7/20/2
f 9/21/2 19/22/2 8/23/2
f 10/24/4 11/25/4 12/26/4 9/27/4
f 7/28/2 10/29/2 9/30/2 8/31/2
f 6/32/5 12/33/5 11/34/5 5/35/5
f 1/36/5 24/37/5 28/38/5 14/39/5
f 14/40/1 13/41/1 16/42/1 15/43/1
f 11/44/5 26/45/5 5/46/5
f 4/47/2 16/48/2 13/49/2 3/50/2
f 1/51/5 14/52/5 15/53/5 2/54/5
f 17/55/3 21/56/3 22/2/3 18/57/3
f 19/58/6 9/21/6 12/59/6 20/60/6
f 19/61/3 20/62/3 17/63/3 18/64/3
f 2/65/5 17/66/5 20/67/5 6/68/5
f 8/69/2 19/61/2 18/64/2 4/70/2
f 6/71/5 20/60/5 12/72/5
f 15/73/5 21/74/5 17/75/5 2/76/5
f 23/18/7 24/77/7 26/78/7 25/19/7
f 26/45/8 11/79/8 10/80/8 25/81/8
f 23/82/7 27/83/7 28/84/7 24/85/7
f 14/86/1 28/87/1 27/83/1 13/88/1
f 7/89/2 25/90/2 10/80/2
f 13/91/2 27/92/2 23/93/2 3/94/2
f 5/95/5 26/96/5 24/97/5 1/98/5
f 32/99/5 29/100/5 30/101/5 31/102/5
f 2/103/4 30/104/4 29/105/4 1/106/4
f 6/107/7 31/108/7 30/109/7 2/110/7
f 5/111/1 32/112/1 31/113/1 6/114/1
o COVER_FRONT_VAR1_OPEN_Cube.057
v 0.156250 0.125000 0.741627
v 0.156250 0.875000 0.741627
v 0.210377 0.125000 0.710377
v 0.210377 0.875000 0.710377
v 0.468750 0.125000 1.282892
v 0.468750 0.875000 1.282892
v 0.522877 0.125000 1.251642
v 0.522877 0.875000 1.251642
v 0.554127 0.875000 1.305769
v 0.554127 0.125000 1.305769
v 0.500000 0.125000 1.337019
v 0.500000 0.875000 1.337019
v 0.179127 0.125000 0.656250
v 0.125000 0.125000 0.687500
v 0.125000 0.875000 0.687500
v 0.179127 0.875000 0.656250
v 0.156250 0.937500 0.741627
v 0.210377 0.937500 0.710377
v 0.522877 0.937500 1.251642
v 0.468750 0.937500 1.282892
v 0.125000 0.937500 0.687500
v 0.179127 0.937500 0.656250
v 0.210377 0.062500 0.710377
v 0.156250 0.062500 0.741627
v 0.522877 0.062500 1.251642
v 0.468750 0.062500 1.282892
v 0.179127 0.062500 0.656250
v 0.125000 0.062500 0.687500
v 0.169782 0.125000 0.733814
v 0.169782 0.875000 0.733814
v 0.482282 0.875000 1.275080
v 0.482282 0.125000 1.275080
v 0.491627 0.125000 1.197516
v 0.241627 0.125000 0.764503
v 0.241627 0.875000 0.764503
v 0.491627 0.875000 1.197516
v 0.187500 0.125000 0.795753
v 0.437500 0.125000 1.228766
v 0.437500 0.875000 1.228766
v 0.187500 0.875000 0.795753
v 0.241627 0.937500 0.764503
v 0.491627 0.937500 1.197516
v 0.437500 0.937500 1.228766
v 0.187500 0.937500 0.795753
v 0.491627 0.062500 1.197516
v 0.241627 0.062500 0.764503
v 0.187500 0.062500 0.795753
v 0.437500 0.062500 1.228766
v 0.201032 0.125000 0.787941
v 0.451032 0.125000 1.220953
v 0.451032 0.875000 1.220953
v 0.201032 0.875000 0.787941
v 0.156250 0.187500 0.741627
v 0.156250 0.812500 0.741627
v 0.210377 0.812500 0.710377
v 0.210377 0.187500 0.710377
v 0.522877 0.812500 1.251642
v 0.522877 0.187500 1.251642
v 0.468750 0.812500 1.282892
v 0.468750 0.187500 1.282892
v 0.554127 0.812500 1.305769
v 0.554127 0.187500 1.305769
v 0.500000 0.812500 1.337019
v 0.500000 0.187500 1.337019
v 0.125000 0.187500 0.687500
v 0.125000 0.812500 0.687500
v 0.179127 0.812500 0.656250
v 0.179127 0.187500 0.656250
v 0.169782 0.187500 0.733814
v 0.169782 0.812500 0.733814
v 0.482282 0.812500 1.275080
v 0.482282 0.187500 1.275080
v 0.451032 0.812500 1.220953
v 0.451032 0.187500 1.220953
v 0.201032 0.812500 0.787941
v 0.201032 0.187500 0.787941
v 0.241627 0.812500 0.764503
v 0.241627 0.187500 0.764503
v 0.491627 0.812500 1.197516
v 0.491627 0.187500 1.197516
vt 0.000000 0.968750
vt 0.031250 0.968750
vt 0.031250 1.000000
vt 0.000000 1.000000
vt 0.406250 0.906250
vt 0.406250 0.937500
vt 0.375000 0.937500
vt 0.375000 0.906250
vt 0.000000 0.968750
vt 0.031250 0.968750
vt 0.031250 1.000000
vt 0.000000 1.000000
vt 0.343750 0.937500
vt 0.375000 0.937500
vt 0.375000 0.968750
vt 0.343750 0.968750
vt 0.343750 0.968750
vt 0.375000 0.968750
vt 0.375000 0.937500
vt 0.343750 0.937500
vt 0.062500 0.968750
vt 0.031250 0.968750
vt 0.031250 1.000000
vt 0.062500 0.906250
vt 0.062500 0.937500
vt 0.031250 0.937500
vt 0.031250 0.906250
vt 0.062500 0.906250
vt 0.062500 0.937500
vt 0.031250 0.937500
vt 0.031250 0.906250
vt 0.031250 0.593750
vt 0.031250 0.562500
vt 0.062500 0.562500
vt 0.062500 0.593750
vt 0.031250 0.968750
vt 0.000000 0.968750
vt 0.000000 0.937500
vt 0.031250 0.937500
vt 0.031250 0.906250
vt 0.031250 0.937500
vt 0.000000 0.937500
vt 0.000000 0.906250
vt 0.062500 0.968750
vt 0.031250 0.968750
vt 0.031250 0.937500
vt 0.000000 0.593750
vt 0.000000 0.562500
vt 0.031250 0.562500
vt 0.031250 0.593750
vt 0.031250 0.906250
vt 0.031250 0.937500
vt 0.000000 0.937500
vt 0.000000 0.906250
vt 0.031250 0.968750
vt 0.031250 1.000000
vt 0.000000 0.968750
vt 0.062500 1.000000
vt 0.031250 1.000000
vt 0.031250 0.968750
vt 0.093750 1.000000
vt 0.062500 1.000000
vt 0.062500 0.968750
vt 0.093750 0.968750
vt 0.343750 0.968750
vt 0.375000 0.968750
vt 0.375000 1.000000
vt 0.343750 1.000000
vt 0.093750 0.968750
vt 0.062500 0.968750
vt 0.031250 0.968750
vt 0.062500 0.968750
vt 0.000000 0.968750
vt 0.031250 0.968750
vt 0.031250 1.000000
vt 0.000000 1.000000
vt 0.375000 0.968750
vt 0.343750 0.968750
vt 0.062500 0.937500
vt 0.062500 0.968750
vt 0.031250 0.968750
vt 0.031250 0.937500
vt 0.031250 0.968750
vt 0.000000 0.968750
vt 0.000000 0.937500
vt 0.031250 0.968750
vt 0.000000 0.968750
vt 0.031250 0.937500
vt 0.031250 0.968750
vt 0.031250 0.937500
vt 0.031250 0.968750
vt 0.000000 0.968750
vt 0.000000 0.937500
vt 0.031250 0.937500
vt 0.093750 0.968750
vt 0.062500 0.968750
vt 0.062500 0.937500
vt 0.093750 0.937500
vt 0.093750 0.906250
vt 0.093750 0.937500
vt 0.062500 0.937500
vt 0.062500 0.906250
vt 0.000000 0.593750
vt 0.000000 0.562500
vt 0.031250 0.562500
vt 0.031250 0.593750
vt 0.093750 1.000000
vt 0.062500 1.000000
vt 0.062500 0.968750
vt 0.093750 0.968750
vt 0.062500 0.906250
vt 0.062500 0.937500
vt 0.031250 0.937500
vt 0.031250 0.906250
vt 0.375000 1.000000
vt 0.343750 1.000000
vt 0.343750 0.968750
vt 0.375000 0.968750
vt 0.375000 0.906250
vt 0.375000 0.937500
vt 0.343750 0.937500
vt 0.343750 0.906250
vt 0.343750 0.593750
vt 0.093750 0.593750
vt 0.375000 0.968750
vt 0.343750 0.968750
vt 0.343750 0.937500
vt 0.375000 0.937500
vt 0.062500 0.937500
vt 0.093750 0.937500
vt 0.093750 0.968750
vt 0.062500 0.968750
vt 0.375000 0.968750
vt 0.343750 0.968750
vt 0.343750 1.000000
vt 0.375000 1.000000
vt 0.062500 0.968750
vt 0.093750 0.968750
vt 0.093750 1.000000
vt 0.062500 1.000000
vt 0.343750 0.968750
vt 0.375000 0.968750
vt 0.062500 0.968750
vt 0.093750 0.968750
vt 0.062500 0.937500
vt 0.093750 0.937500
vt 0.093750 0.968750
vt 0.062500 0.968750
vt 0.687500 0.906250
vt 0.687500 0.937500
vt 0.656250 0.937500
vt 0.656250 0.906250
vt 0.656250 0.593750
vt 0.406250 0.593750
vt 0.656250 0.562500
vt 0.406250 0.562500
vt 0.687500 0.562500
vt 0.687500 0.593750
vt 0.343750 0.562500
vt 0.093750 0.562500
vt 0.375000 0.562500
vt 0.375000 0.593750
vt 0.062500 0.562500
vt 0.062500 0.593750
vt 0.031250 0.593750
vt 0.031250 0.562500
vt 0.000000 0.937500
vt 0.000000 0.906250
vt 0.031250 0.906250
vt 0.031250 0.937500
vt 0.062500 0.593750
vt 0.062500 0.562500
vt 0.031250 0.562500
vt 0.031250 0.593750
vt 0.000000 0.593750
vt 0.000000 0.562500
vt 0.000000 0.937500
vt 0.000000 0.906250
vt 0.031250 0.906250
vt 0.031250 0.937500
vt 0.031250 0.562500
vt 0.031250 0.593750
vt 0.000000 0.593750
vt 0.000000 0.562500
vt 0.031250 0.937500
vt 0.031250 0.906250
vt 0.062500 0.906250
vt 0.062500 0.937500
vt 0.062500 0.562500
vt 0.062500 0.593750
vt 0.031250 0.593750
vt 0.031250 0.562500
vt 0.062500 0.562500
vt 0.062500 0.593750
vt 0.031250 0.593750
vt 0.031250 0.562500
vt 0.375000 0.593750
vt 0.375000 0.562500
vn -0.5000 0.0000 -0.8660
vn 0.8660 0.0000 -0.5000
vn 0.0000 1.0000 0.0000
vn 0.5000 0.0000 0.8660
vn -0.8660 0.0000 0.5000
vn 0.3536 0.7071 0.6124
vn 0.0000 -1.0000 0.0000
vn 0.3536 -0.7071 0.6124
usemtl MAIN
s off
f 48/115/9 47/116/9 53/117/9 54/118/9
f 111/119/10 68/120/10 40/121/10 89/122/10
f 36/123/10 48/124/10 54/125/10 50/126/10
f 70/127/11 37/128/11 64/129/11 82/130/11
f 65/131/10 39/132/10 57/133/10 77/134/10
f 41/135/10 40/136/10 51/137/10
f 93/138/12 41/139/12 44/140/12 95/141/12
f 89/142/10 40/143/10 41/144/10 93/145/10
f 92/146/13 37/147/13 43/148/13 96/149/13
f 33/150/13 46/151/13 60/152/13 56/153/13
f 98/154/9 47/155/9 48/156/9 99/157/9
f 43/158/13 37/159/13 58/160/13
f 88/161/10 35/162/10 45/163/10 100/164/10
f 86/165/13 34/166/13 47/167/13 98/168/13
f 49/169/11 50/170/11 54/118/11 53/171/11
f 51/172/14 52/173/14 44/174/14 41/135/14
f 73/175/11 50/176/11 49/177/11 76/178/11
f 71/179/13 38/180/13 52/181/13 75/182/13
f 67/183/10 36/184/10 50/176/10 73/175/10
f 38/185/13 44/186/13 52/173/13
f 47/187/13 34/188/13 49/189/13 53/190/13
f 77/134/15 57/133/15 58/191/15 80/192/15
f 58/160/16 57/193/16 42/194/16 43/195/16
f 55/196/15 56/197/15 60/198/15 59/199/15
f 46/200/9 45/201/9 59/199/9 60/202/9
f 39/203/10 42/194/10 57/204/10
f 45/205/10 35/206/10 55/207/10 59/208/10
f 69/209/13 33/210/13 56/211/13 79/212/13
f 107/213/13 84/214/13 62/215/13 102/216/13
f 85/217/12 33/218/12 61/219/12 101/220/12
f 72/221/15 34/222/15 62/223/15 84/224/15
f 91/225/9 38/226/9 63/227/9 103/228/9
f 38/229/15 71/230/15 83/231/15 63/232/15
f 71/230/15 72/221/15 84/224/15 83/231/15
f 103/233/13 63/234/13 83/235/13 105/236/13
f 106/237/13 105/236/13 107/213/13 108/238/13
f 37/239/13 70/240/13 80/241/13 58/242/13
f 69/209/13 79/212/13 80/241/13 70/240/13
f 55/243/15 78/244/15 79/245/15 56/246/15
f 77/134/15 80/192/15 79/245/15 78/244/15
f 40/247/10 68/248/10 74/249/10 51/250/10
f 67/183/10 73/175/10 74/249/10 68/248/10
f 34/251/13 72/252/13 76/253/13 49/254/13
f 71/179/13 75/182/13 76/253/13 72/252/13
f 51/250/11 74/249/11 75/255/11 52/256/11
f 73/175/11 76/178/11 75/255/11 74/249/11
f 35/257/10 66/258/10 78/244/10 55/243/10
f 65/131/10 77/134/10 78/244/10 66/258/10
f 33/259/11 69/260/11 81/261/11 61/262/11
f 69/260/11 70/127/11 82/130/11 81/261/11
f 87/263/10 36/264/10 67/265/10 109/266/10
f 110/267/10 109/266/10 111/119/10 112/268/10
f 66/269/10 110/267/10 112/268/10 65/270/10
f 109/266/10 67/265/10 68/120/10 111/119/10
f 35/271/10 88/272/10 110/267/10 66/269/10
f 88/272/10 87/263/10 109/266/10 110/267/10
f 82/273/13 106/237/13 108/238/13 81/274/13
f 105/236/13 83/235/13 84/214/13 107/213/13
f 64/275/13 104/276/13 106/237/13 82/273/13
f 104/276/13 103/233/13 105/236/13 106/237/13
f 37/277/9 92/278/9 104/279/9 64/280/9
f 92/278/9 91/225/9 103/228/9 104/279/9
f 34/281/12 86/282/12 102/283/12 62/284/12
f 86/282/12 85/217/12 101/220/12 102/283/12
f 81/274/13 108/238/13 101/285/13 61/286/13
f 108/238/13 107/213/13 102/216/13 101/285/13
f 33/287/13 85/288/13 97/289/13 46/290/13
f 85/288/13 86/165/13 98/168/13 97/289/13
f 36/291/10 87/292/10 99/293/10 48/294/10
f 87/292/10 88/161/10 100/164/10 99/293/10
f 46/295/9 97/296/9 100/297/9 45/298/9
f 97/296/9 98/154/9 99/157/9 100/297/9
f 38/299/13 91/300/13 95/301/13 44/302/13
f 91/300/13 92/146/13 96/149/13 95/301/13
f 39/303/10 90/304/10 94/305/10 42/306/10
f 90/304/10 89/142/10 93/145/10 94/305/10
f 42/307/12 94/308/12 96/309/12 43/310/12
f 94/308/12 93/138/12 95/141/12 96/309/12
f 65/270/10 112/268/10 90/311/10 39/312/10
f 112/268/10 111/119/10 89/122/10 90/311/10
o SPINE_VAR1_OPEN_Cube.058
v 0.187500 0.125000 0.687500
v 0.187500 0.875000 0.687500
v 0.187500 0.125000 0.625000
v 0.187500 0.875000 0.625000
v 0.125000 0.125000 0.625000
v 0.125000 0.125000 0.687500
v 0.125000 0.875000 0.687500
v 0.125000 0.875000 0.625000
v 0.187500 0.937500 0.687500
v 0.187500 0.937500 0.625000
v 0.125000 0.937500 0.687500
v 0.125000 0.937500 0.625000
v 0.187500 0.062500 0.625000
v 0.187500 0.062500 0.687500
v 0.125000 0.062500 0.625000
v 0.125000 0.062500 0.687500
v 0.187500 0.125000 0.312500
v 0.187500 0.875000 0.312500
v 0.187500 0.125000 0.375000
v 0.187500 0.875000 0.375000
v 0.125000 0.125000 0.375000
v 0.125000 0.125000 0.312500
v 0.125000 0.875000 0.312500
v 0.125000 0.875000 0.375000
v 0.187500 0.937500 0.312500
v 0.187500 0.937500 0.375000
v 0.125000 0.937500 0.312500
v 0.125000 0.937500 0.375000
v 0.187500 0.062500 0.375000
v 0.187500 0.062500 0.312500
v 0.125000 0.062500 0.375000
v 0.125000 0.062500 0.312500
v 0.140625 0.875000 0.625000
v 0.140625 0.125000 0.625000
v 0.140625 0.875000 0.375000
v 0.140625 0.125000 0.375000
vt 0.000000 0.968750
vt 0.031250 0.968750
vt 0.031250 1.000000
vt 0.000000 1.000000
vt 0.031250 0.968750
vt 0.000000 0.968750
vt 0.000000 0.937500
vt 0.031250 0.937500
vt 0.031250 0.562500
vt 0.031250 0.937500
vt 0.000000 0.937500
vt 0.000000 0.562500
vt 0.031250 0.562500
vt 0.031250 0.937500
vt 0.000000 0.937500
vt 0.000000 0.562500
vt 0.031250 0.968750
vt 0.031250 1.000000
vt 0.000000 0.968750
vt 0.031250 0.937500
vt 0.031250 0.968750
vt 0.000000 0.968750
vt 0.000000 0.937500
vt 0.000000 0.968750
vt 0.031250 0.968750
vt 0.031250 1.000000
vt 0.000000 1.000000
vt 0.000000 0.562500
vt 0.031250 0.562500
vt 0.031250 0.937500
vt 0.000000 0.937500
vt 0.031250 0.968750
vt 0.000000 0.968750
vt 0.000000 0.937500
vt 0.031250 0.968750
vt 0.000000 0.968750
vt 0.031250 0.937500
vt 0.000000 1.000000
vt 0.000000 0.968750
vt 0.031250 0.968750
vt 0.031250 0.968750
vt 0.031250 1.000000
vt 0.000000 1.000000
vt 0.000000 0.968750
vt 0.000000 0.968750
vt 0.000000 0.937500
vt 0.031250 0.937500
vt 0.031250 0.968750
vt 0.000000 0.562500
vt 0.031250 0.562500
vt 0.031250 0.937500
vt 0.000000 0.937500
vt 0.000000 0.562500
vt 0.031250 0.562500
vt 0.031250 0.937500
vt 0.000000 0.937500
vt 0.031250 1.000000
vt 0.000000 0.968750
vt 0.031250 0.968750
vt 0.000000 0.937500
vt 0.031250 0.937500
vt 0.031250 0.968750
vt 0.000000 0.968750
vt 0.031250 0.968750
vt 0.031250 1.000000
vt 0.000000 1.000000
vt 0.000000 0.968750
vt 0.031250 0.562500
vt 0.031250 0.937500
vt 0.000000 0.937500
vt 0.000000 0.562500
vt 0.031250 0.968750
vt 0.000000 0.968750
vt 0.000000 0.937500
vt 0.000000 0.968750
vt 0.031250 0.937500
vt 0.031250 0.968750
vt 0.000000 1.000000
vt 0.000000 0.968750
vt 0.031250 0.968750
vt 0.812500 0.968750
vt 0.687500 0.968750
vt 0.687500 1.000250
vt 0.812500 1.000250
vt 0.687500 0.968750
vt 0.812500 0.968750
vt 0.812500 1.000250
vt 0.687500 1.000250
vt 0.687500 0.968750
vt 0.812500 0.968750
vt 0.031250 0.562500
vt 0.031250 0.937500
vt 0.000000 0.937500
vt 0.000000 0.562500
vt 0.812500 0.969000
vt 0.687500 0.969000
vt 0.687500 0.937500
vt 0.812500 0.937500
vt 0.812500 0.969000
vt 0.687500 0.969000
vt 0.687500 0.937500
vt 0.812500 0.937500
vt 0.687500 0.969000
vt 0.812500 0.969000
vt 0.812500 0.562500
vt 0.937500 0.562500
vt 0.937500 0.937500
vt 0.812500 0.937500
vt 0.812500 0.937500
vt 0.687500 0.937500
vt 0.687500 0.562500
vt 0.812500 0.562500
vt 0.812500 0.937500
vt 0.687500 0.937500
vt 0.812500 1.000250
vt 0.687500 1.000250
vt 0.687500 0.968750
vt 0.812500 0.968750
vt 0.000000 0.937500
vt 0.000000 0.562500
vt 0.031250 0.562500
vt 0.031250 0.937500
vn -1.0000 0.0000 0.0000
vn 0.0000 0.0000 1.0000
vn 0.0000 1.0000 0.0000
vn 1.0000 0.0000 0.0000
vn 0.0000 -1.0000 0.0000
vn 0.0000 0.0000 -1.0000
usemtl MAIN
s off
f 120/313/17 119/314/17 123/315/17 124/316/17
f 113/317/18 118/318/18 128/319/18 126/320/18
f 118/321/17 119/322/17 120/323/17 117/324/17
f 113/325/18 114/326/18 119/327/18 118/328/18
f 121/329/19 122/330/19 124/316/19 123/331/19
f 125/332/20 115/333/20 113/334/20 126/335/20
f 119/336/18 114/337/18 121/338/18 123/339/18
f 113/340/20 115/341/20 116/342/20 114/343/20
f 125/332/21 126/344/21 128/345/21 127/346/21
f 118/347/17 117/348/17 127/346/17 128/349/17
f 121/350/20 114/351/20 116/352/20 122/330/20
f 136/353/17 140/354/17 139/355/17 135/356/17
f 129/357/22 142/358/22 144/359/22 134/360/22
f 134/361/17 133/362/17 136/363/17 135/364/17
f 129/365/22 134/366/22 135/367/22 130/368/22
f 137/369/19 139/355/19 140/370/19 138/371/19
f 141/372/20 142/373/20 129/374/20 131/375/20
f 135/376/22 139/377/22 137/378/22 130/379/22
f 129/380/20 130/381/20 132/382/20 131/383/20
f 141/384/21 143/385/21 144/386/21 142/373/21
f 134/387/17 144/386/17 143/388/17 133/389/17
f 137/369/20 138/390/20 132/391/20 130/392/20
f 116/393/20 132/394/20 138/395/20 122/396/20
f 122/396/19 138/395/19 140/397/19 124/398/19
f 124/399/17 140/400/17 136/401/17 120/402/17
f 117/403/22 120/404/22 145/405/22 146/406/22
f 117/407/17 133/408/17 143/409/17 127/410/17
f 127/411/21 143/412/21 141/413/21 125/414/21
f 125/414/20 141/413/20 131/415/20 115/416/20
f 115/417/20 131/418/20 132/419/20 116/420/20
f 145/421/17 147/422/17 148/423/17 146/424/17
f 133/408/19 117/407/19 146/425/19 148/426/19
f 120/427/21 136/428/21 147/429/21 145/430/21
f 136/431/18 133/432/18 148/433/18 147/434/18
