# Blender v2.80 (sub 75) OBJ File: 'lodestar.blend'
# www.blender.org
mtllib lodestar_gearsmall.mtl
o GEAR_SMALL_Cylinder.002
v -0.110727 0.045865 -0.031250
v -0.110727 0.045865 0.031250
v -0.045865 0.110727 -0.031250
v -0.045865 0.110727 0.031250
v 0.045865 0.110727 -0.031250
v 0.045865 0.110727 0.031250
v 0.110727 0.045865 -0.031250
v 0.110727 0.045865 0.031250
v 0.110727 -0.045865 -0.031250
v 0.110727 -0.045865 0.031250
v 0.045865 -0.110727 -0.031250
v 0.045865 -0.110727 0.031250
v -0.045865 -0.110727 -0.031250
v -0.045865 -0.110727 0.031250
v -0.110727 -0.045865 -0.031250
v -0.110727 -0.045865 0.031250
v -0.173227 0.071753 -0.031250
v -0.071753 0.173227 -0.031250
v -0.071753 0.173227 0.031250
v -0.173227 0.071753 0.031250
v 0.071753 0.173227 -0.031250
v 0.071753 0.173227 0.031250
v 0.173227 0.071753 -0.031250
v 0.173227 0.071753 0.031250
v 0.173227 -0.071753 -0.031250
v 0.173227 -0.071753 0.031250
v 0.071753 -0.173227 -0.031250
v 0.071753 -0.173227 0.031250
v -0.071753 -0.173227 -0.031250
v -0.071753 -0.173227 0.031250
v -0.173227 -0.071753 -0.031250
v -0.173227 -0.071753 0.031250
v -0.217422 0.115947 -0.031250
v -0.217421 0.115947 0.031250
v -0.115947 0.217422 0.031250
v -0.115947 0.217422 -0.031250
v 0.115947 0.217422 -0.031250
v 0.115947 0.217422 0.031250
v 0.217422 0.115947 0.031250
v 0.217422 0.115947 -0.031250
v 0.217422 -0.115947 -0.031250
v 0.217421 -0.115947 0.031250
v 0.115947 -0.217422 0.031250
v 0.115947 -0.217422 -0.031250
v -0.115947 -0.217422 -0.031250
v -0.115947 -0.217422 0.031250
v -0.217422 -0.115947 0.031250
v -0.217422 -0.115947 -0.031250
vt 0.354825 -0.000017
vt 0.354819 0.062500
vt 0.207682 0.062500
vt 0.207679 -0.000016
vt 0.354825 -0.000017
vt 0.354819 0.062500
vt 0.207682 0.062500
vt 0.207679 -0.000016
vt 0.354825 -0.000017
vt 0.354819 0.062500
vt 0.207682 0.062500
vt 0.207679 -0.000016
vt 0.140730 0.187500
vt 0.140733 0.250000
vt 0.046770 0.250000
vt 0.046770 0.187500
vt 0.354825 -0.000017
vt 0.354819 0.062500
vt 0.207682 0.062500
vt 0.207679 -0.000016
vt 0.328230 0.187500
vt 0.328232 0.250000
vt 0.234270 0.250000
vt 0.234270 0.187500
vt 0.515730 0.187500
vt 0.421770 0.187500
vt 0.395181 0.125000
vt 0.542319 0.125000
vt 0.515730 0.187500
vt 0.421770 0.187500
vt 0.395181 0.125000
vt 0.542319 0.125000
vt 0.328230 0.187500
vt 0.234270 0.187500
vt 0.207681 0.125000
vt 0.354819 0.125000
vt 0.328230 0.187500
vt 0.234270 0.187500
vt 0.207681 0.125000
vt 0.354819 0.125000
vt 0.140730 0.187500
vt 0.046770 0.187500
vt 0.020181 0.125000
vt 0.167319 0.125000
vt 0.140730 0.187500
vt 0.046770 0.187500
vt 0.020181 0.125000
vt 0.167319 0.125000
vt 0.328230 0.187500
vt 0.234270 0.187500
vt 0.207681 0.125000
vt 0.354819 0.125000
vt 0.328230 0.187500
vt 0.234270 0.187500
vt 0.207681 0.125000
vt 0.354819 0.125000
vt 0.515730 0.187500
vt 0.421770 0.187500
vt 0.395181 0.125000
vt 0.542319 0.125000
vt 0.515730 0.187500
vt 0.421770 0.187500
vt 0.395181 0.125000
vt 0.542319 0.125000
vt 0.328230 0.187500
vt 0.234270 0.187500
vt 0.207681 0.125000
vt 0.354819 0.125000
vt 0.328230 0.187500
vt 0.234270 0.187500
vt 0.207681 0.125000
vt 0.354819 0.125000
vt 0.020181 0.125000
vt 0.167319 0.125000
vt 0.140730 0.187500
vt 0.046770 0.187500
vt 0.020181 0.125000
vt 0.167319 0.125000
vt 0.207681 0.125000
vt 0.354819 0.125000
vt 0.328230 0.187500
vt 0.234270 0.187500
vt 0.207681 0.125000
vt 0.354819 0.125000
vt 0.328233 0.250000
vt 0.234270 0.250000
vt 0.515733 0.250000
vt 0.421770 0.250000
vt 0.328233 0.250000
vt 0.234270 0.250000
vt 0.140733 0.250000
vt 0.046770 0.250000
vt 0.328233 0.250000
vt 0.234270 0.250000
vt 0.515733 0.250000
vt 0.421770 0.250000
vt 0.542320 -0.000017
vt 0.542319 0.062500
vt 0.395182 0.062500
vt 0.395179 -0.000016
vt 0.562500 0.250000
vt 0.500000 0.250000
vt 0.500000 0.187500
vt 0.562500 0.187500
vt 0.500000 0.187500
vt 0.562500 0.187500
vt 0.562500 0.250000
vt 0.500000 0.250000
vt 0.395179 0.062484
vt 0.542320 0.062483
vt 0.167320 -0.000017
vt 0.167319 0.062500
vt 0.020182 0.062500
vt 0.020179 -0.000016
vt 0.187500 0.250000
vt 0.125000 0.250000
vt 0.125000 0.187500
vt 0.187500 0.187500
vt 0.125000 0.187500
vt 0.187500 0.187500
vt 0.187500 0.250000
vt 0.125000 0.250000
vt 0.020179 0.062484
vt 0.167320 0.062484
vt 0.542320 -0.000017
vt 0.542319 0.062500
vt 0.395182 0.062500
vt 0.395179 -0.000016
vt 0.562500 0.250000
vt 0.500000 0.250000
vt 0.500000 0.187500
vt 0.562500 0.187500
vt 0.500000 0.187500
vt 0.562500 0.187500
vt 0.562500 0.250000
vt 0.500000 0.250000
vt 0.395179 0.062484
vt 0.542320 0.062483
vt 0.167320 -0.000017
vt 0.167319 0.062500
vt 0.020182 0.062500
vt 0.020179 -0.000016
vt 0.125000 0.250000
vt 0.125000 0.187500
vt 0.187500 0.187500
vt 0.187500 0.250000
vt 0.125000 0.187500
vt 0.187500 0.187500
vt 0.187500 0.250000
vt 0.125000 0.250000
vt 0.020179 0.062484
vt 0.167320 0.062483
vn -0.0000 1.0000 0.0000
vn 1.0000 -0.0000 -0.0000
vn 0.0000 -1.0000 -0.0000
vn 0.7071 0.7071 0.0000
vn -1.0000 0.0000 0.0000
vn -0.0000 0.0000 -1.0000
vn 0.0000 -0.0000 1.0000
vn -0.7071 0.7071 0.0000
vn -0.7071 -0.7071 -0.0000
vn 0.7071 -0.7071 -0.0000
usemtl MAIN
s off
f 18/1/1 19/2/1 22/3/1 21/4/1
f 23/5/2 24/6/2 26/7/2 25/8/2
f 27/9/3 28/10/3 30/11/3 29/12/3
f 15/13/4 16/14/4 14/15/4 13/16/4
f 31/17/5 32/18/5 20/19/5 17/20/5
f 1/21/2 2/22/2 16/23/2 15/24/2
f 3/25/6 1/26/6 17/27/6 18/28/6
f 2/29/7 4/30/7 19/31/7 20/32/7
f 5/33/6 3/34/6 18/35/6 21/36/6
f 4/37/7 6/38/7 22/39/7 19/40/7
f 7/41/6 5/42/6 21/43/6 23/44/6
f 6/45/7 8/46/7 24/47/7 22/48/7
f 9/49/6 7/50/6 23/51/6 25/52/6
f 8/53/7 10/54/7 26/55/7 24/56/7
f 11/57/6 9/58/6 25/59/6 27/60/6
f 10/61/7 12/62/7 28/63/7 26/64/7
f 13/65/6 11/66/6 27/67/6 29/68/6
f 12/69/7 14/70/7 30/71/7 28/72/7
f 15/13/6 13/16/6 29/73/6 31/74/6
f 14/75/7 16/76/7 32/77/7 30/78/7
f 1/21/6 15/24/6 31/79/6 17/80/6
f 16/81/7 2/82/7 20/83/7 32/84/7
f 13/65/1 14/85/1 12/86/1 11/66/1
f 11/57/8 12/87/8 10/88/8 9/58/8
f 9/49/5 10/89/5 8/90/5 7/50/5
f 7/41/9 8/91/9 6/92/9 5/42/9
f 5/33/3 6/93/3 4/94/3 3/34/3
f 3/25/10 4/95/10 2/96/10 1/26/10
f 33/97/8 34/98/8 35/99/8 36/100/8
f 20/101/9 34/102/9 33/103/9 17/104/9
f 19/31/7 35/99/7 34/98/7 20/32/7
f 18/105/4 36/106/4 35/107/4 19/108/4
f 17/27/6 33/109/6 36/110/6 18/28/6
f 37/111/4 38/112/4 39/113/4 40/114/4
f 22/115/8 38/116/8 37/117/8 21/118/8
f 24/47/7 39/113/7 38/112/7 22/48/7
f 23/119/10 40/120/10 39/121/10 24/122/10
f 21/43/6 37/123/6 40/124/6 23/44/6
f 41/125/10 42/126/10 43/127/10 44/128/10
f 26/129/4 42/130/4 41/131/4 25/132/4
f 28/63/7 43/127/7 42/126/7 26/64/7
f 27/133/9 44/134/9 43/135/9 28/136/9
f 25/59/6 41/137/6 44/138/6 27/60/6
f 45/139/9 46/140/9 47/141/9 48/142/9
f 30/143/10 46/144/10 45/145/10 29/146/10
f 32/77/7 47/141/7 46/140/7 30/78/7
f 31/147/8 48/148/8 47/149/8 32/150/8
f 29/73/6 45/151/6 48/152/6 31/74/6
