# Blender v2.80 (sub 75) OBJ File: 'lodestar.blend'
# www.blender.org
mtllib lodestar_stabilizer.mtl
o STABILIZER_Cube.002
v -0.062500 0.468750 0.468750
v -0.062500 0.531250 0.468750
v -0.062500 0.468750 0.343750
v -0.062500 0.531250 0.343750
v 0.062500 0.468750 0.468750
v 0.062500 0.531250 0.468750
v 0.062500 0.468750 0.343750
v 0.062500 0.531250 0.343750
v 0.062500 0.593750 0.468750
v -0.062500 0.531250 0.531250
v 0.062500 0.531250 0.531250
v -0.062500 0.593750 0.468750
v -0.062500 0.531250 0.281250
v -0.062500 0.593750 0.531250
v 0.062500 0.593750 0.531250
v 0.062500 0.531250 0.281250
v -0.062500 0.781250 0.343750
v 0.062500 0.781250 0.343750
v 0.062500 0.817704 0.308124
v -0.062500 0.817704 0.308124
v -0.062500 0.781250 0.281250
v 0.062500 0.781250 0.281250
v -0.062500 0.625000 0.500000
v 0.062500 0.625000 0.500000
v -0.117618 0.518714 -0.250381
v -0.117618 0.576456 -0.274299
v 0.117618 0.518714 -0.250381
v 0.117618 0.576456 -0.274299
v 0.283955 0.582368 -0.096706
v 0.283955 0.640111 -0.120624
v 0.283955 0.672389 0.120624
v 0.283955 0.730132 0.096706
v 0.117618 0.736044 0.274299
v 0.117618 0.793786 0.250381
v -0.117618 0.736044 0.274299
v -0.117618 0.793786 0.250381
v -0.283955 0.672389 0.120624
v -0.283955 0.730132 0.096706
v -0.283955 0.582368 -0.096706
v -0.283955 0.640111 -0.120624
v -0.143506 0.494796 -0.308124
v 0.143506 0.494796 -0.308124
v 0.143506 0.552539 -0.332041
v -0.143506 0.552539 -0.332041
v 0.346455 0.572461 -0.120624
v 0.346455 0.630204 -0.144541
v 0.346455 0.682296 0.144541
v 0.346455 0.740039 0.120624
v 0.143506 0.759961 0.332041
v 0.143506 0.817704 0.308124
v -0.143506 0.759961 0.332041
v -0.143506 0.817704 0.308124
v -0.346455 0.682296 0.144541
v -0.346455 0.740039 0.120624
v -0.346455 0.572461 -0.120624
v -0.346455 0.630204 -0.144541
v -0.031250 0.531250 -0.343750
v 0.031250 0.531250 -0.343750
v 0.031250 0.494796 -0.308124
v -0.031250 0.494796 -0.308124
v -0.031250 0.531250 -0.281250
v 0.031250 0.531250 -0.281250
v -0.000000 0.625000 -0.312500
v -0.031250 0.593750 -0.281250
v 0.031250 0.593750 -0.281250
v 0.031250 0.593750 -0.343750
v -0.031250 0.593750 -0.343750
vt 0.812500 0.687500
vt 0.812500 0.750000
vt 0.937500 0.750000
vt 0.937500 0.687500
vt 0.937500 0.687500
vt 0.937500 0.750000
vt 0.812500 0.750000
vt 0.812500 0.687500
vt 0.812500 0.750000
vt 0.937500 0.750000
vt 0.937500 1.000000
vt 0.812500 1.000000
vt 0.875000 0.312500
vt 1.000000 0.312500
vt 1.000000 0.437500
vt 0.875000 0.437500
vt 0.875000 0.000000
vt 1.000000 0.000000
vt 1.000000 0.125000
vt 0.875000 0.125000
vt 1.000000 0.500000
vt 0.875000 0.500000
vt 0.750000 0.750000
vt 0.750000 0.750000
vt 1.000000 0.562500
vt 0.875000 0.562500
vt 0.875000 0.250000
vt 1.000000 0.250000
vt 1.000000 0.750000
vt 1.000000 0.750000
vt 0.812500 0.812500
vt 0.750000 0.812500
vt 0.812500 0.750000
vt 0.937500 1.000000
vt 0.812500 1.000000
vt 0.750000 0.875000
vt 1.000000 0.750000
vt 1.000000 1.000000
vt 0.750000 0.937500
vt 0.812500 0.937500
vt 0.812500 1.000000
vt 0.750000 0.937500
vt 0.812500 0.937500
vt 0.812500 1.000000
vt 1.000000 1.000000
vt 0.750000 0.750000
vt 0.812500 0.750000
vt 0.812500 0.812500
vt 0.750000 0.812500
vt 1.000000 0.187500
vt 0.875000 0.187500
vt 0.750000 0.875000
vt 0.875000 0.625000
vt 1.000000 0.625000
vt 1.000000 0.687500
vt 0.875000 0.687500
vt 1.000000 0.187500
vt 0.875000 0.187500
vt 0.875000 0.250000
vt 1.000000 0.250000
vt 1.000000 0.625000
vt 0.875000 0.625000
vt 0.299547 0.312500
vt 0.299547 0.375000
vt 0.012953 0.375000
vt 0.012953 0.312500
vt 0.612047 0.312500
vt 0.612047 0.375000
vt 0.325453 0.375000
vt 0.325453 0.312500
vt 0.299547 0.312500
vt 0.299547 0.375000
vt 0.012953 0.375000
vt 0.012953 0.312500
vt 0.612047 0.312500
vt 0.612047 0.375000
vt 0.325453 0.375000
vt 0.325453 0.312500
vt 0.612047 0.562500
vt 0.612047 0.625000
vt 0.325453 0.625000
vt 0.325453 0.562500
vt 0.612047 0.312500
vt 0.612047 0.375000
vt 0.325453 0.375000
vt 0.325453 0.312500
vt 0.274557 0.437500
vt 0.274557 0.500000
vt 0.037943 0.500000
vt 0.037943 0.437500
vt 0.299547 0.312500
vt 0.299547 0.375000
vt 0.012953 0.375000
vt 0.012953 0.312500
vt 0.612047 0.312500
vt 0.612047 0.375000
vt 0.325453 0.375000
vt 0.325453 0.312500
vt 0.587057 0.437500
vt 0.587057 0.500000
vt 0.350443 0.500000
vt 0.350443 0.437500
vt 0.274557 0.437500
vt 0.037943 0.437500
vt 0.012953 0.375000
vt 0.299547 0.375000
vt 0.274557 0.437500
vt 0.037943 0.437500
vt 0.587057 0.437500
vt 0.350443 0.437500
vt 0.325453 0.375000
vt 0.612047 0.375000
vt 0.587057 0.437500
vt 0.350443 0.437500
vt 0.274557 0.437500
vt 0.037943 0.437500
vt 0.012953 0.375000
vt 0.299547 0.375000
vt 0.274557 0.437500
vt 0.037943 0.437500
vt 0.587057 0.437500
vt 0.350443 0.437500
vt 0.325453 0.375000
vt 0.612047 0.375000
vt 0.587057 0.437500
vt 0.350443 0.437500
vt 0.587057 0.687500
vt 0.350443 0.687500
vt 0.325453 0.625000
vt 0.612047 0.625000
vt 0.587057 0.687500
vt 0.350443 0.687500
vt 0.587057 0.437500
vt 0.350443 0.437500
vt 0.325453 0.375000
vt 0.612047 0.375000
vt 0.587057 0.437500
vt 0.350443 0.437500
vt 0.012953 0.375000
vt 0.299547 0.375000
vt 0.274557 0.437500
vt 0.037943 0.437500
vt 0.325453 0.375000
vt 0.612047 0.375000
vt 0.587057 0.437500
vt 0.350443 0.437500
vt 0.587057 0.500000
vt 0.350443 0.500000
vt 0.587057 0.750000
vt 0.350443 0.750000
vt 0.587057 0.500000
vt 0.350443 0.500000
vt 0.274557 0.500000
vt 0.037943 0.500000
vt 0.587057 0.500000
vt 0.350443 0.500000
vt 0.274557 0.500000
vt 0.037943 0.500000
vt 0.875000 0.125000
vt 0.812500 0.125000
vt 0.812500 0.062500
vt 0.875000 0.062500
vt 0.750000 0.125000
vt 0.687500 0.125000
vt 0.687500 0.062500
vt 0.750000 0.062500
vt 0.875000 0.062500
vt 0.812500 0.062500
vt 0.812500 0.000000
vt 0.875000 0.062500
vt 0.812500 0.062500
vt 0.812500 0.000000
vt 0.812500 0.125000
vt 0.750000 0.125000
vt 0.750000 0.062500
vt 0.812500 0.062500
vt 0.750000 0.062500
vt 0.750000 0.000000
vt 0.812500 0.187500
vt 0.750000 0.187500
vt 0.875000 0.187500
vn -1.0000 0.0000 0.0000
vn 1.0000 0.0000 0.0000
vn 0.0000 0.0000 -1.0000
vn 0.0000 -1.0000 0.0000
vn 0.0000 1.0000 0.0000
vn 0.0000 -0.7071 0.7071
vn 0.0000 0.0000 1.0000
vn 0.0000 -0.7071 -0.7071
vn 0.0000 0.6989 0.7152
vn 0.0000 0.7071 -0.7071
vn 0.0000 0.7071 0.7071
vn 0.0000 -0.3827 -0.9239
vn 0.7071 -0.2706 -0.6533
vn 0.7071 0.2706 0.6533
vn 0.0000 0.3827 0.9239
vn -0.7071 0.2706 0.6533
vn -0.7071 -0.2706 -0.6533
vn -0.0000 -0.9239 0.3827
vn 0.0000 0.9239 -0.3827
vn 0.0000 -0.6989 -0.7152
vn 0.7071 0.7071 0.0000
vn -0.7071 0.7071 0.0000
usemtl MAIN
s off
f 1/1/1 2/2/1 4/3/1 3/4/1
f 7/5/2 8/6/2 6/7/2 5/8/2
f 16/9/3 13/10/3 21/11/3 22/12/3
f 3/13/4 7/14/4 5/15/4 1/16/4
f 8/17/5 4/18/5 2/19/5 6/20/5
f 5/15/6 11/21/6 10/22/6 1/16/6
f 5/8/2 6/7/2 11/23/2
f 2/2/1 1/1/1 10/24/1
f 10/22/7 11/21/7 15/25/7 14/26/7
f 3/13/8 13/27/8 16/28/8 7/14/8
f 3/4/1 4/3/1 13/29/1
f 8/6/2 7/5/2 16/30/2
f 11/23/2 6/7/2 9/31/2 15/32/2
f 4/33/7 8/6/7 18/34/7 17/35/7
f 15/32/2 9/31/2 24/36/2
f 13/10/1 4/37/1 17/38/1 21/11/1
f 21/39/1 17/40/1 20/41/1
f 18/42/2 22/43/2 19/44/2
f 8/6/2 16/30/2 22/45/2 18/34/2
f 2/46/1 10/47/1 14/48/1 12/49/1
f 6/20/3 2/19/3 12/50/3 9/51/3
f 12/49/1 14/48/1 23/52/1
f 17/53/9 18/54/9 19/55/9 20/56/9
f 23/57/10 24/58/10 9/59/10 12/60/10
f 14/26/11 15/25/11 24/61/11 23/62/11
f 41/63/12 44/64/12 43/65/12 42/66/12
f 42/67/13 43/68/13 46/69/13 45/70/13
f 45/71/2 46/72/2 48/73/2 47/74/2
f 47/75/14 48/76/14 50/77/14 49/78/14
f 49/79/15 50/80/15 52/81/15 51/82/15
f 51/83/16 52/84/16 54/85/16 53/86/16
f 39/87/2 40/88/2 38/89/2 37/90/2
f 53/91/1 54/92/1 56/93/1 55/94/1
f 55/95/17 56/96/17 44/97/17 41/98/17
f 25/99/14 26/100/14 40/101/14 39/102/14
f 27/103/18 25/104/18 41/105/18 42/106/18
f 26/107/19 28/108/19 43/65/19 44/64/19
f 29/109/18 27/110/18 42/111/18 45/112/18
f 28/113/19 30/114/19 46/69/19 43/68/19
f 31/115/18 29/116/18 45/117/18 47/118/18
f 30/119/19 32/120/19 48/73/19 46/72/19
f 33/121/18 31/122/18 47/123/18 49/124/18
f 32/125/19 34/126/19 50/77/19 48/76/19
f 35/127/18 33/128/18 49/129/18 51/130/18
f 34/131/19 36/132/19 52/81/19 50/80/19
f 37/133/18 35/134/18 51/135/18 53/136/18
f 36/137/19 38/138/19 54/85/19 52/84/19
f 39/87/18 37/90/18 53/139/18 55/140/18
f 38/141/19 40/142/19 56/93/19 54/92/19
f 25/99/18 39/102/18 55/143/18 41/144/18
f 40/145/19 26/146/19 44/97/19 56/96/19
f 37/133/13 38/147/13 36/148/13 35/134/13
f 35/127/12 36/149/12 34/150/12 33/128/12
f 33/121/17 34/151/17 32/152/17 31/122/17
f 31/115/1 32/153/1 30/154/1 29/116/1
f 29/109/16 30/155/16 28/156/16 27/110/16
f 27/103/15 28/157/15 26/158/15 25/104/15
f 65/159/7 64/160/7 61/161/7 62/162/7
f 67/163/3 66/164/3 58/165/3 57/166/3
f 64/160/1 67/163/1 57/166/1 61/161/1
f 61/167/1 57/168/1 60/169/1
f 58/170/2 62/171/2 59/172/2
f 66/173/2 65/174/2 62/175/2 58/176/2
f 57/168/20 58/177/20 59/178/20 60/169/20
f 63/179/21 65/174/21 66/173/21
f 63/179/22 67/163/22 64/160/22
f 63/180/10 66/164/10 67/163/10
f 63/181/11 64/160/11 65/159/11
