# Blender v2.83.5 OBJ File: 'demon_portal.blend'
# www.blender.org
mtllib demon_portal_runes.mtl
o Runes_5_Circle.006
v 0.129000 2.372937 0.821323
v 0.129000 2.186392 0.972860
v 0.129000 2.284266 0.733218
v 0.129000 2.116700 0.869091
v -0.126000 2.372937 0.821323
v -0.126000 2.186392 0.972860
v -0.126000 2.284266 0.733218
v -0.126000 2.116700 0.869091
vt 0.750000 0.500000
vt 0.750000 0.000000
vt 1.000000 0.000000
vt 1.000000 0.500000
vt 0.750000 0.500000
vt 1.000000 0.500000
vt 1.000000 0.000000
vt 0.750000 0.000000
vn 1.0000 0.0000 -0.0000
vn -1.0000 0.0000 0.0000
usemtl Runes
s off
f 1/1/1 2/2/1 4/3/1 3/4/1
f 5/5/2 7/6/2 8/7/2 6/8/2
