# Blender v2.83.5 OBJ File: 'demon_portal.blend'
# www.blender.org
mtllib demon_portal_runes.mtl
o Runes_4_Circle.005
v 0.129000 2.648957 -0.382683
v 0.129000 2.734316 -0.195090
v 0.129000 2.763138 -0.000000
v 0.129000 2.734316 0.195090
v 0.129000 2.648957 0.382683
v 0.129000 2.542485 -0.317196
v 0.129000 2.614423 -0.159724
v 0.129000 2.638138 -0.000000
v 0.129000 2.614423 0.159724
v 0.129000 2.542485 0.317196
v -0.126000 2.648957 -0.382683
v -0.126000 2.734316 -0.195090
v -0.126000 2.763138 -0.000000
v -0.126000 2.734316 0.195090
v -0.126000 2.648957 0.382683
v -0.126000 2.542485 -0.317196
v -0.126000 2.614423 -0.159724
v -0.126000 2.638138 -0.000000
v -0.126000 2.614423 0.159724
v -0.126000 2.542485 0.317196
vt 0.375000 0.250000
vt 0.000000 0.250000
vt 0.000000 0.000000
vt 0.375000 0.000000
vt 0.375000 0.500000
vt -0.000000 0.500000
vt -0.000000 0.250000
vt 0.375000 0.250000
vt -0.000000 0.750000
vt 0.375000 0.750000
vt 0.375000 0.500000
vt -0.000000 0.500000
vt 0.000000 1.000000
vt 0.375000 1.000000
vt 0.375000 0.750000
vt 0.000000 0.750000
vt 0.375000 0.250000
vt 0.375000 0.000000
vt 0.000000 0.000000
vt 0.000000 0.250000
vt 0.375000 0.500000
vt 0.375000 0.250000
vt -0.000000 0.250000
vt -0.000000 0.500000
vt -0.000000 0.750000
vt -0.000000 0.500000
vt 0.375000 0.500000
vt 0.375000 0.750000
vt 0.000000 1.000000
vt 0.000000 0.750000
vt 0.375000 0.750000
vt 0.375000 1.000000
vn 1.0000 0.0000 -0.0000
vn -1.0000 -0.0000 -0.0000
usemtl Runes
s off
f 4/1/1 5/2/1 10/3/1 9/4/1
f 3/5/1 4/6/1 9/7/1 8/8/1
f 1/9/1 2/10/1 7/11/1 6/12/1
f 2/13/1 3/14/1 8/15/1 7/16/1
f 14/17/2 19/18/2 20/19/2 15/20/2
f 13/21/2 18/22/2 19/23/2 14/24/2
f 11/25/2 16/26/2 17/27/2 12/28/2
f 12/29/2 17/30/2 18/31/2 13/32/2
