# Blender v2.83.5 OBJ File: 'demon_portal.blend'
# www.blender.org
mtllib demon_portal_stone.mtl
o Stone_7_Circle.008
v 0.125000 0.707364 1.318541
v 0.125000 0.425974 1.261635
v 0.125000 0.166644 1.169225
v -0.125000 0.707364 1.318541
v -0.125000 0.425974 1.261635
v -0.125000 0.166644 1.169225
v 0.125000 0.707364 1.318541
v 0.125000 0.425974 1.261635
v 0.125000 0.166644 1.169225
v -0.125000 0.707364 1.318541
v -0.125000 0.425974 1.261635
v -0.125000 0.166644 1.169225
v 0.125000 0.707364 1.318541
v 0.125000 0.425974 1.261635
v 0.125000 0.166644 1.169225
v -0.125000 0.707364 1.318541
v -0.125000 0.425974 1.261635
v -0.125000 0.166644 1.169225
v 0.125000 0.707364 1.318541
v 0.125000 0.425974 1.261635
v 0.125000 0.166644 1.169225
v -0.125000 0.707364 1.318541
v -0.125000 0.425974 1.261635
v -0.125000 0.166644 1.169225
v 0.125000 0.723885 1.194638
v 0.125000 0.459427 1.141195
v 0.125000 0.217782 1.055164
v -0.125000 0.723885 1.194638
v -0.125000 0.459427 1.141195
v -0.125000 0.217782 1.055164
vt 0.437500 0.000000
vt 0.000000 0.000000
vt 0.000000 0.500000
vt 0.437500 0.500000
vt 0.000000 1.000000
vt 0.437500 1.000000
vt 0.000000 0.000000
vt 0.000000 0.000000
vt 0.000000 0.000000
vt 0.000000 0.000000
vt 0.000000 0.000000
vt 0.000000 0.000000
vt 0.000000 0.000000
vt 0.000000 0.000000
vt 0.000000 0.000000
vt 0.000000 0.000000
vt 0.000000 0.000000
vt 0.000000 0.000000
vt 0.000000 0.000000
vt 0.000000 0.000000
vt 0.000000 0.000000
vt 0.000000 0.000000
vt 0.000000 0.000000
vt 1.000000 0.500000
vt 0.750000 0.500000
vt 0.750000 0.000000
vt 1.000000 0.000000
vt 1.000000 1.000000
vt 0.750000 1.000000
vt 0.750000 0.000000
vt 1.000000 0.000000
vt 1.000000 0.437500
vt 0.750000 0.437500
vt 0.750000 0.562500
vt 1.000000 0.562500
vt 1.000000 1.000000
vt 0.750000 1.000000
vt 0.000000 0.000000
vt 0.000000 0.000000
vt 0.000000 0.000000
vt 0.000000 0.000000
vt 0.000000 0.000000
vt 0.000000 0.000000
vt -0.000000 0.437500
vt -0.000000 -0.000000
vt 0.437500 -0.000000
vt 0.437500 0.437500
vt 0.000000 0.437500
vt 0.437500 0.437500
vt 0.562500 0.000000
vt 1.000000 0.000000
vt 1.000000 0.250000
vt 0.562500 0.250000
vt 0.437500 0.625000
vt 0.437500 0.375000
vt 0.875000 0.375000
vt 0.875000 0.625000
vn 0.0000 -0.1982 0.9802
vn 0.0000 -0.3357 0.9420
vn 0.0000 0.0000 1.0000
vn -1.0000 -0.0000 0.0000
vn 1.0000 0.0000 0.0000
vn 0.0000 0.1981 -0.9802
vn 0.0000 0.3354 -0.9421
vn 0.0000 0.9912 0.1322
vn 0.0000 -0.9125 -0.4091
usemtl PortalStone
s off
f 1/1/1 4/2/1 5/3/1 2/4/1
f 2/4/2 5/3/2 6/5/2 3/6/2
f 9/7/3 15/8/3 14/9/3 8/10/3
f 8/10/3 14/9/3 13/11/3 7/12/3
f 4/2/3 10/13/3 11/14/3 5/15/3
f 5/15/3 11/14/3 12/16/3 6/17/3
f 2/18/3 8/10/3 7/12/3 1/19/3
f 3/20/3 9/7/3 8/10/3 2/18/3
f 10/13/3 16/21/3 17/22/3 11/14/3
f 11/14/3 17/22/3 18/23/3 12/16/3
f 23/24/4 29/25/4 30/26/4 24/27/4
f 22/28/4 28/29/4 29/25/4 23/24/4
f 21/30/5 27/31/5 26/32/5 20/33/5
f 20/34/5 26/35/5 25/36/5 19/37/5
f 14/9/3 20/38/3 19/39/3 13/11/3
f 15/8/3 21/40/3 20/38/3 14/9/3
f 16/21/3 22/41/3 23/42/3 17/22/3
f 17/22/3 23/42/3 24/43/3 18/23/3
f 25/44/6 26/45/6 29/46/6 28/47/6
f 26/45/7 27/48/7 30/49/7 29/46/7
f 22/50/8 19/51/8 25/52/8 28/53/8
f 24/54/9 30/55/9 27/56/9 21/57/9
