# Blender v2.83.5 OBJ File: 'demon_portal.blend'
# www.blender.org
mtllib demon_portal_stone.mtl
o Stone_5_Circle.012
v 0.125000 2.372937 0.821323
v 0.125000 2.186392 0.972860
v -0.125000 2.372937 0.821323
v -0.125000 2.186392 0.972860
v 0.125000 2.372937 0.821323
v 0.125000 2.186392 0.972860
v -0.125000 2.372937 0.821323
v -0.125000 2.186392 0.972860
v 0.125000 2.372937 0.821323
v 0.125000 2.186392 0.972860
v -0.125000 2.372937 0.821323
v -0.125000 2.186392 0.972860
v 0.125000 2.372937 0.821323
v 0.125000 2.186392 0.972860
v -0.125000 2.372937 0.821323
v -0.125000 2.186392 0.972860
v 0.125000 2.284266 0.733218
v 0.125000 2.116700 0.869091
v -0.125000 2.284266 0.733218
v -0.125000 2.116700 0.869091
vt 1.000000 0.500000
vt 0.562500 0.500000
vt 0.562500 0.000000
vt 1.000000 0.000000
vt 0.000000 0.000000
vt 0.000000 0.000000
vt 0.000000 0.000000
vt 0.000000 0.000000
vt 0.000000 0.000000
vt 0.000000 0.000000
vt 0.000000 0.000000
vt 0.000000 0.000000
vt 0.000000 0.000000
vt 0.000000 0.000000
vt 0.000000 0.000000
vt 0.000000 0.000000
vt 0.000000 0.000000
vt 0.000000 0.000000
vt 1.000000 1.000000
vt 0.750000 1.000000
vt 0.750000 0.500000
vt 1.000000 0.500000
vt 0.000000 0.000000
vt 0.000000 0.000000
vt 0.437500 -0.000000
vt 0.437500 0.437500
vt -0.000000 0.437500
vt 0.000000 0.000000
vt 0.750000 0.625000
vt 1.000000 0.625000
vt 1.000000 1.000000
vt 0.750000 1.000000
vt 0.562500 0.750000
vt 1.000000 0.750000
vt 0.562500 1.000000
vt 0.375000 0.625000
vt 0.375000 0.375000
vt 0.812500 0.375000
vt 0.812500 0.625000
vn 0.0000 0.6305 0.7762
vn 0.0000 0.0000 1.0000
vn -1.0000 0.0000 0.0000
vn 0.0000 -0.6298 -0.7767
vn 1.0000 0.0000 0.0000
vn 0.0000 0.7048 -0.7094
vn 0.0000 -0.8301 0.5575
usemtl PortalStone
s off
f 1/1/1 3/2/1 4/3/1 2/4/1
f 7/5/2 11/6/2 12/7/2 8/8/2
f 6/9/2 10/10/2 9/11/2 5/12/2
f 2/13/2 6/9/2 5/12/2 1/14/2
f 3/15/2 7/5/2 8/8/2 4/16/2
f 10/10/2 14/17/2 13/18/2 9/11/2
f 15/19/3 19/20/3 20/21/3 16/22/3
f 11/6/2 15/23/2 16/24/2 12/7/2
f 17/25/4 18/26/4 20/27/4 19/28/4
f 14/29/5 18/30/5 17/31/5 13/32/5
f 15/33/6 13/34/6 17/31/6 19/35/6
f 16/36/7 20/37/7 18/38/7 14/39/7
