# Blender v2.83.5 OBJ File: 'demon_portal.blend'
# www.blender.org
mtllib demon_portal_runes.mtl
o Runes_3_Circle.004
v 0.129000 1.969415 -1.087717
v 0.129000 2.196720 -0.963354
v 0.129000 2.383265 -0.811817
v 0.129000 1.918278 -0.973655
v 0.129000 2.127028 -0.859585
v 0.129000 2.294594 -0.723712
v -0.126000 1.969415 -1.087717
v -0.126000 2.196720 -0.963354
v -0.126000 2.383265 -0.811817
v -0.126000 1.918278 -0.973655
v -0.126000 2.127028 -0.859585
v -0.126000 2.294594 -0.723712
vt 0.750000 -0.000000
vt 0.750000 0.500000
vt 1.000000 0.500000
vt 1.000000 0.000000
vt 0.750000 1.000000
vt 1.000000 1.000000
vt 0.750000 -0.000000
vt 1.000000 0.000000
vt 1.000000 0.500000
vt 0.750000 0.500000
vt 1.000000 1.000000
vt 0.750000 1.000000
vn 1.0000 0.0000 0.0000
vn -1.0000 -0.0000 -0.0000
usemtl Runes
s off
f 1/1/1 2/2/1 5/3/1 4/4/1
f 2/2/1 3/5/1 6/6/1 5/3/1
f 7/7/2 10/8/2 11/9/2 8/10/2
f 8/10/2 11/9/2 12/11/2 9/12/2
