# Blender v2.83.5 OBJ File: 'demon_portal.blend'
# www.blender.org
mtllib demon_portal_stone.mtl
o Stone_4_Circle.013
v 0.125000 2.648957 -0.382683
v 0.125000 2.734316 -0.195090
v 0.125000 2.763138 -0.000000
v 0.125000 2.734316 0.195090
v 0.125000 2.648957 0.382683
v -0.125000 2.648957 -0.382683
v -0.125000 2.734316 -0.195090
v -0.125000 2.763138 -0.000000
v -0.125000 2.734316 0.195090
v -0.125000 2.648957 0.382683
v 0.125000 2.648957 -0.382683
v 0.125000 2.734316 -0.195090
v 0.125000 2.763138 -0.000000
v 0.125000 2.734316 0.195090
v 0.125000 2.648957 0.382683
v -0.125000 2.648957 -0.382683
v -0.125000 2.734316 -0.195090
v -0.125000 2.763138 -0.000000
v -0.125000 2.734316 0.195090
v -0.125000 2.648957 0.382683
v 0.125000 2.648957 -0.382683
v 0.125000 2.734316 -0.195090
v 0.125000 2.763138 -0.000000
v 0.125000 2.734316 0.195090
v 0.125000 2.648957 0.382683
v -0.125000 2.648957 -0.382683
v -0.125000 2.734316 -0.195090
v -0.125000 2.763138 -0.000000
v -0.125000 2.734316 0.195090
v -0.125000 2.648957 0.382683
v 0.125000 2.648957 -0.382683
v 0.125000 2.734316 -0.195090
v 0.125000 2.763138 -0.000000
v 0.125000 2.734316 0.195090
v 0.125000 2.648957 0.382683
v -0.125000 2.648957 -0.382683
v -0.125000 2.734316 -0.195090
v -0.125000 2.763138 -0.000000
v -0.125000 2.734316 0.195090
v -0.125000 2.648957 0.382683
v 0.125000 2.542485 -0.317196
v 0.125000 2.614423 -0.159724
v 0.125000 2.638138 -0.000000
v 0.125000 2.614423 0.159724
v 0.125000 2.542485 0.317196
v -0.125000 2.542485 -0.317196
v -0.125000 2.614423 -0.159724
v -0.125000 2.638138 -0.000000
v -0.125000 2.614423 0.159724
v -0.125000 2.542485 0.317196
vt 0.437500 0.375000
vt 0.000000 0.375000
vt 0.000000 -0.000000
vt 0.437500 -0.000000
vt 0.437500 0.750000
vt -0.000000 0.750000
vt -0.000000 0.375000
vt 0.437500 0.375000
vt 0.875000 0.750000
vt 0.437500 0.750000
vt 0.437500 0.375000
vt 0.875000 0.375000
vt 0.437500 0.000000
vt 0.875000 0.000000
vt 0.000000 0.000000
vt 0.000000 0.000000
vt 0.000000 0.000000
vt 0.000000 0.000000
vt 0.000000 0.000000
vt 0.000000 0.000000
vt 0.000000 0.000000
vt 0.000000 0.000000
vt 0.000000 0.000000
vt 0.000000 0.000000
vt 0.000000 0.000000
vt 0.000000 0.000000
vt 0.000000 0.000000
vt 0.000000 0.000000
vt 0.000000 0.000000
vt 0.000000 0.000000
vt 0.000000 0.000000
vt 0.000000 0.000000
vt 0.000000 0.000000
vt 0.000000 0.000000
vt 0.000000 0.000000
vt 0.000000 0.000000
vt 0.000000 0.000000
vt 0.000000 0.000000
vt 0.000000 0.000000
vt 0.000000 0.000000
vt 0.000000 0.000000
vt 0.000000 0.000000
vt 0.000000 0.000000
vt 0.000000 0.000000
vt 0.000000 0.000000
vt 0.000000 0.000000
vt 0.000000 0.000000
vt 0.000000 0.000000
vt 0.000000 0.000000
vt 0.000000 0.000000
vt 0.000000 0.000000
vt 0.000000 0.000000
vt 0.375000 1.000000
vt 0.375000 0.750000
vt -0.000000 0.750000
vt -0.000000 1.000000
vt 0.750000 1.000000
vt 0.750000 0.750000
vt 0.000000 0.000000
vt 0.437500 -0.000000
vt 0.437500 0.375000
vt -0.000000 0.375000
vt 0.000000 -0.000000
vt 0.875000 0.000000
vt 0.875000 0.375000
vt 0.437500 0.375000
vt 0.437500 0.000000
vt 0.875000 0.750000
vt 0.437500 0.750000
vt 0.437500 -0.000000
vt 0.437500 0.375000
vt -0.000000 0.375000
vt 0.000000 0.000000
vt 0.000000 1.000000
vt 0.000000 0.750000
vt 0.375000 0.750000
vt 0.375000 1.000000
vt 0.000000 0.750000
vt 0.000000 0.500000
vt 0.375000 0.500000
vt 0.375000 0.750000
vt -0.000000 0.250000
vt -0.000000 0.000000
vt 0.375000 -0.000000
vt 0.375000 0.250000
vt 0.000000 0.500000
vt 0.000000 0.250000
vt 0.375000 0.250000
vt 0.375000 0.500000
vt -0.000000 1.000000
vt -0.000000 0.750000
vt 0.375000 0.750000
vt 0.375000 1.000000
vt 0.375000 1.000000
vt 0.375000 0.750000
vt 0.812500 0.750000
vt 0.812500 1.000000
vt 0.437500 0.750000
vt 0.437500 1.000000
vt 0.000000 1.000000
vt 0.000000 0.750000
vn 0.0000 0.9102 -0.4142
vn 0.0000 0.9893 -0.1462
vn 0.0000 0.9893 0.1462
vn 0.0000 0.9102 0.4142
vn 0.0000 0.0000 1.0000
vn -1.0000 -0.0000 0.0000
vn 0.0000 -0.9096 0.4155
vn 0.0000 -0.9892 0.1469
vn 0.0000 -0.9892 -0.1469
vn 0.0000 -0.9096 -0.4155
vn 1.0000 0.0000 0.0000
vn 0.0000 -0.5239 0.8518
vn 0.0000 -0.5239 -0.8518
usemtl PortalStone
s off
f 1/1/1 6/2/1 7/3/1 2/4/1
f 2/5/2 7/6/2 8/7/2 3/8/2
f 3/9/3 8/10/3 9/11/3 4/12/3
f 4/12/4 9/11/4 10/13/4 5/14/4
f 19/15/5 29/16/5 30/17/5 20/18/5
f 18/19/5 28/20/5 29/16/5 19/15/5
f 17/21/5 27/22/5 28/20/5 18/19/5
f 16/23/5 26/24/5 27/22/5 17/21/5
f 15/25/5 25/26/5 24/27/5 14/28/5
f 14/28/5 24/27/5 23/29/5 13/30/5
f 13/30/5 23/29/5 22/31/5 12/32/5
f 12/32/5 22/31/5 21/33/5 11/34/5
f 2/35/5 12/32/5 11/34/5 1/36/5
f 3/37/5 13/30/5 12/32/5 2/35/5
f 4/38/5 14/28/5 13/30/5 3/37/5
f 5/39/5 15/25/5 14/28/5 4/38/5
f 6/40/5 16/23/5 17/21/5 7/3/5
f 7/3/5 17/21/5 18/19/5 8/41/5
f 8/41/5 18/19/5 19/15/5 9/42/5
f 9/42/5 19/15/5 20/18/5 10/43/5
f 28/20/5 38/44/5 39/45/5 29/16/5
f 27/22/5 37/46/5 38/44/5 28/20/5
f 26/24/5 36/47/5 37/46/5 27/22/5
f 25/26/5 35/48/5 34/49/5 24/27/5
f 24/27/5 34/49/5 33/50/5 23/29/5
f 23/29/5 33/50/5 32/51/5 22/31/5
f 22/31/5 32/51/5 31/52/5 21/33/5
f 39/53/6 49/54/6 50/55/6 40/56/6
f 38/57/6 48/58/6 49/54/6 39/53/6
f 29/16/5 39/45/5 40/59/5 30/17/5
f 41/60/7 42/61/7 47/62/7 46/63/7
f 42/64/8 43/65/8 48/66/8 47/67/8
f 43/65/9 44/68/9 49/69/9 48/66/9
f 44/70/10 45/71/10 50/72/10 49/73/10
f 32/74/11 42/75/11 41/76/11 31/77/11
f 33/78/11 43/79/11 42/80/11 32/81/11
f 34/82/11 44/83/11 43/84/11 33/85/11
f 35/86/11 45/87/11 44/88/11 34/89/11
f 36/90/6 46/91/6 47/92/6 37/93/6
f 37/93/6 47/92/6 48/58/6 38/57/6
f 40/94/12 50/95/12 45/96/12 35/97/12
f 46/98/13 36/99/13 31/100/13 41/101/13
