# Blender v2.83.5 OBJ File: 'flower.blend'
# www.blender.org
mtllib flower_purple.mtl
o Cube_Cube.001
v -0.031250 0.000000 0.031250
v -0.031250 0.062500 0.031250
v -0.031250 0.000000 -0.031250
v -0.031250 0.062500 -0.031250
v 0.031250 0.000000 0.031250
v 0.031250 0.062500 0.031250
v 0.031250 0.000000 -0.031250
v 0.031250 0.062500 -0.031250
v -0.031250 0.125000 0.031250
v -0.031250 0.125000 -0.031250
v 0.031250 0.125000 -0.031250
v 0.031250 0.125000 0.031250
v 0.000000 0.093750 0.093750
v -0.031250 0.187500 0.031250
v -0.031250 0.187500 -0.031250
v 0.031250 0.187500 -0.031250
v 0.031250 0.187500 0.031250
v 0.000000 0.156250 -0.093750
v -0.031250 0.250000 0.031250
v -0.031250 0.250000 -0.031250
v 0.031250 0.250000 -0.031250
v 0.031250 0.250000 0.031250
v 0.093750 0.218750 0.000000
v -0.093750 0.187500 0.031250
v -0.093750 0.187500 -0.031250
v -0.093750 0.250000 0.031250
v -0.093750 0.250000 -0.031250
v -0.031250 0.312500 0.031250
v -0.031250 0.312500 -0.031250
v -0.093750 0.312500 0.031250
v -0.093750 0.312500 -0.031250
v -0.093750 0.093750 0.000000
v -0.031250 0.437500 -0.093750
v -0.031250 0.375000 -0.093750
v 0.031250 0.312500 0.031250
v 0.031250 0.312500 -0.031250
v 0.031250 0.375000 0.031250
v 0.031250 0.375000 -0.031250
v -0.093750 0.312500 -0.093750
v -0.031250 0.312500 -0.093750
v 0.031250 0.437500 0.031250
v 0.031250 0.437500 -0.031250
v -0.156250 0.312500 0.031250
v -0.156250 0.312500 -0.031250
v -0.156250 0.375000 0.031250
v -0.156250 0.375000 -0.031250
v -0.156250 0.437500 0.031250
v -0.156250 0.437500 -0.031250
v -0.093750 0.500000 0.031250
v -0.156250 0.500000 0.031250
v -0.031250 0.500000 0.031250
v -0.031250 0.500000 -0.031250
v -0.093750 0.500000 -0.031250
v 0.031250 0.500000 0.031250
v 0.031250 0.500000 -0.031250
v -0.156250 0.500000 -0.031250
v -0.031250 0.312500 0.093750
v -0.093750 0.312500 0.093750
v -0.093750 0.437500 0.093750
v -0.156250 0.437500 0.093750
v -0.031250 0.375000 0.093750
v -0.093750 0.375000 0.093750
v 0.031250 0.312500 0.093750
v 0.031250 0.375000 0.093750
v -0.031250 0.437500 0.093750
v 0.031250 0.437500 0.093750
v -0.156250 0.375000 0.093750
v -0.156250 0.312500 0.093750
v -0.093750 0.500000 0.093750
v -0.156250 0.500000 0.093750
v -0.031250 0.500000 0.093750
v 0.031250 0.500000 0.093750
v -0.093750 0.375000 -0.093750
v 0.031250 0.312500 -0.093750
v 0.031250 0.375000 -0.093750
v -0.093750 0.500000 -0.093750
v -0.093750 0.437500 -0.093750
v -0.156250 0.437500 -0.093750
v -0.156250 0.500000 -0.093750
v 0.031250 0.437500 -0.093750
v -0.156250 0.312500 -0.093750
v -0.156250 0.375000 -0.093750
v -0.031250 0.500000 -0.093750
v 0.031250 0.500000 -0.093750
v -0.031250 0.437500 0.156250
v -0.093750 0.437500 0.156250
v 0.093750 0.437500 -0.031250
v -0.093750 0.437500 -0.156250
v -0.218750 0.375000 -0.031250
v -0.031250 0.562500 0.031250
v -0.031250 0.562500 -0.031250
v -0.218750 0.437500 -0.031250
v -0.218750 0.500000 -0.031250
v -0.218750 0.312500 0.031250
v -0.218750 0.312500 -0.031250
v -0.218750 0.437500 0.031250
v -0.218750 0.500000 0.031250
v -0.218750 0.437500 0.093750
v -0.218750 0.375000 0.093750
v -0.218750 0.375000 0.031250
v -0.093750 0.500000 -0.156250
v -0.156250 0.437500 -0.156250
v -0.156250 0.500000 -0.156250
v -0.093750 0.375000 -0.156250
v -0.156250 0.375000 -0.156250
v -0.031250 0.375000 -0.156250
v -0.031250 0.437500 -0.156250
v -0.031250 0.312500 -0.156250
v 0.031250 0.312500 -0.156250
v 0.031250 0.375000 -0.156250
v 0.031250 0.437500 -0.156250
v -0.031250 0.375000 -0.218750
v -0.031250 0.437500 -0.218750
v -0.093750 0.375000 -0.218750
v -0.093750 0.437500 -0.218750
v -0.031250 0.250000 -0.093750
v 0.031250 0.250000 -0.093750
v -0.031250 0.250000 -0.156250
v 0.031250 0.250000 -0.156250
v 0.093750 0.312500 0.031250
v 0.093750 0.312500 -0.031250
v 0.093750 0.375000 0.031250
v 0.093750 0.375000 -0.031250
v 0.093750 0.375000 -0.093750
v 0.093750 0.312500 -0.093750
v 0.156250 0.375000 0.031250
v 0.156250 0.375000 -0.031250
v 0.156250 0.437500 0.031250
v 0.156250 0.437500 -0.031250
v 0.093750 0.500000 0.093750
v 0.093750 0.500000 0.031250
v 0.093750 0.437500 0.031250
v 0.093750 0.437500 0.093750
v -0.093750 0.562500 0.031250
v -0.156250 0.562500 0.031250
v -0.093750 0.562500 -0.031250
v -0.156250 0.562500 -0.031250
v -0.031250 0.312500 0.156250
v -0.093750 0.312500 0.156250
v -0.031250 0.375000 0.156250
v 0.031250 0.375000 0.156250
v 0.031250 0.437500 0.156250
v -0.031250 0.500000 0.156250
v -0.093750 0.500000 0.156250
v -0.031250 0.375000 0.218750
v -0.093750 0.375000 0.218750
v -0.031250 0.437500 0.218750
v -0.093750 0.437500 0.218750
v -0.156250 0.437500 0.156250
v -0.093750 0.375000 0.156250
v -0.156250 0.375000 0.156250
v -0.281250 0.375000 0.031250
v -0.281250 0.375000 -0.031250
v -0.281250 0.437500 0.031250
v -0.281250 0.437500 -0.031250
v -0.218750 0.437500 -0.093750
v -0.218750 0.375000 -0.093750
vt 1.000000 0.687500
vt 1.000000 0.750000
vt 0.937500 0.750000
vt 0.937500 0.687500
vt 0.625000 0.750000
vt 0.625000 0.812500
vt 0.562500 0.812500
vt 0.562500 0.750000
vt 1.000000 0.625000
vt 1.000000 0.687500
vt 0.937500 0.687500
vt 0.937500 0.625000
vt 0.875000 0.750000
vt 0.875000 0.812500
vt 0.812500 0.812500
vt 0.812500 0.750000
vt 0.500000 0.562500
vt 0.562500 0.562500
vt 0.562500 0.625000
vt 0.500000 0.625000
vt 1.000000 0.750000
vt 0.937500 0.750000
vt 0.812500 0.812500
vt 0.875000 0.812500
vt 0.875000 0.875000
vt 0.812500 0.875000
vt 0.375000 0.625000
vt 0.375000 0.562500
vt 0.437500 0.625000
vt 0.187500 0.562500
vt 0.187500 0.625000
vt 0.125000 0.562500
vt 0.625000 0.875000
vt 0.562500 0.875000
vt 0.125000 0.687500
vt 0.062500 0.687500
vt 0.125000 0.625000
vt 0.062500 0.500000
vt 0.125000 0.500000
vt 0.062500 0.562500
vt -0.000000 0.625000
vt -0.000000 0.562500
vt 0.062500 0.625000
vt 0.625000 0.562500
vt 0.625000 0.500000
vt 0.687500 0.562500
vt 0.312500 0.562500
vt 0.250000 0.562500
vt 0.312500 0.500000
vt 1.000000 0.812500
vt 0.937500 0.812500
vt 0.937500 0.812500
vt 1.000000 0.812500
vt 1.000000 0.875000
vt 0.937500 0.875000
vt 0.187500 0.625000
vt 0.187500 0.562500
vt 0.250000 0.625000
vt 0.250000 0.625000
vt 0.312500 0.625000
vt 0.250000 0.687500
vt 0.375000 0.562500
vt 0.375000 0.625000
vt 0.312500 0.562500
vt 0.562500 0.937500
vt 0.500000 0.937500
vt 0.500000 0.875000
vt 0.562500 0.875000
vt 0.875000 0.687500
vt 0.875000 0.750000
vt 0.812500 0.750000
vt 0.812500 0.687500
vt 0.875000 0.937500
vt 0.812500 0.937500
vt 0.562500 0.875000
vt 0.625000 0.875000
vt 0.625000 0.937500
vt 0.750000 0.562500
vt 0.750000 0.625000
vt 0.625000 0.687500
vt 0.625000 0.625000
vt 0.687500 0.687500
vt 0.562500 0.625000
vt 0.562500 0.562500
vt 0.625000 0.625000
vt 0.937500 0.875000
vt 1.000000 0.875000
vt 1.000000 0.937500
vt 0.937500 0.937500
vt 0.750000 0.937500
vt 0.750000 0.875000
vt 1.000000 1.000000
vt 0.937500 1.000000
vt 0.687500 0.875000
vt 0.687500 0.937500
vt 0.187500 0.250000
vt 0.250000 0.250000
vt 0.250000 0.312500
vt 0.187500 0.312500
vt 0.500000 0.937500
vt 0.562500 0.937500
vt 0.562500 1.000000
vt 0.500000 1.000000
vt 0.812500 1.000000
vt 0.750000 1.000000
vt 0.687500 1.000000
vt 0.625000 1.000000
vt 0.500000 0.500000
vt 0.500000 0.562500
vt 0.437500 0.500000
vt 0.562500 0.625000
vt 0.500000 0.562500
vt 0.562500 0.562500
vt 0.500000 0.625000
vt 0.500000 0.687500
vt 0.125000 0.125000
vt 0.125000 0.187500
vt 0.062500 0.187500
vt 0.062500 0.125000
vt 0.250000 0.187500
vt 0.312500 0.187500
vt 0.312500 0.250000
vt 0.250000 0.937500
vt 0.250000 0.875000
vt 0.312500 0.875000
vt 0.312500 0.937500
vt 0.125000 0.750000
vt 0.125000 0.812500
vt 0.062500 0.812500
vt 0.062500 0.750000
vt 0.375000 0.187500
vt 0.375000 0.250000
vt 0.250000 0.125000
vt 0.312500 0.125000
vt 0.312500 0.937500
vt 0.312500 0.875000
vt 0.375000 0.875000
vt 0.375000 0.937500
vt 0.687500 0.250000
vt 0.750000 0.250000
vt 0.750000 0.312500
vt 0.687500 0.312500
vt 0.250000 0.812500
vt 0.250000 0.750000
vt 0.312500 0.750000
vt 0.312500 0.812500
vt 0.187500 0.187500
vt 0.125000 0.187500
vt 0.125000 0.125000
vt 0.187500 0.125000
vt 0.312500 0.312500
vt 0.750000 0.187500
vt 0.687500 0.187500
vt 0.687500 0.125000
vt 0.750000 0.125000
vt 0.625000 0.187500
vt 0.562500 0.187500
vt 0.562500 0.125000
vt 0.625000 0.125000
vt 0.125000 0.812500
vt 0.125000 0.875000
vt 0.062500 0.875000
vt 0.062500 0.812500
vt 0.562500 0.250000
vt 0.625000 0.250000
vt 0.625000 0.312500
vt 0.562500 0.312500
vt 0.125000 0.250000
vt 0.812500 0.250000
vt 0.812500 0.187500
vt 0.875000 0.187500
vt 0.875000 0.250000
vt 0.187500 0.937500
vt 0.250000 0.937500
vt 0.250000 1.000000
vt 0.187500 1.000000
vt 0.187500 0.937500
vt 0.250000 0.937500
vt 0.250000 1.000000
vt 0.187500 1.000000
vt 0.187500 0.750000
vt 0.187500 0.812500
vt 0.125000 0.812500
vt 0.125000 0.750000
vt 0.187500 0.812500
vt 0.187500 0.875000
vt 0.125000 0.875000
vt 0.125000 0.812500
vt 0.187500 0.937500
vt 0.125000 0.312500
vt 0.687500 0.062500
vt 0.625000 0.062500
vt 0.625000 -0.000000
vt 0.687500 -0.000000
vt 0.250000 0.812500
vt 0.250000 0.750000
vt 0.312500 0.750000
vt 0.312500 0.812500
vt 0.125000 0.875000
vt 0.187500 0.875000
vt 0.187500 0.937500
vt 0.125000 0.937500
vt 0.312500 0.875000
vt 0.375000 0.812500
vt 0.375000 0.875000
vt 0.312500 0.812500
vt 0.312500 0.750000
vt 0.375000 0.750000
vt 0.375000 0.812500
vt 0.187500 0.750000
vt 0.187500 0.812500
vt 0.125000 0.812500
vt 0.125000 0.750000
vt 0.250000 0.875000
vt 0.250000 0.937500
vt 0.187500 0.375000
vt 0.250000 0.375000
vt 0.250000 0.437500
vt 0.187500 0.437500
vt 0.187500 0.750000
vt 0.125000 0.750000
vt 0.250000 0.875000
vt 0.312500 0.937500
vt 0.562500 0.125000
vt 0.562500 0.187500
vt 0.500000 0.187500
vt 0.500000 0.125000
vt 0.187500 0.750000
vt 0.250000 0.750000
vt 0.250000 0.812500
vt 0.187500 0.812500
vt 0.375000 0.750000
vt 0.312500 0.750000
vt 0.312500 0.687500
vt 0.375000 0.687500
vt 0.062500 0.812500
vt 0.062500 0.875000
vt -0.000000 0.875000
vt -0.000000 0.812500
vt 0.625000 0.375000
vt 0.562500 0.375000
vt 0.125000 0.875000
vt 0.125000 0.937500
vt 0.062500 0.937500
vt 0.062500 0.875000
vt 0.312500 0.750000
vt 0.312500 0.812500
vt 0.125000 0.875000
vt 0.187500 0.875000
vt 0.187500 0.937500
vt 0.125000 0.937500
vt 0.250000 0.875000
vt 0.250000 0.937500
vt 0.250000 0.812500
vt 0.312500 0.812500
vt 0.187500 0.875000
vt 0.062500 0.875000
vt 0.062500 0.812500
vt 0.375000 0.125000
vt 0.312500 0.875000
vt 0.312500 0.812500
vt 0.375000 0.812500
vt 0.375000 0.875000
vt 0.750000 0.250000
vt 0.750000 0.187500
vt 0.375000 0.812500
vt 0.375000 0.875000
vt 0.625000 0.312500
vt 0.687500 0.312500
vt 0.687500 0.375000
vt 0.625000 0.375000
vt 0.250000 0.125000
vt 0.187500 0.125000
vt 0.187500 0.062500
vt 0.250000 0.062500
vt 0.062500 0.875000
vt -0.000000 0.875000
vt -0.000000 0.812500
vt 0.687500 0.187500
vt 0.687500 0.250000
vt 0.625000 0.250000
vt 0.625000 0.187500
vt 0.187500 0.937500
vt 0.250000 0.937500
vt 0.250000 1.000000
vt 0.187500 1.000000
vt 0.187500 0.937500
vt 0.250000 0.937500
vt 0.250000 1.000000
vt 0.187500 1.000000
vt 0.187500 0.875000
vt 0.250000 0.875000
vt 0.250000 0.937500
vt 0.187500 0.937500
vt 0.187500 0.750000
vt 0.250000 0.750000
vt 0.250000 0.812500
vt 0.187500 0.812500
vt 0.312500 0.937500
vt 0.312500 0.875000
vt 0.375000 0.875000
vt 0.375000 0.937500
vt 0.062500 0.250000
vt 0.062500 0.187500
vt 0.500000 0.250000
vt 0.500000 0.187500
vt 0.312500 0.812500
vt 0.312500 0.750000
vt 0.375000 0.750000
vt 0.375000 0.812500
vt 0.125000 0.875000
vt 0.125000 0.937500
vt 0.062500 0.937500
vt 0.312500 0.812500
vt 0.312500 0.875000
vt 0.062500 0.875000
vt 0.062500 0.812500
vt 0.125000 0.250000
vt 0.125000 0.312500
vt 0.062500 0.312500
vt 0.062500 0.250000
vt 0.250000 0.875000
vt 0.312500 0.875000
vt 0.312500 0.937500
vt 0.250000 0.937500
vt 0.250000 0.812500
vt 0.312500 0.812500
vt 0.312500 0.937500
vt 0.312500 0.875000
vt 0.375000 0.875000
vt 0.375000 0.937500
vt 0.125000 0.062500
vt 0.062500 0.812500
vt 0.187500 0.750000
vt 0.187500 0.812500
vt 0.125000 0.812500
vt 0.125000 0.750000
vt 0.187500 0.875000
vt 0.125000 0.875000
vt 0.187500 0.812500
vt 0.250000 0.812500
vt 0.250000 0.875000
vt 0.187500 0.875000
vt 0.375000 0.875000
vt 0.375000 0.812500
vt 0.437500 0.812500
vt 0.437500 0.875000
vt 0.125000 0.750000
vt 0.125000 0.812500
vt 0.062500 0.812500
vt 0.062500 0.750000
vt 0.187500 -0.000000
vt 0.250000 -0.000000
vt 0.750000 0.312500
vt 0.750000 0.375000
vt 0.687500 0.437500
vt 0.625000 0.437500
vt 0.312500 0.125000
vt 0.250000 0.125000
vt 0.250000 0.062500
vt 0.312500 0.062500
vt 0.250000 0.750000
vt 0.250000 0.687500
vt 0.125000 0.687500
vt 0.187500 0.687500
vt 0.062500 0.687500
vt 0.125000 0.687500
vt 0.187500 0.750000
vt 0.250000 0.750000
vt 0.250000 0.812500
vt 0.187500 0.812500
vt 0.312500 0.750000
vt 0.312500 0.812500
vt 0.187500 0.812500
vt 0.250000 0.812500
vt 0.250000 0.875000
vt 0.187500 0.875000
vt 0.000000 0.875000
vt 0.000000 0.812500
vt 0.750000 0.312500
vt 0.750000 0.250000
vt 0.812500 0.250000
vt 0.812500 0.312500
vt 0.437500 0.812500
vt 0.437500 0.875000
vt 0.375000 0.250000
vt 0.375000 0.187500
vt 0.437500 0.187500
vt 0.437500 0.250000
vt 0.312500 0.750000
vt 0.375000 0.750000
vt 0.125000 0.750000
vt 0.125000 0.812500
vt 0.062500 0.812500
vt 0.062500 0.750000
vt 0.187500 0.875000
vt 0.187500 0.937500
vt 0.125000 0.937500
vt 0.125000 0.875000
vt 0.125000 0.875000
vt 0.125000 0.937500
vt 0.062500 0.937500
vt 0.062500 0.875000
vt 0.812500 0.125000
vt 0.812500 0.187500
vt 0.312500 0.312500
vt 0.312500 0.250000
vt 0.375000 0.250000
vt 0.375000 0.312500
vt 0.562500 0.250000
vt 0.562500 0.187500
vt 0.125000 1.000000
vt 0.312500 1.000000
vt 0.187500 0.750000
vt 0.250000 0.750000
vt 0.250000 0.812500
vt 0.187500 0.812500
vt 0.312500 0.812500
vt 0.312500 0.875000
vt 0.250000 0.875000
vt 0.187500 0.875000
vt 0.250000 0.937500
vt 0.187500 0.937500
vt 0.187500 0.812500
vt 0.250000 0.812500
vt 0.250000 0.875000
vt 0.187500 0.875000
vt 0.312500 0.937500
vt 0.312500 0.875000
vt 0.375000 0.875000
vt 0.375000 0.937500
vt 0.437500 0.812500
vt 0.437500 0.875000
vt 0.062500 0.812500
vt 0.062500 0.875000
vt 0.000000 0.875000
vt 0.000000 0.812500
vt 0.250000 0.312500
vt 0.312500 0.312500
vt 0.312500 0.375000
vt 0.250000 0.375000
vt 0.187500 0.375000
vt 0.125000 0.875000
vt 0.125000 0.937500
vt 0.062500 0.937500
vt 0.750000 0.125000
vt 0.687500 0.125000
vt 0.750000 0.062500
vt 0.125000 0.750000
vt 0.125000 0.812500
vt 0.062500 0.750000
vt 0.625000 0.062500
vt 0.687500 0.062500
vt 0.125000 0.875000
vt 0.125000 0.812500
vt 0.625000 0.125000
vt 0.562500 0.062500
vt 0.187500 0.312500
vt 0.125000 0.375000
vt 0.187500 0.812500
vt 0.250000 0.812500
vt 0.250000 0.875000
vt 0.187500 0.875000
vt 0.500000 0.250000
vt 0.437500 0.250000
vt 0.437500 0.187500
vt 0.437500 0.812500
vt 0.437500 0.875000
vt 0.000000 0.250000
vt 0.000000 0.187500
vt 0.125000 0.875000
vt 0.125000 0.812500
vt 0.562500 0.250000
vt 0.562500 0.312500
vt 0.500000 0.312500
vt 0.312500 0.875000
vt 0.375000 0.812500
vt 0.375000 0.875000
vn -1.0000 0.0000 0.0000
vn 0.0000 0.0000 -1.0000
vn 1.0000 0.0000 0.0000
vn 0.0000 0.0000 1.0000
vn 0.0000 -1.0000 0.0000
vn -0.4472 0.0000 -0.8944
vn 0.8944 0.0000 0.4472
vn 0.0000 0.8944 0.4472
vn 0.0000 -0.8944 0.4472
vn -0.8944 0.0000 0.4472
vn 0.4472 -0.8944 0.0000
vn 0.0000 -0.8944 -0.4472
vn 0.8944 0.0000 -0.4472
vn 0.0000 0.8944 -0.4472
vn -0.8944 0.0000 -0.4472
vn 0.0000 1.0000 0.0000
vn 0.4472 0.0000 -0.8944
vn 0.4472 0.8944 0.0000
vn 0.4472 0.0000 0.8944
vn -0.4472 -0.8944 0.0000
vn -0.4472 0.0000 0.8944
vn -0.4472 0.8944 0.0000
usemtl Material.001
s off
f 1/1/1 2/2/1 4/3/1 3/4/1
f 3/5/2 4/6/2 8/7/2 7/8/2
f 7/9/3 8/10/3 6/11/3 5/12/3
f 5/13/4 6/14/4 2/15/4 1/16/4
f 3/17/5 7/18/5 5/19/5 1/20/5
f 6/11/3 8/10/3 11/21/3 12/22/3
f 9/23/4 12/24/4 17/25/4 14/26/4
f 10/27/6 4/28/6 32/29/6
f 6/30/7 12/31/7 13/32/7
f 8/7/2 4/6/2 10/33/2 11/34/2
f 12/35/8 9/36/8 13/37/8
f 2/38/9 6/39/9 13/40/9
f 9/41/10 2/42/10 13/43/10
f 17/44/11 16/45/11 23/46/11
f 11/47/12 10/48/12 18/49/12
f 12/22/3 11/21/3 16/50/3 17/51/3
f 10/52/1 9/53/1 14/54/1 15/55/1
f 16/56/13 11/57/13 18/58/13
f 15/59/14 16/60/14 18/61/14
f 10/62/15 15/63/15 18/64/15
f 21/65/16 20/66/16 19/67/16 22/68/16
f 15/69/5 14/70/5 24/71/5 25/72/5
f 14/26/4 17/25/4 22/73/4 19/74/4
f 16/75/2 15/76/2 20/77/2 21/65/2
f 16/78/17 21/79/17 23/46/17
f 21/80/18 22/81/18 23/82/18
f 22/83/19 17/84/19 23/85/19
f 25/86/1 24/87/1 26/88/1 27/89/1
f 14/26/4 19/74/4 26/90/4 24/91/4
f 27/89/1 26/88/1 30/92/1 31/93/1
f 20/77/2 15/76/2 25/94/2 27/95/2
f 30/96/5 28/97/5 57/98/5 58/99/5
f 19/100/3 20/101/3 29/102/3 28/103/3
f 26/90/4 19/74/4 28/104/4 30/105/4
f 20/77/2 27/95/2 31/106/2 29/107/2
f 4/108/20 2/109/20 32/110/20
f 9/111/21 32/112/21 2/113/21
f 9/114/22 10/115/22 32/29/22
f 82/116/5 46/117/5 89/118/5 157/119/5
f 28/97/5 29/120/5 36/121/5 35/122/5
f 55/123/3 42/124/3 80/125/3 84/126/3
f 43/127/4 45/128/4 100/129/4 94/130/4
f 35/122/5 36/121/5 121/131/5 120/132/5
f 36/121/5 29/120/5 40/133/5 74/134/5
f 72/135/4 66/136/4 133/137/4 130/138/4
f 52/139/16 55/140/16 84/141/16 83/142/16
f 45/143/1 43/144/1 68/145/1 67/146/1
f 31/147/5 44/148/5 81/149/5 39/150/5
f 28/97/5 35/122/5 63/151/5 57/98/5
f 54/152/16 51/153/16 71/154/16 72/155/16
f 49/156/16 50/157/16 70/158/16 69/159/16
f 38/160/2 42/161/2 87/162/2 123/163/2
f 56/164/16 53/165/16 76/166/16 79/167/16
f 31/147/5 30/96/5 43/168/5 44/148/5
f 87/169/16 132/170/16 128/171/16 129/172/16
f 51/153/16 49/156/16 69/159/16 71/154/16
f 56/173/1 50/174/1 135/175/1 137/176/1
f 49/177/4 51/178/4 90/179/4 134/180/4
f 52/139/16 51/153/16 54/152/16 55/140/16
f 29/120/5 31/147/5 39/150/5 40/133/5
f 44/181/1 46/182/1 82/183/1 81/184/1
f 37/185/3 41/186/3 66/187/3 64/188/3
f 41/186/3 42/124/3 55/123/3 54/189/3
f 43/168/5 30/96/5 58/99/5 68/190/5
f 85/191/16 86/192/16 148/193/16 147/194/16
f 61/195/4 57/196/4 63/197/4 64/198/4
f 60/199/4 59/200/4 69/201/4 70/202/4
f 60/203/1 67/146/1 151/204/1 149/205/1
f 62/206/1 58/207/1 139/208/1 150/209/1
f 58/210/4 62/211/4 67/212/4 68/213/4
f 65/214/4 66/136/4 72/135/4 71/215/4
f 150/216/5 140/217/5 145/218/5 146/219/5
f 35/220/3 37/185/3 64/188/3 63/221/3
f 50/174/1 47/222/1 60/203/1 70/223/1
f 60/224/16 47/225/16 96/226/16 98/227/16
f 40/228/2 39/229/2 73/230/2 34/231/2
f 109/232/3 74/233/3 117/234/3 119/235/3
f 104/236/1 88/237/1 115/238/1 114/239/1
f 79/167/16 76/166/16 101/240/16 103/241/16
f 78/242/1 79/243/1 103/244/1 102/245/1
f 73/230/2 39/229/2 81/246/2 82/247/2
f 80/248/2 33/249/2 83/250/2 84/251/2
f 33/249/2 77/252/2 76/253/2 83/250/2
f 42/124/3 38/254/3 75/255/3 80/125/3
f 53/165/16 52/139/16 83/142/16 76/166/16
f 48/256/1 56/173/1 79/243/1 78/242/1
f 64/188/3 66/187/3 142/257/3 141/258/3
f 36/121/5 74/134/5 125/259/5 121/131/5
f 41/260/4 37/261/4 122/262/4 132/263/4
f 42/264/16 41/265/16 132/170/16 87/169/16
f 80/125/3 75/255/3 110/266/3 111/267/3
f 77/268/16 33/269/16 107/270/16 88/271/16
f 34/272/5 73/273/5 104/274/5 106/275/5
f 100/129/4 96/276/4 154/277/4 152/278/4
f 90/279/16 91/280/16 136/281/16 134/282/16
f 51/283/3 52/284/3 91/285/3 90/286/3
f 52/287/2 53/288/2 136/289/2 91/290/2
f 92/291/1 96/292/1 97/293/1 93/294/1
f 95/295/1 94/296/1 100/297/1 89/298/1
f 56/299/2 48/300/2 92/301/2 93/302/2
f 44/148/5 43/168/5 94/303/5 95/304/5
f 50/157/16 56/164/16 93/305/16 97/306/16
f 46/307/2 44/308/2 95/309/2 89/310/2
f 47/311/4 50/312/4 97/313/4 96/276/4
f 96/292/1 100/297/1 99/314/1 98/315/1
f 67/212/4 60/199/4 98/316/4 99/317/4
f 45/318/5 67/319/5 99/320/5 100/321/5
f 88/322/2 102/323/2 103/324/2 101/325/2
f 88/322/2 104/326/2 105/327/2 102/323/2
f 76/328/3 77/329/3 88/330/3 101/331/3
f 73/273/5 82/116/5 105/332/5 104/274/5
f 82/183/1 78/242/1 102/245/1 105/333/1
f 108/334/2 106/335/2 110/336/2 109/337/2
f 110/336/2 106/335/2 107/338/2 111/339/2
f 112/340/2 114/341/2 115/342/2 113/343/2
f 107/344/3 106/345/3 112/346/3 113/347/3
f 40/348/1 34/349/1 106/350/1 108/351/1
f 106/275/5 104/274/5 114/352/5 112/353/5
f 33/269/16 80/354/16 111/355/16 107/270/16
f 88/271/16 107/270/16 113/356/16 115/357/16
f 75/255/3 74/233/3 109/232/3 110/266/3
f 117/358/5 116/359/5 118/360/5 119/361/5
f 74/233/4 40/362/4 116/363/4 117/234/4
f 108/334/2 109/337/2 119/364/2 118/365/2
f 40/348/1 108/351/1 118/366/1 116/367/1
f 120/368/3 121/369/3 123/370/3 122/371/3
f 123/370/3 121/369/3 125/372/3 124/373/3
f 126/374/3 127/375/3 129/376/3 128/377/3
f 123/163/2 87/162/2 129/378/2 127/379/2
f 75/380/16 38/381/16 123/382/16 124/383/16
f 132/263/4 122/262/4 126/384/4 128/385/4
f 122/386/5 123/387/5 127/388/5 126/389/5
f 37/261/4 35/390/4 120/391/4 122/262/4
f 74/392/2 75/393/2 124/394/2 125/395/2
f 132/396/3 131/397/3 130/398/3 133/399/3
f 41/400/2 54/401/2 131/402/2 132/403/2
f 54/152/16 72/155/16 130/404/16 131/405/16
f 66/406/5 41/407/5 132/408/5 133/409/5
f 134/282/16 136/281/16 137/410/16 135/411/16
f 50/312/4 49/177/4 134/180/4 135/412/4
f 53/288/2 56/299/2 137/413/2 136/289/2
f 139/414/4 138/415/4 140/416/4 150/417/4
f 140/416/4 141/418/4 142/419/4 85/420/4
f 86/421/4 85/420/4 143/422/4 144/423/4
f 146/424/4 145/425/4 147/426/4 148/427/4
f 69/428/1 59/429/1 86/430/1 144/431/1
f 86/430/1 150/209/1 146/432/1 148/433/1
f 140/434/3 85/435/3 147/436/3 145/437/3
f 61/438/5 64/439/5 141/440/5 140/217/5
f 58/99/5 57/98/5 138/441/5 139/442/5
f 65/443/3 71/444/3 143/445/3 85/435/3
f 66/446/16 65/447/16 85/191/16 142/448/16
f 57/449/3 61/450/3 140/434/3 138/451/3
f 71/154/16 69/159/16 144/452/16 143/453/16
f 150/417/4 86/421/4 149/454/4 151/455/4
f 59/456/16 60/224/16 149/457/16 86/192/16
f 67/319/5 62/458/5 150/216/5 151/459/5
f 153/460/1 152/461/1 154/462/1 155/463/1
f 96/226/16 92/464/16 155/465/16 154/466/16
f 92/301/2 89/310/2 153/467/2 155/468/2
f 89/118/5 100/321/5 152/469/5 153/470/5
f 89/298/1 92/291/1 156/471/1 157/472/1
f 48/473/16 78/474/16 156/475/16 92/464/16
f 78/476/2 82/247/2 157/477/2 156/478/2
