# Blender v2.80 (sub 75) OBJ File: 'sexyspells_water_projectile.blend'
# www.blender.org
mtllib spell_projectile_air_cc.mtl
o SPELL_PROJECTILE_AIR_CLOCKWISE_Plane.003
v 0.243570 -0.140625 -0.625000
v 0.031250 0.031250 0.000000
v -0.031250 0.031250 0.000000
v 0.017564 0.162601 -0.087681
v 0.068573 0.137793 -0.078985
v 0.264904 0.175837 -0.327755
v 0.134020 0.221912 -0.199110
v 0.159873 0.182596 -0.175890
v 0.276362 0.136663 -0.297245
v 0.285190 -0.080682 -0.574114
v 0.323401 0.050558 -0.452762
v 0.329254 0.018038 -0.422238
v 0.279500 -0.102797 -0.550886
v -0.000000 -0.003419 -0.052003
v 0.047998 0.104716 -0.128278
v 0.136019 0.147289 -0.222510
v 0.226726 0.116361 -0.327252
v 0.221260 -0.082787 -0.547342
v 0.267581 0.029901 -0.435541
v 0.031250 -0.031250 0.000000
v -0.031250 -0.031250 0.000000
v 0.031250 0.031250 0.000000
v -0.031250 0.031250 0.000000
v -0.140625 -0.243570 -0.625000
v 0.031250 -0.031250 0.000000
v 0.031250 0.031250 0.000000
v 0.162601 -0.017564 -0.087681
v 0.137793 -0.068573 -0.078985
v 0.175837 -0.264904 -0.327755
v 0.221912 -0.134020 -0.199110
v 0.182596 -0.159873 -0.175890
v 0.136663 -0.276362 -0.297245
v -0.080682 -0.285190 -0.574114
v 0.050558 -0.323401 -0.452762
v 0.018038 -0.329254 -0.422238
v -0.102797 -0.279500 -0.550886
v -0.003419 0.000000 -0.052003
v 0.104716 -0.047998 -0.128278
v 0.147289 -0.136019 -0.222510
v 0.116361 -0.226726 -0.327252
v -0.082787 -0.221260 -0.547342
v 0.029901 -0.267581 -0.435541
v -0.243570 0.140625 -0.625000
v -0.031250 -0.031250 0.000000
v 0.031250 -0.031250 0.000000
v -0.017564 -0.162601 -0.087681
v -0.068573 -0.137793 -0.078985
v -0.264904 -0.175837 -0.327755
v -0.134020 -0.221912 -0.199110
v -0.159873 -0.182596 -0.175890
v -0.276362 -0.136663 -0.297245
v -0.285190 0.080682 -0.574114
v -0.323401 -0.050558 -0.452762
v -0.329254 -0.018038 -0.422238
v -0.279500 0.102797 -0.550886
v 0.000000 0.003419 -0.052003
v -0.047998 -0.104716 -0.128278
v -0.136019 -0.147289 -0.222510
v -0.226726 -0.116361 -0.327252
v -0.221260 0.082787 -0.547342
v -0.267581 -0.029901 -0.435541
v 0.140625 0.243570 -0.625000
v -0.031250 0.031250 0.000000
v -0.031250 -0.031250 0.000000
v -0.162601 0.017564 -0.087681
v -0.137793 0.068573 -0.078985
v -0.175836 0.264904 -0.327755
v -0.221912 0.134020 -0.199110
v -0.182596 0.159873 -0.175890
v -0.136663 0.276362 -0.297245
v 0.080682 0.285190 -0.574114
v -0.050558 0.323401 -0.452762
v -0.018038 0.329254 -0.422238
v 0.102797 0.279500 -0.550886
v 0.003419 -0.000000 -0.052003
v -0.104716 0.047998 -0.128278
v -0.147289 0.136019 -0.222510
v -0.116361 0.226726 -0.327252
v 0.082787 0.221260 -0.547342
v -0.029901 0.267581 -0.435541
vt 0.437500 0.918762
vt 0.375000 0.918762
vt 0.375000 0.828426
vt 0.437500 0.828426
vt 0.375000 0.500000
vt 0.437500 0.521823
vt 0.437500 0.665181
vt 0.375000 0.687500
vt 0.437500 0.500000
vt 0.437500 0.316469
vt 0.500000 0.312500
vt 0.500000 0.500000
vt 0.375000 0.125000
vt 0.437500 0.125000
vt 0.437500 0.312500
vt 0.375000 0.312500
vt 0.437500 0.796222
vt 0.375000 0.796222
vt 0.375000 0.698153
vt 0.437500 0.698153
vt 0.375000 0.482881
vt 0.375000 0.333588
vt 0.500000 0.690653
vt 0.500000 0.810910
vt 0.437500 0.312500
vt 0.375000 0.312500
vt 0.375000 0.125000
vt 0.437500 0.125000
vt 0.437500 0.000000
vt 0.500000 0.818738
vt 0.500000 0.925949
vt 0.437500 0.680555
vt 0.437500 0.506449
vt 0.500000 0.687500
vt 0.500000 0.000000
vt 0.500000 0.125000
vt 0.375000 0.316469
vt 0.437500 0.333588
vt 0.437500 0.482881
vt 0.375000 0.818738
vt 0.437500 0.828426
vt 0.437500 0.918762
vt 0.375000 0.925949
vt 0.375000 0.665181
vt 0.375000 0.521823
vt 0.437500 0.698153
vt 0.437500 0.796222
vt 0.375000 0.812500
vt 0.437500 0.937500
vt 0.500000 0.937500
vt 0.500000 1.000000
vt 0.437500 1.000000
vt 0.437500 0.918762
vt 0.375000 0.918762
vt 0.375000 0.828426
vt 0.437500 0.828426
vt 0.375000 0.500000
vt 0.437500 0.521823
vt 0.437500 0.665181
vt 0.375000 0.687500
vt 0.437500 0.500000
vt 0.437500 0.316469
vt 0.500000 0.312500
vt 0.500000 0.500000
vt 0.375000 0.125000
vt 0.437500 0.125000
vt 0.437500 0.312500
vt 0.375000 0.312500
vt 0.437500 0.796222
vt 0.375000 0.796222
vt 0.375000 0.698153
vt 0.437500 0.698153
vt 0.375000 0.482881
vt 0.375000 0.333588
vt 0.500000 0.690653
vt 0.500000 0.810910
vt 0.437500 0.312500
vt 0.375000 0.312500
vt 0.375000 0.125000
vt 0.437500 0.125000
vt 0.437500 0.000000
vt 0.500000 0.818738
vt 0.500000 0.925949
vt 0.437500 0.680555
vt 0.437500 0.506449
vt 0.500000 0.687500
vt 0.500000 0.000000
vt 0.500000 0.125000
vt 0.375000 0.316469
vt 0.437500 0.333588
vt 0.437500 0.482881
vt 0.375000 0.818738
vt 0.437500 0.828426
vt 0.437500 0.918762
vt 0.375000 0.925949
vt 0.375000 0.665181
vt 0.375000 0.521823
vt 0.437500 0.698153
vt 0.437500 0.796222
vt 0.375000 0.812500
vt 0.437500 0.918762
vt 0.375000 0.918762
vt 0.375000 0.828426
vt 0.437500 0.828426
vt 0.375000 0.500000
vt 0.437500 0.521823
vt 0.437500 0.665181
vt 0.375000 0.687500
vt 0.437500 0.500000
vt 0.437500 0.316469
vt 0.500000 0.312500
vt 0.500000 0.500000
vt 0.375000 0.125000
vt 0.437500 0.125000
vt 0.437500 0.312500
vt 0.375000 0.312500
vt 0.437500 0.796222
vt 0.375000 0.796222
vt 0.375000 0.698153
vt 0.437500 0.698153
vt 0.375000 0.482881
vt 0.375000 0.333588
vt 0.500000 0.690653
vt 0.500000 0.810910
vt 0.437500 0.312500
vt 0.375000 0.312500
vt 0.375000 0.125000
vt 0.437500 0.125000
vt 0.437500 0.000000
vt 0.500000 0.818738
vt 0.500000 0.925949
vt 0.437500 0.680555
vt 0.437500 0.506449
vt 0.500000 0.687500
vt 0.500000 0.000000
vt 0.500000 0.125000
vt 0.375000 0.316469
vt 0.437500 0.333588
vt 0.437500 0.482881
vt 0.375000 0.818738
vt 0.437500 0.828426
vt 0.437500 0.918762
vt 0.375000 0.925949
vt 0.375000 0.665181
vt 0.375000 0.521823
vt 0.437500 0.698153
vt 0.437500 0.796222
vt 0.375000 0.812500
vt 0.437500 0.918762
vt 0.375000 0.918762
vt 0.375000 0.828426
vt 0.437500 0.828426
vt 0.375000 0.500000
vt 0.437500 0.521823
vt 0.437500 0.665181
vt 0.375000 0.687500
vt 0.437500 0.500000
vt 0.437500 0.316469
vt 0.500000 0.312500
vt 0.500000 0.500000
vt 0.375000 0.125000
vt 0.437500 0.125000
vt 0.437500 0.312500
vt 0.375000 0.312500
vt 0.437500 0.796222
vt 0.375000 0.796222
vt 0.375000 0.698153
vt 0.437500 0.698153
vt 0.375000 0.482881
vt 0.375000 0.333588
vt 0.500000 0.690653
vt 0.500000 0.810910
vt 0.437500 0.312500
vt 0.375000 0.312500
vt 0.375000 0.125000
vt 0.437500 0.125000
vt 0.437500 0.000000
vt 0.500000 0.818738
vt 0.500000 0.925949
vt 0.437500 0.680555
vt 0.437500 0.506449
vt 0.500000 0.687500
vt 0.500000 0.000000
vt 0.500000 0.125000
vt 0.375000 0.316469
vt 0.437500 0.333588
vt 0.437500 0.482881
vt 0.375000 0.818738
vt 0.437500 0.828426
vt 0.437500 0.918762
vt 0.375000 0.925949
vt 0.375000 0.665181
vt 0.375000 0.521823
vt 0.437500 0.698153
vt 0.437500 0.796222
vt 0.375000 0.812500
vn 0.8787 -0.4545 -0.1456
vn -0.6428 0.2942 -0.7073
vn 0.9415 0.3193 0.1080
vn -0.3584 0.7070 -0.6097
vn 0.6217 -0.7446 0.2429
vn -0.1781 -0.7734 0.6084
vn 0.3071 0.6928 0.6525
vn -0.2317 -0.6500 0.7238
vn -0.2459 -0.8099 0.5326
vn 0.0587 0.5585 0.8275
vn 0.6636 0.6110 0.4317
vn 0.8764 -0.4373 -0.2017
vn -0.2852 0.7276 -0.6239
vn 0.9706 -0.1672 -0.1729
vn -0.5465 0.4910 -0.6784
vn -0.8437 -0.0259 -0.5361
vn 0.1789 -0.8699 0.4597
vn -0.7359 0.1398 -0.6624
vn 0.0000 0.0000 1.0000
vn -0.4545 -0.8787 -0.1456
vn 0.2942 0.6428 -0.7073
vn 0.3193 -0.9415 0.1080
vn 0.7070 0.3584 -0.6097
vn -0.7446 -0.6217 0.2429
vn -0.7734 0.1781 0.6084
vn 0.6928 -0.3071 0.6525
vn -0.6500 0.2317 0.7238
vn -0.8099 0.2459 0.5326
vn 0.5585 -0.0587 0.8275
vn 0.6110 -0.6636 0.4317
vn -0.4373 -0.8764 -0.2017
vn 0.7276 0.2852 -0.6239
vn -0.1672 -0.9706 -0.1729
vn 0.4910 0.5465 -0.6784
vn -0.0259 0.8437 -0.5361
vn -0.8699 -0.1789 0.4597
vn 0.1398 0.7359 -0.6624
vn -0.8787 0.4545 -0.1456
vn 0.6428 -0.2942 -0.7073
vn -0.9415 -0.3193 0.1080
vn 0.3584 -0.7070 -0.6097
vn -0.6217 0.7446 0.2429
vn 0.1781 0.7734 0.6084
vn -0.3071 -0.6928 0.6525
vn 0.2317 0.6500 0.7238
vn 0.2459 0.8099 0.5326
vn -0.0587 -0.5585 0.8275
vn -0.6636 -0.6110 0.4317
vn -0.8764 0.4373 -0.2017
vn 0.2852 -0.7276 -0.6239
vn -0.9706 0.1672 -0.1729
vn 0.5465 -0.4910 -0.6784
vn 0.8437 0.0259 -0.5361
vn -0.1789 0.8699 0.4597
vn 0.7359 -0.1398 -0.6624
vn 0.4545 0.8787 -0.1456
vn -0.2942 -0.6428 -0.7073
vn -0.3193 0.9415 0.1080
vn -0.7070 -0.3584 -0.6097
vn 0.7446 0.6217 0.2429
vn 0.7734 -0.1781 0.6084
vn -0.6928 0.3071 0.6525
vn 0.6500 -0.2317 0.7238
vn 0.8099 -0.2459 0.5326
vn -0.5585 0.0587 0.8275
vn -0.6110 0.6636 0.4317
vn 0.4373 0.8764 -0.2017
vn -0.7276 -0.2852 -0.6239
vn 0.1672 0.9706 -0.1729
vn -0.4910 -0.5465 -0.6784
vn 0.0259 -0.8437 -0.5361
vn 0.8699 0.1789 0.4597
vn -0.1398 -0.7359 -0.6624
usemtl PROJECTILE_WATER
s off
f 2/1/1 14/2/1 15/3/1 5/4/1
f 6/5/2 17/6/2 16/7/2 7/8/2
f 9/9/3 12/10/3 11/11/3 6/12/3
f 10/13/4 18/14/4 19/15/4 11/16/4
f 5/17/5 15/18/5 16/19/5 8/20/5
f 9/9/6 17/21/6 19/22/6 12/10/6
f 5/17/7 8/20/7 7/23/7 4/24/7
f 12/25/8 19/26/8 18/27/8 13/28/8
f 13/28/9 18/27/9 1/29/9
f 2/1/10 5/4/10 4/30/10 3/31/10
f 8/32/11 9/33/11 6/12/11 7/34/11
f 1/35/12 10/36/12 13/28/12
f 1/29/13 18/14/13 10/13/13
f 12/25/14 13/28/14 10/36/14 11/11/14
f 11/37/15 19/38/15 17/39/15 6/5/15
f 4/40/16 15/41/16 14/42/16 3/43/16
f 8/32/17 16/44/17 17/45/17 9/33/17
f 7/8/18 16/46/18 15/47/18 4/48/18
f 21/49/19 20/50/19 22/51/19 23/52/19
f 25/53/20 37/54/20 38/55/20 28/56/20
f 29/57/21 40/58/21 39/59/21 30/60/21
f 32/61/22 35/62/22 34/63/22 29/64/22
f 33/65/23 41/66/23 42/67/23 34/68/23
f 28/69/24 38/70/24 39/71/24 31/72/24
f 32/61/25 40/73/25 42/74/25 35/62/25
f 28/69/26 31/72/26 30/75/26 27/76/26
f 35/77/27 42/78/27 41/79/27 36/80/27
f 36/80/28 41/79/28 24/81/28
f 25/53/29 28/56/29 27/82/29 26/83/29
f 31/84/30 32/85/30 29/64/30 30/86/30
f 24/87/31 33/88/31 36/80/31
f 24/81/32 41/66/32 33/65/32
f 35/77/33 36/80/33 33/88/33 34/63/33
f 34/89/34 42/90/34 40/91/34 29/57/34
f 27/92/35 38/93/35 37/94/35 26/95/35
f 31/84/36 39/96/36 40/97/36 32/85/36
f 30/60/37 39/98/37 38/99/37 27/100/37
f 44/101/38 56/102/38 57/103/38 47/104/38
f 48/105/39 59/106/39 58/107/39 49/108/39
f 51/109/40 54/110/40 53/111/40 48/112/40
f 52/113/41 60/114/41 61/115/41 53/116/41
f 47/117/42 57/118/42 58/119/42 50/120/42
f 51/109/43 59/121/43 61/122/43 54/110/43
f 47/117/44 50/120/44 49/123/44 46/124/44
f 54/125/45 61/126/45 60/127/45 55/128/45
f 55/128/46 60/127/46 43/129/46
f 44/101/47 47/104/47 46/130/47 45/131/47
f 50/132/48 51/133/48 48/112/48 49/134/48
f 43/135/49 52/136/49 55/128/49
f 43/129/50 60/114/50 52/113/50
f 54/125/51 55/128/51 52/136/51 53/111/51
f 53/137/52 61/138/52 59/139/52 48/105/52
f 46/140/53 57/141/53 56/142/53 45/143/53
f 50/132/54 58/144/54 59/145/54 51/133/54
f 49/108/55 58/146/55 57/147/55 46/148/55
f 63/149/56 75/150/56 76/151/56 66/152/56
f 67/153/57 78/154/57 77/155/57 68/156/57
f 70/157/58 73/158/58 72/159/58 67/160/58
f 71/161/59 79/162/59 80/163/59 72/164/59
f 66/165/60 76/166/60 77/167/60 69/168/60
f 70/157/61 78/169/61 80/170/61 73/158/61
f 66/165/62 69/168/62 68/171/62 65/172/62
f 73/173/63 80/174/63 79/175/63 74/176/63
f 74/176/64 79/175/64 62/177/64
f 63/149/65 66/152/65 65/178/65 64/179/65
f 69/180/66 70/181/66 67/160/66 68/182/66
f 62/183/67 71/184/67 74/176/67
f 62/177/68 79/162/68 71/161/68
f 73/173/69 74/176/69 71/184/69 72/159/69
f 72/185/70 80/186/70 78/187/70 67/153/70
f 65/188/71 76/189/71 75/190/71 64/191/71
f 69/180/72 77/192/72 78/193/72 70/181/72
f 68/156/73 77/194/73 76/195/73 65/196/73
