# Blender v2.80 (sub 75) OBJ File: 'sexyspells_water_projectile.blend'
# www.blender.org
mtllib spell_projectile_earth_tint.mtl
o SPELL_PROJECTILE_EARTH_TINT_Cube.002
v 0.093750 -0.093750 -0.812500
v -0.093750 0.093750 -0.812500
v -0.093750 -0.093750 -0.812500
v 0.000000 0.000000 -0.875000
v 0.093750 0.093750 -0.812500
v 0.031250 0.031250 0.000000
v 0.031250 -0.031250 0.000000
v -0.031250 -0.031250 0.000000
v -0.031250 0.031250 0.000000
v -0.093750 -0.093750 -0.125000
v -0.093750 0.093750 -0.125000
v 0.093750 -0.093750 -0.125000
v 0.093750 0.093750 -0.125000
v 0.156250 0.156250 -0.625000
v 0.156250 -0.156250 -0.625000
v -0.156250 0.156250 -0.625000
v -0.156250 -0.156250 -0.625000
v 0.093750 0.000000 -0.812500
v -0.093750 0.000000 -0.812500
v 0.031250 0.000000 0.000000
v -0.031250 0.000000 0.000000
v -0.093750 0.000000 -0.125000
v 0.093750 0.000000 -0.125000
v 0.156250 0.000000 -0.625000
v -0.156250 0.000000 -0.625000
v 0.000000 0.093750 -0.812500
v 0.000000 -0.093750 -0.812500
v 0.000000 0.031250 0.000000
v 0.000000 -0.031250 0.000000
v 0.000000 -0.093750 -0.125000
v 0.000000 0.093750 -0.125000
v 0.000000 0.156250 -0.625000
v 0.000000 -0.156250 -0.625000
v 0.000000 0.000000 0.000000
vt 0.625000 0.375000
vt 0.625000 0.562500
vt 0.812500 0.375000
vt 0.625000 0.375000
vt 0.812500 0.375000
vt 0.625000 0.375000
vt 0.812500 0.375000
vt 0.625000 0.375000
vt 0.562500 0.562500
vt 0.562500 0.812500
vt 0.625000 0.812500
vt 0.750000 0.562500
vt 0.562500 0.562500
vt 0.562500 0.812500
vt 0.625000 0.812500
vt 0.750000 0.562500
vt 0.562500 0.562500
vt 0.562500 0.812500
vt 0.625000 0.812500
vt 0.750000 0.562500
vt 0.625000 0.875000
vt 0.562500 0.875000
vt 0.562500 0.812500
vt 0.625000 0.812500
vt 0.562500 0.562500
vt 0.562500 0.812500
vt 0.625000 0.812500
vt 0.750000 0.562500
vt 0.312500 -0.000000
vt 0.312500 1.000000
vt 0.125000 1.000000
vt -0.000000 -0.000000
vt 0.312500 -0.000000
vt 0.312500 1.000000
vt 0.125000 1.000000
vt -0.000000 0.000000
vt 0.312500 0.000000
vt 0.312500 1.000000
vt 0.125000 1.000000
vt -0.000000 0.000000
vt 0.312500 0.000000
vt 0.312500 1.000000
vt 0.125000 1.000000
vt -0.000000 0.000000
vt 0.625000 0.000000
vt 0.937500 0.000000
vt 0.812500 0.375000
vt 0.625000 0.000000
vt 0.937500 0.000000
vt 0.625000 0.000000
vt 0.937500 0.000000
vt 0.625000 0.000000
vt 0.937500 0.000000
vt 0.625000 0.000000
vt 0.500000 1.000000
vt 0.625000 0.000000
vt 0.500000 1.000000
vt 0.625000 0.937500
vt 0.562500 0.937500
vt 0.687500 0.937500
vt 0.687500 0.875000
vt 0.625000 0.000000
vt 0.500000 1.000000
vt 0.625000 0.000000
vt 0.500000 1.000000
vt 0.687500 0.812500
vn 0.0000 0.5547 -0.8321
vn 0.0000 -0.5547 -0.8321
vn 0.5547 0.0000 -0.8321
vn -0.5547 0.0000 -0.8321
vn -0.8944 0.0000 0.4472
vn 0.0000 0.8944 0.4472
vn 0.0000 -0.8944 0.4472
vn 0.0000 0.0000 1.0000
vn 0.8944 0.0000 0.4472
vn 0.0000 0.9923 0.1240
vn -0.9923 0.0000 0.1240
vn 0.9923 0.0000 0.1240
vn 0.0000 -0.9923 0.1240
vn 0.0000 -0.9487 -0.3162
vn 0.9487 0.0000 -0.3162
vn -0.9487 0.0000 -0.3162
vn 0.0000 0.9487 -0.3162
usemtl SEXYSPELLS_EARTH
s off
f 26/1/1 4/2/1 2/3/1
f 27/4/2 4/2/2 1/5/2
f 18/6/3 4/2/3 5/7/3
f 4/2/4 19/8/4 2/3/4
f 22/9/5 21/10/5 9/11/5 11/12/5
f 31/13/6 28/14/6 6/15/6 13/16/6
f 30/17/7 29/18/7 8/19/7 10/20/7
f 34/21/8 20/22/8 6/23/8 28/24/8
f 23/25/9 20/26/9 7/27/9 12/28/9
f 32/29/10 31/30/10 13/31/10 14/32/10
f 25/33/11 22/34/11 11/35/11 16/36/11
f 24/37/12 23/38/12 12/39/12 15/40/12
f 33/41/13 30/42/13 10/43/13 17/44/13
f 27/4/14 33/45/14 17/46/14 3/47/14
f 18/6/15 24/48/15 15/49/15 1/5/15
f 19/8/16 25/50/16 16/51/16 2/3/16
f 26/1/17 32/52/17 14/53/17 5/7/17
f 3/47/16 17/46/16 25/50/16 19/8/16
f 5/7/15 14/53/15 24/48/15 18/6/15
f 14/54/12 13/55/12 23/38/12 24/37/12
f 17/56/11 10/57/11 22/34/11 25/33/11
f 13/16/9 6/15/9 20/26/9 23/25/9
f 29/58/8 7/59/8 20/22/8 34/21/8
f 10/20/5 8/19/5 21/10/5 22/9/5
f 8/60/8 29/58/8 34/21/8 21/61/8
f 2/3/17 16/51/17 32/52/17 26/1/17
f 1/5/14 15/49/14 33/45/14 27/4/14
f 15/62/13 12/63/13 30/42/13 33/41/13
f 16/64/10 11/65/10 31/30/10 32/29/10
f 21/61/8 34/21/8 28/24/8 9/66/8
f 12/28/7 7/27/7 29/18/7 30/17/7
f 11/12/6 9/11/6 28/14/6 31/13/6
f 1/5/3 4/2/3 18/6/3
f 5/7/1 4/2/1 26/1/1
f 3/47/4 19/8/4 4/2/4
f 3/47/2 4/2/2 27/4/2
