# Blender v2.80 (sub 75) OBJ File: 'sexyspells_water_projectile.blend'
# www.blender.org
mtllib spell_projectile_ice.mtl
o SPELL_PROJECTILE_ICE_Cube
v 0.000000 0.000000 0.000000
v -0.093750 -0.093750 -0.687500
v -0.093750 0.093750 -0.687500
v 0.093750 -0.093750 -0.687500
v 0.093750 0.093750 -0.687500
v 0.000000 0.000000 -0.875000
v -0.068182 -0.068182 -0.500000
v 0.068182 -0.068182 -0.500000
v -0.068182 0.068182 -0.500000
v 0.068182 0.068182 -0.500000
vt 0.609375 0.375000
vt 0.265625 0.375000
vt 0.437500 0.000000
vt 0.265625 0.375000
vt 0.609375 0.375000
vt 0.562500 0.750000
vt 0.312500 0.750000
vt 0.250000 0.000000
vt 0.125000 1.000000
vt 0.000000 0.000000
vt 0.000000 0.000000
vt 0.312500 0.750000
vt 0.562500 0.750000
vt 0.250000 0.000000
vn 0.0000 0.8944 -0.4472
vn -0.8944 0.0000 -0.4472
vn 0.8944 0.0000 -0.4472
vn 0.0000 -0.8944 -0.4472
vn 0.0000 0.9908 0.1351
vn -0.9908 -0.0000 0.1351
vn -0.0000 -0.9908 0.1351
vn 0.9908 0.0000 0.1351
usemtl SEXYSPELLS_MAT1
s off
f 3/1/1 5/2/1 6/3/1
f 2/4/2 3/1/2 6/3/2
f 5/2/3 4/5/3 6/3/3
f 4/5/4 2/4/4 6/3/4
f 3/1/5 9/6/5 10/7/5 5/2/5
f 9/8/5 1/9/5 10/10/5
f 1/9/6 9/8/6 7/11/6
f 9/6/6 3/1/6 2/4/6 7/12/6
f 2/4/7 4/5/7 8/13/7 7/12/7
f 7/11/7 8/14/7 1/9/7
f 1/9/8 8/14/8 10/10/8
f 10/7/8 8/13/8 4/5/8 5/2/8
