# Blender v2.80 (sub 75) OBJ File: 'sexyspells_water_projectile.blend'
# www.blender.org
mtllib spell_projectile_earth_notint.mtl
o SPELL_PROJECTILE_EARTH_NOTINT_Cube.003
v -0.031250 0.031250 0.000000
v -0.031250 -0.010230 -0.046751
v 0.031250 0.031250 0.000000
v 0.031250 -0.010230 -0.046751
v -0.031250 0.124752 -0.082960
v -0.030950 0.073226 -0.120264
v 0.031939 0.063456 -0.110900
v 0.029132 0.116130 -0.072106
v 0.064617 0.093070 -0.164408
v 0.015030 0.114234 -0.200552
v 0.109678 0.105586 -0.264827
v 0.073874 0.153336 -0.146459
v 0.024743 0.174416 -0.183077
v 0.188627 0.155105 -0.229777
v 0.171816 0.091711 -0.238796
v 0.176977 0.056974 -0.335619
v 0.126478 0.169132 -0.255514
v 0.114956 0.077884 -0.328055
v 0.187185 0.105807 -0.377681
v 0.125441 0.123936 -0.372052
v 0.193997 -0.133762 -0.473831
v 0.199897 -0.085327 -0.515782
v 0.137585 -0.078541 -0.518188
v 0.131545 -0.127087 -0.476340
v 0.137300 -0.122975 -0.605937
v 0.130320 -0.181966 -0.585890
v 0.192597 -0.198412 -0.607609
v 0.199802 -0.139354 -0.627559
v 0.052899 -0.200376 -0.658072
v 0.070216 -0.139287 -0.667220
v 0.092468 -0.220189 -0.703125
v 0.109916 -0.159161 -0.712136
v -0.036666 -0.092428 -0.744471
v -0.063157 -0.149013 -0.743321
v -0.011364 -0.173940 -0.779990
v 0.014823 -0.117213 -0.781581
v -0.062183 -0.085088 -0.900527
v -0.082361 -0.143409 -0.868327
v -0.025254 -0.169806 -0.872654
v -0.005076 -0.111486 -0.904854
v -0.068876 -0.216082 -0.955523
v 0.036815 0.092340 -0.744586
v 0.063087 0.148952 -0.743298
v 0.011364 0.173940 -0.779990
v 0.063209 0.085148 -0.910641
v 0.092419 0.141459 -0.929865
v 0.034219 0.167852 -0.923924
v 0.005076 0.111486 -0.904854
v -0.001811 0.027769 -1.016938
v -0.004256 0.061204 -1.080207
v -0.056791 0.092367 -1.064727
v -0.054346 0.058932 -1.001457
v -0.075118 -0.068162 -1.032982
v 0.031250 -0.031250 0.000000
v 0.031250 0.010230 -0.046751
v -0.031250 -0.031250 0.000000
v -0.031250 0.010230 -0.046751
v 0.031250 -0.124752 -0.082960
v 0.030951 -0.073226 -0.120264
v -0.031939 -0.063456 -0.110900
v -0.029132 -0.116130 -0.072106
v -0.064617 -0.093069 -0.164408
v -0.015030 -0.114234 -0.200552
v -0.109677 -0.105586 -0.264827
v -0.073874 -0.153336 -0.146459
v -0.024743 -0.174416 -0.183077
v -0.188627 -0.155105 -0.229777
v -0.171816 -0.091711 -0.238796
v -0.176977 -0.056974 -0.335619
v -0.126478 -0.169132 -0.255513
v -0.114956 -0.077884 -0.328055
v -0.187185 -0.105806 -0.377681
v -0.125441 -0.123936 -0.372052
v -0.193997 0.133762 -0.473831
v -0.199897 0.085328 -0.515782
v -0.137585 0.078541 -0.518188
v -0.131545 0.127087 -0.476340
v -0.137300 0.122975 -0.605937
v -0.130320 0.181966 -0.585891
v -0.192597 0.198412 -0.607609
v -0.199802 0.139355 -0.627559
v -0.052899 0.200376 -0.658072
v -0.070216 0.139287 -0.667220
v -0.092468 0.220189 -0.703125
v -0.109916 0.159161 -0.712136
v -0.014823 0.117213 -0.781581
v 0.092468 -0.220189 -0.703125
v 0.122115 -0.273918 -0.774001
v 0.026328 -0.283456 -0.682830
v 0.055975 -0.337185 -0.753705
v 0.092419 0.141459 -0.929865
v 0.141626 0.191368 -0.992129
v 0.172216 0.110874 -0.891317
v 0.221424 0.160782 -0.953581
v -0.092468 0.220189 -0.703125
v -0.162071 0.249456 -0.758695
v -0.092735 0.303000 -0.659178
v -0.162337 0.332267 -0.714748
v -0.199802 0.139354 -0.627559
v -0.267660 0.077327 -0.609206
v -0.247943 0.170015 -0.701933
v -0.315801 0.107987 -0.683580
v -0.075118 -0.068162 -1.032982
v -0.035494 -0.149167 -1.007344
v -0.160083 -0.105893 -1.020880
v -0.120459 -0.186897 -0.995242
v -0.193997 0.133762 -0.473831
v -0.263834 0.182180 -0.434240
v -0.132921 0.199340 -0.446296
v -0.202758 0.247759 -0.406704
v 0.193997 -0.133762 -0.473831
v 0.279930 -0.118187 -0.507921
v 0.207014 -0.226128 -0.483219
v 0.292946 -0.210553 -0.517308
v 0.187185 0.105807 -0.377681
v 0.182267 0.180881 -0.433617
v 0.272056 0.133026 -0.348611
v 0.267138 0.208100 -0.404546
v 0.199802 -0.139354 -0.627559
v 0.210047 -0.071740 -0.691687
v 0.291737 -0.136142 -0.609484
v 0.301982 -0.068527 -0.673612
v -0.187185 -0.105807 -0.377681
v -0.229124 -0.152021 -0.447641
v -0.265960 -0.057297 -0.362503
v -0.307899 -0.103512 -0.432462
v -0.056791 0.092367 -1.064727
v -0.147041 0.070296 -1.077254
v -0.078089 0.183401 -1.071673
v -0.168339 0.161331 -1.084200
v -0.068876 -0.216082 -0.955523
v 0.006168 -0.247534 -1.002088
v -0.111849 -0.298261 -0.969272
v -0.036805 -0.329712 -1.015837
v 0.092468 -0.220189 -0.703125
v 0.122115 -0.273918 -0.774001
v 0.026328 -0.283456 -0.682830
v 0.055975 -0.337185 -0.753705
v 0.092419 0.141459 -0.929865
v 0.141626 0.191368 -0.992129
v 0.172216 0.110874 -0.891317
v 0.221424 0.160782 -0.953581
v -0.092468 0.220189 -0.703125
v -0.162071 0.249456 -0.758695
v -0.092735 0.303000 -0.659178
v -0.162337 0.332267 -0.714748
v -0.199802 0.139354 -0.627559
v -0.267660 0.077327 -0.609206
v -0.247943 0.170015 -0.701933
v -0.315801 0.107987 -0.683580
v -0.075118 -0.068162 -1.032982
v -0.035494 -0.149167 -1.007344
v -0.160083 -0.105893 -1.020880
v -0.120459 -0.186897 -0.995242
v -0.193997 0.133762 -0.473831
v -0.263834 0.182180 -0.434240
v -0.132921 0.199340 -0.446296
v -0.202758 0.247759 -0.406704
v 0.193997 -0.133762 -0.473831
v 0.279930 -0.118187 -0.507921
v 0.207014 -0.226128 -0.483219
v 0.292946 -0.210553 -0.517308
v 0.187185 0.105807 -0.377681
v 0.182267 0.180881 -0.433617
v 0.272056 0.133026 -0.348611
v 0.267138 0.208100 -0.404546
v 0.199802 -0.139354 -0.627559
v 0.210047 -0.071740 -0.691687
v 0.291737 -0.136142 -0.609484
v 0.301982 -0.068527 -0.673612
v -0.187185 -0.105807 -0.377681
v -0.229124 -0.152021 -0.447641
v -0.265960 -0.057297 -0.362503
v -0.307899 -0.103512 -0.432462
v -0.056791 0.092367 -1.064727
v -0.147041 0.070296 -1.077254
v -0.078089 0.183401 -1.071673
v -0.168339 0.161331 -1.084200
v -0.068876 -0.216082 -0.955523
v 0.006168 -0.247534 -1.002088
v -0.111849 -0.298261 -0.969272
v -0.036805 -0.329712 -1.015837
vt 1.000000 0.437500
vt 1.000000 0.550098
vt 0.937500 0.562500
vt 0.937500 0.437500
vt 0.937500 0.445251
vt 0.937500 0.555137
vt 1.000000 0.562500
vt 1.000000 0.437500
vt 0.937500 0.437500
vt 0.937500 0.562500
vt 1.000000 0.550098
vt 1.000000 0.437500
vt 1.000000 0.578777
vt 1.000000 0.670448
vt 0.937500 0.687500
vt 1.000000 0.577947
vt 1.000000 0.671998
vt 0.937500 0.687500
vt 1.000000 0.671223
vt 1.000000 0.571801
vt 0.937500 0.700727
vt 0.937500 0.806349
vt 1.000000 0.812500
vt 1.000000 0.687500
vt 1.000000 0.690600
vt 1.000000 0.805524
vt 0.937500 0.812500
vt 1.000000 0.804517
vt 1.000000 0.695398
vt 0.937500 0.812500
vt 1.000000 0.810950
vt 1.000000 0.696801
vt 1.000000 0.850149
vt 1.000000 0.905732
vt 0.937500 0.916583
vt 0.937500 0.834647
vt 1.000000 0.834647
vt 1.000000 0.916583
vt 0.937500 0.937500
vt 0.937500 0.831028
vt 0.937500 0.918861
vt 1.000000 0.910372
vt 1.000000 0.839628
vt 0.937500 0.937500
vt 1.000000 0.914247
vt 1.000000 0.843504
vt 0.937500 0.980249
vt 0.937500 0.750000
vt 1.000000 0.761753
vt 1.000000 0.987696
vt 0.937500 0.760076
vt 0.937500 1.000000
vt 1.000000 0.993799
vt 1.000000 0.750000
vt 0.937500 0.713324
vt 0.937500 0.661676
vt 1.000000 0.656250
vt 1.000000 0.718750
vt 0.937500 0.625000
vt 1.000000 0.635076
vt 1.000000 0.738374
vt 1.000000 0.736986
vt 1.000000 0.636464
vt 0.937500 0.647436
vt 0.937500 0.728138
vt 0.937500 0.739149
vt 0.937500 0.637402
vt 1.000000 0.625000
vt 1.000000 0.600648
vt 1.000000 0.524352
vt 0.937500 0.514343
vt 0.937500 0.610657
vt 0.937500 0.500000
vt 1.000000 0.511626
vt 1.000000 0.625000
vt 1.000000 0.615393
vt 1.000000 0.520071
vt 0.937500 0.533381
vt 0.937500 0.604469
vt 0.937500 0.625000
vt 0.937500 0.519377
vt 1.000000 0.500000
vt 1.000000 0.488136
vt 1.000000 0.386556
vt 0.937500 0.392093
vt 0.937500 0.482907
vt 0.937500 0.375000
vt 1.000000 0.375000
vt 1.000000 0.489149
vt 1.000000 0.476813
vt 1.000000 0.389606
vt 0.937500 0.386523
vt 0.937500 0.485376
vt 0.937500 0.492249
vt 0.937500 0.378875
vt 1.000000 0.375000
vt 1.000000 0.370708
vt 1.000000 0.277338
vt 0.937500 0.289554
vt 0.937500 0.358502
vt 0.937500 0.281375
vt 1.000000 0.250000
vt 0.937500 0.351463
vt 0.937500 0.273436
vt 1.000000 0.263216
vt 1.000000 0.361784
vt 0.937500 0.375000
vt 0.937500 0.250000
vt 1.000000 0.274803
vt 1.000000 0.232948
vt 1.000000 0.125000
vt 0.937500 0.225392
vt 0.937500 0.250000
vt 1.000000 0.250000
vt 0.937500 0.355886
vt 0.937500 0.269114
vt 1.000000 0.279150
vt 1.000000 0.345850
vt 0.937500 0.375000
vt 0.937500 0.250000
vt 1.000000 0.266277
vt 1.000000 0.375000
vt 1.000000 0.352207
vt 1.000000 0.282637
vt 0.937500 0.266494
vt 0.937500 0.358506
vt 1.000000 0.358335
vt 1.000000 0.266271
vt 0.937500 0.260365
vt 0.937500 0.364635
vt 0.937500 0.233595
vt 0.937500 0.141405
vt 1.000000 0.143536
vt 1.000000 0.231464
vt 0.937500 0.125000
vt 1.000000 0.149028
vt 1.000000 0.234498
vt 0.937500 0.232745
vt 0.937500 0.150917
vt 1.000000 0.143367
vt 1.000000 0.231633
vt 0.937500 0.227538
vt 0.937500 0.147462
vt 1.000000 0.130293
vt 1.000000 0.244707
vt 0.937500 0.125000
vt 1.000000 0.000000
vt 1.000000 0.125000
vt 1.000000 0.100972
vt 0.937500 0.000000
vt 0.937500 0.099162
vt 1.000000 0.125000
vt 1.000000 0.437500
vt 1.000000 0.550098
vt 0.937500 0.562500
vt 0.937500 0.437500
vt 0.937500 0.445251
vt 0.937500 0.555137
vt 1.000000 0.562500
vt 1.000000 0.437500
vt 0.937500 0.437500
vt 0.937500 0.562500
vt 1.000000 0.550098
vt 1.000000 0.437500
vt 1.000000 0.578777
vt 1.000000 0.670448
vt 0.937500 0.687500
vt 1.000000 0.577947
vt 1.000000 0.671998
vt 0.937500 0.687500
vt 1.000000 0.671223
vt 1.000000 0.571801
vt 0.937500 0.700727
vt 0.937500 0.806349
vt 1.000000 0.812500
vt 1.000000 0.687500
vt 1.000000 0.690600
vt 1.000000 0.805524
vt 0.937500 0.812500
vt 1.000000 0.804517
vt 1.000000 0.695398
vt 0.937500 0.812500
vt 1.000000 0.810950
vt 1.000000 0.696801
vt 1.000000 0.850149
vt 1.000000 0.905732
vt 0.937500 0.916583
vt 0.937500 0.834647
vt 1.000000 0.834647
vt 1.000000 0.916583
vt 0.937500 0.937500
vt 0.937500 0.831028
vt 0.937500 0.918861
vt 1.000000 0.910372
vt 1.000000 0.839628
vt 0.937500 0.937500
vt 1.000000 0.914247
vt 1.000000 0.843504
vt 0.937500 0.980249
vt 0.937500 0.750000
vt 1.000000 0.761753
vt 1.000000 0.987696
vt 0.937500 0.760076
vt 0.937500 1.000000
vt 1.000000 0.993799
vt 1.000000 0.750000
vt 0.937500 0.713324
vt 0.937500 0.661676
vt 1.000000 0.656250
vt 1.000000 0.718750
vt 0.937500 0.625000
vt 1.000000 0.635076
vt 1.000000 0.738374
vt 1.000000 0.736986
vt 1.000000 0.636464
vt 0.937500 0.647436
vt 0.937500 0.728138
vt 0.937500 0.739149
vt 0.937500 0.637402
vt 1.000000 0.625000
vt 1.000000 0.600648
vt 1.000000 0.524352
vt 0.937500 0.514343
vt 0.937500 0.610657
vt 0.937500 0.500000
vt 1.000000 0.511626
vt 1.000000 0.625000
vt 1.000000 0.615393
vt 1.000000 0.520071
vt 0.937500 0.533381
vt 0.937500 0.604469
vt 0.937500 0.625000
vt 0.937500 0.519377
vt 1.000000 0.500000
vt 1.000000 0.488136
vt 1.000000 0.386556
vt 0.937500 0.392093
vt 0.937500 0.482907
vt 1.000000 0.489149
vt 1.000000 0.476813
vt 1.000000 0.389606
vt 0.937500 0.386523
vt 0.937500 0.485376
vt 0.937500 0.492249
vt 0.937500 0.378875
vt 1.000000 0.375000
vt 0.937500 0.625000
vt 0.937500 0.812500
vt 0.750000 0.812500
vt 0.750000 0.625000
vt 0.937500 0.625000
vt 0.937500 0.812500
vt 0.750000 0.812500
vt 0.750000 0.625000
vt 0.937500 0.625000
vt 0.937500 0.812500
vt 0.750000 0.812500
vt 0.750000 0.625000
vt 0.937500 0.625000
vt 0.937500 0.812500
vt 0.750000 0.812500
vt 0.750000 0.625000
vt 0.937500 0.812500
vt 0.937500 1.000000
vt 0.750000 1.000000
vt 0.750000 0.812500
vt 0.937500 0.437500
vt 0.937500 0.625000
vt 0.750000 0.625000
vt 0.750000 0.437500
vt 0.937500 0.437500
vt 0.937500 0.625000
vt 0.750000 0.625000
vt 0.750000 0.437500
vt 0.937500 0.437500
vt 0.937500 0.625000
vt 0.750000 0.625000
vt 0.750000 0.437500
vt 0.937500 0.625000
vt 0.937500 0.812500
vt 0.750000 0.812500
vt 0.750000 0.625000
vt 0.937500 0.437500
vt 0.937500 0.625000
vt 0.750000 0.625000
vt 0.750000 0.437500
vt 0.937500 0.812500
vt 0.937500 1.000000
vt 0.750000 1.000000
vt 0.750000 0.812500
vt 0.937500 0.812500
vt 0.937500 1.000000
vt 0.750000 1.000000
vt 0.750000 0.812500
vt 0.937500 0.625000
vt 0.750000 0.625000
vt 0.750000 0.812500
vt 0.937500 0.812500
vt 0.937500 0.625000
vt 0.750000 0.625000
vt 0.750000 0.812500
vt 0.937500 0.812500
vt 0.937500 0.625000
vt 0.750000 0.625000
vt 0.750000 0.812500
vt 0.937500 0.812500
vt 0.937500 0.625000
vt 0.750000 0.625000
vt 0.750000 0.812500
vt 0.937500 0.812500
vt 0.937500 0.812500
vt 0.750000 0.812500
vt 0.750000 1.000000
vt 0.937500 1.000000
vt 0.937500 0.437500
vt 0.750000 0.437500
vt 0.750000 0.625000
vt 0.937500 0.625000
vt 0.937500 0.437500
vt 0.750000 0.437500
vt 0.750000 0.625000
vt 0.937500 0.625000
vt 0.937500 0.437500
vt 0.750000 0.437500
vt 0.750000 0.625000
vt 0.937500 0.625000
vt 0.937500 0.625000
vt 0.750000 0.625000
vt 0.750000 0.812500
vt 0.937500 0.812500
vt 0.937500 0.437500
vt 0.750000 0.437500
vt 0.750000 0.625000
vt 0.937500 0.625000
vt 0.937500 0.812500
vt 0.750000 0.812500
vt 0.750000 1.000000
vt 0.937500 1.000000
vt 0.937500 0.812500
vt 0.750000 0.812500
vt 0.750000 1.000000
vt 0.937500 1.000000
vn 0.9997 0.0191 0.0118
vn -0.0206 0.6558 0.7547
vn -1.0000 -0.0007 -0.0027
vn 0.8805 -0.2520 0.4015
vn 0.0392 0.8853 0.4634
vn -0.8908 0.2583 -0.3737
vn -0.1878 -0.9608 -0.2040
vn 0.5552 -0.2873 0.7806
vn 0.1768 0.9584 0.2241
vn -0.5336 0.2866 -0.7957
vn -0.2998 -0.8952 0.3297
vn 0.9741 -0.2090 0.0866
vn 0.2866 0.9013 -0.3248
vn -0.9722 0.2081 -0.1073
vn 0.9879 -0.0327 0.1515
vn 0.0969 0.5867 -0.8040
vn -0.0980 -0.5891 0.8021
vn -0.9882 0.0377 -0.1486
vn -0.0978 -0.8928 0.4396
vn 0.9944 -0.0976 0.0411
vn 0.0978 0.8924 -0.4406
vn -0.9945 0.0968 -0.0411
vn -0.1097 -0.9340 0.3399
vn 0.6899 -0.3005 -0.6586
vn 0.1061 0.9325 -0.3451
vn -0.6851 0.3000 0.6638
vn -0.4212 -0.9066 0.0254
vn 0.4955 -0.2583 -0.8293
vn 0.4193 0.9074 -0.0279
vn -0.4931 0.2563 0.8314
vn -0.4191 -0.9077 0.0231
vn 0.8986 -0.4089 -0.1593
vn 0.4182 0.9080 -0.0255
vn -0.8971 0.4113 0.1617
vn -0.3046 -0.7543 0.5816
vn 0.8765 -0.4265 -0.2232
vn 0.1062 0.3803 -0.9187
vn -0.9433 0.1683 -0.2862
vn 0.4167 0.9086 0.0285
vn -0.8961 0.4134 -0.1617
vn -0.4165 -0.9087 -0.0261
vn 0.8959 -0.4149 0.1589
vn 0.2810 0.7591 -0.5872
vn -0.8317 0.4888 0.2634
vn -0.2825 -0.7601 0.5851
vn 0.8320 -0.4890 -0.2620
vn -0.3563 -0.1419 -0.9235
vn -0.9850 0.1340 0.1089
vn 0.1288 -0.2585 0.9574
vn 0.7785 -0.5420 -0.3165
vn -0.9997 -0.0191 0.0118
vn 0.0206 -0.6558 0.7547
vn 1.0000 0.0007 -0.0027
vn -0.8805 0.2520 0.4015
vn -0.0392 -0.8853 0.4634
vn 0.8908 -0.2583 -0.3737
vn 0.1878 0.9608 -0.2040
vn -0.5552 0.2873 0.7806
vn -0.1768 -0.9584 0.2241
vn 0.5336 -0.2866 -0.7957
vn 0.2998 0.8952 0.3297
vn -0.9741 0.2090 0.0866
vn -0.2866 -0.9013 -0.3248
vn 0.9722 -0.2081 -0.1073
vn -0.9879 0.0327 0.1515
vn -0.0969 -0.5867 -0.8040
vn 0.0980 0.5891 0.8021
vn 0.9882 -0.0377 -0.1486
vn 0.0978 0.8928 0.4396
vn -0.9944 0.0976 0.0411
vn -0.0978 -0.8924 -0.4406
vn 0.9945 -0.0968 -0.0411
vn 0.1097 0.9340 0.3399
vn -0.6899 0.3005 -0.6586
vn -0.1061 -0.9325 -0.3451
vn 0.6851 -0.3000 0.6638
vn 0.4217 0.9064 0.0258
vn -0.4955 0.2583 -0.8293
vn -0.4194 -0.9074 -0.0280
vn 0.4931 -0.2563 0.8314
vn 0.6343 -0.4649 0.6177
vn -0.0022 0.7811 0.6244
vn -0.6699 -0.3497 0.6549
vn -0.4609 0.6748 0.5765
vn 0.0015 0.3024 0.9532
vn 0.1437 -0.4939 0.8575
vn 0.3749 -0.0413 0.9262
vn -0.4215 0.5239 0.7402
vn -0.1625 0.6919 0.7035
vn -0.3063 -0.6995 0.6457
vn -0.1472 0.0410 0.9883
vn 0.3862 -0.3451 0.8554
vn -0.6343 0.4649 -0.6177
vn 0.0022 -0.7811 -0.6244
vn 0.6699 0.3497 -0.6549
vn 0.4609 -0.6748 -0.5765
vn -0.0015 -0.3024 -0.9532
vn -0.1437 0.4939 -0.8575
vn -0.3749 0.0413 -0.9262
vn 0.4215 -0.5239 -0.7402
vn 0.1625 -0.6919 -0.7035
vn 0.3063 0.6995 -0.6457
vn 0.1472 -0.0410 -0.9883
vn -0.3862 0.3451 -0.8554
usemtl SEXYSPELLS_EARTH
s off
f 4/1/1 7/2/1 8/3/1 3/4/1
f 3/5/2 8/6/2 5/7/2 1/8/2
f 1/9/3 5/10/3 6/11/3 2/12/3
f 7/13/4 9/14/4 12/15/4 8/3/4
f 8/16/5 12/17/5 13/18/5 5/10/5
f 5/10/6 13/18/6 10/19/6 6/20/6
f 10/21/7 11/22/7 15/23/7 9/24/7
f 9/25/8 15/26/8 14/27/8 12/15/8
f 12/15/9 14/27/9 17/28/9 13/29/9
f 13/18/10 17/30/10 11/31/10 10/32/10
f 11/33/11 18/34/11 16/35/11 15/36/11
f 15/37/12 16/38/12 19/39/12 14/27/12
f 14/40/13 19/41/13 20/42/13 17/43/13
f 17/30/14 20/44/14 18/45/14 11/46/14
f 16/47/15 21/48/15 22/49/15 19/50/15
f 19/50/16 22/49/16 23/51/16 20/52/16
f 18/53/17 24/54/17 21/48/17 16/47/17
f 20/52/18 23/51/18 24/54/18 18/53/18
f 24/55/19 26/56/19 27/57/19 21/58/19
f 21/48/20 27/59/20 28/60/20 22/61/20
f 22/62/21 28/63/21 25/64/21 23/65/21
f 23/66/22 25/67/22 26/68/22 24/54/22
f 26/69/23 29/70/23 31/71/23 27/72/23
f 27/59/24 31/73/24 32/74/24 28/75/24
f 28/76/25 32/77/25 30/78/25 25/79/25
f 25/80/26 30/81/26 29/82/26 26/68/26
f 29/83/27 34/84/27 35/85/27 31/86/27
f 31/73/28 35/87/28 36/88/28 32/89/28
f 32/90/29 36/91/29 33/92/29 30/93/29
f 30/94/30 33/95/30 34/96/30 29/82/30
f 34/97/31 38/98/31 39/99/31 35/100/31
f 35/87/32 39/101/32 40/102/32 36/88/32
f 36/103/33 40/104/33 37/105/33 33/106/33
f 33/107/34 37/108/34 38/109/34 34/96/34
f 38/110/35 41/111/35 39/112/35
f 39/112/36 41/111/36 40/102/36
f 40/113/37 41/111/37 37/114/37
f 37/108/38 41/111/38 38/110/38
f 43/115/39 46/116/39 47/117/39 44/118/39
f 44/119/40 47/120/40 48/121/40 86/122/40
f 86/123/41 48/124/41 45/125/41 42/126/41
f 42/127/42 45/128/42 46/129/42 43/130/42
f 46/131/43 50/132/43 51/133/43 47/134/43
f 47/120/44 51/135/44 52/136/44 48/137/44
f 48/138/45 52/139/45 49/140/45 45/141/45
f 45/142/46 49/143/46 50/144/46 46/145/46
f 50/146/47 53/147/47 51/148/47
f 51/135/48 53/147/48 52/149/48
f 52/149/49 53/150/49 49/151/49
f 49/151/50 53/147/50 50/152/50
f 57/153/51 60/154/51 61/155/51 56/156/51
f 56/157/52 61/158/52 58/159/52 54/160/52
f 54/161/53 58/162/53 59/163/53 55/164/53
f 60/165/54 62/166/54 65/167/54 61/155/54
f 61/168/55 65/169/55 66/170/55 58/162/55
f 58/162/56 66/170/56 63/171/56 59/172/56
f 63/173/57 64/174/57 68/175/57 62/176/57
f 62/177/58 68/178/58 67/179/58 65/167/58
f 65/167/59 67/179/59 70/180/59 66/181/59
f 66/170/60 70/182/60 64/183/60 63/184/60
f 64/185/61 71/186/61 69/187/61 68/188/61
f 68/189/62 69/190/62 72/191/62 67/179/62
f 67/192/63 72/193/63 73/194/63 70/195/63
f 70/182/64 73/196/64 71/197/64 64/198/64
f 69/199/65 74/200/65 75/201/65 72/202/65
f 72/202/66 75/201/66 76/203/66 73/204/66
f 71/205/67 77/206/67 74/200/67 69/199/67
f 73/204/68 76/203/68 77/206/68 71/205/68
f 77/207/69 79/208/69 80/209/69 74/210/69
f 74/200/70 80/211/70 81/212/70 75/213/70
f 75/214/71 81/215/71 78/216/71 76/217/71
f 76/218/72 78/219/72 79/220/72 77/206/72
f 79/221/73 82/222/73 84/223/73 80/224/73
f 80/211/74 84/225/74 85/226/74 81/227/74
f 81/228/75 85/229/75 83/230/75 78/231/75
f 78/232/76 83/233/76 82/234/76 79/220/76
f 82/235/77 43/236/77 44/237/77 84/238/77
f 84/225/78 44/119/78 86/122/78 85/239/78
f 85/240/79 86/241/79 42/242/79 83/243/79
f 83/244/80 42/245/80 43/246/80 82/234/80
f 87/247/81 89/248/81 90/249/81 88/250/81
f 91/251/82 93/252/82 94/253/82 92/254/82
f 95/255/83 97/256/83 98/257/83 96/258/83
f 99/259/84 101/260/84 102/261/84 100/262/84
f 103/263/85 105/264/85 106/265/85 104/266/85
f 107/267/86 109/268/86 110/269/86 108/270/86
f 111/271/87 113/272/87 114/273/87 112/274/87
f 115/275/88 117/276/88 118/277/88 116/278/88
f 119/279/89 121/280/89 122/281/89 120/282/89
f 123/283/90 125/284/90 126/285/90 124/286/90
f 127/287/91 129/288/91 130/289/91 128/290/91
f 131/291/92 133/292/92 134/293/92 132/294/92
f 135/295/93 136/296/93 138/297/93 137/298/93
f 139/299/94 140/300/94 142/301/94 141/302/94
f 143/303/95 144/304/95 146/305/95 145/306/95
f 147/307/96 148/308/96 150/309/96 149/310/96
f 151/311/97 152/312/97 154/313/97 153/314/97
f 155/315/98 156/316/98 158/317/98 157/318/98
f 159/319/99 160/320/99 162/321/99 161/322/99
f 163/323/100 164/324/100 166/325/100 165/326/100
f 167/327/101 168/328/101 170/329/101 169/330/101
f 171/331/102 172/332/102 174/333/102 173/334/102
f 175/335/103 176/336/103 178/337/103 177/338/103
f 179/339/104 180/340/104 182/341/104 181/342/104
