# Blender v2.80 (sub 75) OBJ File: 'construct_arch.blend'
# www.blender.org
mtllib wedge.mtl
o ARCH.001_Cube.008
v -0.346455 0.143506 0.062500
v 0.000000 0.000000 -0.062500
v -0.346455 0.143506 -0.062500
v 0.000000 0.000000 0.062500
v -0.346455 -0.143506 -0.062500
v -0.346455 -0.143506 0.062500
v -0.404197 0.167424 -0.125000
v 0.000000 0.000000 -0.125000
v -0.404197 -0.167424 -0.125000
v -0.473547 -0.000000 -0.125000
v 0.000000 0.000000 0.125000
v -0.404197 -0.167424 0.125000
v -0.404197 0.167424 0.125000
v -0.473547 -0.000000 0.125000
vt 0.750000 0.375000
vt 0.781250 0.375000
vt 0.781250 0.156250
vt 0.750000 0.187500
vt 0.750000 0.187500
vt 0.781250 0.156250
vt 0.781250 0.375000
vt 0.750000 0.375000
vt 0.781250 0.468750
vt 0.875000 0.250000
vt 0.781250 0.250000
vt 0.781250 0.250000
vt 0.750000 0.187500
vt 0.781250 0.156250
vt 0.750000 0.093750
vt 0.781250 0.062500
vt 0.781250 0.187500
vt 0.750000 0.156250
vt 0.781250 0.468750
vt 0.781250 0.250000
vt 0.875000 0.250000
vt 0.781250 0.250000
vt 0.781250 0.156250
vt 0.750000 0.187500
vt 0.781250 0.062500
vt 0.781250 0.187500
vt 0.875000 0.187500
vt 0.875000 0.062500
vt 0.750000 0.156250
vt 0.750000 0.093750
vt 0.875000 0.062500
vt 0.875000 0.250000
vt 0.812500 0.250000
vt 0.812500 0.062500
vt 0.812500 0.250000
vt 0.875000 0.250000
vn 0.3827 0.9239 0.0000
vn 0.0000 0.0000 -1.0000
vn 0.3827 -0.9239 0.0000
vn -0.0000 -0.0000 1.0000
vn -0.9239 0.3827 0.0000
vn -0.9239 -0.3827 0.0000
usemtl MAIN
s off
f 2/1/1 8/2/1 7/3/1 3/4/1
f 1/5/1 13/6/1 11/7/1 4/8/1
f 8/9/2 10/10/2 7/11/2
f 8/9/2 9/12/2 10/10/2
f 5/13/3 9/14/3 8/2/3 2/1/3
f 6/15/3 12/16/3 9/17/3 5/18/3
f 11/19/4 13/20/4 14/21/4
f 14/21/4 12/22/4 11/19/4
f 4/8/3 11/7/3 12/23/3 6/24/3
f 13/25/5 7/26/5 10/27/5 14/28/5
f 3/29/1 7/26/1 13/25/1 1/30/1
f 12/16/6 14/28/6 10/27/6 9/17/6
f 2/31/1 3/32/1 1/33/1 4/34/1
f 6/35/3 5/36/3 2/31/3 4/34/3
