# Blender v2.80 (sub 75) OBJ File: 'runesmithing_tools.blend'
# www.blender.org
mtllib runesmithing_hammer.mtl
o HAMMER_Cube.002
v 0.656250 0.687500 0.593750
v 0.656250 0.875000 0.593750
v 0.343750 0.687500 0.593750
v 0.343750 0.875000 0.593750
v 0.656250 0.687500 0.406250
v 0.656250 0.875000 0.406250
v 0.343750 0.687500 0.406250
v 0.343750 0.875000 0.406250
v 0.531250 0.062500 0.531250
v 0.531250 0.125000 0.531250
v 0.468750 0.062500 0.531250
v 0.468750 0.125000 0.531250
v 0.531250 0.062500 0.468750
v 0.531250 0.125000 0.468750
v 0.468750 0.062500 0.468750
v 0.468750 0.125000 0.468750
v 0.562500 0.125000 0.562500
v 0.562500 0.187500 0.562500
v 0.437500 0.125000 0.562500
v 0.437500 0.187500 0.562500
v 0.562500 0.125000 0.437500
v 0.562500 0.187500 0.437500
v 0.437500 0.125000 0.437500
v 0.437500 0.187500 0.437500
v 0.500000 0.000000 0.500000
v 0.453125 0.500000 0.546875
v 0.453125 0.250000 0.546875
v 0.546875 0.500000 0.546875
v 0.546875 0.250000 0.546875
v 0.562500 0.562500 0.562500
v 0.562500 0.625000 0.562500
v 0.437500 0.562500 0.562500
v 0.437500 0.625000 0.562500
v 0.562500 0.562500 0.437500
v 0.562500 0.625000 0.437500
v 0.437500 0.562500 0.437500
v 0.437500 0.625000 0.437500
v 0.531250 0.625000 0.531250
v 0.531250 0.687500 0.531250
v 0.468750 0.625000 0.531250
v 0.468750 0.687500 0.531250
v 0.531250 0.625000 0.468750
v 0.531250 0.687500 0.468750
v 0.468750 0.625000 0.468750
v 0.468750 0.687500 0.468750
v 0.546875 0.250000 0.453125
v 0.546875 0.500000 0.453125
v 0.453125 0.250000 0.453125
v 0.453125 0.500000 0.453125
v 0.468750 0.250000 0.531250
v 0.468750 0.187500 0.531250
v 0.531250 0.250000 0.531250
v 0.531250 0.187500 0.531250
v 0.531250 0.187500 0.468750
v 0.531250 0.250000 0.468750
v 0.468750 0.187500 0.468750
v 0.468750 0.250000 0.468750
v 0.468750 0.562500 0.531250
v 0.468750 0.500000 0.531250
v 0.531250 0.562500 0.531250
v 0.531250 0.500000 0.531250
v 0.531250 0.500000 0.468750
v 0.531250 0.562500 0.468750
v 0.468750 0.500000 0.468750
v 0.468750 0.562500 0.468750
vt 0.500000 0.187500
vt 0.500000 0.375000
vt 0.812500 0.375000
vt 0.812500 0.187500
vt 1.000000 0.187500
vt 1.000000 0.375000
vt 0.812500 0.375000
vt 0.812500 0.187500
vt 0.500000 0.375000
vt 0.500000 0.187500
vt 1.000000 0.000000
vt 1.000000 0.187500
vt 0.812500 0.187500
vt 0.812500 0.000000
vt 0.812500 0.000000
vt 0.500000 0.000000
vt 0.812500 0.562500
vt 0.500000 0.562500
vt 0.125000 0.562500
vt 0.125000 0.625000
vt 0.062500 0.625000
vt 0.062500 0.562500
vt -0.000000 0.625000
vt -0.000000 0.562500
vt 0.125000 0.562500
vt 0.125000 0.625000
vt 0.062500 0.625000
vt 0.062500 0.562500
vt -0.000000 0.625000
vt -0.000000 0.562500
vt 0.062500 0.500000
vt 0.250000 0.000000
vt 0.250000 0.062500
vt 0.125000 0.062500
vt 0.125000 0.000000
vt 0.250000 0.062500
vt 0.250000 0.000000
vt 0.375000 0.062500
vt 0.375000 0.000000
vt 0.125000 0.062500
vt 0.125000 0.187500
vt 0.250000 0.187500
vt 0.250000 0.062500
vt 0.250000 0.187500
vt 0.250000 0.062500
vt 0.375000 0.062500
vt 0.375000 0.187500
vt 0.125000 0.500000
vt 0.062500 0.000000
vt 0.062500 0.250000
vt 0.125000 0.250000
vt 0.125000 0.000000
vt 0.250000 0.187500
vt 0.250000 0.250000
vt 0.125000 0.250000
vt 0.125000 0.187500
vt 0.250000 0.250000
vt 0.250000 0.187500
vt 0.375000 0.250000
vt 0.375000 0.187500
vt 0.125000 0.062500
vt 0.125000 0.187500
vt 0.250000 0.187500
vt 0.250000 0.062500
vt 0.250000 0.187500
vt 0.250000 0.062500
vt 0.375000 0.062500
vt 0.375000 0.187500
vt 0.125000 0.437500
vt 0.125000 0.500000
vt 0.062500 0.500000
vt 0.062500 0.437500
vt 0.000000 0.500000
vt 0.000000 0.437500
vt 0.125000 0.437500
vt 0.125000 0.500000
vt 0.062500 0.500000
vt 0.062500 0.437500
vt 0.000000 0.500000
vt 0.000000 0.437500
vt 0.000000 0.000000
vt 0.000000 0.250000
vt 0.062500 0.250000
vt 0.062500 0.000000
vt 0.125000 0.250000
vt 0.125000 0.000000
vt 0.000000 0.000000
vt 0.000000 0.250000
vt 0.062500 0.250000
vt 0.125000 0.250000
vt 0.125000 0.312500
vt 0.062500 0.312500
vt 0.000000 0.250000
vt 0.062500 0.250000
vt 0.062500 0.312500
vt 0.000000 0.312500
vt 0.062500 0.312500
vt 0.062500 0.375000
vt 0.125000 0.375000
vt 0.125000 0.312500
vt 0.000000 0.312500
vt 0.000000 0.375000
vt 0.062500 0.375000
vt 0.062500 0.312500
vt 0.125000 0.375000
vt 0.125000 0.312500
vt 0.000000 0.312500
vt 0.000000 0.375000
vt 0.000000 0.375000
vt 0.000000 0.437500
vt 0.062500 0.437500
vt 0.062500 0.375000
vt 0.062500 0.375000
vt 0.062500 0.437500
vt 0.125000 0.437500
vt 0.125000 0.375000
vt 0.125000 0.437500
vt 0.125000 0.375000
vt 0.000000 0.375000
vt 0.000000 0.437500
vn 0.0000 0.0000 1.0000
vn -1.0000 0.0000 0.0000
vn 0.0000 0.0000 -1.0000
vn 1.0000 0.0000 0.0000
vn 0.0000 -1.0000 0.0000
vn 0.0000 1.0000 0.0000
vn -0.8944 -0.4472 0.0000
vn 0.0000 -0.4472 0.8944
vn 0.0000 -0.4472 -0.8944
vn 0.8944 -0.4472 0.0000
usemtl MAIN
s off
f 1/1/1 2/2/1 4/3/1 3/4/1
f 3/5/2 4/6/2 8/7/2 7/8/2
f 7/8/3 8/7/3 6/9/3 5/10/3
f 5/11/4 6/12/4 2/13/4 1/14/4
f 3/15/5 7/8/5 5/10/5 1/16/5
f 8/7/6 4/17/6 2/18/6 6/9/6
f 9/19/1 10/20/1 12/21/1 11/22/1
f 11/22/2 12/21/2 16/23/2 15/24/2
f 15/25/3 16/26/3 14/27/3 13/28/3
f 13/28/4 14/27/4 10/29/4 9/30/4
f 11/22/7 15/24/7 25/31/7
f 17/32/1 18/33/1 20/34/1 19/35/1
f 19/35/2 20/34/2 24/36/2 23/37/2
f 23/37/3 24/36/3 22/38/3 21/39/3
f 21/39/4 22/38/4 18/33/4 17/32/4
f 19/40/5 23/41/5 21/42/5 17/43/5
f 24/44/6 20/45/6 18/46/6 22/47/6
f 9/19/8 11/22/8 25/48/8
f 15/25/9 13/28/9 25/48/9
f 13/28/10 9/30/10 25/31/10
f 29/49/1 28/50/1 26/51/1 27/52/1
f 30/53/1 31/54/1 33/55/1 32/56/1
f 32/56/2 33/55/2 37/57/2 36/58/2
f 36/58/3 37/57/3 35/59/3 34/60/3
f 34/60/4 35/59/4 31/54/4 30/53/4
f 32/61/5 36/62/5 34/63/5 30/64/5
f 37/65/6 33/66/6 31/67/6 35/68/6
f 38/69/1 39/70/1 41/71/1 40/72/1
f 40/72/2 41/71/2 45/73/2 44/74/2
f 44/75/3 45/76/3 43/77/3 42/78/3
f 42/78/4 43/77/4 39/79/4 38/80/4
f 27/81/2 26/82/2 49/83/2 48/84/2
f 48/84/3 49/83/3 47/85/3 46/86/3
f 46/87/4 47/88/4 28/50/4 29/49/4
f 27/89/5 48/90/5 46/91/5 29/92/5
f 49/93/6 26/94/6 28/95/6 47/96/6
f 53/97/1 52/98/1 50/99/1 51/100/1
f 51/101/2 50/102/2 57/103/2 56/104/2
f 56/104/3 57/103/3 55/105/3 54/106/3
f 54/107/4 55/108/4 52/98/4 53/97/4
f 59/109/2 58/110/2 65/111/2 64/112/2
f 61/113/1 60/114/1 58/115/1 59/116/1
f 64/112/3 65/111/3 63/117/3 62/118/3
f 62/119/4 63/120/4 60/114/4 61/113/4
