# Blender v2.80 (sub 75) OBJ File: 'constructs.blend'
# www.blender.org
mtllib arm_blaster_l.mtl
o ARM_LEFT_DECO_DIAMOND_Cube.361
v -0.750000 0.937500 0.093750
v -0.750000 1.312500 0.093750
v -0.750000 0.937500 0.218750
v -0.750000 1.312500 0.218750
v -0.625000 0.937500 0.093750
v -0.625000 1.312500 0.093750
v -0.625000 0.937500 0.218750
v -0.625000 1.312500 0.218750
v -0.687500 0.875000 0.156250
v -0.687500 1.375000 0.156250
v -0.750000 1.000000 -0.093750
v -0.750000 1.375000 -0.093750
v -0.750000 1.000000 -0.218750
v -0.750000 1.375000 -0.218750
v -0.625000 1.375000 -0.093750
v -0.625000 1.000000 -0.218750
v -0.625000 1.375000 -0.218750
v -0.687500 0.937500 -0.156250
v -0.687500 1.437500 -0.156250
v -0.812500 1.125000 -0.031250
v -0.812500 1.250000 -0.031250
v -0.812500 1.125000 -0.156250
v -0.812500 1.250000 -0.156250
v -0.687500 1.125000 -0.031250
v -0.687500 1.250000 -0.031250
v -0.687500 1.125000 -0.156250
v -0.687500 1.250000 -0.156250
v -0.750000 1.062500 -0.093750
v -0.750000 1.312500 -0.093750
v -0.812500 1.062500 0.031250
v -0.812500 1.187500 0.031250
v -0.812500 1.062500 0.156250
v -0.812500 1.187500 0.156250
v -0.687500 1.062500 0.031250
v -0.687500 1.187500 0.031250
v -0.687500 1.062500 0.156250
v -0.687500 1.187500 0.156250
v -0.750000 1.000000 0.093750
v -0.750000 1.250000 0.093750
v -0.687500 1.062500 0.156250
v -0.687500 1.187500 0.156250
v -0.687500 1.062500 0.281250
v -0.687500 1.187500 0.281250
v -0.562500 1.062500 0.156250
v -0.562500 1.187500 0.156250
v -0.562500 1.062500 0.281250
v -0.562500 1.187500 0.281250
v -0.625000 1.000000 0.218750
v -0.625000 1.250000 0.218750
v -0.687500 0.875000 -0.031250
v -0.687500 1.000000 -0.031250
v -0.687500 0.875000 -0.156250
v -0.687500 1.000000 -0.156250
v -0.562500 0.875000 -0.031250
v -0.562500 1.000000 -0.031250
v -0.562500 0.875000 -0.156250
v -0.562500 1.000000 -0.156250
v -0.625000 0.812500 -0.093750
v -0.625000 1.062500 -0.093750
v -0.687500 0.812500 0.031250
v -0.687500 1.000000 0.031250
v -0.687500 0.812500 0.156250
v -0.687500 1.000000 0.156250
v -0.562500 0.812500 0.031250
v -0.562500 1.000000 0.031250
v -0.562500 0.812500 0.156250
v -0.562500 1.000000 0.156250
v -0.625000 0.750000 0.093750
v -0.625000 1.062500 0.093750
v -0.687500 1.125000 -0.156250
v -0.687500 1.250000 -0.156250
v -0.687500 1.125000 -0.281250
v -0.687500 1.250000 -0.281250
v -0.562500 1.125000 -0.156250
v -0.562500 1.250000 -0.156250
v -0.562500 1.125000 -0.281250
v -0.562500 1.250000 -0.281250
v -0.625000 1.062500 -0.218750
v -0.625000 1.312500 -0.218750
v -0.687500 0.937500 0.093750
v -0.687500 1.312500 0.093750
v -0.625000 1.000000 -0.156259
v -0.625000 1.375000 -0.156259
v -0.687500 1.000000 -0.093750
v -0.687500 1.375000 -0.093750
v -0.750000 1.312500 -0.093750
v -0.750000 1.312500 -0.218750
v -0.625000 1.312500 -0.218750
v -0.625000 1.312500 -0.093750
v -0.625000 1.312500 -0.156259
v -0.687500 1.312500 -0.093750
v -0.562500 0.812500 0.093750
v -0.562500 1.000000 0.093750
v -0.687500 0.937500 0.031250
v -0.687500 0.937500 0.156250
v -0.562500 0.937500 0.156250
v -0.562500 0.937500 0.031250
v -0.562500 0.937500 0.093750
vt 0.093750 0.906250
vt 0.062500 0.906250
vt 0.062500 1.000000
vt 0.093750 1.000000
vt 0.031250 0.906250
vt 0.031250 1.000000
vt 0.156250 0.906250
vt 0.125000 0.906250
vt 0.125000 1.000000
vt 0.156250 1.000000
vt 0.109375 0.906250
vt 0.109375 1.000000
vt 0.000000 0.906250
vt 0.015625 0.921875
vt 0.031250 0.906250
vt 0.187500 0.906250
vt 0.171875 0.921875
vt 0.187500 0.937500
vt 0.156250 0.937500
vt 0.156250 0.921875
vt 0.156250 0.906250
vt 0.031250 0.937500
vt 0.015625 0.937500
vt 0.000000 0.937500
vt 0.093750 0.984375
vt 0.093750 1.000000
vt 0.062500 1.000000
vt 0.062500 0.984375
vt 0.031250 1.000000
vt 0.031250 0.984375
vt 0.140625 0.984375
vt 0.140625 1.000000
vt 0.125000 1.000000
vt 0.125000 0.984375
vt 0.109375 0.984375
vt 0.109375 1.000000
vt 0.000000 0.906250
vt 0.031250 0.906250
vt 0.015625 0.921875
vt 0.187500 0.906250
vt 0.187500 0.937500
vt 0.171875 0.921875
vt 0.031250 0.937500
vt 0.015625 0.937500
vt 0.156250 0.921875
vt 0.156250 0.906250
vt 0.000000 0.937500
vt 0.000000 0.921875
vt 0.093750 0.765625
vt 0.093750 0.796875
vt 0.062500 0.796875
vt 0.062500 0.765625
vt 0.031250 0.796875
vt 0.031250 0.765625
vt 0.156250 0.765625
vt 0.156250 0.796875
vt 0.125000 0.796875
vt 0.125000 0.765625
vt -0.000000 0.765625
vt 0.031250 0.765625
vt 0.015625 0.781250
vt 0.187500 0.765625
vt 0.187500 0.796875
vt 0.171875 0.781250
vt 0.156250 0.796875
vt 0.156250 0.765625
vt 0.031250 0.796875
vt -0.000000 0.796875
vt 0.093750 0.765625
vt 0.062500 0.765625
vt 0.062500 0.796875
vt 0.093750 0.796875
vt 0.031250 0.765625
vt 0.031250 0.796875
vt 0.156250 0.765625
vt 0.125000 0.765625
vt 0.125000 0.796875
vt 0.156250 0.796875
vt -0.000000 0.765625
vt 0.015625 0.781250
vt 0.031250 0.765625
vt 0.187500 0.765625
vt 0.171875 0.781250
vt 0.187500 0.796875
vt 0.156250 0.796875
vt 0.156250 0.765625
vt 0.031250 0.796875
vt -0.000000 0.796875
vt 0.093750 0.765625
vt 0.062500 0.765625
vt 0.062500 0.796875
vt 0.093750 0.796875
vt 0.031250 0.765625
vt 0.031250 0.796875
vt 0.156250 0.765625
vt 0.125000 0.765625
vt 0.125000 0.796875
vt 0.156250 0.796875
vt -0.000000 0.765625
vt 0.015625 0.781250
vt 0.031250 0.765625
vt 0.187500 0.765625
vt 0.171875 0.781250
vt 0.187500 0.796875
vt 0.156250 0.796875
vt 0.156250 0.765625
vt 0.031250 0.796875
vt -0.000000 0.796875
vt 0.093750 0.765625
vt 0.093750 0.796875
vt 0.062500 0.796875
vt 0.062500 0.765625
vt 0.031250 0.796875
vt 0.031250 0.765625
vt 0.156250 0.765625
vt 0.156250 0.796875
vt 0.125000 0.796875
vt 0.125000 0.765625
vt -0.000000 0.765625
vt 0.031250 0.765625
vt 0.015625 0.781250
vt 0.187500 0.765625
vt 0.187500 0.796875
vt 0.171875 0.781250
vt 0.156250 0.796875
vt 0.156250 0.765625
vt 0.031250 0.796875
vt -0.000000 0.796875
vt 0.093750 0.828125
vt 0.062500 0.828125
vt 0.062500 0.843750
vt 0.093750 0.843750
vt 0.031250 0.828125
vt 0.031250 0.843750
vt 0.140625 0.828125
vt 0.125000 0.828125
vt 0.125000 0.843750
vt 0.140625 0.843750
vt 0.000000 0.796875
vt 0.015625 0.812500
vt 0.031250 0.796875
vt 0.187500 0.796875
vt 0.171875 0.812500
vt 0.187500 0.828125
vt 0.171875 0.828125
vt 0.156250 0.828125
vt 0.156250 0.796875
vt 0.031250 0.828125
vt 0.000000 0.828125
vt 0.000000 0.812500
vt 0.093750 0.765625
vt 0.093750 0.796875
vt 0.062500 0.796875
vt 0.062500 0.765625
vt 0.031250 0.796875
vt 0.031250 0.765625
vt 0.156250 0.765625
vt 0.156250 0.796875
vt 0.125000 0.796875
vt 0.125000 0.765625
vt -0.000000 0.765625
vt 0.031250 0.765625
vt 0.015625 0.781250
vt 0.187500 0.765625
vt 0.187500 0.796875
vt 0.171875 0.781250
vt 0.156250 0.796875
vt 0.156250 0.765625
vt 0.031250 0.796875
vt -0.000000 0.796875
vt 0.156250 0.984375
vt 0.156250 1.000000
vt 0.156250 0.906250
vt 0.140626 0.906250
vt 0.109375 0.906250
vt 0.093750 0.906250
vt 0.171875 0.937500
vt 0.062500 0.906250
vt 0.031250 0.906250
vt 0.156250 0.828125
vt 0.156250 0.843750
vt 0.125000 0.796875
vt 0.093750 0.796875
vt 0.062500 0.796875
vt 0.031250 0.796875
vt 0.156250 0.796875
vt 0.140625 0.796875
vn -1.0000 0.0000 0.0000
vn 0.0000 0.0000 1.0000
vn 1.0000 0.0000 0.0000
vn 0.0000 0.0000 -1.0000
vn 0.0000 0.7071 0.7071
vn 0.0000 -0.7071 0.7071
vn 0.7071 -0.7071 0.0000
vn 0.0000 -0.7071 -0.7071
vn -0.7071 -0.7071 0.0000
vn -0.7071 0.7071 0.0000
vn 0.0000 0.7071 -0.7071
vn 0.7071 0.7071 0.0000
usemtl MAIN
s off
f 1/1/1 3/2/1 4/3/1 2/4/1
f 3/2/2 7/5/2 8/6/2 4/3/2
f 7/7/3 5/8/3 6/9/3 8/10/3
f 80/11/4 1/1/4 2/4/4 81/12/4
f 8/13/5 10/14/5 4/15/5
f 3/16/6 9/17/6 7/18/6
f 7/18/7 9/17/7 5/19/7
f 80/20/8 9/17/8 1/21/8
f 1/21/9 9/17/9 3/16/9
f 4/15/10 10/14/10 2/22/10
f 81/23/11 10/14/11 6/24/11
f 6/24/12 10/14/12 8/13/12
f 86/25/1 12/26/1 14/27/1 87/28/1
f 87/28/4 14/27/4 17/29/4 88/30/4
f 90/31/3 83/32/3 15/33/3 89/34/3
f 91/35/2 85/36/2 12/26/2 86/25/2
f 17/37/11 14/38/11 19/39/11
f 13/40/8 16/41/8 18/42/8
f 12/43/5 85/44/5 19/39/5
f 18/42/6 84/45/6 11/46/6
f 11/46/9 13/40/9 18/42/9
f 14/38/10 12/43/10 19/39/10
f 19/39/5 85/44/5 15/47/5
f 19/39/12 83/48/12 17/37/12
f 20/49/1 21/50/1 23/51/1 22/52/1
f 22/52/4 23/51/4 27/53/4 26/54/4
f 26/55/3 27/56/3 25/57/3 24/58/3
f 24/58/2 25/57/2 21/50/2 20/49/2
f 27/59/11 23/60/11 29/61/11
f 22/62/8 26/63/8 28/64/8
f 26/63/7 24/65/7 28/64/7
f 24/65/6 20/66/6 28/64/6
f 20/66/9 22/62/9 28/64/9
f 23/60/10 21/67/10 29/61/10
f 21/67/5 25/68/5 29/61/5
f 25/68/12 27/59/12 29/61/12
f 30/69/1 32/70/1 33/71/1 31/72/1
f 32/70/2 36/73/2 37/74/2 33/71/2
f 36/75/3 34/76/3 35/77/3 37/78/3
f 34/76/4 30/69/4 31/72/4 35/77/4
f 37/79/5 39/80/5 33/81/5
f 32/82/6 38/83/6 36/84/6
f 36/84/7 38/83/7 34/85/7
f 34/85/8 38/83/8 30/86/8
f 30/86/9 38/83/9 32/82/9
f 33/81/10 39/80/10 31/87/10
f 31/87/11 39/80/11 35/88/11
f 35/88/12 39/80/12 37/79/12
f 40/89/1 42/90/1 43/91/1 41/92/1
f 42/90/2 46/93/2 47/94/2 43/91/2
f 46/95/3 44/96/3 45/97/3 47/98/3
f 44/96/4 40/89/4 41/92/4 45/97/4
f 47/99/5 49/100/5 43/101/5
f 42/102/6 48/103/6 46/104/6
f 46/104/7 48/103/7 44/105/7
f 44/105/8 48/103/8 40/106/8
f 40/106/9 48/103/9 42/102/9
f 43/101/10 49/100/10 41/107/10
f 41/107/11 49/100/11 45/108/11
f 45/108/12 49/100/12 47/99/12
f 50/109/1 51/110/1 53/111/1 52/112/1
f 52/112/4 53/111/4 57/113/4 56/114/4
f 56/115/3 57/116/3 55/117/3 54/118/3
f 54/118/2 55/117/2 51/110/2 50/109/2
f 57/119/11 53/120/11 59/121/11
f 52/122/8 56/123/8 58/124/8
f 56/123/7 54/125/7 58/124/7
f 54/125/6 50/126/6 58/124/6
f 50/126/9 52/122/9 58/124/9
f 53/120/10 51/127/10 59/121/10
f 51/127/5 55/128/5 59/121/5
f 55/128/12 57/119/12 59/121/12
f 94/129/1 95/130/1 63/131/1 61/132/1
f 95/130/2 96/133/2 67/134/2 63/131/2
f 98/135/3 97/136/3 65/137/3 93/138/3
f 97/136/4 94/129/4 61/132/4 65/137/4
f 67/139/5 69/140/5 63/141/5
f 62/142/6 68/143/6 66/144/6
f 92/145/7 68/143/7 64/146/7
f 64/146/8 68/143/8 60/147/8
f 60/147/9 68/143/9 62/142/9
f 63/141/10 69/140/10 61/148/10
f 61/148/11 69/140/11 65/149/11
f 93/150/12 69/140/12 67/139/12
f 70/151/1 71/152/1 73/153/1 72/154/1
f 72/154/4 73/153/4 77/155/4 76/156/4
f 76/157/3 77/158/3 75/159/3 74/160/3
f 74/160/2 75/159/2 71/152/2 70/151/2
f 77/161/11 73/162/11 79/163/11
f 72/164/8 76/165/8 78/166/8
f 76/165/7 74/167/7 78/166/7
f 74/167/6 70/168/6 78/166/6
f 70/168/9 72/164/9 78/166/9
f 73/162/10 71/169/10 79/163/10
f 71/169/5 75/170/5 79/163/5
f 75/170/12 77/161/12 79/163/12
f 2/22/11 10/14/11 81/23/11
f 88/171/3 17/172/3 83/32/3 90/31/3
f 89/34/2 15/33/2 85/36/2 91/35/2
f 15/47/12 83/48/12 19/39/12
f 16/173/3 88/171/3 90/31/3 82/174/3
f 84/175/2 91/35/2 86/25/2 11/176/2
f 16/41/7 82/177/7 18/42/7
f 13/178/4 87/28/4 88/30/4 16/179/4
f 11/176/1 86/25/1 87/28/1 13/178/1
f 96/180/3 98/135/3 93/138/3 67/181/3
f 64/182/4 60/183/4 94/129/4 97/136/4
f 62/184/2 66/185/2 96/133/2 95/130/2
f 60/183/1 62/184/1 95/130/1 94/129/1
f 65/149/12 69/140/12 93/150/12
f 66/144/7 68/143/7 92/145/7
f 66/186/3 92/187/3 98/135/3 96/180/3
o ARM_LEFT_BLASTER_Cube.028
v -0.375000 1.000000 0.156250
v -0.375000 1.312500 0.156250
v -0.687500 1.000000 0.156250
v -0.687500 1.312500 0.156250
v -0.375000 1.000000 -0.156250
v -0.375000 1.312500 -0.156250
v -0.687500 1.000000 -0.156250
v -0.687500 1.312500 -0.156250
v -0.437500 1.000000 0.093750
v -0.625000 1.000000 0.093750
v -0.437500 1.000000 -0.093750
v -0.625000 1.000000 -0.093750
v -0.687500 1.062500 0.093750
v -0.671875 1.296875 -0.093750
v -0.671875 1.296875 0.093750
v -0.687500 1.062500 -0.093750
v -0.437500 1.312500 0.093750
v -0.437500 1.312500 -0.093750
v -0.437500 1.296875 0.093750
v -0.437500 1.296875 -0.093750
v -0.687500 1.312500 -0.093750
v -0.687500 1.312500 0.093750
v -0.671875 1.062500 -0.093750
v -0.671875 1.062500 0.093750
v -0.453125 0.750000 -0.078125
v -0.453125 0.937500 -0.078125
v -0.562500 0.937500 0.093750
v -0.562500 0.750000 0.093750
v -0.562500 0.750000 -0.093750
v -0.562500 0.937500 -0.093750
v -0.453125 0.937500 0.078125
v -0.453125 0.750000 0.078125
v -0.562500 0.750000 -0.078125
v -0.562500 0.937500 -0.078125
v -0.437500 0.937500 -0.093750
v -0.437500 0.750000 -0.093750
v -0.437500 0.937500 0.093750
v -0.437500 0.750000 0.093750
v -0.562500 0.937500 0.078125
v -0.562500 0.750000 0.078125
v -0.625000 0.687500 0.093750
v -0.437500 0.687500 0.093750
v -0.625000 0.687500 -0.093750
v -0.437500 0.687500 -0.093750
v -0.671875 1.296875 -0.093750
v -0.671875 1.296875 0.093750
v -0.437500 1.296875 0.093750
v -0.437500 1.296875 -0.093750
v -0.671875 1.062500 -0.093750
v -0.671875 1.062500 0.093750
v -0.468750 0.687500 0.062500
v -0.593750 0.687500 0.062500
v -0.468750 0.687500 -0.062500
v -0.593750 0.687500 -0.062500
v -0.453125 0.750000 -0.078125
v -0.453125 0.937500 -0.078125
v -0.453125 0.937500 0.078125
v -0.453125 0.750000 0.078125
v -0.562500 0.750000 -0.078125
v -0.562500 0.937500 -0.078125
v -0.562500 0.937500 0.078125
v -0.562500 0.750000 0.078125
v -0.593750 0.625000 0.062500
v -0.468750 0.625000 0.062500
v -0.593750 0.625000 -0.062500
v -0.468750 0.625000 -0.062500
v -0.500000 0.593750 0.031250
v -0.500000 0.656250 0.031250
v -0.562500 0.593750 0.031250
v -0.562500 0.656250 0.031250
v -0.500000 0.593750 -0.031250
v -0.500000 0.656250 -0.031250
v -0.562500 0.593750 -0.031250
v -0.562500 0.656250 -0.031250
v -0.562500 0.531250 0.031250
v -0.500000 0.531250 0.031250
v -0.562500 0.531250 -0.031250
v -0.500000 0.531250 -0.031250
v -0.562500 0.500000 0.031250
v -0.500000 0.500000 0.031250
v -0.562500 0.500000 -0.031250
v -0.500000 0.500000 -0.031250
v -0.562500 0.437500 0.031250
v -0.500000 0.437500 0.031250
v -0.562500 0.437500 -0.031250
v -0.500000 0.437500 -0.031250
v -0.562500 0.406250 0.031250
v -0.500000 0.406250 0.031250
v -0.562500 0.406250 -0.031250
v -0.500000 0.406250 -0.031250
v -0.609375 0.593750 0.078125
v -0.453125 0.593750 0.078125
v -0.609375 0.593750 -0.078125
v -0.453125 0.593750 -0.078125
v -0.609375 0.531250 0.078125
v -0.453125 0.531250 0.078125
v -0.609375 0.531250 -0.078125
v -0.453125 0.531250 -0.078125
v -0.593750 0.500000 0.062500
v -0.468750 0.500000 0.062500
v -0.593750 0.500000 -0.062500
v -0.468750 0.500000 -0.062500
v -0.593750 0.437500 0.062500
v -0.468750 0.437500 0.062500
v -0.593750 0.437500 -0.062500
v -0.468750 0.437500 -0.062500
v -0.546875 0.218750 0.015625
v -0.515625 0.218750 0.015625
v -0.546875 0.218750 -0.015625
v -0.515625 0.218750 -0.015625
v -0.515625 0.343750 -0.015625
v -0.515625 0.343750 0.015625
v -0.546875 0.343750 0.015625
v -0.546875 0.343750 -0.015625
v -0.578125 0.406250 0.046875
v -0.484375 0.406250 0.046875
v -0.578125 0.406250 -0.046875
v -0.484375 0.406250 -0.046875
v -0.578125 0.343750 -0.046875
v -0.484375 0.343750 0.046875
v -0.484375 0.343750 -0.046875
v -0.578125 0.343750 0.046875
vt 0.656250 0.281250
vt 0.656250 0.359375
vt 0.734375 0.359375
vt 0.734375 0.281250
vt 0.578125 0.203125
vt 0.562500 0.203125
vt 0.562500 0.265625
vt 0.578125 0.281250
vt 0.734375 0.281250
vt 0.734375 0.359375
vt 0.656250 0.359375
vt 0.656250 0.281250
vt 0.578125 0.359375
vt 0.578125 0.281250
vt 0.500000 0.203125
vt 0.515625 0.203125
vt 0.515625 0.265625
vt 0.500000 0.281250
vt 0.500000 0.281250
vt 0.578125 0.281250
vt 0.578125 0.359375
vt 0.500000 0.359375
vt 0.578125 0.203125
vt 0.625000 0.203125
vt 0.625000 0.218750
vt 0.593750 0.218750
vt 0.718750 0.203125
vt 0.718750 0.281250
vt 0.671875 0.281250
vt 0.671875 0.203125
vt 0.625000 0.281250
vt 0.625000 0.265625
vt 0.593750 0.265625
vt 0.578125 0.281250
vt 0.500000 0.281250
vt 0.515625 0.265625
vt 0.562500 0.265625
vt 0.546875 0.265625
vt 0.546875 0.207031
vt 0.578125 0.281250
vt 0.515625 0.250000
vt 0.562500 0.250000
vt 0.562500 0.265625
vt 0.515625 0.265625
vt 0.515625 0.250000
vt 0.562500 0.250000
vt 0.531250 0.207031
vt 0.531250 0.265625
vt 0.531250 0.265625
vt 0.546875 0.265625
vt 0.625000 0.265625
vt 0.593750 0.265625
vt 0.593750 0.250000
vt 0.621094 0.250000
vt 0.578125 0.281250
vt 0.578125 0.203125
vt 0.593750 0.218750
vt 0.625000 0.203125
vt 0.625000 0.218750
vt 0.671875 0.265625
vt 0.628906 0.250000
vt 0.667969 0.250000
vt 0.671875 0.218750
vt 0.667969 0.234375
vt 0.628906 0.234375
vt 0.621094 0.250000
vt 0.593750 0.250000
vt 0.609375 0.265625
vt 0.609375 0.218750
vt 0.671875 0.203125
vt 0.593750 0.234375
vt 0.621094 0.234375
vt 0.625000 0.281250
vt 0.671875 0.281250
vt 0.609375 0.218750
vt 0.609375 0.265625
vt 0.621094 0.234375
vt 0.593750 0.234375
vt 0.718750 0.218750
vt 0.765625 0.218750
vt 0.765625 0.265625
vt 0.718750 0.265625
vt 0.781250 0.156250
vt 0.796875 0.156250
vt 0.796875 0.140625
vt 0.781250 0.140625
vt 0.781250 0.125000
vt 0.796875 0.125000
vt 0.796875 0.140625
vt 0.781250 0.140625
vt 0.796875 0.156250
vt 0.781250 0.156250
vt 0.781250 0.140625
vt 0.796875 0.140625
vt 0.796875 0.125000
vt 0.781250 0.125000
vt 0.781250 0.140625
vt 0.781250 0.156250
vt 0.765625 0.156250
vt 0.765625 0.140625
vt 0.781250 0.156250
vt 0.781250 0.140625
vt 0.765625 0.140625
vt 0.765625 0.156250
vt 0.781250 0.140625
vt 0.781250 0.125000
vt 0.765625 0.125000
vt 0.765625 0.140625
vt 0.781250 0.125000
vt 0.765625 0.125000
vt 0.765625 0.140625
vt 0.765625 0.156250
vt 0.750000 0.156250
vt 0.750000 0.140625
vt 0.750000 0.140625
vt 0.750000 0.156250
vt 0.718750 0.156250
vt 0.718750 0.140625
vt 0.765625 0.156250
vt 0.765625 0.140625
vt 0.750000 0.140625
vt 0.750000 0.156250
vt 0.765625 0.140625
vt 0.765625 0.125000
vt 0.750000 0.125000
vt 0.750000 0.140625
vt 0.765625 0.125000
vt 0.750000 0.125000
vt 0.812500 0.125000
vt 0.843750 0.125000
vt 0.843750 0.109375
vt 0.812500 0.109375
vt 0.812500 0.125000
vt 0.781250 0.125000
vt 0.781250 0.109375
vt 0.812500 0.109375
vt 0.812500 0.109375
vt 0.843750 0.109375
vt 0.843750 0.093750
vt 0.812500 0.093750
vt 0.812500 0.109375
vt 0.781250 0.109375
vt 0.781250 0.093750
vt 0.812500 0.093750
vt 0.750000 0.156250
vt 0.750000 0.140625
vt 0.718750 0.140625
vt 0.718750 0.156250
vt 0.750000 0.140625
vt 0.750000 0.125000
vt 0.718750 0.125000
vt 0.718750 0.140625
vt 0.750000 0.125000
vt 0.718750 0.125000
vt 0.843750 0.093750
vt 0.812500 0.093750
vt 0.812500 0.078125
vt 0.843750 0.078125
vt 0.796875 0.125000
vt 0.812500 0.125000
vt 0.812500 0.140625
vt 0.796875 0.140625
vt 0.812500 0.093750
vt 0.812500 0.078125
vt 0.781250 0.093750
vt 0.781250 0.078125
vt 0.812500 0.125000
vt 0.812500 0.156250
vt 0.843750 0.156250
vt 0.843750 0.125000
vt 0.812500 0.156250
vt 0.812500 0.125000
vt 0.843750 0.125000
vt 0.843750 0.156250
vt 0.843750 0.156250
vt 0.812500 0.156250
vt 0.812500 0.125000
vt 0.843750 0.125000
vt 0.843750 0.156250
vt 0.812500 0.156250
vt 0.843750 0.125000
vt 0.843750 0.156250
vt 0.843750 0.125000
vt 0.812500 0.125000
vt 0.812500 0.156250
vt 0.843750 0.156250
vt 0.843750 0.125000
vt 0.812500 0.125000
vt 0.812500 0.156250
vt 0.984375 -0.000000
vt 0.875000 -0.000000
vt 0.875000 0.187500
vt 0.984375 0.187500
vt 0.812500 0.437500
vt 0.687500 0.437500
vt 0.687500 0.375000
vt 0.812500 0.375000
vt 1.000000 0.625000
vt 0.812500 0.625000
vt 0.812500 0.390625
vt 1.000000 0.390625
vt 0.812500 0.187500
vt 1.000000 0.187500
vt 1.000000 0.421875
vt 0.812500 0.421875
vt 0.703125 0.187500
vt 0.703125 -0.000000
vt 0.859375 -0.000000
vt 0.859375 0.187500
vt 0.984375 -0.000000
vt 0.984375 0.187500
vt 0.875000 0.187500
vt 0.875000 -0.000000
vt 0.687500 0.250000
vt 0.812500 0.250000
vt 0.687500 0.250000
vt 0.812500 0.250000
vt 0.812500 0.187500
vt 0.687500 0.187500
vt 0.687500 0.250000
vt 0.687500 0.187500
vt 0.812500 0.437500
vt 0.812500 0.375000
vn 0.0000 0.0000 1.0000
vn -1.0000 0.0000 0.0000
vn -0.0000 0.0000 -1.0000
vn 1.0000 0.0000 0.0000
vn 0.0000 1.0000 0.0000
vn 0.0000 -1.0000 0.0000
usemtl MAIN
s off
f 99/188/13 100/189/13 102/190/13 101/191/13
f 102/192/14 120/193/14 111/194/14 101/195/14
f 105/196/15 106/197/15 104/198/15 103/199/15
f 103/199/16 104/198/16 100/200/16 99/201/16
f 106/202/17 119/203/17 116/204/17 104/205/17
f 101/206/18 105/207/18 103/208/18 99/209/18
f 139/210/13 140/211/13 136/212/13 126/213/13
f 139/214/14 108/215/14 110/216/14 141/217/14
f 109/218/15 133/219/15 128/220/15 110/221/15
f 106/202/14 105/222/14 114/223/14 119/203/14
f 120/193/15 115/224/15 117/225/15 113/226/15
f 105/222/14 101/195/14 111/194/14 114/223/14
f 100/227/17 104/205/17 116/204/17 115/224/17
f 102/192/17 100/227/17 115/224/17 120/193/17
f 115/224/14 116/204/14 118/228/14 117/229/14
f 114/230/17 111/231/17 122/232/17 121/233/17
f 116/204/13 119/203/13 112/234/13 118/235/13
f 119/203/13 114/223/13 121/236/13 112/234/13
f 111/194/15 120/193/15 113/226/15 122/237/15
f 135/238/18 125/239/18 137/240/18 129/241/18
f 108/242/13 139/210/13 126/213/13 125/239/13
f 141/243/15 110/221/15 128/220/15 127/244/15
f 142/245/15 141/243/15 127/244/15 134/246/15
f 133/247/18 135/238/18 129/248/18 124/249/18
f 136/212/17 134/250/17 123/251/17 130/252/17
f 128/220/18 133/219/18 124/253/18 132/254/18
f 127/244/16 128/220/16 132/255/16 131/256/16
f 140/211/16 142/257/16 134/250/16 136/212/16
f 134/246/17 127/244/17 131/258/17 123/259/17
f 107/260/16 135/238/16 133/247/16 109/261/16
f 125/239/16 126/213/16 138/262/16 137/263/16
f 107/260/13 108/242/13 125/239/13 135/238/13
f 126/213/17 136/212/17 130/264/17 138/265/17
f 139/266/18 141/267/18 142/268/18 140/269/18
f 165/270/13 166/271/13 168/272/13 167/273/13
f 167/274/14 168/275/14 172/276/14 171/277/14
f 171/277/15 172/276/15 170/278/15 169/279/15
f 169/280/16 170/281/16 166/282/16 165/283/16
f 175/284/15 176/285/15 180/286/15 179/287/15
f 174/288/13 173/289/13 177/290/13 178/291/13
f 176/292/16 174/293/16 178/294/16 180/295/16
f 173/296/14 175/284/14 179/287/14 177/297/14
f 183/298/15 184/299/15 188/300/15 187/301/15
f 212/302/15 209/303/15 208/304/15 207/305/15
f 182/306/13 181/307/13 185/308/13 186/309/13
f 184/310/16 182/311/16 186/312/16 188/313/16
f 181/314/14 183/298/14 187/301/14 185/315/14
f 192/316/16 190/317/16 194/318/16 196/319/16
f 189/320/14 191/321/14 195/322/14 193/323/14
f 190/317/13 189/320/13 193/323/13 194/318/13
f 191/321/15 192/316/15 196/319/15 195/322/15
f 200/324/16 198/325/16 202/326/16 204/327/16
f 197/328/14 199/329/14 203/330/14 201/331/14
f 199/329/15 200/324/15 204/327/15 203/330/15
f 198/325/13 197/328/13 201/331/13 202/326/13
f 210/332/13 211/333/13 205/334/13 206/335/13
f 209/336/16 210/337/16 206/338/16 208/339/16
f 211/340/14 212/302/14 207/305/14 205/341/14
f 214/342/13 213/343/13 220/344/13 218/345/13
f 205/346/18 207/347/18 208/348/18 206/349/18
f 216/350/16 214/342/16 218/345/16 219/351/16
f 213/343/14 215/352/14 217/353/14 220/344/14
f 215/352/15 216/350/15 219/351/15 217/353/15
f 219/354/18 218/355/18 220/356/18 217/357/18
f 214/358/17 216/359/17 215/360/17 213/361/17
f 197/362/17 198/363/17 200/364/17 199/365/17
f 189/366/17 190/367/17 192/316/17 191/368/17
f 201/369/18 203/370/18 204/371/18 202/372/18
f 193/373/18 195/374/18 196/375/18 194/376/18
usemtl CIRCUITRY
f 153/377/15 157/378/15 158/379/15 154/380/15
f 151/381/16 149/382/16 162/383/16 164/384/16
f 145/385/17 146/386/17 143/387/17 144/388/17
f 147/389/14 148/390/14 144/391/14 143/392/14
f 153/393/16 154/394/16 155/395/16 156/396/16
f 156/397/13 155/398/13 159/399/13 160/400/13
f 161/401/18 163/402/18 164/384/18 162/383/18
f 150/403/14 152/404/14 163/405/14 161/406/14
f 152/404/15 151/407/15 164/408/15 163/405/15
f 149/382/13 150/409/13 161/410/13 162/383/13
