# Blender v2.80 (sub 75) OBJ File: 'constructs.blend'
# www.blender.org
mtllib arm_shield_r.mtl
o ARM_RIGHT_DECO_DIAMOND_Cube.359
v 0.750000 0.937500 0.093750
v 0.750000 1.312500 0.093750
v 0.750000 0.937500 0.218750
v 0.750000 1.312500 0.218750
v 0.625000 0.937500 0.093750
v 0.625000 1.312500 0.093750
v 0.625000 0.937500 0.218750
v 0.625000 1.312500 0.218750
v 0.687500 0.875000 0.156250
v 0.687500 1.375000 0.156250
v 0.750000 1.000000 -0.093750
v 0.750000 1.375000 -0.093750
v 0.750000 1.000000 -0.218750
v 0.750000 1.375000 -0.218750
v 0.625000 1.375000 -0.093750
v 0.625000 1.000000 -0.218750
v 0.625000 1.375000 -0.218750
v 0.687500 0.937500 -0.156250
v 0.687500 1.437500 -0.156250
v 0.812500 1.125000 -0.031250
v 0.812500 1.250000 -0.031250
v 0.812500 1.125000 -0.156250
v 0.812500 1.250000 -0.156250
v 0.687500 1.125000 -0.031250
v 0.687500 1.250000 -0.031250
v 0.687500 1.125000 -0.156250
v 0.687500 1.250000 -0.156250
v 0.750000 1.062500 -0.093750
v 0.750000 1.312500 -0.093750
v 0.812500 1.062500 0.031250
v 0.812500 1.187500 0.031250
v 0.812500 1.062500 0.156250
v 0.812500 1.187500 0.156250
v 0.687500 1.062500 0.031250
v 0.687500 1.187500 0.031250
v 0.687500 1.062500 0.156250
v 0.687500 1.187500 0.156250
v 0.750000 1.000000 0.093750
v 0.750000 1.250000 0.093750
v 0.687500 1.062500 0.156250
v 0.687500 1.187500 0.156250
v 0.687500 1.062500 0.281250
v 0.687500 1.187500 0.281250
v 0.562500 1.062500 0.156250
v 0.562500 1.187500 0.156250
v 0.562500 1.062500 0.281250
v 0.562500 1.187500 0.281250
v 0.625000 1.000000 0.218750
v 0.625000 1.250000 0.218750
v 0.687500 0.875000 -0.031250
v 0.687500 1.000000 -0.031250
v 0.687500 0.875000 -0.156250
v 0.687500 1.000000 -0.156250
v 0.562500 0.875000 -0.031250
v 0.562500 1.000000 -0.031250
v 0.562500 0.875000 -0.156250
v 0.562500 1.000000 -0.156250
v 0.625000 0.812500 -0.093750
v 0.625000 1.062500 -0.093750
v 0.687500 0.812500 0.031250
v 0.687500 1.000000 0.031250
v 0.687500 0.812500 0.156250
v 0.687500 1.000000 0.156250
v 0.562500 0.812500 0.031250
v 0.562500 1.000000 0.031250
v 0.562500 0.812500 0.156250
v 0.562500 1.000000 0.156250
v 0.625000 0.750000 0.093750
v 0.625000 1.062500 0.093750
v 0.687500 1.125000 -0.156250
v 0.687500 1.250000 -0.156250
v 0.687500 1.125000 -0.281250
v 0.687500 1.250000 -0.281250
v 0.562500 1.125000 -0.156250
v 0.562500 1.250000 -0.156250
v 0.562500 1.125000 -0.281250
v 0.562500 1.250000 -0.281250
v 0.625000 1.062500 -0.218750
v 0.625000 1.312500 -0.218750
v 0.687500 0.937500 0.093750
v 0.687500 1.312500 0.093750
v 0.625000 1.000000 -0.156259
v 0.625000 1.375000 -0.156259
v 0.687500 1.000000 -0.093750
v 0.687500 1.375000 -0.093750
v 0.750000 1.312500 -0.093750
v 0.750000 1.312500 -0.218750
v 0.625000 1.312500 -0.218750
v 0.625000 1.312500 -0.093750
v 0.625000 1.312500 -0.156259
v 0.687500 1.312500 -0.093750
v 0.562500 0.812500 0.093750
v 0.562500 1.000000 0.093750
v 0.687500 0.937500 0.031250
v 0.687500 0.937500 0.156250
v 0.562500 0.937500 0.156250
v 0.562500 0.937500 0.031250
v 0.562500 0.937500 0.093750
vt 0.093750 0.906250
vt 0.093750 1.000000
vt 0.062500 1.000000
vt 0.062500 0.906250
vt 0.031250 1.000000
vt 0.031250 0.906250
vt 0.156250 0.906250
vt 0.156250 1.000000
vt 0.125000 1.000000
vt 0.125000 0.906250
vt 0.109375 0.906250
vt 0.109375 1.000000
vt 0.000000 0.906250
vt 0.031250 0.906250
vt 0.015625 0.921875
vt 0.187500 0.906250
vt 0.187500 0.937500
vt 0.171875 0.921875
vt 0.156250 0.937500
vt 0.156250 0.921875
vt 0.156250 0.906250
vt 0.031250 0.937500
vt 0.015625 0.937500
vt 0.000000 0.937500
vt 0.093750 0.984375
vt 0.062500 0.984375
vt 0.062500 1.000000
vt 0.093750 1.000000
vt 0.031250 0.984375
vt 0.031250 1.000000
vt 0.140625 0.984375
vt 0.125000 0.984375
vt 0.125000 1.000000
vt 0.140625 1.000000
vt 0.109375 0.984375
vt 0.109375 1.000000
vt 0.000000 0.906250
vt 0.015625 0.921875
vt 0.031250 0.906250
vt 0.187500 0.906250
vt 0.171875 0.921875
vt 0.187500 0.937500
vt 0.031250 0.937500
vt 0.015625 0.937500
vt 0.156250 0.906250
vt 0.156250 0.921875
vt 0.000000 0.937500
vt 0.000000 0.921875
vt 0.093750 0.765625
vt 0.062500 0.765625
vt 0.062500 0.796875
vt 0.093750 0.796875
vt 0.031250 0.765625
vt 0.031250 0.796875
vt 0.156250 0.765625
vt 0.125000 0.765625
vt 0.125000 0.796875
vt 0.156250 0.796875
vt -0.000000 0.765625
vt 0.015625 0.781250
vt 0.031250 0.765625
vt 0.187500 0.765625
vt 0.171875 0.781250
vt 0.187500 0.796875
vt 0.156250 0.796875
vt 0.156250 0.765625
vt 0.031250 0.796875
vt -0.000000 0.796875
vt 0.093750 0.765625
vt 0.093750 0.796875
vt 0.062500 0.796875
vt 0.062500 0.765625
vt 0.031250 0.796875
vt 0.031250 0.765625
vt 0.156250 0.765625
vt 0.156250 0.796875
vt 0.125000 0.796875
vt 0.125000 0.765625
vt -0.000000 0.765625
vt 0.031250 0.765625
vt 0.015625 0.781250
vt 0.187500 0.765625
vt 0.187500 0.796875
vt 0.171875 0.781250
vt 0.156250 0.796875
vt 0.156250 0.765625
vt 0.031250 0.796875
vt -0.000000 0.796875
vt 0.093750 0.765625
vt 0.093750 0.796875
vt 0.062500 0.796875
vt 0.062500 0.765625
vt 0.031250 0.796875
vt 0.031250 0.765625
vt 0.156250 0.765625
vt 0.156250 0.796875
vt 0.125000 0.796875
vt 0.125000 0.765625
vt -0.000000 0.765625
vt 0.031250 0.765625
vt 0.015625 0.781250
vt 0.187500 0.765625
vt 0.187500 0.796875
vt 0.171875 0.781250
vt 0.156250 0.796875
vt 0.156250 0.765625
vt 0.031250 0.796875
vt -0.000000 0.796875
vt 0.093750 0.765625
vt 0.062500 0.765625
vt 0.062500 0.796875
vt 0.093750 0.796875
vt 0.031250 0.765625
vt 0.031250 0.796875
vt 0.156250 0.765625
vt 0.125000 0.765625
vt 0.125000 0.796875
vt 0.156250 0.796875
vt -0.000000 0.765625
vt 0.015625 0.781250
vt 0.031250 0.765625
vt 0.187500 0.765625
vt 0.171875 0.781250
vt 0.187500 0.796875
vt 0.156250 0.796875
vt 0.156250 0.765625
vt 0.031250 0.796875
vt -0.000000 0.796875
vt 0.093750 0.828125
vt 0.093750 0.843750
vt 0.062500 0.843750
vt 0.062500 0.828125
vt 0.031250 0.843750
vt 0.031250 0.828125
vt 0.140625 0.828125
vt 0.140625 0.843750
vt 0.125000 0.843750
vt 0.125000 0.828125
vt 0.000000 0.796875
vt 0.031250 0.796875
vt 0.015625 0.812500
vt 0.187500 0.796875
vt 0.187500 0.828125
vt 0.171875 0.812500
vt 0.171875 0.828125
vt 0.156250 0.828125
vt 0.156250 0.796875
vt 0.031250 0.828125
vt 0.000000 0.828125
vt 0.000000 0.812500
vt 0.093750 0.765625
vt 0.062500 0.765625
vt 0.062500 0.796875
vt 0.093750 0.796875
vt 0.031250 0.765625
vt 0.031250 0.796875
vt 0.156250 0.765625
vt 0.125000 0.765625
vt 0.125000 0.796875
vt 0.156250 0.796875
vt -0.000000 0.765625
vt 0.015625 0.781250
vt 0.031250 0.765625
vt 0.187500 0.765625
vt 0.171875 0.781250
vt 0.187500 0.796875
vt 0.156250 0.796875
vt 0.156250 0.765625
vt 0.031250 0.796875
vt -0.000000 0.796875
vt 0.156250 0.984375
vt 0.156250 1.000000
vt 0.156250 0.906250
vt 0.140626 0.906250
vt 0.109375 0.906250
vt 0.093750 0.906250
vt 0.171875 0.937500
vt 0.062500 0.906250
vt 0.031250 0.906250
vt 0.156250 0.828125
vt 0.156250 0.843750
vt 0.125000 0.796875
vt 0.093750 0.796875
vt 0.062500 0.796875
vt 0.031250 0.796875
vt 0.156250 0.796875
vt 0.140625 0.796875
vn 1.0000 0.0000 0.0000
vn 0.0000 0.0000 1.0000
vn -1.0000 0.0000 0.0000
vn 0.0000 0.0000 -1.0000
vn 0.0000 0.7071 0.7071
vn 0.0000 -0.7071 0.7071
vn -0.7071 -0.7071 0.0000
vn 0.0000 -0.7071 -0.7071
vn 0.7071 -0.7071 0.0000
vn 0.7071 0.7071 0.0000
vn 0.0000 0.7071 -0.7071
vn -0.7071 0.7071 0.0000
usemtl MAIN
s off
f 1/1/1 2/2/1 4/3/1 3/4/1
f 3/4/2 4/3/2 8/5/2 7/6/2
f 7/7/3 8/8/3 6/9/3 5/10/3
f 80/11/4 81/12/4 2/2/4 1/1/4
f 8/13/5 4/14/5 10/15/5
f 3/16/6 7/17/6 9/18/6
f 7/17/7 5/19/7 9/18/7
f 80/20/8 1/21/8 9/18/8
f 1/21/9 3/16/9 9/18/9
f 4/14/10 2/22/10 10/15/10
f 81/23/11 6/24/11 10/15/11
f 6/24/12 8/13/12 10/15/12
f 86/25/1 87/26/1 14/27/1 12/28/1
f 87/26/4 88/29/4 17/30/4 14/27/4
f 90/31/3 89/32/3 15/33/3 83/34/3
f 91/35/2 86/25/2 12/28/2 85/36/2
f 17/37/11 19/38/11 14/39/11
f 13/40/8 18/41/8 16/42/8
f 12/43/5 19/38/5 85/44/5
f 18/41/6 11/45/6 84/46/6
f 11/45/9 18/41/9 13/40/9
f 14/39/10 19/38/10 12/43/10
f 19/38/5 15/47/5 85/44/5
f 19/38/12 17/37/12 83/48/12
f 20/49/1 22/50/1 23/51/1 21/52/1
f 22/50/4 26/53/4 27/54/4 23/51/4
f 26/55/3 24/56/3 25/57/3 27/58/3
f 24/56/2 20/49/2 21/52/2 25/57/2
f 27/59/11 29/60/11 23/61/11
f 22/62/8 28/63/8 26/64/8
f 26/64/7 28/63/7 24/65/7
f 24/65/6 28/63/6 20/66/6
f 20/66/9 28/63/9 22/62/9
f 23/61/10 29/60/10 21/67/10
f 21/67/5 29/60/5 25/68/5
f 25/68/12 29/60/12 27/59/12
f 30/69/1 31/70/1 33/71/1 32/72/1
f 32/72/2 33/71/2 37/73/2 36/74/2
f 36/75/3 37/76/3 35/77/3 34/78/3
f 34/78/4 35/77/4 31/70/4 30/69/4
f 37/79/5 33/80/5 39/81/5
f 32/82/6 36/83/6 38/84/6
f 36/83/7 34/85/7 38/84/7
f 34/85/8 30/86/8 38/84/8
f 30/86/9 32/82/9 38/84/9
f 33/80/10 31/87/10 39/81/10
f 31/87/11 35/88/11 39/81/11
f 35/88/12 37/79/12 39/81/12
f 40/89/1 41/90/1 43/91/1 42/92/1
f 42/92/2 43/91/2 47/93/2 46/94/2
f 46/95/3 47/96/3 45/97/3 44/98/3
f 44/98/4 45/97/4 41/90/4 40/89/4
f 47/99/5 43/100/5 49/101/5
f 42/102/6 46/103/6 48/104/6
f 46/103/7 44/105/7 48/104/7
f 44/105/8 40/106/8 48/104/8
f 40/106/9 42/102/9 48/104/9
f 43/100/10 41/107/10 49/101/10
f 41/107/11 45/108/11 49/101/11
f 45/108/12 47/99/12 49/101/12
f 50/109/1 52/110/1 53/111/1 51/112/1
f 52/110/4 56/113/4 57/114/4 53/111/4
f 56/115/3 54/116/3 55/117/3 57/118/3
f 54/116/2 50/109/2 51/112/2 55/117/2
f 57/119/11 59/120/11 53/121/11
f 52/122/8 58/123/8 56/124/8
f 56/124/7 58/123/7 54/125/7
f 54/125/6 58/123/6 50/126/6
f 50/126/9 58/123/9 52/122/9
f 53/121/10 59/120/10 51/127/10
f 51/127/5 59/120/5 55/128/5
f 55/128/12 59/120/12 57/119/12
f 94/129/1 61/130/1 63/131/1 95/132/1
f 95/132/2 63/131/2 67/133/2 96/134/2
f 98/135/3 93/136/3 65/137/3 97/138/3
f 97/138/4 65/137/4 61/130/4 94/129/4
f 67/139/5 63/140/5 69/141/5
f 62/142/6 66/143/6 68/144/6
f 92/145/7 64/146/7 68/144/7
f 64/146/8 60/147/8 68/144/8
f 60/147/9 62/142/9 68/144/9
f 63/140/10 61/148/10 69/141/10
f 61/148/11 65/149/11 69/141/11
f 93/150/12 67/139/12 69/141/12
f 70/151/1 72/152/1 73/153/1 71/154/1
f 72/152/4 76/155/4 77/156/4 73/153/4
f 76/157/3 74/158/3 75/159/3 77/160/3
f 74/158/2 70/151/2 71/154/2 75/159/2
f 77/161/11 79/162/11 73/163/11
f 72/164/8 78/165/8 76/166/8
f 76/166/7 78/165/7 74/167/7
f 74/167/6 78/165/6 70/168/6
f 70/168/9 78/165/9 72/164/9
f 73/163/10 79/162/10 71/169/10
f 71/169/5 79/162/5 75/170/5
f 75/170/12 79/162/12 77/161/12
f 2/22/11 81/23/11 10/15/11
f 88/171/3 90/31/3 83/34/3 17/172/3
f 89/32/2 91/35/2 85/36/2 15/33/2
f 15/47/12 19/38/12 83/48/12
f 16/173/3 82/174/3 90/31/3 88/171/3
f 84/175/2 11/176/2 86/25/2 91/35/2
f 16/42/7 18/41/7 82/177/7
f 13/178/4 16/179/4 88/29/4 87/26/4
f 11/176/1 13/178/1 87/26/1 86/25/1
f 96/180/3 67/181/3 93/136/3 98/135/3
f 64/182/4 97/138/4 94/129/4 60/183/4
f 62/184/2 95/132/2 96/134/2 66/185/2
f 60/183/1 94/129/1 95/132/1 62/184/1
f 65/149/12 93/150/12 69/141/12
f 66/143/7 92/145/7 68/144/7
f 66/186/3 96/180/3 98/135/3 92/187/3
o ARM_RIGHT_SHIELD_Cube.049
v 0.375000 1.000000 0.156250
v 0.375000 1.312500 0.156250
v 0.687500 1.000000 0.156250
v 0.687500 1.312500 0.156250
v 0.375000 1.000000 -0.156250
v 0.375000 1.312500 -0.156250
v 0.687500 1.000000 -0.156250
v 0.687500 1.312500 -0.156250
v 0.437500 1.000000 0.093750
v 0.625000 1.000000 0.093750
v 0.437500 1.000000 -0.093750
v 0.625000 1.000000 -0.093750
v 0.687500 1.062500 0.093750
v 0.671875 1.296875 -0.093750
v 0.671875 1.296875 0.093750
v 0.687500 1.062500 -0.093750
v 0.437500 1.312500 0.093750
v 0.437500 1.312500 -0.093750
v 0.437500 1.296875 0.093750
v 0.437500 1.296875 -0.093750
v 0.687500 1.312500 -0.093750
v 0.687500 1.312500 0.093750
v 0.671875 1.062500 -0.093750
v 0.671875 1.062500 0.093750
v 0.453125 0.750000 -0.078125
v 0.453125 0.937500 -0.078125
v 0.562500 0.937500 0.093750
v 0.562500 0.750000 0.093750
v 0.562500 0.750000 -0.093750
v 0.562500 0.937500 -0.093750
v 0.453125 0.937500 0.078125
v 0.453125 0.750000 0.078125
v 0.562500 0.750000 -0.078125
v 0.562500 0.937500 -0.078125
v 0.437500 0.937500 -0.093750
v 0.437500 0.750000 -0.093750
v 0.437500 0.937500 0.093750
v 0.437500 0.750000 0.093750
v 0.562500 0.937500 0.078125
v 0.562500 0.750000 0.078125
v 0.625000 0.687500 0.093750
v 0.437500 0.687500 0.093750
v 0.625000 0.687500 -0.093750
v 0.437500 0.687500 -0.093750
v 0.671875 1.296875 -0.093750
v 0.671875 1.296875 0.093750
v 0.437500 1.296875 0.093750
v 0.437500 1.296875 -0.093750
v 0.671875 1.062500 -0.093750
v 0.671875 1.062500 0.093750
v 0.468750 0.687500 0.062500
v 0.593750 0.687500 0.062500
v 0.468750 0.687500 -0.062500
v 0.593750 0.687500 -0.062500
v 0.453125 0.750000 -0.078125
v 0.453125 0.937500 -0.078125
v 0.453125 0.937500 0.078125
v 0.453125 0.750000 0.078125
v 0.562500 0.750000 -0.078125
v 0.562500 0.937500 -0.078125
v 0.562500 0.937500 0.078125
v 0.562500 0.750000 0.078125
v 0.593750 0.625000 0.062500
v 0.468750 0.625000 0.062500
v 0.593750 0.625000 -0.062500
v 0.468750 0.625000 -0.062500
v 0.625206 0.875000 -0.093750
v 0.687500 0.875000 -0.093750
v 0.687500 0.812500 -0.093750
v 0.625206 0.812500 -0.093750
v 0.687500 0.875000 -0.031250
v 0.625206 0.875000 0.031250
v 0.625206 0.812500 0.031250
v 0.687500 0.812500 -0.031250
v 0.625206 0.812500 -0.031250
v 0.625206 0.875000 -0.031250
v 0.687500 0.875000 -0.281250
v 0.625206 0.875000 -0.343750
v 0.687500 0.812500 -0.281250
v 0.625206 0.812500 -0.343750
v 0.437294 0.875000 -0.093750
v 0.375000 0.875000 -0.093750
v 0.375000 0.812500 -0.093750
v 0.437294 0.812500 -0.093750
v 0.375000 0.875000 -0.031250
v 0.437294 0.875000 0.031250
v 0.437294 0.812500 0.031250
v 0.375000 0.812500 -0.031250
v 0.437294 0.812500 -0.031250
v 0.437294 0.875000 -0.031250
v 0.375000 0.875000 -0.468750
v 0.437294 0.875000 -0.406250
v 0.375000 0.812500 -0.468750
v 0.437294 0.812500 -0.406250
v 0.499794 0.875000 0.031250
v 0.499794 0.812500 0.031250
v 0.499794 0.812500 -0.031250
v 0.499794 0.875000 -0.031250
v 0.356310 0.343750 -0.437500
v 0.356310 1.343750 -0.437500
v 0.706190 0.343750 -0.235497
v 0.706190 1.343750 -0.235497
v 0.373057 0.343750 -0.500000
v 0.373057 1.343750 -0.500000
v 0.751943 0.343750 -0.281250
v 0.751943 1.343750 -0.281250
v 0.760316 0.343750 -0.141747
v 0.760316 1.343750 -0.141747
v 0.814443 0.343750 -0.172997
v 0.814443 1.343750 -0.172997
v 0.248057 0.343750 -0.437500
v 0.248057 1.343750 -0.437500
v 0.248057 0.343750 -0.500000
v 0.248057 1.343750 -0.500000
vt 0.656250 0.281250
vt 0.734375 0.281250
vt 0.734375 0.359375
vt 0.656250 0.359375
vt 0.578125 0.203125
vt 0.578125 0.281250
vt 0.562500 0.265625
vt 0.562500 0.203125
vt 0.734375 0.281250
vt 0.656250 0.281250
vt 0.656250 0.359375
vt 0.734375 0.359375
vt 0.578125 0.281250
vt 0.578125 0.359375
vt 0.500000 0.203125
vt 0.500000 0.281250
vt 0.515625 0.265625
vt 0.515625 0.203125
vt 0.500000 0.281250
vt 0.500000 0.359375
vt 0.578125 0.359375
vt 0.578125 0.281250
vt 0.578125 0.203125
vt 0.593750 0.218750
vt 0.625000 0.218750
vt 0.625000 0.203125
vt 0.718750 0.203125
vt 0.671875 0.203125
vt 0.671875 0.281250
vt 0.718750 0.281250
vt 0.625000 0.281250
vt 0.578125 0.281250
vt 0.593750 0.265625
vt 0.625000 0.265625
vt 0.515625 0.265625
vt 0.500000 0.281250
vt 0.546875 0.207031
vt 0.546875 0.265625
vt 0.562500 0.265625
vt 0.578125 0.281250
vt 0.562500 0.250000
vt 0.515625 0.250000
vt 0.562500 0.265625
vt 0.562500 0.250000
vt 0.515625 0.250000
vt 0.515625 0.265625
vt 0.531250 0.265625
vt 0.531250 0.207031
vt 0.531250 0.265625
vt 0.546875 0.265625
vt 0.625000 0.265625
vt 0.621094 0.250000
vt 0.593750 0.250000
vt 0.593750 0.265625
vt 0.578125 0.281250
vt 0.578125 0.203125
vt 0.593750 0.218750
vt 0.625000 0.203125
vt 0.625000 0.218750
vt 0.671875 0.265625
vt 0.667969 0.250000
vt 0.628906 0.250000
vt 0.628906 0.234375
vt 0.667969 0.234375
vt 0.671875 0.218750
vt 0.593750 0.250000
vt 0.621094 0.250000
vt 0.609375 0.218750
vt 0.609375 0.265625
vt 0.671875 0.203125
vt 0.621094 0.234375
vt 0.593750 0.234375
vt 0.625000 0.281250
vt 0.671875 0.281250
vt 0.609375 0.265625
vt 0.609375 0.218750
vt 0.593750 0.234375
vt 0.621094 0.234375
vt 0.718750 0.218750
vt 0.718750 0.265625
vt 0.765625 0.265625
vt 0.765625 0.218750
vt 0.453125 0.234375
vt 0.453125 0.218750
vt 0.437500 0.218750
vt 0.453125 0.203125
vt 0.437500 0.203125
vt 0.437500 0.203125
vt 0.437500 0.156250
vt 0.453125 0.140625
vt 0.453125 0.203125
vt 0.421875 0.218750
vt 0.421875 0.203125
vt 0.437500 0.218750
vt 0.453125 0.218750
vt 0.453125 0.234375
vt 0.421875 0.234375
vt 0.437500 0.234375
vt 0.453125 0.140625
vt 0.437500 0.156250
vt 0.421875 0.156250
vt 0.437500 0.203125
vt 0.437500 0.140625
vt 0.421875 0.140625
vt 0.421875 0.203125
vt 0.453125 0.234375
vt 0.437500 0.218750
vt 0.453125 0.218750
vt 0.437500 0.203125
vt 0.453125 0.203125
vt 0.437500 0.203125
vt 0.453125 0.203125
vt 0.453125 0.125000
vt 0.437500 0.109375
vt 0.421875 0.218750
vt 0.437500 0.218750
vt 0.421875 0.203125
vt 0.453125 0.218750
vt 0.453125 0.234375
vt 0.421875 0.234375
vt 0.437500 0.234375
vt 0.437500 0.109375
vt 0.453125 0.125000
vt 0.421875 0.109375
vt 0.437500 0.203125
vt 0.421875 0.203125
vt 0.421875 0.125000
vt 0.437500 0.125000
vt 0.421875 0.218750
vt 0.437500 0.218750
vt 0.437500 0.250000
vt 0.421875 0.250000
vt 0.421875 0.234375
vt 0.437500 0.234375
vt 0.437500 0.250000
vt 0.453125 0.250000
vt 0.453125 0.234375
vt 0.437500 0.234375
vt 0.453125 0.234375
vt 0.453125 0.250000
vt 0.421875 0.250000
vt 0.421875 0.234375
vt 0.437500 0.234375
vt 0.437500 0.250000
vt 0.285625 0.000000
vt 0.386250 0.000000
vt 0.386250 0.250000
vt 0.285625 0.250000
vt 0.218750 0.000000
vt 0.109375 0.000000
vt 0.109375 0.250000
vt 0.218750 0.250000
vt 0.250000 0.000000
vt 0.276875 0.000000
vt 0.276875 0.250000
vt 0.250000 0.250000
vt 0.453125 0.113750
vt 0.453125 0.214375
vt 0.468750 0.218750
vt 0.468750 0.109375
vt 0.468750 0.109375
vt 0.468750 0.218750
vt 0.484375 0.214375
vt 0.484375 0.113750
vt 0.395000 0.000000
vt 0.421875 0.000000
vt 0.421875 0.250000
vt 0.395000 0.250000
vt 0.500000 0.000000
vt 0.484375 0.000000
vt 0.484375 0.250000
vt 0.500000 0.250000
vt 0.250000 0.000000
vt 0.250000 0.250000
vt 0.078125 0.000000
vt 0.078125 0.250000
vt 0.453125 0.078125
vt 0.453125 0.105000
vt 0.468750 0.078125
vt 0.468750 0.078125
vt 0.484375 0.105000
vt 0.484375 0.078125
vt 0.453125 0.223125
vt 0.453125 0.250000
vt 0.468750 0.250000
vt 0.468750 0.250000
vt 0.484375 0.250000
vt 0.484375 0.223125
vt 0.500000 0.250000
vt 0.500000 0.000000
vt 0.484375 0.000000
vt 0.984375 -0.000000
vt 0.984375 0.187500
vt 0.875000 0.187500
vt 0.875000 -0.000000
vt 0.812500 0.437500
vt 0.812500 0.375000
vt 0.687500 0.375000
vt 0.687500 0.437500
vt 1.000000 0.625000
vt 1.000000 0.390625
vt 0.812500 0.390625
vt 0.812500 0.625000
vt 0.812500 0.187500
vt 0.812500 0.421875
vt 1.000000 0.421875
vt 1.000000 0.187500
vt 0.703125 0.187500
vt 0.859375 0.187500
vt 0.859375 -0.000000
vt 0.703125 -0.000000
vt 0.984375 -0.000000
vt 0.875000 -0.000000
vt 0.875000 0.187500
vt 0.984375 0.187500
vt 0.687500 0.250000
vt 0.812500 0.250000
vt 0.687500 0.250000
vt 0.687500 0.187500
vt 0.812500 0.187500
vt 0.812500 0.250000
vt 0.687500 0.187500
vt 0.687500 0.250000
vt 0.812500 0.375000
vt 0.812500 0.437500
vn 0.0000 0.0000 1.0000
vn 1.0000 0.0000 0.0000
vn -0.0000 0.0000 -1.0000
vn -1.0000 0.0000 0.0000
vn 0.0000 1.0000 0.0000
vn 0.0000 -1.0000 0.0000
vn 0.7083 0.0000 0.7059
vn -0.7083 0.0000 0.7059
vn -0.5000 0.0000 0.8660
vn 0.5000 0.0000 -0.8660
vn -0.8660 0.0000 0.5000
vn 0.5000 0.0000 0.8660
vn 0.8660 0.0000 -0.5000
usemtl MAIN
s off
f 99/188/13 101/189/13 102/190/13 100/191/13
f 102/192/14 101/193/14 111/194/14 120/195/14
f 105/196/15 103/197/15 104/198/15 106/199/15
f 103/197/16 99/200/16 100/201/16 104/198/16
f 106/202/17 104/203/17 116/204/17 119/205/17
f 101/206/18 99/207/18 103/208/18 105/209/18
f 139/210/13 126/211/13 136/212/13 140/213/13
f 139/214/14 141/215/14 110/216/14 108/217/14
f 109/218/15 110/219/15 128/220/15 133/221/15
f 106/202/14 119/205/14 114/222/14 105/223/14
f 120/195/15 113/224/15 117/225/15 115/226/15
f 105/223/14 114/222/14 111/194/14 101/193/14
f 100/227/17 115/226/17 116/204/17 104/203/17
f 102/192/17 120/195/17 115/226/17 100/227/17
f 115/226/14 117/228/14 118/229/14 116/204/14
f 114/230/17 121/231/17 122/232/17 111/233/17
f 116/204/13 118/234/13 112/235/13 119/205/13
f 119/205/13 112/235/13 121/236/13 114/222/13
f 111/194/15 122/237/15 113/224/15 120/195/15
f 135/238/18 129/239/18 137/240/18 125/241/18
f 108/242/13 125/241/13 126/211/13 139/210/13
f 141/243/15 127/244/15 128/220/15 110/219/15
f 142/245/15 134/246/15 127/244/15 141/243/15
f 133/247/18 124/248/18 129/249/18 135/238/18
f 136/212/17 130/250/17 123/251/17 134/252/17
f 128/220/18 132/253/18 124/254/18 133/221/18
f 127/244/16 131/255/16 132/256/16 128/220/16
f 140/213/16 136/212/16 134/252/16 142/257/16
f 134/246/17 123/258/17 131/259/17 127/244/17
f 107/260/16 109/261/16 133/247/16 135/238/16
f 125/241/16 137/262/16 138/263/16 126/211/16
f 107/260/13 135/238/13 125/241/13 108/242/13
f 126/211/17 138/264/17 130/265/17 136/212/17
f 139/266/18 140/267/18 142/268/18 141/269/18
f 171/270/18 173/271/18 172/272/18
f 173/271/18 168/273/18 167/274/18 172/272/18
f 166/275/17 175/276/17 176/277/17 165/278/17
f 172/279/14 167/280/14 166/275/14 169/281/14
f 169/281/17 166/275/17 165/278/17 174/282/17
f 169/281/17 174/282/17 170/283/17
f 171/284/19 172/279/19 169/281/19 170/285/19
f 168/273/18 178/286/18 177/287/18 167/274/18
f 167/280/14 177/288/14 175/276/14 166/275/14
f 165/289/16 176/290/16 178/291/16 168/292/16
f 185/293/18 186/294/18 187/295/18
f 187/295/18 186/294/18 181/296/18 182/297/18
f 180/298/17 179/299/17 190/300/17 189/301/17
f 186/302/16 183/303/16 180/298/16 181/304/16
f 183/303/17 188/305/17 179/299/17 180/298/17
f 183/303/17 184/306/17 188/305/17
f 185/307/20 184/308/20 183/303/20 186/302/20
f 182/297/18 181/296/18 191/309/18 192/310/18
f 181/304/16 180/298/16 189/301/16 191/311/16
f 179/312/14 182/313/14 192/314/14 190/315/14
f 187/316/14 182/313/14 179/312/14 188/317/14
f 184/308/13 185/318/13 194/319/13 193/320/13
f 188/321/17 184/322/17 193/323/17 196/324/17
f 185/318/18 187/325/18 195/326/18 194/327/18
f 187/328/15 188/329/15 196/330/15 195/331/15
f 197/332/21 199/333/21 200/334/21 198/335/21
f 203/336/22 201/337/22 202/338/22 204/339/22
f 209/340/13 197/341/13 198/342/13 210/343/13
f 199/344/18 197/345/18 201/346/18 203/347/18
f 204/348/17 202/349/17 198/350/17 200/351/17
f 199/352/23 205/353/23 206/354/23 200/355/23
f 205/356/24 207/357/24 208/358/24 206/359/24
f 207/360/25 203/336/25 204/339/25 208/361/25
f 201/337/15 211/362/15 212/363/15 202/338/15
f 205/364/18 199/365/18 203/347/18 207/366/18
f 208/367/17 204/348/17 200/368/17 206/369/17
f 197/370/18 209/371/18 211/372/18 201/346/18
f 202/349/17 212/373/17 210/374/17 198/375/17
f 210/374/16 212/376/16 211/377/16 209/378/16
usemtl CIRCUITRY
f 153/379/15 154/380/15 158/381/15 157/382/15
f 151/383/16 164/384/16 162/385/16 149/386/16
f 145/387/17 144/388/17 143/389/17 146/390/17
f 147/391/14 143/392/14 144/393/14 148/394/14
f 153/395/16 156/396/16 155/397/16 154/398/16
f 156/399/13 160/400/13 159/401/13 155/402/13
f 161/403/18 162/385/18 164/384/18 163/404/18
f 150/405/14 161/406/14 163/407/14 152/408/14
f 152/408/15 163/407/15 164/409/15 151/410/15
f 149/386/13 162/385/13 161/411/13 150/412/13
