# Blender v2.80 (sub 75) OBJ File: 'constructs.blend'
# www.blender.org
mtllib head_smart.mtl
o HEAD_SMART_DIAMOND_Cube.297
v 0.156250 1.312500 0.156250
v 0.156250 1.625000 0.156250
v -0.156250 1.312500 0.156250
v -0.156250 1.625000 0.156250
v 0.156250 1.312500 -0.156250
v 0.156250 1.625000 -0.156250
v -0.156250 1.312500 -0.156250
v -0.156250 1.625000 -0.156250
v -0.156250 1.375000 0.093750
v -0.156250 1.562500 0.093750
v -0.156250 1.562500 -0.093750
v -0.156250 1.375000 -0.093750
v 0.156250 1.375000 -0.093750
v 0.156250 1.562500 -0.093750
v 0.156250 1.562500 0.093750
v 0.156250 1.375000 0.093750
v -0.140625 1.375000 -0.093750
v -0.140625 1.375000 0.093750
v -0.140625 1.562500 0.093750
v -0.140625 1.562500 -0.093750
v 0.140625 1.375000 0.093750
v 0.140625 1.375000 -0.093750
v 0.140625 1.562500 -0.093750
v 0.140625 1.562500 0.093750
v 0.093750 1.375000 0.156250
v -0.093750 1.609375 0.140625
v 0.093750 1.609375 0.140625
v -0.093750 1.375000 0.156250
v 0.093750 1.375000 0.140625
v 0.093750 1.625000 -0.093750
v -0.093750 1.625000 -0.093750
v -0.093750 1.375000 0.140625
v -0.093750 1.625000 0.156250
v 0.093750 1.625000 0.156250
v -0.093750 1.609375 -0.093750
v 0.093750 1.609375 -0.093750
v -0.140625 1.375000 -0.093750
v -0.140625 1.375000 0.093750
v -0.140625 1.562500 0.093750
v -0.140625 1.562500 -0.093750
v 0.140625 1.375000 0.093750
v 0.140625 1.375000 -0.093750
v 0.140625 1.562500 -0.093750
v 0.140625 1.562500 0.093750
v -0.093750 1.609375 0.140625
v 0.093750 1.609375 0.140625
v 0.093750 1.375000 0.140625
v -0.093750 1.375000 0.140625
v -0.093750 1.609375 -0.093750
v 0.093750 1.609375 -0.093750
v -0.218750 1.375000 0.093750
v -0.218750 1.562500 0.093750
v -0.218750 1.375000 -0.031250
v -0.218750 1.562500 -0.031250
v -0.093750 1.375000 0.093750
v -0.093750 1.562500 0.093750
v -0.093750 1.375000 -0.031250
v -0.093750 1.562500 -0.031250
v -0.156250 1.312500 0.031250
v -0.156250 1.625000 0.031250
v -0.218750 1.500000 0.218750
v -0.218750 1.687500 0.218750
v -0.218750 1.500000 0.093750
v -0.218750 1.687500 0.093750
v -0.093750 1.500000 0.218750
v -0.093750 1.687500 0.218750
v -0.093750 1.500000 0.093750
v -0.093750 1.687500 0.093750
v -0.156250 1.437500 0.156250
v -0.156250 1.750000 0.156250
v -0.281250 1.437500 0.156250
v -0.281250 1.625000 0.156250
v -0.281250 1.437500 0.031250
v -0.281250 1.625000 0.031250
v -0.156250 1.437500 0.156250
v -0.156250 1.625000 0.156250
v -0.156250 1.437500 0.031250
v -0.156250 1.625000 0.031250
v -0.218750 1.375000 0.093750
v -0.218750 1.687500 0.093750
v 0.218750 1.375000 0.093750
v 0.218750 1.562500 0.093750
v 0.218750 1.375000 -0.031250
v 0.218750 1.562500 -0.031250
v 0.093750 1.375000 0.093750
v 0.093750 1.562500 0.093750
v 0.093750 1.375000 -0.031250
v 0.093750 1.562500 -0.031250
v 0.156250 1.312500 0.031250
v 0.156250 1.625000 0.031250
v 0.281250 1.437500 0.156250
v 0.281250 1.625000 0.156250
v 0.281250 1.437500 0.031250
v 0.281250 1.625000 0.031250
v 0.156250 1.437500 0.156250
v 0.156250 1.625000 0.156250
v 0.156250 1.437500 0.031250
v 0.156250 1.625000 0.031250
v 0.218750 1.375000 0.093750
v 0.218750 1.687500 0.093750
v 0.218750 1.500000 0.218750
v 0.218750 1.687500 0.218750
v 0.218750 1.500000 0.093750
v 0.218750 1.687500 0.093750
v 0.093750 1.500000 0.218750
v 0.093750 1.687500 0.218750
v 0.093750 1.500000 0.093750
v 0.093750 1.687500 0.093750
v 0.156250 1.437500 0.156250
v 0.156250 1.750000 0.156250
v 0.156250 1.562500 0.281250
v 0.156250 1.812500 0.281250
v 0.156250 1.562500 0.156250
v 0.156250 1.812500 0.156250
v 0.031250 1.562500 0.281250
v 0.031250 1.812500 0.281250
v 0.031250 1.562500 0.156250
v 0.031250 1.812500 0.156250
v 0.093750 1.500000 0.218750
v 0.093750 1.875000 0.218750
v -0.156250 1.562500 0.281250
v -0.156250 1.812500 0.281250
v -0.156250 1.562500 0.156250
v -0.156250 1.812500 0.156250
v -0.031250 1.562500 0.281250
v -0.031250 1.812500 0.281250
v -0.031250 1.562500 0.156250
v -0.031250 1.812500 0.156250
v -0.093750 1.500000 0.218750
v -0.093750 1.875000 0.218750
v -0.062500 1.562500 0.062500
v -0.062500 1.687500 0.062500
v -0.062500 1.562500 -0.062500
v -0.062500 1.687500 -0.062500
v 0.062500 1.562500 0.062500
v 0.062500 1.687500 0.062500
v 0.062500 1.562500 -0.062500
v 0.062500 1.687500 -0.062500
v 0.000000 1.750000 0.000000
vt 1.000000 0.218750
vt 0.984375 0.218750
vt 0.984375 0.281250
vt 1.000000 0.296875
vt 0.937500 0.312500
vt 0.984375 0.312500
vt 0.984375 0.328125
vt 0.937500 0.328125
vt 1.000000 0.375000
vt 1.000000 0.453125
vt 0.921875 0.453125
vt 0.921875 0.375000
vt 0.984375 0.328125
vt 0.937500 0.328125
vt 0.937500 0.312500
vt 0.984375 0.312500
vt 1.000000 0.296875
vt 0.984375 0.281250
vt 1.000000 0.296875
vt 1.000000 0.375000
vt 0.984375 0.359375
vt 0.921875 0.375000
vt 0.937500 0.359375
vt 0.921875 0.296875
vt 0.921875 0.296875
vt 0.921875 0.375000
vt 0.937500 0.359375
vt 0.937500 0.312500
vt 1.000000 0.375000
vt 0.984375 0.359375
vt 0.984375 0.312500
vt 0.937500 0.343750
vt 0.984375 0.343750
vt 0.953125 0.359375
vt 0.953125 0.312500
vt 0.937500 0.312500
vt 0.937500 0.359375
vt 0.968750 0.359375
vt 0.968750 0.312500
vt 0.984375 0.343750
vt 0.937500 0.343750
vt 0.968750 0.312500
vt 0.968750 0.359375
vt 0.953125 0.312500
vt 0.953125 0.359375
vt 0.937500 0.359375
vt 0.921875 0.218750
vt 0.921875 0.296875
vt 0.937500 0.281250
vt 0.937500 0.218750
vt 0.937500 0.281250
vt 0.937500 0.265625
vt 0.984375 0.265625
vt 0.921875 0.296875
vt 0.953125 0.281250
vt 0.953125 0.222656
vt 0.984375 0.265625
vt 0.937500 0.265625
vt 0.968750 0.281250
vt 0.968750 0.222656
vt 0.953125 0.281250
vt 0.968750 0.281250
vt 0.984375 0.468750
vt 0.968750 0.468750
vt 0.968750 0.484375
vt 0.984375 0.484375
vt 0.093750 0.796875
vt 0.093750 0.843750
vt 0.062500 0.843750
vt 0.062500 0.796875
vt 0.031250 0.843750
vt 0.031250 0.796875
vt 0.156250 0.796875
vt 0.156250 0.843750
vt 0.125000 0.843750
vt 0.125000 0.796875
vt -0.000000 0.796875
vt 0.031250 0.796875
vt 0.015625 0.812500
vt 0.187500 0.796875
vt 0.187500 0.828125
vt 0.171875 0.812500
vt 0.156250 0.828125
vt 0.156250 0.796875
vt 0.031250 0.828125
vt -0.000000 0.828125
vt 0.093750 0.796875
vt 0.093750 0.843750
vt 0.062500 0.843750
vt 0.062500 0.796875
vt 0.031250 0.843750
vt 0.031250 0.796875
vt 0.156250 0.796875
vt 0.156250 0.843750
vt 0.125000 0.843750
vt 0.125000 0.796875
vt 0.000000 0.796875
vt 0.031250 0.796875
vt 0.015625 0.812500
vt 0.187500 0.796875
vt 0.187500 0.828125
vt 0.171875 0.812500
vt 0.156250 0.828125
vt 0.156250 0.796875
vt 0.031250 0.828125
vt 0.000000 0.828125
vt 0.093750 0.796875
vt 0.093750 0.843750
vt 0.062500 0.843750
vt 0.062500 0.796875
vt 0.031250 0.843750
vt 0.031250 0.796875
vt 0.156250 0.796875
vt 0.156250 0.843750
vt 0.125000 0.843750
vt 0.125000 0.796875
vt 0.000000 0.796875
vt 0.031250 0.796875
vt 0.015625 0.812500
vt 0.187500 0.796875
vt 0.187500 0.828125
vt 0.171875 0.812500
vt 0.156250 0.828125
vt 0.156250 0.796875
vt 0.031250 0.828125
vt 0.000000 0.828125
vt 0.093750 0.796875
vt 0.062500 0.796875
vt 0.062500 0.843750
vt 0.093750 0.843750
vt 0.031250 0.796875
vt 0.031250 0.843750
vt 0.156250 0.796875
vt 0.125000 0.796875
vt 0.125000 0.843750
vt 0.156250 0.843750
vt -0.000000 0.796875
vt 0.015625 0.812500
vt 0.031250 0.796875
vt 0.187500 0.796875
vt 0.171875 0.812500
vt 0.187500 0.828125
vt 0.156250 0.828125
vt 0.156250 0.796875
vt 0.031250 0.828125
vt -0.000000 0.828125
vt 0.093750 0.796875
vt 0.062500 0.796875
vt 0.062500 0.843750
vt 0.093750 0.843750
vt 0.031250 0.796875
vt 0.031250 0.843750
vt 0.156250 0.796875
vt 0.125000 0.796875
vt 0.125000 0.843750
vt 0.156250 0.843750
vt 0.000000 0.796875
vt 0.015625 0.812500
vt 0.031250 0.796875
vt 0.187500 0.796875
vt 0.171875 0.812500
vt 0.187500 0.828125
vt 0.156250 0.828125
vt 0.156250 0.796875
vt 0.031250 0.828125
vt 0.000000 0.828125
vt 0.093750 0.796875
vt 0.062500 0.796875
vt 0.062500 0.843750
vt 0.093750 0.843750
vt 0.031250 0.796875
vt 0.031250 0.843750
vt 0.156250 0.796875
vt 0.125000 0.796875
vt 0.125000 0.843750
vt 0.156250 0.843750
vt 0.000000 0.796875
vt 0.015625 0.812500
vt 0.031250 0.796875
vt 0.187500 0.796875
vt 0.171875 0.812500
vt 0.187500 0.828125
vt 0.156250 0.828125
vt 0.156250 0.796875
vt 0.031250 0.828125
vt 0.000000 0.828125
vt 0.093750 0.843750
vt 0.062500 0.843750
vt 0.062500 0.906250
vt 0.093750 0.906250
vt 0.031250 0.843750
vt 0.031250 0.906250
vt 0.156250 0.843750
vt 0.125000 0.843750
vt 0.125000 0.906250
vt 0.156250 0.906250
vt -0.000000 0.843750
vt 0.015625 0.859375
vt 0.031250 0.843750
vt 0.187500 0.843750
vt 0.171875 0.859375
vt 0.187500 0.875000
vt 0.156250 0.875000
vt 0.156250 0.843750
vt 0.031250 0.875000
vt -0.000000 0.875000
vt 0.093750 0.843750
vt 0.093750 0.906250
vt 0.062500 0.906250
vt 0.062500 0.843750
vt 0.031250 0.906250
vt 0.031250 0.843750
vt 0.156250 0.843750
vt 0.156250 0.906250
vt 0.125000 0.906250
vt 0.125000 0.843750
vt -0.000000 0.843750
vt 0.031250 0.843750
vt 0.015625 0.859375
vt 0.187500 0.843750
vt 0.187500 0.875000
vt 0.171875 0.859375
vt 0.156250 0.875000
vt 0.156250 0.843750
vt 0.031250 0.875000
vt -0.000000 0.875000
vt 0.000000 0.437500
vt 0.187500 0.437500
vt 0.187500 0.625000
vt 0.000000 0.625000
vt 0.000000 0.437500
vt 0.187500 0.437500
vt 0.187500 0.625000
vt -0.000000 0.625000
vt 0.187500 0.437500
vt 0.187500 0.203125
vt 0.000000 0.203125
vt 0.000000 0.437500
vt 0.000000 0.000000
vt 0.000000 0.234375
vt 0.187500 0.234375
vt 0.187500 0.000000
vt 0.375000 0.625000
vt 0.375000 0.750000
vt 0.500000 0.750000
vt 0.500000 0.625000
vt 0.625000 0.625000
vt 0.625000 0.750000
vt 0.500000 0.750000
vt 0.500000 0.625000
vt 0.375000 0.750000
vt 0.375000 0.625000
vt 0.250000 0.750000
vt 0.250000 0.625000
vt 0.562500 0.812500
vt 0.437500 0.812500
vt 0.312500 0.812500
vn 0.0000 0.0000 1.0000
vn 0.0000 1.0000 0.0000
vn 0.0000 0.0000 -1.0000
vn -1.0000 0.0000 0.0000
vn 1.0000 0.0000 0.0000
vn 0.0000 -1.0000 0.0000
vn 0.0000 0.7071 -0.7071
vn 0.0000 -0.7071 -0.7071
vn 0.7071 -0.7071 0.0000
vn 0.0000 -0.7071 0.7071
vn -0.7071 -0.7071 0.0000
vn -0.7071 0.7071 0.0000
vn 0.0000 0.7071 0.7071
vn 0.7071 0.7071 0.0000
usemtl MAIN
s off
f 2/1/1 34/2/1 25/3/1 1/4/1
f 12/5/2 9/6/2 18/7/2 17/8/2
f 7/9/3 8/10/3 6/11/3 5/12/3
f 16/13/2 13/14/2 22/15/2 21/16/2
f 34/2/2 2/1/2 6/17/2 30/18/2
f 3/19/4 4/20/4 10/21/4 9/6/4
f 4/20/4 8/22/4 11/23/4 10/21/4
f 8/22/4 7/24/4 12/5/4 11/23/4
f 7/24/4 3/19/4 9/6/4 12/5/4
f 5/25/5 6/26/5 14/27/5 13/28/5
f 6/26/5 2/29/5 15/30/5 14/27/5
f 2/29/5 1/4/5 16/31/5 15/30/5
f 1/4/5 5/25/5 13/28/5 16/31/5
f 10/21/6 11/23/6 20/32/6 19/33/6
f 11/34/1 12/35/1 17/36/1 20/37/1
f 9/6/3 10/21/3 19/38/3 18/39/3
f 14/27/6 15/30/6 24/40/6 23/41/6
f 15/30/3 16/31/3 21/42/3 24/43/3
f 13/44/1 14/45/1 23/46/1 22/15/1
f 4/47/1 3/48/1 28/49/1 33/50/1
f 30/18/1 31/51/1 35/52/1 36/53/1
f 3/48/1 1/4/1 25/3/1 28/49/1
f 4/47/2 33/50/2 31/51/2 8/54/2
f 6/17/2 8/54/2 31/51/2 30/18/2
f 33/50/5 28/49/5 32/55/5 26/56/5
f 28/49/2 25/3/2 29/57/2 32/58/2
f 34/2/4 30/18/4 36/59/4 27/60/4
f 31/51/5 33/50/5 26/56/5 35/61/5
f 25/3/4 34/2/4 27/60/4 29/62/4
f 5/63/6 1/64/6 3/65/6 7/66/6
f 51/67/4 52/68/4 54/69/4 53/70/4
f 53/70/3 54/69/3 58/71/3 57/72/3
f 57/73/5 58/74/5 56/75/5 55/76/5
f 55/76/1 56/75/1 52/68/1 51/67/1
f 58/77/7 54/78/7 60/79/7
f 53/80/8 57/81/8 59/82/8
f 57/81/9 55/83/9 59/82/9
f 55/83/10 51/84/10 59/82/10
f 51/84/11 53/80/11 59/82/11
f 54/78/12 52/85/12 60/79/12
f 52/85/13 56/86/13 60/79/13
f 56/86/14 58/77/14 60/79/14
f 61/87/4 62/88/4 64/89/4 63/90/4
f 63/90/3 64/89/3 68/91/3 67/92/3
f 67/93/5 68/94/5 66/95/5 65/96/5
f 65/96/1 66/95/1 62/88/1 61/87/1
f 68/97/7 64/98/7 70/99/7
f 63/100/8 67/101/8 69/102/8
f 67/101/9 65/103/9 69/102/9
f 65/103/10 61/104/10 69/102/10
f 61/104/11 63/100/11 69/102/11
f 64/98/12 62/105/12 70/99/12
f 62/105/13 66/106/13 70/99/13
f 66/106/14 68/97/14 70/99/14
f 71/107/4 72/108/4 74/109/4 73/110/4
f 73/110/3 74/109/3 78/111/3 77/112/3
f 77/113/5 78/114/5 76/115/5 75/116/5
f 75/116/1 76/115/1 72/108/1 71/107/1
f 78/117/7 74/118/7 80/119/7
f 73/120/8 77/121/8 79/122/8
f 77/121/9 75/123/9 79/122/9
f 75/123/10 71/124/10 79/122/10
f 71/124/11 73/120/11 79/122/11
f 74/118/12 72/125/12 80/119/12
f 72/125/13 76/126/13 80/119/13
f 76/126/14 78/117/14 80/119/14
f 81/127/5 83/128/5 84/129/5 82/130/5
f 83/128/3 87/131/3 88/132/3 84/129/3
f 87/133/4 85/134/4 86/135/4 88/136/4
f 85/134/1 81/127/1 82/130/1 86/135/1
f 88/137/7 90/138/7 84/139/7
f 83/140/8 89/141/8 87/142/8
f 87/142/11 89/141/11 85/143/11
f 85/143/10 89/141/10 81/144/10
f 81/144/9 89/141/9 83/140/9
f 84/139/14 90/138/14 82/145/14
f 82/145/13 90/138/13 86/146/13
f 86/146/12 90/138/12 88/137/12
f 91/147/5 93/148/5 94/149/5 92/150/5
f 93/148/3 97/151/3 98/152/3 94/149/3
f 97/153/4 95/154/4 96/155/4 98/156/4
f 95/154/1 91/147/1 92/150/1 96/155/1
f 98/157/7 100/158/7 94/159/7
f 93/160/8 99/161/8 97/162/8
f 97/162/11 99/161/11 95/163/11
f 95/163/10 99/161/10 91/164/10
f 91/164/9 99/161/9 93/160/9
f 94/159/14 100/158/14 92/165/14
f 92/165/13 100/158/13 96/166/13
f 96/166/12 100/158/12 98/157/12
f 101/167/5 103/168/5 104/169/5 102/170/5
f 103/168/3 107/171/3 108/172/3 104/169/3
f 107/173/4 105/174/4 106/175/4 108/176/4
f 105/174/1 101/167/1 102/170/1 106/175/1
f 108/177/7 110/178/7 104/179/7
f 103/180/8 109/181/8 107/182/8
f 107/182/11 109/181/11 105/183/11
f 105/183/10 109/181/10 101/184/10
f 101/184/9 109/181/9 103/180/9
f 104/179/14 110/178/14 102/185/14
f 102/185/13 110/178/13 106/186/13
f 106/186/12 110/178/12 108/177/12
f 111/187/5 113/188/5 114/189/5 112/190/5
f 113/188/3 117/191/3 118/192/3 114/189/3
f 117/193/4 115/194/4 116/195/4 118/196/4
f 115/194/1 111/187/1 112/190/1 116/195/1
f 118/197/7 120/198/7 114/199/7
f 113/200/8 119/201/8 117/202/8
f 117/202/11 119/201/11 115/203/11
f 115/203/10 119/201/10 111/204/10
f 111/204/9 119/201/9 113/200/9
f 114/199/14 120/198/14 112/205/14
f 112/205/13 120/198/13 116/206/13
f 116/206/12 120/198/12 118/197/12
f 121/207/4 122/208/4 124/209/4 123/210/4
f 123/210/3 124/209/3 128/211/3 127/212/3
f 127/213/5 128/214/5 126/215/5 125/216/5
f 125/216/1 126/215/1 122/208/1 121/207/1
f 128/217/7 124/218/7 130/219/7
f 123/220/8 127/221/8 129/222/8
f 127/221/9 125/223/9 129/222/9
f 125/223/10 121/224/10 129/222/10
f 121/224/11 123/220/11 129/222/11
f 124/218/12 122/225/12 130/219/12
f 122/225/13 126/226/13 130/219/13
f 126/226/14 128/217/14 130/219/14
usemtl CIRCUITRY
f 38/227/4 39/228/4 40/229/4 37/230/4
f 42/231/5 43/232/5 44/233/5 41/234/5
f 49/235/2 45/236/2 46/237/2 50/238/2
f 47/239/1 46/240/1 45/241/1 48/242/1
usemtl CHIMERITE
f 131/243/4 132/244/4 134/245/4 133/246/4
f 133/247/3 134/248/3 138/249/3 137/250/3
f 137/250/5 138/249/5 136/251/5 135/252/5
f 135/252/1 136/251/1 132/253/1 131/254/1
f 138/249/7 134/248/7 139/255/7
f 134/245/12 132/244/12 139/256/12
f 132/253/13 136/251/13 139/257/13
f 136/251/14 138/249/14 139/256/14
