# Blender v2.80 (sub 75) OBJ File: 'constructs.blend'
# www.blender.org
mtllib leg_ender_back_l.mtl
o ELEG_LEFTBACK_DECO_DIAMOND_Cube.308
v -0.406250 0.552898 0.283128
v -0.406250 0.792416 0.211496
v -0.406250 0.588713 0.402887
v -0.406250 0.828232 0.331255
v -0.281250 0.552898 0.283128
v -0.281250 0.792416 0.211496
v -0.281250 0.588713 0.402887
v -0.281250 0.828232 0.331255
v -0.343750 0.510926 0.360915
v -0.343750 0.870203 0.253468
v -0.343750 0.000362 0.394532
v -0.343750 0.250362 0.394532
v -0.343750 0.000362 0.519532
v -0.343750 0.250362 0.519532
v -0.218750 0.000362 0.394532
v -0.218750 0.250362 0.394532
v -0.218750 0.000362 0.519532
v -0.218750 0.250362 0.519532
v -0.281250 0.000362 0.457032
v -0.281250 0.312862 0.457032
v -0.281250 0.000362 0.582032
v -0.281250 0.125362 0.582032
v -0.406250 0.000362 0.582032
v -0.406250 0.125362 0.582032
v -0.406250 0.000362 0.457032
v -0.406250 0.125362 0.457032
v -0.343750 0.000362 0.519532
v -0.343750 0.187862 0.519532
v -0.281250 0.000362 0.519532
v -0.281250 0.125362 0.519532
v -0.343750 0.000362 0.457032
v -0.343750 0.125362 0.457032
vt 0.093750 0.843750
vt 0.062500 0.843750
vt 0.062500 0.906250
vt 0.093750 0.906250
vt 0.031250 0.843750
vt 0.031250 0.906250
vt 0.156250 0.843750
vt 0.125000 0.843750
vt 0.125000 0.906250
vt 0.156250 0.906250
vt -0.000000 0.843750
vt 0.015625 0.859375
vt 0.031250 0.843750
vt 0.187500 0.843750
vt 0.171875 0.859375
vt 0.187500 0.875000
vt 0.156250 0.875000
vt 0.156250 0.843750
vt 0.031250 0.875000
vt -0.000000 0.875000
vt 0.093750 0.843750
vt 0.062500 0.843750
vt 0.062500 0.906250
vt 0.093750 0.906250
vt 0.031250 0.843750
vt 0.031250 0.906250
vt 0.156250 0.843750
vt 0.125000 0.843750
vt 0.125000 0.906250
vt 0.156250 0.906250
vt -0.000000 0.843750
vt 0.015625 0.859375
vt 0.031250 0.843750
vt 0.156250 0.875000
vt 0.171875 0.859375
vt 0.187500 0.875000
vt 0.156250 0.875000
vt 0.156250 0.843750
vt 0.031250 0.875000
vt -0.000000 0.875000
vt 0.031250 0.765625
vt 0.031250 0.796875
vt 0.015625 0.781250
vt 0.062500 0.765625
vt 0.062500 0.796875
vt 0.031250 0.796875
vt 0.031250 0.765625
vt -0.000000 0.765625
vt 0.187500 0.765625
vt 0.187500 0.796875
vt 0.171875 0.781250
vt 0.156250 0.781250
vt 0.156250 0.765625
vt 0.093750 0.765625
vt 0.093750 0.796875
vt 0.000000 0.781250
vt 0.109375 0.765625
vt 0.109375 0.796875
vt 0.156250 0.765625
vt 0.156250 0.796875
vt 0.140625 0.796875
vt 0.140625 0.765625
vt 0.015625 0.796875
vt 0.171875 0.796875
vn -1.0000 -0.0000 0.0000
vn 0.0000 0.2865 0.9581
vn 1.0000 0.0000 0.0000
vn 0.0000 -0.2865 -0.9581
vn 0.0000 0.8801 0.4749
vn 0.0000 -0.4749 0.8801
vn 0.7071 -0.6775 0.2026
vn 0.0000 -0.8801 -0.4749
vn -0.7071 -0.6775 0.2026
vn -0.7071 0.6775 -0.2026
vn 0.0000 0.4749 -0.8801
vn 0.7071 0.6775 -0.2026
vn 0.0000 0.0000 1.0000
vn 0.0000 0.0000 -1.0000
vn 0.0000 0.7071 0.7071
vn 0.0000 -1.0000 0.0000
vn -0.7071 0.7071 0.0000
vn 0.0000 0.7071 -0.7071
vn 0.7071 0.7071 0.0000
usemtl MAIN
s off
f 1/1/1 3/2/1 4/3/1 2/4/1
f 3/2/2 7/5/2 8/6/2 4/3/2
f 7/7/3 5/8/3 6/9/3 8/10/3
f 5/8/4 1/1/4 2/4/4 6/9/4
f 8/11/5 10/12/5 4/13/5
f 3/14/6 9/15/6 7/16/6
f 7/16/7 9/15/7 5/17/7
f 5/17/8 9/15/8 1/18/8
f 1/18/9 9/15/9 3/14/9
f 4/13/10 10/12/10 2/19/10
f 2/19/11 10/12/11 6/20/11
f 6/20/12 10/12/12 8/11/12
f 11/21/1 13/22/1 14/23/1 12/24/1
f 13/22/13 17/25/13 18/26/13 14/23/13
f 17/27/3 15/28/3 16/29/3 18/30/3
f 15/28/14 11/21/14 12/24/14 16/29/14
f 18/31/15 20/32/15 14/33/15
f 13/34/16 19/35/16 17/36/16
f 17/36/16 19/35/16 15/37/16
f 15/37/16 19/35/16 11/38/16
f 11/38/16 19/35/16 13/34/16
f 14/33/17 20/32/17 12/39/17
f 12/39/18 20/32/18 16/40/18
f 16/40/19 20/32/19 18/31/19
f 24/41/15 22/42/15 28/43/15
f 23/44/1 24/45/1 26/46/1 25/47/1
f 26/48/17 24/41/17 28/43/17
f 23/49/16 25/50/16 27/51/16
f 27/51/16 29/52/16 21/53/16
f 21/53/16 23/49/16 27/51/16
f 21/54/13 22/55/13 24/45/13 23/44/13
f 28/43/18 32/56/18 26/48/18
f 29/57/3 30/58/3 22/55/3 21/54/3
f 25/59/14 26/60/14 32/61/14 31/62/14
f 22/42/19 30/63/19 28/43/19
f 25/50/16 31/64/16 27/51/16
o LEG_ENDER_LEFTBACK_Cube.004
v -0.187500 0.528185 0.213441
v -0.250000 0.707312 0.028185
v -0.375000 0.528185 0.213441
v -0.312500 0.707312 0.028185
v -0.187500 0.690565 0.307191
v -0.250000 0.761438 0.059435
v -0.375000 0.690565 0.307191
v -0.312500 0.761438 0.059435
v -0.187500 0.621935 0.051062
v -0.375000 0.621935 0.051062
v -0.375000 0.784315 0.144812
v -0.187500 0.784315 0.144812
v -0.218750 0.415416 0.258015
v -0.343750 0.415416 0.258015
v -0.218750 0.450775 0.377910
v -0.343750 0.450775 0.377910
v -0.218750 0.655206 0.187297
v -0.343750 0.655206 0.187297
v -0.343750 0.690565 0.307191
v -0.218750 0.690565 0.307191
v -0.312500 0.322041 0.383295
v -0.312500 0.304361 0.323347
v -0.250000 0.304361 0.323347
v -0.250000 0.322041 0.383295
v -0.250000 0.064572 0.394065
v -0.250000 0.082252 0.454013
v -0.312500 0.082252 0.454013
v -0.312500 0.064572 0.394065
v -0.281250 0.000362 0.445583
vt 0.875000 0.406250
vt 0.921875 0.406250
vt 0.921875 0.359375
vt 0.875000 0.359375
vt 0.875000 0.406250
vt 0.875000 0.359375
vt 0.921875 0.406250
vt 0.921875 0.359375
vt 0.875000 0.359375
vt 0.921875 0.359375
vt 0.921875 0.312500
vt 0.875000 0.312500
vt 0.890625 0.296875
vt 0.906250 0.296875
vt 0.906250 0.281250
vt 0.890625 0.281250
vt 0.921875 0.265625
vt 0.875000 0.265625
vt 0.875000 0.312500
vt 0.921875 0.312500
vt 0.875000 0.234375
vt 0.843750 0.234375
vt 0.843750 0.296875
vt 0.875000 0.296875
vt 0.812500 0.234375
vt 0.843750 0.234375
vt 0.843750 0.296875
vt 0.812500 0.296875
vt 0.875000 0.234375
vt 0.843750 0.234375
vt 0.843750 0.296875
vt 0.875000 0.296875
vt 0.812500 0.234375
vt 0.843750 0.234375
vt 0.843750 0.296875
vt 0.812500 0.296875
vt 0.835938 0.203125
vt 0.820312 0.203125
vt 0.812500 0.234375
vt 0.867188 0.203125
vt 0.851562 0.203125
vt 0.820312 0.203125
vt 0.835938 0.203125
vt 0.867188 0.203125
vt 0.851562 0.203125
vt 0.906250 0.265625
vt 0.906250 0.203125
vt 0.890625 0.203125
vt 0.890625 0.265625
vt 0.921875 0.203125
vt 0.906250 0.187500
vt 0.906250 0.203125
vt 0.906250 0.265625
vt 0.906250 0.203125
vt 0.921875 0.203125
vt 0.921875 0.265625
vt 0.921875 0.265625
vt 0.921875 0.203125
vt 0.890625 0.265625
vt 0.890625 0.203125
vt 0.906250 0.203125
vt 0.906250 0.265625
vt 0.921875 0.203125
vt 0.890625 0.187500
vn 0.0000 -0.8660 -0.5000
vn -1.0000 -0.0000 0.0000
vn 0.0000 0.8660 0.5000
vn 1.0000 0.0000 -0.0000
vn 0.0000 -0.5000 0.8660
vn -0.0000 0.5000 -0.8660
vn -0.0000 -0.2588 -0.9659
vn -0.7071 0.3536 -0.6124
vn -0.0000 0.9659 -0.2588
vn 0.7071 0.3536 -0.6124
vn 0.0000 -0.2829 -0.9592
vn 0.0000 0.2829 0.9592
vn 0.9701 -0.2326 0.0686
vn 0.0000 0.0418 0.9991
vn -0.9701 -0.2326 0.0686
vn 0.0000 -0.5071 -0.8619
vn 0.0000 -0.1024 0.9947
vn 0.0000 -0.6258 -0.7800
vn 0.9251 -0.3641 0.1074
vn -0.9251 -0.3641 0.1074
usemtl MAIN
s off
f 33/65/20 35/66/20 42/67/20 41/68/20
f 35/66/21 39/69/21 43/70/21 42/67/21
f 39/69/22 37/71/22 44/72/22 43/70/22
f 37/71/23 33/65/23 41/68/23 44/72/23
f 35/73/24 33/74/24 37/75/24 39/76/24
f 40/77/25 38/78/25 34/79/25 36/80/25
f 34/79/26 41/81/26 42/82/26 36/80/26
f 36/80/27 42/82/27 43/83/27 40/77/27
f 40/77/28 43/83/28 44/84/28 38/78/28
f 38/78/29 44/84/29 41/81/29 34/79/29
f 45/85/30 46/86/30 50/87/30 49/88/30
f 46/89/21 48/90/21 51/91/21 50/92/21
f 48/93/31 47/94/31 52/95/31 51/96/31
f 47/97/23 45/98/23 49/99/23 52/100/23
f 47/94/32 56/101/32 55/102/32 45/103/32
f 48/93/33 53/104/33 56/105/33 47/94/33
f 46/89/34 54/106/34 53/107/34 48/90/34
f 45/85/35 55/108/35 54/109/35 46/86/35
f 54/110/21 60/111/21 59/112/21 53/113/21
f 59/114/36 61/115/36 58/116/36
f 53/117/31 59/118/31 58/119/31 56/120/31
f 55/121/30 57/122/30 60/111/30 54/110/30
f 56/123/23 58/124/23 57/125/23 55/126/23
f 57/125/37 61/115/37 60/127/37
f 58/124/38 61/128/38 57/125/38
f 60/111/39 61/128/39 59/112/39
