# Blender v2.80 (sub 75) OBJ File: 'clay_mug.blend'
# www.blender.org
mtllib clay_mug.mtl
o CLAY_MUG_Cube.002
v 0.343750 0.000000 0.656250
v 0.343750 0.062500 0.656250
v 0.343750 0.000000 0.343750
v 0.343750 0.062500 0.343750
v 0.656250 0.000000 0.656250
v 0.656250 0.062500 0.656250
v 0.656250 0.000000 0.343750
v 0.656250 0.062500 0.343750
v 0.343750 0.312500 0.343750
v 0.343750 0.062500 0.718750
v 0.656250 0.062500 0.718750
v 0.343750 0.312500 0.718750
v 0.343750 0.062500 0.281250
v 0.718750 0.312500 0.656250
v 0.656250 0.062500 0.281250
v 0.718750 0.062500 0.343750
v 0.718750 0.312500 0.343750
v 0.656250 0.312500 0.718750
v 0.718750 0.062500 0.656250
v 0.343750 0.312500 0.281250
v 0.656250 0.312500 0.281250
v 0.281250 0.312500 0.343750
v 0.281250 0.312500 0.656250
v 0.343750 0.312500 0.656250
v 0.281250 0.062500 0.656250
v 0.281250 0.062500 0.343750
v 0.656250 0.312500 0.656250
v 0.656250 0.312500 0.343750
v 0.718750 0.143306 0.468750
v 0.718750 0.143306 0.531250
v 0.674556 0.187500 0.468750
v 0.674556 0.187500 0.531250
v 0.762944 0.187500 0.468750
v 0.762944 0.187500 0.531250
v 0.718750 0.231694 0.468750
v 0.718750 0.231694 0.531250
v 0.762944 0.099112 0.468750
v 0.762944 0.099112 0.531250
v 0.807138 0.143306 0.531250
v 0.807138 0.143306 0.468750
v 0.762944 0.275888 0.531250
v 0.762944 0.275888 0.468750
v 0.807138 0.231694 0.468750
v 0.807138 0.231694 0.531250
v 0.807138 0.320083 0.531250
v 0.807138 0.320083 0.468750
v 0.851333 0.275888 0.468750
v 0.851333 0.275888 0.531250
v 0.807138 0.054917 0.468750
v 0.807138 0.054917 0.531250
v 0.851333 0.099112 0.531250
v 0.851333 0.099112 0.468750
v 0.851333 0.187500 0.531250
v 0.851333 0.187500 0.468750
v 0.895527 0.231694 0.531250
v 0.895527 0.231694 0.468750
v 0.895527 0.143306 0.531250
v 0.895527 0.143306 0.468750
v 0.939721 0.187500 0.531250
v 0.939721 0.187500 0.468750
v 0.375000 0.187500 0.734375
v 0.375000 0.250000 0.734375
v 0.406250 0.156250 0.734375
v 0.406250 0.187500 0.734375
v 0.406250 0.250000 0.734375
v 0.406250 0.281250 0.734375
v 0.468750 0.093750 0.734375
v 0.468750 0.156250 0.734375
v 0.468750 0.187500 0.734375
v 0.468750 0.250000 0.734375
v 0.468750 0.281250 0.734375
v 0.500000 0.093750 0.734375
v 0.500000 0.156250 0.734375
v 0.500000 0.187500 0.734375
v 0.500000 0.250000 0.734375
v 0.531250 0.093750 0.734375
v 0.531250 0.156250 0.734375
v 0.531250 0.187500 0.734375
v 0.531250 0.250000 0.734375
v 0.531250 0.281250 0.734375
v 0.593750 0.156250 0.734375
v 0.593750 0.187500 0.734375
v 0.593750 0.250000 0.734375
v 0.593750 0.281250 0.734375
v 0.625000 0.187500 0.734375
v 0.625000 0.250000 0.734375
v 0.375000 0.187500 0.718750
v 0.375000 0.250000 0.718750
v 0.406250 0.156250 0.718750
v 0.406250 0.281250 0.718750
v 0.468750 0.093750 0.718750
v 0.468750 0.281250 0.718750
v 0.500000 0.093750 0.718750
v 0.500000 0.250000 0.718750
v 0.531250 0.093750 0.718750
v 0.531250 0.281250 0.718750
v 0.593750 0.156250 0.718750
v 0.593750 0.281250 0.718750
v 0.625000 0.187500 0.718750
v 0.625000 0.250000 0.718750
vt 0.687500 0.625000
vt 1.000000 0.625000
vt 1.000000 0.875000
vt 0.687500 0.875000
vt 0.062500 0.750000
vt 0.375000 0.750000
vt 0.375000 1.000000
vt 0.062500 1.000000
vt 0.687500 0.625000
vt 1.000000 0.625000
vt 1.000000 0.875000
vt 0.687500 0.875000
vt 0.000000 0.750000
vt 0.000000 1.000000
vt 0.687500 0.000000
vt 1.000000 0.000000
vt 1.000000 0.312500
vt 0.687500 0.312500
vt 0.687500 0.312500
vt 1.000000 0.312500
vt 1.000000 0.625000
vt 0.687500 0.625000
vt 0.625000 -0.000000
vt 0.687500 -0.000000
vt 0.687500 0.312500
vt 0.625000 0.312500
vt 0.375000 0.312500
vt 0.437500 0.312500
vt 0.375000 0.375000
vt 0.375000 0.312500
vt 0.375000 0.000000
vt 0.437500 0.000000
vt 0.437500 0.312500
vt 0.062500 -0.000000
vt 0.375000 -0.000000
vt 0.375000 0.250000
vt 0.062500 0.250000
vt 0.625000 -0.000000
vt 0.687500 -0.000000
vt 0.687500 0.312500
vt 0.625000 0.312500
vt 0.625000 0.375000
vt 0.625000 0.312500
vt 0.687500 0.312500
vt 0.375000 0.375000
vt 0.375000 0.312500
vt 0.437500 0.312500
vt 0.375000 0.312500
vt 0.375000 0.000000
vt 0.437500 0.000000
vt 0.437500 0.312500
vt 0.625000 -0.000000
vt 0.687500 -0.000000
vt 0.687500 0.312500
vt 0.625000 0.312500
vt 0.625000 0.375000
vt 0.000000 0.250000
vt 0.062500 0.250000
vt 0.062500 0.500000
vt 0.000000 0.500000
vt 0.625000 0.375000
vt 0.062500 0.500000
vt 0.375000 0.500000
vt 0.375000 0.750000
vt 0.062500 0.750000
vt 0.375000 0.000000
vt 0.437500 0.000000
vt 0.687500 0.625000
vt 1.000000 0.625000
vt 1.000000 0.875000
vt 0.687500 0.875000
vt 0.375000 0.375000
vt 0.625000 -0.000000
vt 0.687500 -0.000000
vt 0.625000 0.375000
vt 0.000000 0.500000
vt 0.000000 0.750000
vt 0.375000 0.000000
vt 0.437500 0.000000
vt 0.000000 -0.000000
vt 0.000000 0.250000
vt 0.375000 0.250000
vt 0.375000 0.500000
vt 1.000000 0.875000
vt 0.687500 0.875000
vt 0.375000 0.375000
vt 0.500000 0.312500
vt 0.500000 0.375000
vt 0.437500 0.375000
vt 0.437500 0.312500
vt 0.375000 0.375000
vt 0.437500 0.437500
vt 0.375000 0.437500
vt 0.500000 0.437500
vt 0.437500 0.437500
vt 0.437500 0.500000
vt 0.500000 0.500000
vt 0.562500 0.312500
vt 0.562500 0.375000
vt 0.437500 0.375000
vt 0.500000 0.375000
vt 0.500000 0.437500
vt 0.500000 0.562500
vt 0.500000 0.625000
vt 0.562500 0.625000
vt 0.562500 0.562500
vt 0.562500 0.437500
vt 0.562500 0.375000
vt 0.562500 0.437500
vt 0.562500 0.375000
vt 0.562500 0.312500
vt 0.500000 0.312500
vt 0.500000 0.375000
vt 0.625000 0.437500
vt 0.625000 0.375000
vt 0.500000 0.500000
vt 0.437500 0.500000
vt 0.375000 0.500000
vt 0.437500 0.437500
vt 0.375000 0.437500
vt 0.375000 0.500000
vt 0.437500 0.500000
vt 0.437500 0.625000
vt 0.437500 0.562500
vt 0.500000 0.562500
vt 0.500000 0.625000
vt 0.437500 0.562500
vt 0.500000 0.562500
vt 0.375000 0.562500
vt 0.687500 0.437500
vt 0.625000 0.437500
vt 0.625000 0.375000
vt 0.687500 0.375000
vt 0.687500 0.500000
vt 0.625000 0.500000
vt 0.625000 0.312500
vt 0.562500 0.562500
vt 0.562500 0.500000
vt 0.625000 0.500000
vt 0.562500 0.500000
vt 0.562500 0.562500
vt 0.562500 0.625000
vt 0.687500 0.562500
vt 0.625000 0.562500
vt 0.625000 0.625000
vt 0.625000 0.562500
vt 0.625000 0.437500
vt 0.625000 0.500000
vt 0.687500 0.500000
vt 0.687500 0.437500
vt 0.468750 0.749949
vt 0.468750 0.812449
vt 0.500000 0.812449
vt 0.500000 0.749949
vt 0.562500 0.718699
vt 0.500000 0.718699
vt 0.562500 0.749949
vt 0.500000 0.843699
vt 0.562500 0.843699
vt 0.593750 0.812449
vt 0.562500 0.812449
vt 0.562500 0.843699
vt 0.562500 0.812449
vt 0.500000 0.843699
vt 0.468750 0.812449
vt 0.500000 0.812449
vt 0.468750 0.749949
vt 0.500000 0.718699
vt 0.500000 0.749949
vt 0.562500 0.656199
vt 0.593750 0.718699
vt 0.593750 0.656199
vt 0.593750 0.749949
vt 0.562500 0.718699
vt 0.562500 0.656199
vt 0.562500 0.749949
vt 0.468750 0.812449
vt 0.468750 0.749949
vt 0.500000 0.718699
vt 0.468750 0.749949
vt 0.468750 0.812449
vt 0.500000 0.843699
vt 0.562500 0.843699
vt 0.593750 0.812449
vt 0.593750 0.656199
vt 0.562500 0.656199
vt 0.562500 0.843699
vt 0.500000 0.843699
vt 0.500000 0.718699
vt 0.562500 0.656199
vn 1.0000 0.0000 0.0000
vn -1.0000 0.0000 0.0000
vn 0.0000 0.0000 1.0000
vn -0.7071 0.0000 -0.7071
vn 0.0000 -1.0000 0.0000
vn 0.0000 1.0000 0.0000
vn 0.0000 -0.7071 0.7071
vn 0.0000 0.0000 -1.0000
vn 0.0000 -0.7071 -0.7071
vn -0.5774 -0.5774 -0.5774
vn 0.7071 -0.7071 0.0000
vn 0.5774 -0.5774 0.5774
vn 0.7071 0.0000 0.7071
vn 0.5774 -0.5774 -0.5774
vn -0.7071 -0.7071 0.0000
vn -0.5774 -0.5774 0.5774
vn -0.7071 0.0000 0.7071
vn 0.7071 0.0000 -0.7071
vn -0.7071 0.7071 0.0000
vn 0.7071 0.7071 0.0000
usemtl MAIN
s off
f 2/1/1 4/2/1 9/3/1 24/4/1
f 26/5/2 25/6/2 23/7/2 22/8/2
f 4/9/3 8/10/3 28/11/3 9/12/3
f 13/13/4 26/5/4 22/8/4 20/14/4
f 3/15/5 7/16/5 5/17/5 1/18/5
f 8/19/6 4/20/6 2/21/6 6/22/6
f 5/23/7 11/24/7 10/25/7 1/26/7
f 27/27/6 18/28/6 14/29/6
f 9/30/6 28/31/6 21/32/6 20/33/6
f 15/34/8 13/35/8 20/36/8 21/37/8
f 3/38/9 13/39/9 15/40/9 7/41/9
f 13/42/10 3/43/10 26/44/10
f 21/45/6 28/46/6 17/47/6
f 24/48/6 9/49/6 22/50/6 23/51/6
f 7/52/11 16/53/11 19/54/11 5/55/11
f 5/55/12 19/54/12 11/56/12
f 11/57/13 19/58/13 14/59/13 18/60/13
f 7/41/14 15/40/14 16/61/14
f 10/62/3 11/63/3 18/64/3 12/65/3
f 28/46/6 27/66/6 14/67/6 17/47/6
f 8/68/2 6/69/2 27/70/2 28/71/2
f 12/72/6 24/48/6 23/51/6
f 1/73/15 25/74/15 26/44/15 3/43/15
f 25/75/16 1/26/16 10/25/16
f 25/76/17 10/62/17 12/65/17 23/77/17
f 27/27/6 24/78/6 12/79/6 18/28/6
f 16/80/18 15/34/18 21/37/18 17/81/18
f 19/58/1 16/82/1 17/83/1 14/59/1
f 6/22/8 2/21/8 24/84/8 27/85/8
f 9/30/6 20/33/6 22/86/6
f 29/87/15 30/88/15 32/89/15 31/90/15
f 31/91/19 32/89/19 36/92/19 35/93/19
f 33/94/8 35/95/8 42/96/8 43/97/8
f 30/88/15 29/87/15 37/98/15 38/99/15
f 31/100/8 35/95/8 33/94/8 29/101/8
f 36/92/3 32/89/3 30/88/3 34/102/3
f 44/103/15 43/104/15 54/105/15 53/106/15
f 29/101/8 33/94/8 40/107/8 37/108/8
f 34/102/3 30/88/3 38/99/3 39/109/3
f 33/110/20 34/111/20 39/112/20 40/113/20
f 37/108/8 40/107/8 52/114/8 49/115/8
f 36/92/3 34/102/3 44/116/3 41/117/3
f 35/93/19 36/92/19 41/117/19 42/118/19
f 34/119/11 33/120/11 43/121/11 44/122/11
f 46/123/20 45/124/20 48/125/20 47/126/20
f 43/97/8 42/96/8 46/127/8 47/128/8
f 41/117/3 44/116/3 48/125/3 45/124/3
f 42/118/19 41/117/19 45/124/19 46/129/19
f 52/130/11 51/131/11 50/132/11 49/133/11
f 52/130/11 58/134/11 57/135/11 51/131/11
f 38/99/15 37/98/15 49/136/15 50/132/15
f 43/97/8 47/128/8 56/137/8 54/138/8
f 39/109/3 38/99/3 50/132/3 51/131/3
f 40/107/8 54/138/8 58/139/8 52/114/8
f 48/125/3 44/116/3 53/140/3 55/141/3
f 47/126/20 48/125/20 55/141/20 56/142/20
f 57/135/11 58/134/11 60/143/11 59/144/11
f 55/141/3 53/140/3 57/135/3 59/144/3
f 56/142/20 55/141/20 59/144/20 60/145/20
f 54/138/8 56/137/8 60/146/8 58/139/8
f 51/131/3 57/135/3 53/140/3 39/109/3
f 39/147/19 53/148/19 54/149/19 40/150/19
f 85/151/3 86/152/3 83/153/3 82/154/3
f 77/155/3 81/156/3 82/154/3 78/157/3
f 85/151/3 82/154/3 81/156/3
f 84/158/3 83/153/3 86/152/3
f 80/159/3 75/160/3 79/161/3
f 71/162/3 70/163/3 75/160/3
f 66/164/3 62/165/3 65/166/3
f 61/167/3 63/168/3 64/169/3
f 76/170/3 81/156/3 77/155/3
f 79/161/3 83/153/3 84/158/3 80/159/3
f 83/153/3 79/161/3 78/157/3 82/154/3
f 76/170/3 77/155/3 73/171/3 72/172/3
f 78/157/3 79/161/3 75/160/3 74/173/3
f 72/172/3 73/171/3 68/174/3 67/175/3
f 73/171/3 77/155/3 78/157/3 74/173/3
f 74/173/3 75/160/3 70/163/3 69/176/3
f 63/168/3 67/175/3 68/174/3
f 68/174/3 73/171/3 74/173/3 69/176/3
f 65/166/3 70/163/3 71/162/3 66/164/3
f 63/168/3 68/174/3 69/176/3 64/169/3
f 70/163/3 65/166/3 64/169/3 69/176/3
f 64/169/3 65/166/3 62/165/3 61/167/3
f 61/167/2 62/165/2 88/177/2 87/178/2
f 85/151/11 81/156/11 97/179/11 99/180/11
f 84/158/20 86/152/20 100/181/20 98/182/20
f 80/159/6 84/158/6 98/182/6 96/183/6
f 75/160/19 80/159/19 96/183/19 94/184/19
f 76/170/5 72/172/5 93/185/5 95/186/5
f 86/152/1 85/151/1 99/180/1 100/181/1
f 71/162/20 75/160/20 94/184/20 92/187/20
f 62/165/19 66/164/19 90/188/19 88/177/19
f 63/168/15 61/167/15 87/178/15 89/189/15
f 66/164/6 71/162/6 92/187/6 90/188/6
f 67/175/15 63/168/15 89/189/15 91/190/15
f 81/156/11 76/170/11 95/186/11 97/179/11
f 72/172/5 67/175/5 91/190/5 93/185/5
