# Blender v2.80 (sub 75) OBJ File: 'constructs.blend'
# www.blender.org
mtllib arm_blade_l.mtl
o ARM_LEFT_BLADE_Cube.030
v -0.375000 1.000000 0.156250
v -0.375000 1.312500 0.156250
v -0.687500 1.000000 0.156250
v -0.687500 1.312500 0.156250
v -0.375000 1.000000 -0.156250
v -0.375000 1.312500 -0.156250
v -0.687500 1.000000 -0.156250
v -0.687500 1.312500 -0.156250
v -0.437500 1.000000 0.093750
v -0.625000 1.000000 0.093750
v -0.437500 1.000000 -0.093750
v -0.625000 1.000000 -0.093750
v -0.687500 1.062500 0.093750
v -0.671875 1.296875 -0.093750
v -0.671875 1.296875 0.093750
v -0.687500 1.062500 -0.093750
v -0.437500 1.312500 0.093750
v -0.437500 1.312500 -0.093750
v -0.437500 1.296875 0.093750
v -0.437500 1.296875 -0.093750
v -0.687500 1.312500 -0.093750
v -0.687500 1.312500 0.093750
v -0.671875 1.062500 -0.093750
v -0.671875 1.062500 0.093750
v -0.453125 0.750000 -0.078125
v -0.453125 0.937500 -0.078125
v -0.562500 0.937500 0.093750
v -0.562500 0.750000 0.093750
v -0.562500 0.750000 -0.093750
v -0.562500 0.937500 -0.093750
v -0.453125 0.937500 0.078125
v -0.453125 0.750000 0.078125
v -0.562500 0.750000 -0.078125
v -0.562500 0.937500 -0.078125
v -0.437500 0.937500 -0.093750
v -0.437500 0.750000 -0.093750
v -0.437500 0.937500 0.093750
v -0.437500 0.750000 0.093750
v -0.562500 0.937500 0.078125
v -0.562500 0.750000 0.078125
v -0.625000 0.687500 0.093750
v -0.437500 0.687500 0.093750
v -0.625000 0.687500 -0.093750
v -0.437500 0.687500 -0.093750
v -0.671875 1.296875 -0.093750
v -0.671875 1.296875 0.093750
v -0.437500 1.296875 0.093750
v -0.437500 1.296875 -0.093750
v -0.671875 1.062500 -0.093750
v -0.671875 1.062500 0.093750
v -0.468750 0.687500 0.062500
v -0.593750 0.687500 0.062500
v -0.468750 0.687500 -0.062500
v -0.593750 0.687500 -0.062500
v -0.453125 0.750000 -0.078125
v -0.453125 0.937500 -0.078125
v -0.453125 0.937500 0.078125
v -0.453125 0.750000 0.078125
v -0.562500 0.750000 -0.078125
v -0.562500 0.937500 -0.078125
v -0.562500 0.937500 0.078125
v -0.562500 0.750000 0.078125
v -0.593750 0.625000 0.062500
v -0.468750 0.625000 0.062500
v -0.593750 0.625000 -0.062500
v -0.468750 0.625000 -0.062500
v -0.500000 0.593750 0.031250
v -0.500000 0.656250 0.031250
v -0.562500 0.593750 0.031250
v -0.562500 0.656250 0.031250
v -0.500000 0.593750 -0.031250
v -0.500000 0.656250 -0.031250
v -0.562500 0.593750 -0.031250
v -0.562500 0.656250 -0.031250
v -0.531250 0.593750 0.031250
v -0.539062 0.593750 -0.031250
v -0.523438 0.593750 -0.031250
v -0.531250 0.281250 0.031250
v -0.539062 0.218750 -0.031250
v -0.523438 0.218750 -0.031250
vt 0.656250 0.281250
vt 0.656250 0.359375
vt 0.734375 0.359375
vt 0.734375 0.281250
vt 0.578125 0.203125
vt 0.562500 0.203125
vt 0.562500 0.265625
vt 0.578125 0.281250
vt 0.734375 0.281250
vt 0.734375 0.359375
vt 0.656250 0.359375
vt 0.656250 0.281250
vt 0.578125 0.359375
vt 0.578125 0.281250
vt 0.500000 0.203125
vt 0.515625 0.203125
vt 0.515625 0.265625
vt 0.500000 0.281250
vt 0.500000 0.281250
vt 0.578125 0.281250
vt 0.578125 0.359375
vt 0.500000 0.359375
vt 0.578125 0.203125
vt 0.625000 0.203125
vt 0.625000 0.218750
vt 0.593750 0.218750
vt 0.718750 0.203125
vt 0.718750 0.281250
vt 0.671875 0.281250
vt 0.671875 0.203125
vt 0.625000 0.281250
vt 0.625000 0.265625
vt 0.593750 0.265625
vt 0.578125 0.281250
vt 0.500000 0.281250
vt 0.515625 0.265625
vt 0.562500 0.265625
vt 0.546875 0.265625
vt 0.546875 0.207031
vt 0.578125 0.281250
vt 0.515625 0.250000
vt 0.562500 0.250000
vt 0.562500 0.265625
vt 0.515625 0.265625
vt 0.515625 0.250000
vt 0.562500 0.250000
vt 0.531250 0.207031
vt 0.531250 0.265625
vt 0.531250 0.265625
vt 0.546875 0.265625
vt 0.625000 0.265625
vt 0.593750 0.265625
vt 0.593750 0.250000
vt 0.621094 0.250000
vt 0.578125 0.281250
vt 0.578125 0.203125
vt 0.593750 0.218750
vt 0.625000 0.203125
vt 0.625000 0.218750
vt 0.671875 0.265625
vt 0.628906 0.250000
vt 0.667969 0.250000
vt 0.671875 0.218750
vt 0.667969 0.234375
vt 0.628906 0.234375
vt 0.621094 0.250000
vt 0.593750 0.250000
vt 0.609375 0.265625
vt 0.609375 0.218750
vt 0.671875 0.203125
vt 0.593750 0.234375
vt 0.621094 0.234375
vt 0.625000 0.281250
vt 0.671875 0.281250
vt 0.609375 0.218750
vt 0.609375 0.265625
vt 0.621094 0.234375
vt 0.593750 0.234375
vt 0.718750 0.218750
vt 0.765625 0.218750
vt 0.765625 0.265625
vt 0.718750 0.265625
vt 0.656250 0.156250
vt 0.656250 0.171875
vt 0.671875 0.171875
vt 0.671875 0.156250
vt 0.671875 0.171875
vt 0.671875 0.187500
vt 0.656250 0.187500
vt 0.656250 0.171875
vt 0.671875 0.156250
vt 0.671875 0.171875
vt 0.656250 0.171875
vt 0.656250 0.156250
vt 0.656250 0.171875
vt 0.656250 0.187500
vt 0.671875 0.187500
vt 0.671875 0.171875
vt 0.671875 0.187500
vt 0.687500 0.187500
vt 0.687500 0.093750
vt 0.671875 0.093750
vt 0.671875 0.093750
vt 0.687500 0.093750
vt 0.687500 0.109375
vt 0.671875 0.187500
vt 0.687500 0.187500
vt 0.687500 0.109375
vt 0.671875 0.093750
vt 0.609375 0.140625
vt 0.609375 0.156250
vt 0.625000 0.156250
vt 0.625000 0.140625
vt 0.984375 -0.000000
vt 0.875000 -0.000000
vt 0.875000 0.187500
vt 0.984375 0.187500
vt 0.812500 0.437500
vt 0.687500 0.437500
vt 0.687500 0.375000
vt 0.812500 0.375000
vt 1.000000 0.625000
vt 0.812500 0.625000
vt 0.812500 0.390625
vt 1.000000 0.390625
vt 0.812500 0.187500
vt 1.000000 0.187500
vt 1.000000 0.421875
vt 0.812500 0.421875
vt 0.703125 0.187500
vt 0.703125 -0.000000
vt 0.859375 -0.000000
vt 0.859375 0.187500
vt 0.984375 -0.000000
vt 0.984375 0.187500
vt 0.875000 0.187500
vt 0.875000 -0.000000
vt 0.687500 0.250000
vt 0.812500 0.250000
vt 0.687500 0.250000
vt 0.812500 0.250000
vt 0.812500 0.187500
vt 0.687500 0.187500
vt 0.687500 0.250000
vt 0.687500 0.187500
vt 0.812500 0.437500
vt 0.812500 0.375000
vn 0.0000 0.0000 1.0000
vn -1.0000 0.0000 0.0000
vn -0.0000 0.0000 -1.0000
vn 1.0000 0.0000 0.0000
vn 0.0000 1.0000 0.0000
vn 0.0000 -1.0000 0.0000
vn 0.0000 -0.7071 0.7071
vn 0.9923 0.0000 0.1240
vn -0.9923 0.0000 0.1240
usemtl MAIN
s off
f 1/1/1 2/2/1 4/3/1 3/4/1
f 4/5/2 22/6/2 13/7/2 3/8/2
f 7/9/3 8/10/3 6/11/3 5/12/3
f 5/12/4 6/11/4 2/13/4 1/14/4
f 8/15/5 21/16/5 18/17/5 6/18/5
f 3/19/6 7/20/6 5/21/6 1/22/6
f 41/23/1 42/24/1 38/25/1 28/26/1
f 41/27/2 10/28/2 12/29/2 43/30/2
f 11/31/3 35/32/3 30/33/3 12/34/3
f 8/15/2 7/35/2 16/36/2 21/16/2
f 22/6/3 17/37/3 19/38/3 15/39/3
f 7/35/2 3/8/2 13/7/2 16/36/2
f 2/40/5 6/18/5 18/17/5 17/37/5
f 4/5/5 2/40/5 17/37/5 22/6/5
f 17/37/2 18/17/2 20/41/2 19/42/2
f 16/43/5 13/44/5 24/45/5 23/46/5
f 18/17/1 21/16/1 14/47/1 20/48/1
f 21/16/1 16/36/1 23/49/1 14/47/1
f 13/7/3 22/6/3 15/39/3 24/50/3
f 37/51/6 27/52/6 39/53/6 31/54/6
f 10/55/1 41/23/1 28/26/1 27/52/1
f 43/56/3 12/34/3 30/33/3 29/57/3
f 44/58/3 43/56/3 29/57/3 36/59/3
f 35/60/6 37/51/6 31/61/6 26/62/6
f 38/25/5 36/63/5 25/64/5 32/65/5
f 30/33/6 35/32/6 26/66/6 34/67/6
f 29/57/4 30/33/4 34/68/4 33/69/4
f 42/24/4 44/70/4 36/63/4 38/25/4
f 36/59/5 29/57/5 33/71/5 25/72/5
f 9/73/4 37/51/4 35/60/4 11/74/4
f 27/52/4 28/26/4 40/75/4 39/76/4
f 9/73/1 10/55/1 27/52/1 37/51/1
f 28/26/5 38/25/5 32/77/5 40/78/5
f 41/79/6 43/80/6 44/81/6 42/82/6
f 67/83/1 68/84/1 70/85/1 69/86/1
f 69/87/2 70/88/2 74/89/2 73/90/2
f 73/91/3 74/92/3 72/93/3 71/94/3
f 71/95/4 72/96/4 68/97/4 67/98/4
f 76/99/3 77/100/3 80/101/3 79/102/3
f 78/103/7 79/104/7 80/105/7
f 77/106/8 75/107/8 78/108/8 80/109/8
f 75/107/9 76/99/9 79/102/9 78/108/9
f 69/110/6 73/111/6 71/112/6 67/113/6
usemtl CIRCUITRY
f 55/114/3 59/115/3 60/116/3 56/117/3
f 53/118/4 51/119/4 64/120/4 66/121/4
f 47/122/5 48/123/5 45/124/5 46/125/5
f 49/126/2 50/127/2 46/128/2 45/129/2
f 55/130/4 56/131/4 57/132/4 58/133/4
f 58/134/1 57/135/1 61/136/1 62/137/1
f 63/138/6 65/139/6 66/121/6 64/120/6
f 52/140/2 54/141/2 65/142/2 63/143/2
f 54/141/3 53/144/3 66/145/3 65/142/3
f 51/119/1 52/146/1 63/147/1 64/120/1
