# Blender v2.80 (sub 75) OBJ File: 'constructs.blend'
# www.blender.org
mtllib arm_hammer_r.mtl
o ARM_RIGHT_HAMMER_Cube.047
v 0.375000 1.000000 0.156250
v 0.375000 1.312500 0.156250
v 0.687500 1.000000 0.156250
v 0.687500 1.312500 0.156250
v 0.375000 1.000000 -0.156250
v 0.375000 1.312500 -0.156250
v 0.687500 1.000000 -0.156250
v 0.687500 1.312500 -0.156250
v 0.437500 1.000000 0.093750
v 0.625000 1.000000 0.093750
v 0.437500 1.000000 -0.093750
v 0.625000 1.000000 -0.093750
v 0.687500 1.062500 0.093750
v 0.671875 1.296875 -0.093750
v 0.671875 1.296875 0.093750
v 0.687500 1.062500 -0.093750
v 0.437500 1.312500 0.093750
v 0.437500 1.312500 -0.093750
v 0.437500 1.296875 0.093750
v 0.437500 1.296875 -0.093750
v 0.687500 1.312500 -0.093750
v 0.687500 1.312500 0.093750
v 0.671875 1.062500 -0.093750
v 0.671875 1.062500 0.093750
v 0.453125 0.750000 -0.078125
v 0.453125 0.937500 -0.078125
v 0.562500 0.937500 0.093750
v 0.562500 0.750000 0.093750
v 0.562500 0.750000 -0.093750
v 0.562500 0.937500 -0.093750
v 0.453125 0.937500 0.078125
v 0.453125 0.750000 0.078125
v 0.562500 0.750000 -0.078125
v 0.562500 0.937500 -0.078125
v 0.437500 0.937500 -0.093750
v 0.437500 0.750000 -0.093750
v 0.437500 0.937500 0.093750
v 0.437500 0.750000 0.093750
v 0.562500 0.937500 0.078125
v 0.562500 0.750000 0.078125
v 0.625000 0.687500 0.093750
v 0.437500 0.687500 0.093750
v 0.625000 0.687500 -0.093750
v 0.437500 0.687500 -0.093750
v 0.671875 1.296875 -0.093750
v 0.671875 1.296875 0.093750
v 0.437500 1.296875 0.093750
v 0.437500 1.296875 -0.093750
v 0.671875 1.062500 -0.093750
v 0.671875 1.062500 0.093750
v 0.468750 0.687500 0.062500
v 0.593750 0.687500 0.062500
v 0.468750 0.687500 -0.062500
v 0.593750 0.687500 -0.062500
v 0.453125 0.750000 -0.078125
v 0.453125 0.937500 -0.078125
v 0.453125 0.937500 0.078125
v 0.453125 0.750000 0.078125
v 0.562500 0.750000 -0.078125
v 0.562500 0.937500 -0.078125
v 0.562500 0.937500 0.078125
v 0.562500 0.750000 0.078125
v 0.593750 0.625000 0.062500
v 0.468750 0.625000 0.062500
v 0.593750 0.625000 -0.062500
v 0.468750 0.625000 -0.062500
v 0.437500 0.406250 0.156250
v 0.437500 0.593750 0.156250
v 0.625000 0.406250 0.156250
v 0.625000 0.593750 0.156250
v 0.437500 0.406250 -0.156250
v 0.437500 0.593750 -0.156250
v 0.625000 0.406250 -0.156250
v 0.625000 0.593750 -0.156250
v 0.500000 0.593750 0.031250
v 0.500000 0.656250 0.031250
v 0.562500 0.593750 0.031250
v 0.562500 0.656250 0.031250
v 0.500000 0.593750 -0.031250
v 0.500000 0.656250 -0.031250
v 0.562500 0.593750 -0.031250
v 0.562500 0.656250 -0.031250
vt 0.656250 0.281250
vt 0.734375 0.281250
vt 0.734375 0.359375
vt 0.656250 0.359375
vt 0.578125 0.203125
vt 0.578125 0.281250
vt 0.562500 0.265625
vt 0.562500 0.203125
vt 0.734375 0.281250
vt 0.656250 0.281250
vt 0.656250 0.359375
vt 0.734375 0.359375
vt 0.578125 0.281250
vt 0.578125 0.359375
vt 0.500000 0.203125
vt 0.500000 0.281250
vt 0.515625 0.265625
vt 0.515625 0.203125
vt 0.500000 0.281250
vt 0.500000 0.359375
vt 0.578125 0.359375
vt 0.578125 0.281250
vt 0.578125 0.203125
vt 0.593750 0.218750
vt 0.625000 0.218750
vt 0.625000 0.203125
vt 0.718750 0.203125
vt 0.671875 0.203125
vt 0.671875 0.281250
vt 0.718750 0.281250
vt 0.625000 0.281250
vt 0.578125 0.281250
vt 0.593750 0.265625
vt 0.625000 0.265625
vt 0.515625 0.265625
vt 0.500000 0.281250
vt 0.546875 0.207031
vt 0.546875 0.265625
vt 0.562500 0.265625
vt 0.578125 0.281250
vt 0.562500 0.250000
vt 0.515625 0.250000
vt 0.562500 0.265625
vt 0.562500 0.250000
vt 0.515625 0.250000
vt 0.515625 0.265625
vt 0.531250 0.265625
vt 0.531250 0.207031
vt 0.531250 0.265625
vt 0.546875 0.265625
vt 0.625000 0.265625
vt 0.621094 0.250000
vt 0.593750 0.250000
vt 0.593750 0.265625
vt 0.578125 0.281250
vt 0.578125 0.203125
vt 0.593750 0.218750
vt 0.625000 0.203125
vt 0.625000 0.218750
vt 0.671875 0.265625
vt 0.667969 0.250000
vt 0.628906 0.250000
vt 0.628906 0.234375
vt 0.667969 0.234375
vt 0.671875 0.218750
vt 0.593750 0.250000
vt 0.621094 0.250000
vt 0.609375 0.218750
vt 0.609375 0.265625
vt 0.671875 0.203125
vt 0.621094 0.234375
vt 0.593750 0.234375
vt 0.625000 0.281250
vt 0.671875 0.281250
vt 0.609375 0.265625
vt 0.609375 0.218750
vt 0.593750 0.234375
vt 0.621094 0.234375
vt 0.718750 0.218750
vt 0.718750 0.265625
vt 0.765625 0.265625
vt 0.765625 0.218750
vt 0.734375 0.312500
vt 0.812500 0.312500
vt 0.812500 0.359375
vt 0.734375 0.359375
vt 0.734375 0.359375
vt 0.812500 0.359375
vt 0.812500 0.312500
vt 0.734375 0.312500
vt 0.890625 0.156250
vt 0.843750 0.156250
vt 0.843750 0.203125
vt 0.890625 0.203125
vt 0.812500 0.218750
vt 0.765625 0.218750
vt 0.765625 0.265625
vt 0.812500 0.265625
vt 0.734375 0.265625
vt 0.812500 0.265625
vt 0.812500 0.265625
vt 0.734375 0.265625
vt 0.734375 0.312500
vt 0.812500 0.312500
vt 0.921875 0.187500
vt 0.937500 0.187500
vt 0.937500 0.203125
vt 0.921875 0.203125
vt 0.937500 0.203125
vt 0.921875 0.203125
vt 0.921875 0.218750
vt 0.937500 0.218750
vt 0.937500 0.187500
vt 0.921875 0.187500
vt 0.921875 0.203125
vt 0.937500 0.203125
vt 0.921875 0.203125
vt 0.937500 0.203125
vt 0.937500 0.218750
vt 0.921875 0.218750
vt 0.984375 -0.000000
vt 0.984375 0.187500
vt 0.875000 0.187500
vt 0.875000 -0.000000
vt 0.812500 0.437500
vt 0.812500 0.375000
vt 0.687500 0.375000
vt 0.687500 0.437500
vt 1.000000 0.625000
vt 1.000000 0.390625
vt 0.812500 0.390625
vt 0.812500 0.625000
vt 0.812500 0.187500
vt 0.812500 0.421875
vt 1.000000 0.421875
vt 1.000000 0.187500
vt 0.703125 0.187500
vt 0.859375 0.187500
vt 0.859375 -0.000000
vt 0.703125 -0.000000
vt 0.984375 -0.000000
vt 0.875000 -0.000000
vt 0.875000 0.187500
vt 0.984375 0.187500
vt 0.687500 0.250000
vt 0.812500 0.250000
vt 0.687500 0.250000
vt 0.687500 0.187500
vt 0.812500 0.187500
vt 0.812500 0.250000
vt 0.687500 0.187500
vt 0.687500 0.250000
vt 0.812500 0.375000
vt 0.812500 0.437500
vn 0.0000 0.0000 1.0000
vn 1.0000 0.0000 0.0000
vn -0.0000 0.0000 -1.0000
vn -1.0000 0.0000 0.0000
vn 0.0000 1.0000 0.0000
vn 0.0000 -1.0000 0.0000
usemtl MAIN
s off
f 1/1/1 3/2/1 4/3/1 2/4/1
f 4/5/2 3/6/2 13/7/2 22/8/2
f 7/9/3 5/10/3 6/11/3 8/12/3
f 5/10/4 1/13/4 2/14/4 6/11/4
f 8/15/5 6/16/5 18/17/5 21/18/5
f 3/19/6 1/20/6 5/21/6 7/22/6
f 41/23/1 28/24/1 38/25/1 42/26/1
f 41/27/2 43/28/2 12/29/2 10/30/2
f 11/31/3 12/32/3 30/33/3 35/34/3
f 8/15/2 21/18/2 16/35/2 7/36/2
f 22/8/3 15/37/3 19/38/3 17/39/3
f 7/36/2 16/35/2 13/7/2 3/6/2
f 2/40/5 17/39/5 18/17/5 6/16/5
f 4/5/5 22/8/5 17/39/5 2/40/5
f 17/39/2 19/41/2 20/42/2 18/17/2
f 16/43/5 23/44/5 24/45/5 13/46/5
f 18/17/1 20/47/1 14/48/1 21/18/1
f 21/18/1 14/48/1 23/49/1 16/35/1
f 13/7/3 24/50/3 15/37/3 22/8/3
f 37/51/6 31/52/6 39/53/6 27/54/6
f 10/55/1 27/54/1 28/24/1 41/23/1
f 43/56/3 29/57/3 30/33/3 12/32/3
f 44/58/3 36/59/3 29/57/3 43/56/3
f 35/60/6 26/61/6 31/62/6 37/51/6
f 38/25/5 32/63/5 25/64/5 36/65/5
f 30/33/6 34/66/6 26/67/6 35/34/6
f 29/57/4 33/68/4 34/69/4 30/33/4
f 42/26/4 38/25/4 36/65/4 44/70/4
f 36/59/5 25/71/5 33/72/5 29/57/5
f 9/73/4 11/74/4 35/60/4 37/51/4
f 27/54/4 39/75/4 40/76/4 28/24/4
f 9/73/1 37/51/1 27/54/1 10/55/1
f 28/24/5 40/77/5 32/78/5 38/25/5
f 41/79/6 42/80/6 44/81/6 43/82/6
f 72/83/5 68/84/5 70/85/5 74/86/5
f 73/87/6 69/88/6 67/89/6 71/90/6
f 67/91/1 69/92/1 70/93/1 68/94/1
f 73/95/3 71/96/3 72/97/3 74/98/3
f 71/99/4 67/100/4 68/84/4 72/83/4
f 69/101/2 73/102/2 74/103/2 70/104/2
f 75/105/1 77/106/1 78/107/1 76/108/1
f 77/109/2 81/110/2 82/111/2 78/112/2
f 81/113/3 79/114/3 80/115/3 82/116/3
f 79/117/4 75/118/4 76/119/4 80/120/4
usemtl CIRCUITRY
f 55/121/3 56/122/3 60/123/3 59/124/3
f 53/125/4 66/126/4 64/127/4 51/128/4
f 47/129/5 46/130/5 45/131/5 48/132/5
f 49/133/2 45/134/2 46/135/2 50/136/2
f 55/137/4 58/138/4 57/139/4 56/140/4
f 58/141/1 62/142/1 61/143/1 57/144/1
f 63/145/6 64/127/6 66/126/6 65/146/6
f 52/147/2 63/148/2 65/149/2 54/150/2
f 54/150/3 65/149/3 66/151/3 53/152/3
f 51/128/1 64/127/1 63/153/1 52/154/1
