# Blender v2.80 (sub 75) OBJ File: 'constructs.blend'
# www.blender.org
mtllib arm_axe_r.mtl
o ARM_RIGHT_AXE_Cube.043
v 0.375000 1.000000 0.156250
v 0.375000 1.312500 0.156250
v 0.687500 1.000000 0.156250
v 0.687500 1.312500 0.156250
v 0.375000 1.000000 -0.156250
v 0.375000 1.312500 -0.156250
v 0.687500 1.000000 -0.156250
v 0.687500 1.312500 -0.156250
v 0.437500 1.000000 0.093750
v 0.625000 1.000000 0.093750
v 0.437500 1.000000 -0.093750
v 0.625000 1.000000 -0.093750
v 0.687500 1.062500 0.093750
v 0.671875 1.296875 -0.093750
v 0.671875 1.296875 0.093750
v 0.687500 1.062500 -0.093750
v 0.437500 1.312500 0.093750
v 0.437500 1.312500 -0.093750
v 0.437500 1.296875 0.093750
v 0.437500 1.296875 -0.093750
v 0.687500 1.312500 -0.093750
v 0.687500 1.312500 0.093750
v 0.671875 1.062500 -0.093750
v 0.671875 1.062500 0.093750
v 0.453125 0.750000 -0.078125
v 0.453125 0.937500 -0.078125
v 0.562500 0.937500 0.093750
v 0.562500 0.750000 0.093750
v 0.562500 0.750000 -0.093750
v 0.562500 0.937500 -0.093750
v 0.453125 0.937500 0.078125
v 0.453125 0.750000 0.078125
v 0.562500 0.750000 -0.078125
v 0.562500 0.937500 -0.078125
v 0.437500 0.937500 -0.093750
v 0.437500 0.750000 -0.093750
v 0.437500 0.937500 0.093750
v 0.437500 0.750000 0.093750
v 0.562500 0.937500 0.078125
v 0.562500 0.750000 0.078125
v 0.625000 0.687500 0.093750
v 0.437500 0.687500 0.093750
v 0.625000 0.687500 -0.093750
v 0.437500 0.687500 -0.093750
v 0.671875 1.296875 -0.093750
v 0.671875 1.296875 0.093750
v 0.437500 1.296875 0.093750
v 0.437500 1.296875 -0.093750
v 0.671875 1.062500 -0.093750
v 0.671875 1.062500 0.093750
v 0.468750 0.687500 0.062500
v 0.593750 0.687500 0.062500
v 0.468750 0.687500 -0.062500
v 0.593750 0.687500 -0.062500
v 0.453125 0.750000 -0.078125
v 0.453125 0.937500 -0.078125
v 0.453125 0.937500 0.078125
v 0.453125 0.750000 0.078125
v 0.562500 0.750000 -0.078125
v 0.562500 0.937500 -0.078125
v 0.562500 0.937500 0.078125
v 0.562500 0.750000 0.078125
v 0.593750 0.625000 0.062500
v 0.468750 0.625000 0.062500
v 0.593750 0.625000 -0.062500
v 0.468750 0.625000 -0.062500
v 0.500000 0.593750 0.031250
v 0.500000 0.656250 0.031250
v 0.562500 0.593750 0.031250
v 0.562500 0.656250 0.031250
v 0.500000 0.593750 -0.031250
v 0.500000 0.656250 -0.031250
v 0.562500 0.593750 -0.031250
v 0.562500 0.656250 -0.031250
v 0.562500 0.281250 0.031250
v 0.500000 0.281250 0.031250
v 0.562500 0.281250 -0.031250
v 0.500000 0.281250 -0.031250
v 0.531250 0.250000 -0.000000
v 0.531250 0.281250 0.156250
v 0.539062 0.281250 0.093750
v 0.523438 0.281250 0.093750
v 0.539062 0.218750 0.093750
v 0.523438 0.218750 0.093750
v 0.531250 0.406250 0.156250
v 0.539062 0.406250 0.093750
v 0.523438 0.406250 0.093750
v 0.539062 0.468750 0.093750
v 0.523438 0.468750 0.093750
v 0.523438 0.406250 0.031250
v 0.539062 0.406250 0.031250
v 0.523438 0.281250 0.031250
v 0.539062 0.281250 0.031250
vt 0.656250 0.281250
vt 0.734375 0.281250
vt 0.734375 0.359375
vt 0.656250 0.359375
vt 0.578125 0.203125
vt 0.578125 0.281250
vt 0.562500 0.265625
vt 0.562500 0.203125
vt 0.734375 0.281250
vt 0.656250 0.281250
vt 0.656250 0.359375
vt 0.734375 0.359375
vt 0.578125 0.281250
vt 0.578125 0.359375
vt 0.500000 0.203125
vt 0.500000 0.281250
vt 0.515625 0.265625
vt 0.515625 0.203125
vt 0.500000 0.281250
vt 0.500000 0.359375
vt 0.578125 0.359375
vt 0.578125 0.281250
vt 0.578125 0.203125
vt 0.593750 0.218750
vt 0.625000 0.218750
vt 0.625000 0.203125
vt 0.718750 0.203125
vt 0.671875 0.203125
vt 0.671875 0.281250
vt 0.718750 0.281250
vt 0.625000 0.281250
vt 0.578125 0.281250
vt 0.593750 0.265625
vt 0.625000 0.265625
vt 0.515625 0.265625
vt 0.500000 0.281250
vt 0.546875 0.207031
vt 0.546875 0.265625
vt 0.562500 0.265625
vt 0.578125 0.281250
vt 0.562500 0.250000
vt 0.515625 0.250000
vt 0.562500 0.265625
vt 0.562500 0.250000
vt 0.515625 0.250000
vt 0.515625 0.265625
vt 0.531250 0.265625
vt 0.531250 0.207031
vt 0.531250 0.265625
vt 0.546875 0.265625
vt 0.625000 0.265625
vt 0.621094 0.250000
vt 0.593750 0.250000
vt 0.593750 0.265625
vt 0.578125 0.281250
vt 0.578125 0.203125
vt 0.593750 0.218750
vt 0.625000 0.203125
vt 0.625000 0.218750
vt 0.671875 0.265625
vt 0.667969 0.250000
vt 0.628906 0.250000
vt 0.628906 0.234375
vt 0.667969 0.234375
vt 0.671875 0.218750
vt 0.593750 0.250000
vt 0.621094 0.250000
vt 0.609375 0.218750
vt 0.609375 0.265625
vt 0.671875 0.203125
vt 0.621094 0.234375
vt 0.593750 0.234375
vt 0.625000 0.281250
vt 0.671875 0.281250
vt 0.609375 0.265625
vt 0.609375 0.218750
vt 0.593750 0.234375
vt 0.621094 0.234375
vt 0.718750 0.218750
vt 0.718750 0.265625
vt 0.765625 0.265625
vt 0.765625 0.218750
vt 0.718750 0.187500
vt 0.703125 0.187500
vt 0.703125 0.203125
vt 0.718750 0.203125
vt 0.687500 0.187500
vt 0.687500 0.203125
vt 0.703125 0.187500
vt 0.718750 0.187500
vt 0.718750 0.203125
vt 0.703125 0.203125
vt 0.687500 0.187500
vt 0.703125 0.187500
vt 0.703125 0.203125
vt 0.687500 0.203125
vt 0.703125 0.109375
vt 0.718750 0.093750
vt 0.718750 0.109375
vt 0.718750 0.109375
vt 0.703125 0.109375
vt 0.687500 0.109375
vt 0.703125 0.093750
vt 0.703125 0.109375
vt 0.687500 0.109375
vt 0.765625 0.109375
vt 0.734375 0.109375
vt 0.734375 0.125000
vt 0.765625 0.125000
vt 0.781250 0.109375
vt 0.781250 0.125000
vt 0.781250 0.109375
vt 0.765625 0.109375
vt 0.734375 0.109375
vt 0.734375 0.093750
vt 0.765625 0.093750
vt 0.750000 0.109375
vt 0.750000 0.093750
vt 0.765625 0.093750
vt 0.765625 0.125000
vt 0.718750 0.109375
vt 0.750000 0.109375
vt 0.750000 0.093750
vt 0.718750 0.109375
vt 0.718750 0.125000
vt 0.734375 0.125000
vt 0.734375 0.093750
vt 0.984375 -0.000000
vt 0.984375 0.187500
vt 0.875000 0.187500
vt 0.875000 -0.000000
vt 0.812500 0.437500
vt 0.812500 0.375000
vt 0.687500 0.375000
vt 0.687500 0.437500
vt 1.000000 0.625000
vt 1.000000 0.390625
vt 0.812500 0.390625
vt 0.812500 0.625000
vt 0.812500 0.187500
vt 0.812500 0.421875
vt 1.000000 0.421875
vt 1.000000 0.187500
vt 0.703125 0.187500
vt 0.859375 0.187500
vt 0.859375 -0.000000
vt 0.703125 -0.000000
vt 0.984375 -0.000000
vt 0.875000 -0.000000
vt 0.875000 0.187500
vt 0.984375 0.187500
vt 0.687500 0.250000
vt 0.812500 0.250000
vt 0.687500 0.250000
vt 0.687500 0.187500
vt 0.812500 0.187500
vt 0.812500 0.250000
vt 0.687500 0.187500
vt 0.687500 0.250000
vt 0.812500 0.375000
vt 0.812500 0.437500
vn 0.0000 0.0000 1.0000
vn 1.0000 0.0000 0.0000
vn -0.0000 0.0000 -1.0000
vn -1.0000 0.0000 0.0000
vn 0.0000 1.0000 0.0000
vn 0.0000 -1.0000 0.0000
vn -0.0000 -0.7071 -0.7071
vn 0.0000 -0.7071 0.7071
vn -0.7071 -0.7071 0.0000
vn 0.7071 -0.7071 0.0000
vn 0.9923 0.0000 0.1240
vn -0.9923 0.0000 0.1240
vn 0.0000 0.7071 0.7071
usemtl MAIN
s off
f 1/1/1 3/2/1 4/3/1 2/4/1
f 4/5/2 3/6/2 13/7/2 22/8/2
f 7/9/3 5/10/3 6/11/3 8/12/3
f 5/10/4 1/13/4 2/14/4 6/11/4
f 8/15/5 6/16/5 18/17/5 21/18/5
f 3/19/6 1/20/6 5/21/6 7/22/6
f 41/23/1 28/24/1 38/25/1 42/26/1
f 41/27/2 43/28/2 12/29/2 10/30/2
f 11/31/3 12/32/3 30/33/3 35/34/3
f 8/15/2 21/18/2 16/35/2 7/36/2
f 22/8/3 15/37/3 19/38/3 17/39/3
f 7/36/2 16/35/2 13/7/2 3/6/2
f 2/40/5 17/39/5 18/17/5 6/16/5
f 4/5/5 22/8/5 17/39/5 2/40/5
f 17/39/2 19/41/2 20/42/2 18/17/2
f 16/43/5 23/44/5 24/45/5 13/46/5
f 18/17/1 20/47/1 14/48/1 21/18/1
f 21/18/1 14/48/1 23/49/1 16/35/1
f 13/7/3 24/50/3 15/37/3 22/8/3
f 37/51/6 31/52/6 39/53/6 27/54/6
f 10/55/1 27/54/1 28/24/1 41/23/1
f 43/56/3 29/57/3 30/33/3 12/32/3
f 44/58/3 36/59/3 29/57/3 43/56/3
f 35/60/6 26/61/6 31/62/6 37/51/6
f 38/25/5 32/63/5 25/64/5 36/65/5
f 30/33/6 34/66/6 26/67/6 35/34/6
f 29/57/4 33/68/4 34/69/4 30/33/4
f 42/26/4 38/25/4 36/65/4 44/70/4
f 36/59/5 25/71/5 33/72/5 29/57/5
f 9/73/4 11/74/4 35/60/4 37/51/4
f 27/54/4 39/75/4 40/76/4 28/24/4
f 9/73/1 37/51/1 27/54/1 10/55/1
f 28/24/5 40/77/5 32/78/5 38/25/5
f 41/79/6 42/80/6 44/81/6 43/82/6
f 67/83/1 69/84/1 70/85/1 68/86/1
f 69/84/2 73/87/2 74/88/2 70/85/2
f 73/89/3 71/90/3 72/91/3 74/92/3
f 71/93/4 67/94/4 68/95/4 72/96/4
f 77/97/7 79/98/7 78/99/7
f 76/100/8 79/98/8 75/101/8
f 78/102/9 79/103/9 76/104/9
f 75/101/10 79/103/10 77/105/10
f 81/106/11 86/107/11 85/108/11 80/109/11
f 81/106/11 80/109/11 83/110/11
f 83/110/8 80/109/8 84/111/8
f 84/112/12 80/109/12 82/113/12
f 87/114/4 90/115/4 92/116/4 82/113/4
f 82/117/6 92/118/6 93/119/6 81/106/6
f 82/120/3 81/106/3 83/110/3 84/111/3
f 86/107/11 88/121/11 85/108/11
f 86/122/5 91/123/5 90/115/5 87/114/5
f 80/109/12 85/108/12 87/114/12 82/113/12
f 85/108/12 89/124/12 87/114/12
f 85/108/13 88/121/13 89/125/13
f 87/126/3 89/125/3 88/121/3 86/107/3
f 69/84/1 67/83/1 76/100/1 75/101/1
f 71/90/3 73/89/3 77/97/3 78/99/3
f 73/87/2 69/84/2 75/101/2 77/105/2
f 67/94/4 71/93/4 78/102/4 76/104/4
f 81/106/2 93/119/2 91/127/2 86/107/2
usemtl CIRCUITRY
f 55/128/3 56/129/3 60/130/3 59/131/3
f 53/132/4 66/133/4 64/134/4 51/135/4
f 47/136/5 46/137/5 45/138/5 48/139/5
f 49/140/2 45/141/2 46/142/2 50/143/2
f 55/144/4 58/145/4 57/146/4 56/147/4
f 58/148/1 62/149/1 61/150/1 57/151/1
f 63/152/6 64/134/6 66/133/6 65/153/6
f 52/154/2 63/155/2 65/156/2 54/157/2
f 54/157/3 65/156/3 66/158/3 53/159/3
f 51/135/1 64/134/1 63/160/1 52/161/1
