# Blender v2.80 (sub 75) OBJ File: 'constructs.blend'
# www.blender.org
mtllib arm_fisher_l.mtl
o ARM_LEFT_FISHER_Cube.010
v -0.375000 1.000000 0.156250
v -0.375000 1.312500 0.156250
v -0.687500 1.000000 0.156250
v -0.687500 1.312500 0.156250
v -0.375000 1.000000 -0.156250
v -0.375000 1.312500 -0.156250
v -0.687500 1.000000 -0.156250
v -0.687500 1.312500 -0.156250
v -0.437500 1.000000 0.093750
v -0.625000 1.000000 0.093750
v -0.437500 1.000000 -0.093750
v -0.625000 1.000000 -0.093750
v -0.687500 1.062500 0.093750
v -0.671875 1.296875 -0.093750
v -0.671875 1.296875 0.093750
v -0.687500 1.062500 -0.093750
v -0.437500 1.312500 0.093750
v -0.437500 1.312500 -0.093750
v -0.437500 1.296875 0.093750
v -0.437500 1.296875 -0.093750
v -0.687500 1.312500 -0.093750
v -0.687500 1.312500 0.093750
v -0.671875 1.062500 -0.093750
v -0.671875 1.062500 0.093750
v -0.453125 0.750000 -0.078125
v -0.453125 0.937500 -0.078125
v -0.562500 0.937500 0.093750
v -0.562500 0.750000 0.093750
v -0.562500 0.750000 -0.093750
v -0.562500 0.937500 -0.093750
v -0.453125 0.937500 0.078125
v -0.453125 0.750000 0.078125
v -0.562500 0.750000 -0.078125
v -0.562500 0.937500 -0.078125
v -0.437500 0.937500 -0.093750
v -0.437500 0.750000 -0.093750
v -0.437500 0.937500 0.093750
v -0.437500 0.750000 0.093750
v -0.562500 0.937500 0.078125
v -0.562500 0.750000 0.078125
v -0.625000 0.687500 0.093750
v -0.437500 0.687500 0.093750
v -0.625000 0.687500 -0.093750
v -0.437500 0.687500 -0.093750
v -0.671875 1.296875 -0.093750
v -0.671875 1.296875 0.093750
v -0.437500 1.296875 0.093750
v -0.437500 1.296875 -0.093750
v -0.671875 1.062500 -0.093750
v -0.671875 1.062500 0.093750
v -0.468750 0.687500 0.062500
v -0.593750 0.687500 0.062500
v -0.468750 0.687500 -0.062500
v -0.593750 0.687500 -0.062500
v -0.453125 0.750000 -0.078125
v -0.453125 0.937500 -0.078125
v -0.453125 0.937500 0.078125
v -0.453125 0.750000 0.078125
v -0.562500 0.750000 -0.078125
v -0.562500 0.937500 -0.078125
v -0.562500 0.937500 0.078125
v -0.562500 0.750000 0.078125
v -0.593750 0.625000 0.062500
v -0.468750 0.625000 0.062500
v -0.593750 0.625000 -0.062500
v -0.468750 0.625000 -0.062500
v -0.562500 0.500000 0.031250
v -0.562500 0.562500 0.031250
v -0.562500 0.500000 -0.031250
v -0.562500 0.562500 -0.031250
v -0.500000 0.500000 0.031250
v -0.500000 0.562500 0.031250
v -0.500000 0.500000 -0.031250
v -0.500000 0.562500 -0.031250
v -0.562500 0.562500 -0.781250
v -0.562500 0.500000 -0.781250
v -0.500000 0.500000 -0.781250
v -0.500000 0.562500 -0.781250
v -0.593750 0.468750 0.031250
v -0.593750 0.593750 0.031250
v -0.593750 0.468750 -0.031250
v -0.593750 0.593750 -0.031250
v -0.468750 0.468750 0.031250
v -0.468750 0.593750 0.031250
v -0.468750 0.468750 -0.031250
v -0.468750 0.593750 -0.031250
v -0.562500 0.500000 0.156250
v -0.562500 0.562500 0.156250
v -0.500000 0.562500 0.156250
v -0.500000 0.500000 0.156250
v -0.562500 0.593750 0.031250
v -0.562500 0.625000 0.031250
v -0.562500 0.593750 -0.031250
v -0.562500 0.625000 -0.031250
v -0.500000 0.593750 0.031250
v -0.500000 0.625000 0.031250
v -0.500000 0.593750 -0.031250
v -0.500000 0.625000 -0.031250
v -0.656250 0.398667 0.000000
v -0.656250 0.531250 0.132583
v -0.656250 0.531250 -0.132582
v -0.656250 0.663832 0.000000
v -0.593750 0.398667 0.000000
v -0.593750 0.531250 0.132583
v -0.593750 0.531250 -0.132582
v -0.593750 0.663832 0.000000
v -0.539062 0.476562 -0.031250
v -0.539062 0.492187 -0.031250
v -0.523438 0.476562 -0.031250
v -0.523438 0.492187 -0.031250
v -0.539062 0.492187 -0.781250
v -0.539062 0.476562 -0.781250
v -0.523438 0.476562 -0.781250
v -0.523438 0.492187 -0.781250
v -0.562500 0.562500 -0.843750
v -0.562500 0.500000 -0.843750
v -0.500000 0.500000 -0.843750
v -0.500000 0.562500 -0.843750
v -0.500000 0.468750 -0.781250
v -0.562500 0.468750 -0.781250
vt 0.656250 0.281250
vt 0.656250 0.359375
vt 0.734375 0.359375
vt 0.734375 0.281250
vt 0.578125 0.203125
vt 0.562500 0.203125
vt 0.562500 0.265625
vt 0.578125 0.281250
vt 0.734375 0.281250
vt 0.734375 0.359375
vt 0.656250 0.359375
vt 0.656250 0.281250
vt 0.578125 0.359375
vt 0.578125 0.281250
vt 0.500000 0.203125
vt 0.515625 0.203125
vt 0.515625 0.265625
vt 0.500000 0.281250
vt 0.500000 0.281250
vt 0.578125 0.281250
vt 0.578125 0.359375
vt 0.500000 0.359375
vt 0.578125 0.203125
vt 0.625000 0.203125
vt 0.625000 0.218750
vt 0.593750 0.218750
vt 0.718750 0.203125
vt 0.718750 0.281250
vt 0.671875 0.281250
vt 0.671875 0.203125
vt 0.625000 0.281250
vt 0.625000 0.265625
vt 0.593750 0.265625
vt 0.578125 0.281250
vt 0.500000 0.281250
vt 0.515625 0.265625
vt 0.562500 0.265625
vt 0.546875 0.265625
vt 0.546875 0.207031
vt 0.578125 0.281250
vt 0.515625 0.250000
vt 0.562500 0.250000
vt 0.562500 0.265625
vt 0.515625 0.265625
vt 0.515625 0.250000
vt 0.562500 0.250000
vt 0.531250 0.207031
vt 0.531250 0.265625
vt 0.531250 0.265625
vt 0.546875 0.265625
vt 0.625000 0.265625
vt 0.593750 0.265625
vt 0.593750 0.250000
vt 0.621094 0.250000
vt 0.578125 0.281250
vt 0.578125 0.203125
vt 0.593750 0.218750
vt 0.625000 0.203125
vt 0.625000 0.218750
vt 0.671875 0.265625
vt 0.628906 0.250000
vt 0.667969 0.250000
vt 0.671875 0.218750
vt 0.667969 0.234375
vt 0.628906 0.234375
vt 0.621094 0.250000
vt 0.593750 0.250000
vt 0.609375 0.265625
vt 0.609375 0.218750
vt 0.671875 0.203125
vt 0.593750 0.234375
vt 0.621094 0.234375
vt 0.625000 0.281250
vt 0.671875 0.281250
vt 0.609375 0.218750
vt 0.609375 0.265625
vt 0.621094 0.234375
vt 0.593750 0.234375
vt 0.718750 0.218750
vt 0.765625 0.218750
vt 0.765625 0.265625
vt 0.718750 0.265625
vt 0.203125 0.484375
vt 0.203125 0.500000
vt 0.015625 0.500000
vt 0.015625 0.484375
vt 0.000000 0.500000
vt 0.000000 0.484375
vt 0.203125 0.468750
vt 0.015625 0.468750
vt 0.203125 0.484375
vt 0.203125 0.468750
vt 0.015625 0.468750
vt 0.015625 0.484375
vt 0.203125 0.500000
vt 0.203125 0.484375
vt 0.015625 0.484375
vt 0.015625 0.500000
vt 0.062500 0.375000
vt 0.078125 0.375000
vt 0.078125 0.390625
vt 0.062500 0.390625
vt 0.203125 0.484375
vt 0.203125 0.468750
vt 0.234375 0.468750
vt 0.234375 0.484375
vt 0.203125 0.500000
vt 0.234375 0.500000
vt 0.203125 0.484375
vt 0.203125 0.468750
vt 0.234375 0.468750
vt 0.234375 0.484375
vt 0.203125 0.500000
vt 0.234375 0.500000
vt 0.500000 0.015625
vt 0.500000 0.031250
vt 0.515625 0.031250
vt 0.515625 0.015625
vt 0.500000 0.031250
vt 0.500000 0.046875
vt 0.515625 0.046875
vt 0.515625 0.031250
vt 0.515625 0.015625
vt 0.515625 0.031250
vt 0.500000 0.031250
vt 0.500000 0.015625
vt 0.515625 0.031250
vt 0.515625 0.046875
vt 0.500000 0.046875
vt 0.500000 0.031250
vt 0.062500 0.328125
vt 0.062500 0.375000
vt 0.078125 0.375000
vt 0.078125 0.328125
vt 0.125000 0.328125
vt 0.125000 0.375000
vt 0.078125 0.375000
vt 0.078125 0.328125
vt 0.125000 0.375000
vt 0.125000 0.328125
vt 0.140625 0.375000
vt 0.140625 0.328125
vt 0.078125 0.312500
vt 0.125000 0.312500
vt 0.078125 0.390625
vt 0.125000 0.390625
vt 0.421875 0.484375
vt 0.421875 0.500000
vt 0.234375 0.500000
vt 0.234375 0.484375
vt 0.421875 0.468750
vt 0.234375 0.468750
vt 0.421875 0.484375
vt 0.421875 0.468750
vt 0.234375 0.468750
vt 0.234375 0.484375
vt 0.421875 0.500000
vt 0.421875 0.484375
vt 0.234375 0.484375
vt 0.234375 0.500000
vt 0.125000 0.312500
vt 0.140625 0.312500
vt 0.140625 0.328125
vt 0.125000 0.328125
vt 0.000000 0.468750
vt 0.000000 0.468750
vt 0.000000 0.484375
vt 0.000000 0.484375
vt 0.000000 0.500000
vt 0.015625 0.500000
vt 0.015625 0.484375
vt 0.015625 0.484375
vt 0.125000 0.390625
vt 0.140625 0.390625
vt 0.140625 0.375000
vt 0.125000 0.375000
vt 0.984375 -0.000000
vt 0.875000 -0.000000
vt 0.875000 0.187500
vt 0.984375 0.187500
vt 0.812500 0.437500
vt 0.687500 0.437500
vt 0.687500 0.375000
vt 0.812500 0.375000
vt 1.000000 0.625000
vt 0.812500 0.625000
vt 0.812500 0.390625
vt 1.000000 0.390625
vt 0.812500 0.187500
vt 1.000000 0.187500
vt 1.000000 0.421875
vt 0.812500 0.421875
vt 0.703125 0.187500
vt 0.703125 -0.000000
vt 0.859375 -0.000000
vt 0.859375 0.187500
vt 0.984375 -0.000000
vt 0.984375 0.187500
vt 0.875000 0.187500
vt 0.875000 -0.000000
vt 0.687500 0.250000
vt 0.812500 0.250000
vt 0.687500 0.250000
vt 0.812500 0.250000
vt 0.812500 0.187500
vt 0.687500 0.187500
vt 0.687500 0.250000
vt 0.687500 0.187500
vt 0.812500 0.437500
vt 0.812500 0.375000
vt 0.250000 0.062500
vt 0.375000 0.062500
vt 0.375000 0.125000
vt 0.250000 0.125000
vt 0.125000 0.062500
vt 0.125000 0.125000
vt 0.125000 0.062500
vt 0.250000 0.062500
vt 0.250000 0.125000
vt 0.125000 0.125000
vt 0.125000 -0.000000
vt 0.000000 -0.000000
vt 0.000000 0.125000
vt 0.125000 0.125000
vt 0.125000 -0.000000
vt 0.125000 0.125000
vt 0.000000 0.125000
vt 0.000000 -0.000000
vn 0.0000 0.0000 1.0000
vn -1.0000 0.0000 0.0000
vn -0.0000 0.0000 -1.0000
vn 1.0000 0.0000 0.0000
vn 0.0000 1.0000 0.0000
vn 0.0000 -1.0000 0.0000
vn -0.0000 0.7071 -0.7071
vn 0.0000 -0.7071 0.7071
vn 0.0000 -0.7071 -0.7071
vn 0.0000 0.7071 0.7071
vn 0.0000 -0.8944 -0.4472
usemtl MAIN
s off
f 1/1/1 2/2/1 4/3/1 3/4/1
f 4/5/2 22/6/2 13/7/2 3/8/2
f 7/9/3 8/10/3 6/11/3 5/12/3
f 5/12/4 6/11/4 2/13/4 1/14/4
f 8/15/5 21/16/5 18/17/5 6/18/5
f 3/19/6 7/20/6 5/21/6 1/22/6
f 41/23/1 42/24/1 38/25/1 28/26/1
f 41/27/2 10/28/2 12/29/2 43/30/2
f 11/31/3 35/32/3 30/33/3 12/34/3
f 8/15/2 7/35/2 16/36/2 21/16/2
f 22/6/3 17/37/3 19/38/3 15/39/3
f 7/35/2 3/8/2 13/7/2 16/36/2
f 2/40/5 6/18/5 18/17/5 17/37/5
f 4/5/5 2/40/5 17/37/5 22/6/5
f 17/37/2 18/17/2 20/41/2 19/42/2
f 16/43/5 13/44/5 24/45/5 23/46/5
f 18/17/1 21/16/1 14/47/1 20/48/1
f 21/16/1 16/36/1 23/49/1 14/47/1
f 13/7/3 22/6/3 15/39/3 24/50/3
f 37/51/6 27/52/6 39/53/6 31/54/6
f 10/55/1 41/23/1 28/26/1 27/52/1
f 43/56/3 12/34/3 30/33/3 29/57/3
f 44/58/3 43/56/3 29/57/3 36/59/3
f 35/60/6 37/51/6 31/61/6 26/62/6
f 38/25/5 36/63/5 25/64/5 32/65/5
f 30/33/6 35/32/6 26/66/6 34/67/6
f 29/57/4 30/33/4 34/68/4 33/69/4
f 42/24/4 44/70/4 36/63/4 38/25/4
f 36/59/5 29/57/5 33/71/5 25/72/5
f 9/73/4 37/51/4 35/60/4 11/74/4
f 27/52/4 28/26/4 40/75/4 39/76/4
f 9/73/1 10/55/1 27/52/1 37/51/1
f 28/26/5 38/25/5 32/77/5 40/78/5
f 41/79/6 43/80/6 44/81/6 42/82/6
f 70/83/5 74/84/5 78/85/5 75/86/5
f 75/86/5 78/85/5 118/87/5 115/88/5
f 69/89/2 70/83/2 75/86/2 76/90/2
f 74/91/4 73/92/4 77/93/4 78/94/4
f 73/95/6 69/96/6 76/97/6 77/98/6
f 90/99/1 89/100/1 88/101/1 87/102/1
f 68/103/2 67/104/2 87/105/2 88/106/2
f 72/107/5 68/103/5 88/106/5 89/108/5
f 71/109/4 72/110/4 89/111/4 90/112/4
f 67/113/6 71/109/6 90/112/6 87/114/6
f 91/115/2 92/116/2 94/117/2 93/118/2
f 93/119/3 94/120/3 98/121/3 97/122/3
f 97/123/4 98/124/4 96/125/4 95/126/4
f 95/127/1 96/128/1 92/129/1 91/130/1
f 101/131/7 102/132/7 106/133/7 105/134/7
f 99/135/2 100/136/2 102/137/2 101/138/2
f 105/134/4 106/133/4 104/139/4 103/140/4
f 103/140/8 104/139/8 100/141/8 99/142/8
f 101/143/9 105/134/9 103/140/9 99/144/9
f 106/133/10 102/145/10 100/146/10 104/139/10
f 108/147/5 110/148/5 114/149/5 111/150/5
f 107/151/2 108/147/2 111/150/2 112/152/2
f 110/153/4 109/154/4 113/155/4 114/156/4
f 109/157/6 107/158/6 112/159/6 113/160/6
f 116/161/3 115/162/3 118/163/3 117/164/3
f 76/90/2 75/86/2 115/88/2 116/165/2
f 78/94/4 77/93/4 117/166/4 118/167/4
f 116/168/11 117/169/11 119/170/11 120/171/11
f 76/90/2 116/165/2 120/171/2
f 117/166/4 77/93/4 119/172/4
f 77/173/1 76/174/1 120/175/1 119/176/1
usemtl CIRCUITRY
f 55/177/3 59/178/3 60/179/3 56/180/3
f 53/181/4 51/182/4 64/183/4 66/184/4
f 47/185/5 48/186/5 45/187/5 46/188/5
f 49/189/2 50/190/2 46/191/2 45/192/2
f 55/193/4 56/194/4 57/195/4 58/196/4
f 58/197/1 57/198/1 61/199/1 62/200/1
f 63/201/6 65/202/6 66/184/6 64/183/6
f 52/203/2 54/204/2 65/205/2 63/206/2
f 54/204/3 53/207/3 66/208/3 65/205/3
f 51/182/1 52/209/1 63/210/1 64/183/1
f 85/211/4 86/212/4 84/213/4 83/214/4
f 81/215/6 85/211/6 83/214/6 79/216/6
f 86/217/5 82/218/5 80/219/5 84/220/5
f 79/221/1 83/222/1 84/223/1 80/224/1
f 81/225/3 82/226/3 86/227/3 85/228/3
