# Blender v2.80 (sub 75) OBJ File: 'constructs.blend'
# www.blender.org
mtllib arm_shield_r.mtl
o ARM_RIGHT_SHIELD_Cube.049
v 0.375000 1.000000 0.156250
v 0.375000 1.312500 0.156250
v 0.687500 1.000000 0.156250
v 0.687500 1.312500 0.156250
v 0.375000 1.000000 -0.156250
v 0.375000 1.312500 -0.156250
v 0.687500 1.000000 -0.156250
v 0.687500 1.312500 -0.156250
v 0.437500 1.000000 0.093750
v 0.625000 1.000000 0.093750
v 0.437500 1.000000 -0.093750
v 0.625000 1.000000 -0.093750
v 0.687500 1.062500 0.093750
v 0.671875 1.296875 -0.093750
v 0.671875 1.296875 0.093750
v 0.687500 1.062500 -0.093750
v 0.437500 1.312500 0.093750
v 0.437500 1.312500 -0.093750
v 0.437500 1.296875 0.093750
v 0.437500 1.296875 -0.093750
v 0.687500 1.312500 -0.093750
v 0.687500 1.312500 0.093750
v 0.671875 1.062500 -0.093750
v 0.671875 1.062500 0.093750
v 0.453125 0.750000 -0.078125
v 0.453125 0.937500 -0.078125
v 0.562500 0.937500 0.093750
v 0.562500 0.750000 0.093750
v 0.562500 0.750000 -0.093750
v 0.562500 0.937500 -0.093750
v 0.453125 0.937500 0.078125
v 0.453125 0.750000 0.078125
v 0.562500 0.750000 -0.078125
v 0.562500 0.937500 -0.078125
v 0.437500 0.937500 -0.093750
v 0.437500 0.750000 -0.093750
v 0.437500 0.937500 0.093750
v 0.437500 0.750000 0.093750
v 0.562500 0.937500 0.078125
v 0.562500 0.750000 0.078125
v 0.625000 0.687500 0.093750
v 0.437500 0.687500 0.093750
v 0.625000 0.687500 -0.093750
v 0.437500 0.687500 -0.093750
v 0.671875 1.296875 -0.093750
v 0.671875 1.296875 0.093750
v 0.437500 1.296875 0.093750
v 0.437500 1.296875 -0.093750
v 0.671875 1.062500 -0.093750
v 0.671875 1.062500 0.093750
v 0.468750 0.687500 0.062500
v 0.593750 0.687500 0.062500
v 0.468750 0.687500 -0.062500
v 0.593750 0.687500 -0.062500
v 0.453125 0.750000 -0.078125
v 0.453125 0.937500 -0.078125
v 0.453125 0.937500 0.078125
v 0.453125 0.750000 0.078125
v 0.562500 0.750000 -0.078125
v 0.562500 0.937500 -0.078125
v 0.562500 0.937500 0.078125
v 0.562500 0.750000 0.078125
v 0.593750 0.625000 0.062500
v 0.468750 0.625000 0.062500
v 0.593750 0.625000 -0.062500
v 0.468750 0.625000 -0.062500
v 0.625206 0.875000 -0.093750
v 0.687500 0.875000 -0.093750
v 0.687500 0.812500 -0.093750
v 0.625206 0.812500 -0.093750
v 0.687500 0.875000 -0.031250
v 0.625206 0.875000 0.031250
v 0.625206 0.812500 0.031250
v 0.687500 0.812500 -0.031250
v 0.625206 0.812500 -0.031250
v 0.625206 0.875000 -0.031250
v 0.687500 0.875000 -0.281250
v 0.625206 0.875000 -0.343750
v 0.687500 0.812500 -0.281250
v 0.625206 0.812500 -0.343750
v 0.437294 0.875000 -0.093750
v 0.375000 0.875000 -0.093750
v 0.375000 0.812500 -0.093750
v 0.437294 0.812500 -0.093750
v 0.375000 0.875000 -0.031250
v 0.437294 0.875000 0.031250
v 0.437294 0.812500 0.031250
v 0.375000 0.812500 -0.031250
v 0.437294 0.812500 -0.031250
v 0.437294 0.875000 -0.031250
v 0.375000 0.875000 -0.468750
v 0.437294 0.875000 -0.406250
v 0.375000 0.812500 -0.468750
v 0.437294 0.812500 -0.406250
v 0.499794 0.875000 0.031250
v 0.499794 0.812500 0.031250
v 0.499794 0.812500 -0.031250
v 0.499794 0.875000 -0.031250
v 0.356310 0.343750 -0.437500
v 0.356310 1.343750 -0.437500
v 0.706190 0.343750 -0.235497
v 0.706190 1.343750 -0.235497
v 0.373057 0.343750 -0.500000
v 0.373057 1.343750 -0.500000
v 0.751943 0.343750 -0.281250
v 0.751943 1.343750 -0.281250
v 0.760316 0.343750 -0.141747
v 0.760316 1.343750 -0.141747
v 0.814443 0.343750 -0.172997
v 0.814443 1.343750 -0.172997
v 0.248057 0.343750 -0.437500
v 0.248057 1.343750 -0.437500
v 0.248057 0.343750 -0.500000
v 0.248057 1.343750 -0.500000
vt 0.656250 0.281250
vt 0.734375 0.281250
vt 0.734375 0.359375
vt 0.656250 0.359375
vt 0.578125 0.203125
vt 0.578125 0.281250
vt 0.562500 0.265625
vt 0.562500 0.203125
vt 0.734375 0.281250
vt 0.656250 0.281250
vt 0.656250 0.359375
vt 0.734375 0.359375
vt 0.578125 0.281250
vt 0.578125 0.359375
vt 0.500000 0.203125
vt 0.500000 0.281250
vt 0.515625 0.265625
vt 0.515625 0.203125
vt 0.500000 0.281250
vt 0.500000 0.359375
vt 0.578125 0.359375
vt 0.578125 0.281250
vt 0.578125 0.203125
vt 0.593750 0.218750
vt 0.625000 0.218750
vt 0.625000 0.203125
vt 0.718750 0.203125
vt 0.671875 0.203125
vt 0.671875 0.281250
vt 0.718750 0.281250
vt 0.625000 0.281250
vt 0.578125 0.281250
vt 0.593750 0.265625
vt 0.625000 0.265625
vt 0.515625 0.265625
vt 0.500000 0.281250
vt 0.546875 0.207031
vt 0.546875 0.265625
vt 0.562500 0.265625
vt 0.578125 0.281250
vt 0.562500 0.250000
vt 0.515625 0.250000
vt 0.562500 0.265625
vt 0.562500 0.250000
vt 0.515625 0.250000
vt 0.515625 0.265625
vt 0.531250 0.265625
vt 0.531250 0.207031
vt 0.531250 0.265625
vt 0.546875 0.265625
vt 0.625000 0.265625
vt 0.621094 0.250000
vt 0.593750 0.250000
vt 0.593750 0.265625
vt 0.578125 0.281250
vt 0.578125 0.203125
vt 0.593750 0.218750
vt 0.625000 0.203125
vt 0.625000 0.218750
vt 0.671875 0.265625
vt 0.667969 0.250000
vt 0.628906 0.250000
vt 0.628906 0.234375
vt 0.667969 0.234375
vt 0.671875 0.218750
vt 0.593750 0.250000
vt 0.621094 0.250000
vt 0.609375 0.218750
vt 0.609375 0.265625
vt 0.671875 0.203125
vt 0.621094 0.234375
vt 0.593750 0.234375
vt 0.625000 0.281250
vt 0.671875 0.281250
vt 0.609375 0.265625
vt 0.609375 0.218750
vt 0.593750 0.234375
vt 0.621094 0.234375
vt 0.718750 0.218750
vt 0.718750 0.265625
vt 0.765625 0.265625
vt 0.765625 0.218750
vt 0.453125 0.234375
vt 0.453125 0.218750
vt 0.437500 0.218750
vt 0.453125 0.203125
vt 0.437500 0.203125
vt 0.437500 0.203125
vt 0.437500 0.156250
vt 0.453125 0.140625
vt 0.453125 0.203125
vt 0.421875 0.218750
vt 0.421875 0.203125
vt 0.437500 0.218750
vt 0.453125 0.218750
vt 0.453125 0.234375
vt 0.421875 0.234375
vt 0.437500 0.234375
vt 0.453125 0.140625
vt 0.437500 0.156250
vt 0.421875 0.156250
vt 0.437500 0.203125
vt 0.437500 0.140625
vt 0.421875 0.140625
vt 0.421875 0.203125
vt 0.453125 0.234375
vt 0.437500 0.218750
vt 0.453125 0.218750
vt 0.437500 0.203125
vt 0.453125 0.203125
vt 0.437500 0.203125
vt 0.453125 0.203125
vt 0.453125 0.125000
vt 0.437500 0.109375
vt 0.421875 0.218750
vt 0.437500 0.218750
vt 0.421875 0.203125
vt 0.453125 0.218750
vt 0.453125 0.234375
vt 0.421875 0.234375
vt 0.437500 0.234375
vt 0.437500 0.109375
vt 0.453125 0.125000
vt 0.421875 0.109375
vt 0.437500 0.203125
vt 0.421875 0.203125
vt 0.421875 0.125000
vt 0.437500 0.125000
vt 0.421875 0.218750
vt 0.437500 0.218750
vt 0.437500 0.250000
vt 0.421875 0.250000
vt 0.421875 0.234375
vt 0.437500 0.234375
vt 0.437500 0.250000
vt 0.453125 0.250000
vt 0.453125 0.234375
vt 0.437500 0.234375
vt 0.453125 0.234375
vt 0.453125 0.250000
vt 0.421875 0.250000
vt 0.421875 0.234375
vt 0.437500 0.234375
vt 0.437500 0.250000
vt 0.285625 0.000000
vt 0.386250 0.000000
vt 0.386250 0.250000
vt 0.285625 0.250000
vt 0.218750 0.000000
vt 0.109375 0.000000
vt 0.109375 0.250000
vt 0.218750 0.250000
vt 0.250000 0.000000
vt 0.276875 0.000000
vt 0.276875 0.250000
vt 0.250000 0.250000
vt 0.453125 0.113750
vt 0.453125 0.214375
vt 0.468750 0.218750
vt 0.468750 0.109375
vt 0.468750 0.109375
vt 0.468750 0.218750
vt 0.484375 0.214375
vt 0.484375 0.113750
vt 0.395000 0.000000
vt 0.421875 0.000000
vt 0.421875 0.250000
vt 0.395000 0.250000
vt 0.500000 0.000000
vt 0.484375 0.000000
vt 0.484375 0.250000
vt 0.500000 0.250000
vt 0.250000 0.000000
vt 0.250000 0.250000
vt 0.078125 0.000000
vt 0.078125 0.250000
vt 0.453125 0.078125
vt 0.453125 0.105000
vt 0.468750 0.078125
vt 0.468750 0.078125
vt 0.484375 0.105000
vt 0.484375 0.078125
vt 0.453125 0.223125
vt 0.453125 0.250000
vt 0.468750 0.250000
vt 0.468750 0.250000
vt 0.484375 0.250000
vt 0.484375 0.223125
vt 0.500000 0.250000
vt 0.500000 0.000000
vt 0.484375 0.000000
vt 0.984375 -0.000000
vt 0.984375 0.187500
vt 0.875000 0.187500
vt 0.875000 -0.000000
vt 0.812500 0.437500
vt 0.812500 0.375000
vt 0.687500 0.375000
vt 0.687500 0.437500
vt 1.000000 0.625000
vt 1.000000 0.390625
vt 0.812500 0.390625
vt 0.812500 0.625000
vt 0.812500 0.187500
vt 0.812500 0.421875
vt 1.000000 0.421875
vt 1.000000 0.187500
vt 0.703125 0.187500
vt 0.859375 0.187500
vt 0.859375 -0.000000
vt 0.703125 -0.000000
vt 0.984375 -0.000000
vt 0.875000 -0.000000
vt 0.875000 0.187500
vt 0.984375 0.187500
vt 0.687500 0.250000
vt 0.812500 0.250000
vt 0.687500 0.250000
vt 0.687500 0.187500
vt 0.812500 0.187500
vt 0.812500 0.250000
vt 0.687500 0.187500
vt 0.687500 0.250000
vt 0.812500 0.375000
vt 0.812500 0.437500
vn 0.0000 0.0000 1.0000
vn 1.0000 0.0000 0.0000
vn -0.0000 0.0000 -1.0000
vn -1.0000 0.0000 0.0000
vn 0.0000 1.0000 0.0000
vn 0.0000 -1.0000 0.0000
vn 0.7083 0.0000 0.7059
vn -0.7083 0.0000 0.7059
vn -0.5000 0.0000 0.8660
vn 0.5000 0.0000 -0.8660
vn -0.8660 0.0000 0.5000
vn 0.5000 0.0000 0.8660
vn 0.8660 0.0000 -0.5000
usemtl MAIN
s off
f 1/1/1 3/2/1 4/3/1 2/4/1
f 4/5/2 3/6/2 13/7/2 22/8/2
f 7/9/3 5/10/3 6/11/3 8/12/3
f 5/10/4 1/13/4 2/14/4 6/11/4
f 8/15/5 6/16/5 18/17/5 21/18/5
f 3/19/6 1/20/6 5/21/6 7/22/6
f 41/23/1 28/24/1 38/25/1 42/26/1
f 41/27/2 43/28/2 12/29/2 10/30/2
f 11/31/3 12/32/3 30/33/3 35/34/3
f 8/15/2 21/18/2 16/35/2 7/36/2
f 22/8/3 15/37/3 19/38/3 17/39/3
f 7/36/2 16/35/2 13/7/2 3/6/2
f 2/40/5 17/39/5 18/17/5 6/16/5
f 4/5/5 22/8/5 17/39/5 2/40/5
f 17/39/2 19/41/2 20/42/2 18/17/2
f 16/43/5 23/44/5 24/45/5 13/46/5
f 18/17/1 20/47/1 14/48/1 21/18/1
f 21/18/1 14/48/1 23/49/1 16/35/1
f 13/7/3 24/50/3 15/37/3 22/8/3
f 37/51/6 31/52/6 39/53/6 27/54/6
f 10/55/1 27/54/1 28/24/1 41/23/1
f 43/56/3 29/57/3 30/33/3 12/32/3
f 44/58/3 36/59/3 29/57/3 43/56/3
f 35/60/6 26/61/6 31/62/6 37/51/6
f 38/25/5 32/63/5 25/64/5 36/65/5
f 30/33/6 34/66/6 26/67/6 35/34/6
f 29/57/4 33/68/4 34/69/4 30/33/4
f 42/26/4 38/25/4 36/65/4 44/70/4
f 36/59/5 25/71/5 33/72/5 29/57/5
f 9/73/4 11/74/4 35/60/4 37/51/4
f 27/54/4 39/75/4 40/76/4 28/24/4
f 9/73/1 37/51/1 27/54/1 10/55/1
f 28/24/5 40/77/5 32/78/5 38/25/5
f 41/79/6 42/80/6 44/81/6 43/82/6
f 73/83/6 75/84/6 74/85/6
f 75/84/6 70/86/6 69/87/6 74/85/6
f 68/88/5 77/89/5 78/90/5 67/91/5
f 74/92/2 69/93/2 68/88/2 71/94/2
f 71/94/5 68/88/5 67/91/5 76/95/5
f 71/94/5 76/95/5 72/96/5
f 73/97/7 74/92/7 71/94/7 72/98/7
f 70/86/6 80/99/6 79/100/6 69/87/6
f 69/93/2 79/101/2 77/89/2 68/88/2
f 67/102/4 78/103/4 80/104/4 70/105/4
f 87/106/6 88/107/6 89/108/6
f 89/108/6 88/107/6 83/109/6 84/110/6
f 82/111/5 81/112/5 92/113/5 91/114/5
f 88/115/4 85/116/4 82/111/4 83/117/4
f 85/116/5 90/118/5 81/112/5 82/111/5
f 85/116/5 86/119/5 90/118/5
f 87/120/8 86/121/8 85/116/8 88/115/8
f 84/110/6 83/109/6 93/122/6 94/123/6
f 83/117/4 82/111/4 91/114/4 93/124/4
f 81/125/2 84/126/2 94/127/2 92/128/2
f 89/129/2 84/126/2 81/125/2 90/130/2
f 86/121/1 87/131/1 96/132/1 95/133/1
f 90/134/5 86/135/5 95/136/5 98/137/5
f 87/131/6 89/138/6 97/139/6 96/140/6
f 89/141/3 90/142/3 98/143/3 97/144/3
f 99/145/9 101/146/9 102/147/9 100/148/9
f 105/149/10 103/150/10 104/151/10 106/152/10
f 111/153/1 99/154/1 100/155/1 112/156/1
f 101/157/6 99/158/6 103/159/6 105/160/6
f 106/161/5 104/162/5 100/163/5 102/164/5
f 101/165/11 107/166/11 108/167/11 102/168/11
f 107/169/12 109/170/12 110/171/12 108/172/12
f 109/173/13 105/149/13 106/152/13 110/174/13
f 103/150/3 113/175/3 114/176/3 104/151/3
f 107/177/6 101/178/6 105/160/6 109/179/6
f 110/180/5 106/161/5 102/181/5 108/182/5
f 99/183/6 111/184/6 113/185/6 103/159/6
f 104/162/5 114/186/5 112/187/5 100/188/5
f 112/187/4 114/189/4 113/190/4 111/191/4
usemtl CIRCUITRY
f 55/192/3 56/193/3 60/194/3 59/195/3
f 53/196/4 66/197/4 64/198/4 51/199/4
f 47/200/5 46/201/5 45/202/5 48/203/5
f 49/204/2 45/205/2 46/206/2 50/207/2
f 55/208/4 58/209/4 57/210/4 56/211/4
f 58/212/1 62/213/1 61/214/1 57/215/1
f 63/216/6 64/198/6 66/197/6 65/217/6
f 52/218/2 63/219/2 65/220/2 54/221/2
f 54/221/3 65/220/3 66/222/3 53/223/3
f 51/199/1 64/198/1 63/224/1 52/225/1
