# Blender v2.80 (sub 75) OBJ File: 'constructs.blend'
# www.blender.org
mtllib head_smart.mtl
o HEAD_SMART_STONE_Cube.064
v 0.156250 1.312500 0.156250
v 0.156250 1.625000 0.156250
v -0.156250 1.312500 0.156250
v -0.156250 1.625000 0.156250
v 0.156250 1.312500 -0.156250
v 0.156250 1.625000 -0.156250
v -0.156250 1.312500 -0.156250
v -0.156250 1.625000 -0.156250
v -0.156250 1.375000 0.093750
v -0.156250 1.562500 0.093750
v -0.156250 1.562500 -0.093750
v -0.156250 1.375000 -0.093750
v 0.156250 1.375000 -0.093750
v 0.156250 1.562500 -0.093750
v 0.156250 1.562500 0.093750
v 0.156250 1.375000 0.093750
v -0.140625 1.375000 -0.093750
v -0.140625 1.375000 0.093750
v -0.140625 1.562500 0.093750
v -0.140625 1.562500 -0.093750
v 0.140625 1.375000 0.093750
v 0.140625 1.375000 -0.093750
v 0.140625 1.562500 -0.093750
v 0.140625 1.562500 0.093750
v 0.093750 1.375000 0.156250
v -0.093750 1.609375 0.140625
v 0.093750 1.609375 0.140625
v -0.093750 1.375000 0.156250
v 0.093750 1.375000 0.140625
v 0.093750 1.625000 -0.093750
v -0.093750 1.625000 -0.093750
v -0.093750 1.375000 0.140625
v -0.093750 1.625000 0.156250
v 0.093750 1.625000 0.156250
v -0.093750 1.609375 -0.093750
v 0.093750 1.609375 -0.093750
v -0.140625 1.375000 -0.093750
v -0.140625 1.375000 0.093750
v -0.140625 1.562500 0.093750
v -0.140625 1.562500 -0.093750
v 0.140625 1.375000 0.093750
v 0.140625 1.375000 -0.093750
v 0.140625 1.562500 -0.093750
v 0.140625 1.562500 0.093750
v -0.093750 1.609375 0.140625
v 0.093750 1.609375 0.140625
v 0.093750 1.375000 0.140625
v -0.093750 1.375000 0.140625
v -0.093750 1.609375 -0.093750
v 0.093750 1.609375 -0.093750
v 0.031250 1.625000 -0.031250
v 0.031250 1.437500 -0.031250
v 0.031250 1.625000 0.156250
v 0.031250 1.437500 0.156250
v -0.031250 1.625000 -0.031250
v -0.031250 1.437500 -0.031250
v -0.031250 1.625000 0.156250
v -0.031250 1.437500 0.156250
v -0.031250 1.578125 -0.109375
v -0.031250 1.640625 -0.109375
v -0.031250 1.578125 -0.171875
v -0.031250 1.640625 -0.171875
v 0.031250 1.578125 -0.109375
v 0.031250 1.640625 -0.109375
v 0.031250 1.578125 -0.171875
v 0.031250 1.640625 -0.171875
v -0.031250 1.640625 -0.171875
v -0.031250 1.578125 -0.171875
v 0.031250 1.578125 -0.171875
v 0.031250 1.640625 -0.171875
vt 1.000000 0.218750
vt 0.984375 0.218750
vt 0.984375 0.281250
vt 1.000000 0.296875
vt 0.937500 0.312500
vt 0.984375 0.312500
vt 0.984375 0.328125
vt 0.937500 0.328125
vt 1.000000 0.375000
vt 1.000000 0.453125
vt 0.921875 0.453125
vt 0.921875 0.375000
vt 0.984375 0.328125
vt 0.937500 0.328125
vt 0.937500 0.312500
vt 0.984375 0.312500
vt 1.000000 0.296875
vt 0.984375 0.281250
vt 1.000000 0.296875
vt 1.000000 0.375000
vt 0.984375 0.359375
vt 0.921875 0.375000
vt 0.937500 0.359375
vt 0.921875 0.296875
vt 0.921875 0.296875
vt 0.921875 0.375000
vt 0.937500 0.359375
vt 0.937500 0.312500
vt 1.000000 0.375000
vt 0.984375 0.359375
vt 0.984375 0.312500
vt 0.937500 0.343750
vt 0.984375 0.343750
vt 0.953125 0.359375
vt 0.953125 0.312500
vt 0.937500 0.312500
vt 0.937500 0.359375
vt 0.968750 0.359375
vt 0.968750 0.312500
vt 0.984375 0.343750
vt 0.937500 0.343750
vt 0.968750 0.312500
vt 0.968750 0.359375
vt 0.953125 0.312500
vt 0.953125 0.359375
vt 0.937500 0.359375
vt 0.921875 0.218750
vt 0.921875 0.296875
vt 0.937500 0.281250
vt 0.937500 0.218750
vt 0.937500 0.281250
vt 0.937500 0.265625
vt 0.984375 0.265625
vt 0.921875 0.296875
vt 0.953125 0.281250
vt 0.953125 0.222656
vt 0.984375 0.265625
vt 0.937500 0.265625
vt 0.968750 0.281250
vt 0.968750 0.222656
vt 0.953125 0.281250
vt 0.968750 0.281250
vt 0.984375 0.468750
vt 0.968750 0.468750
vt 0.968750 0.484375
vt 0.984375 0.484375
vt 0.000000 0.437500
vt 0.187500 0.437500
vt 0.187500 0.625000
vt 0.000000 0.625000
vt 0.000000 0.437500
vt 0.187500 0.437500
vt 0.187500 0.625000
vt 0.000000 0.625000
vt 0.187500 0.437500
vt 0.187500 0.203125
vt 0.000000 0.203125
vt 0.000000 0.437500
vt 0.000000 0.000000
vt 0.000000 0.234375
vt 0.187500 0.234375
vt 0.187500 0.000000
vt 0.437500 0.562500
vt 0.437500 0.500000
vt 0.625000 0.500000
vt 0.625000 0.562500
vt 0.375000 0.375000
vt 0.375000 0.437500
vt 0.625000 0.437500
vt 0.625000 0.375000
vt 0.625000 0.375000
vt 0.562500 0.562500
vt 0.562500 0.375000
vt 0.437500 0.375000
vt 0.500000 0.312500
vt 0.500000 0.562500
vt 0.437500 0.312500
vt 0.625000 0.562500
vt 0.437500 0.562500
vt 0.437500 0.375000
vt 0.375000 0.312500
vt 0.437500 0.312500
vt 0.437500 0.375000
vt 0.375000 0.375000
vt 0.375000 0.375000
vt 0.312500 0.375000
vt 0.312500 0.375000
vt 0.375000 0.375000
vt 0.250000 0.312500
vt 0.312500 0.312500
vt 0.312500 0.375000
vt 0.250000 0.375000
vt 0.312500 0.312500
vt 0.375000 0.312500
vt 0.375000 0.375000
vt 0.312500 0.375000
vt 0.312500 0.250000
vt 0.375000 0.250000
vt 0.375000 0.312500
vt 0.312500 0.312500
vt 0.375000 0.437500
vt 0.312500 0.437500
vt 0.312500 0.312500
vt 0.375000 0.312500
vt 0.375000 0.375000
vt 0.312500 0.375000
vt 0.375000 0.250000
vt 0.625000 0.250000
vt 0.625000 0.250000
vt 0.375000 0.250000
vt 0.625000 0.500000
vt 0.375000 0.500000
vt 0.375000 0.500000
vt 0.625000 0.500000
vt 0.125000 0.500000
vt 0.125000 0.500000
vn 0.0000 0.0000 1.0000
vn 0.0000 1.0000 0.0000
vn 0.0000 0.0000 -1.0000
vn -1.0000 0.0000 0.0000
vn 1.0000 0.0000 0.0000
vn 0.0000 -1.0000 0.0000
usemtl MAIN
s off
f 2/1/1 34/2/1 25/3/1 1/4/1
f 12/5/2 9/6/2 18/7/2 17/8/2
f 7/9/3 8/10/3 6/11/3 5/12/3
f 16/13/2 13/14/2 22/15/2 21/16/2
f 34/2/2 2/1/2 6/17/2 30/18/2
f 3/19/4 4/20/4 10/21/4 9/6/4
f 4/20/4 8/22/4 11/23/4 10/21/4
f 8/22/4 7/24/4 12/5/4 11/23/4
f 7/24/4 3/19/4 9/6/4 12/5/4
f 5/25/5 6/26/5 14/27/5 13/28/5
f 6/26/5 2/29/5 15/30/5 14/27/5
f 2/29/5 1/4/5 16/31/5 15/30/5
f 1/4/5 5/25/5 13/28/5 16/31/5
f 10/21/6 11/23/6 20/32/6 19/33/6
f 11/34/1 12/35/1 17/36/1 20/37/1
f 9/6/3 10/21/3 19/38/3 18/39/3
f 14/27/6 15/30/6 24/40/6 23/41/6
f 15/30/3 16/31/3 21/42/3 24/43/3
f 13/44/1 14/45/1 23/46/1 22/15/1
f 4/47/1 3/48/1 28/49/1 33/50/1
f 30/18/1 31/51/1 35/52/1 36/53/1
f 3/48/1 1/4/1 25/3/1 28/49/1
f 4/47/2 33/50/2 31/51/2 8/54/2
f 6/17/2 8/54/2 31/51/2 30/18/2
f 33/50/5 28/49/5 32/55/5 26/56/5
f 28/49/2 25/3/2 29/57/2 32/58/2
f 34/2/4 30/18/4 36/59/4 27/60/4
f 31/51/5 33/50/5 26/56/5 35/61/5
f 25/3/4 34/2/4 27/60/4 29/62/4
f 5/63/6 1/64/6 3/65/6 7/66/6
usemtl CIRCUITRY
f 38/67/4 39/68/4 40/69/4 37/70/4
f 42/71/5 43/72/5 44/73/5 41/74/5
f 49/75/2 45/76/2 46/77/2 50/78/2
f 47/79/1 46/80/1 45/81/1 48/82/1
usemtl CHIMERITE
f 51/83/2 55/84/2 57/85/2 53/86/2
f 56/87/6 52/88/6 54/89/6 58/90/6
f 54/91/1 53/86/1 57/92/1 58/93/1
f 52/94/5 51/83/5 53/86/5 54/91/5
f 56/95/3 55/96/3 51/83/3 52/97/3
f 58/90/4 57/98/4 55/99/4 56/100/4
f 59/101/4 60/102/4 62/103/4 61/104/4
f 62/105/1 66/106/1 70/107/1 67/108/1
f 65/109/5 66/110/5 64/111/5 63/112/5
f 63/113/1 64/114/1 60/115/1 59/116/1
f 61/117/6 65/118/6 63/119/6 59/120/6
f 66/106/2 62/105/2 60/121/2 64/122/2
f 68/123/3 67/124/3 70/125/3 69/126/3
f 61/127/1 62/128/1 67/129/1 68/130/1
f 66/131/1 65/132/1 69/133/1 70/134/1
f 65/132/1 61/135/1 68/136/1 69/133/1
