# Blender v2.80 (sub 75) OBJ File: 'constructs.blend'
# www.blender.org
mtllib leg_reinforced_l.mtl
o LEG_LEFT_REINFORCED_Cube.009
v -0.125000 0.062500 0.062500
v -0.375000 0.062500 0.062500
v -0.125000 0.062500 -0.125000
v -0.375000 0.062500 -0.125000
v -0.437500 -0.000000 0.125000
v -0.062500 -0.000000 0.125000
v -0.437500 -0.000000 -0.187500
v -0.062500 -0.000000 -0.187500
v -0.406250 0.062500 0.093750
v -0.093750 0.062500 0.093750
v -0.093750 0.062500 -0.156250
v -0.406250 0.062500 -0.156250
v -0.343750 0.187500 0.031250
v -0.156250 0.187500 0.031250
v -0.343750 0.187500 -0.031250
v -0.156250 0.187500 -0.031250
v -0.312500 0.187500 0.062500
v -0.125000 0.187500 0.062500
v -0.125000 0.187500 -0.062500
v -0.312500 0.187500 -0.062500
v -0.312500 0.375000 0.062500
v -0.312500 0.302831 -0.062500
v -0.125000 0.739383 0.056370
v -0.312500 0.739383 0.056370
v -0.125000 0.801883 -0.051883
v -0.312500 0.801883 -0.051883
v -0.312500 0.468750 -0.099880
v -0.125000 0.468750 -0.099880
v -0.312500 0.531250 -0.208133
v -0.125000 0.531250 -0.208133
v -0.312500 0.477123 -0.239383
v -0.125000 0.477123 -0.239383
v -0.312500 0.360497 -0.162380
v -0.125000 0.360497 -0.162380
v -0.312500 0.391747 -0.216506
v -0.125000 0.391747 -0.216506
v -0.187500 0.824630 0.033718
v -0.250000 0.824630 0.033718
v -0.093750 0.125000 -0.156250
v -0.093750 0.125000 0.093750
v -0.406250 0.125000 0.093750
v -0.406250 0.125000 -0.156250
v -0.187500 0.747756 -0.083133
v -0.187500 0.585377 -0.176883
v -0.187500 0.522877 -0.068630
v -0.187500 0.685256 0.025120
v -0.312500 0.685256 0.025120
v -0.312500 0.522877 -0.068630
v -0.312500 0.585377 -0.176883
v -0.312500 0.747756 -0.083133
v -0.187500 0.577564 -0.163351
v -0.187500 0.739944 -0.069601
v -0.296875 0.739944 -0.069601
v -0.296875 0.577564 -0.163351
v -0.187500 0.693069 0.011589
v -0.187500 0.530689 -0.082161
v -0.296875 0.693069 0.011589
v -0.296875 0.530689 -0.082161
v -0.250000 0.437500 -0.045753
v -0.250000 0.250000 0.062500
v -0.250000 0.375000 0.062500
v -0.250000 0.342778 -0.100441
v -0.250000 0.311852 -0.046875
v -0.125000 0.250000 0.062500
v -0.250000 0.423968 -0.053566
v -0.125000 0.437500 -0.045753
v -0.250000 0.365979 0.046875
v -0.250000 0.329247 -0.108253
v -0.250000 0.250000 -0.062500
v -0.250000 0.302831 -0.062500
v -0.125000 0.250000 -0.062500
v -0.125000 0.329247 -0.108253
v -0.250000 0.250000 0.046875
v -0.250000 0.250000 -0.046875
v -0.140625 0.342778 -0.100441
v -0.140625 0.423968 -0.053566
v -0.140625 0.250000 0.046875
v -0.140625 0.250000 -0.046875
v -0.437500 0.062500 0.125000
v -0.062500 0.062500 0.125000
v -0.437500 0.062500 -0.187500
v -0.062500 0.062500 -0.187500
v -0.406250 0.187500 0.093750
v -0.093750 0.187500 0.093750
v -0.406250 0.187500 -0.093750
v -0.093750 0.187500 -0.093750
v -0.312500 0.187500 0.031250
v -0.312500 0.250000 0.031250
v -0.375000 0.187500 0.031250
v -0.375000 0.250000 0.031250
v -0.312500 0.187500 -0.031250
v -0.312500 0.250000 -0.031250
v -0.375000 0.187500 -0.031250
v -0.375000 0.250000 -0.031250
v -0.312500 0.312500 0.031250
v -0.406250 0.093750 -0.187500
v -0.312500 0.312500 -0.031250
v -0.406250 -0.000000 -0.187500
v -0.406250 0.031250 -0.187500
v -0.343759 0.093750 -0.187500
v -0.093759 -0.000000 -0.187500
v -0.156267 -0.000000 -0.187500
v -0.093759 0.031250 -0.187500
v -0.156267 0.031250 -0.187500
v -0.343759 -0.000000 -0.187500
v -0.343759 0.031250 -0.187500
v -0.406250 0.031250 -0.250000
v -0.406250 -0.000000 -0.250000
v -0.343759 -0.000000 -0.250000
v -0.343759 0.031250 -0.250000
v -0.093759 -0.000000 -0.250000
v -0.156267 -0.000000 -0.250000
v -0.093759 0.031250 -0.250000
v -0.156267 0.031250 -0.250000
v -0.093759 0.093750 -0.187500
v -0.156267 0.093750 -0.187500
v -0.343759 0.031250 -0.156250
v -0.406250 0.031250 -0.156250
v -0.093759 0.031250 -0.156250
v -0.156267 0.031250 -0.156250
v -0.093759 0.093750 -0.156250
v -0.156267 0.093750 -0.156250
v -0.343759 0.093750 -0.156250
v -0.406250 0.093750 -0.156250
v -0.312500 0.426185 -0.088655
v -0.375000 0.394935 -0.034529
v -0.312500 0.340808 -0.065779
v -0.312500 0.394935 -0.034529
v -0.312500 0.372058 -0.119905
v -0.375000 0.426185 -0.088655
v -0.312500 0.665568 0.121721
v -0.375000 0.665568 0.121721
v -0.375000 0.696818 0.067595
v -0.312500 0.696818 0.067595
v -0.312500 0.719695 0.152971
v -0.312500 0.750945 0.098845
v -0.250000 0.696818 0.067595
v -0.250000 0.665568 0.121721
v -0.250000 0.750945 0.098845
v -0.250000 0.719695 0.152971
v -0.187500 0.696818 0.067595
v -0.187500 0.750945 0.098845
v -0.281250 0.093750 -0.187500
v -0.281250 -0.000000 -0.187500
v -0.281250 0.031250 -0.187500
v -0.218759 0.093750 -0.187500
v -0.218759 -0.000000 -0.187500
v -0.218759 0.031250 -0.187500
v -0.281250 0.031250 -0.250000
v -0.281250 -0.000000 -0.250000
v -0.218759 -0.000000 -0.250000
v -0.218759 0.031250 -0.250000
v -0.218759 0.031250 -0.156250
v -0.281250 0.031250 -0.156250
v -0.218759 0.093750 -0.156250
v -0.281250 0.093750 -0.156250
v -0.218759 0.093750 0.125000
v -0.218759 -0.000000 0.125000
v -0.218759 0.031250 0.125000
v -0.281250 0.093750 0.125000
v -0.281250 -0.000000 0.125000
v -0.281250 0.031250 0.125000
v -0.218759 0.031250 0.187500
v -0.218759 -0.000000 0.187500
v -0.281250 -0.000000 0.187500
v -0.281250 0.031250 0.187500
v -0.281250 0.031250 0.093750
v -0.218759 0.031250 0.093750
v -0.281250 0.093750 0.093750
v -0.218759 0.093750 0.093750
v -0.250000 0.782195 0.044718
v -0.250000 0.728068 0.013468
v -0.187500 0.728068 0.013468
v -0.187500 0.782195 0.044718
v -0.187500 0.577564 -0.163351
v -0.187500 0.739944 -0.069601
v -0.296875 0.739944 -0.069601
v -0.296875 0.577564 -0.163351
v -0.187500 0.693069 0.011589
v -0.187500 0.530689 -0.082161
v -0.296875 0.693069 0.011589
v -0.296875 0.530689 -0.082161
v -0.250000 0.342778 -0.100441
v -0.250000 0.311852 -0.046875
v -0.250000 0.423968 -0.053566
v -0.250000 0.365979 0.046875
v -0.250000 0.250000 0.046875
v -0.250000 0.250000 -0.046875
v -0.140625 0.342778 -0.100441
v -0.140625 0.311852 -0.046875
v -0.140625 0.423968 -0.053566
v -0.140625 0.365979 0.046875
v -0.140625 0.250000 0.046875
v -0.140625 0.250000 -0.046875
vt 0.578125 0.031250
vt 0.515625 0.031250
vt 0.531250 0.046875
vt 0.578125 0.046875
vt 0.500000 0.015625
vt 0.500000 0.000000
vt 0.578125 0.000000
vt 0.578125 0.015625
vt 0.500000 0.062500
vt 0.500000 0.046875
vt 0.593750 0.046875
vt 0.593750 0.062500
vt 0.578125 0.015625
vt 0.578125 0.000000
vt 0.500000 0.000000
vt 0.500000 0.015625
vt 0.515625 0.015625
vt 0.515625 0.031250
vt 0.500000 0.031250
vt 0.500000 0.015625
vt 0.500000 0.062500
vt 0.500000 0.046875
vt 0.593750 0.046875
vt 0.593750 0.062500
vt 0.671875 0.093750
vt 0.656250 0.109375
vt 0.625000 0.109375
vt 0.625000 0.093750
vt 0.515625 0.078125
vt 0.593750 0.078125
vt 0.593750 0.093750
vt 0.515625 0.093750
vt 0.515625 0.078125
vt 0.593750 0.078125
vt 0.593750 0.093750
vt 0.515625 0.093750
vt 0.515625 0.031250
vt 0.578125 0.031250
vt 0.578125 0.046875
vt 0.531250 0.046875
vt 0.734375 0.000000
vt 0.765625 0.000000
vt 0.765625 0.046875
vt 0.734375 0.029018
vt 0.562500 0.140625
vt 0.578125 0.140625
vt 0.578125 0.171875
vt 0.562500 0.171875
vt 0.656250 0.156250
vt 0.656250 0.187500
vt 0.640625 0.156250
vt 0.843750 0.203125
vt 0.828125 0.171875
vt 0.812500 0.187500
vt 0.812500 0.203125
vt 0.625000 0.171875
vt 0.625000 0.187500
vt 0.843750 0.171875
vt 0.734375 0.093750
vt 0.734375 0.064732
vt 0.765625 0.093750
vt 0.687500 0.078125
vt 0.703125 0.093750
vt 0.718750 0.093750
vt 0.734375 0.078125
vt 0.687500 0.078125
vt 0.734375 0.078125
vt 0.578125 0.140625
vt 0.593750 0.140625
vt 0.593750 0.171875
vt 0.578125 0.187500
vt 0.703125 0.000000
vt 0.703125 0.015625
vt 0.671875 0.015625
vt 0.656250 0.000000
vt 0.703125 0.078125
vt 0.703125 0.062500
vt 0.671875 0.062500
vt 0.656250 0.078125
vt 0.625000 0.046875
vt 0.578125 0.046875
vt 0.578125 0.031250
vt 0.625000 0.031250
vt 0.625000 0.000000
vt 0.625000 0.015625
vt 0.578125 0.015625
vt 0.578125 0.000000
vt 0.734375 0.031250
vt 0.703125 0.031250
vt 0.718750 0.046875
vt 0.703125 0.046875
vt 0.687500 0.031250
vt 0.718750 0.031250
vt 0.515625 0.015625
vt 0.578125 0.015625
vt 0.515625 0.062500
vt 0.593750 0.062500
vt 0.515625 0.062500
vt 0.593750 0.062500
vt 0.578125 0.015625
vt 0.515625 0.015625
vt 0.703125 0.078125
vt 0.656250 0.078125
vt 0.671875 0.062500
vt 0.703125 0.062500
vt 0.734375 0.078125
vt 0.734375 0.062500
vt 0.703125 0.000000
vt 0.656250 0.000000
vt 0.671875 0.015625
vt 0.703125 0.015625
vt 0.699219 0.046875
vt 0.671875 0.046875
vt 0.734375 0.000000
vt 0.734375 0.015625
vt 0.671875 0.046875
vt 0.699219 0.046875
vt 0.699219 0.031250
vt 0.671875 0.031250
vt 0.671875 0.031250
vt 0.699219 0.031250
vt 0.687500 0.015625
vt 0.687500 0.062500
vt 0.730469 0.031250
vt 0.707031 0.031250
vt 0.707031 0.046875
vt 0.730469 0.046875
vt 0.578125 0.093750
vt 0.625000 0.093750
vt 0.625000 0.109375
vt 0.593750 0.109375
vt 0.562500 0.203125
vt 0.578125 0.203125
vt 0.578125 0.171875
vt 0.562500 0.171875
vt 0.625000 0.187500
vt 0.625000 0.171875
vt 0.656250 0.125000
vt 0.656250 0.140625
vt 0.640625 0.140625
vt 0.640625 0.125000
vt 0.671875 0.122750
vt 0.656250 0.122750
vt 0.656250 0.125000
vt 0.625000 0.140625
vt 0.628906 0.125000
vt 0.640625 0.109375
vt 0.671875 0.127250
vt 0.671875 0.156250
vt 0.656250 0.127250
vt 0.625000 0.156250
vt 0.609375 0.142875
vt 0.609375 0.171875
vt 0.609375 0.109375
vt 0.609375 0.138375
vt 0.593750 0.078125
vt 0.597656 0.062500
vt 0.621094 0.062500
vt 0.625000 0.078125
vt 0.593750 0.156250
vt 0.621094 0.156250
vt 0.621094 0.125000
vt 0.593750 0.125000
vt 0.593750 0.046875
vt 0.625000 0.046875
vt 0.621094 0.062500
vt 0.597656 0.062500
vt 0.656250 0.125000
vt 0.628906 0.125000
vt 0.671875 0.093750
vt 0.609375 0.093750
vt 0.593750 0.078125
vt 0.687500 0.078125
vt 0.750000 0.375000
vt 0.796875 0.375000
vt 0.812500 0.359375
vt 0.734375 0.359375
vt 0.671875 0.093750
vt 0.609375 0.093750
vt 0.593750 0.078125
vt 0.687500 0.078125
vt 0.750000 0.375000
vt 0.796875 0.375000
vt 0.812500 0.359375
vt 0.734375 0.359375
vt 0.828125 0.078125
vt 0.781250 0.078125
vt 0.765625 0.062500
vt 0.843750 0.062500
vt 0.781250 0.093750
vt 0.781250 0.078125
vt 0.765625 0.062500
vt 0.765625 0.109375
vt 0.781250 0.078125
vt 0.781250 0.093750
vt 0.765625 0.109375
vt 0.765625 0.062500
vt 0.828125 0.078125
vt 0.843750 0.062500
vt 0.687500 0.015625
vt 0.687500 0.062500
vt 0.671875 0.062500
vt 0.671875 0.015625
vt 0.625000 0.078125
vt 0.625000 0.000000
vt 0.546875 0.125000
vt 0.546875 0.140625
vt 0.531250 0.140625
vt 0.531250 0.125000
vt 0.562500 0.125000
vt 0.562500 0.140625
vt 0.546875 0.140625
vt 0.546875 0.125000
vt 0.531250 0.125000
vt 0.531250 0.140625
vt 0.546875 0.140625
vt 0.546875 0.125000
vt 0.546875 0.156250
vt 0.546875 0.125000
vt 0.546875 0.109375
vt 0.531250 0.109375
vt 0.531250 0.125000
vt 0.562500 0.156250
vt 0.546875 0.156250
vt 0.562500 0.125000
vt 0.562500 0.140625
vt 0.578125 0.140625
vt 0.578125 0.125000
vt 0.562500 0.125000
vt 0.562500 0.140625
vt 0.578125 0.140625
vt 0.578125 0.125000
vt 0.546875 0.093750
vt 0.546875 0.109375
vt 0.546875 0.125000
vt 0.531250 0.125000
vt 0.531250 0.109375
vt 0.546875 0.109375
vt 0.546875 0.125000
vt 0.531250 0.125000
vt 0.531250 0.109375
vt 0.546875 0.093750
vt 0.562500 0.093750
vt 0.562500 0.109375
vt 0.562500 0.125000
vt 0.562500 0.109375
vt 0.546875 0.109375
vt 0.531250 0.109375
vt 0.546875 0.109375
vt 0.546875 0.093750
vt 0.562500 0.125000
vt 0.562500 0.109375
vt 0.546875 0.109375
vt 0.546875 0.125000
vt 0.531250 0.125000
vt 0.578125 0.109375
vt 0.562500 0.109375
vt 0.578125 0.109375
vt 0.562500 0.109375
vt 0.578125 0.093750
vt 0.546875 0.093750
vt 0.562500 0.093750
vt 0.562500 0.109375
vt 0.500000 0.000000
vt 0.500000 0.000000
vt 0.500000 0.000000
vt 0.500000 0.000000
vt 0.562500 0.109375
vt 0.562500 0.093750
vt 0.562500 0.109375
vt 0.562500 0.093750
vt 0.578125 0.093750
vt 0.500000 0.000000
vt 0.500000 0.000000
vt 0.500000 0.000000
vt 0.500000 0.000000
vt 0.515625 0.093750
vt 0.515625 0.109375
vt 0.500000 0.109375
vt 0.500000 0.093750
vt 0.531250 0.093750
vt 0.531250 0.109375
vt 0.531250 0.093750
vt 0.515625 0.109375
vt 0.531250 0.109375
vt 0.531250 0.156250
vt 0.531250 0.171875
vt 0.546875 0.171875
vt 0.546875 0.156250
vt 0.515625 0.187500
vt 0.500000 0.187500
vt 0.515625 0.187500
vt 0.531250 0.187500
vt 0.531250 0.187500
vt 0.515625 0.109375
vt 0.500000 0.109375
vt 0.500000 0.187500
vt 0.515625 0.187500
vt 0.515625 0.203125
vt 0.500000 0.203125
vt 0.531250 0.203125
vt 0.531250 0.203125
vt 0.546875 0.203125
vt 0.546875 0.187500
vt 0.546875 0.187500
vt 0.546875 0.203125
vt 0.531250 0.171875
vt 0.531250 0.156250
vt 0.546875 0.156250
vt 0.546875 0.171875
vt 0.562500 0.187500
vt 0.562500 0.203125
vt 0.562500 0.171875
vt 0.562500 0.171875
vt 0.546875 0.125000
vt 0.546875 0.109375
vt 0.531250 0.109375
vt 0.531250 0.125000
vt 0.562500 0.125000
vt 0.562500 0.140625
vt 0.578125 0.140625
vt 0.578125 0.125000
vt 0.546875 0.093750
vt 0.546875 0.109375
vt 0.546875 0.125000
vt 0.531250 0.125000
vt 0.531250 0.109375
vt 0.546875 0.093750
vt 0.562500 0.093750
vt 0.562500 0.109375
vt 0.562500 0.125000
vt 0.562500 0.109375
vt 0.546875 0.109375
vt 0.578125 0.109375
vt 0.562500 0.109375
vt 0.578125 0.093750
vt 0.562500 0.109375
vt 0.562500 0.093750
vt 0.500000 0.000000
vt 0.500000 0.000000
vt 0.500000 0.000000
vt 0.500000 0.000000
vt 0.546875 0.125000
vt 0.546875 0.109375
vt 0.531250 0.109375
vt 0.531250 0.125000
vt 0.562500 0.125000
vt 0.562500 0.140625
vt 0.578125 0.140625
vt 0.578125 0.125000
vt 0.546875 0.093750
vt 0.546875 0.109375
vt 0.546875 0.125000
vt 0.531250 0.125000
vt 0.531250 0.109375
vt 0.546875 0.093750
vt 0.562500 0.093750
vt 0.562500 0.109375
vt 0.546875 0.109375
vt 0.562500 0.125000
vt 0.562500 0.109375
vt 0.578125 0.109375
vt 0.562500 0.109375
vt 0.578125 0.093750
vt 0.562500 0.109375
vt 0.562500 0.093750
vt 0.500000 0.000000
vt 0.500000 0.000000
vt 0.500000 0.000000
vt 0.500000 0.000000
vt 0.531250 0.187500
vt 0.531250 0.171875
vt 0.546875 0.171875
vt 0.546875 0.187500
vt 0.562500 0.187500
vt 0.546875 0.187500
vt 0.546875 0.187500
vt 0.562500 0.187500
vt 0.531250 0.171875
vt 0.531250 0.187500
vt 0.546875 0.171875
vt 0.718750 0.437500
vt 0.625000 0.437500
vt 0.625000 0.382812
vt 0.718750 0.382812
vt 0.625000 0.437500
vt 0.718750 0.437500
vt 0.718750 0.382812
vt 0.625000 0.382812
vt 0.562500 0.312500
vt 0.562500 0.367188
vt 0.531250 0.367188
vt 0.531250 0.312500
vt 0.625000 0.375000
vt 0.625000 0.429688
vt 0.567000 0.429688
vt 0.567000 0.375000
vt 0.500000 0.312500
vt 0.500000 0.367188
vt 0.567000 0.500000
vt 0.593750 0.437500
vt 0.625000 0.437500
vt 0.625000 0.500000
vt 0.531250 0.437500
vt 0.558000 0.500000
vt 0.500000 0.500000
vt 0.500000 0.437500
vt 0.500000 0.429688
vt 0.500000 0.375000
vt 0.558000 0.375000
vt 0.558000 0.429688
vt 0.625000 0.437500
vt 0.718750 0.437500
vt 0.718750 0.500000
vt 0.625000 0.500000
vn 1.0000 0.0000 -0.0000
vn -1.0000 0.0000 0.0000
vn -0.0000 0.0000 -1.0000
vn 0.0000 -1.0000 0.0000
vn 0.0000 0.0000 1.0000
vn -0.0000 0.7071 -0.7071
vn -0.0000 0.9665 -0.2568
vn 0.0000 0.2568 0.9665
vn 0.0000 0.8660 0.5000
vn -0.0000 0.5000 -0.8660
vn -0.0000 -0.5000 0.8660
vn -0.0000 -0.8660 -0.5000
vn -0.0000 -0.2588 -0.9659
vn 0.7071 0.6124 0.3536
vn -0.7071 0.6124 0.3536
vn 0.0000 1.0000 0.0000
vn -0.7071 0.7071 0.0000
vn -0.7071 -0.6124 -0.3536
vn 0.7071 -0.3536 0.6124
vn 0.0000 0.7071 0.7071
usemtl MAIN
s off
f 40/1/1 39/2/1 86/3/1 84/4/1
f 81/5/2 7/6/2 5/7/2 79/8/2
f 82/9/3 8/10/3 7/11/3 81/12/3
f 80/13/1 6/14/1 8/15/1 82/16/1
f 5/17/4 7/18/4 8/19/4 6/20/4
f 79/21/5 5/22/5 6/23/5 80/24/5
f 20/25/3 69/26/3 71/27/3 19/28/3
f 41/29/5 40/30/5 84/31/5 83/32/5
f 39/33/6 42/34/6 85/35/6 86/36/6
f 42/37/2 41/38/2 83/39/2 85/40/2
f 20/41/2 17/42/2 21/43/2 22/44/2
f 72/45/1 34/46/1 28/47/1 66/48/1
f 33/49/2 27/50/2 35/51/2
f 28/52/1 36/53/1 32/54/1
f 30/55/1 28/52/1 32/54/1
f 27/50/2 31/56/2 35/51/2
f 27/50/2 29/57/2 31/56/2
f 28/52/1 34/58/1 36/53/1
f 33/59/2 22/60/2 21/43/2 27/61/2
f 26/62/7 38/63/7 37/64/7 25/65/7
f 24/66/8 23/67/8 37/64/8 38/63/8
f 21/68/9 61/69/9 59/70/9 27/71/9
f 29/72/10 49/73/10 44/74/10 30/75/10
f 24/76/11 47/77/11 46/78/11 23/79/11
f 29/80/10 30/81/10 32/82/10 31/83/10
f 33/84/12 35/85/12 36/86/12 34/87/12
f 35/85/13 31/83/13 32/82/13 36/86/13
f 23/88/14 25/89/14 37/90/14
f 38/91/15 26/92/15 24/93/15
f 12/94/2 9/95/2 41/38/2 42/37/2
f 11/96/3 12/97/3 42/34/3 39/33/3
f 9/98/5 10/99/5 40/30/5 41/29/5
f 10/100/1 11/101/1 39/2/1 40/1/1
f 26/102/10 25/103/10 43/104/10 50/105/10
f 24/106/2 26/102/2 50/105/2 47/107/2
f 25/103/10 30/75/10 44/74/10 43/104/10
f 27/108/11 28/109/11 45/110/11 48/111/11
f 46/78/12 47/77/12 57/112/12 55/113/12
f 29/72/2 27/114/2 48/115/2 49/73/2
f 50/105/12 43/104/12 52/116/12 53/117/12
f 44/74/9 49/73/9 54/118/9 51/119/9
f 48/111/9 45/110/9 56/120/9 58/121/9
f 43/104/2 44/74/2 51/122/2 52/123/2
f 49/73/9 48/115/9 58/124/9 54/125/9
f 47/107/12 50/105/12 53/126/12 57/127/12
f 17/128/5 18/129/5 64/130/5 60/131/5
f 21/68/5 17/128/5 60/131/5 61/69/5
f 64/132/1 18/133/1 19/134/1 71/135/1
f 28/136/9 27/71/9 59/70/9 66/137/9
f 70/138/1 68/139/1 62/140/1 63/141/1
f 22/142/3 70/143/3 69/26/3 20/25/3
f 62/144/11 68/139/11 72/145/11 75/146/11
f 69/26/1 70/138/1 63/141/1 74/147/1
f 22/148/12 33/149/12 68/139/12 70/150/12
f 33/149/12 34/151/12 72/145/12 68/139/12
f 59/70/1 61/69/1 67/152/1 65/153/1
f 61/69/1 60/131/1 73/154/1 67/155/1
f 66/156/11 76/157/11 75/158/11 72/159/11
f 66/137/11 59/70/11 65/160/11 76/161/11
f 64/130/16 77/162/16 73/163/16 60/131/16
f 64/164/16 71/165/16 78/166/16 77/167/16
f 74/168/16 78/169/16 71/27/16 69/26/16
f 1/170/16 2/171/16 79/172/16 80/173/16
f 2/174/16 4/175/16 81/176/16 79/177/16
f 4/178/16 3/179/16 82/180/16 81/181/16
f 3/182/16 1/183/16 80/184/16 82/185/16
f 14/186/16 13/187/16 83/188/16 84/189/16
f 13/190/16 15/191/16 85/192/16 83/193/16
f 16/194/16 14/195/16 84/196/16 86/197/16
f 15/191/16 16/198/16 86/199/16 85/192/16
f 45/200/2 46/201/2 55/202/2 56/203/2
f 28/109/11 23/79/11 46/78/11 45/110/11
f 23/204/1 28/205/1 30/75/1 25/103/1
f 87/206/5 88/207/5 90/208/5 89/209/5
f 89/210/2 90/211/2 94/212/2 93/213/2
f 93/214/3 94/215/3 92/216/3 91/217/3
f 90/208/5 88/207/5 95/218/5
f 98/219/2 99/220/2 107/221/2 108/222/2
f 94/212/17 90/211/17 95/223/17 97/224/17
f 92/216/3 94/215/3 97/224/3
f 110/225/3 109/226/3 108/227/3 107/228/3
f 113/229/3 111/230/3 112/231/3 114/232/3
f 107/221/2 99/220/2 96/233/2
f 103/234/1 101/235/1 111/236/1 113/237/1
f 106/238/1 105/239/1 109/240/1 110/241/1
f 106/238/1 100/242/1 123/243/1 117/244/1
f 101/235/4 102/245/4 112/246/4 111/247/4
f 114/248/2 104/249/2 116/250/2
f 105/239/4 98/251/4 108/252/4 109/253/4
f 102/254/2 104/249/2 114/248/2 112/255/2
f 106/238/1 110/241/1 100/242/1
f 113/229/6 114/232/6 116/256/6 115/257/6
f 110/225/6 107/228/6 96/258/6 100/259/6
f 100/259/16 96/258/16 124/260/16 123/243/16
f 103/234/1 115/261/1 121/262/1 119/263/1
f 103/234/1 113/237/1 115/261/1
f 104/264/4 103/265/4 119/266/4 120/267/4
f 96/233/2 99/220/2 118/268/2 124/269/2
f 116/250/2 104/249/2 120/270/2 122/271/2
f 115/257/16 116/256/16 122/272/16 121/262/16
f 99/273/4 106/274/4 117/275/4 118/276/4
f 127/277/18 126/278/18 130/279/18 129/280/18
f 127/281/11 128/282/11 126/278/11
f 129/283/10 130/284/10 125/285/10
f 131/286/12 134/287/12 137/288/12 138/289/12
f 130/279/2 126/278/2 132/290/2 133/291/2
f 125/285/10 130/284/10 133/292/10 134/293/10
f 126/278/11 128/282/11 131/294/11 132/290/11
f 128/295/1 125/296/1 134/297/1 131/298/1
f 133/291/15 132/290/15 135/299/15 136/300/15
f 134/293/10 133/292/10 136/301/10
f 132/290/11 131/294/11 135/302/11
f 134/293/10 136/301/10 139/303/10 137/304/10
f 135/302/11 131/294/11 138/305/11 140/306/11
f 136/307/9 135/308/9 140/309/9 139/310/9
f 138/305/19 141/311/19 142/312/19 140/306/19
f 138/289/12 137/288/12 141/313/12
f 139/310/9 140/309/9 142/314/9
f 144/315/2 145/316/2 149/317/2 150/318/2
f 152/319/3 151/320/3 150/321/3 149/322/3
f 149/317/2 145/316/2 143/323/2
f 148/324/1 147/325/1 151/326/1 152/327/1
f 148/324/1 146/328/1 155/329/1 153/330/1
f 147/325/4 144/331/4 150/332/4 151/333/4
f 148/324/1 152/327/1 146/328/1
f 152/319/6 149/322/6 143/334/6 146/335/6
f 146/335/16 143/334/16 156/336/16 155/329/16
f 143/323/2 145/316/2 154/337/2 156/338/2
f 145/339/4 148/340/4 153/341/4 154/342/4
f 158/343/1 159/344/1 163/345/1 164/346/1
f 166/347/5 165/348/5 164/349/5 163/350/5
f 163/345/1 159/344/1 157/351/1
f 162/352/2 161/353/2 165/354/2 166/355/2
f 162/352/2 160/356/2 169/357/2 167/358/2
f 161/359/4 158/343/4 164/360/4 165/361/4
f 162/352/2 166/355/2 160/356/2
f 166/347/20 163/350/20 157/362/20 160/363/20
f 160/363/16 157/362/16 170/364/16 169/357/16
f 157/351/1 159/344/1 168/365/1 170/366/1
f 159/367/4 162/368/4 167/369/4 168/370/4
f 142/371/1 141/372/1 173/373/1 174/374/1
f 139/310/9 142/314/9 174/375/9 171/376/9
f 141/313/12 137/288/12 172/377/12 173/378/12
f 137/379/2 139/380/2 171/376/2 172/381/2
usemtl CIRCUITRY
f 176/382/10 175/383/10 178/384/10 177/385/10
f 180/386/11 179/387/11 181/388/11 182/389/11
f 183/390/12 189/391/12 190/392/12 184/393/12
f 187/394/5 193/395/5 192/396/5 186/397/5
f 188/398/3 184/393/3 190/392/3 194/399/3
f 192/400/1 190/401/1 189/402/1 191/403/1
f 190/404/1 192/405/1 193/406/1 194/407/1
f 191/408/9 185/409/9 186/410/9 192/411/9
f 182/412/2 181/413/2 177/414/2 178/415/2
