# Blender v2.80 (sub 75) OBJ File: 'horn.blend'
# www.blender.org
mtllib horn_undead.mtl
o BRACE_END_Cube.010
v -0.163273 0.009153 0.125000
v -0.098569 0.250634 0.125000
v -0.163273 0.009153 -0.125000
v -0.098569 0.250634 -0.125000
v -0.102903 -0.007023 0.125000
v -0.038198 0.234458 0.125000
v -0.102903 -0.007023 -0.125000
v -0.038198 0.234458 -0.125000
vt 0.000000 0.375000
vt 0.250000 0.375000
vt 0.250000 0.125000
vt 0.000000 0.125000
vt 0.125000 0.375000
vt 0.125000 0.625000
vt 0.062500 0.625000
vt 0.062500 0.375000
vt 0.000000 0.125000
vt 0.250000 0.125000
vt 0.250000 0.375000
vt 0.000000 0.375000
vt 0.250000 0.375000
vt 0.250000 0.625000
vt 0.187500 0.625000
vt 0.187500 0.375000
vt 0.125000 0.625000
vt 0.187500 0.625000
vt 0.187500 0.375000
vt 0.125000 0.375000
vt 0.000000 0.625000
vt 0.000000 0.375000
vt 0.062500 0.375000
vn -0.9659 0.2588 0.0000
vn 0.0000 0.0000 -1.0000
vn 0.9659 -0.2588 0.0000
vn 0.0000 0.0000 1.0000
vn -0.2588 -0.9659 0.0000
vn 0.2588 0.9659 0.0000
usemtl MAIN
s off
f 1/1/1 2/2/1 4/3/1 3/4/1
f 3/5/2 4/6/2 8/7/2 7/8/2
f 7/9/3 8/10/3 6/11/3 5/12/3
f 5/13/4 6/14/4 2/15/4 1/16/4
f 3/17/5 7/18/5 5/19/5 1/20/5
f 8/7/6 4/21/6 2/22/6 6/23/6
o BRACE_START_Cube.009
v 0.102903 -0.007023 0.125000
v 0.038198 0.234458 0.125000
v 0.102903 -0.007023 -0.125000
v 0.038198 0.234458 -0.125000
v 0.163273 0.009153 0.125000
v 0.098569 0.250634 0.125000
v 0.163273 0.009153 -0.125000
v 0.098569 0.250634 -0.125000
vt 0.000000 0.375000
vt 0.250000 0.375000
vt 0.250000 0.125000
vt 0.000000 0.125000
vt 0.125000 0.375000
vt 0.125000 0.625000
vt 0.062500 0.625000
vt 0.062500 0.375000
vt 0.000000 0.125000
vt 0.250000 0.125000
vt 0.250000 0.375000
vt 0.000000 0.375000
vt 0.250000 0.375000
vt 0.250000 0.625000
vt 0.187500 0.625000
vt 0.187500 0.375000
vt 0.125000 0.625000
vt 0.187500 0.625000
vt 0.187500 0.375000
vt 0.125000 0.375000
vt 0.000000 0.625000
vt 0.000000 0.375000
vt 0.062500 0.375000
vn -0.9659 -0.2588 0.0000
vn 0.0000 0.0000 -1.0000
vn 0.9659 0.2588 0.0000
vn 0.0000 0.0000 1.0000
vn 0.2588 -0.9659 0.0000
vn -0.2588 0.9659 0.0000
usemtl MAIN
s off
f 9/24/7 10/25/7 12/26/7 11/27/7
f 11/28/8 12/29/8 16/30/8 15/31/8
f 15/32/9 16/33/9 14/34/9 13/35/9
f 13/36/10 14/37/10 10/38/10 9/39/10
f 11/40/11 15/41/11 13/42/11 9/43/11
f 16/30/12 12/44/12 10/45/12 14/46/12
o HORN_END_Cube.012
v -0.434940 0.050696 0.093750
v -0.370235 0.292177 0.156250
v -0.418764 0.111066 -0.156250
v -0.354059 0.352548 -0.093750
v -0.116912 0.030185 -0.093750
v -0.068383 0.211296 -0.093750
v -0.116912 0.030185 0.093750
v -0.068383 0.211296 0.093750
v -0.434940 0.050696 -0.093750
v -0.354059 0.352548 0.093750
v -0.370235 0.292177 -0.156250
v -0.418764 0.111066 0.156250
v -0.370235 0.292177 -0.093750
v -0.418764 0.111066 -0.093750
v -0.370235 0.292177 0.093750
v -0.418764 0.111066 0.093750
v -0.249494 0.259825 -0.093750
v -0.298023 0.078714 -0.093750
v -0.249494 0.259825 0.093750
v -0.298023 0.078714 0.093750
vt 0.875000 0.687500
vt 0.875000 1.000000
vt 0.937500 1.000000
vt 0.562500 0.562500
vt 0.625000 0.562500
vt 0.562500 0.625000
vt 0.000000 1.000000
vt 0.312500 1.000000
vt 0.312500 0.812500
vt 0.000000 0.812500
vt 0.937500 0.687500
vt 0.937500 1.000000
vt 1.000000 1.000000
vt 0.312500 0.562500
vt 0.375000 0.562500
vt 0.375000 0.625000
vt 0.937500 1.000000
vt 0.875000 0.687500
vt 0.875000 1.000000
vt 0.625000 0.625000
vt 0.625000 0.500000
vt 0.812500 0.500000
vt 0.812500 0.625000
vt 0.000000 1.000000
vt 0.312500 1.000000
vt 0.312500 0.812500
vt 0.000000 0.812500
vt 0.375000 0.375000
vt 0.375000 0.312500
vt 0.562500 0.312500
vt 0.562500 0.375000
vt 0.312500 0.375000
vt 0.000000 0.812500
vt 0.000000 0.625000
vt 0.312500 0.625000
vt 0.312500 0.812500
vt 0.625000 0.375000
vt 0.000000 0.625000
vt 0.312500 0.625000
vt 0.312500 0.812500
vt 0.000000 0.812500
vt 1.000000 1.000000
vt 0.937500 0.687500
vt 0.937500 1.000000
vt 0.375000 0.562500
vt 0.562500 0.562500
vt 0.562500 0.375000
vt 0.375000 0.375000
vt 0.625000 0.625000
vt 0.625000 0.500000
vt 0.812500 0.500000
vt 0.812500 0.625000
vt 0.625000 0.500000
vt 0.625000 0.375000
vt 0.812500 0.375000
vt 0.812500 0.500000
vt 0.625000 0.500000
vt 0.625000 0.375000
vt 0.812500 0.375000
vt 0.812500 0.500000
vn 0.3165 0.6400 -0.7001
vn -0.9659 0.2588 0.0000
vn 0.4432 0.8964 0.0000
vn -0.0460 -0.7125 -0.7001
vn -0.0460 -0.7125 0.7001
vn 0.2588 0.9659 0.0000
vn -0.0644 -0.9979 0.0000
vn 0.1894 -0.0508 0.9806
vn 0.1894 -0.0508 -0.9806
vn 0.3165 0.6400 0.7001
vn -0.2588 -0.9659 0.0000
vn 0.0000 0.0000 -1.0000
vn 0.0000 0.0000 1.0000
usemtl MAIN
s off
f 22/47/13 27/48/13 20/49/13
f 31/50/14 18/51/14 26/52/14
f 22/53/15 20/54/15 26/55/15 24/56/15
f 21/57/16 25/58/16 19/59/16
f 27/60/14 29/61/14 20/62/14
f 17/63/17 23/64/17 28/65/17
f 32/66/18 36/67/18 34/68/18 30/69/18
f 23/70/19 17/71/19 25/72/19 21/73/19
f 30/74/14 25/75/14 17/76/14 32/77/14
f 29/61/14 31/50/14 26/52/14 20/62/14
f 19/78/14 25/75/14 30/74/14
f 19/78/14 30/74/14 29/61/14 27/60/14
f 23/79/20 24/80/20 18/81/20 28/82/20
f 17/76/14 28/83/14 32/77/14
f 32/77/14 28/83/14 18/51/14 31/50/14
f 21/84/21 19/85/21 27/86/21 22/87/21
f 18/88/22 24/89/22 26/90/22
f 35/91/14 33/92/14 34/93/14 36/94/14
f 29/95/23 33/96/23 35/97/23 31/98/23
f 31/99/24 35/100/24 36/101/24 32/102/24
f 30/103/25 34/104/25 33/105/25 29/106/25
o HORN_MID_Cube.007
v 0.125000 0.031250 -0.093750
v -0.125000 0.031250 -0.093750
v -0.125000 0.031250 0.093750
v 0.125000 0.031250 0.093750
v 0.062500 0.218750 -0.093750
v 0.062500 0.218750 0.093750
v -0.062500 0.218750 0.093750
v -0.062500 0.218750 -0.093750
vt 0.375000 0.812500
vt 0.500000 0.812500
vt 0.562500 0.625000
vt 0.312500 0.625000
vt 0.562500 0.625000
vt 0.500000 0.812500
vt 0.375000 0.812500
vt 0.312500 0.625000
vt 0.562500 1.000000
vt 0.312500 1.000000
vt 0.312500 0.812500
vt 0.562500 0.812500
vt 0.500000 1.000000
vt 0.375000 1.000000
vn 0.0000 0.0000 1.0000
vn 0.0000 0.0000 -1.0000
vn 0.0000 -1.0000 0.0000
vn 0.0000 1.0000 0.0000
usemtl MAIN
s off
f 42/107/26 43/108/26 39/109/26 40/110/26
f 38/111/27 44/112/27 41/113/27 37/114/27
f 38/115/28 37/116/28 40/117/28 39/118/28
f 41/113/29 44/112/29 43/119/29 42/120/29
o HORN_START_Cube.008
v 0.402588 0.171437 0.031250
v 0.386411 0.231807 0.031250
v 0.402588 0.171437 -0.031250
v 0.386411 0.231807 -0.031250
v 0.116912 0.030185 -0.093750
v 0.068383 0.211296 -0.093750
v 0.116912 0.030185 0.093750
v 0.068383 0.211296 0.093750
vt 0.562500 0.812500
vt 0.562500 0.625000
vt 0.875000 0.687500
vt 0.875000 0.750000
vt 0.937500 0.625000
vt 0.937500 0.687500
vt 0.875000 0.687500
vt 0.875000 0.625000
vt 0.562500 1.000000
vt 0.875000 0.937500
vt 0.875000 0.875000
vt 0.562500 0.812500
vt 0.875000 0.937500
vt 0.562500 1.000000
vt 0.562500 0.812500
vt 0.875000 0.875000
vt 0.875000 0.750000
vt 0.562500 0.625000
vn 0.1894 0.0508 -0.9806
vn 0.9659 0.2588 0.0000
vn 0.4432 -0.8964 0.0000
vn -0.0644 0.9979 0.0000
vn 0.1894 0.0508 0.9806
usemtl MAIN
s off
f 49/121/30 50/122/30 48/123/30 47/124/30
f 47/125/31 48/126/31 46/127/31 45/128/31
f 49/129/32 47/130/32 45/131/32 51/132/32
f 48/133/33 50/134/33 52/135/33 46/136/33
f 45/137/34 46/127/34 52/138/34 51/132/34
o HORN_EXTRA_UNDEAD_Cube.013
v -0.317134 0.503166 0.187500
v -0.317134 0.503166 -0.187500
v -0.014325 0.281960 0.187500
v -0.014325 0.281960 -0.187500
v -0.501472 0.250826 0.187500
v -0.464604 0.301294 0.187500
v -0.427737 0.351762 0.187500
v -0.427737 0.351762 -0.187500
v -0.464604 0.301294 -0.187500
v -0.501472 0.250826 -0.187500
v -0.124928 0.130556 -0.187500
v -0.124928 0.130556 0.187500
v -0.115261 0.355696 -0.187500
v -0.115261 0.355696 0.187500
v -0.299600 0.103355 0.187500
v -0.262732 0.153823 0.187500
v -0.225864 0.204292 0.187500
v -0.299600 0.103355 -0.187500
v -0.262732 0.153823 -0.187500
v -0.225864 0.204292 -0.187500
v -0.317134 0.503166 0.000000
v -0.014325 0.281960 0.000000
v -0.124928 0.130556 0.000000
v -0.501472 0.250826 0.125000
v -0.501472 0.250826 0.062500
v -0.501472 0.250826 0.000000
v -0.501472 0.250826 -0.062500
v -0.501472 0.250826 -0.125000
v -0.464604 0.301294 0.125000
v -0.464604 0.301294 0.062500
v -0.464604 0.301294 0.000000
v -0.464604 0.301294 -0.062500
v -0.464604 0.301294 -0.125000
v -0.427737 0.351762 0.000000
v -0.115261 0.355696 0.000000
v -0.523604 0.000792 0.187500
v -0.523604 0.000792 -0.187500
v -0.152758 -0.054867 0.187500
v -0.152758 -0.054867 -0.187500
v -0.514328 0.062600 0.187500
v -0.505051 0.124408 0.187500
v -0.514328 0.062600 -0.187500
v -0.124928 0.130556 -0.187500
v -0.124928 0.130556 0.187500
v -0.267097 0.025494 0.187500
v -0.248544 0.149109 0.187500
v -0.267097 0.025494 -0.187500
v -0.248544 0.149109 -0.187500
v -0.523604 0.000792 0.000000
v -0.514328 0.062600 0.125000
v -0.514328 0.062600 0.062500
v -0.514328 0.062600 0.000000
v -0.514328 0.062600 -0.062500
v -0.514328 0.062600 -0.125000
v -0.505051 0.124408 0.125000
v -0.505051 0.124408 0.062500
v -0.505051 0.124408 0.000000
v -0.505051 0.124408 -0.062500
v -0.505051 0.124408 -0.125000
v -0.461796 -0.008484 -0.125000
v -0.461796 -0.008484 0.000000
v -0.461796 -0.008484 0.125000
v -0.214566 -0.045590 -0.125000
v -0.214566 -0.045590 0.125000
vt 0.000000 1.000000
vt 0.000000 0.812500
vt 0.187500 0.812500
vt 0.187500 1.000000
vt 0.812500 1.000000
vt 0.687500 1.000000
vt 0.687500 0.812500
vt 0.812500 0.812500
vt 0.062500 0.687500
vt 0.062500 0.750000
vt 0.000000 0.750000
vt 0.000000 0.687500
vt 0.437500 0.812500
vt 0.687500 0.812500
vt 0.687500 0.750000
vt 0.437500 0.750000
vt 0.687500 0.687500
vt 0.437500 0.687500
vt 0.187500 0.312500
vt 0.187500 0.187500
vt 0.375000 0.187500
vt 0.375000 0.312500
vt 0.437500 0.812500
vt 0.437500 0.750000
vt 0.687500 0.750000
vt 0.437500 0.687500
vt 0.687500 0.687500
vt 0.437500 1.000000
vt 0.437500 1.000000
vt 0.687500 1.000000
vt 0.000000 0.312500
vt 0.000000 0.187500
vt 0.375000 0.812500
vt 0.375000 1.000000
vt 0.250000 0.750000
vt 0.312500 0.750000
vt 0.125000 0.750000
vt 0.187500 0.562500
vt 0.187500 0.375000
vt 0.375000 0.375000
vt 0.375000 0.562500
vt 0.187500 0.750000
vt 0.312500 0.687500
vt 0.250000 0.687500
vt 0.187500 0.687500
vt 0.125000 0.687500
vt 0.187500 0.562500
vt 0.000000 0.562500
vt 0.375000 0.750000
vt 0.000000 0.562500
vt 0.000000 0.375000
vt 0.375000 0.562500
vt 0.812500 1.000000
vt 0.812500 0.812500
vt 0.437500 0.187500
vt 0.812500 0.187500
vt 0.750000 0.250000
vt 0.500000 0.250000
vt 0.062500 0.687500
vt 0.000000 0.687500
vt 0.000000 0.625000
vt 0.687500 0.687500
vt 0.437500 0.687500
vt 0.437500 0.625000
vt 0.812500 0.625000
vt 0.312500 0.687500
vt 0.250000 0.687500
vt 0.187500 0.625000
vt 0.375000 0.625000
vt 0.812500 0.812500
vt 0.687500 0.812500
vt 0.125000 0.687500
vt 0.500000 0.500000
vt 0.750000 0.500000
vt 0.812500 0.562500
vt 0.437500 0.562500
vt 0.500000 0.375000
vt 0.437500 0.375000
vt 0.375000 0.687500
vt 0.375000 0.750000
vt 0.312500 0.750000
vt 0.250000 0.750000
vt 0.187500 0.750000
vt 0.187500 0.687500
vt 0.125000 0.750000
vt 0.062500 0.750000
vt 0.437500 0.687500
vt 0.687500 0.687500
vt 0.812500 0.625000
vt 0.437500 0.625000
vt 0.000000 0.187500
vt 0.375000 0.187500
vt 0.375000 0.375000
vt 0.000000 0.375000
vt 0.687500 0.812500
vt 0.812500 0.812500
vn -0.8075 0.5899 0.0000
vn -0.0000 0.0000 1.0000
vn 0.0000 0.0000 -1.0000
vn 0.5899 0.8075 0.0000
vn 0.8075 -0.5899 0.0000
vn -0.1484 -0.9889 0.0000
vn -0.9889 0.1484 0.0000
vn 0.9889 -0.1484 0.0000
usemtl SKULL
s off
f 54/139/35 60/140/35 86/141/35 73/142/35
f 55/143/36 66/144/36 69/145/36 64/146/36
f 80/147/35 85/148/35 61/149/35 62/150/35
f 60/151/37 72/152/37 71/153/37 61/154/37
f 61/154/37 71/153/37 70/155/37 62/156/37
f 87/157/38 74/158/38 56/159/38 65/160/38
f 69/145/36 59/161/36 58/162/36 68/163/36
f 68/163/36 58/162/36 57/164/36 67/165/36
f 66/144/36 53/166/36 59/161/36 69/145/36
f 54/167/37 65/168/37 72/152/37 60/151/37
f 87/157/38 66/169/38 55/170/38 74/158/38
f 73/142/35 86/141/35 59/171/35 53/172/35
f 59/171/35 86/141/35 82/173/35 81/174/35
f 86/141/35 60/140/35 85/148/35 84/175/35
f 74/176/39 75/177/39 63/178/39 56/179/39
f 83/180/35 82/173/35 86/141/35
f 76/181/35 81/174/35 82/173/35 77/182/35
f 61/149/35 85/148/35 60/140/35
f 78/183/35 83/180/35 84/175/35 79/184/35
f 83/180/35 86/141/35 84/175/35
f 66/169/38 87/157/38 73/185/38 53/186/38
f 58/187/35 59/171/35 81/174/35
f 55/188/39 64/189/39 75/177/39 74/176/39
f 73/185/38 87/157/38 65/160/38 54/190/38
f 72/152/37 65/168/37 56/191/37 63/192/37
f 89/193/40 91/194/40 115/195/40 112/196/40
f 106/197/41 94/198/41 89/199/41
f 97/200/36 92/201/36 88/202/36 90/203/36
f 102/204/41 103/205/41 101/206/41 88/207/41
f 97/200/36 90/203/36 96/208/36 98/209/36
f 105/210/41 106/197/41 89/199/41 101/206/41
f 114/211/40 116/212/40 90/213/40 88/214/40
f 89/193/40 112/196/40 113/215/40 101/216/40
f 113/215/40 114/211/40 88/214/40 101/216/40
f 92/217/41 93/218/41 107/219/41 102/204/41
f 103/205/41 108/220/41 109/221/41 104/222/41
f 105/210/41 110/223/41 111/224/41 106/197/41
f 88/207/41 92/217/41 102/204/41
f 103/205/41 104/222/41 101/206/41
f 101/206/41 104/222/41 105/210/41
f 94/225/37 99/226/37 91/227/37 89/228/37
f 90/229/42 91/230/42 95/231/42 96/232/42
f 91/227/37 99/226/37 100/233/37 95/234/37
f 91/194/40 90/213/40 116/212/40 115/195/40
