# Blender v2.80 (sub 75) OBJ File: 'crystal_of_memories.blend'
# www.blender.org
mtllib crystal_of_memories.mtl
o CRYSTAL_Cube
v 0.500000 0.250000 0.437500
v 0.500000 0.750000 0.437500
v 0.500000 0.000000 0.500000
v 0.250000 0.500000 0.500000
v 0.500000 0.250000 0.562500
v 0.500000 0.750000 0.562500
v 0.500000 1.000000 0.500000
v 0.750000 0.500000 0.500000
v 0.375000 0.500000 0.437500
v 0.625000 0.500000 0.437500
v 0.625000 0.500000 0.562500
v 0.375000 0.500000 0.562500
v 0.557366 0.366501 0.429688
v 0.557366 0.366501 0.570312
v 0.667705 0.311332 0.500000
v 0.358782 0.465794 0.429688
v 0.358782 0.465794 0.570312
v 0.248442 0.520963 0.500000
v 0.641218 0.534206 0.429688
v 0.641218 0.534206 0.570312
v 0.751558 0.479037 0.500000
v 0.442634 0.633499 0.429688
v 0.442634 0.633499 0.570312
v 0.332295 0.688668 0.500000
v 0.222837 0.533766 0.483834
v 0.306690 0.701471 0.483833
v 0.334640 0.687495 0.537960
v 0.250788 0.519790 0.537960
v 0.250788 0.519790 0.429707
v 0.334640 0.687496 0.429707
v 0.306690 0.491840 0.429707
v 0.390542 0.659545 0.429707
v 0.346218 0.472075 0.385513
v 0.430071 0.639780 0.385513
v 0.326454 0.481957 0.363416
v 0.410306 0.649662 0.363416
v 0.306690 0.491840 0.385513
v 0.390542 0.659545 0.385513
v 0.316572 0.486899 0.396561
v 0.400424 0.654604 0.396561
v 0.326454 0.481957 0.385513
v 0.410306 0.649662 0.385513
v 0.725812 0.577968 0.500000
v 0.592269 0.581073 0.412349
v 0.620220 0.525171 0.412349
v 0.697861 0.633869 0.500000
v 0.302139 0.366131 0.500000
v 0.379780 0.474829 0.412349
v 0.407731 0.418927 0.412349
v 0.274188 0.422032 0.500000
v 0.592269 0.581073 0.587651
v 0.620220 0.525171 0.587651
v 0.379780 0.474829 0.587651
v 0.407731 0.418927 0.587651
v 0.379780 0.474829 0.412349
v 0.407731 0.418927 0.412349
v 0.396564 0.398215 0.412349
v 0.334177 0.401959 0.412349
v 0.354137 0.086052 0.412349
v 0.322943 0.148552 0.412349
v 0.385330 0.148552 0.412349
v 0.326687 0.277184 0.412349
v 0.389075 0.273439 0.412349
v 0.557366 0.366501 0.429688
v 0.557366 0.366501 0.570312
v 0.667705 0.311332 0.500000
v 0.358782 0.465794 0.429688
v 0.358782 0.465794 0.570312
v 0.248442 0.520963 0.500000
v 0.641218 0.534206 0.429688
v 0.641218 0.534206 0.570312
v 0.751558 0.479037 0.500000
v 0.442634 0.633499 0.429688
v 0.442634 0.633499 0.570312
v 0.332295 0.688668 0.500000
v 0.222837 0.533766 0.483834
v 0.306690 0.701471 0.483833
v 0.334640 0.687495 0.537960
v 0.250788 0.519790 0.537960
v 0.250788 0.519790 0.429707
v 0.334640 0.687496 0.429707
v 0.306690 0.491840 0.429707
v 0.390542 0.659545 0.429707
v 0.346218 0.472075 0.385513
v 0.430071 0.639780 0.385513
v 0.326454 0.481957 0.363416
v 0.410306 0.649662 0.363416
v 0.306690 0.491840 0.385513
v 0.390542 0.659545 0.385513
v 0.316572 0.486899 0.396561
v 0.400424 0.654604 0.396561
v 0.326454 0.481957 0.385513
v 0.410306 0.649662 0.385513
v 0.725812 0.577968 0.500000
v 0.592269 0.581073 0.412349
v 0.620220 0.525171 0.412349
v 0.697861 0.633869 0.500000
v 0.302139 0.366131 0.500000
v 0.379780 0.474829 0.412349
v 0.407731 0.418927 0.412349
v 0.274188 0.422032 0.500000
v 0.592269 0.581073 0.587651
v 0.620220 0.525171 0.587651
v 0.379780 0.474829 0.587651
v 0.407731 0.418927 0.587651
v 0.379780 0.474829 0.412349
v 0.407731 0.418927 0.412349
v 0.396564 0.398215 0.412349
v 0.334177 0.401959 0.412349
v 0.354137 0.086052 0.412349
v 0.322943 0.148552 0.412349
v 0.385330 0.148552 0.412349
v 0.326687 0.277184 0.412349
v 0.389075 0.273439 0.412349
vt 0.375000 0.375000
vt 0.125000 0.500000
vt 0.375000 0.625000
vt 0.000000 0.000000
vt 0.500000 0.250000
vt 0.250000 0.250000
vt 0.000000 0.125000
vt 0.375000 0.375000
vt 0.625000 0.500000
vt 0.375000 0.625000
vt 0.000000 0.000000
vt 0.250000 0.250000
vt 0.000000 0.125000
vt 0.250000 0.750000
vt 0.000000 0.625000
vt 0.000000 0.500000
vt 0.500000 0.750000
vt 0.250000 0.750000
vt 0.000000 0.625000
vt 0.000000 0.500000
vt 0.000000 1.000000
vt 0.000000 0.875000
vt 0.125000 0.500000
vt 0.000000 1.000000
vt 0.000000 0.875000
vt 0.625000 0.500000
vt 0.000000 0.375000
vt 0.000000 0.375000
vt 0.968750 0.000000
vt 0.968750 0.187500
vt 0.781250 0.187500
vt 0.781250 0.000000
vt 0.781250 0.187500
vt 0.781250 0.000000
vt 0.968750 0.000000
vt 0.968750 0.187500
vt 0.968750 0.437500
vt 0.968750 0.625000
vt 0.781250 0.625000
vt 0.781250 0.437500
vt 0.968750 0.437500
vt 0.781250 0.437500
vt 0.968750 0.625000
vt 0.781250 0.625000
vt 0.781250 0.625000
vt 0.968750 0.625000
vt 0.968750 0.687500
vt 0.781250 0.687500
vt 0.968750 0.750000
vt 0.781250 0.750000
vt 0.968750 0.812500
vt 0.781250 0.812500
vt 0.968750 0.875000
vt 0.781250 0.875000
vt 0.781250 1.000000
vt 0.968750 1.000000
vt 0.968750 0.937500
vt 0.781250 0.937500
vt 0.968750 0.875000
vt 0.781250 0.875000
vt 0.968750 0.937500
vt 0.781250 0.937500
vt 0.781250 1.000000
vt 0.968750 1.000000
vt 0.781250 0.937500
vt 0.968750 0.937500
vt 0.687500 0.875000
vt 0.687500 1.000000
vt 0.750000 1.000000
vt 0.750000 0.875000
vt 0.687500 0.625000
vt 0.750000 0.625000
vt 0.750000 0.500000
vt 0.687500 0.500000
vt 0.687500 0.125000
vt 0.750000 0.125000
vt 0.750000 0.000000
vt 0.687500 0.000000
vt 0.687500 0.375000
vt 0.750000 0.375000
vt 0.687500 0.625000
vt 0.625000 0.687500
vt 0.687500 0.687500
vt 0.687500 1.000000
vt 0.625000 1.000000
vt 0.625000 0.937500
vt 0.687500 0.937500
vt 0.625000 0.812500
vt 0.687500 0.687500
vt 0.687500 0.812500
vt 0.968750 0.000000
vt 0.781250 0.000000
vt 0.781250 0.187500
vt 0.968750 0.187500
vt 0.781250 0.187500
vt 0.968750 0.187500
vt 0.968750 0.000000
vt 0.781250 0.000000
vt 0.968750 0.437500
vt 0.781250 0.437500
vt 0.781250 0.625000
vt 0.968750 0.625000
vt 0.968750 0.437500
vt 0.781250 0.437500
vt 0.781250 0.625000
vt 0.968750 0.625000
vt 0.781250 0.625000
vt 0.781250 0.687500
vt 0.968750 0.687500
vt 0.968750 0.625000
vt 0.781250 0.750000
vt 0.968750 0.750000
vt 0.781250 0.812500
vt 0.968750 0.812500
vt 0.781250 0.875000
vt 0.968750 0.875000
vt 0.781250 1.000000
vt 0.781250 0.937500
vt 0.968750 0.937500
vt 0.968750 1.000000
vt 0.781250 0.875000
vt 0.968750 0.875000
vt 0.968750 0.937500
vt 0.968750 1.000000
vt 0.781250 1.000000
vt 0.781250 0.937500
vt 0.968750 0.937500
vt 0.781250 0.937500
vt 0.687500 0.875000
vt 0.750000 0.875000
vt 0.750000 1.000000
vt 0.687500 1.000000
vt 0.687500 0.625000
vt 0.687500 0.500000
vt 0.750000 0.500000
vt 0.750000 0.625000
vt 0.687500 0.125000
vt 0.687500 0.000000
vt 0.750000 0.000000
vt 0.750000 0.125000
vt 0.687500 0.375000
vt 0.750000 0.375000
vt 0.687500 0.625000
vt 0.687500 0.687500
vt 0.625000 0.687500
vt 0.687500 1.000000
vt 0.687500 0.937500
vt 0.625000 0.937500
vt 0.625000 1.000000
vt 0.625000 0.812500
vt 0.687500 0.812500
vt 0.687500 0.687500
vn 0.0000 0.0000 -1.0000
vn 0.4364 0.2182 0.8729
vn 0.0000 0.0000 1.0000
vn -0.4364 0.2182 -0.8729
vn 0.4364 -0.2182 -0.8729
vn -0.4364 -0.2182 0.8729
vn -0.4364 -0.2182 -0.8729
vn 0.4364 -0.2182 0.8729
vn -0.4364 0.2182 0.8729
vn 0.4364 0.2182 -0.8729
vn 0.4429 -0.2215 -0.8688
vn 0.4429 -0.2215 0.8688
vn -0.4429 0.2215 -0.8688
vn -0.4429 0.2215 0.8688
vn -0.7746 0.3873 0.5000
vn -0.2315 0.1157 0.9659
vn -0.7746 0.3873 -0.5000
vn -0.6325 0.3162 -0.7071
vn -0.6325 0.3162 0.7071
vn 0.6325 -0.3162 0.7071
vn 0.6325 -0.3162 -0.7071
vn -0.5332 -0.2666 0.8029
vn 0.5332 0.2666 0.8029
vn -0.5332 -0.2666 -0.8029
vn 0.5332 0.2666 -0.8029
vn 0.7746 -0.3873 -0.5000
vn 0.2315 -0.1157 -0.9659
vn 0.7746 -0.3873 0.5000
usemtl MAIN
s off
f 9/1/1 2/2/1 10/3/1
f 8/4/2 7/5/2 6/6/2 11/7/2
f 11/8/3 6/9/3 12/10/3
f 4/11/4 7/5/4 2/12/4 9/13/4
f 1/14/5 10/15/5 8/16/5 3/17/5
f 5/18/6 12/19/6 4/20/6 3/17/6
f 3/17/7 4/21/7 9/22/7 1/14/7
f 5/23/3 11/8/3 12/10/3
f 3/17/8 8/24/8 11/25/8 5/18/8
f 1/26/1 9/1/1 10/3/1
f 12/27/9 6/6/9 7/5/9 4/20/9
f 10/28/10 2/12/10 7/5/10 8/16/10
f 15/29/11 13/30/11 19/31/11 21/32/11
f 14/33/12 15/34/12 21/35/12 20/36/12
f 16/37/13 18/38/13 24/39/13 22/40/13
f 23/41/3 17/42/3 14/33/3 20/36/3
f 17/42/14 23/41/14 24/43/14 18/44/14
f 13/30/1 16/37/1 22/40/1 19/31/1
f 28/45/15 27/46/15 26/47/15 25/48/15
f 17/42/16 23/41/16 27/46/16 28/45/16
f 25/48/17 26/47/17 30/49/17 29/50/17
f 29/50/1 30/49/1 32/51/1 31/52/1
f 31/52/18 32/51/18 34/53/18 33/54/18
f 33/55/19 34/56/19 36/57/19 35/58/19
f 35/58/20 36/57/20 38/59/20 37/60/20
f 37/61/21 38/62/21 40/63/21 39/64/21
f 39/64/18 40/63/18 42/65/18 41/66/18
f 45/67/22 43/68/22 46/69/22 44/70/22
f 49/71/23 48/72/23 50/73/23 47/74/23
f 45/67/3 44/70/3 48/72/3 49/71/3
f 52/75/24 51/76/24 46/77/24 43/78/24
f 54/79/25 47/74/25 50/73/25 53/80/25
f 52/75/1 54/79/1 53/80/1 51/76/1
f 60/81/1 61/82/1 59/83/1
f 55/84/1 56/85/1 57/86/1 58/87/1
f 63/88/1 61/82/1 60/89/1 62/90/1
f 57/86/1 63/88/1 62/90/1 58/87/1
f 66/91/14 72/92/14 70/93/14 64/94/14
f 65/95/13 71/96/13 72/97/13 66/98/13
f 67/99/12 73/100/12 75/101/12 69/102/12
f 74/103/1 71/96/1 65/95/1 68/104/1
f 68/104/11 69/105/11 75/106/11 74/103/11
f 64/94/3 70/93/3 73/100/3 67/99/3
f 79/107/26 76/108/26 77/109/26 78/110/26
f 68/104/27 79/107/27 78/110/27 74/103/27
f 76/108/28 80/111/28 81/112/28 77/109/28
f 80/111/3 82/113/3 83/114/3 81/112/3
f 82/113/20 84/115/20 85/116/20 83/114/20
f 84/117/21 86/118/21 87/119/21 85/120/21
f 86/118/18 88/121/18 89/122/18 87/119/18
f 88/123/19 90/124/19 91/125/19 89/126/19
f 90/124/20 92/127/20 93/128/20 91/125/20
f 96/129/25 95/130/25 97/131/25 94/132/25
f 100/133/24 98/134/24 101/135/24 99/136/24
f 96/129/1 100/133/1 99/136/1 95/130/1
f 103/137/23 94/138/23 97/139/23 102/140/23
f 105/141/22 104/142/22 101/135/22 98/134/22
f 103/137/3 102/140/3 104/142/3 105/141/3
f 111/143/3 110/144/3 112/145/3
f 106/146/3 109/147/3 108/148/3 107/149/3
f 114/150/3 113/151/3 111/152/3 112/145/3
f 108/148/3 109/147/3 113/151/3 114/150/3
