# Blender v2.80 (sub 75) OBJ File: 'runic_anvil.blend'
# www.blender.org
mtllib runic_anvil_circle_lower.mtl
o ANVIL_CIRCLE_LOWER_Plane.001
v -0.500000 0.000000 0.500000
v 0.500000 0.000000 0.500000
v -0.500000 0.000000 -0.500000
v 0.500000 0.000000 -0.500000
v -0.312500 0.000000 -0.312500
v -0.312500 0.000000 0.312500
v 0.312500 0.000000 0.312500
v 0.312500 0.000000 -0.312500
v 0.000000 0.000000 0.312500
v 0.000000 0.000000 0.500000
v -0.312500 0.000000 0.000000
v -0.500000 0.000000 0.000000
v 0.001227 0.000000 -0.312500
v 0.001785 0.000000 -0.500000
v 0.312500 0.000000 0.000000
v 0.500000 0.000000 0.000000
v -0.500000 0.000000 0.500000
v 0.500000 0.000000 0.500000
v -0.500000 0.000000 -0.500000
v 0.500000 0.000000 -0.500000
v -0.312500 0.000000 -0.312500
v -0.312500 0.000000 0.312500
v 0.312500 0.000000 0.312500
v 0.312500 0.000000 -0.312500
v 0.000000 0.000000 0.312500
v 0.000000 0.000000 0.500000
v -0.312500 0.000000 0.000000
v -0.500000 0.000000 0.000000
v 0.001227 0.000000 -0.312500
v 0.001785 0.000000 -0.500000
v 0.312500 0.000000 0.000000
v 0.500000 0.000000 0.000000
vt 0.812500 -0.000000
vt 0.812500 0.312500
vt 1.000000 0.500000
vt 1.000000 0.000000
vt 0.812500 -0.000000
vt 0.812500 0.312500
vt 1.000000 0.500000
vt 1.000000 -0.000000
vt 0.812500 -0.000000
vt 0.812500 0.312500
vt 1.000000 0.500000
vt 1.000000 -0.000000
vt 0.812500 -0.000000
vt 0.812500 0.312500
vt 1.000000 0.500000
vt 1.000000 -0.000000
vt 0.812500 -0.000000
vt 1.000000 0.000000
vt 1.000000 0.500000
vt 0.812500 0.312500
vt 0.812500 -0.000000
vt 1.000000 -0.000000
vt 1.000000 0.500000
vt 0.812500 0.312500
vt 0.812500 -0.000000
vt 1.000000 -0.000000
vt 1.000000 0.500000
vt 0.812500 0.312500
vt 0.812500 -0.000000
vt 1.000000 -0.000000
vt 1.000000 0.500000
vt 0.812500 0.312500
vn 0.0000 1.0000 0.0000
vn 0.0000 -1.0000 0.0000
usemtl MAIN
s off
f 11/1/1 5/2/1 3/3/1 12/4/1
f 9/5/1 6/6/1 1/7/1 10/8/1
f 15/9/1 7/10/1 2/11/1 16/12/1
f 13/13/1 8/14/1 4/15/1 14/16/1
f 7/10/1 9/5/1 10/8/1 2/11/1
f 6/6/1 11/1/1 12/4/1 1/7/1
f 5/2/1 13/13/1 14/16/1 3/3/1
f 8/14/1 15/9/1 16/12/1 4/15/1
f 27/17/2 28/18/2 19/19/2 21/20/2
f 25/21/2 26/22/2 17/23/2 22/24/2
f 31/25/2 32/26/2 18/27/2 23/28/2
f 29/29/2 30/30/2 20/31/2 24/32/2
f 23/28/2 18/27/2 26/22/2 25/21/2
f 22/24/2 17/23/2 28/18/2 27/17/2
f 21/20/2 19/19/2 30/30/2 29/29/2
f 24/32/2 20/31/2 32/26/2 31/25/2
