{
  "accessors": [
    {
      "bufferView": 1,
      "componentType": 5126,
      "count": 957,
      "max": [
        0.5582617521286011,
        0.6456705331802368,
        4.999999873689376e-05
      ],
      "min": [
        -0.5582617521286011,
        -0.328666627407074,
        -4.999999873689376e-05
      ],
      "type": "VEC3"
    },
    {
      "bufferView": 1,
      "byteOffset": 11484,
      "componentType": 5126,
      "count": 957,
      "max": [
        1.0,
        0.9990958571434021,
        1.0
      ],
      "min": [
        -1.0,
        -0.9999544620513916,
        -1.0
      ],
      "type": "VEC3"
    },
    {
      "bufferView": 0,
      "componentType": 5125,
      "count": 1788,
      "type": "SCALAR"
    },
    {
      "bufferView": 1,
      "byteOffset": 22968,
      "componentType": 5126,
      "count": 857,
      "max": [
        0.5340192317962646,
        0.6144776344299316,
        0.0
      ],
      "min": [
        -0.5340194702148438,
        -0.36226361989974976,
        -9.999999747378752e-05
      ],
      "type": "VEC3"
    },
    {
      "bufferView": 1,
      "byteOffset": 33252,
      "componentType": 5126,
      "count": 857,
      "max": [
        1.0,
        0.9999324083328247,
        1.0
      ],
      "min": [
        -1.0,
        -0.9486822485923767,
        -1.0
      ],
      "type": "VEC3"
    },
    {
      "bufferView": 0,
      "byteOffset": 7152,
      "componentType": 5125,
      "count": 1572,
      "type": "SCALAR"
    },
    {
      "bufferView": 1,
      "byteOffset": 43536,
      "componentType": 5126,
      "count": 5775,
      "max": [
        2.6624503135681152,
        0.48371174931526184,
        0.0
      ],
      "min": [
        1.7156553268432617,
        -0.4638674259185791,
        -9.999999747378752e-05
      ],
      "type": "VEC3"
    },
    {
      "bufferView": 1,
      "byteOffset": 112836,
      "componentType": 5126,
      "count": 5775,
      "max": [
        1.0,
        1.0,
        1.0
      ],
      "min": [
        -1.0,
        -1.0,
        -1.0
      ],
      "type": "VEC3"
    },
    {
      "bufferView": 0,
      "byteOffset": 13440,
      "componentType": 5125,
      "count": 11592,
      "type": "SCALAR"
    },
    {
      "bufferView": 1,
      "byteOffset": 182136,
      "componentType": 5126,
      "count": 23002,
      "max": [
        3.7018699645996094,
        0.501670241355896,
        0.0
      ],
      "min": [
        2.69803786277771,
        -0.5019245743751526,
        -9.999999747378752e-05
      ],
      "type": "VEC3"
    },
    {
      "bufferView": 1,
      "byteOffset": 458160,
      "componentType": 5126,
      "count": 23002,
      "max": [
        1.0,
        1.0,
        1.0
      ],
      "min": [
        -1.0,
        -1.0,
        -1.0
      ],
      "type": "VEC3"
    },
    {
      "bufferView": 0,
      "byteOffset": 59808,
      "componentType": 5125,
      "count": 42216,
      "type": "SCALAR"
    }
  ],
  "asset": {
    "extras": {
      "author": "Classic- (https://sketchfab.com/Classic-)",
      "license": "CC-BY-4.0 (http://creativecommons.org/licenses/by/4.0/)",
      "source": "https://sketchfab.com/3d-models/absolute-solver-models-07e0cd9f15a14a9387e20532782a2751",
      "title": "Absolute Solver Models"
    },
    "generator": "Sketchfab-16.35.0",
    "version": "2.0"
  },
  "bufferViews": [
    {
      "buffer": 0,
      "byteLength": 228672,
      "name": "floatBufferViews",
      "target": 34963
    },
    {
      "buffer": 0,
      "byteLength": 734184,
      "byteOffset": 228672,
      "byteStride": 12,
      "name": "floatBufferViews",
      "target": 34962
    }
  ],
  "buffers": [
    {
      "byteLength": 962856,
      "uri": "scene.bin"
    }
  ],
  "extensionsUsed": [
    "KHR_materials_emissive_strength"
  ],
  "materials": [
    {
      "doubleSided": true,
      "emissiveFactor": [
        1.0,
        1.0,
        0.0
      ],
      "extensions": {
        "KHR_materials_emissive_strength": {
          "emissiveStrength": 10.0
        }
      },
      "name": "Solver",
      "pbrMetallicRoughness": {
        "baseColorFactor": [
          0.0,
          0.0,
          0.0,
          1.0
        ],
        "metallicFactor": 0.0
      }
    }
  ],
  "meshes": [
    {
      "name": "Solver Transform_Solver_0",
      "primitives": [
        {
          "attributes": {
            "NORMAL": 1,
            "POSITION": 0
          },
          "indices": 2,
          "material": 0,
          "mode": 4
        }
      ]
    },
    {
      "name": "Solver Scale_Solver_0",
      "primitives": [
        {
          "attributes": {
            "NORMAL": 4,
            "POSITION": 3
          },
          "indices": 5,
          "material": 0,
          "mode": 4
        }
      ]
    },
    {
      "name": "Solver Edit_Solver_0",
      "primitives": [
        {
          "attributes": {
            "NORMAL": 7,
            "POSITION": 6
          },
          "indices": 8,
          "material": 0,
          "mode": 4
        }
      ]
    },
    {
      "name": "Solver Rotate_Solver_0",
      "primitives": [
        {
          "attributes": {
            "NORMAL": 10,
            "POSITION": 9
          },
          "indices": 11,
          "material": 0,
          "mode": 4
        }
      ]
    }
  ],
  "nodes": [
    {
      "children": [
        1
      ],
      "matrix": [
        1.0,
        0.0,
        0.0,
        0.0,
        0.0,
        2.220446049250313e-16,
        -1.0,
        0.0,
        0.0,
        1.0,
        2.220446049250313e-16,
        0.0,
        0.0,
        0.0,
        0.0,
        1.0
      ],
      "name": "Sketchfab_model"
    },
    {
      "children": [
        2
      ],
      "matrix": [
        1.0,
        0.0,
        0.0,
        0.0,
        0.0,
        0.0,
        1.0,
        0.0,
        0.0,
        -1.0,
        0.0,
        0.0,
        0.0,
        0.0,
        0.0,
        1.0
      ],
      "name": "617b6881e57e4c88a6cfdd0a3cda6ebe.fbx"
    },
    {
      "children": [
        3,
        5,
        7,
        9
      ],
      "name": "RootNode"
    },
    {
      "children": [
        4
      ],
      "matrix": [
        100.0,
        0.0,
        0.0,
        0.0,
        0.0,
        -1.629206793918314e-05,
        -99.99999999999868,
        0.0,
        0.0,
        99.99999999999868,
        -1.629206793918314e-05,
        0.0,
        0.0,
        0.0,
        0.0,
        1.0
      ],
      "name": "Solver Transform"
    },
    {
      "mesh": 0,
      "name": "Solver Transform_Solver_0"
    },
    {
      "children": [
        6
      ],
      "matrix": [
        100.0,
        0.0,
        0.0,
        0.0,
        0.0,
        -1.629206793918314e-05,
        -99.99999999999868,
        0.0,
        0.0,
        99.99999999999868,
        -1.629206793918314e-05,
        0.0,
        110.0,
        0.0,
        0.0,
        1.0
      ],
      "name": "Solver Scale"
    },
    {
      "mesh": 1,
      "name": "Solver Scale_Solver_0"
    },
    {
      "children": [
        8
      ],
      "matrix": [
        100.0,
        0.0,
        0.0,
        0.0,
        0.0,
        -1.629206793918314e-05,
        -99.99999999999868,
        0.0,
        0.0,
        99.99999999999868,
        -1.629206793918314e-05,
        0.0,
        0.0,
        0.0,
        0.0,
        1.0
      ],
      "name": "Solver Edit"
    },
    {
      "mesh": 2,
      "name": "Solver Edit_Solver_0"
    },
    {
      "children": [
        10
      ],
      "matrix": [
        100.0,
        0.0,
        0.0,
        0.0,
        0.0,
        -1.629206793918314e-05,
        -99.99999999999868,
        0.0,
        0.0,
        99.99999999999868,
        -1.629206793918314e-05,
        0.0,
        0.0,
        0.0,
        0.0,
        1.0
      ],
      "name": "Solver Rotate"
    },
    {
      "mesh": 3,
      "name": "Solver Rotate_Solver_0"
    }
  ],
  "scene": 0,
  "scenes": [
    {
      "name": "Sketchfab_Scene",
      "nodes": [
        0
      ]
    }
  ]
}
