# Blender v2.80 (sub 75) OBJ File: 'ground_runes.blend'
# www.blender.org
mtllib rune_style_k.mtl
o RUNE_STYLE_K_Plane.021
v 0.312500 0.000000 0.187500
v 0.437500 0.000000 0.812500
v 0.312500 0.000000 0.812500
v 0.437500 0.000000 0.187500
v 0.437500 0.000000 0.331838
v 0.562500 0.000000 0.259669
v 0.562500 0.000000 0.404006
v 0.437500 0.000000 0.468750
v 0.437500 0.000000 0.613088
v 0.562500 0.000000 0.540919
v 0.562500 0.000000 0.685256
v 0.312500 0.000000 0.486792
v 0.312500 0.000000 0.558961
v 0.343750 0.031250 0.486792
v 0.343750 0.031250 0.558961
v 0.343750 0.031250 0.218750
v 0.343750 0.031250 0.781250
v 0.406250 0.031250 0.781250
v 0.593750 0.031250 0.313795
v 0.429127 0.031250 0.218750
v 0.406250 0.031250 0.277711
v 0.593750 0.031250 0.385964
v 0.593750 0.031250 0.595045
v 0.406250 0.031250 0.486792
v 0.406250 0.031250 0.558961
v 0.593750 0.031250 0.667214
v 0.687500 0.000000 0.812500
v 0.562500 0.000000 0.812500
v 0.593750 0.031250 0.781250
v 0.656250 0.031250 0.781250
v 0.656250 0.031250 0.218750
v 0.593750 0.031250 0.218750
v 0.562500 0.000000 0.187500
v 0.687500 0.000000 0.187500
v 0.656250 0.031250 0.313795
v 0.656250 0.031250 0.385964
v 0.656250 0.031250 0.595045
v 0.656250 0.031250 0.667214
v 0.687500 0.000000 0.313795
v 0.687500 0.000000 0.385964
v 0.687500 0.000000 0.595045
v 0.687500 0.000000 0.667214
vt 0.000000 0.471992
vt 0.000000 0.544211
vt 0.062500 0.544211
vt 0.062500 0.471992
vt 0.062500 0.726199
vt 0.000000 0.715904
vt 0.000000 0.500000
vt 0.062500 0.536912
vt 0.062500 0.562618
vt 0.000000 0.526100
vt 0.000000 0.312500
vt 0.062500 0.349018
vt 0.000000 0.750000
vt 0.062500 0.727677
vt 0.000000 0.809055
vt 0.000000 0.753445
vt 0.062500 0.812500
vt 0.062500 0.249500
vt 0.000000 0.249500
vt 0.125000 0.544211
vt 0.125000 0.471992
vt 0.062500 0.312000
vt 0.125000 0.218250
vt 0.125000 0.343250
vt 0.125000 0.590378
vt 0.125000 0.735574
vt 0.062500 0.500000
vt 0.062500 0.715904
vt 0.125000 0.663404
vt 0.125000 0.518125
vt 0.125000 0.402143
vt 0.125000 0.543243
vt 0.062500 0.312500
vt 0.062500 0.526100
vt 0.125000 0.474522
vt 0.125000 0.331793
vt 0.062500 0.726374
vt 0.125000 0.717624
vt 0.125000 0.843750
vt 0.062500 0.753445
vt 0.062500 0.544211
vt 0.125000 0.562322
vt 0.125000 0.699898
vt 0.124500 0.218250
vt 0.062500 0.471992
vt 0.062500 0.249500
vt 0.125000 0.218248
vt 0.125000 0.418417
vt 0.062500 0.312000
vt 0.062500 0.249500
vt 0.125000 0.218250
vt 0.125000 0.343250
vt 0.062500 0.750000
vt 0.125000 0.718750
vt 0.125000 0.843750
vt 0.062500 0.812500
vt 0.125000 0.626376
vt 0.125000 0.489109
vt 0.062500 0.435984
vt 0.062500 0.645126
vt 0.125000 0.344269
vt 0.062500 0.363616
vt 0.125000 0.771442
vt 0.062500 0.717371
vt 0.000000 0.812500
vt 0.000000 0.717371
vt 0.062500 0.717371
vt 0.062500 0.812500
vt 0.000000 0.435984
vt 0.000000 0.363616
vt 0.062500 0.363616
vt 0.062500 0.435984
vt 0.000000 0.645126
vt 0.062500 0.645126
vt 0.000000 0.249500
vt 0.062500 0.249500
vt 0.125000 0.717371
vt 0.125000 0.843750
vt 0.125000 0.435984
vt 0.125000 0.645126
vt 0.125000 0.218250
vt 0.125000 0.363616
vn 0.0000 1.0000 0.0000
vn -0.7071 0.7071 0.0000
vn 0.0000 0.7071 0.7071
vn 0.3536 0.7071 -0.6124
vn -0.3536 0.7071 0.6124
vn 0.0000 0.7071 -0.7071
vn 0.7071 0.7071 0.0000
usemtl GROUND_RUNE
s off
f 25/1/1 24/2/1 14/3/1 15/4/1
f 20/5/1 21/6/1 22/7/1 19/8/1
f 24/9/1 25/10/1 26/11/1 23/12/1
f 21/13/1 20/14/1 16/15/1
f 24/2/1 21/16/1 16/17/1 14/3/1
f 25/1/1 15/4/1 17/18/1 18/19/1
f 15/4/2 14/3/2 12/20/2 13/21/2
f 18/22/3 17/18/3 3/23/3 2/24/3
f 20/5/4 19/8/4 6/25/4 4/26/4
f 22/27/5 21/28/5 5/29/5 7/30/5
f 24/9/4 23/12/4 10/31/4 8/32/4
f 26/33/5 25/34/5 9/35/5 11/36/5
f 16/17/6 20/37/6 4/38/6 1/39/6
f 21/40/7 24/41/7 8/42/7 5/43/7
f 14/3/2 16/17/2 1/39/2 12/20/2
f 17/18/2 15/4/2 13/21/2 3/44/2
f 25/45/7 18/46/7 2/47/7 9/48/7
f 30/49/3 29/50/3 28/51/3 27/52/3
f 31/53/6 34/54/6 33/55/6 32/56/6
f 7/57/2 10/58/2 23/59/2 22/60/2
f 11/61/2 28/51/2 29/50/2 26/62/2
f 6/63/2 19/64/2 32/56/2 33/55/2
f 32/65/1 19/66/1 35/67/1 31/68/1
f 23/69/1 26/70/1 38/71/1 37/72/1
f 19/66/1 22/73/1 36/74/1 35/67/1
f 22/73/1 23/69/1 37/72/1 36/74/1
f 26/70/1 29/75/1 30/76/1 38/71/1
f 31/68/7 35/67/7 39/77/7 34/78/7
f 36/74/7 37/72/7 41/79/7 40/80/7
f 35/67/7 36/74/7 40/80/7 39/77/7
f 38/71/7 30/76/7 27/81/7 42/82/7
f 37/72/7 38/71/7 42/82/7 41/79/7
