# Blender v2.80 (sub 75) OBJ File: 'ground_runes.blend'
# www.blender.org
mtllib rune_style_a_active.mtl
o RUNE_STYLE_A_ACTIVE_Plane.015
v 0.562500 0.000000 0.812500
v 0.437500 0.000000 0.812500
v 0.562500 0.000000 0.501295
v 0.562500 0.000000 0.626295
v 0.437500 0.000000 0.501295
v 0.437500 0.000000 0.626295
v 0.468750 0.031250 0.532545
v 0.468750 0.031250 0.595045
v 0.468750 0.031250 0.781250
v 0.531250 0.031250 0.781250
v 0.531250 0.031250 0.532545
v 0.531250 0.031250 0.595045
v 0.375000 0.031250 0.532545
v 0.375000 0.031250 0.595045
v 0.343750 0.000000 0.501295
v 0.343750 0.000000 0.626295
v 0.625000 0.031250 0.532545
v 0.625000 0.031250 0.595045
v 0.656250 0.000000 0.501295
v 0.656250 0.000000 0.626295
v 0.531250 0.031250 0.407545
v 0.468750 0.031250 0.407545
v 0.437500 0.000000 0.438795
v 0.562500 0.000000 0.438795
v 0.531250 0.031250 0.345045
v 0.468750 0.031250 0.345045
v 0.437500 0.000000 0.313795
v 0.562500 0.000000 0.313795
v 0.531250 0.031250 0.220045
v 0.468750 0.031250 0.220045
v 0.437500 0.000000 0.188795
v 0.562500 0.000000 0.188795
v 0.281250 0.031250 0.407545
v 0.250000 0.000000 0.438795
v 0.281250 0.031250 0.345045
v 0.250000 0.000000 0.313795
v 0.750000 0.000000 0.438795
v 0.718750 0.031250 0.407545
v 0.750000 0.000000 0.313795
v 0.718750 0.031250 0.345045
vt 0.187500 0.375000
vt 0.187500 0.437500
vt 0.125000 0.437500
vt 0.125000 0.375000
vt 0.125000 0.187500
vt 0.187500 0.187500
vt 0.187500 0.250000
vt 0.187500 0.187500
vt 0.250000 0.156250
vt 0.250000 0.281250
vt 0.187500 0.406250
vt 0.250000 0.437500
vt 0.250000 0.531250
vt 0.187500 0.500000
vt 0.187500 0.375000
vt 0.250001 0.343750
vt 0.250000 0.156250
vt 0.250001 0.343750
vt 0.187500 0.437500
vt 0.187500 0.500000
vt 0.250000 0.531250
vt 0.250002 0.406250
vt 0.250000 0.437500
vt 0.187500 0.406250
vt 0.187500 0.500000
vt 0.250000 0.531250
vt 0.125000 0.406250
vt 0.187500 0.406250
vt 0.125000 0.500000
vt 0.250000 0.437500
vt 0.187500 0.437500
vt 0.250002 0.406250
vt 0.250000 0.531250
vt 0.187500 0.500000
vt 0.250000 0.437500
vt 0.187500 0.406250
vt 0.125000 0.406250
vt 0.125000 0.500000
vt 0.250000 0.468750
vt 0.187500 0.437500
vt 0.187500 0.562500
vt 0.250001 0.531250
vt 0.187500 0.562500
vt 0.125000 0.562500
vt 0.250000 0.468750
vt 0.250001 0.531250
vt 0.187500 0.625000
vt 0.250000 0.656250
vt 0.250000 0.781250
vt 0.187500 0.750000
vt 0.125000 0.625000
vt 0.187500 0.625000
vt 0.187500 0.812500
vt 0.125000 0.812500
vt 0.250000 0.781250
vt 0.187500 0.812500
vt 0.187500 0.625000
vt 0.250000 0.593750
vt 0.125000 0.625000
vt 0.187500 0.687500
vt 0.250000 0.656250
vt 0.250000 0.781250
vt 0.187500 0.750000
vt 0.125000 0.750000
vt 0.250000 0.656250
vt 0.250000 0.843750
vt 0.187500 0.812500
vt 0.187500 0.750000
vt 0.250000 0.718750
vt 0.250000 0.781250
vt 0.187500 0.812500
vt 0.187500 0.625000
vt 0.250000 0.593750
vt 0.187500 0.812500
vt 0.250000 0.781250
vt 0.250000 0.593750
vt 0.187500 0.625000
vt 0.187500 0.750000
vt 0.250000 0.718750
vt 0.250000 0.843750
vt 0.187500 0.812500
vt 0.125000 0.625000
vt 0.187500 0.625000
vt 0.187500 0.812500
vt 0.125000 0.812500
vt 0.187500 0.812500
vt 0.250000 0.781250
vt 0.250000 0.593750
vt 0.187500 0.625000
vn 0.0000 1.0000 0.0000
vn 0.0000 0.7071 0.7071
vn -0.7071 0.7071 0.0000
vn 0.7071 0.7071 0.0000
vn 0.0000 0.7071 -0.7071
usemtl GROUND_RUNE.001
s off
f 12/1/1 11/2/1 7/3/1 8/4/1
f 12/1/1 8/4/1 9/5/1 10/6/1
f 10/7/2 9/8/2 2/9/2 1/10/2
f 12/11/2 4/12/2 20/13/2 18/14/2
f 9/8/3 8/15/3 6/16/3 2/9/3
f 12/1/4 10/6/4 1/17/4 4/18/4
f 14/19/3 13/20/3 15/21/3 16/22/3
f 6/23/2 8/24/2 14/25/2 16/26/2
f 8/27/1 7/28/1 13/20/1 14/29/1
f 7/28/5 5/30/5 15/21/5 13/20/5
f 18/31/4 20/32/4 19/33/4 17/34/4
f 3/35/5 11/36/5 17/34/5 19/33/5
f 11/37/1 12/11/1 18/14/1 17/38/1
f 5/39/3 7/40/3 22/41/3 23/42/3
f 7/3/1 11/2/1 21/43/1 22/44/1
f 11/2/4 3/45/4 24/46/4 21/43/4
f 25/47/4 28/48/4 32/49/4 29/50/4
f 22/51/1 26/52/1 35/53/1 33/54/1
f 28/55/5 25/56/5 40/57/5 39/58/5
f 22/44/1 21/43/1 25/47/1 26/59/1
f 29/60/5 32/61/5 31/62/5 30/63/5
f 26/59/1 25/47/1 29/50/1 30/64/1
f 27/65/3 26/52/3 30/63/3 31/62/3
f 34/66/3 33/67/3 35/68/3 36/69/3
f 23/70/2 22/71/2 33/72/2 34/73/2
f 26/74/5 27/75/5 36/76/5 35/77/5
f 38/78/4 37/79/4 39/80/4 40/81/4
f 25/82/1 21/83/1 38/84/1 40/85/1
f 21/86/2 24/87/2 37/88/2 38/89/2
