# Blender v2.80 (sub 75) OBJ File: 'ground_runes.blend'
# www.blender.org
mtllib rune_style_d.mtl
o RUNE_STYLE_D_Plane.019
v 0.687500 0.000000 0.812500
v 0.687500 0.000000 0.187500
v 0.562500 0.000000 0.187500
v 0.562500 0.000000 0.812500
v 0.562500 0.000000 0.668162
v 0.291867 0.000000 0.656250
v 0.354367 0.000000 0.547997
v 0.656250 0.031250 0.218750
v 0.593750 0.031250 0.218750
v 0.656250 0.031250 0.781250
v 0.334555 0.031250 0.644812
v 0.570873 0.031250 0.781250
v 0.593750 0.031250 0.722289
v 0.365805 0.031250 0.590685
v 0.375000 0.000000 0.500000
v 0.500000 0.000000 0.500000
v 0.375000 0.000000 0.375000
v 0.500000 0.000000 0.375000
v 0.406250 0.031250 0.406250
v 0.406250 0.031250 0.468750
v 0.468750 0.031250 0.468750
v 0.468750 0.031250 0.406250
v 0.687500 0.000000 0.781250
vt 0.000000 0.178637
vt 0.062500 0.187500
vt 0.062500 0.437500
vt 0.000000 0.437500
vt 0.000000 0.187500
vt 0.061270 0.168728
vt 0.000000 0.243702
vt 0.062500 0.750000
vt 0.125000 0.781250
vt 0.125000 0.303750
vt 0.062500 0.250000
vt 0.125000 0.125000
vt 0.125000 0.187500
vt 0.062500 0.187500
vt 0.062500 0.178637
vt 0.062500 0.437500
vt 0.125000 0.466875
vt 0.125000 0.171762
vt 0.125000 0.238098
vt 0.125000 0.467264
vt 0.062500 0.375000
vt 0.125000 0.343750
vt 0.125000 0.468750
vt 0.062500 0.687500
vt 0.125000 0.656250
vt 0.062500 0.250000
vt 0.062500 0.166851
vt 0.125000 0.158914
vt 0.125000 0.281250
vt 0.062500 0.191965
vt 0.062500 0.750000
vt 0.000000 0.750000
vt 0.000000 0.250000
vt 0.000000 0.500000
vt 0.062500 0.500000
vt 0.062500 0.562500
vt 0.000000 0.562500
vt 0.062500 0.500000
vt 0.062500 0.562500
vt 0.125000 0.593750
vt 0.125000 0.468750
vt 0.062500 0.375000
vt 0.062500 0.437500
vt 0.125000 0.468750
vt 0.125000 0.343750
vt 0.062500 0.437500
vt 0.125000 0.343750
vt 0.125000 0.468750
vt 0.062500 0.500000
vt 0.125000 0.468750
vt 0.125000 0.191965
vt 0.125000 0.781250
vn 0.0000 1.0000 0.0000
vn -0.7071 0.7071 0.0000
vn 0.7071 0.7071 0.0000
vn -0.3536 0.7071 0.6124
vn 0.3536 0.7071 -0.6124
vn -0.6124 0.7071 -0.3536
vn 0.0000 0.7071 -0.7071
vn 0.0000 0.7071 0.7071
usemtl GROUND_RUNE
s off
f 12/1/1 13/2/1 14/3/1 11/4/1
f 13/5/1 12/6/1 10/7/1
f 9/8/2 3/9/2 5/10/2 13/11/2
f 1/12/3 23/13/3 10/14/3
f 12/15/4 11/16/4 6/17/4 4/18/4
f 14/3/5 13/2/5 5/19/5 7/20/5
f 11/16/6 14/21/6 7/22/6 6/23/6
f 8/24/7 2/25/7 3/9/7 9/8/7
f 10/26/8 12/27/8 4/28/8 1/29/8
f 10/30/1 8/31/1 9/32/1 13/33/1
f 20/34/1 21/35/1 22/36/1 19/37/1
f 20/38/2 19/39/2 17/40/2 15/41/2
f 21/42/8 20/43/8 15/44/8 16/45/8
f 22/46/3 21/42/3 16/47/3 18/48/3
f 19/39/7 22/49/7 18/50/7 17/40/7
f 10/30/3 23/51/3 2/52/3 8/31/3
