# Blender v2.80 (sub 75) OBJ File: 'ground_runes.blend'
# www.blender.org
mtllib rune_style_h.mtl
o RUNE_STYLE_H_Plane.011
v 0.562500 0.000000 0.812500
v 0.687500 0.000000 0.187500
v 0.687500 0.000000 0.312500
v 0.437500 0.000000 0.812500
v 0.437500 0.000000 0.668162
v 0.275120 0.000000 0.718750
v 0.337620 0.000000 0.610497
v 0.531250 0.031250 0.218750
v 0.468750 0.031250 0.218750
v 0.531250 0.031250 0.781250
v 0.317809 0.031250 0.707312
v 0.445873 0.031250 0.781250
v 0.468750 0.031250 0.722289
v 0.349059 0.031250 0.653185
v 0.437500 0.000000 0.281250
v 0.437500 0.000000 0.187500
v 0.562500 0.000000 0.312500
v 0.531250 0.000000 0.187500
v 0.656250 0.031250 0.281250
v 0.656250 0.031250 0.218750
v 0.468750 0.031250 0.281250
v 0.531250 0.031250 0.281250
v 0.562500 0.000000 0.781250
vt 0.000000 0.303571
vt 0.062500 0.312500
vt 0.062500 0.437500
vt 0.000000 0.437500
vt 0.000000 0.250000
vt 0.062500 0.273315
vt 0.062500 0.187500
vt 0.062500 0.750000
vt 0.000000 0.750000
vt 0.000000 0.687500
vt 0.062500 0.687500
vt 0.062500 0.750000
vt 0.062500 0.687500
vt 0.125000 0.687500
vt 0.125000 0.781250
vt 0.062500 0.303571
vt 0.062500 0.437500
vt 0.125000 0.468750
vt 0.125000 0.296130
vt 0.125000 0.360122
vt 0.125000 0.467758
vt 0.062500 0.375000
vt 0.125000 0.344250
vt 0.062500 0.625000
vt 0.062500 0.562500
vt 0.125000 0.531250
vt 0.125000 0.656250
vt 0.125000 0.282065
vt 0.125000 0.155625
vt 0.000000 0.687500
vt 0.000000 0.562500
vt 0.062500 0.562500
vt 0.125000 0.656250
vt 0.062500 0.250000
vt 0.062500 0.687500
vt 0.125000 0.687500
vt 0.125000 0.303079
vt 0.062500 0.191965
vt 0.125000 0.531250
vt 0.125000 0.129465
vt 0.125000 0.163345
vt 0.062500 0.129465
vt 0.125000 0.191965
vt 0.125000 0.656744
vn 0.0000 1.0000 0.0000
vn 0.0000 0.7071 -0.7071
vn -0.3536 0.7071 0.6124
vn 0.3536 0.7071 -0.6124
vn -0.6124 0.7071 -0.3536
vn 0.7071 0.7071 0.0000
vn 0.0000 0.7071 0.7071
vn -0.7071 0.7071 0.0000
usemtl GROUND_RUNE
s off
f 12/1/1 13/2/1 14/3/1 11/4/1
f 13/5/1 12/6/1 10/7/1
f 8/8/1 9/9/1 21/10/1 22/11/1
f 9/12/2 8/13/2 18/14/2 16/15/2
f 12/16/3 11/17/3 6/18/3 4/19/3
f 14/3/4 13/2/4 5/20/4 7/21/4
f 11/17/5 14/22/5 7/23/5 6/18/5
f 20/24/6 19/25/6 3/26/6 2/27/6
f 10/7/7 12/6/7 4/28/7 1/29/7
f 8/13/1 22/30/1 19/31/1 20/32/1
f 3/26/7 19/25/7 22/11/7 17/33/7
f 13/34/8 21/35/8 15/36/8 5/37/8
f 21/10/1 13/5/1 10/38/1 22/11/1
f 21/35/8 9/12/8 16/15/8 15/36/8
f 2/39/2 18/14/2 8/13/2 20/32/2
f 1/40/6 23/41/6 10/42/6
f 10/38/6 23/43/6 17/44/6 22/11/6
