# Blender v2.80 (sub 75) OBJ File: 'ground_runes.blend'
# www.blender.org
mtllib rune_style_n.mtl
o RUNE_STYLE_N_Plane.020
v 0.625000 0.000000 0.312500
v 0.625000 0.000000 0.812500
v 0.500000 0.000000 0.812500
v 0.500000 0.000000 0.312500
v 0.500000 0.000000 0.456838
v 0.283494 0.000000 0.437500
v 0.345994 0.000000 0.545753
v 0.593750 0.031250 0.781250
v 0.531250 0.031250 0.781250
v 0.593750 0.031250 0.343750
v 0.326182 0.031250 0.448938
v 0.508373 0.031250 0.343750
v 0.531250 0.031250 0.402711
v 0.357432 0.031250 0.503065
v 0.375000 0.000000 0.312500
v 0.500000 0.000000 0.312500
v 0.375000 0.000000 0.187500
v 0.500000 0.000000 0.187500
v 0.406250 0.031250 0.218750
v 0.406250 0.031250 0.281250
v 0.468750 0.031250 0.281250
v 0.468750 0.031250 0.218750
vt 0.000000 0.633863
vt 0.000000 0.437500
vt 0.062500 0.437500
vt 0.062500 0.625000
vt 0.000000 0.625000
vt 0.000000 0.568798
vt 0.061270 0.643772
vt 0.062500 0.187500
vt 0.062500 0.566240
vt 0.125000 0.511673
vt 0.125000 0.156250
vt 0.125000 0.656250
vt 0.062500 0.625000
vt 0.062500 0.187500
vt 0.125000 0.156250
vt 0.062500 0.633863
vt 0.125000 0.641988
vt 0.125000 0.408125
vt 0.062500 0.437500
vt 0.125000 0.408906
vt 0.125000 0.574675
vt 0.125000 0.406250
vt 0.125000 0.531250
vt 0.062500 0.500000
vt 0.062500 0.250000
vt 0.125000 0.281250
vt 0.062500 0.562500
vt 0.125000 0.531250
vt 0.125000 0.654503
vt 0.062500 0.645938
vt 0.000000 0.566240
vt 0.000000 0.187500
vt 0.000000 0.687500
vt 0.062500 0.687500
vt 0.062500 0.750000
vt 0.000000 0.750000
vt 0.062500 0.750000
vt 0.062500 0.687500
vt 0.125000 0.656250
vt 0.125000 0.781250
vt 0.125000 0.656250
vt 0.125000 0.781250
vn 0.0000 1.0000 0.0000
vn -0.7071 0.7071 -0.0000
vn 0.7071 0.7071 0.0000
vn -0.3536 0.7071 -0.6124
vn 0.3536 0.7071 0.6124
vn -0.6124 0.7071 0.3536
vn 0.0000 0.7071 0.7071
vn 0.0000 0.7071 -0.7071
usemtl GROUND_RUNE
s off
f 12/1/1 11/2/1 14/3/1 13/4/1
f 13/5/1 10/6/1 12/7/1
f 9/8/2 13/9/2 5/10/2 3/11/2
f 1/12/3 10/13/3 8/14/3 2/15/3
f 12/16/4 4/17/4 6/18/4 11/19/4
f 14/3/5 7/20/5 5/21/5 13/4/5
f 11/19/6 6/22/6 7/23/6 14/24/6
f 8/25/7 9/8/7 3/11/7 2/26/7
f 10/27/8 1/28/8 4/29/8 12/30/8
f 10/13/1 13/31/1 9/32/1 8/14/1
f 20/33/1 21/34/1 22/35/1 19/36/1
f 20/37/2 19/38/2 17/39/2 15/40/2
f 21/34/7 20/37/7 15/40/7 16/41/7
f 22/35/3 21/34/3 16/41/3 18/42/3
f 19/38/8 22/35/8 18/42/8 17/39/8
