# Blender v2.80 (sub 75) OBJ File: 'ground_runes.blend'
# www.blender.org
mtllib rune_style_e.mtl
o RUNE_STYLE_E_Plane.009
v 0.321995 0.031250 0.433313
v 0.646755 0.031250 0.620813
v 0.353245 0.031250 0.379187
v 0.678005 0.031250 0.566687
v 0.279307 0.000000 0.444752
v 0.658193 0.000000 0.663502
v 0.341807 0.000000 0.336498
v 0.720693 0.000000 0.555248
v 0.321995 0.031250 0.261438
v 0.646755 0.031250 0.448938
v 0.353245 0.031250 0.207312
v 0.678005 0.031250 0.394812
v 0.279307 0.000000 0.272877
v 0.658193 0.000000 0.491627
v 0.341807 0.000000 0.164623
v 0.720693 0.000000 0.383373
v 0.678005 0.031250 0.738562
v 0.353245 0.031250 0.551062
v 0.646755 0.031250 0.792688
v 0.321995 0.031250 0.605188
v 0.720693 0.000000 0.727123
v 0.341807 0.000000 0.508373
v 0.658193 0.000000 0.835377
v 0.279307 0.000000 0.616627
vt 0.000000 0.687500
vt 0.000000 0.312500
vt 0.062500 0.312500
vt 0.062500 0.687500
vt 0.125000 0.281250
vt 0.125000 0.718750
vt 0.062500 0.312500
vt 0.062500 0.687500
vt 0.125000 0.718750
vt 0.125000 0.281250
vt 0.125000 0.406250
vt 0.062500 0.375000
vt 0.062500 0.625000
vt 0.125000 0.593750
vt 0.000000 0.812500
vt 0.000000 0.437500
vt 0.062500 0.437500
vt 0.062500 0.812500
vt 0.125000 0.406250
vt 0.125000 0.843750
vt 0.062500 0.437500
vt 0.062500 0.812500
vt 0.125000 0.843750
vt 0.125000 0.406250
vt 0.125000 0.531250
vt 0.062500 0.500000
vt 0.062500 0.750000
vt 0.125000 0.718750
vt 0.062500 0.187500
vt 0.062500 0.562500
vt 0.000000 0.562500
vt 0.000000 0.187500
vt 0.062500 0.187500
vt 0.062500 0.562500
vt 0.125000 0.593750
vt 0.125000 0.156250
vt 0.125000 0.156250
vt 0.125000 0.593750
vt 0.062500 0.500000
vt 0.125000 0.468750
vt 0.062500 0.250000
vt 0.125000 0.281250
vn 0.0000 1.0000 0.0000
vn 0.3536 0.7071 -0.6124
vn -0.3536 0.7071 0.6124
vn 0.6124 0.7071 0.3536
vn -0.6124 0.7071 -0.3536
usemtl GROUND_RUNE
s off
f 1/1/1 2/2/1 4/3/1 3/4/1
f 3/4/2 4/3/2 8/5/2 7/6/2
f 2/7/3 1/8/3 5/9/3 6/10/3
f 2/7/4 6/10/4 8/11/4 4/12/4
f 1/8/5 3/13/5 7/14/5 5/9/5
f 9/15/1 10/16/1 12/17/1 11/18/1
f 11/18/2 12/17/2 16/19/2 15/20/2
f 10/21/3 9/22/3 13/23/3 14/24/3
f 10/21/4 14/24/4 16/25/4 12/26/4
f 9/22/5 11/27/5 15/28/5 13/23/5
f 17/29/1 18/30/1 20/31/1 19/32/1
f 19/33/3 20/34/3 24/35/3 23/36/3
f 18/30/2 17/29/2 21/37/2 22/38/2
f 18/39/5 22/40/5 24/35/5 20/34/5
f 17/41/4 19/33/4 23/36/4 21/42/4
