# Blender v2.80 (sub 75) OBJ File: 'ground_runes.blend'
# www.blender.org
mtllib rune_style_l_active.mtl
o RUNE_STYLE_L_ACTIVE_Plane.005
v 0.343750 0.031250 0.781250
v 0.406250 0.031250 0.781250
v 0.312500 0.000000 0.812500
v 0.437500 0.000000 0.812500
v 0.531250 0.031250 0.406250
v 0.531250 0.031250 0.468750
v 0.593750 0.031250 0.406250
v 0.593750 0.031250 0.468750
v 0.500000 0.000000 0.375000
v 0.500000 0.000000 0.500000
v 0.625000 0.000000 0.375000
v 0.625000 0.000000 0.500000
v 0.343750 0.031250 0.708027
v 0.406250 0.031250 0.733915
v 0.608915 0.031250 0.796415
v 0.653109 0.031250 0.752221
v 0.608915 0.000000 0.840609
v 0.697303 0.000000 0.752221
v 0.520527 0.031250 0.619638
v 0.432138 0.031250 0.619638
v 0.476333 0.031250 0.575444
v 0.476333 0.031250 0.663833
v 0.542624 0.000000 0.597541
v 0.498430 0.000000 0.553347
v 0.387944 0.000000 0.619638
v 0.476332 0.000000 0.708027
v 0.343750 0.031250 0.218750
v 0.406250 0.031250 0.218750
v 0.312500 0.000000 0.187500
v 0.437500 0.000000 0.187500
v 0.437500 0.000000 0.492417
v 0.406250 0.031250 0.505362
v 0.312500 0.000000 0.544194
v 0.343750 0.031250 0.531250
v 0.437500 0.000000 0.746859
v 0.312500 0.000000 0.695082
vt 0.187500 0.235490
vt 0.125000 0.260729
vt 0.125000 0.187500
vt 0.187500 0.187500
vt 0.187500 0.187500
vt 0.250000 0.156250
vt 0.250000 0.281250
vt 0.187500 0.250000
vt 0.250000 0.156250
vt 0.250000 0.222521
vt 0.125000 0.625000
vt 0.125000 0.562500
vt 0.187500 0.562500
vt 0.187500 0.625000
vt 0.187500 0.562500
vt 0.187500 0.625000
vt 0.250000 0.656250
vt 0.250000 0.531250
vt 0.187500 0.562500
vt 0.187500 0.625000
vt 0.250000 0.656250
vt 0.250000 0.531250
vt 0.187500 0.260729
vt 0.250000 0.273328
vt 0.250000 0.375000
vt 0.250000 0.437000
vt 0.187500 0.437000
vt 0.187500 0.375000
vt 0.187500 0.187500
vt 0.250000 0.156250
vt 0.250000 0.281250
vt 0.187500 0.250000
vt 0.250000 0.343750
vt 0.250000 0.237063
vt 0.187500 0.250000
vt 0.187500 0.375000
vt 0.187500 0.536900
vt 0.125000 0.562500
vt 0.125000 0.437500
vt 0.187500 0.437500
vt 0.250000 0.156250
vt 0.187500 0.187500
vt 0.250000 0.343750
vt 0.187500 0.375000
vt 0.187500 0.275886
vt 0.250000 0.288784
vt 0.125000 0.375000
vt 0.125000 0.250000
vt 0.125000 0.187500
vt 0.125000 0.375000
vt 0.125000 0.437000
vt 0.125000 0.562000
vt 0.187500 0.588386
vt 0.187500 0.875000
vt 0.125000 0.875000
vt 0.187500 0.875000
vt 0.250000 0.906250
vt 0.250000 0.549102
vt 0.187500 0.562000
vt 0.187500 0.812500
vt 0.250000 0.781250
vt 0.250000 0.601532
vt 0.250000 0.906250
vt 0.250000 0.437500
vt 0.250000 0.562500
vt 0.187500 0.575099
vt 0.187500 0.468750
vt 0.250000 0.437500
vt 0.250000 0.523931
vn 0.0000 1.0000 0.0000
vn 0.0000 0.7071 0.7071
vn 0.7071 0.7071 0.0000
vn -0.7071 0.7071 -0.0000
vn 0.0000 0.7071 -0.7071
vn 0.5000 0.7071 -0.5000
vn 0.5000 0.7071 0.5000
vn -0.5000 0.7071 -0.5000
vn -0.5000 0.7071 0.5000
usemtl GROUND_RUNE.001
s off
f 14/1/1 13/2/1 1/3/1 2/4/1
f 1/5/2 3/6/2 4/7/2 2/8/2
f 14/1/3 2/4/3 4/9/3 35/10/3
f 5/11/1 6/12/1 8/13/1 7/14/1
f 7/15/3 8/16/3 12/17/3 11/18/3
f 6/19/4 5/20/4 9/21/4 10/22/4
f 6/19/2 10/22/2 12/17/2 8/16/2
f 5/20/5 7/15/5 11/18/5 9/21/5
f 3/6/4 1/5/4 13/23/4 36/24/4
f 23/25/6 24/26/6 21/27/6 19/28/6
f 15/29/7 17/30/7 18/31/7 16/32/7
f 25/33/8 36/34/8 13/35/8 20/36/8
f 32/37/1 34/38/1 20/39/1 21/40/1
f 18/41/6 23/25/6 19/28/6 16/42/6
f 26/43/9 17/30/9 15/29/9 22/44/9
f 26/43/7 22/44/7 14/45/7 35/46/7
f 14/45/1 22/44/1 20/47/1 13/48/1
f 15/49/1 16/42/1 19/28/1 22/50/1
f 22/50/1 19/28/1 21/27/1 20/51/1
f 34/52/1 32/53/1 28/54/1 27/55/1
f 27/56/4 29/57/4 33/58/4 34/59/4
f 27/56/5 28/60/5 30/61/5 29/57/5
f 28/54/3 32/53/3 31/62/3 30/63/3
f 20/64/9 34/65/9 33/66/9 25/67/9
f 32/37/6 21/40/6 24/68/6 31/69/6
