# Blender v2.80 (sub 75) OBJ File: 'ground_runes.blend'
# www.blender.org
mtllib rune_style_p.mtl
o RUNE_STYLE_P_Plane.027
v 0.597405 0.031250 0.531250
v 0.687500 0.031250 0.593750
v 0.312500 0.031250 0.531250
v 0.312500 0.031250 0.593750
v 0.482721 0.031250 0.250000
v 0.449530 0.031250 0.312500
v 0.375000 0.031250 0.250000
v 0.375000 0.031250 0.312500
v 0.718750 0.000000 0.543357
v 0.538559 0.000000 0.500000
v 0.718750 0.000000 0.625000
v 0.281250 0.000000 0.500000
v 0.281250 0.000000 0.625000
v 0.499316 0.000000 0.218750
v 0.432934 0.000000 0.343750
v 0.343750 0.000000 0.218750
v 0.343750 0.000000 0.343750
v 0.687500 0.031250 0.552928
v 0.437500 0.000000 0.812500
v 0.562500 0.000000 0.812500
v 0.437500 0.000000 0.687500
v 0.562500 0.000000 0.687500
v 0.468750 0.031250 0.718750
v 0.468750 0.031250 0.781250
v 0.531250 0.031250 0.781250
v 0.531250 0.031250 0.718750
vt 0.062500 0.312500
vt 0.062500 0.402605
vt 0.000000 0.312500
vt 0.000000 0.812500
vt 0.000000 0.737970
vt 0.062500 0.704779
vt 0.062500 0.812500
vt 0.125000 0.461445
vt 0.125000 0.718750
vt 0.062500 0.687500
vt 0.062500 0.687500
vt 0.125000 0.718750
vt 0.125000 0.281250
vt 0.062500 0.312500
vt 0.125000 0.593750
vt 0.062500 0.625000
vt 0.125000 0.688242
vt 0.125000 0.843750
vt 0.062500 0.812500
vt 0.125000 0.843750
vt 0.125000 0.754922
vt 0.062500 0.737970
vt 0.062500 0.750000
vt 0.125000 0.718750
vt 0.062500 0.355028
vt 0.125000 0.345603
vt 0.125000 0.737181
vt 0.062500 0.720775
vt 0.125000 0.362188
vt 0.062500 0.343750
vt 0.062500 0.687500
vt 0.125000 0.671102
vt 0.125000 0.482290
vt 0.062500 0.423454
vt 0.000000 0.687500
vt 0.000000 0.423454
vt 0.000000 0.687500
vt 0.000000 0.250000
vt 0.062500 0.250000
vt 0.062500 0.312500
vt 0.000000 0.312500
vt 0.062500 0.250000
vt 0.062500 0.312500
vt 0.125000 0.343750
vt 0.125000 0.218750
vt 0.062500 0.312500
vt 0.125000 0.343750
vt 0.062500 0.250000
vt 0.125000 0.218750
vn 0.0000 1.0000 0.0000
vn 0.0000 0.7071 -0.7071
vn 0.0000 0.7071 0.7071
vn -0.7071 0.7071 0.0000
vn 0.5858 0.7071 -0.3960
vn 0.7071 0.7071 0.0000
vn -0.5858 0.7071 0.3960
usemtl GROUND_RUNE
s off
f 18/1/1 1/2/1 2/3/1
f 8/4/1 6/5/1 5/6/1 7/7/1
f 1/2/2 10/8/2 12/9/2 3/10/2
f 4/11/3 13/12/3 11/13/3 2/14/3
f 3/10/4 12/9/4 13/15/4 4/16/4
f 5/6/2 14/17/2 16/18/2 7/7/2
f 8/19/3 17/20/3 15/21/3 6/22/3
f 7/23/4 16/24/4 17/20/4 8/19/4
f 18/25/5 9/26/5 14/27/5 5/28/5
f 2/14/6 11/13/6 9/29/6 18/30/6
f 6/31/7 15/32/7 10/33/7 1/34/7
f 5/28/1 6/35/1 1/36/1 18/25/1
f 3/10/1 4/37/1 2/3/1 1/2/1
f 24/38/1 25/39/1 26/40/1 23/41/1
f 24/42/4 23/43/4 21/44/4 19/45/4
f 25/46/3 24/42/3 19/45/3 20/47/3
f 26/48/6 25/46/6 20/47/6 22/49/6
f 23/43/2 26/48/2 22/49/2 21/44/2
