# Blender v2.80 (sub 75) OBJ File: 'constructs.blend'
# www.blender.org
mtllib construct_eyes_concern.mtl
o EYES_CONCERN_Cube.036
v -0.093750 1.531250 -0.156250
v -0.031250 1.437500 -0.171875
v -0.093750 1.437500 -0.156250
v 0.093750 1.437500 -0.171875
v -0.031250 1.562500 -0.156250
v -0.031250 1.562500 -0.171875
v -0.031250 1.437500 -0.156250
v 0.093750 1.531250 -0.171875
v 0.031250 1.562500 -0.156250
v -0.093750 1.437500 -0.171875
v 0.031250 1.437500 -0.156250
v 0.031250 1.437500 -0.171875
v 0.093750 1.531250 -0.156250
v -0.093750 1.531250 -0.171875
v 0.093750 1.437500 -0.156250
v 0.031250 1.562500 -0.171875
vt 0.562500 0.718750
vt 0.500000 0.718750
vt 0.500000 0.750000
vt 0.562500 0.750000
vt 0.375000 0.750000
vt 0.437500 0.750000
vt 0.437500 0.625000
vt 0.375000 0.625000
vt 0.500000 0.750000
vt 0.500000 0.625000
vt 0.562500 0.656250
vt 0.562500 0.750000
vt 0.375000 0.750000
vt 0.375000 0.656250
vt 0.437500 0.625000
vt 0.437500 0.750000
vt 0.531250 0.750000
vt 0.531250 0.625000
vt 0.531250 0.656250
vt 0.531250 0.750000
vt 0.437500 0.718750
vt 0.375000 0.718750
vt 0.375000 0.656250
vt 0.437500 0.656250
vt 0.375000 0.625000
vt 0.406250 0.750000
vt 0.406250 0.656250
vt 0.406250 0.625000
vt 0.406250 0.750000
vt 0.500000 0.625000
vt 0.562500 0.625000
vt 0.562500 0.656250
vt 0.500000 0.656250
vt 0.500000 0.750000
vt 0.562500 0.750000
vt 0.562500 0.625000
vt 0.500000 0.625000
vn 0.4472 0.8944 0.0000
vn 0.0000 0.0000 1.0000
vn 0.0000 0.0000 -1.0000
vn -1.0000 0.0000 0.0000
vn 1.0000 0.0000 0.0000
vn 0.0000 -1.0000 0.0000
vn -0.4472 0.8944 0.0000
usemtl CHIMERITE
s off
f 9/1/1 13/2/1 8/3/1 16/4/1
f 3/5/2 7/6/2 5/7/2 1/8/2
f 12/9/3 16/10/3 8/11/3 4/12/3
f 10/13/3 14/14/3 6/15/3 2/16/3
f 11/17/4 9/18/4 16/10/4 12/9/4
f 13/19/5 15/20/5 4/12/5 8/11/5
f 7/21/6 3/22/6 10/13/6 2/16/6
f 1/23/7 5/24/7 6/15/7 14/25/7
f 3/26/4 1/27/4 14/14/4 10/13/4
f 5/28/5 7/29/5 2/16/5 6/15/5
f 15/30/6 11/31/6 12/32/6 4/33/6
f 11/34/2 15/35/2 13/36/2 9/37/2
