# Blender v2.80 (sub 75) OBJ File: 'constructs.blend'
# www.blender.org
mtllib torso_tube_l.mtl
o TORSO_TANK_DECOLEFT_Cube.025
v -0.281250 0.906250 0.343750
v -0.218750 0.843750 0.343750
v -0.281250 0.906250 0.281250
v -0.218750 0.843750 0.281250
v -0.218750 0.906250 0.343750
v -0.218750 0.906250 0.281250
v -0.281250 1.343750 0.343750
v -0.218750 1.343750 0.343750
v -0.281250 1.343750 0.281250
v -0.218750 1.343750 0.281250
v -0.281250 1.406250 0.281250
v -0.218750 1.406250 0.281250
v -0.281250 1.343750 0.031250
v -0.218750 1.343750 0.031250
v -0.281250 1.406250 0.031250
v -0.218750 1.406250 0.031250
v -0.281250 1.343750 -0.031250
v -0.218750 1.343750 -0.031250
v -0.281250 1.281250 0.031250
v -0.218750 1.281250 0.031250
v -0.281250 1.281250 -0.031250
v -0.218750 1.281250 -0.031250
v -0.156250 0.843750 0.343750
v -0.156250 0.843750 0.281250
v -0.156250 0.906250 0.343750
v -0.156250 0.906250 0.281250
vt 0.062500 0.062500
vt -0.000000 0.062500
vt -0.000000 0.000000
vt 0.062500 0.000000
vt 0.125000 0.000000
vt 0.125000 0.062500
vt 0.125000 0.000000
vt 0.062500 0.062500
vt 0.125000 0.062500
vt 0.062500 0.500000
vt -0.000000 0.500000
vt 0.062500 0.500000
vt -0.000000 0.500000
vt -0.000000 0.562500
vt 0.125000 0.500000
vt 0.062500 0.062500
vt -0.000000 0.062500
vt 0.062500 0.500000
vt 0.125000 0.500000
vt 0.125000 0.562500
vt 0.062500 0.562500
vt 0.250000 0.375000
vt 0.187500 0.375000
vt 0.187500 0.125000
vt 0.250000 0.125000
vt -0.000000 0.562500
vt 0.187500 0.312500
vt 0.125000 0.312500
vt 0.125000 0.375000
vt 0.125000 0.062500
vt 0.187500 0.062500
vt 0.187500 0.312500
vt 0.125000 0.312500
vt 0.187500 0.375000
vt 0.250000 0.375000
vt 0.250000 0.125000
vt 0.187500 0.125000
vt 0.187500 0.062500
vt 0.125000 0.062500
vt 0.187500 0.062500
vt 0.250000 0.062500
vt 0.250000 0.000000
vt 0.187500 0.000000
vt 0.125000 0.375000
vt 0.187500 0.062500
vt 0.250000 0.062500
vt 0.187500 0.375000
vt 0.187500 0.437500
vt 0.125000 0.437500
vt 0.125000 0.375000
vt 0.187500 0.437500
vt 0.187500 0.375000
vt 0.125000 0.375000
vt 0.125000 0.437500
vt 0.187500 0.000000
vt 0.250000 0.000000
vt 0.187500 0.000000
vt 0.187500 0.062500
vt 0.250000 0.437500
vt 0.250000 0.375000
vt 0.187500 0.375000
vt 0.187500 0.437500
vt 0.250000 0.375000
vt 0.250000 0.437500
vt 0.187500 0.437500
vt 0.187500 0.375000
vt 0.187500 0.062500
vt 0.187500 0.000000
vn -0.7071 -0.7071 0.0000
vn 0.0000 0.0000 1.0000
vn 0.0000 0.0000 -1.0000
vn -1.0000 0.0000 0.0000
vn 1.0000 0.0000 0.0000
vn 0.0000 0.7071 0.7071
vn 0.0000 1.0000 0.0000
vn 0.0000 -1.0000 0.0000
vn 0.0000 0.7071 -0.7071
usemtl CIRCUITRY
s off
f 1/1/1 3/2/1 4/3/1 2/4/1
f 1/1/2 2/5/2 5/6/2
f 4/7/3 3/8/3 6/9/3
f 3/2/4 1/1/4 7/10/4 9/11/4
f 8/12/5 10/13/5 12/14/5
f 1/1/2 5/6/2 8/15/2 7/10/2
f 5/16/5 6/17/5 10/13/5 8/12/5
f 6/9/3 3/8/3 9/18/3 10/19/3
f 8/15/6 12/20/6 11/21/6 7/10/6
f 11/22/7 12/23/7 16/24/7 15/25/7
f 9/11/4 7/10/4 11/26/4
f 16/27/5 14/28/5 18/29/5
f 9/30/4 11/31/4 15/32/4 13/33/4
f 10/34/8 9/35/8 13/36/8 14/37/8
f 12/38/5 10/39/5 14/28/5 16/27/5
f 14/40/2 13/41/2 19/42/2 20/43/2
f 13/33/4 15/32/4 17/44/4
f 15/25/9 16/24/9 18/45/9 17/46/9
f 13/47/4 17/48/4 21/49/4 19/50/4
f 18/51/5 14/52/5 20/53/5 22/54/5
f 17/46/3 18/45/3 22/55/3 21/56/3
f 5/6/2 2/5/2 23/57/2 25/58/2
f 2/59/8 4/60/8 24/61/8 23/62/8
f 6/63/7 5/64/7 25/65/7 26/66/7
f 4/7/3 6/9/3 26/67/3 24/68/3
