# Blender v2.80 (sub 75) OBJ File: 'constructs.blend'
# www.blender.org
mtllib hat_floppywitch_tint.mtl
o HAT_FLOPPYWITCH_TINT_Circle.003
v 0.500000 0.062500 0.500000
v -0.189830 -0.187500 0.214263
v 0.012217 -0.187500 0.012217
v -0.189830 -0.187500 0.785737
v -0.189830 -0.187500 0.500000
v 0.214263 -0.187500 1.189830
v 0.012217 -0.187500 0.987783
v 0.813228 0.000000 0.813227
v 0.813228 0.000000 0.186772
v 0.813228 0.000000 0.500000
v 0.500000 0.000000 0.186772
v 0.500000 0.000000 0.813228
v 0.688228 0.125000 0.688227
v 0.688228 0.125000 0.311772
v 0.688228 0.125000 0.500000
v 0.500000 0.125000 0.311772
v 0.500000 0.125000 0.688228
v 0.625728 0.312500 0.688227
v 0.625728 0.375000 0.500000
v 0.500000 0.375000 0.500000
v 0.500000 0.312500 0.688228
v 0.563228 0.500000 0.688227
v 0.500000 0.500000 0.688228
v 0.500000 0.375000 0.875728
v 0.563228 0.375000 0.875727
v 0.500000 0.250000 0.875728
v 0.500000 0.250000 1.063228
v 0.436772 0.375000 0.875727
v 0.436772 0.500000 0.688227
v 0.374272 0.375000 0.500000
v 0.374272 0.312500 0.688227
v 0.311772 0.125000 0.500000
v 0.311772 0.125000 0.311772
v 0.311772 0.125000 0.688227
v 0.186772 0.000000 0.500000
v 0.186772 0.000000 0.186772
v 0.186772 0.000000 0.813227
v 0.987783 -0.187500 0.987783
v 0.785737 -0.187500 1.189830
v 1.189830 -0.187500 0.500000
v 1.189830 -0.187500 0.785737
v 0.987783 -0.187500 0.012217
v 1.189830 -0.187500 0.214263
v 0.500000 -0.187500 -0.189830
v 0.785737 -0.187500 -0.189830
v 0.500000 -0.187500 1.189830
v 0.214263 -0.187500 -0.189830
v 0.500000 -0.107143 -0.189601
v 0.811854 -0.107143 -0.189601
v 0.188146 -0.107143 -0.189601
v -0.189601 -0.107143 0.811854
v -0.189601 -0.107143 0.500000
v -0.189601 -0.107143 0.188146
v 0.500000 -0.107143 1.189601
v 0.811854 -0.107143 1.189601
v 0.188146 -0.107143 1.189601
v 1.189601 -0.107143 0.188146
v 1.189601 -0.107143 0.500000
v 1.189601 -0.107143 0.811854
v 1.000728 -0.107143 1.000727
v 1.000727 -0.107143 -0.000727
v -0.000727 -0.107143 -0.000727
v -0.000728 -0.107143 1.000727
v 0.500000 0.062500 0.249272
v 0.750728 0.062500 0.249272
v 0.750728 0.062500 0.500000
v 0.750728 0.062500 0.750727
v 0.500000 0.062500 0.750728
v 0.249272 0.062500 0.750727
v 0.249272 0.062500 0.500000
v 0.249272 0.062500 0.249272
v 0.500000 0.333334 0.938228
v 0.457848 0.333334 0.938227
v 0.500000 0.250000 0.938228
v 0.542152 0.333334 0.938227
vt 0.044643 0.062500
vt 0.312500 0.062500
vt 0.312500 0.437500
vt 0.044643 0.062500
vt 0.044643 0.062500
vt 0.312500 0.062500
vt 0.312500 0.437500
vt 0.044643 0.062500
vt 0.312500 -0.000000
vt 0.500000 0.250000
vt 0.500000 0.000000
vt 0.500000 0.000000
vt 0.500000 0.250000
vt 0.375000 0.250000
vt 0.312500 0.187500
vt 0.312500 0.000000
vt 0.375000 0.187500
vt 0.500000 0.187500
vt 0.500000 0.000000
vt 0.312500 0.375000
vt 0.500000 0.250000
vt 0.500000 0.500000
vt 0.312500 0.500000
vt 0.312500 0.562500
vt 0.500000 0.625000
vt 0.187500 0.562500
vt 0.187500 0.604167
vt 0.312500 0.562500
vt -0.000000 0.562500
vt 0.187500 0.562500
vt 0.187500 0.625000
vt -0.000000 0.625000
vt 0.500000 0.125000
vt 0.625000 0.000000
vt 0.500000 0.187500
vt 0.500000 0.000000
vt 0.312500 0.000000
vt 0.375000 0.187500
vt 0.437500 0.312500
vt 0.437500 0.437500
vt 0.500000 0.437500
vt 0.500000 0.000000
vt 0.312500 0.187500
vt 0.500000 0.250000
vt 0.312500 0.000000
vt 0.375000 0.250000
vt 0.437500 0.437500
vt 0.500000 0.437500
vt 0.437500 0.437500
vt 0.500000 0.437500
vt 0.437500 0.437500
vt 0.500000 0.437500
vt 0.312500 0.062500
vt 0.312500 0.437500
vt 0.044643 0.062500
vt 0.044643 0.062500
vt 0.312500 0.062500
vt 0.312500 0.437500
vt 0.044643 0.062500
vt 0.044643 0.062500
vt 0.437500 0.437500
vt 0.437500 0.437500
vt 0.500000 0.437500
vt 0.437500 0.437500
vt 0.500000 0.437500
vt 0.437500 0.437500
vt 0.500000 0.437500
vt 0.500000 0.437500
vt 0.375000 0.416667
vt 0.500000 0.500000
vt 0.375000 0.500000
vt 0.625000 0.000000
vt 0.500000 0.250000
vt -0.000000 0.625000
vt 0.187500 0.625000
vt 0.375000 0.416667
vt 0.500000 0.625000
vt 0.312500 0.562500
vt 0.312500 0.375000
vt 0.312500 0.062500
vt 0.000000 0.062500
vt 0.000000 0.437500
vt 0.312500 0.437500
vt 0.000000 0.062500
vt 0.000000 0.437500
vt 0.000000 0.062500
vt 0.312500 0.062500
vt 0.312500 0.437500
vt 0.000000 0.062500
vt 0.000000 0.437500
vt 0.000000 0.062500
vt 0.312500 0.062500
vt 0.312500 0.437500
vt 0.000000 0.062500
vt 0.000000 0.437500
vt 0.312500 0.062500
vt 0.312500 0.437500
vt 0.000000 0.062500
vt 0.000000 0.062500
vt 0.062500 0.500000
vt 0.312500 0.500000
vt 0.062500 0.500000
vt 0.312500 0.500000
vt 0.312500 0.500000
vt 0.062500 0.500000
vt 0.062500 0.500000
vt 0.312500 0.500000
vt 0.187500 0.604167
vn 0.2649 0.9272 0.2649
vn 0.2649 0.9272 -0.2649
vn 0.9701 0.2425 0.0000
vn 0.0000 0.6015 -0.7989
vn 0.9605 0.2744 0.0456
vn 0.0000 0.0000 1.0000
vn 0.9283 0.3094 0.2063
vn 0.9435 0.3145 0.1044
vn -0.0000 0.8330 -0.5532
vn -0.0000 0.8321 0.5547
vn 0.8144 -0.4119 0.4088
vn -0.0000 -0.9487 -0.3162
vn 0.2409 -0.9402 -0.2409
vn -0.9605 0.2744 0.0456
vn 0.2409 -0.9402 0.2409
vn -0.9701 0.2425 0.0000
vn 0.3407 -0.9402 0.0000
vn 0.0000 -0.9402 -0.3407
vn -0.2649 0.9272 -0.2649
vn -0.2649 0.9272 0.2649
vn 0.0000 -0.9402 0.3407
vn -0.2409 -0.9402 -0.2409
vn -0.3407 -0.9402 0.0000
vn -0.2409 -0.9402 0.2409
vn 0.8923 -0.4514 0.0000
vn -0.8144 -0.4119 0.4088
vn -0.8923 -0.4514 0.0000
vn -0.9435 0.3145 0.1044
vn -0.9283 0.3094 0.2063
vn 0.0000 0.9618 -0.2738
vn -0.2738 0.9618 -0.0000
vn -0.0000 0.9618 0.2738
vn 0.2738 0.9618 0.0000
vn 0.0000 0.7071 -0.7071
vn -0.7071 0.7071 -0.0000
vn -0.0000 0.7071 0.7071
vn 0.7071 0.7071 0.0000
vn 0.0000 0.8320 0.5547
usemtl HAT_TYPE_1
s off
f 55/1/1 60/2/1 8/3/1
f 60/2/1 59/4/1 8/3/1
f 57/5/2 61/6/2 9/7/2
f 61/6/2 49/8/2 9/7/2
f 14/9/3 19/10/3 15/11/3
f 16/12/4 20/13/4 19/14/4 14/9/4
f 15/11/5 19/10/5 18/15/5 13/16/5
f 13/16/6 18/17/6 21/18/6 17/19/6
f 22/20/7 25/21/7 18/15/7
f 18/15/8 19/10/8 22/20/8
f 20/22/9 23/23/9 22/24/9 19/25/9
f 72/26/10 73/27/10 27/28/10
f 23/29/10 24/30/10 25/31/10 22/32/10
f 25/21/11 26/33/11 18/15/11
f 18/34/12 26/35/12 21/36/12
f 34/37/6 17/19/6 21/18/6 31/38/6
f 1/39/13 7/40/13 4/41/13
f 32/42/14 34/37/14 31/43/14 30/44/14
f 16/12/4 33/45/4 30/46/4 20/13/4
f 1/39/15 3/47/15 47/48/15
f 33/45/16 32/42/16 30/44/16
f 1/39/17 5/49/17 2/50/17
f 1/39/18 46/51/18 6/52/18
f 62/53/19 36/54/19 50/55/19
f 53/56/19 36/54/19 62/53/19
f 63/57/20 37/58/20 51/59/20
f 56/60/20 37/58/20 63/57/20
f 1/39/21 47/48/21 44/61/21
f 1/39/15 2/50/15 3/47/15
f 1/39/17 4/41/17 5/49/17
f 1/39/13 6/52/13 7/40/13
f 1/39/22 38/62/22 39/63/22
f 1/39/23 40/64/23 41/65/23
f 1/39/24 42/66/24 43/67/24
f 1/39/21 44/61/21 45/68/21
f 1/39/18 39/63/18 46/51/18
f 1/39/23 43/67/23 40/64/23
f 1/39/24 45/68/24 42/66/24
f 1/39/22 41/65/22 38/62/22
f 75/69/25 27/70/25 74/71/25
f 31/72/12 21/36/12 26/35/12
f 28/73/26 31/43/26 26/33/26
f 23/29/10 29/74/10 28/75/10 24/30/10
f 73/76/27 74/71/27 27/70/27
f 20/22/9 30/77/9 29/78/9 23/23/9
f 31/43/28 29/79/28 30/44/28
f 29/79/29 31/43/29 28/73/29
f 48/80/30 50/81/30 36/82/30 11/83/30
f 49/84/30 48/80/30 11/83/30 9/85/30
f 36/82/31 53/86/31 52/87/31 35/88/31
f 52/87/31 51/89/31 37/90/31 35/88/31
f 37/90/32 56/91/32 54/92/32 12/93/32
f 54/92/32 55/94/32 8/95/32 12/93/32
f 58/96/33 10/97/33 8/95/33 59/98/33
f 57/99/33 9/85/33 10/97/33 58/96/33
f 11/83/34 36/82/34 71/100/34 64/101/34
f 35/88/35 37/90/35 69/102/35 70/103/35
f 36/82/35 35/88/35 70/103/35 71/100/35
f 37/90/36 12/93/36 68/104/36 69/102/36
f 8/95/36 67/105/36 68/104/36 12/93/36
f 9/85/37 65/106/37 66/107/37 10/97/37
f 10/97/37 66/107/37 67/105/37 8/95/37
f 11/83/34 64/101/34 65/106/34 9/85/34
f 72/26/38 27/28/38 75/108/38
