# Blender v2.80 (sub 75) OBJ File: 'constructs.blend'
# www.blender.org
mtllib hat_fez.mtl
o HAT_FEZ_Cube.057
v 0.375000 0.000000 0.625000
v 0.406250 0.187500 0.593750
v 0.375000 0.000000 0.375000
v 0.406250 0.187500 0.406250
v 0.625000 0.000000 0.625000
v 0.593750 0.187500 0.593750
v 0.625000 0.000000 0.375000
v 0.593750 0.187500 0.406250
v 0.468750 0.187500 0.531250
v 0.468750 0.218750 0.531250
v 0.468750 0.187500 0.468750
v 0.468750 0.218750 0.468750
v 0.531250 0.187500 0.531250
v 0.531250 0.218750 0.531250
v 0.531250 0.187500 0.468750
v 0.531250 0.218750 0.468750
v 0.406250 0.171875 0.515625
v 0.406250 0.203125 0.515625
v 0.406250 0.171875 0.484375
v 0.406250 0.203125 0.484375
v 0.468750 0.171875 0.515625
v 0.468750 0.203125 0.515625
v 0.468750 0.171875 0.484375
v 0.468750 0.203125 0.484375
v 0.375000 0.171875 0.484375
v 0.375000 0.171875 0.515625
v 0.390625 0.046875 0.453125
v 0.390625 0.046875 0.546875
v 0.359375 0.046875 0.453125
v 0.359375 0.046875 0.546875
v 0.500000 0.000000 0.500000
vt 0.000000 0.625000
vt 0.031250 0.812500
vt 0.218750 0.812500
vt 0.250000 0.625000
vt 0.031250 0.812500
vt 0.000000 0.625000
vt 0.218750 0.812500
vt 0.250000 0.625000
vt 0.000000 0.812500
vt 0.187500 0.812500
vt 0.187500 1.000000
vt 0.000000 1.000000
vt 0.187500 0.875000
vt 0.187500 0.937500
vt 0.250000 0.937500
vt 0.250000 0.875000
vt 0.250000 0.812500
vt 0.250000 0.875000
vt 0.187500 0.875000
vt 0.187500 0.812500
vt 0.250000 0.875000
vt 0.250000 0.937500
vt 0.187500 0.937500
vt 0.187500 0.875000
vt 0.187500 0.812500
vt 0.187500 0.875000
vt 0.250000 0.875000
vt 0.250000 0.812500
vt 0.375000 0.937500
vt 0.312500 0.937500
vt 0.312500 0.875000
vt 0.375000 0.875000
vt 0.187500 0.937500
vt 0.250000 1.000000
vt 0.187500 1.000000
vt 0.250000 0.937500
vt 0.312500 1.000000
vt 0.250000 1.000000
vt 0.250000 0.937500
vt 0.312500 0.937500
vt 0.312500 1.000000
vt 0.250000 1.000000
vt 0.375000 1.000000
vt 0.312500 0.875000
vt 0.250000 0.875000
vt 0.312500 0.875000
vt 0.312500 0.937500
vt 0.250000 0.875000
vt 0.250000 0.687500
vt 0.312500 0.687500
vt 0.312500 0.750000
vt 0.250000 0.750000
vt 0.312500 0.750000
vt 0.375000 0.750000
vt 0.250000 0.875000
vt 0.250000 0.750000
vt 0.250000 0.750000
vt 0.312500 0.750000
vt 0.500000 0.625000
vt 0.375000 0.750000
vt 0.500000 0.625000
vn -0.9864 0.1644 0.0000
vn 0.0000 0.1644 -0.9864
vn 0.9864 0.1644 0.0000
vn 0.0000 0.1644 0.9864
vn 0.0000 1.0000 0.0000
vn -1.0000 0.0000 0.0000
vn 0.0000 0.0000 -1.0000
vn 1.0000 0.0000 0.0000
vn 0.0000 0.0000 1.0000
vn -0.7071 0.7071 0.0000
vn 0.0000 -1.0000 0.0000
vn -0.9923 0.1240 0.0000
vn 0.0000 0.2425 -0.9701
vn 0.0000 0.2425 0.9701
usemtl HAT_TYPE_1
s off
f 1/1/1 2/2/1 4/3/1 3/4/1
f 3/4/2 4/3/2 8/5/2 7/6/2
f 7/6/3 8/5/3 6/7/3 5/8/3
f 5/8/4 6/7/4 2/2/4 1/1/4
f 8/9/5 4/10/5 2/11/5 6/12/5
f 9/13/6 10/14/6 12/15/6 11/16/6
f 11/17/7 12/18/7 16/19/7 15/20/7
f 15/21/8 16/22/8 14/23/8 13/24/8
f 13/25/9 14/26/9 10/27/9 9/28/9
f 18/29/10 20/30/10 25/31/10 26/32/10
f 16/33/5 12/15/5 10/34/5 14/35/5
f 19/36/7 20/30/7 24/37/7 23/38/7
f 21/39/9 22/40/9 18/41/9 17/42/9
f 24/37/5 20/30/5 18/29/5 22/43/5
f 20/30/7 19/44/7 25/45/7
f 17/46/9 18/47/9 26/48/9
f 27/49/11 28/50/11 30/51/11 29/52/11
f 26/32/12 25/31/12 29/53/12 30/54/12
f 25/31/13 19/55/13 27/56/13 29/53/13
f 17/46/14 26/48/14 30/57/14 28/58/14
f 3/4/11 7/59/11 31/60/11
f 7/59/11 5/8/11 31/60/11
f 5/8/11 1/61/11 31/60/11
f 1/61/11 3/4/11 31/60/11
