# Blender v2.80 (sub 75) OBJ File: 'curios.blend'
# www.blender.org
mtllib amulet_enderguard.mtl
o PENDANT_DECO_ENDERGUARD_Cube.012
v 0.531250 -0.130112 0.531250
v 0.468750 -0.130112 0.531250
v 0.468750 -0.067862 0.437500
v 0.468750 -0.005362 0.437500
v 0.531250 0.057138 0.531250
v 0.468750 0.057138 0.531250
v 0.531250 -0.067862 0.437500
v 0.531250 -0.005362 0.437500
v 0.468750 0.057138 0.468750
v 0.406250 -0.067862 0.531250
v 0.531250 0.057138 0.468750
v 0.468750 -0.130112 0.468750
v 0.531250 -0.130112 0.468750
v 0.406250 -0.067862 0.468750
v 0.406250 -0.005362 0.468750
v 0.593750 -0.067862 0.531250
v 0.593750 -0.005362 0.531250
v 0.406250 -0.005362 0.531250
v 0.593750 -0.005362 0.468750
v 0.593750 -0.067862 0.468750
v 0.531250 0.119638 0.500000
v 0.468750 0.119638 0.500000
vt 1.000000 0.812500
vt 1.000000 0.875000
vt 0.937500 0.875000
vt 0.937500 0.812500
vt 0.062500 0.500000
vt 0.000000 0.500000
vt 0.062500 0.562500
vt 1.000000 0.625000
vt 0.937500 0.625000
vt 0.937500 0.562500
vt 1.000000 0.562500
vt 1.000000 0.750000
vt 0.937500 0.750000
vt 0.937500 0.687500
vt 1.000000 0.687500
vt 0.937500 0.687500
vt 0.937500 0.625000
vt 1.000000 0.625000
vt 1.000000 0.687500
vt 1.000000 0.937500
vt 0.937500 0.937500
vt 1.000000 0.625000
vt 1.000000 0.687500
vt 0.937500 0.687500
vt 0.937500 0.625000
vt 1.000000 0.750000
vt 1.000000 0.812500
vt 0.937500 0.812500
vt 0.937500 0.812500
vt 1.000000 0.812500
vt 1.000000 0.875000
vt 0.937500 0.875000
vt 0.937500 0.687500
vt 0.937500 0.625000
vt 1.000000 0.687500
vt 0.937500 0.750000
vt 1.000000 0.750000
vt 0.937500 0.562500
vt 1.000000 0.562500
vt 0.937500 0.812500
vt 1.000000 0.562500
vt 0.937500 0.562500
vt 0.937500 0.500000
vt 1.000000 0.500000
vt 1.000000 0.750000
vt 1.000000 0.812500
vt 0.937500 0.812500
vt 0.937500 0.750000
vt 1.000000 0.937500
vt 1.000000 1.000000
vt 0.937500 0.937500
vt 1.000000 0.875000
vt 0.937500 0.875000
vt 0.062500 0.687500
vt 0.000000 0.687500
vt 0.000000 0.625000
vt 0.062500 0.625000
vt 0.000000 0.687500
vt 0.062500 0.687500
vt 0.062500 0.750000
vt 0.000000 0.750000
vt 0.000000 0.500000
vt 0.062500 0.500000
vt 0.062500 0.562500
vn 0.0000 0.0000 -1.0000
vn -1.0000 0.0000 0.0000
vn 0.0000 -1.0000 0.0000
vn 0.0000 -0.4486 -0.8937
vn -0.7071 0.7071 0.0000
vn 0.0000 0.4472 -0.8944
vn 0.7057 -0.7085 0.0000
vn 0.4080 -0.4096 -0.8159
vn 0.7071 0.7071 0.0000
vn -0.4080 -0.4096 -0.8159
vn -0.4472 0.0000 -0.8944
vn -0.4082 0.4082 -0.8165
vn -0.7057 -0.7085 0.0000
vn 1.0000 0.0000 0.0000
vn 0.4082 0.4082 -0.8165
vn 0.4472 0.0000 -0.8944
vn 0.0000 0.4472 0.8944
usemtl MAIN
s off
f 3/1/1 4/2/1 8/3/1 7/4/1
f 9/5/2 6/6/2 22/7/2
f 12/8/3 13/9/3 1/10/3 2/11/3
f 3/12/4 7/13/4 13/14/4 12/15/4
f 9/16/5 15/17/5 18/18/5 6/19/5
f 8/3/6 4/2/6 9/20/6 11/21/6
f 13/22/7 20/23/7 16/24/7 1/25/7
f 13/26/8 7/27/8 20/28/8
f 19/29/9 11/30/9 5/31/9 17/32/9
f 3/33/10 12/34/10 14/35/10
f 4/36/11 3/33/11 14/35/11 15/37/11
f 15/17/2 14/38/2 10/39/2 18/18/2
f 9/40/12 4/36/12 15/37/12
f 14/41/13 12/42/13 2/43/13 10/44/13
f 20/45/14 19/46/14 17/47/14 16/48/14
f 8/49/15 11/50/15 19/51/15
f 7/52/16 8/49/16 19/51/16 20/53/16
f 21/54/17 22/55/17 6/56/17 5/57/17
f 11/58/6 9/59/6 22/60/6 21/61/6
f 5/62/14 11/63/14 21/64/14
o PENDANT_BASE_SILVER_INVENTORY_Cube.069
v 0.500000 0.088388 0.500000
v 0.500000 0.000000 0.500000
v 0.312319 -0.036431 0.625000
v 0.374819 -0.036431 0.625000
v 0.312319 0.244819 0.531250
v 0.416667 0.171722 0.500000
v 0.373917 0.126083 0.500000
v 0.374819 0.213569 0.625000
v 0.374819 0.244819 0.593750
v 0.374819 0.213569 0.500000
v 0.312319 0.213569 0.625000
v 0.312319 0.213569 0.500000
v 0.374819 0.244819 0.531250
v 0.312319 0.244819 0.593750
v 0.331706 0.168294 0.500000
v 0.374819 -0.036431 0.625000
v 0.331706 -0.081706 0.625000
v 0.458333 -0.119945 0.625000
v 0.415945 -0.165945 0.625000
v 0.458333 -0.182445 0.625000
v 0.374819 -0.036431 0.625000
v 0.312319 -0.036431 0.625000
v 0.687681 -0.036431 0.625000
v 0.625181 -0.036431 0.625000
v 0.687681 0.244819 0.531250
v 0.583333 0.171722 0.500000
v 0.626083 0.126083 0.500000
v 0.625181 0.213569 0.625000
v 0.625181 0.244819 0.593750
v 0.625181 0.213569 0.500000
v 0.687681 0.213569 0.625000
v 0.687681 0.213569 0.500000
v 0.625181 0.244819 0.531250
v 0.687681 0.244819 0.593750
v 0.668294 0.168294 0.500000
v 0.500000 0.000000 0.500000
v 0.500000 0.088388 0.500000
v 0.625181 -0.036431 0.625000
v 0.668294 -0.081706 0.625000
v 0.541667 -0.119945 0.625000
v 0.584055 -0.165945 0.625000
v 0.541667 -0.182445 0.625000
v 0.312319 0.244819 0.531250
v 0.416667 0.171722 0.500000
v 0.373917 0.126083 0.500000
v 0.374819 0.213569 0.625000
v 0.374819 0.244819 0.593750
v 0.374819 0.213569 0.500000
v 0.312319 0.213569 0.625000
v 0.312319 0.213569 0.500000
v 0.374819 0.244819 0.531250
v 0.312319 0.244819 0.593750
v 0.331706 0.168294 0.500000
v 0.374819 -0.036431 0.625000
v 0.331706 -0.081706 0.625000
v 0.458333 -0.119945 0.625000
v 0.415945 -0.165945 0.625000
v 0.458333 -0.182445 0.625000
v 0.687681 -0.036431 0.625000
v 0.625181 -0.036431 0.625000
v 0.687681 0.244819 0.531250
v 0.583333 0.171722 0.500000
v 0.626083 0.126083 0.500000
v 0.625181 0.213569 0.625000
v 0.625181 0.244819 0.593750
v 0.625181 0.213569 0.500000
v 0.687681 0.213569 0.625000
v 0.687681 0.213569 0.500000
v 0.625181 0.244819 0.531250
v 0.687681 0.244819 0.593750
v 0.668294 0.168294 0.500000
v 0.625181 -0.036431 0.625000
v 0.668294 -0.081706 0.625000
v 0.541667 -0.119945 0.625000
v 0.584055 -0.165945 0.625000
v 0.541667 -0.182445 0.625000
vt -0.000000 0.812500
vt -0.000000 0.937500
vt 0.062500 1.000000
vt 0.062500 0.812500
vt -0.000000 0.750000
vt 0.062500 0.750000
vt 0.062500 0.562500
vt -0.000000 0.562500
vt -0.000000 0.812500
vt 0.062500 0.812500
vt 0.062500 0.625000
vt -0.000000 0.625000
vt -0.000000 0.562500
vt 0.062500 0.562500
vt -0.000000 0.687500
vt 0.062500 0.687500
vt 0.062500 0.625000
vt -0.000000 0.625000
vt -0.000000 0.687500
vt -0.000000 0.500000
vt 0.062500 0.500000
vt -0.000000 0.687500
vt 0.062500 0.687500
vt 0.062500 0.812500
vt -0.000000 0.812500
vt 0.062500 0.875000
vt -0.000000 0.875000
vt -0.000000 0.812500
vt -0.000000 0.687500
vt 0.062500 0.625000
vt 0.062500 0.687500
vt 0.062500 0.562500
vt -0.000000 0.562500
vt -0.000000 0.625000
vt 0.062500 0.625000
vt -0.000000 0.812500
vt 0.062500 0.812500
vt -0.000000 0.750000
vt 0.062500 0.750000
vt 0.062500 0.562500
vt 0.062500 0.812500
vt -0.000000 0.812500
vt -0.000000 0.562500
vt 0.062500 0.625000
vt 0.062500 0.562500
vt -0.000000 0.562500
vt -0.000000 0.625000
vt -0.000000 0.687500
vt -0.000000 0.625000
vt 0.062500 0.625000
vt 0.062500 0.687500
vt -0.000000 0.687500
vt 0.062500 0.500000
vt -0.000000 0.500000
vt 0.062500 0.625000
vt 0.062500 0.562500
vt -0.000000 0.562500
vt -0.000000 0.625000
vt -0.000000 0.812500
vt -0.000000 0.875000
vt 0.062500 0.875000
vt -0.000000 0.687500
vt -0.000000 0.812500
vt 0.062500 0.812500
vt 0.062500 1.000000
vt -0.000000 0.937500
vt -0.000000 0.750000
vt 0.062500 0.750000
vt 0.062500 0.562500
vt 0.062500 0.812500
vt -0.000000 0.812500
vt -0.000000 0.562500
vt 0.062500 0.625000
vt 0.062500 0.562500
vt -0.000000 0.562500
vt -0.000000 0.625000
vt -0.000000 0.687500
vt -0.000000 0.625000
vt 0.062500 0.625000
vt 0.062500 0.687500
vt -0.000000 0.687500
vt 0.062500 0.500000
vt -0.000000 0.500000
vt 0.062500 0.812500
vt 0.062500 0.687500
vt 0.000000 0.687500
vt 0.000000 0.812500
vt -0.000000 0.812500
vt -0.000000 0.875000
vt 0.062500 0.875000
vt -0.000000 0.687500
vt 0.062500 0.687500
vt -0.000000 0.812500
vt 0.062500 0.812500
vt -0.000000 0.750000
vt 0.062500 0.750000
vt 0.062500 0.562500
vt -0.000000 0.562500
vt -0.000000 0.812500
vt 0.062500 0.812500
vt 0.062500 0.625000
vt -0.000000 0.625000
vt -0.000000 0.562500
vt 0.062500 0.562500
vt -0.000000 0.687500
vt 0.062500 0.687500
vt 0.062500 0.625000
vt -0.000000 0.625000
vt -0.000000 0.687500
vt -0.000000 0.500000
vt 0.062500 0.500000
vt 0.062500 0.812500
vt 0.000000 0.687500
vt 0.000000 0.812500
vt 0.062500 0.875000
vt -0.000000 0.875000
vt -0.000000 0.812500
vt -0.000000 0.687500
vt 0.062500 0.625000
vt -0.000000 0.687500
vt 0.062500 0.812500
vt 0.000000 0.812500
vn 0.0000 0.0000 -1.0000
vn 0.0000 0.0000 1.0000
vn 0.0000 1.0000 0.0000
vn 0.0000 0.7071 -0.7071
vn 0.0000 0.7071 0.7071
vn 0.0000 -1.0000 0.0000
vn 0.0000 -0.7071 0.7071
vn 0.0000 -0.7071 -0.7071
usemtl MAIN
s off
f 28/65/18 23/66/18 24/67/18 29/68/18
f 32/69/18 28/65/18 29/68/18 37/70/18
f 30/71/19 33/72/19 25/73/19 26/74/19
f 35/75/20 27/76/20 36/77/20 31/78/20
f 32/79/21 34/80/21 27/81/21 35/82/21
f 37/70/18 34/83/18 32/69/18
f 31/78/22 36/77/22 33/84/22 30/85/22
f 62/86/19 63/87/19 61/88/19 60/89/19
f 25/73/19 39/90/19 38/91/19 26/92/19
f 42/93/19 40/94/19 41/95/19
f 96/96/18 98/97/18 80/98/18 78/99/18
f 48/100/18 49/101/18 24/67/18 23/66/18
f 52/102/18 57/103/18 49/101/18 48/100/18
f 50/104/19 46/105/19 45/106/19 53/107/19
f 55/108/20 51/109/20 56/110/20 47/111/20
f 52/112/21 55/113/21 47/114/21 54/115/21
f 57/103/18 52/102/18 54/116/18
f 51/109/22 50/117/22 53/118/22 56/110/22
f 62/119/19 40/120/19 42/121/19 64/122/19
f 45/106/19 46/123/19 60/124/19 61/125/19
f 64/126/19 63/87/19 62/119/19
f 66/127/19 67/128/19 58/129/19 59/130/19
f 70/131/19 75/132/19 67/128/19 66/127/19
f 68/133/18 43/134/18 44/135/18 71/136/18
f 73/137/23 69/138/23 74/139/23 65/140/23
f 70/141/24 73/142/24 65/143/24 72/144/24
f 75/132/19 70/131/19 72/145/19
f 69/138/25 68/146/25 71/147/25 74/139/25
f 95/148/18 97/149/18 96/150/18 94/151/18
f 44/135/18 43/152/18 76/153/18 77/154/18
f 80/155/18 79/156/18 78/99/18
f 84/157/19 59/130/19 58/129/19 85/158/19
f 88/159/19 84/157/19 85/158/19 93/160/19
f 86/161/18 89/162/18 81/163/18 82/164/18
f 91/165/23 83/166/23 92/167/23 87/168/23
f 88/169/24 90/170/24 83/171/24 91/172/24
f 93/160/19 90/173/19 88/159/19
f 87/168/25 92/167/25 89/174/25 86/175/25
f 39/176/19 41/95/19 40/177/19 38/178/19
f 81/163/18 95/179/18 94/180/18 82/181/18
f 98/182/18 96/183/18 97/149/18
f 78/184/18 79/156/18 77/185/18 76/186/18
