# Blender v2.80 (sub 75) OBJ File: 'curios.blend'
# www.blender.org
mtllib amulet_battlemage.mtl
o PENDANT_BASE_LEATHER_INVENTORY_Cube.067
v 0.500000 0.088388 0.500000
v 0.500000 0.000000 0.500000
v 0.312319 -0.036431 0.625000
v 0.374819 -0.036431 0.625000
v 0.312319 0.244819 0.531250
v 0.416667 0.171722 0.500000
v 0.373917 0.126083 0.500000
v 0.374819 0.213569 0.625000
v 0.374819 0.244819 0.593750
v 0.374819 0.213569 0.500000
v 0.312319 0.213569 0.625000
v 0.312319 0.213569 0.500000
v 0.374819 0.244819 0.531250
v 0.312319 0.244819 0.593750
v 0.331706 0.168294 0.500000
v 0.500000 -0.119945 0.625000
v 0.500000 -0.182445 0.625000
v 0.416667 -0.078278 0.625000
v 0.373917 -0.123917 0.625000
v 0.374819 -0.036431 0.625000
v 0.331706 -0.081706 0.625000
v 0.458333 -0.119945 0.625000
v 0.415945 -0.165945 0.625000
v 0.458333 -0.182445 0.625000
v 0.374819 -0.036431 0.625000
v 0.312319 -0.036431 0.625000
v 0.687681 -0.036431 0.625000
v 0.625181 -0.036431 0.625000
v 0.687681 0.244819 0.531250
v 0.583333 0.171722 0.500000
v 0.626083 0.126083 0.500000
v 0.625181 0.213569 0.625000
v 0.625181 0.244819 0.593750
v 0.625181 0.213569 0.500000
v 0.687681 0.213569 0.625000
v 0.687681 0.213569 0.500000
v 0.625181 0.244819 0.531250
v 0.687681 0.244819 0.593750
v 0.668294 0.168294 0.500000
v 0.500000 0.000000 0.500000
v 0.500000 0.088388 0.500000
v 0.583333 -0.078278 0.625000
v 0.626083 -0.123917 0.625000
v 0.625181 -0.036431 0.625000
v 0.668294 -0.081706 0.625000
v 0.541667 -0.119945 0.625000
v 0.584055 -0.165945 0.625000
v 0.541667 -0.182445 0.625000
v 0.312319 0.244819 0.531250
v 0.416667 0.171722 0.500000
v 0.373917 0.126083 0.500000
v 0.374819 0.213569 0.625000
v 0.374819 0.244819 0.593750
v 0.374819 0.213569 0.500000
v 0.312319 0.213569 0.625000
v 0.312319 0.213569 0.500000
v 0.374819 0.244819 0.531250
v 0.312319 0.244819 0.593750
v 0.331706 0.168294 0.500000
v 0.500000 -0.119945 0.625000
v 0.500000 -0.182445 0.625000
v 0.416667 -0.078278 0.625000
v 0.373917 -0.123917 0.625000
v 0.374819 -0.036431 0.625000
v 0.331706 -0.081706 0.625000
v 0.458333 -0.119945 0.625000
v 0.415945 -0.165945 0.625000
v 0.458333 -0.182445 0.625000
v 0.687681 -0.036431 0.625000
v 0.625181 -0.036431 0.625000
v 0.687681 0.244819 0.531250
v 0.583333 0.171722 0.500000
v 0.626083 0.126083 0.500000
v 0.625181 0.213569 0.625000
v 0.625181 0.244819 0.593750
v 0.625181 0.213569 0.500000
v 0.687681 0.213569 0.625000
v 0.687681 0.213569 0.500000
v 0.625181 0.244819 0.531250
v 0.687681 0.244819 0.593750
v 0.668294 0.168294 0.500000
v 0.583333 -0.078278 0.625000
v 0.626083 -0.123917 0.625000
v 0.625181 -0.036431 0.625000
v 0.668294 -0.081706 0.625000
v 0.541667 -0.119945 0.625000
v 0.584055 -0.165945 0.625000
v 0.541667 -0.182445 0.625000
vt 0.062500 0.812500
vt 0.062500 0.937500
vt 0.125000 1.000000
vt 0.125000 0.812500
vt 0.062500 0.749729
vt 0.125000 0.749728
vt 0.125000 0.562500
vt 0.062500 0.562500
vt 0.062500 0.812500
vt 0.125000 0.812500
vt 0.125000 0.625000
vt 0.062500 0.625000
vt 0.062500 0.562500
vt 0.125000 0.562500
vt 0.062500 0.687500
vt 0.125000 0.687500
vt 0.125000 0.625000
vt 0.062500 0.625000
vt 0.062500 0.687500
vt 0.062500 0.500000
vt 0.125000 0.500000
vt 0.062500 0.750000
vt 0.125000 0.750000
vt 0.125000 0.812500
vt 0.062500 0.812500
vt 0.125000 0.875000
vt 0.062500 0.875000
vt 0.062500 0.812500
vt 0.062500 0.687500
vt 0.125000 0.687500
vt 0.125000 0.750000
vt 0.062500 0.750000
vt 0.062500 0.687500
vt 0.125000 0.625000
vt 0.125000 0.687500
vt 0.062500 0.625000
vt 0.062500 0.562500
vt 0.125000 0.562500
vt 0.062500 0.812500
vt 0.125000 0.812500
vt 0.062500 0.749729
vt 0.125000 0.749728
vt 0.125000 0.562500
vt 0.125000 0.812500
vt 0.062500 0.812500
vt 0.062500 0.562500
vt 0.125000 0.625000
vt 0.125000 0.562500
vt 0.062500 0.562500
vt 0.062500 0.625000
vt 0.062500 0.687500
vt 0.062500 0.625000
vt 0.125000 0.625000
vt 0.125000 0.687500
vt 0.062500 0.687500
vt 0.125000 0.500000
vt 0.062500 0.500000
vt 0.062500 0.750000
vt 0.062500 0.812500
vt 0.125000 0.812500
vt 0.125000 0.750000
vt 0.062500 0.812500
vt 0.062500 0.875000
vt 0.125000 0.875000
vt 0.062500 0.687500
vt 0.062500 0.750000
vt 0.125000 0.750000
vt 0.125000 0.687500
vt 0.062500 0.687500
vt 0.125000 0.687500
vt 0.125000 0.625000
vt 0.062500 0.625000
vt 0.062500 0.812500
vt 0.125000 0.812500
vt 0.125000 1.000000
vt 0.062500 0.937500
vt 0.062500 0.749729
vt 0.125000 0.749728
vt 0.125000 0.562500
vt 0.125000 0.812500
vt 0.062500 0.812500
vt 0.062500 0.562500
vt 0.125000 0.625000
vt 0.125000 0.562500
vt 0.062500 0.562500
vt 0.062500 0.625000
vt 0.062500 0.687500
vt 0.062500 0.625000
vt 0.125000 0.625000
vt 0.125000 0.687500
vt 0.062500 0.687500
vt 0.125000 0.500000
vt 0.062500 0.500000
vt 0.062500 0.750000
vt 0.062500 0.812500
vt 0.125000 0.812500
vt 0.125000 0.750000
vt 0.062500 0.812500
vt 0.062500 0.875000
vt 0.125000 0.875000
vt 0.062500 0.687500
vt 0.062500 0.750000
vt 0.125000 0.750000
vt 0.125000 0.687500
vt 0.062500 0.687500
vt 0.125000 0.687500
vt 0.125000 0.625000
vt 0.125000 0.562500
vt 0.062500 0.562500
vt 0.062500 0.625000
vt 0.062500 0.812500
vt 0.125000 0.812500
vt 0.062500 0.749729
vt 0.125000 0.749728
vt 0.125000 0.562500
vt 0.062500 0.562500
vt 0.062500 0.812500
vt 0.125000 0.812500
vt 0.125000 0.625000
vt 0.062500 0.625000
vt 0.062500 0.562500
vt 0.125000 0.562500
vt 0.062500 0.687500
vt 0.125000 0.687500
vt 0.125000 0.625000
vt 0.062500 0.625000
vt 0.062500 0.687500
vt 0.062500 0.500000
vt 0.125000 0.500000
vt 0.062500 0.750000
vt 0.125000 0.750000
vt 0.125000 0.812500
vt 0.062500 0.812500
vt 0.125000 0.875000
vt 0.062500 0.875000
vt 0.062500 0.812500
vt 0.062500 0.687500
vt 0.125000 0.687500
vt 0.125000 0.750000
vt 0.062500 0.750000
vt 0.062500 0.687500
vt 0.125000 0.625000
vt 0.125000 0.687500
vt 0.062500 0.625000
vn 0.0000 0.0000 -1.0000
vn 0.0000 0.0000 1.0000
vn 0.0000 1.0000 0.0000
vn 0.0000 0.7071 -0.7071
vn 0.0000 0.7071 0.7071
vn 0.0000 -1.0000 0.0000
vn 0.0000 -0.7071 0.7071
vn 0.0000 -0.7071 -0.7071
usemtl MAIN
s off
f 6/1/1 1/2/1 2/3/1 7/4/1
f 10/5/1 6/1/1 7/4/1 15/6/1
f 8/7/2 11/8/2 3/9/2 4/10/2
f 13/11/3 5/12/3 14/13/3 9/14/3
f 10/15/4 12/16/4 5/17/4 13/18/4
f 15/6/1 12/19/1 10/5/1
f 9/14/5 14/13/5 11/20/5 8/21/5
f 20/22/2 21/23/2 19/24/2 18/25/2
f 3/9/2 21/26/2 20/27/2 4/28/2
f 18/29/2 19/30/2 23/31/2 22/32/2
f 24/33/2 22/34/2 23/35/2
f 22/34/2 24/36/2 17/37/2 16/38/2
f 30/39/1 31/40/1 2/3/1 1/2/1
f 34/41/1 39/42/1 31/40/1 30/39/1
f 32/43/2 28/44/2 27/45/2 35/46/2
f 37/47/3 33/48/3 38/49/3 29/50/3
f 34/51/4 37/52/4 29/53/4 36/54/4
f 39/42/1 34/41/1 36/55/1
f 33/48/5 32/56/5 35/57/5 38/49/5
f 44/58/2 42/59/2 43/60/2 45/61/2
f 27/45/2 28/62/2 44/63/2 45/64/2
f 42/65/2 46/66/2 47/67/2 43/68/2
f 48/69/2 47/70/2 46/71/2
f 46/71/2 16/38/2 17/37/2 48/72/2
f 50/73/2 51/74/2 40/75/2 41/76/2
f 54/77/2 59/78/2 51/74/2 50/73/2
f 52/79/1 25/80/1 26/81/1 55/82/1
f 57/83/6 53/84/6 58/85/6 49/86/6
f 54/87/7 57/88/7 49/89/7 56/90/7
f 59/78/2 54/77/2 56/91/2
f 53/84/8 52/92/8 55/93/8 58/85/8
f 64/94/1 62/95/1 63/96/1 65/97/1
f 26/81/1 25/98/1 64/99/1 65/100/1
f 62/101/1 66/102/1 67/103/1 63/104/1
f 68/105/1 67/106/1 66/107/1
f 66/107/1 60/108/1 61/109/1 68/110/1
f 72/111/2 41/76/2 40/75/2 73/112/2
f 76/113/2 72/111/2 73/112/2 81/114/2
f 74/115/1 77/116/1 69/117/1 70/118/1
f 79/119/6 71/120/6 80/121/6 75/122/6
f 76/123/7 78/124/7 71/125/7 79/126/7
f 81/114/2 78/127/2 76/113/2
f 75/122/8 80/121/8 77/128/8 74/129/8
f 84/130/1 85/131/1 83/132/1 82/133/1
f 69/117/1 85/134/1 84/135/1 70/136/1
f 82/137/1 83/138/1 87/139/1 86/140/1
f 88/141/1 86/142/1 87/143/1
f 86/142/1 88/144/1 61/109/1 60/108/1
o PENDANT_DECO_BATTLEMAGE_Cube.071
v 0.500000 0.038149 0.531250
v 0.455806 0.082344 0.531250
v 0.500000 0.038149 0.468750
v 0.455806 0.082344 0.468750
v 0.544194 0.082344 0.531250
v 0.500000 0.126538 0.531250
v 0.544194 0.082344 0.468750
v 0.500000 0.126538 0.468750
v 0.500000 -0.006045 0.515625
v 0.455806 0.038149 0.515625
v 0.544194 0.038149 0.515625
v 0.500000 0.082344 0.515625
v 0.544194 0.038149 0.484375
v 0.500000 0.082344 0.484375
v 0.544194 -0.050239 0.484375
v 0.544194 -0.050239 0.515625
v 0.588388 -0.006045 0.484375
v 0.588388 -0.006045 0.515625
v 0.588388 -0.094433 0.484375
v 0.588388 -0.094433 0.515625
v 0.588388 -0.182821 0.484375
v 0.588388 -0.182821 0.515625
v 0.544194 -0.050239 0.500000
v 0.455806 -0.138627 0.515625
v 0.544194 -0.138627 0.515625
v 0.500000 -0.006045 0.500000
v 0.544194 -0.138627 0.500000
v 0.455806 -0.138627 0.500000
v 0.500000 -0.094433 0.468750
v 0.500000 -0.006045 0.484375
v 0.455806 0.038149 0.484375
v 0.455806 -0.050239 0.515625
v 0.455806 -0.050239 0.484375
v 0.411612 -0.006045 0.515625
v 0.411612 -0.006045 0.484375
v 0.411612 -0.094433 0.515625
v 0.411612 -0.094433 0.484375
v 0.411612 -0.182821 0.515625
v 0.411612 -0.182821 0.484375
v 0.455806 -0.050239 0.500000
v 0.544194 -0.138627 0.484375
v 0.455806 -0.138627 0.484375
v 0.500000 -0.182821 0.515625
v 0.500000 -0.182821 0.484375
v 0.500000 -0.094433 0.531250
vt 0.250000 0.687500
vt 0.312500 0.687500
vt 0.312500 0.750000
vt 0.250000 0.750000
vt 0.312500 0.812500
vt 0.312500 0.875000
vt 0.250000 0.875000
vt 0.250000 0.812500
vt 0.250000 0.937500
vt 0.312500 0.937500
vt 0.312500 1.000000
vt 0.250000 1.000000
vt 0.250000 0.812500
vt 0.312500 0.812500
vt 0.312500 0.875000
vt 0.250000 0.875000
vt 0.312500 0.750000
vt 0.312500 0.812500
vt 0.250000 0.812500
vt 0.312500 0.937500
vt 0.250000 0.937500
vt 0.312500 0.937500
vt 0.312500 0.875000
vt 0.250000 0.875000
vt 0.250000 0.937500
vt 0.312500 0.937500
vt 0.312500 1.000000
vt 0.250000 1.000000
vt 0.250000 0.937500
vt 0.250000 0.875000
vt 0.312500 0.875000
vt 0.312500 0.937500
vt 0.250000 0.937500
vt 0.312500 0.937500
vt 0.250000 0.937500
vt 0.312500 0.812500
vt 0.312500 0.875000
vt 0.250000 0.875000
vt 0.250000 0.812500
vt 0.312500 0.812500
vt 0.312500 0.875000
vt 0.250000 0.812500
vt 0.250000 0.875000
vt 0.312500 0.875000
vt 0.312500 0.812500
vt 0.312500 0.750000
vt 0.250000 0.750000
vt 0.312500 0.812500
vt 0.250000 0.687500
vt 0.250000 0.750000
vt 0.312500 0.750000
vt 0.312500 0.687500
vt 0.250000 0.625000
vt 0.250000 0.687500
vt 0.312500 0.687500
vt 0.250000 0.625000
vt 0.312500 0.625000
vt 0.312500 0.687500
vt 0.312500 0.750000
vt 0.250000 0.687500
vt 0.250000 0.562500
vt 0.312500 0.562500
vt 0.312500 0.625000
vt 0.312500 0.687500
vt 0.312500 0.625000
vt 0.250000 0.687500
vt 0.250000 0.562500
vt 0.312500 0.625000
vt 0.250000 0.500000
vt 0.312500 0.500000
vt 0.312500 0.562500
vt 0.312500 0.812500
vt 0.250000 0.812500
vt 0.250000 0.750000
vt 0.250000 0.687500
vt 0.250000 0.625000
vt 0.250000 0.625000
vt 0.250000 0.812500
vt 0.250000 0.750000
vt 0.687500 0.750000
vt 0.687500 0.812500
vt 0.625000 0.812500
vt 0.687500 0.687500
vt 0.625000 0.687500
vt 0.625000 0.625000
vt 0.625000 0.812500
vt 0.625000 0.750000
vt 0.687500 0.812500
vt 0.250000 0.750000
vt 0.250000 0.687500
vt 0.312500 0.687500
vt 0.312500 0.750000
vt 0.312500 0.562500
vt 0.312500 0.625000
vt 0.250000 0.625000
vt 0.312500 0.875000
vt 0.250000 0.875000
vt 0.250000 0.812500
vt 0.312500 0.812500
vt 0.312500 0.875000
vt 0.250000 0.812500
vt 0.250000 0.875000
vt 0.312500 0.875000
vt 0.312500 0.750000
vt 0.250000 0.750000
vt 0.312500 0.812500
vt 0.250000 0.687500
vt 0.250000 0.750000
vt 0.312500 0.750000
vt 0.312500 0.687500
vt 0.250000 0.625000
vt 0.250000 0.687500
vt 0.312500 0.687500
vt 0.250000 0.625000
vt 0.312500 0.687500
vt 0.312500 0.750000
vt 0.250000 0.687500
vt 0.250000 0.562500
vt 0.312500 0.562500
vt 0.250000 0.562500
vt 0.250000 0.500000
vt 0.312500 0.500000
vt 0.312500 0.562500
vt 0.250000 0.750000
vt 0.312500 0.687500
vt 0.312500 0.812500
vt 0.250000 0.812500
vt 0.250000 0.750000
vt 0.250000 0.625000
vt 0.250000 0.812500
vt 0.250000 0.750000
vt 0.250000 0.750000
vt 0.250000 0.687500
vt 0.312500 0.687500
vt 0.312500 0.750000
vt 0.312500 0.562500
vt 0.312500 0.625000
vt 0.250000 0.625000
vt 0.625000 0.937500
vt 0.625000 0.875000
vt 0.687500 0.875000
vt 0.687500 0.937500
vt 0.625000 0.875000
vt 0.687500 0.875000
vt 0.687500 0.687500
vt 0.625000 0.625000
vt 0.625000 0.687500
vt 0.687500 0.625000
vt 0.687500 0.562500
vt 0.625000 0.562500
vt 0.687500 0.625000
vt 0.625000 0.687500
vt 0.687500 0.687500
vt 0.625000 0.750000
vt 0.687500 0.750000
vt 0.625000 0.750000
vt 0.687500 0.750000
vn -0.7071 -0.7071 0.0000
vn 0.0000 0.0000 -1.0000
vn 0.7071 0.7071 0.0000
vn 0.0000 0.0000 1.0000
vn 0.7071 -0.7071 0.0000
vn -0.7071 0.7071 0.0000
vn -1.0000 0.0000 0.0000
vn 0.0000 -1.0000 0.0000
vn 0.5773 0.0000 -0.8165
vn 0.0000 -0.5774 -0.8165
vn -0.5773 0.0000 -0.8165
vn 1.0000 0.0000 0.0000
vn -0.0000 1.0000 0.0000
vn 0.3162 0.3162 -0.8944
vn -0.3162 0.3162 -0.8944
vn -0.5774 0.0000 0.8165
vn 0.0000 -0.5774 0.8165
vn 0.5774 0.0000 0.8165
vn 0.3162 0.3162 0.8944
vn -0.3162 0.3162 0.8944
usemtl MAIN
s off
f 89/145/9 90/146/9 92/147/9 91/148/9
f 91/149/10 92/150/10 96/151/10 95/152/10
f 95/153/11 96/154/11 94/155/11 93/156/11
f 93/157/12 94/158/12 90/159/12 89/160/12
f 91/148/13 95/161/13 93/162/13 89/163/13
f 96/151/14 92/150/14 90/164/14 94/165/14
f 118/166/10 119/167/10 102/168/10 101/169/10
f 101/170/11 102/171/11 100/172/11 99/173/11
f 99/174/12 100/175/12 98/176/12 97/177/12
f 102/171/14 119/178/14 98/179/14 100/172/14
f 97/180/12 104/181/12 106/182/12 99/183/12
f 101/184/11 99/183/11 106/182/11 105/185/11
f 101/186/10 105/187/10 103/188/10 118/189/10
f 103/190/10 105/191/10 107/192/10
f 103/193/10 107/194/10 129/195/10
f 129/196/10 107/197/10 109/198/10
f 104/199/15 103/193/15 129/200/15 113/201/15
f 108/202/12 104/203/12 113/204/12
f 110/205/12 113/206/12 131/207/12
f 132/208/10 130/209/10 129/210/10
f 129/200/10 109/211/10 132/212/10
f 109/211/16 110/213/16 131/214/16 132/215/16
f 106/216/12 104/217/12 108/218/12
f 112/219/12 131/220/12 113/201/12
f 110/221/12 108/202/12 113/204/12
f 118/222/9 103/223/9 104/203/9 97/180/9
f 115/224/17 117/225/17 111/226/17
f 116/227/18 117/228/18 115/229/18
f 117/230/19 116/231/19 128/232/19
f 106/233/20 108/234/20 107/235/20 105/236/20
f 110/205/20 109/237/20 107/238/20 108/239/20
f 118/189/10 121/240/10 123/241/10 119/242/10
f 98/243/14 119/242/14 123/241/14 122/244/14
f 98/245/12 122/246/12 120/247/12 97/180/12
f 120/248/12 122/249/12 124/250/12
f 120/251/12 124/252/12 112/253/12
f 112/254/12 124/255/12 126/256/12
f 121/257/20 120/251/20 112/258/20 130/209/20
f 125/259/10 121/260/10 130/261/10
f 127/262/10 130/263/10 132/212/10
f 112/258/12 126/264/12 131/207/12
f 126/264/16 127/265/16 132/266/16 131/267/16
f 129/195/21 130/268/21 112/219/21 113/269/21
f 123/270/10 121/271/10 125/272/10
f 127/273/10 125/259/10 130/261/10
f 97/274/13 120/275/13 121/260/13 118/189/13
f 123/276/15 125/277/15 124/278/15 122/279/15
f 127/262/15 126/280/15 124/281/15 125/282/15
f 114/283/22 111/284/22 117/285/22
f 114/286/23 117/287/23 128/288/23
f 128/289/24 116/290/24 133/291/24
f 116/292/25 115/293/25 133/294/25
f 115/295/26 111/296/26 133/297/26
f 111/298/27 114/299/27 133/291/27
f 114/300/28 128/301/28 133/291/28
