# Blender v2.80 (sub 75) OBJ File: 'curios.blend'
# www.blender.org
mtllib bracelet_mundane.mtl
o BRACELET_BASE_UNFORGED_Cube.056
v 0.375000 -0.031250 0.375000
v 0.375000 0.031250 0.375000
v 0.625000 -0.031250 0.375000
v 0.625000 0.031250 0.375000
v 0.375000 -0.031250 0.625000
v 0.375000 0.031250 0.625000
v 0.625000 -0.031250 0.625000
v 0.625000 0.031250 0.625000
v 0.625000 0.031250 0.656250
v 0.625000 -0.031250 0.656250
v 0.375000 -0.031250 0.656250
v 0.375000 0.031250 0.656250
v 0.625000 -0.031250 0.343750
v 0.375000 -0.031250 0.343750
v 0.375000 0.031250 0.343750
v 0.625000 0.031250 0.343750
v 0.656250 0.031250 0.375000
v 0.656250 -0.031250 0.375000
v 0.656250 -0.031250 0.625000
v 0.656250 0.031250 0.625000
v 0.343750 -0.031250 0.375000
v 0.343750 0.031250 0.375000
v 0.343750 0.031250 0.625000
v 0.343750 -0.031250 0.625000
vt 0.437500 0.625000
vt 0.437500 0.875000
vt 0.375000 0.875000
vt 0.375000 0.625000
vt 0.375000 0.625000
vt 0.375000 0.875000
vt 0.437500 0.875000
vt 0.437500 0.625000
vt 0.437500 0.937500
vt 0.437500 1.000000
vt 0.375000 1.000000
vt 0.375000 0.937500
vt 0.375000 0.875000
vt 0.375000 0.625000
vt 0.437500 0.625000
vt 0.437500 0.875000
vt 0.375000 0.687500
vt 0.375000 0.625000
vt 0.437500 0.625000
vt 0.437500 0.687500
vt 0.375000 0.562500
vt 0.437500 0.562500
vt 0.375000 0.625000
vt 0.437500 0.687500
vt 0.375000 0.687500
vt 0.375000 0.937500
vt 0.437500 0.937500
vt 0.437500 0.875000
vt 0.437500 0.625000
vt 0.375000 0.625000
vt 0.375000 0.875000
vt 0.437500 0.625000
vt 0.437500 0.875000
vt 0.375000 0.875000
vt 0.375000 0.625000
vt 0.437500 0.562500
vt 0.375000 0.687500
vt 0.437500 0.687500
vt 0.437500 0.937500
vt 0.375000 0.937500
vt 0.437500 0.875000
vt 0.437500 0.625000
vt 0.375000 0.875000
vt 0.437500 0.562500
vt 0.375000 0.562500
vt 0.375000 0.625000
vt 0.437500 0.562500
vt 0.375000 0.687500
vt 0.437500 0.687500
vt 0.375000 0.875000
vt 0.375000 0.625000
vt 0.437500 0.625000
vt 0.437500 0.875000
vt 0.437500 0.937500
vt 0.437500 0.937500
vt 0.375000 0.937500
vt 0.375000 0.687500
vt 0.437500 0.687500
vt 0.375000 0.875000
vt 0.375000 0.937500
vt 0.375000 0.875000
vt 0.437500 0.937500
vt 0.375000 0.937500
vt 0.375000 0.625000
vt 0.375000 0.875000
vt 0.437500 0.875000
vt 0.375000 0.937500
vt 0.437500 1.000000
vt 0.375000 1.000000
vt 0.437500 0.687500
vt 0.437500 0.562500
vt 0.375000 0.562500
vt 0.375000 0.812500
vt 0.437500 0.812500
vt 0.437500 0.562500
vt 0.375000 0.812500
vt 0.437500 0.812500
vn 0.0000 1.0000 0.0000
vn 0.0000 -1.0000 0.0000
vn 0.7071 0.0000 -0.7071
vn -0.7071 0.0000 -0.7071
vn 0.0000 0.0000 1.0000
vn 0.0000 0.0000 -1.0000
vn 1.0000 0.0000 0.0000
vn -1.0000 0.0000 0.0000
vn -0.7071 0.0000 0.7071
vn 0.7071 0.0000 0.7071
usemtl MAIN
s off
f 2/1/1 4/2/1 16/3/1 15/4/1
f 7/5/2 3/6/2 18/7/2 19/8/2
f 18/9/3 13/10/3 16/11/3 17/12/3
f 6/13/1 2/14/1 22/15/1 23/16/1
f 15/17/4 14/18/4 21/19/4 22/20/4
f 8/21/1 9/22/1 20/23/1
f 10/24/5 9/25/5 12/26/5 11/27/5
f 5/28/2 7/29/2 10/30/2 11/31/2
f 8/32/1 6/33/1 12/34/1 9/35/1
f 2/1/1 15/4/1 22/36/1
f 14/37/6 15/38/6 16/39/6 13/40/6
f 3/41/2 1/42/2 14/18/2 13/43/2
f 14/18/2 1/42/2 21/44/2
f 7/45/2 19/46/2 10/47/2
f 18/9/7 17/12/7 20/48/7 19/49/7
f 4/50/1 8/51/1 20/52/1 17/53/1
f 18/9/2 3/41/2 13/43/2
f 16/3/1 4/2/1 17/54/1
f 24/55/8 23/56/8 22/57/8 21/58/8
f 11/27/2 24/59/2 5/60/2
f 23/61/1 12/62/1 6/63/1
f 1/64/2 5/65/2 24/66/2 21/19/2
f 24/67/9 11/27/9 12/68/9 23/69/9
f 10/30/10 19/8/10 20/70/10 9/25/10
f 1/71/7 2/72/7 6/73/7 5/74/7
f 5/74/6 6/73/6 8/21/6 7/75/6
f 7/75/8 8/21/8 4/76/8 3/77/8
f 3/77/5 4/76/5 2/72/5 1/71/5
