# Blender v2.80 (sub 75) OBJ File: 'curios.blend'
# www.blender.org
mtllib ring_fortune_lesser.mtl
o RING_BASE_SILVER_Cube.036
v 0.411612 0.000000 0.468750
v 0.411612 0.000000 0.531250
v 0.500000 0.088388 0.468750
v 0.500000 0.088388 0.531250
v 0.500000 -0.088388 0.468750
v 0.500000 -0.088388 0.531250
v 0.588388 0.000000 0.468750
v 0.588388 0.000000 0.531250
v 0.610485 -0.022097 0.531250
v 0.610485 -0.022097 0.468750
v 0.522097 -0.110485 0.468750
v 0.522097 -0.110485 0.531250
v 0.477903 0.110485 0.468750
v 0.389515 0.022097 0.468750
v 0.389515 0.022097 0.531250
v 0.477903 0.110485 0.531250
v 0.522097 0.110485 0.531250
v 0.522097 0.110485 0.468750
v 0.610485 0.022097 0.468750
v 0.610485 0.022097 0.531250
v 0.389515 -0.022097 0.468750
v 0.389515 -0.022097 0.531250
v 0.477903 -0.110485 0.531250
v 0.477903 -0.110485 0.468750
vt 0.062500 0.687500
vt 0.062500 0.812500
vt -0.000000 0.812500
vt -0.000000 0.687500
vt 0.000000 0.687500
vt 0.000000 0.812500
vt 0.062500 0.812500
vt 0.062500 0.687500
vt 0.062500 0.875000
vt 0.062500 0.937500
vt -0.000000 0.937500
vt -0.000000 0.875000
vt 0.000000 0.812500
vt -0.000000 0.687500
vt 0.062500 0.687500
vt 0.062500 0.812500
vt 0.000000 0.750000
vt 0.000000 0.687500
vt 0.062500 0.687500
vt 0.062500 0.750000
vt 0.000000 0.625000
vt 0.062500 0.625000
vt 0.000000 0.687500
vt 0.062500 0.750000
vt 0.000000 0.750000
vt 0.000000 0.875000
vt 0.062500 0.875000
vt 0.062500 0.812500
vt 0.062500 0.687500
vt 0.000000 0.687500
vt 0.000000 0.812500
vt 0.062500 0.687500
vt 0.062500 0.812500
vt 0.000000 0.812500
vt 0.000000 0.687500
vt 0.062500 0.625000
vt 0.000000 0.750000
vt 0.062500 0.750000
vt 0.062500 0.875000
vt 0.000000 0.875000
vt 0.062500 0.812500
vt 0.062500 0.687500
vt -0.000000 0.812500
vt 0.062500 0.625000
vt 0.000000 0.625000
vt 0.000000 0.687500
vt 0.062500 0.625000
vt 0.000000 0.750000
vt 0.062500 0.750000
vt 0.000000 0.812500
vt 0.000000 0.687500
vt 0.062500 0.687500
vt 0.062500 0.812500
vt 0.062500 0.937500
vt 0.062500 0.875000
vt 0.000000 0.875000
vt 0.062500 0.875000
vt 0.062500 0.937500
vt 0.062500 0.875000
vt 0.000000 0.875000
vt -0.000000 0.750000
vt 0.062500 0.750000
vt 0.062500 0.937500
vt 0.000000 0.875000
vt 0.000000 0.937500
vt 0.062500 0.937500
vt 0.000000 0.937500
vt -0.000000 0.687500
vt 0.000000 0.812500
vt 0.062500 0.812500
vt -0.000000 0.937500
vt 0.062500 0.750000
vt 0.062500 0.625000
vt -0.000000 0.625000
vt 0.000000 0.750000
vt 0.062500 0.750000
vt 0.062500 0.625000
vt 0.000000 0.750000
vt 0.062500 0.750000
vn -0.0000 0.0000 1.0000
vn 0.0000 0.0000 -1.0000
vn 0.0000 1.0000 0.0000
vn -1.0000 0.0000 0.0000
vn 0.7071 -0.7071 0.0000
vn -0.7071 0.7071 0.0000
vn 0.7071 0.7071 0.0000
vn -0.7071 -0.7071 0.0000
vn 0.0000 -1.0000 0.0000
vn 1.0000 0.0000 0.0000
usemtl MAIN
s off
f 2/1/1 4/2/1 16/3/1 15/4/1
f 7/5/2 3/6/2 18/7/2 19/8/2
f 18/9/3 13/10/3 16/11/3 17/12/3
f 6/13/1 2/14/1 22/15/1 23/16/1
f 15/17/4 14/18/4 21/19/4 22/20/4
f 8/21/1 9/22/1 20/23/1
f 10/24/5 9/25/5 12/26/5 11/27/5
f 5/28/2 7/29/2 10/30/2 11/31/2
f 8/32/1 6/33/1 12/34/1 9/35/1
f 2/1/1 15/4/1 22/36/1
f 14/37/6 15/38/6 16/39/6 13/40/6
f 3/41/2 1/42/2 14/18/2 13/43/2
f 14/18/2 1/42/2 21/44/2
f 7/45/2 19/46/2 10/47/2
f 18/9/7 17/12/7 20/48/7 19/49/7
f 4/50/1 8/51/1 20/52/1 17/53/1
f 18/54/2 3/55/2 13/40/2
f 16/56/1 4/57/1 17/58/1
f 24/59/8 23/60/8 22/61/8 21/62/8
f 11/63/2 24/64/2 5/65/2
f 23/60/1 12/66/1 6/67/1
f 1/68/2 5/69/2 24/70/2 21/19/2
f 24/64/9 11/27/9 12/66/9 23/71/9
f 10/30/10 19/8/10 20/72/10 9/25/10
f 1/73/7 2/74/7 6/75/7 5/76/7
f 5/76/6 6/75/6 8/21/6 7/77/6
f 7/77/8 8/21/8 4/78/8 3/79/8
f 3/79/5 4/78/5 2/74/5 1/73/5
o RING_DECO_FORTUNE2_Cube.040
v 0.477903 0.110485 0.468750
v 0.477903 0.110485 0.531250
v 0.522097 0.110485 0.531250
v 0.522097 0.110485 0.468750
v 0.468750 0.126110 0.468750
v 0.468750 0.126110 0.531250
v 0.531250 0.126110 0.468750
v 0.531250 0.126110 0.531250
v 0.531250 0.157360 0.468750
v 0.468750 0.157360 0.468750
v 0.468750 0.157360 0.531250
v 0.531250 0.157360 0.531250
v 0.500000 0.219860 0.500000
v 0.522097 0.110485 0.531250
v 0.522097 0.110485 0.468750
v 0.541348 0.139642 0.500000
v 0.576224 0.141735 0.468750
v 0.576224 0.141735 0.531250
v 0.556973 0.112579 0.500000
v 0.423776 0.141735 0.468750
v 0.458652 0.139642 0.500000
v 0.477903 0.110485 0.468750
v 0.477903 0.110485 0.531250
v 0.423776 0.141735 0.531250
v 0.443027 0.112579 0.500000
vt 0.687500 0.625000
vt 0.750000 0.625000
vt 0.750000 0.687500
vt 0.687500 0.687500
vt 0.062500 0.750000
vt 0.062500 0.812500
vt -0.000000 0.812500
vt -0.000000 0.750000
vt 0.062500 0.687500
vt 0.062500 0.750000
vt -0.000000 0.750000
vt -0.000000 0.687500
vt 0.062500 0.687500
vt 0.062500 0.750000
vt -0.000000 0.750000
vt -0.000000 0.687500
vt 0.062500 0.750000
vt 0.062500 0.812500
vt -0.000000 0.812500
vt -0.000000 0.750000
vt 0.687500 0.812500
vt 0.750000 0.812500
vt 0.687500 0.875000
vt 0.687500 0.625000
vt 0.750000 0.625000
vt 0.750000 0.687500
vt 0.687500 0.687500
vt 0.687500 0.687500
vt 0.750000 0.687500
vt 0.750000 0.750000
vt 0.687500 0.750000
vt 0.687500 0.562500
vt 0.750000 0.562500
vt 0.750000 0.625000
vt 0.687500 0.625000
vt 0.687500 0.687500
vt 0.750000 0.687500
vt 0.687500 0.750000
vt 0.687500 0.750000
vt 0.687500 0.812500
vt 0.687500 0.750000
vt 0.750000 0.750000
vt -0.000000 0.750000
vt 0.062500 0.687500
vt -0.000000 0.687500
vt -0.000000 0.812500
vt 0.062500 0.812500
vt -0.000000 0.875000
vt 0.000000 1.000000
vt 0.000000 0.937500
vt 0.062500 0.937500
vt 0.062500 0.812500
vt -0.000000 0.812500
vt -0.000000 0.687500
vt 0.000000 0.750000
vt 0.062500 0.625000
vt 0.062500 0.562500
vt 0.000000 0.562500
vt 0.062500 0.687500
vt -0.000000 0.687500
vt 0.000000 0.875000
vt 0.062500 0.812500
vt 0.000000 0.875000
vt 0.062500 0.812500
vt 0.000000 0.812500
vt 0.062500 0.687500
vt 0.000000 0.750000
vt -0.000000 0.687500
vt 0.062500 0.625000
vt 0.000000 0.562500
vt 0.062500 0.562500
vt -0.000000 0.687500
vt 0.062500 0.687500
vt 0.062500 0.812500
vt -0.000000 0.875000
vt 0.000000 1.000000
vt 0.062500 0.937500
vt 0.000000 0.937500
vt -0.000000 0.812500
vt 0.062500 0.812500
vt -0.000000 0.750000
vt -0.000000 0.687500
vn 1.0000 0.0000 0.0000
vn 0.0000 0.0000 1.0000
vn -0.8629 -0.5054 0.0000
vn 0.8629 -0.5054 0.0000
vn 0.0000 0.0000 -1.0000
vn 0.0000 0.4472 0.8944
vn -1.0000 0.0000 0.0000
vn 0.0000 0.4472 -0.8944
vn 0.8944 0.4472 0.0000
vn -0.8944 0.4472 0.0000
vn -0.4472 0.7746 -0.4472
vn -0.0599 0.9982 0.0000
vn -0.4472 0.7746 0.4472
vn -0.8345 0.5510 0.0000
vn 0.0599 -0.9982 0.0000
vn 0.4472 -0.7746 -0.4472
vn 0.8345 -0.5510 0.0000
vn 0.4472 -0.7746 0.4472
vn -0.4472 -0.7746 0.4472
vn -0.8345 -0.5510 0.0000
vn -0.4472 -0.7746 -0.4472
vn -0.0599 -0.9982 0.0000
vn 0.8345 0.5510 0.0000
vn 0.4472 0.7746 0.4472
vn 0.0599 0.9982 0.0000
vn 0.4472 0.7746 -0.4472
usemtl MAIN
s off
f 32/80/11 31/81/11 33/82/11 36/83/11
f 27/84/12 32/85/12 30/86/12 26/87/12
f 26/88/13 30/89/13 29/90/13 25/91/13
f 28/92/14 31/93/14 32/94/14 27/95/14
f 25/96/15 29/97/15 31/98/15 28/99/15
f 35/100/16 36/101/16 37/102/16
f 29/103/17 30/104/17 35/105/17 34/106/17
f 30/107/12 32/108/12 36/109/12 35/110/12
f 31/111/15 29/112/15 34/113/15 33/114/15
f 33/115/18 34/116/18 37/117/18
f 36/109/19 33/118/19 37/119/19
f 34/120/20 35/121/20 37/119/20
f 41/122/21 39/123/21 40/124/21
f 42/125/22 41/126/22 40/127/22
f 38/128/23 42/129/23 40/130/23
f 39/131/24 38/132/24 40/127/24
f 38/133/25 39/123/25 43/134/25
f 39/135/26 41/136/26 43/137/26
f 41/138/27 42/139/27 43/134/27
f 42/140/28 38/132/28 43/141/28
f 48/142/29 49/143/29 47/144/29
f 44/145/30 49/146/30 48/147/30
f 46/148/31 49/149/31 44/150/31
f 47/151/32 49/146/32 46/152/32
f 46/153/33 45/154/33 47/144/33
f 47/155/34 45/156/34 48/157/34
f 48/158/35 45/154/35 44/159/35
f 44/160/36 45/161/36 46/152/36
