# Blender v2.80 (sub 75) OBJ File: 'curios.blend'
# www.blender.org
mtllib ring_break_iron.mtl
o RING_BASE_SILVER_Cube.036
v 0.411612 0.000000 0.468750
v 0.411612 0.000000 0.531250
v 0.500000 0.088388 0.468750
v 0.500000 0.088388 0.531250
v 0.500000 -0.088388 0.468750
v 0.500000 -0.088388 0.531250
v 0.588388 0.000000 0.468750
v 0.588388 0.000000 0.531250
v 0.610485 -0.022097 0.531250
v 0.610485 -0.022097 0.468750
v 0.522097 -0.110485 0.468750
v 0.522097 -0.110485 0.531250
v 0.477903 0.110485 0.468750
v 0.389515 0.022097 0.468750
v 0.389515 0.022097 0.531250
v 0.477903 0.110485 0.531250
v 0.522097 0.110485 0.531250
v 0.522097 0.110485 0.468750
v 0.610485 0.022097 0.468750
v 0.610485 0.022097 0.531250
v 0.389515 -0.022097 0.468750
v 0.389515 -0.022097 0.531250
v 0.477903 -0.110485 0.531250
v 0.477903 -0.110485 0.468750
vt 0.062500 0.687500
vt 0.062500 0.812500
vt -0.000000 0.812500
vt -0.000000 0.687500
vt 0.000000 0.687500
vt 0.000000 0.812500
vt 0.062500 0.812500
vt 0.062500 0.687500
vt 0.062500 0.875000
vt 0.062500 0.937500
vt -0.000000 0.937500
vt -0.000000 0.875000
vt 0.000000 0.812500
vt -0.000000 0.687500
vt 0.062500 0.687500
vt 0.062500 0.812500
vt 0.000000 0.750000
vt 0.000000 0.687500
vt 0.062500 0.687500
vt 0.062500 0.750000
vt 0.000000 0.625000
vt 0.062500 0.625000
vt 0.000000 0.687500
vt 0.062500 0.750000
vt 0.000000 0.750000
vt 0.000000 0.875000
vt 0.062500 0.875000
vt 0.062500 0.812500
vt 0.062500 0.687500
vt 0.000000 0.687500
vt 0.000000 0.812500
vt 0.062500 0.687500
vt 0.062500 0.812500
vt 0.000000 0.812500
vt 0.000000 0.687500
vt 0.062500 0.625000
vt 0.000000 0.750000
vt 0.062500 0.750000
vt 0.062500 0.875000
vt 0.000000 0.875000
vt 0.062500 0.812500
vt 0.062500 0.687500
vt -0.000000 0.812500
vt 0.062500 0.625000
vt 0.000000 0.625000
vt 0.000000 0.687500
vt 0.062500 0.625000
vt 0.000000 0.750000
vt 0.062500 0.750000
vt 0.000000 0.812500
vt 0.000000 0.687500
vt 0.062500 0.687500
vt 0.062500 0.812500
vt 0.062500 0.937500
vt 0.062500 0.875000
vt 0.000000 0.875000
vt 0.062500 0.875000
vt 0.062500 0.937500
vt 0.062500 0.875000
vt 0.000000 0.875000
vt -0.000000 0.750000
vt 0.062500 0.750000
vt 0.062500 0.937500
vt 0.000000 0.875000
vt 0.000000 0.937500
vt 0.062500 0.937500
vt 0.000000 0.937500
vt -0.000000 0.687500
vt 0.000000 0.812500
vt 0.062500 0.812500
vt -0.000000 0.937500
vt 0.062500 0.750000
vt 0.062500 0.625000
vt -0.000000 0.625000
vt 0.000000 0.750000
vt 0.062500 0.750000
vt 0.062500 0.625000
vt 0.000000 0.750000
vt 0.062500 0.750000
vn -0.0000 0.0000 1.0000
vn 0.0000 0.0000 -1.0000
vn 0.0000 1.0000 0.0000
vn -1.0000 0.0000 0.0000
vn 0.7071 -0.7071 0.0000
vn -0.7071 0.7071 0.0000
vn 0.7071 0.7071 0.0000
vn -0.7071 -0.7071 0.0000
vn 0.0000 -1.0000 0.0000
vn 1.0000 0.0000 0.0000
usemtl MAIN
s off
f 2/1/1 4/2/1 16/3/1 15/4/1
f 7/5/2 3/6/2 18/7/2 19/8/2
f 18/9/3 13/10/3 16/11/3 17/12/3
f 6/13/1 2/14/1 22/15/1 23/16/1
f 15/17/4 14/18/4 21/19/4 22/20/4
f 8/21/1 9/22/1 20/23/1
f 10/24/5 9/25/5 12/26/5 11/27/5
f 5/28/2 7/29/2 10/30/2 11/31/2
f 8/32/1 6/33/1 12/34/1 9/35/1
f 2/1/1 15/4/1 22/36/1
f 14/37/6 15/38/6 16/39/6 13/40/6
f 3/41/2 1/42/2 14/18/2 13/43/2
f 14/18/2 1/42/2 21/44/2
f 7/45/2 19/46/2 10/47/2
f 18/9/7 17/12/7 20/48/7 19/49/7
f 4/50/1 8/51/1 20/52/1 17/53/1
f 18/54/2 3/55/2 13/40/2
f 16/56/1 4/57/1 17/58/1
f 24/59/8 23/60/8 22/61/8 21/62/8
f 11/63/2 24/64/2 5/65/2
f 23/60/1 12/66/1 6/67/1
f 1/68/2 5/69/2 24/70/2 21/19/2
f 24/64/9 11/27/9 12/66/9 23/71/9
f 10/30/10 19/8/10 20/72/10 9/25/10
f 1/73/7 2/74/7 6/75/7 5/76/7
f 5/76/6 6/75/6 8/21/6 7/77/6
f 7/77/8 8/21/8 4/78/8 3/79/8
f 3/79/5 4/78/5 2/74/5 1/73/5
o RING_DECO_BREAKIRON_Plane.001
v 0.477903 0.110485 0.468750
v 0.477903 0.110485 0.531250
v 0.522097 0.110485 0.468750
v 0.522097 0.110485 0.531250
v 0.500000 0.141735 0.500000
v 0.550666 0.081916 0.468750
v 0.550666 0.081916 0.531250
v 0.581916 0.050666 0.468750
v 0.581916 0.050666 0.531250
v 0.588388 0.088388 0.500000
v 0.418084 0.050666 0.468750
v 0.418084 0.050666 0.531250
v 0.449334 0.081916 0.468750
v 0.449334 0.081916 0.531250
v 0.411612 0.088388 0.500000
vt 0.187500 0.625000
vt 0.250000 0.687500
vt 0.187500 0.687500
vt 0.250000 0.937500
vt 0.187500 0.875000
vt 0.250000 0.875000
vt 0.187500 0.812500
vt 0.250000 0.750000
vt 0.250000 0.812500
vt 0.250000 0.750000
vt 0.187500 0.812500
vt 0.187500 0.750000
vt 0.187500 0.625000
vt 0.250000 0.687500
vt 0.187500 0.687500
vt 0.250000 0.937500
vt 0.187500 0.875000
vt 0.250000 0.875000
vt 0.187500 0.812500
vt 0.250000 0.750000
vt 0.250000 0.812500
vt 0.250000 0.750000
vt 0.187500 0.812500
vt 0.187500 0.750000
vt 0.187500 0.625000
vt 0.250000 0.687500
vt 0.187500 0.687500
vt 0.250000 0.937500
vt 0.187500 0.875000
vt 0.250000 0.875000
vt 0.187500 0.812500
vt 0.250000 0.750000
vt 0.250000 0.812500
vt 0.250000 0.750000
vt 0.187500 0.812500
vt 0.187500 0.750000
vn 0.8165 0.5774 0.0000
vn -0.8165 0.5773 0.0000
vn 0.0000 0.7071 0.7071
vn 0.0000 0.7071 -0.7071
vn 0.9856 -0.1691 0.0000
vn -0.1691 0.9856 0.0000
vn 0.5000 0.5000 0.7071
vn 0.5000 0.5000 -0.7071
vn 0.1691 0.9856 0.0000
vn -0.9856 -0.1691 0.0000
vn -0.5000 0.5000 0.7071
vn -0.5000 0.5000 -0.7071
usemtl MAIN
s off
f 28/80/11 27/81/11 29/82/11
f 25/83/12 26/84/12 29/85/12
f 26/86/13 28/87/13 29/88/13
f 27/89/14 25/90/14 29/91/14
f 33/92/15 32/93/15 34/94/15
f 30/95/16 31/96/16 34/97/16
f 31/98/17 33/99/17 34/100/17
f 32/101/18 30/102/18 34/103/18
f 38/104/19 37/105/19 39/106/19
f 35/107/20 36/108/20 39/109/20
f 36/110/21 38/111/21 39/112/21
f 37/113/22 35/114/22 39/115/22
