# Blender v2.80 (sub 75) OBJ File: 'curios.blend'
# www.blender.org
mtllib ring_fortune_greater.mtl
o RING_BASE_SILVER_Cube.036
v 0.411612 0.000000 0.468750
v 0.411612 0.000000 0.531250
v 0.500000 0.088388 0.468750
v 0.500000 0.088388 0.531250
v 0.500000 -0.088388 0.468750
v 0.500000 -0.088388 0.531250
v 0.588388 0.000000 0.468750
v 0.588388 0.000000 0.531250
v 0.610485 -0.022097 0.531250
v 0.610485 -0.022097 0.468750
v 0.522097 -0.110485 0.468750
v 0.522097 -0.110485 0.531250
v 0.477903 0.110485 0.468750
v 0.389515 0.022097 0.468750
v 0.389515 0.022097 0.531250
v 0.477903 0.110485 0.531250
v 0.522097 0.110485 0.531250
v 0.522097 0.110485 0.468750
v 0.610485 0.022097 0.468750
v 0.610485 0.022097 0.531250
v 0.389515 -0.022097 0.468750
v 0.389515 -0.022097 0.531250
v 0.477903 -0.110485 0.531250
v 0.477903 -0.110485 0.468750
vt 0.062500 0.687500
vt 0.062500 0.812500
vt -0.000000 0.812500
vt -0.000000 0.687500
vt 0.000000 0.687500
vt 0.000000 0.812500
vt 0.062500 0.812500
vt 0.062500 0.687500
vt 0.062500 0.875000
vt 0.062500 0.937500
vt -0.000000 0.937500
vt -0.000000 0.875000
vt 0.000000 0.812500
vt -0.000000 0.687500
vt 0.062500 0.687500
vt 0.062500 0.812500
vt 0.000000 0.750000
vt 0.000000 0.687500
vt 0.062500 0.687500
vt 0.062500 0.750000
vt 0.000000 0.625000
vt 0.062500 0.625000
vt 0.000000 0.687500
vt 0.062500 0.750000
vt 0.000000 0.750000
vt 0.000000 0.875000
vt 0.062500 0.875000
vt 0.062500 0.812500
vt 0.062500 0.687500
vt 0.000000 0.687500
vt 0.000000 0.812500
vt 0.062500 0.687500
vt 0.062500 0.812500
vt 0.000000 0.812500
vt 0.000000 0.687500
vt 0.062500 0.625000
vt 0.000000 0.750000
vt 0.062500 0.750000
vt 0.062500 0.875000
vt 0.000000 0.875000
vt 0.062500 0.812500
vt 0.062500 0.687500
vt -0.000000 0.812500
vt 0.062500 0.625000
vt 0.000000 0.625000
vt 0.000000 0.687500
vt 0.062500 0.625000
vt 0.000000 0.750000
vt 0.062500 0.750000
vt 0.000000 0.812500
vt 0.000000 0.687500
vt 0.062500 0.687500
vt 0.062500 0.812500
vt 0.062500 0.937500
vt 0.062500 0.875000
vt 0.000000 0.875000
vt 0.062500 0.875000
vt 0.062500 0.937500
vt 0.062500 0.875000
vt 0.000000 0.875000
vt -0.000000 0.750000
vt 0.062500 0.750000
vt 0.062500 0.937500
vt 0.000000 0.875000
vt 0.000000 0.937500
vt 0.062500 0.937500
vt 0.000000 0.937500
vt -0.000000 0.687500
vt 0.000000 0.812500
vt 0.062500 0.812500
vt -0.000000 0.937500
vt 0.062500 0.750000
vt 0.062500 0.625000
vt -0.000000 0.625000
vt 0.000000 0.750000
vt 0.062500 0.750000
vt 0.062500 0.625000
vt 0.000000 0.750000
vt 0.062500 0.750000
vn -0.0000 0.0000 1.0000
vn 0.0000 0.0000 -1.0000
vn 0.0000 1.0000 0.0000
vn -1.0000 0.0000 0.0000
vn 0.7071 -0.7071 0.0000
vn -0.7071 0.7071 0.0000
vn 0.7071 0.7071 0.0000
vn -0.7071 -0.7071 0.0000
vn 0.0000 -1.0000 0.0000
vn 1.0000 0.0000 0.0000
usemtl MAIN
s off
f 2/1/1 4/2/1 16/3/1 15/4/1
f 7/5/2 3/6/2 18/7/2 19/8/2
f 18/9/3 13/10/3 16/11/3 17/12/3
f 6/13/1 2/14/1 22/15/1 23/16/1
f 15/17/4 14/18/4 21/19/4 22/20/4
f 8/21/1 9/22/1 20/23/1
f 10/24/5 9/25/5 12/26/5 11/27/5
f 5/28/2 7/29/2 10/30/2 11/31/2
f 8/32/1 6/33/1 12/34/1 9/35/1
f 2/1/1 15/4/1 22/36/1
f 14/37/6 15/38/6 16/39/6 13/40/6
f 3/41/2 1/42/2 14/18/2 13/43/2
f 14/18/2 1/42/2 21/44/2
f 7/45/2 19/46/2 10/47/2
f 18/9/7 17/12/7 20/48/7 19/49/7
f 4/50/1 8/51/1 20/52/1 17/53/1
f 18/54/2 3/55/2 13/40/2
f 16/56/1 4/57/1 17/58/1
f 24/59/8 23/60/8 22/61/8 21/62/8
f 11/63/2 24/64/2 5/65/2
f 23/60/1 12/66/1 6/67/1
f 1/68/2 5/69/2 24/70/2 21/19/2
f 24/64/9 11/27/9 12/66/9 23/71/9
f 10/30/10 19/8/10 20/72/10 9/25/10
f 1/73/7 2/74/7 6/75/7 5/76/7
f 5/76/6 6/75/6 8/21/6 7/77/6
f 7/77/8 8/21/8 4/78/8 3/79/8
f 3/79/5 4/78/5 2/74/5 1/73/5
o RING_DECO_FORTUNE3_Cube.042
v 0.477903 0.110485 0.468750
v 0.477903 0.110485 0.531250
v 0.522097 0.110485 0.531250
v 0.522097 0.110485 0.468750
v 0.468750 0.126110 0.468750
v 0.468750 0.126110 0.531250
v 0.531250 0.126110 0.468750
v 0.531250 0.126110 0.531250
v 0.531250 0.188610 0.468750
v 0.468750 0.188610 0.468750
v 0.468750 0.188610 0.531250
v 0.531250 0.188610 0.531250
v 0.500000 0.251110 0.500000
v 0.468750 0.157360 0.585377
v 0.500000 0.155267 0.550501
v 0.468750 0.126110 0.531250
v 0.531250 0.126110 0.531250
v 0.531250 0.157360 0.585377
v 0.500000 0.128204 0.566126
v 0.414623 0.157360 0.468750
v 0.449499 0.155267 0.500000
v 0.468750 0.126110 0.468750
v 0.468750 0.126110 0.531250
v 0.414623 0.157360 0.531250
v 0.433874 0.128204 0.500000
v 0.531250 0.126110 0.468750
v 0.468750 0.126110 0.468750
v 0.500000 0.155267 0.449499
v 0.468750 0.157360 0.414623
v 0.531250 0.157360 0.414623
v 0.500000 0.128204 0.433874
v 0.531250 0.126110 0.531250
v 0.531250 0.126110 0.468750
v 0.550501 0.155267 0.500000
v 0.585377 0.157360 0.468750
v 0.585377 0.157360 0.531250
v 0.566126 0.128204 0.500000
vt 0.687500 0.625000
vt 0.750000 0.625000
vt 0.750000 0.687500
vt 0.687500 0.687500
vt 0.062500 0.750000
vt 0.062500 0.812500
vt -0.000000 0.812500
vt -0.000000 0.750000
vt 0.062500 0.687500
vt 0.062500 0.750000
vt -0.000000 0.750000
vt -0.000000 0.687500
vt 0.062500 0.687500
vt 0.062500 0.750000
vt -0.000000 0.750000
vt -0.000000 0.687500
vt 0.062500 0.750000
vt 0.062500 0.812500
vt -0.000000 0.812500
vt -0.000000 0.750000
vt 0.687500 0.812500
vt 0.750000 0.812500
vt 0.687500 0.875000
vt 0.687500 0.625000
vt 0.750000 0.625000
vt 0.750000 0.687500
vt 0.687500 0.687500
vt 0.687500 0.687500
vt 0.750000 0.687500
vt 0.750000 0.750000
vt 0.687500 0.750000
vt 0.687500 0.562500
vt 0.750000 0.562500
vt 0.750000 0.625000
vt 0.687500 0.625000
vt 0.687500 0.687500
vt 0.750000 0.687500
vt 0.687500 0.750000
vt 0.687500 0.750000
vt 0.687500 0.812500
vt 0.687500 0.750000
vt 0.750000 0.750000
vt 0.000000 0.750000
vt 0.062500 0.687500
vt 0.000000 0.687500
vt 0.062500 0.812500
vt -0.000000 0.875000
vt -0.000000 0.812500
vt 0.062500 0.750000
vt 0.000000 0.687500
vt 0.062500 0.687500
vt -0.000000 0.562500
vt -0.000000 0.625000
vt 0.062500 0.562500
vt 0.062500 0.687500
vt -0.000000 0.750000
vt -0.000000 0.875000
vt 0.062500 0.812500
vt -0.000000 0.937500
vt -0.000000 1.000000
vt 0.062500 0.937500
vt 0.000000 0.875000
vt 0.000000 0.812500
vt 0.062500 0.812500
vt 0.000000 0.875000
vt 0.062500 0.812500
vt 0.000000 0.812500
vt 0.062500 0.687500
vt 0.000000 0.750000
vt -0.000000 0.687500
vt 0.062500 0.625000
vt 0.000000 0.562500
vt 0.062500 0.562500
vt -0.000000 0.687500
vt 0.062500 0.687500
vt 0.062500 0.812500
vt -0.000000 0.875000
vt 0.000000 1.000000
vt 0.062500 0.937500
vt 0.000000 0.937500
vt -0.000000 0.812500
vt 0.062500 0.812500
vt -0.000000 0.750000
vt -0.000000 0.687500
vt -0.000000 0.875000
vt 0.062500 0.812500
vt -0.000000 0.812500
vt -0.000000 0.687500
vt 0.062500 0.687500
vt -0.000000 0.750000
vt 0.000000 0.875000
vt 0.000000 0.812500
vt 0.062500 0.812500
vt 0.062500 0.937500
vt 0.000000 0.937500
vt 0.000000 1.000000
vt 0.000000 0.812500
vt 0.000000 0.875000
vt 0.062500 0.750000
vt 0.000000 0.687500
vt 0.062500 0.562500
vt -0.000000 0.562500
vt -0.000000 0.625000
vt -0.000000 0.750000
vt -0.000000 0.687500
vt 0.062500 0.687500
vt -0.000000 0.750000
vt 0.062500 0.687500
vt -0.000000 0.687500
vt -0.000000 0.812500
vt 0.062500 0.812500
vt -0.000000 0.875000
vt 0.000000 1.000000
vt 0.000000 0.937500
vt 0.062500 0.937500
vt 0.062500 0.812500
vt -0.000000 0.812500
vt -0.000000 0.687500
vt 0.000000 0.750000
vt 0.062500 0.625000
vt 0.062500 0.562500
vt 0.000000 0.562500
vt 0.062500 0.687500
vt -0.000000 0.687500
vt 0.000000 0.875000
vt 0.062500 0.812500
vn 1.0000 0.0000 0.0000
vn 0.0000 0.0000 1.0000
vn -0.8629 -0.5054 0.0000
vn 0.8629 -0.5054 0.0000
vn 0.0000 0.0000 -1.0000
vn 0.0000 0.4472 0.8944
vn -1.0000 0.0000 0.0000
vn 0.0000 0.4472 -0.8944
vn 0.8944 0.4472 0.0000
vn -0.8944 0.4472 0.0000
vn 0.4472 -0.7746 0.4472
vn 0.0000 -0.5510 0.8345
vn -0.4472 -0.7746 0.4472
vn 0.0000 -0.9982 0.0599
vn 0.0000 0.5510 -0.8345
vn 0.4472 0.7746 -0.4472
vn 0.0000 0.9982 -0.0599
vn -0.4472 0.7746 -0.4472
vn -0.8345 -0.5510 0.0000
vn -0.4472 -0.7746 -0.4472
vn -0.0599 -0.9982 0.0000
vn 0.8345 0.5510 0.0000
vn 0.4472 0.7746 0.4472
vn 0.0599 0.9982 0.0000
vn -0.4472 0.7746 0.4472
vn 0.0000 0.9982 0.0599
vn 0.0000 0.5510 0.8345
vn 0.0000 -0.9982 -0.0599
vn 0.0000 -0.5510 -0.8345
vn 0.4472 -0.7746 -0.4472
vn -0.0599 0.9982 0.0000
vn -0.8345 0.5510 0.0000
vn 0.0599 -0.9982 0.0000
vn 0.8345 -0.5510 0.0000
usemtl MAIN
s off
f 32/80/11 31/81/11 33/82/11 36/83/11
f 27/84/12 32/85/12 30/86/12 26/87/12
f 26/88/13 30/89/13 29/90/13 25/91/13
f 28/92/14 31/93/14 32/94/14 27/95/14
f 25/96/15 29/97/15 31/98/15 28/99/15
f 35/100/16 36/101/16 37/102/16
f 29/103/17 30/104/17 35/105/17 34/106/17
f 30/107/12 32/108/12 36/109/12 35/110/12
f 31/111/15 29/112/15 34/113/15 33/114/15
f 33/115/18 34/116/18 37/117/18
f 36/109/19 33/118/19 37/119/19
f 34/120/20 35/121/20 37/119/20
f 42/122/21 43/123/21 41/124/21
f 38/125/22 43/126/22 42/127/22
f 40/128/23 43/129/23 38/130/23
f 41/131/24 43/132/24 40/133/24
f 40/134/25 39/135/25 41/124/25
f 41/136/26 39/137/26 42/127/26
f 42/138/27 39/139/27 38/140/27
f 38/141/28 39/142/28 40/143/28
f 48/144/23 49/145/23 47/146/23
f 44/147/29 49/148/29 48/149/29
f 46/150/30 49/151/30 44/152/30
f 47/153/31 49/148/31 46/154/31
f 46/155/32 45/156/32 47/146/32
f 47/157/33 45/158/33 48/159/33
f 48/160/34 45/156/34 44/161/34
f 44/162/26 45/163/26 46/154/26
f 53/164/35 51/165/35 52/166/35
f 54/167/36 53/168/36 52/169/36
f 50/170/33 54/171/33 52/172/33
f 51/173/37 50/174/37 52/175/37
f 50/176/38 51/165/38 55/177/38
f 51/178/30 53/168/30 55/179/30
f 53/180/39 54/181/39 55/182/39
f 54/183/40 50/184/40 55/185/40
f 59/186/28 57/187/28 58/188/28
f 60/189/41 59/190/41 58/191/41
f 56/192/35 60/193/35 58/194/35
f 57/195/42 56/196/42 58/191/42
f 56/197/43 57/187/43 61/198/43
f 57/199/40 59/200/40 61/201/40
f 59/202/44 60/203/44 61/198/44
f 60/204/21 56/196/21 61/205/21
