# Blender v2.80 (sub 75) OBJ File: 'tables.blend'
# www.blender.org
mtllib table_corner_intersection.mtl
o CORNER_INTERSECTION_TABLE_LEGS_Cube.029
v 0.250000 0.500000 0.625000
v 0.250000 0.375000 0.625000
v 0.187500 0.500000 0.625000
v 0.187500 0.375000 0.625000
v 0.375000 0.375000 0.750000
v 0.375000 0.500000 0.750000
v 0.375000 0.375000 0.812500
v 0.375000 0.500000 0.812500
v 1.000000 0.500000 0.812500
v 1.000000 0.500000 0.750000
v 1.000000 0.375000 0.812500
v 1.000000 0.375000 0.750000
v 0.312500 0.000000 0.625000
v 0.312500 0.812500 0.625000
v 0.375000 0.000000 0.875000
v 0.375000 0.812500 0.875000
v 0.125000 0.000000 0.625000
v 0.125000 0.812500 0.625000
v 0.187500 0.000000 0.875000
v 0.187500 0.812500 0.875000
v 0.375000 0.000000 0.687500
v 0.375000 0.812500 0.687500
v 0.125000 0.000000 0.812500
v 0.125000 0.812500 0.812500
v 0.187500 0.375000 0.500000
v 0.250000 0.500000 0.500000
v 0.250000 0.375000 0.500000
v 0.187500 0.500000 0.500000
v 0.187500 0.375000 0.000000
v 0.250000 0.375000 0.000000
v 0.187500 0.500000 0.000000
v 0.250000 0.500000 0.000000
v 0.500000 0.500000 0.750000
v 0.500000 0.375000 0.812500
v 0.500000 0.500000 0.812500
v 0.500000 0.375000 0.750000
v 0.875000 0.000000 0.312500
v 0.875000 0.812500 0.312500
v 0.625000 0.000000 0.375000
v 0.625000 0.812500 0.375000
v 0.875000 0.000000 0.125000
v 0.875000 0.812500 0.125000
v 0.625000 0.000000 0.187500
v 0.625000 0.812500 0.187500
v 0.812500 0.000000 0.375000
v 0.812500 0.812500 0.375000
v 0.687500 0.000000 0.125000
v 0.687500 0.812500 0.125000
v 1.000000 0.375000 0.250000
v 1.000000 0.500000 0.250000
v 1.000000 0.375000 0.187500
v 1.000000 0.500000 0.187500
v 0.875000 0.500000 0.250000
v 0.875000 0.375000 0.187500
v 0.875000 0.500000 0.187500
v 0.875000 0.375000 0.250000
v 0.812500 0.375000 0.000000
v 0.812500 0.500000 0.000000
v 0.750000 0.375000 0.000000
v 0.750000 0.500000 0.000000
v 0.812500 0.500000 0.125000
v 0.750000 0.375000 0.125000
v 0.750000 0.500000 0.125000
v 0.812500 0.375000 0.125000
vt 0.500000 0.500000
vt 0.500000 0.625000
vt 0.562500 0.625000
vt 0.562500 0.500000
vt 0.437500 0.750000
vt 0.437500 0.875000
vt 0.562500 0.875000
vt 0.562500 0.750000
vt 0.562500 0.750000
vt 0.562500 0.875000
vt 0.437500 0.875000
vt 0.437500 0.750000
vt 0.562500 0.500000
vt 0.562500 0.625000
vt 0.500000 0.625000
vt 0.500000 0.500000
vt 0.312500 0.750000
vt 0.250000 0.750000
vt 0.250000 0.250000
vt 0.312500 0.250000
vt 0.453125 0.015625
vt 0.484375 0.046875
vt 0.460938 0.046875
vt 0.453125 0.039062
vt 0.187500 0.000000
vt 0.187500 0.812500
vt 0.000000 0.812500
vt 0.000000 0.000000
vt 0.000000 0.000000
vt 0.000000 0.812500
vt 0.187500 0.812500
vt 0.187500 0.000000
vt 0.437500 0.000000
vt 0.437500 0.812500
vt 0.250000 0.812500
vt 0.250000 0.000000
vt 0.250000 0.000000
vt 0.250000 0.812500
vt 0.437500 0.812500
vt 0.437500 0.000000
vt 0.000000 0.687500
vt 0.125000 0.687500
vt 0.125000 0.187500
vt 0.000000 0.187500
vt 0.250000 0.750000
vt 0.312500 0.750000
vt 0.312500 0.250000
vt 0.250000 0.250000
vt 0.250000 0.000000
vt 0.250000 0.812500
vt 0.125000 0.687500
vt 0.000000 0.687500
vt 0.000000 0.187500
vt 0.125000 0.187500
vt 0.476562 0.015625
vt 0.484375 0.023437
vt 0.187500 0.812500
vt 0.187500 0.000000
vt 0.125000 0.687500
vt 0.000000 0.687500
vt 0.000000 0.187500
vt 0.125000 0.187500
vt 0.250000 0.750000
vt 0.312500 0.750000
vt 0.312500 0.250000
vt 0.250000 0.250000
vt 0.000000 0.687500
vt 0.125000 0.687500
vt 0.125000 0.187500
vt 0.000000 0.187500
vt 0.312500 0.750000
vt 0.250000 0.750000
vt 0.250000 0.250000
vt 0.312500 0.250000
vt 0.562500 0.500000
vt 0.562500 0.625000
vt 0.500000 0.625000
vt 0.500000 0.500000
vt 0.562500 0.750000
vt 0.562500 0.875000
vt 0.437500 0.875000
vt 0.437500 0.750000
vt 0.437500 0.750000
vt 0.437500 0.875000
vt 0.562500 0.875000
vt 0.562500 0.750000
vt 0.500000 0.500000
vt 0.500000 0.625000
vt 0.562500 0.625000
vt 0.562500 0.500000
vt 0.453125 0.015625
vt 0.484375 0.046875
vt 0.460938 0.046875
vt 0.453125 0.039062
vt 0.187500 0.000000
vt 0.187500 0.812500
vt 0.000000 0.812500
vt 0.000000 0.000000
vt 0.000000 0.000000
vt 0.000000 0.812500
vt 0.187500 0.812500
vt 0.187500 0.000000
vt 0.437500 0.000000
vt 0.437500 0.812500
vt 0.250000 0.812500
vt 0.250000 0.000000
vt 0.250000 0.000000
vt 0.250000 0.812500
vt 0.437500 0.812500
vt 0.437500 0.000000
vt 0.250000 0.000000
vt 0.250000 0.812500
vt 0.476562 0.015625
vt 0.484375 0.023437
vt 0.187500 0.812500
vt 0.187500 0.000000
vt 0.312500 0.625000
vt 0.312500 0.750000
vt 0.250000 0.750000
vt 0.250000 0.625000
vt 0.125000 0.562500
vt 0.125000 0.687500
vt 0.000000 0.687500
vt 0.000000 0.562500
vt 0.000000 0.562500
vt 0.000000 0.687500
vt 0.125000 0.687500
vt 0.125000 0.562500
vt 0.250000 0.625000
vt 0.250000 0.750000
vt 0.312500 0.750000
vt 0.312500 0.625000
vt 0.312500 0.625000
vt 0.312500 0.750000
vt 0.250000 0.750000
vt 0.250000 0.625000
vt 0.125000 0.562500
vt 0.125000 0.687500
vt 0.000000 0.687500
vt 0.000000 0.562500
vt 0.000000 0.562500
vt 0.000000 0.687500
vt 0.125000 0.687500
vt 0.125000 0.562500
vt 0.250000 0.625000
vt 0.250000 0.750000
vt 0.312500 0.750000
vt 0.312500 0.625000
vn 0.0000 1.0000 0.0000
vn 1.0000 0.0000 0.0000
vn -1.0000 0.0000 0.0000
vn 0.0000 -1.0000 0.0000
vn 0.0000 0.0000 1.0000
vn 0.0000 0.0000 -1.0000
vn -0.7071 -0.0000 0.7071
vn 0.7071 0.0000 -0.7071
vn -0.7071 -0.0000 -0.7071
vn 0.7071 0.0000 0.7071
usemtl MAIN
s off
f 1/1/1 26/2/1 28/3/1 3/4/1
f 2/5/2 27/6/2 26/7/2 1/8/2
f 3/9/3 28/10/3 25/11/3 4/12/3
f 4/13/4 25/14/4 27/15/4 2/16/4
f 29/17/4 30/18/4 27/19/4 25/20/4
f 17/21/4 15/22/4 19/23/4 23/24/4
f 23/25/3 24/26/3 18/27/3 17/28/3
f 15/29/5 16/30/5 20/31/5 19/32/5
f 17/33/6 18/34/6 14/35/6 13/36/6
f 21/37/2 22/38/2 16/39/2 15/40/2
f 30/41/2 32/42/2 26/43/2 27/44/2
f 32/45/1 31/46/1 28/47/1 26/48/1
f 19/49/7 20/50/7 24/26/7 23/25/7
f 31/51/3 29/52/3 25/53/3 28/54/3
f 13/55/4 21/56/4 15/22/4 17/21/4
f 13/36/8 14/35/8 22/57/8 21/58/8
f 10/59/6 12/60/6 36/61/6 33/62/6
f 9/63/1 10/64/1 33/65/1 35/66/1
f 11/67/5 9/68/5 35/69/5 34/70/5
f 12/71/4 11/72/4 34/73/4 36/74/4
f 5/75/4 36/76/4 34/77/4 7/78/4
f 6/79/6 33/80/6 36/81/6 5/82/6
f 7/83/5 34/84/5 35/85/5 8/86/5
f 8/87/1 35/88/1 33/89/1 6/90/1
f 41/91/4 39/92/4 43/93/4 47/94/4
f 47/95/6 48/96/6 42/97/6 41/98/6
f 39/99/3 40/100/3 44/101/3 43/102/3
f 41/103/2 42/104/2 38/105/2 37/106/2
f 45/107/5 46/108/5 40/109/5 39/110/5
f 43/111/9 44/112/9 48/96/9 47/95/9
f 37/113/4 45/114/4 39/92/4 41/91/4
f 37/106/10 38/105/10 46/115/10 45/116/10
f 49/117/4 56/118/4 54/119/4 51/120/4
f 50/121/5 53/122/5 56/123/5 49/124/5
f 51/125/6 54/126/6 55/127/6 52/128/6
f 52/129/1 55/130/1 53/131/1 50/132/1
f 57/133/4 64/134/4 62/135/4 59/136/4
f 58/137/2 61/138/2 64/139/2 57/140/2
f 59/141/3 62/142/3 63/143/3 60/144/3
f 60/145/1 63/146/1 61/147/1 58/148/1
o CORNER_INTERSECTION_TABLE_TOP_Cube.030
v 0.125000 0.812500 0.937500
v 0.125000 1.000000 0.937500
v 0.062500 0.812500 0.250000
v 0.500000 0.812500 0.250000
v 0.062500 0.812500 0.500000
v 0.062500 1.000000 0.500000
v 0.750000 1.000000 0.000000
v 0.062500 0.812500 0.875000
v 0.062500 1.000000 0.875000
v 1.000000 1.000000 0.937500
v 1.000000 1.000000 0.062500
v 0.500000 1.000000 0.000000
v 0.500000 0.812500 0.000000
v 1.000000 1.000000 0.500000
v 0.500000 0.812500 0.937500
v 1.000000 0.812500 0.937500
v 1.000000 0.812500 0.500000
v 0.500000 1.000000 0.937500
v 0.500000 1.000000 0.500000
v 0.500000 0.812500 0.500000
v 0.750000 0.812500 0.937500
v 0.750000 1.000000 0.937500
v 0.750000 0.812500 0.500000
v 0.062500 0.812500 0.000000
v 0.062500 1.000000 0.000000
v 0.750000 1.000000 0.500000
v 0.750000 1.000000 0.250000
v 1.000000 1.000000 0.250000
v 0.062500 1.000000 0.250000
v 0.500000 1.000000 0.250000
v 0.750000 0.812500 0.250000
v 0.937500 1.000000 0.000000
v 0.812500 1.000000 0.000000
v 0.812500 1.000000 0.187500
v 1.000000 1.000000 0.187500
v 0.750000 0.812500 0.000000
v 1.000000 0.812500 0.062500
v 1.000000 0.812500 0.250000
v 0.937500 0.812500 0.000000
v 0.812500 0.812500 0.000000
v 0.812500 0.812500 0.187500
v 1.000000 0.812500 0.187500
vt 1.000000 0.562500
vt 0.625000 1.000000
vt 0.562500 0.937500
vt 0.562500 0.562500
vt 0.562500 0.937500
vt 1.000000 0.562500
vt 0.437500 0.812500
vt 0.437500 1.000000
vt 0.375000 1.000000
vt 0.375000 0.812500
vt 0.000000 1.000000
vt 0.000000 0.812500
vt 1.000000 1.000000
vt 0.750000 1.000000
vt 0.750000 0.562500
vt 1.000000 0.812500
vt 0.750000 0.812500
vt 0.750000 0.562500
vt 1.000000 1.000000
vt 0.750000 1.000000
vt 0.625000 1.000000
vt 1.000000 0.562500
vt 0.750000 0.562500
vt 0.750000 0.812500
vt 1.000000 0.812500
vt 0.187500 0.812500
vt 0.187500 1.000000
vt 0.437500 1.000000
vt 0.437500 0.812500
vt 1.000000 0.812500
vt 1.000000 0.562500
vt 0.750000 0.562500
vt 0.750000 1.000000
vt 1.000000 1.000000
vt 1.000000 1.000000
vt 0.562500 0.562500
vt 1.000000 1.000000
vt 1.000000 0.812500
vt 1.000000 0.562500
vt 0.750000 1.000000
vt 1.000000 1.000000
vt 1.000000 0.562500
vt 0.750000 0.562500
vt 0.000000 1.000000
vt 0.375000 1.000000
vt 0.375000 0.812500
vt 0.000000 0.812500
vt 1.000000 1.000000
vt 1.000000 1.000000
vt 0.187500 1.000000
vt 0.187500 0.812500
vt 0.437500 0.812500
vt 0.437500 1.000000
vt 0.250000 0.812500
vt 0.250000 1.000000
vt 1.000000 0.812500
vt 0.250000 1.000000
vt 0.250000 0.812500
vt 0.812500 0.750000
vt 0.750000 0.750000
vt 0.750000 0.562500
vt 0.812500 0.562500
vt 0.625000 0.937500
vt 0.750000 0.750000
vt 0.625000 0.750000
vt 1.000000 0.812500
vt 1.000000 0.750000
vt 0.812500 0.750000
vt 1.000000 0.750000
vt 1.000000 0.750000
vt 0.812500 0.750000
vt 1.000000 0.750000
vt 0.625000 0.937500
vt 0.625000 0.750000
vt 0.812500 0.812500
vt 0.812500 0.937500
vt 0.812500 0.937500
vt 0.812500 0.812500
vn 0.0000 1.0000 0.0000
vn 0.0000 -1.0000 0.0000
vn -0.7071 0.0000 0.7071
vn -1.0000 0.0000 0.0000
vn 0.0000 0.0000 1.0000
vn 0.7071 0.0000 -0.7071
usemtl MAIN
s off
f 83/149/11 73/150/11 66/151/11
f 79/152/12 65/153/12 84/154/12
f 65/155/13 66/156/13 73/157/13 72/158/13
f 73/157/14 70/159/14 69/160/14 72/158/14
f 84/154/12 69/161/12 67/162/12 68/163/12
f 83/149/11 90/164/11 91/165/11 94/166/11
f 70/167/11 83/149/11 94/166/11 93/168/11
f 65/153/12 72/169/12 84/154/12
f 81/170/12 87/171/12 95/172/12 102/173/12
f 67/174/14 93/175/14 89/176/14 88/177/14
f 95/172/12 68/178/12 77/179/12 100/180/12
f 70/167/11 73/150/11 83/149/11
f 84/154/12 87/171/12 85/181/12 79/182/12
f 87/171/12 81/170/12 80/183/12 85/181/12
f 83/149/11 66/151/11 82/184/11
f 84/154/12 72/169/12 69/161/12
f 68/163/12 67/162/12 88/185/12 77/179/12
f 94/166/11 91/165/11 71/186/11 76/187/11
f 86/188/11 74/189/11 78/190/11 90/191/11
f 82/192/15 66/193/15 65/194/15 79/195/15
f 82/196/11 86/188/11 90/191/11 83/149/11
f 93/168/11 94/166/11 76/187/11 89/197/11
f 86/198/15 85/199/15 80/200/15 74/201/15
f 82/192/15 79/195/15 85/202/15 86/203/15
f 90/191/11 78/190/11 92/204/11 91/165/11
f 87/171/12 84/154/12 68/178/12 95/172/12
f 69/160/14 70/159/14 93/205/14 67/206/14
f 96/207/16 75/208/16 101/209/16 103/210/16
f 105/211/12 101/212/12 106/213/12
f 100/214/12 104/215/12 105/216/12 95/172/12
f 95/172/12 105/216/12 106/217/12 102/173/12
f 91/165/11 92/204/11 99/218/11 98/219/11
f 71/186/11 91/165/11 98/219/11 97/220/11
f 98/221/11 99/222/11 75/208/11
f 98/221/11 96/223/11 97/224/11
f 96/223/11 98/221/11 75/208/11
f 105/211/12 104/225/12 103/226/12
f 103/226/12 101/212/12 105/211/12
