# Blender v2.80 (sub 75) OBJ File: 'tables.blend'
# www.blender.org
mtllib table_cross_intersection.mtl
o CROSS_INTERSECTION_CORNER_TABLE_Cube.017
v 0.125000 0.000000 0.687500
v 0.125000 0.812500 0.687500
v 0.375000 0.000000 0.625000
v 0.375000 0.812500 0.625000
v 0.875000 0.000000 0.687500
v 0.875000 0.812500 0.687500
v 0.625000 0.000000 0.625000
v 0.625000 0.812500 0.625000
v 0.875000 0.000000 0.875000
v 0.875000 0.812500 0.875000
v 0.625000 0.000000 0.812500
v 0.625000 0.812500 0.812500
v 0.812500 0.000000 0.625000
v 0.812500 0.812500 0.625000
v 0.687500 0.000000 0.875000
v 0.687500 0.812500 0.875000
v 1.000000 0.375000 0.750000
v 1.000000 0.500000 0.750000
v 1.000000 0.375000 0.812500
v 1.000000 0.500000 0.812500
v 0.125000 0.000000 0.875000
v 0.125000 0.812500 0.875000
v 0.375000 0.000000 0.812500
v 0.375000 0.812500 0.812500
v 0.187500 0.000000 0.625000
v 0.187500 0.812500 0.625000
v 0.312500 0.000000 0.875000
v 0.312500 0.812500 0.875000
v 0.875000 0.500000 0.750000
v 0.875000 0.375000 0.812500
v 0.875000 0.500000 0.812500
v 0.875000 0.375000 0.750000
v 0.875000 0.000000 0.312500
v 0.875000 0.812500 0.312500
v 0.625000 0.000000 0.375000
v 0.625000 0.812500 0.375000
v 0.875000 0.000000 0.125000
v 0.875000 0.812500 0.125000
v 0.625000 0.000000 0.187500
v 0.625000 0.812500 0.187500
v 0.812500 0.000000 0.375000
v 0.812500 0.812500 0.375000
v 0.687500 0.000000 0.125000
v 0.687500 0.812500 0.125000
v 1.000000 0.375000 0.250000
v 1.000000 0.500000 0.250000
v 1.000000 0.375000 0.187500
v 1.000000 0.500000 0.187500
v 0.875000 0.500000 0.250000
v 0.875000 0.375000 0.187500
v 0.875000 0.500000 0.187500
v 0.875000 0.375000 0.250000
v 0.812500 0.375000 0.000000
v 0.812500 0.500000 0.000000
v 0.750000 0.375000 0.000000
v 0.750000 0.500000 0.000000
v 0.812500 0.500000 0.125000
v 0.750000 0.375000 0.125000
v 0.750000 0.500000 0.125000
v 0.812500 0.375000 0.125000
v 0.812500 0.375000 1.000000
v 0.812500 0.500000 1.000000
v 0.750000 0.375000 1.000000
v 0.750000 0.500000 1.000000
v 0.812500 0.500000 0.875000
v 0.750000 0.375000 0.875000
v 0.750000 0.500000 0.875000
v 0.812500 0.375000 0.875000
v 0.000000 0.375000 0.750000
v 0.000000 0.500000 0.750000
v 0.000000 0.375000 0.812500
v 0.000000 0.500000 0.812500
v 0.125000 0.500000 0.750000
v 0.125000 0.375000 0.812500
v 0.125000 0.500000 0.812500
v 0.125000 0.375000 0.750000
v 0.125000 0.000000 0.312500
v 0.125000 0.812500 0.312500
v 0.375000 0.000000 0.375000
v 0.375000 0.812500 0.375000
v 0.125000 0.000000 0.125000
v 0.125000 0.812500 0.125000
v 0.375000 0.000000 0.187500
v 0.375000 0.812500 0.187500
v 0.187500 0.000000 0.375000
v 0.187500 0.812500 0.375000
v 0.312500 0.000000 0.125000
v 0.312500 0.812500 0.125000
v 0.000000 0.375000 0.250000
v 0.000000 0.500000 0.250000
v 0.000000 0.375000 0.187500
v 0.000000 0.500000 0.187500
v 0.125000 0.500000 0.250000
v 0.125000 0.375000 0.187500
v 0.125000 0.500000 0.187500
v 0.125000 0.375000 0.250000
v 0.187500 0.375000 0.000000
v 0.187500 0.500000 0.000000
v 0.250000 0.375000 0.000000
v 0.250000 0.500000 0.000000
v 0.187500 0.500000 0.125000
v 0.250000 0.375000 0.125000
v 0.250000 0.500000 0.125000
v 0.187500 0.375000 0.125000
v 0.187500 0.375000 1.000000
v 0.187500 0.500000 1.000000
v 0.250000 0.375000 1.000000
v 0.250000 0.500000 1.000000
v 0.187500 0.500000 0.875000
v 0.250000 0.375000 0.875000
v 0.250000 0.500000 0.875000
v 0.187500 0.375000 0.875000
vt 0.476562 0.015625
vt 0.484375 0.023437
vt 0.484375 0.046875
vt 0.453125 0.015625
vt 0.250000 0.000000
vt 0.250000 0.812500
vt 0.187500 0.812500
vt 0.187500 0.000000
vt 0.460938 0.046875
vt 0.453125 0.039062
vt 0.000000 0.812500
vt 0.000000 0.000000
vt 0.250000 0.000000
vt 0.250000 0.812500
vt 0.437500 0.812500
vt 0.437500 0.000000
vt 0.250000 0.000000
vt 0.187500 0.000000
vt 0.187500 0.812500
vt 0.250000 0.812500
vt 0.476562 0.015625
vt 0.453125 0.015625
vt 0.484375 0.046875
vt 0.484375 0.023437
vt 0.000000 0.000000
vt 0.000000 0.812500
vt 0.453125 0.039062
vt 0.460938 0.046875
vt 0.250000 0.000000
vt 0.437500 0.000000
vt 0.437500 0.812500
vt 0.250000 0.812500
vt 0.000000 0.000000
vt 0.000000 0.812500
vt 0.187500 0.812500
vt 0.187500 0.000000
vt 0.437500 0.000000
vt 0.437500 0.812500
vt 0.250000 0.812500
vt 0.250000 0.000000
vt 0.250000 0.000000
vt 0.187500 0.000000
vt 0.187500 0.812500
vt 0.250000 0.812500
vt 0.187500 0.812500
vt 0.187500 0.000000
vt 0.000000 0.000000
vt 0.187500 0.000000
vt 0.187500 0.812500
vt 0.000000 0.812500
vt 0.437500 0.000000
vt 0.437500 0.812500
vt 0.000000 0.562500
vt 0.125000 0.562500
vt 0.125000 0.687500
vt 0.000000 0.687500
vt 0.312500 0.625000
vt 0.250000 0.625000
vt 0.250000 0.750000
vt 0.312500 0.750000
vt 0.125000 0.562500
vt 0.000000 0.562500
vt 0.000000 0.687500
vt 0.125000 0.687500
vt 0.250000 0.625000
vt 0.312500 0.625000
vt 0.312500 0.750000
vt 0.250000 0.750000
vt 0.312500 0.625000
vt 0.250000 0.625000
vt 0.250000 0.750000
vt 0.312500 0.750000
vt 0.125000 0.562500
vt 0.000000 0.562500
vt 0.000000 0.687500
vt 0.125000 0.687500
vt 0.000000 0.562500
vt 0.125000 0.562500
vt 0.125000 0.687500
vt 0.000000 0.687500
vt 0.250000 0.625000
vt 0.312500 0.625000
vt 0.312500 0.750000
vt 0.250000 0.750000
vt 0.453125 0.015625
vt 0.484375 0.046875
vt 0.460938 0.046875
vt 0.453125 0.039062
vt 0.187500 0.000000
vt 0.187500 0.812500
vt 0.000000 0.812500
vt 0.000000 0.000000
vt 0.000000 0.000000
vt 0.000000 0.812500
vt 0.187500 0.812500
vt 0.187500 0.000000
vt 0.437500 0.000000
vt 0.437500 0.812500
vt 0.250000 0.812500
vt 0.250000 0.000000
vt 0.250000 0.000000
vt 0.250000 0.812500
vt 0.437500 0.812500
vt 0.437500 0.000000
vt 0.250000 0.000000
vt 0.250000 0.812500
vt 0.476562 0.015625
vt 0.484375 0.023437
vt 0.187500 0.812500
vt 0.187500 0.000000
vt 0.312500 0.625000
vt 0.312500 0.750000
vt 0.250000 0.750000
vt 0.250000 0.625000
vt 0.125000 0.562500
vt 0.125000 0.687500
vt 0.000000 0.687500
vt 0.000000 0.562500
vt 0.000000 0.562500
vt 0.000000 0.687500
vt 0.125000 0.687500
vt 0.125000 0.562500
vt 0.250000 0.625000
vt 0.250000 0.750000
vt 0.312500 0.750000
vt 0.312500 0.625000
vt 0.312500 0.625000
vt 0.312500 0.750000
vt 0.250000 0.750000
vt 0.250000 0.625000
vt 0.125000 0.562500
vt 0.125000 0.687500
vt 0.000000 0.687500
vt 0.000000 0.562500
vt 0.000000 0.562500
vt 0.000000 0.687500
vt 0.125000 0.687500
vt 0.125000 0.562500
vt 0.250000 0.625000
vt 0.250000 0.750000
vt 0.312500 0.750000
vt 0.312500 0.625000
vt 0.000000 0.562500
vt 0.000000 0.687500
vt 0.125000 0.687500
vt 0.125000 0.562500
vt 0.312500 0.625000
vt 0.312500 0.750000
vt 0.250000 0.750000
vt 0.250000 0.625000
vt 0.125000 0.562500
vt 0.125000 0.687500
vt 0.000000 0.687500
vt 0.000000 0.562500
vt 0.250000 0.625000
vt 0.250000 0.750000
vt 0.312500 0.750000
vt 0.312500 0.625000
vt 0.312500 0.625000
vt 0.312500 0.750000
vt 0.250000 0.750000
vt 0.250000 0.625000
vt 0.125000 0.562500
vt 0.125000 0.687500
vt 0.000000 0.687500
vt 0.000000 0.562500
vt 0.000000 0.562500
vt 0.000000 0.687500
vt 0.125000 0.687500
vt 0.125000 0.562500
vt 0.250000 0.625000
vt 0.250000 0.750000
vt 0.312500 0.750000
vt 0.312500 0.625000
vt 0.453125 0.015625
vt 0.453125 0.039062
vt 0.460938 0.046875
vt 0.484375 0.046875
vt 0.187500 0.000000
vt 0.000000 0.000000
vt 0.000000 0.812500
vt 0.187500 0.812500
vt 0.000000 0.000000
vt 0.187500 0.000000
vt 0.187500 0.812500
vt 0.000000 0.812500
vt 0.437500 0.000000
vt 0.250000 0.000000
vt 0.250000 0.812500
vt 0.437500 0.812500
vt 0.250000 0.000000
vt 0.437500 0.000000
vt 0.437500 0.812500
vt 0.250000 0.812500
vt 0.250000 0.000000
vt 0.250000 0.812500
vt 0.476562 0.015625
vt 0.484375 0.023437
vt 0.187500 0.000000
vt 0.187500 0.812500
vt 0.312500 0.625000
vt 0.250000 0.625000
vt 0.250000 0.750000
vt 0.312500 0.750000
vt 0.125000 0.562500
vt 0.000000 0.562500
vt 0.000000 0.687500
vt 0.125000 0.687500
vt 0.000000 0.562500
vt 0.125000 0.562500
vt 0.125000 0.687500
vt 0.000000 0.687500
vt 0.250000 0.625000
vt 0.312500 0.625000
vt 0.312500 0.750000
vt 0.250000 0.750000
vt 0.312500 0.625000
vt 0.250000 0.625000
vt 0.250000 0.750000
vt 0.312500 0.750000
vt 0.125000 0.562500
vt 0.000000 0.562500
vt 0.000000 0.687500
vt 0.125000 0.687500
vt 0.000000 0.562500
vt 0.125000 0.562500
vt 0.125000 0.687500
vt 0.000000 0.687500
vt 0.250000 0.625000
vt 0.312500 0.625000
vt 0.312500 0.750000
vt 0.250000 0.750000
vn 0.0000 -1.0000 0.0000
vn 0.7071 -0.0000 0.7071
vn 0.0000 0.0000 1.0000
vn 0.0000 0.0000 -1.0000
vn -0.7071 -0.0000 0.7071
vn 1.0000 0.0000 0.0000
vn -1.0000 0.0000 0.0000
vn 0.7071 0.0000 -0.7071
vn -0.7071 0.0000 -0.7071
vn 0.0000 1.0000 0.0000
usemtl MAIN
s off
f 1/1/1 25/2/1 3/3/1 21/4/1
f 23/5/2 24/6/2 28/7/2 27/8/2
f 21/4/1 3/3/1 23/9/1 27/10/1
f 27/8/3 28/7/3 22/11/3 21/12/3
f 25/13/4 26/14/4 4/15/4 3/16/4
f 11/17/5 15/18/5 16/19/5 12/20/5
f 5/21/1 9/22/1 7/23/1 13/24/1
f 15/18/3 9/25/3 10/26/3 16/19/3
f 9/22/1 15/27/1 11/28/1 7/23/1
f 13/29/4 7/30/4 8/31/4 14/32/4
f 3/33/6 4/34/6 24/35/6 23/36/6
f 21/37/7 22/38/7 2/39/7 1/40/7
f 5/41/8 13/42/8 14/43/8 6/44/8
f 1/40/9 2/39/9 26/45/9 25/46/9
f 7/47/7 11/48/7 12/49/7 8/50/7
f 9/51/6 5/41/6 6/44/6 10/52/6
f 63/53/7 64/54/7 67/55/7 66/56/7
f 17/57/1 19/58/1 30/59/1 32/60/1
f 18/61/4 17/62/4 32/63/4 29/64/4
f 64/65/10 62/66/10 65/67/10 67/68/10
f 61/69/1 63/70/1 66/71/1 68/72/1
f 62/73/6 61/74/6 68/75/6 65/76/6
f 19/77/3 20/78/3 31/79/3 30/80/3
f 20/81/10 18/82/10 29/83/10 31/84/10
f 37/85/1 35/86/1 39/87/1 43/88/1
f 43/89/4 44/90/4 38/91/4 37/92/4
f 35/93/7 36/94/7 40/95/7 39/96/7
f 37/97/6 38/98/6 34/99/6 33/100/6
f 41/101/3 42/102/3 36/103/3 35/104/3
f 39/105/9 40/106/9 44/90/9 43/89/9
f 33/107/1 41/108/1 35/86/1 37/85/1
f 33/100/2 34/99/2 42/109/2 41/110/2
f 45/111/1 52/112/1 50/113/1 47/114/1
f 46/115/3 49/116/3 52/117/3 45/118/3
f 47/119/4 50/120/4 51/121/4 48/122/4
f 48/123/10 51/124/10 49/125/10 46/126/10
f 53/127/1 60/128/1 58/129/1 55/130/1
f 54/131/6 57/132/6 60/133/6 53/134/6
f 55/135/7 58/136/7 59/137/7 56/138/7
f 56/139/10 59/140/10 57/141/10 54/142/10
f 107/143/6 110/144/6 111/145/6 108/146/6
f 69/147/1 76/148/1 74/149/1 71/150/1
f 70/151/4 73/152/4 76/153/4 69/154/4
f 108/155/10 111/156/10 109/157/10 106/158/10
f 105/159/1 112/160/1 110/161/1 107/162/1
f 106/163/7 109/164/7 112/165/7 105/166/7
f 71/167/3 74/168/3 75/169/3 72/170/3
f 72/171/10 75/172/10 73/173/10 70/174/10
f 81/175/1 87/176/1 83/177/1 79/178/1
f 87/179/4 81/180/4 82/181/4 88/182/4
f 79/183/6 83/184/6 84/185/6 80/186/6
f 81/187/7 77/188/7 78/189/7 82/190/7
f 85/191/3 79/192/3 80/193/3 86/194/3
f 83/195/8 87/179/8 88/182/8 84/196/8
f 77/197/1 81/175/1 79/178/1 85/198/1
f 77/188/5 85/199/5 86/200/5 78/189/5
f 89/201/1 91/202/1 94/203/1 96/204/1
f 90/205/3 89/206/3 96/207/3 93/208/3
f 91/209/4 92/210/4 95/211/4 94/212/4
f 92/213/10 90/214/10 93/215/10 95/216/10
f 97/217/1 99/218/1 102/219/1 104/220/1
f 98/221/7 97/222/7 104/223/7 101/224/7
f 99/225/6 100/226/6 103/227/6 102/228/6
f 100/229/10 98/230/10 101/231/10 103/232/10
o CROSS_INTERSECTION_CORNER_TABLE_TOP_Cube.018
v 0.812500 0.812500 0.812500
v 0.250000 1.000000 1.000000
v 0.812500 0.812500 1.000000
v 0.500000 0.812500 0.250000
v 0.187500 0.812500 0.000000
v 0.750000 1.000000 0.000000
v 0.187500 0.812500 0.187500
v 1.000000 1.000000 0.062500
v 1.000000 1.000000 0.500000
v 0.000000 0.812500 0.187500
v 0.000000 0.812500 0.062500
v 1.000000 0.812500 0.500000
v 0.250000 0.812500 0.000000
v 0.500000 0.812500 0.500000
v 0.750000 0.812500 0.500000
v 0.062500 0.812500 0.000000
v 0.000000 0.812500 0.250000
v 0.750000 1.000000 0.500000
v 0.750000 1.000000 0.250000
v 1.000000 1.000000 0.250000
v 0.187500 1.000000 0.000000
v 0.500000 1.000000 0.250000
v 0.750000 0.812500 0.250000
v 0.937500 1.000000 0.000000
v 0.812500 1.000000 0.000000
v 0.812500 1.000000 0.187500
v 1.000000 1.000000 0.187500
v 0.750000 0.812500 0.000000
v 1.000000 0.812500 0.062500
v 1.000000 0.812500 0.250000
v 0.937500 0.812500 0.000000
v 0.812500 0.812500 0.000000
v 0.812500 0.812500 0.187500
v 1.000000 0.812500 0.187500
v 0.187500 1.000000 0.187500
v 0.000000 1.000000 0.187500
v 0.000000 1.000000 0.062500
v 0.250000 0.812500 0.250000
v 0.250000 1.000000 0.000000
v 0.250000 1.000000 0.250000
v 0.500000 0.812500 0.000000
v 0.500000 1.000000 0.000000
v 0.062500 1.000000 0.000000
v 0.000000 1.000000 0.250000
v 0.000000 1.000000 0.937500
v 0.500000 1.000000 1.000000
v 0.500000 0.812500 1.000000
v 0.000000 1.000000 0.500000
v 1.000000 0.812500 0.812500
v 1.000000 0.812500 0.937500
v 0.000000 0.812500 0.500000
v 0.750000 0.812500 1.000000
v 0.500000 1.000000 0.500000
v 0.250000 0.812500 0.500000
v 0.937500 0.812500 1.000000
v 1.000000 0.812500 0.750000
v 0.250000 1.000000 0.500000
v 0.250000 1.000000 0.750000
v 0.000000 1.000000 0.750000
v 0.812500 1.000000 1.000000
v 0.250000 0.812500 0.750000
v 0.062500 1.000000 1.000000
v 0.187500 1.000000 1.000000
v 0.187500 1.000000 0.812500
v 0.000000 1.000000 0.812500
v 0.250000 0.812500 1.000000
v 0.000000 0.812500 0.937500
v 0.000000 0.812500 0.750000
v 0.062500 0.812500 1.000000
v 0.187500 0.812500 1.000000
v 0.187500 0.812500 0.812500
v 0.000000 0.812500 0.812500
v 0.812500 1.000000 0.812500
v 1.000000 1.000000 0.812500
v 1.000000 1.000000 0.937500
v 0.750000 0.812500 0.750000
v 0.750000 1.000000 1.000000
v 0.750000 1.000000 0.750000
v 0.500000 1.000000 0.750000
v 0.500000 0.812500 0.750000
v 0.937500 1.000000 1.000000
v 1.000000 1.000000 0.750000
vt 0.812500 0.812500
vt 0.750000 0.750000
vt 0.625000 0.937500
vt 0.812500 0.937500
vt 0.812500 0.812500
vt 0.625000 0.937500
vt 0.750000 0.750000
vt 0.750000 0.812500
vt 0.812500 0.750000
vt 1.000000 0.750000
vt 1.000000 0.812500
vt 0.625000 0.937500
vt 0.812500 0.937500
vt 0.812500 0.812500
vt 1.000000 0.562500
vt 1.000000 0.812500
vt 0.750000 0.812500
vt 0.750000 0.562500
vt 0.750000 0.812500
vt 1.000000 0.812500
vt 1.000000 0.750000
vt 0.812500 0.750000
vt 1.000000 0.812500
vt 1.000000 0.750000
vt 1.000000 0.562500
vt 0.750000 0.562500
vt 0.750000 0.812500
vt 1.000000 0.812500
vt 0.812500 0.937500
vt 1.000000 0.812500
vt 1.000000 0.562500
vt 0.750000 0.562500
vt 0.750000 0.562500
vt 0.750000 0.812500
vt 1.000000 0.812500
vt 1.000000 0.562500
vt 0.625000 0.937500
vt 0.625000 0.750000
vt 0.750000 0.750000
vt 0.750000 0.812500
vt 1.000000 0.812500
vt 1.000000 0.562500
vt 0.750000 0.562500
vt 0.625000 0.750000
vt 0.812500 0.812500
vt 0.812500 0.937500
vt 0.750000 0.750000
vt 1.000000 0.812500
vt 1.000000 0.562500
vt 1.000000 0.812500
vt 0.750000 0.812500
vt 0.812500 0.750000
vt 1.000000 0.750000
vt 1.000000 0.562500
vt 0.750000 0.562500
vt 1.000000 0.812500
vt 1.000000 0.812500
vt 1.000000 0.750000
vt 1.000000 0.812500
vt 0.750000 0.812500
vt 0.812500 0.750000
vt 1.000000 0.750000
vt 1.000000 0.812500
vt 0.750000 0.562500
vt 1.000000 0.562500
vt 1.000000 0.812500
vt 1.000000 0.562500
vt 1.000000 0.812500
vt 1.000000 0.750000
vt 0.812500 0.750000
vt 0.750000 0.750000
vt 0.750000 0.562500
vt 0.812500 0.562500
vt 0.625000 0.937500
vt 0.750000 0.750000
vt 0.625000 0.750000
vt 1.000000 0.812500
vt 1.000000 0.750000
vt 0.812500 0.750000
vt 1.000000 0.750000
vt 1.000000 0.750000
vt 0.812500 0.750000
vt 1.000000 0.750000
vt 0.625000 0.937500
vt 0.625000 0.750000
vt 0.812500 0.812500
vt 0.812500 0.937500
vt 0.812500 0.937500
vt 0.812500 0.812500
vt 0.625000 0.750000
vt 0.812500 0.750000
vt 0.750000 0.562500
vt 0.812500 0.562500
vt 0.750000 0.562500
vt 1.000000 0.812500
vt 0.750000 0.562500
vt 1.000000 0.562500
vt 0.750000 0.562500
vt 1.000000 0.812500
vt 1.000000 0.812500
vt 1.000000 0.812500
vt 1.000000 0.750000
vt 0.812500 0.750000
vt 0.750000 0.750000
vt 0.750000 0.562500
vt 0.812500 0.562500
vt 0.625000 0.937500
vt 0.750000 0.750000
vt 0.625000 0.750000
vt 1.000000 0.812500
vt 1.000000 0.750000
vt 0.812500 0.750000
vt 1.000000 0.750000
vt 1.000000 0.750000
vt 0.812500 0.750000
vt 1.000000 0.750000
vt 0.625000 0.937500
vt 0.625000 0.750000
vt 0.812500 0.812500
vt 0.812500 0.937500
vt 0.812500 0.937500
vt 0.812500 0.812500
vt 0.625000 0.750000
vt 0.812500 0.750000
vt 0.750000 0.562500
vt 0.812500 0.562500
vt 0.750000 0.562500
vt 1.000000 0.812500
vt 0.750000 0.562500
vt 1.000000 0.812500
vn 0.0000 -1.0000 0.0000
vn 0.0000 1.0000 0.0000
vn 0.7071 0.0000 -0.7071
vn -0.7071 0.0000 -0.7071
vn -0.7071 0.0000 0.7071
vn 0.7071 0.0000 0.7071
usemtl MAIN
s off
f 123/233/11 128/234/11 119/235/11
f 119/235/11 122/236/11 123/233/11
f 149/237/12 147/238/12 155/239/12
f 188/240/11 113/241/11 115/242/11 164/243/11
f 113/244/11 161/245/11 162/246/11
f 165/247/12 130/248/12 131/249/12 134/250/12
f 190/251/12 189/252/12 172/253/12 185/254/12
f 194/255/12 190/251/12 185/254/12 186/256/12
f 124/257/11 127/258/11 135/259/11 142/260/11
f 147/238/12 149/237/12 148/261/12
f 135/259/11 116/262/11 153/263/11 140/264/11
f 191/265/12 170/266/12 114/267/12 158/268/12
f 185/269/12 172/270/12 193/271/12
f 173/272/11 192/273/11 159/274/11 178/275/11
f 147/238/12 133/276/12 155/239/12
f 185/269/12 187/277/12 186/278/12
f 162/246/11 167/279/11 113/244/11
f 134/250/12 131/249/12 118/280/12 154/281/12
f 156/282/12 152/283/12 147/284/12 148/285/12
f 163/286/11 166/287/11 173/272/11 180/288/11
f 152/283/12 151/289/12 133/290/12 147/284/12
f 165/247/12 169/291/12 170/266/12 191/265/12
f 187/277/12 185/269/12 193/271/12
f 150/292/11 119/293/11 117/294/11 125/295/11
f 130/296/12 121/297/12 132/298/12 131/249/12
f 127/258/11 126/299/11 116/262/11 135/259/11
f 129/300/11 122/301/11 119/293/11 150/292/11
f 136/302/13 120/303/13 141/304/13 143/305/13
f 145/306/11 141/307/11 146/308/11
f 140/309/11 144/310/11 145/311/11 135/259/11
f 135/259/11 145/311/11 146/312/11 142/260/11
f 131/249/12 132/298/12 139/313/12 138/314/12
f 118/280/12 131/249/12 138/314/12 137/315/12
f 138/316/12 139/317/12 120/303/12
f 138/316/12 136/318/12 137/319/12
f 136/318/12 138/316/12 120/303/12
f 145/306/11 144/320/11 143/321/11
f 143/321/11 141/307/11 145/306/11
f 119/235/11 128/234/11 117/322/11
f 149/323/14 155/239/14 128/324/14 123/325/14
f 116/326/11 126/299/11 166/327/11 150/292/11
f 134/250/12 154/281/12 151/289/12 152/283/12
f 169/328/12 152/283/12 156/282/12 160/329/12
f 150/292/11 166/327/11 163/286/11 129/330/11
f 153/263/11 116/326/11 150/292/11 125/295/11
f 165/247/12 134/331/12 152/283/12 169/328/12
f 169/328/12 160/329/12 171/332/12 170/266/12
f 166/287/11 126/299/11 192/273/11 173/272/11
f 168/333/11 161/334/11 113/241/11 188/240/11
f 174/335/15 157/336/15 179/337/15 181/338/15
f 183/339/11 179/340/11 184/341/11
f 178/342/11 182/343/11 183/344/11 173/272/11
f 173/272/11 183/344/11 184/345/11 180/288/11
f 170/266/12 171/332/12 177/346/12 176/347/12
f 114/267/12 170/266/12 176/347/12 175/348/12
f 176/349/12 177/350/12 157/336/12
f 176/349/12 174/351/12 175/352/12
f 174/351/12 176/349/12 157/336/12
f 183/339/11 182/353/11 181/354/11
f 181/354/11 179/340/11 183/339/11
f 113/244/11 167/279/11 115/355/11
f 187/356/16 193/271/16 167/357/16 162/358/16
f 192/359/11 126/299/11 127/360/11 188/240/11
f 191/265/12 158/268/12 189/252/12 190/251/12
f 130/296/12 190/251/12 194/255/12 121/297/12
f 188/240/11 127/360/11 124/257/11 168/361/11
f 159/274/11 192/359/11 188/240/11 164/243/11
f 165/247/12 191/362/12 190/251/12 130/296/12
