# Blender v2.80 (sub 75) OBJ File: 'tables.blend'
# www.blender.org
mtllib table_center.mtl
o CENTER_TABLE_TOP_Cube.013
v 0.250000 0.812500 0.000000
v 0.250000 1.000000 0.000000
v 0.500000 0.812500 0.250000
v 0.250000 0.812500 1.000000
v 0.000000 1.000000 0.000000
v 0.750000 0.812500 0.000000
v 0.750000 1.000000 0.000000
v 0.000000 0.812500 0.000000
v 0.250000 1.000000 1.000000
v 1.000000 1.000000 0.000000
v 1.000000 0.812500 0.000000
v 0.500000 1.000000 0.000000
v 0.500000 0.812500 0.000000
v 1.000000 1.000000 0.500000
v 0.500000 0.812500 0.750000
v 0.000000 1.000000 1.000000
v 1.000000 0.812500 0.500000
v 0.750000 0.812500 1.000000
v 0.500000 1.000000 0.500000
v 0.500000 0.812500 0.500000
v 0.750000 1.000000 1.000000
v 0.000000 0.812500 1.000000
v 0.750000 0.812500 0.500000
v 0.000000 1.000000 0.500000
v 0.750000 1.000000 0.500000
v 0.750000 1.000000 0.250000
v 1.000000 1.000000 0.250000
v 0.500000 1.000000 0.250000
v 1.000000 0.812500 0.250000
v 0.750000 0.812500 0.250000
v 1.000000 1.000000 1.000000
v 0.000000 0.812500 0.500000
v 1.000000 0.812500 1.000000
v 0.500000 1.000000 1.000000
v 0.250000 0.812500 0.500000
v 0.250000 1.000000 0.500000
v 0.250000 1.000000 0.250000
v 0.000000 1.000000 0.250000
v 0.000000 0.812500 0.250000
v 0.250000 0.812500 0.250000
v 0.500000 0.812500 1.000000
v 0.750000 1.000000 0.750000
v 1.000000 1.000000 0.750000
v 0.500000 1.000000 0.750000
v 1.000000 0.812500 0.750000
v 0.750000 0.812500 0.750000
v 0.250000 1.000000 0.750000
v 0.000000 1.000000 0.750000
v 0.000000 0.812500 0.750000
v 0.250000 0.812500 0.750000
vt 1.000000 0.812500
vt 1.000000 0.562500
vt 0.750000 0.562500
vt 0.750000 0.812500
vt 1.000000 0.562500
vt 0.750000 0.562500
vt 1.000000 0.812500
vt 1.000000 0.562500
vt 0.750000 0.562500
vt 0.750000 0.812500
vt 0.750000 0.812500
vt 1.000000 0.812500
vt 1.000000 0.562500
vt 0.750000 0.562500
vt 1.000000 0.812500
vt 0.750000 0.812500
vt 0.750000 0.562500
vt 0.750000 0.812500
vt 0.750000 0.562500
vt 1.000000 0.562500
vt 1.000000 0.812500
vt 1.000000 0.562500
vt 0.750000 0.562500
vt 0.750000 0.812500
vt 1.000000 0.812500
vt 1.000000 0.562500
vt 0.750000 0.562500
vt 0.750000 0.812500
vt 1.000000 0.812500
vt 1.000000 0.812500
vt 0.750000 0.562500
vt 0.750000 0.562500
vt 1.000000 0.562500
vt 1.000000 0.812500
vt 1.000000 0.562500
vt 1.000000 0.812500
vt 1.000000 0.812500
vt 0.750000 0.562500
vt 1.000000 0.812500
vt 1.000000 0.562500
vt 0.750000 0.562500
vt 1.000000 0.562500
vt 1.000000 0.812500
vt 0.750000 0.562500
vt 0.750000 0.812500
vt 1.000000 0.812500
vt 0.750000 0.562500
vt 1.000000 0.812500
vt 1.000000 0.812500
vt 0.750000 0.562500
vt 0.750000 0.562500
vt 1.000000 0.562500
vt 1.000000 0.562500
vt 1.000000 0.562500
vt 1.000000 0.562500
vt 1.000000 0.562500
vt 1.000000 0.562500
vt 1.000000 0.562500
vn 0.0000 1.0000 0.0000
vn 0.0000 -1.0000 0.0000
usemtl MAIN
s off
f 28/1/1 12/2/1 2/3/1 37/4/1
f 19/5/1 28/1/1 37/4/1 36/6/1
f 44/7/1 34/8/1 21/9/1 42/10/1
f 40/11/2 1/12/2 13/13/2 3/14/2
f 19/5/1 25/15/1 26/16/1 28/17/1
f 47/18/1 48/19/1 16/20/1 9/21/1
f 17/22/2 23/23/2 30/24/2 29/25/2
f 32/26/2 35/27/2 50/28/2 49/29/2
f 30/24/2 3/30/2 13/13/2 6/31/2
f 26/16/1 27/32/1 10/33/1 7/34/1
f 42/10/1 21/9/1 31/35/1 43/36/1
f 19/5/1 36/37/1 47/18/1 44/38/1
f 50/28/2 15/39/2 41/40/2 4/41/2
f 44/38/1 47/18/1 9/21/1 34/8/1
f 37/4/1 2/3/1 5/42/1 38/43/1
f 28/17/1 26/16/1 7/34/1 12/2/1
f 17/22/2 45/44/2 46/45/2 23/46/2
f 32/26/2 39/47/2 40/11/2 35/48/2
f 46/45/2 18/49/2 41/40/2 15/50/2
f 19/5/1 44/7/1 42/10/1 25/51/1
f 29/25/2 30/24/2 6/31/2 11/52/2
f 25/15/1 14/53/1 27/32/1 26/16/1
f 23/23/2 20/54/2 3/30/2 30/24/2
f 39/47/2 8/55/2 1/12/2 40/11/2
f 36/6/1 37/4/1 38/43/1 24/56/1
f 35/48/2 40/11/2 3/14/2 20/54/2
f 45/44/2 33/57/2 18/49/2 46/45/2
f 25/51/1 42/10/1 43/36/1 14/53/1
f 23/46/2 46/45/2 15/50/2 20/54/2
f 49/29/2 50/28/2 4/41/2 22/58/2
f 36/37/1 24/56/1 48/19/1 47/18/1
f 35/27/2 20/54/2 15/39/2 50/28/2
