# Blender v2.80 (sub 75) OBJ File: 'tables.blend'
# www.blender.org
mtllib table_long_intersection.mtl
o LONG_INTERSECTION_TABLE_LEGS_Cube.027
v 1.000000 0.500000 0.812500
v 1.000000 0.375000 0.812500
v 1.000000 0.375000 0.750000
v 1.000000 0.500000 0.750000
v 1.000000 0.500000 0.187500
v 1.000000 0.500000 0.250000
v 1.000000 0.375000 0.187500
v 1.000000 0.375000 0.250000
v 0.000000 0.500000 0.812500
v 0.000000 0.375000 0.812500
v 0.000000 0.375000 0.750000
v 0.000000 0.500000 0.750000
v -0.000000 0.500000 0.187500
v -0.000000 0.500000 0.250000
v -0.000000 0.375000 0.187500
v -0.000000 0.375000 0.250000
v 0.500000 0.375000 0.750000
v 0.500000 0.500000 0.750000
v 0.500000 0.500000 0.812500
v 0.500000 0.375000 0.812500
v 0.500000 0.500000 0.250000
v 0.500000 0.375000 0.187500
v 0.500000 0.500000 0.187500
v 0.500000 0.375000 0.250000
vt 0.312500 0.750000
vt 0.250000 0.750000
vt 0.250000 0.250000
vt 0.312500 0.250000
vt 0.250000 0.750000
vt 0.312500 0.750000
vt 0.312500 0.250000
vt 0.250000 0.250000
vt 0.125000 0.687500
vt 0.000000 0.687500
vt 0.000000 0.187500
vt 0.125000 0.187500
vt 0.125000 0.687500
vt 0.000000 0.687500
vt 0.000000 0.187500
vt 0.125000 0.187500
vt 0.250000 0.750000
vt 0.312500 0.750000
vt 0.312500 0.250000
vt 0.250000 0.250000
vt 0.000000 0.687500
vt 0.125000 0.687500
vt 0.125000 0.187500
vt 0.000000 0.187500
vt 0.000000 0.187500
vt 0.000000 0.687500
vt 0.125000 0.687500
vt 0.125000 0.187500
vt 0.312500 0.750000
vt 0.250000 0.750000
vt 0.250000 0.250000
vt 0.312500 0.250000
vt 0.312500 0.750000
vt 0.250000 0.750000
vt 0.125000 0.687500
vt 0.000000 0.687500
vt 0.000000 0.687500
vt 0.125000 0.687500
vt 0.250000 0.750000
vt 0.312500 0.750000
vt 0.250000 0.750000
vt 0.312500 0.750000
vt 0.312500 0.750000
vt 0.250000 0.750000
vt 0.125000 0.687500
vt 0.000000 0.687500
vt 0.125000 0.687500
vt 0.000000 0.687500
vn 0.0000 -1.0000 0.0000
vn 0.0000 1.0000 0.0000
vn 0.0000 0.0000 1.0000
vn -0.0000 0.0000 -1.0000
usemtl MAIN
s off
f 10/1/1 11/2/1 17/3/1 20/4/1
f 12/5/2 9/6/2 19/7/2 18/8/2
f 9/9/3 10/10/3 20/11/3 19/12/3
f 14/13/3 16/14/3 24/15/3 21/16/3
f 13/17/2 14/18/2 21/19/2 23/20/2
f 15/21/4 13/22/4 23/23/4 22/24/4
f 17/25/4 11/26/4 12/27/4 18/28/4
f 16/29/1 15/30/1 22/31/1 24/32/1
f 8/33/1 24/32/1 22/31/1 7/34/1
f 17/25/4 18/28/4 4/35/4 3/36/4
f 7/37/4 22/24/4 23/23/4 5/38/4
f 5/39/2 23/20/2 21/19/2 6/40/2
f 4/41/2 18/8/2 19/7/2 1/42/2
f 2/43/1 20/4/1 17/3/1 3/44/1
f 6/45/3 21/16/3 24/15/3 8/46/3
f 1/47/3 19/12/3 20/11/3 2/48/3
o LONG_INTERSECTION_TABLE_TOP_Cube.028
v 1.000000 1.000000 0.937500
v 1.000000 0.812500 0.937500
v 1.000000 1.000000 0.062500
v 1.000000 1.000000 0.500000
v 0.000000 1.000000 0.937500
v 0.000000 0.812500 0.937500
v 1.000000 0.812500 0.062500
v -0.000000 1.000000 0.062500
v 0.500000 0.812500 0.937500
v 1.000000 0.812500 0.500000
v 0.500000 1.000000 0.937500
v 0.000000 1.000000 0.500000
v 0.500000 0.812500 0.062500
v -0.000000 0.812500 0.062500
v 0.000000 0.812500 0.500000
v 0.500000 1.000000 0.062500
v 0.500000 1.000000 0.500000
v 0.500000 0.812500 0.500000
v 0.250000 0.812500 0.062500
v 0.250000 1.000000 0.062500
v 0.250000 0.812500 0.500000
v 0.250000 1.000000 0.937500
v 0.250000 0.812500 0.937500
v 0.250000 1.000000 0.500000
v 0.750000 0.812500 0.062500
v 0.750000 1.000000 0.062500
v 0.750000 0.812500 0.500000
v 0.750000 1.000000 0.937500
v 0.750000 0.812500 0.937500
v 0.750000 1.000000 0.500000
vt 0.000000 1.000000
vt 0.250000 1.000000
vt 0.250000 0.812500
vt 0.000000 0.812500
vt 1.000000 1.000000
vt 1.000000 0.562500
vt 0.750000 0.562500
vt 0.750000 1.000000
vt 0.250000 1.000000
vt 0.250000 0.812500
vt -0.000000 0.812500
vt -0.000000 1.000000
vt 0.437500 1.000000
vt 0.437500 0.812500
vt 0.187500 0.812500
vt 0.187500 1.000000
vt 0.750000 0.562500
vt 0.750000 1.000000
vt 1.000000 1.000000
vt 1.000000 0.562500
vt 0.750000 1.000000
vt 1.000000 1.000000
vt 1.000000 0.562500
vt 1.000000 1.000000
vt 0.750000 1.000000
vt 0.750000 0.562500
vt 0.750000 1.000000
vt 1.000000 1.000000
vt 1.000000 0.562500
vt 0.750000 0.562500
vt 0.750000 1.000000
vt 1.000000 1.000000
vt 0.187500 1.000000
vt 0.437500 1.000000
vt 0.437500 0.812500
vt 0.187500 0.812500
vt 0.750000 1.000000
vt 1.000000 1.000000
vt 1.000000 0.562500
vt 1.000000 1.000000
vt 1.000000 1.000000
vt 0.750000 1.000000
vt 1.000000 1.000000
vt 1.000000 0.562500
vt 1.000000 1.000000
vt 1.000000 1.000000
vt 0.437500 1.000000
vt 0.187500 1.000000
vt 0.187500 0.812500
vt 0.437500 0.812500
vt 0.187500 1.000000
vt 0.187500 0.812500
vt 0.437500 0.812500
vt 0.437500 1.000000
vt 0.250000 0.812500
vt 0.250000 1.000000
vt -0.000000 1.000000
vt -0.000000 0.812500
vn -0.0000 0.0000 -1.0000
vn 0.0000 -1.0000 -0.0000
vn 0.0000 0.0000 1.0000
vn 0.0000 1.0000 0.0000
usemtl MAIN
s off
f 40/49/5 50/50/5 49/51/5 37/52/5
f 33/53/6 42/54/6 51/55/6 53/56/6
f 35/57/7 33/58/7 53/59/7 52/60/7
f 52/61/7 53/62/7 26/63/7 25/64/7
f 54/65/8 52/66/8 25/67/8 28/68/8
f 50/69/8 54/65/8 28/68/8 27/70/8
f 53/56/6 51/55/6 34/71/6 26/72/6
f 33/53/6 47/73/6 45/74/6 42/54/6
f 51/55/6 49/75/6 31/76/6 34/71/6
f 41/77/8 48/78/8 46/79/8 35/80/8
f 50/81/5 27/82/5 31/83/5 49/84/5
f 42/54/6 45/74/6 43/85/6 37/86/6
f 45/74/6 39/87/6 38/88/6 43/85/6
f 41/77/8 35/80/8 52/66/8 54/65/8
f 40/89/8 41/77/8 54/65/8 50/69/8
f 44/90/8 32/91/8 36/92/8 48/78/8
f 42/54/6 37/86/6 49/75/6 51/55/6
f 48/78/8 36/92/8 29/93/8 46/79/8
f 40/89/8 44/90/8 48/78/8 41/77/8
f 47/73/6 30/94/6 39/87/6 45/74/6
f 46/95/7 29/96/7 30/97/7 47/98/7
f 44/99/5 43/100/5 38/101/5 32/102/5
f 40/49/5 37/52/5 43/103/5 44/104/5
f 35/57/7 46/105/7 47/106/7 33/58/7
