# Blender v2.80 (sub 75) OBJ File: 'manaweaving_projector.blend'
# www.blender.org
mtllib reservoir.mtl
o MAIN_BODY_Cylinder
v 0.447381 0.062250 0.552619
v 0.552619 0.062250 0.552619
v 0.552619 0.062250 0.447381
v 0.447381 0.062250 0.447381
v 0.372967 0.062250 0.447381
v 0.447381 0.062250 0.372967
v 0.372967 0.062250 0.552619
v 0.447381 0.062250 0.627033
v 0.552619 0.062250 0.627033
v 0.627033 0.062250 0.552619
v 0.627033 0.062250 0.447381
v 0.552619 0.062250 0.372967
v 0.447381 -0.000250 0.372967
v 0.552619 -0.000250 0.627033
v 0.627033 -0.000250 0.552619
v 0.627033 -0.000250 0.447381
v 0.552619 -0.000250 0.372967
v 0.372967 0.437750 0.447381
v 0.447381 0.437750 0.447381
v 0.552619 0.437750 0.447381
v 0.552619 0.437750 0.552619
v 0.447381 0.437750 0.552619
v 0.447381 0.437750 0.372967
v 0.372967 0.437750 0.552619
v 0.447381 0.437750 0.627033
v 0.552619 0.437750 0.627033
v 0.627033 0.437750 0.552619
v 0.627033 0.437750 0.447381
v 0.552619 0.437750 0.372967
v 0.372967 0.500250 0.447381
v 0.447381 0.500250 0.372967
v 0.372967 0.500250 0.552619
v 0.447381 0.500250 0.627033
v 0.552619 0.500250 0.627033
v 0.627033 0.500250 0.552619
v 0.627033 0.500250 0.447381
v 0.552619 0.500250 0.372967
v 0.436483 0.500250 0.473691
v 0.473691 0.500250 0.436483
v 0.436483 0.500250 0.526309
v 0.473691 0.500250 0.563517
v 0.526309 0.500250 0.563517
v 0.563517 0.500250 0.526309
v 0.563517 0.500250 0.473691
v 0.526309 0.500250 0.436483
v 0.500000 0.469000 0.500000
v 0.372967 -0.000250 0.447381
v 0.372967 -0.000250 0.552619
v 0.447381 -0.000250 0.627033
v 0.436483 -0.000250 0.473691
v 0.473691 -0.000250 0.436483
v 0.436483 -0.000250 0.526309
v 0.473691 -0.000250 0.563517
v 0.526309 -0.000250 0.563517
v 0.563517 -0.000250 0.526309
v 0.563517 -0.000250 0.473691
v 0.526309 -0.000250 0.436483
v 0.500000 0.031000 0.500000
vt 0.812500 0.500000
vt 0.812500 0.437500
vt 0.937500 0.437500
vt 0.937500 0.500000
vt 0.562500 0.500000
vt 0.562500 0.437500
vt 0.687500 0.437500
vt 0.687500 0.500000
vt 0.812500 0.500000
vt 0.812500 0.437500
vt 0.937500 0.437500
vt 0.937500 0.500000
vt 0.562500 0.500000
vt 0.562500 0.437500
vt 0.687500 0.437500
vt 0.687500 0.500000
vt 0.812500 0.500000
vt 0.812500 0.437500
vt 0.937500 0.437500
vt 0.937500 0.500000
vt 0.562500 0.500000
vt 0.562500 0.437500
vt 0.687500 0.437500
vt 0.687500 0.500000
vt 0.812500 0.500000
vt 0.812500 0.437500
vt 0.937500 0.437500
vt 0.937500 0.500000
vt 0.562500 0.500000
vt 0.562500 0.437500
vt 0.687500 0.437500
vt 0.687500 0.500000
vt 0.062500 0.500000
vt 0.062500 0.625000
vt 0.187500 0.625000
vt 0.187500 0.500000
vt 1.000000 1.000000
vt 0.875000 1.000000
vt 0.875000 0.875000
vt 1.000000 0.875000
vt 0.562500 0.500000
vt 0.687500 0.500000
vt 0.687500 0.437500
vt 0.562500 0.437500
vt 0.812500 0.500000
vt 0.937500 0.500000
vt 0.937500 0.437500
vt 0.812500 0.437500
vt 0.562500 0.500000
vt 0.687500 0.500000
vt 0.687500 0.437500
vt 0.562500 0.437500
vt 0.812500 0.500000
vt 0.937500 0.500000
vt 0.937500 0.437500
vt 0.812500 0.437500
vt 0.312500 0.500000
vt 0.312500 0.625000
vt 0.187500 0.625000
vt 0.187500 0.500000
vt 0.812500 0.500000
vt 0.937500 0.500000
vt 0.937500 0.437500
vt 0.812500 0.437500
vt 0.562500 0.500000
vt 0.687500 0.500000
vt 0.687500 0.437500
vt 0.562500 0.437500
vt 0.812500 0.500000
vt 0.937500 0.500000
vt 0.937500 0.437500
vt 0.812500 0.437500
vt 0.562500 0.500000
vt 0.687500 0.500000
vt 0.687500 0.437500
vt 0.562500 0.437500
vt 0.250000 0.625000
vt 0.125000 0.624998
vt 0.125000 0.499998
vt 0.250000 0.499998
vt 0.187500 0.625000
vt 0.062500 0.625000
vt 0.062500 0.500000
vt 0.187500 0.500000
vt 0.125000 0.500000
vt 0.125000 0.625000
vt 0.000000 0.625000
vt 0.000000 0.499998
vt 0.937500 0.250000
vt 0.937494 0.375000
vt 0.500005 0.375000
vt 0.500000 0.250000
vt 0.937500 0.250000
vt 0.500000 0.250000
vt 0.500000 0.250000
vt 0.500005 0.375000
vt 0.937494 0.375000
vt 0.937500 0.250000
vt 0.499997 0.250000
vt 0.937495 0.250000
vt 0.937496 0.250000
vt 0.499997 0.250000
vt 0.499997 0.375000
vt 0.937486 0.375000
vt 0.499997 0.250000
vt 0.937496 0.250000
vt 0.500000 0.250000
vt 0.937500 0.250000
vt 0.937494 0.375000
vt 0.500004 0.375000
vt 0.937496 0.250000
vt 0.499997 0.250000
vt 0.312500 0.500000
vt 0.187500 0.500000
vt 0.187500 0.625000
vt 0.312500 0.625000
vt 0.125000 0.500000
vt 0.000000 0.499998
vt 0.000000 0.625000
vt 0.125000 0.625000
vt 0.125000 0.499998
vt 0.125000 0.624998
vt 0.250000 0.625000
vt 0.250000 0.499998
vt 0.875000 1.000000
vt 1.000000 1.000000
vt 1.000000 0.875000
vt 0.875000 0.875000
vt 0.500000 0.250000
vt 0.500000 0.375000
vt 0.937500 0.375000
vt 0.937500 0.250000
vt 0.500000 0.375000
vt 0.937500 0.375000
vt 0.500000 0.375000
vt 0.937500 0.375000
vt 0.500000 0.375000
vt 0.937500 0.375000
vt 0.135448 0.500000
vt 0.161474 0.562500
vt 0.213526 0.562500
vt 0.239552 0.500000
vt 0.385448 0.500000
vt 0.411474 0.562500
vt 0.463526 0.562500
vt 0.489552 0.500000
vt 0.135448 0.500000
vt 0.161474 0.562500
vt 0.213526 0.562500
vt 0.239552 0.500000
vt 0.260448 0.500000
vt 0.286474 0.562500
vt 0.338526 0.562500
vt 0.364552 0.500000
vt 0.010448 0.500000
vt 0.036474 0.562500
vt 0.088526 0.562500
vt 0.114552 0.500000
vt 0.260448 0.500000
vt 0.286474 0.562500
vt 0.338526 0.562500
vt 0.364552 0.500000
vt 0.010448 0.500000
vt 0.036474 0.562500
vt 0.088526 0.562500
vt 0.114552 0.500000
vt 0.385448 0.500000
vt 0.411474 0.562500
vt 0.463526 0.562500
vt 0.489552 0.500000
vt 0.692296 0.374746
vt 0.718354 0.437282
vt 0.744148 0.374637
vt 0.754796 0.374746
vt 0.780854 0.437282
vt 0.806648 0.374637
vt 0.692296 0.374746
vt 0.744148 0.374637
vt 0.754796 0.437246
vt 0.780854 0.499782
vt 0.806648 0.437137
vt 0.692296 0.437246
vt 0.718354 0.499782
vt 0.744148 0.437137
vt 0.806648 0.437137
vt 0.754796 0.437246
vt 0.744148 0.437137
vt 0.692296 0.437246
vt 0.754796 0.374746
vt 0.806648 0.374637
vt 0.135448 0.500000
vt 0.239552 0.500000
vt 0.213526 0.562500
vt 0.161474 0.562500
vt 0.385448 0.500000
vt 0.489552 0.500000
vt 0.463526 0.562500
vt 0.411474 0.562500
vt 0.135448 0.500000
vt 0.239552 0.500000
vt 0.213526 0.562500
vt 0.161474 0.562500
vt 0.260448 0.500000
vt 0.364552 0.500000
vt 0.338526 0.562500
vt 0.286474 0.562500
vt 0.010448 0.500000
vt 0.114552 0.500000
vt 0.088526 0.562500
vt 0.036474 0.562500
vt 0.260448 0.500000
vt 0.364552 0.500000
vt 0.338526 0.562500
vt 0.286474 0.562500
vt 0.010448 0.500000
vt 0.114552 0.500000
vt 0.088526 0.562500
vt 0.036474 0.562500
vt 0.385448 0.500000
vt 0.489552 0.500000
vt 0.463526 0.562500
vt 0.411474 0.562500
vt 0.692296 0.374746
vt 0.744148 0.374637
vt 0.718354 0.437282
vt 0.754796 0.374746
vt 0.806648 0.374637
vt 0.780854 0.437282
vt 0.692296 0.374746
vt 0.744148 0.374637
vt 0.754796 0.437246
vt 0.806648 0.437137
vt 0.780854 0.499782
vt 0.692296 0.437246
vt 0.744148 0.437137
vt 0.718354 0.499782
vt 0.806648 0.437137
vt 0.754796 0.437246
vt 0.744148 0.437137
vt 0.692296 0.437246
vt 0.754796 0.374746
vt 0.806648 0.374637
vn 0.7071 0.0000 0.7071
vn 0.0000 0.0000 -1.0000
vn -0.7071 0.0000 0.7071
vn 1.0000 0.0000 0.0000
vn -0.7071 0.0000 -0.7071
vn 0.0000 0.0000 1.0000
vn 0.7071 0.0000 -0.7071
vn -1.0000 0.0000 0.0000
vn 0.0000 -1.0000 0.0000
vn 0.0000 1.0000 0.0000
vn 0.0000 0.8973 -0.4415
vn -0.4415 0.8973 0.0000
vn 0.0000 0.8973 0.4415
vn 0.3122 0.8973 0.3122
vn 0.3122 0.8973 -0.3122
vn -0.3122 0.8973 -0.3122
vn -0.3122 0.8973 0.3122
vn 0.4415 0.8973 0.0000
vn 0.0000 -0.8973 -0.4415
vn -0.4415 -0.8973 0.0000
vn 0.0000 -0.8973 0.4415
vn 0.3122 -0.8973 0.3122
vn 0.3122 -0.8973 -0.3122
vn -0.3122 -0.8973 -0.3122
vn -0.3122 -0.8973 0.3122
vn 0.4415 -0.8973 0.0000
usemtl MAIN
s off
f 9/1/1 14/2/1 15/3/1 10/4/1
f 12/5/2 17/6/2 13/7/2 6/8/2
f 7/9/3 48/10/3 49/11/3 8/12/3
f 10/13/4 15/14/4 16/15/4 11/16/4
f 6/17/5 13/18/5 47/19/5 5/20/5
f 8/21/6 49/22/6 14/23/6 9/24/6
f 11/25/7 16/26/7 17/27/7 12/28/7
f 5/29/8 47/30/8 48/31/8 7/32/8
f 29/33/9 20/34/9 19/35/9 23/36/9
f 3/37/10 4/38/10 1/39/10 2/40/10
f 27/41/4 28/42/4 36/43/4 35/44/4
f 24/45/3 25/46/3 33/47/3 32/48/3
f 29/49/2 23/50/2 31/51/2 37/52/2
f 26/53/1 27/54/1 35/55/1 34/56/1
f 9/57/10 2/58/10 1/59/10 8/60/10
f 23/61/5 18/62/5 30/63/5 31/64/5
f 25/65/6 26/66/6 34/67/6 33/68/6
f 28/69/7 29/70/7 37/71/7 36/72/7
f 18/73/8 24/74/8 32/75/8 30/76/8
f 1/77/10 4/78/10 5/79/10 7/80/10
f 4/81/10 3/82/10 12/83/10 6/84/10
f 11/85/10 3/86/10 2/87/10 10/88/10
f 28/89/6 20/90/6 3/91/6 11/92/6
f 20/90/8 29/93/8 12/94/8 3/91/8
f 10/95/2 2/96/2 21/97/2 27/98/2
f 2/96/8 9/99/8 26/100/8 21/97/8
f 7/101/2 24/102/2 22/103/2 1/104/2
f 1/104/4 22/103/4 25/105/4 8/106/4
f 6/107/4 23/108/4 19/109/4 4/110/4
f 4/110/6 19/109/6 18/111/6 5/112/6
f 26/113/9 25/114/9 22/115/9 21/116/9
f 28/117/9 27/118/9 21/119/9 20/120/9
f 18/121/9 19/122/9 22/123/9 24/124/9
f 19/125/9 20/126/9 21/127/9 22/128/9
f 7/129/3 8/130/3 25/131/3 24/132/3
f 9/133/1 10/95/1 27/98/1 26/134/1
f 11/92/7 12/135/7 29/136/7 28/89/7
f 6/137/5 5/112/5 18/111/5 23/138/5
f 33/139/10 41/140/10 40/141/10 32/142/10
f 35/143/10 43/144/10 42/145/10 34/146/10
f 37/147/10 45/148/10 44/149/10 36/150/10
f 32/151/10 40/152/10 38/153/10 30/154/10
f 34/155/10 42/156/10 41/157/10 33/158/10
f 36/159/10 44/160/10 43/161/10 35/162/10
f 31/163/10 39/164/10 45/165/10 37/166/10
f 30/167/10 38/168/10 39/169/10 31/170/10
f 42/171/11 46/172/11 41/173/11
f 44/174/12 46/175/12 43/176/12
f 39/177/13 46/172/13 45/178/13
f 38/179/14 46/180/14 39/181/14
f 41/182/15 46/183/15 40/184/15
f 43/185/16 46/180/16 42/186/16
f 45/187/17 46/183/17 44/188/17
f 40/189/18 46/175/18 38/190/18
f 49/191/9 48/192/9 52/193/9 53/194/9
f 15/195/9 14/196/9 54/197/9 55/198/9
f 17/199/9 16/200/9 56/201/9 57/202/9
f 48/203/9 47/204/9 50/205/9 52/206/9
f 14/207/9 49/208/9 53/209/9 54/210/9
f 16/211/9 15/212/9 55/213/9 56/214/9
f 13/215/9 17/216/9 57/217/9 51/218/9
f 47/219/9 13/220/9 51/221/9 50/222/9
f 54/223/19 53/224/19 58/225/19
f 56/226/20 55/227/20 58/228/20
f 51/229/21 57/230/21 58/225/21
f 50/231/22 51/232/22 58/233/22
f 53/234/23 52/235/23 58/236/23
f 55/237/24 54/238/24 58/233/24
f 57/239/25 56/240/25 58/236/25
f 52/241/26 50/242/26 58/228/26
