# Blender v2.80 (sub 75) OBJ File: 'manaweaving_projector.blend'
# www.blender.org
mtllib reservoir_fluid1of4.mtl
o FLUID_1OF4_Cylinder.004
v 0.447381 0.115250 0.447381
v 0.552619 0.115250 0.447381
v 0.552619 0.115250 0.552619
v 0.447381 0.115250 0.552619
v 0.552619 0.115250 0.589826
v 0.447381 0.115250 0.589826
v 0.410174 0.115250 0.552619
v 0.410174 0.115250 0.447381
v 0.552619 0.115250 0.410174
v 0.447381 0.115250 0.410174
v 0.589826 0.115250 0.447381
v 0.589826 0.115250 0.552619
v 0.410174 0.061607 0.447381
v 0.410174 0.061607 0.552619
v 0.552619 0.061607 0.589826
v 0.447381 0.061607 0.589826
v 0.589826 0.061607 0.447381
v 0.589826 0.061607 0.552619
v 0.552619 0.061607 0.410174
v 0.447381 0.061607 0.410174
vt 0.562500 0.625000
vt 0.437500 0.625000
vt 0.437500 0.562500
vt 0.562500 0.562500
vt 0.562500 0.375000
vt 0.562500 0.437500
vt 0.437500 0.437500
vt 0.437500 0.375000
vt 0.625000 0.562500
vt 0.625000 0.437500
vt 0.375000 0.562500
vt 0.375000 0.437500
vt 0.437500 0.375000
vt 0.562500 0.375000
vt 0.562500 0.437500
vt 0.437500 0.437500
vt 0.562500 0.375000
vt 0.562500 0.437500
vt 0.437500 0.437500
vt 0.437500 0.375000
vt 0.562500 0.375000
vt 0.562500 0.437500
vt 0.437500 0.437500
vt 0.437500 0.375000
vt 0.437500 0.375000
vt 0.562500 0.375000
vt 0.562500 0.437500
vt 0.437500 0.437500
vn 0.0000 1.0000 0.0000
vn 1.0000 0.0000 0.0000
vn -0.0000 0.0000 -1.0000
vn -1.0000 0.0000 0.0000
vn 0.0000 0.0000 1.0000
usemtl FLUID
s off
f 9/1/1 10/2/1 1/3/1 2/4/1
f 5/5/1 3/6/1 4/7/1 6/8/1
f 11/9/1 2/4/1 3/6/1 12/10/1
f 8/11/1 7/12/1 4/7/1 1/3/1
f 1/3/1 4/7/1 3/6/1 2/4/1
f 18/13/2 17/14/2 11/15/2 12/16/2
f 20/17/3 10/18/3 9/19/3 19/20/3
f 14/21/4 7/22/4 8/23/4 13/24/4
f 16/25/5 15/26/5 5/27/5 6/28/5
