# Blender v2.83.5 OBJ File: 'runic_lamp.blend'
# www.blender.org
mtllib runic_stand.mtl
o Base_Cube.003
v 0.281250 0.000000 0.718750
v 0.281250 0.125000 0.718750
v 0.281250 0.000000 0.281250
v 0.281250 0.125000 0.281250
v 0.718750 0.000000 0.718750
v 0.718750 0.125000 0.718750
v 0.718750 0.000000 0.281250
v 0.718750 0.125000 0.281250
v 0.343750 0.187500 0.656250
v 0.343750 0.187500 0.343750
v 0.656250 0.187500 0.343750
v 0.656250 0.187500 0.656250
v 0.406250 0.187500 0.593750
v 0.406250 0.187500 0.406250
v 0.593750 0.187500 0.406250
v 0.593750 0.187500 0.593750
v 0.406250 1.187500 0.593750
v 0.406250 1.187500 0.406250
v 0.593750 1.187500 0.406250
v 0.593750 1.187500 0.593750
v 0.343750 1.187500 0.656250
v 0.343750 1.187500 0.343750
v 0.656250 1.187500 0.343750
v 0.656250 1.187500 0.656250
v 0.281250 1.250000 0.718750
v 0.281250 1.250000 0.281250
v 0.718750 1.250000 0.281250
v 0.718750 1.250000 0.718750
v 0.281250 1.375000 0.718750
v 0.281250 1.375000 0.281250
v 0.718750 1.375000 0.281250
v 0.718750 1.375000 0.718750
v 0.343750 1.375000 0.343750
v 0.656250 1.375000 0.343750
v 0.656250 1.375000 0.656250
v 0.343750 1.375000 0.656250
v 0.562500 0.687500 0.437500
v 0.562500 0.687500 0.562500
v 0.437500 0.687500 0.562500
v 0.437500 0.687500 0.437500
v 0.343750 1.312500 0.656250
v 0.343750 1.312500 0.343750
v 0.656250 1.312500 0.343750
v 0.656250 1.312500 0.656250
vt 0.437500 0.125000
vt 0.437500 0.000000
vt 0.000000 0.000000
vt 0.000000 0.125000
vt 0.437500 0.000000
vt 0.437500 0.125000
vt 0.000000 0.000000
vt 0.000000 0.125000
vt 0.750000 0.937500
vt 0.812500 0.937500
vt 0.812500 1.000000
vt 0.750000 1.000000
vt 0.437500 1.000000
vt 0.000000 1.000000
vt 0.062500 0.937500
vt 0.375000 0.937500
vt 0.062500 0.625000
vt 0.125000 0.687500
vt 0.125000 0.875000
vt 0.000000 0.562500
vt 0.437500 0.562500
vt 0.375000 0.625000
vt 0.843750 0.500000
vt 0.968750 0.500000
vt 1.000000 1.000000
vt 0.812500 1.000000
vt 0.312500 0.875000
vt 0.312500 0.687500
vt 0.125000 0.875000
vt 0.312500 0.875000
vt 0.375000 0.937500
vt 0.062500 0.937500
vt 0.843750 0.500000
vt 0.968750 0.500000
vt 1.000000 1.000000
vt 0.812500 1.000000
vt 0.843750 0.500000
vt 0.968750 0.500000
vt 1.000000 1.000000
vt 0.812500 1.000000
vt 0.375000 0.625000
vt 0.062500 0.625000
vt -0.000000 0.562500
vt 0.437500 0.562500
vt 0.312500 0.687500
vt 0.125000 0.687500
vt 0.437500 0.125000
vt 0.000000 0.125000
vt 0.000000 0.000000
vt 0.437500 0.000000
vt 0.437500 1.000000
vt -0.000000 1.000000
vt 0.000000 0.125000
vt 0.437500 0.125000
vt 0.375000 0.187500
vt 0.062500 0.187500
vt 0.437500 0.125000
vt 0.000000 0.125000
vt 0.000000 0.000000
vt 0.437500 0.000000
vt 0.437500 0.562500
vt 0.000000 0.562500
vt 0.062500 0.500000
vt 0.375000 0.500000
vt 0.812500 -0.000000
vt 1.000000 -0.000000
vt 1.000000 0.000000
vt 0.812500 0.000000
vt 0.812500 -0.000000
vt 1.000000 -0.000000
vt 0.750000 1.000000
vt 0.437500 1.000000
vt 0.437500 0.937500
vt 0.750000 0.937500
vt 0.062500 0.187500
vt 0.375000 0.187500
vt 0.375000 0.500000
vt 0.062500 0.500000
vt 0.750000 1.000000
vt 0.437500 1.000000
vt 0.437500 0.937500
vt 0.750000 0.937500
vt 0.750000 1.000000
vt 0.437500 1.000000
vt 0.437500 0.937500
vt 0.750000 0.937500
vn -1.0000 0.0000 0.0000
vn 0.0000 0.0000 -1.0000
vn 1.0000 0.0000 0.0000
vn 0.0000 0.0000 1.0000
vn 0.0000 -1.0000 0.0000
vn -0.7071 0.7071 0.0000
vn 0.0000 1.0000 0.0000
vn 0.0000 0.7071 0.7071
vn 0.0000 0.7071 -0.7071
vn 0.7071 0.7071 0.0000
vn 0.9981 -0.0624 0.0000
vn -0.9981 -0.0624 0.0000
vn 0.0000 -0.0624 0.9981
vn 0.0000 -0.0624 -0.9981
vn 0.0000 -0.7071 -0.7071
vn 0.7071 -0.7071 0.0000
vn -0.7071 -0.7071 0.0000
vn 0.0000 -0.7071 0.7071
vn 0.0000 0.0624 -0.9981
vn 0.0000 0.0624 0.9981
vn -0.9981 0.0624 0.0000
vn 0.9981 0.0624 0.0000
usemtl MAIN
s off
f 1/1/1 2/2/1 4/3/1 3/4/1
f 3/4/2 4/3/2 8/5/2 7/6/2
f 7/6/3 8/5/3 6/7/3 5/8/3
f 5/8/4 6/7/4 2/2/4 1/1/4
f 3/9/5 7/10/5 5/11/5 1/12/5
f 4/13/6 2/14/6 9/15/6 10/16/6
f 9/15/7 12/17/7 16/18/7 13/19/7
f 2/14/8 6/20/8 12/17/8 9/15/8
f 8/21/9 4/13/9 10/16/9 11/22/9
f 6/20/10 8/21/10 11/22/10 12/17/10
f 38/23/11 37/24/11 19/25/11 20/26/11
f 11/22/7 10/16/7 14/27/7 15/28/7
f 12/17/7 11/22/7 15/28/7 16/18/7
f 10/16/7 9/15/7 13/19/7 14/27/7
f 17/29/5 20/30/5 24/31/5 21/32/5
f 40/33/12 39/34/12 17/35/12 18/36/12
f 39/34/13 38/23/13 20/26/13 17/35/13
f 37/37/14 40/38/14 18/39/14 19/40/14
f 23/41/15 22/42/15 26/43/15 27/44/15
f 19/45/5 18/46/5 22/42/5 23/41/5
f 20/30/5 19/45/5 23/41/5 24/31/5
f 18/46/5 17/29/5 21/32/5 22/42/5
f 28/47/3 27/48/3 31/49/3 32/50/3
f 24/31/16 23/41/16 27/44/16 28/51/16
f 22/42/17 21/32/17 25/52/17 26/43/17
f 21/32/18 24/31/18 28/51/18 25/52/18
f 29/53/7 32/54/7 35/55/7 36/56/7
f 26/57/1 25/58/1 29/59/1 30/60/1
f 25/58/4 28/47/4 32/50/4 29/59/4
f 27/48/2 26/57/2 30/60/2 31/49/2
f 31/61/7 30/62/7 33/63/7 34/64/7
f 32/54/7 31/61/7 34/64/7 35/55/7
f 30/62/7 29/53/7 36/56/7 33/63/7
f 15/65/19 14/66/19 40/38/19 37/37/19
f 13/67/20 16/68/20 38/23/20 39/34/20
f 14/69/21 13/67/21 39/34/21 40/33/21
f 16/68/22 15/70/22 37/24/22 38/23/22
f 34/71/4 33/72/4 42/73/4 43/74/4
f 41/75/7 44/76/7 43/77/7 42/78/7
f 35/79/1 34/80/1 43/81/1 44/82/1
f 33/83/3 36/84/3 41/85/3 42/86/3
f 36/84/2 35/79/2 44/82/2 41/85/2
