# Blender v2.83.5 OBJ File: 'runic_lamp.blend'
# www.blender.org
mtllib runic_lamp.mtl
o Lamp_Top_Cube.006
v 0.343750 1.406250 0.656250
v 0.343750 1.375000 0.343750
v 0.656250 1.375000 0.343750
v 0.656250 1.406250 0.656250
v 0.656250 1.406250 0.343750
v 0.343750 1.750000 0.343750
v 0.656250 1.750000 0.343750
v 0.343750 1.406250 0.343750
v 0.281250 1.750000 0.718750
v 0.281250 1.750000 0.281250
v 0.718750 1.750000 0.281250
v 0.718750 1.750000 0.718750
v 0.281250 1.812500 0.718750
v 0.281250 1.812500 0.281250
v 0.718750 1.812500 0.281250
v 0.718750 1.812500 0.718750
v 0.408950 1.937500 0.593750
v 0.408950 1.937500 0.406250
v 0.593750 1.937500 0.406250
v 0.593750 1.937500 0.593750
v 0.656250 1.875000 0.656250
v 0.345100 1.875000 0.656250
v 0.345100 1.875000 0.343750
v 0.656250 1.875000 0.343750
v 0.471450 1.937500 0.531250
v 0.471450 1.937500 0.468750
v 0.531250 1.937500 0.468750
v 0.531250 1.937500 0.531250
v 0.471450 2.000000 0.531250
v 0.471450 2.000000 0.468750
v 0.531250 2.000000 0.468750
v 0.531250 2.000000 0.531250
v 0.656250 1.375000 0.656250
v 0.343750 1.375000 0.656250
v 0.656250 1.750000 0.656250
v 0.343750 1.750000 0.656250
v 0.343750 1.718750 0.656250
v 0.343750 1.718750 0.343750
v 0.656250 1.718750 0.343750
v 0.656250 1.718750 0.656250
v 0.593750 1.406250 0.656250
v 0.593750 1.718750 0.656250
v 0.406250 1.406250 0.656250
v 0.406250 1.718750 0.656250
v 0.406250 1.406250 0.343750
v 0.406250 1.718750 0.343750
v 0.593750 1.406250 0.343750
v 0.593750 1.718750 0.343750
v 0.343750 1.406250 0.593750
v 0.656250 1.406250 0.593750
v 0.343750 1.718750 0.593750
v 0.656250 1.718750 0.593750
v 0.656250 1.406250 0.406250
v 0.343750 1.406250 0.406250
v 0.343750 1.718750 0.406250
v 0.656250 1.718750 0.406250
vt 0.750000 0.843750
vt 0.437500 0.843750
vt 0.437500 0.812500
vt 0.750000 0.812500
vt 0.375000 0.500000
vt 0.375000 0.187500
vt 0.437500 0.125000
vt 0.437500 0.562500
vt 0.750000 0.125000
vt 0.437500 0.125000
vt 0.500000 0.062500
vt 0.687500 0.062500
vt 0.750000 0.843750
vt 0.437500 0.843750
vt 0.437500 0.812500
vt 0.750000 0.812500
vt 0.750000 0.625000
vt 0.750000 0.187500
vt 0.812500 0.187500
vt 0.812500 0.625000
vt 0.062500 0.187500
vt 0.062500 0.500000
vt 0.000000 0.562500
vt 0.000000 0.125000
vt 0.062500 0.625000
vt 0.375000 0.625000
vt 0.312500 0.687500
vt 0.125000 0.687500
vt 0.750000 0.625000
vt 0.750000 0.187500
vt 0.812500 0.187500
vt 0.812500 0.625000
vt 0.750000 0.625000
vt 0.750000 0.187500
vt 0.812500 0.187500
vt 0.812500 0.625000
vt 0.750000 0.625000
vt 0.750000 0.187500
vt 0.812500 0.187500
vt 0.812500 0.625000
vt 0.312500 0.875000
vt 0.250000 0.812500
vt 0.250000 0.750000
vt 0.375000 0.937500
vt 0.062500 0.937500
vt 0.125000 0.875000
vt 0.000000 1.000000
vt 0.000000 0.562500
vt 0.437500 0.562500
vt 0.437500 1.000000
vt 0.750000 0.625000
vt 0.812500 0.625000
vt 0.812500 0.687500
vt 0.750000 0.687500
vt 0.187500 0.750000
vt 0.187500 0.812500
vt 0.250000 0.812500
vt 0.187500 0.812500
vt 0.187500 0.750000
vt 0.250000 0.750000
vt 0.750000 0.625000
vt 0.812500 0.625000
vt 0.812500 0.687500
vt 0.750000 0.687500
vt 0.750000 0.625000
vt 0.812500 0.625000
vt 0.812500 0.687500
vt 0.750000 0.687500
vt 0.750000 0.625000
vt 0.812500 0.625000
vt 0.812500 0.687500
vt 0.750000 0.687500
vt 0.437500 0.406250
vt 0.750000 0.406250
vt 0.750000 0.437500
vt 0.437500 0.437500
vt 0.437500 0.406250
vt 0.750000 0.406250
vt 0.750000 0.437500
vt 0.437500 0.437500
vt 0.437500 0.406250
vt 0.750000 0.406250
vt 0.750000 0.437500
vt 0.437500 0.437500
vt 0.437500 0.406250
vt 0.750000 0.406250
vt 0.750000 0.437500
vt 0.437500 0.437500
vt 0.750000 0.843750
vt 0.437500 0.843750
vt 0.437500 0.812500
vt 0.750000 0.812500
vt 0.750000 0.843750
vt 0.437500 0.843750
vt 0.437500 0.812500
vt 0.750000 0.812500
vt 0.687500 0.812500
vt 0.687500 0.437500
vt 0.500000 0.437500
vt 0.500000 0.812500
vt 0.687500 0.812500
vt 0.687500 0.437500
vt 0.500000 0.437500
vt 0.500000 0.812500
vt 0.687500 0.812500
vt 0.687500 0.437500
vt 0.500000 0.437500
vt 0.500000 0.812500
vt 0.500000 0.437500
vt 0.500000 0.812500
vt 0.687500 0.812500
vt 0.687500 0.437500
vt 0.750000 0.937500
vt 0.750000 0.687500
vt 0.812500 0.687500
vt 0.812500 0.937500
vt 0.812500 0.937500
vt 0.750000 0.937500
vt 0.750000 0.687500
vt 0.812500 0.687500
vt 0.750000 0.937500
vt 0.750000 0.687500
vt 0.812500 0.687500
vt 0.812500 0.937500
vt 0.812500 0.937500
vt 0.750000 0.937500
vt 0.750000 0.687500
vt 0.812500 0.687500
vt 0.750000 0.312500
vt 0.687500 0.375000
vt 0.500000 0.375000
vt 0.437500 0.312500
vt 0.750000 0.125000
vt 0.437500 0.125000
vt 0.500000 0.062500
vt 0.687500 0.062500
vt 0.750000 0.312500
vt 0.687500 0.375000
vt 0.500000 0.375000
vt 0.437500 0.312500
vn 1.0000 0.0000 0.0000
vn 0.0000 -1.0000 0.0000
vn 0.0000 0.0000 -1.0000
vn 0.0000 0.7071 0.7071
vn -1.0000 0.0000 0.0000
vn 0.0000 0.0000 1.0000
vn 0.0000 1.0000 0.0000
vn 0.0000 0.7071 -0.7071
vn 0.7071 0.7071 0.0000
vn -0.6995 0.7146 0.0000
vn -0.7071 0.0000 0.7071
vn -0.7071 0.0000 -0.7071
vn 0.7071 0.0000 -0.7071
vn 0.7071 0.0000 0.7071
usemtl MAIN
s off
f 7/1/1 35/2/1 40/3/1 39/4/1
f 35/5/2 7/6/2 11/7/2 12/8/2
f 56/9/2 55/10/2 46/11/2 48/12/2
f 6/13/3 7/14/3 39/15/3 38/16/3
f 12/17/1 11/18/1 15/19/1 16/20/1
f 6/21/2 36/22/2 9/23/2 10/24/2
f 36/22/2 35/5/2 12/8/2 9/23/2
f 7/6/2 6/21/2 10/24/2 11/7/2
f 22/25/4 21/26/4 20/27/4 17/28/4
f 10/29/5 9/30/5 13/31/5 14/32/5
f 9/33/6 12/34/6 16/35/6 13/36/6
f 11/37/3 10/38/3 14/39/3 15/40/3
f 20/27/7 19/41/7 27/42/7 28/43/7
f 24/44/8 23/45/8 18/46/8 19/41/8
f 21/26/9 24/44/9 19/41/9 20/27/9
f 23/45/10 22/25/10 17/28/10 18/46/10
f 14/47/10 13/48/10 22/25/10 23/45/10
f 16/49/9 15/50/9 24/44/9 21/26/9
f 15/50/8 14/47/8 23/45/8 24/44/8
f 13/48/4 16/49/4 21/26/4 22/25/4
f 25/51/6 28/52/6 32/53/6 29/54/6
f 18/46/7 17/28/7 25/55/7 26/56/7
f 17/28/7 20/27/7 28/43/7 25/55/7
f 19/41/7 18/46/7 26/56/7 27/42/7
f 31/57/7 30/58/7 29/59/7 32/60/7
f 27/61/3 26/62/3 30/63/3 31/64/3
f 28/65/1 27/66/1 31/67/1 32/68/1
f 26/69/5 25/70/5 29/71/5 30/72/5
f 2/73/5 34/74/5 1/75/5 8/76/5
f 33/77/1 3/78/1 5/79/1 4/80/1
f 3/81/3 2/82/3 8/83/3 5/84/3
f 34/85/6 33/86/6 4/87/6 1/88/6
f 36/89/5 6/90/5 38/91/5 37/92/5
f 35/93/6 36/94/6 37/95/6 40/96/6
f 38/16/3 46/97/3 45/98/3 8/83/3
f 37/95/6 1/88/6 43/99/6 44/100/6
f 40/96/6 42/101/6 41/102/6 4/87/6
f 39/15/3 5/84/3 47/103/3 48/104/3
f 1/75/5 37/92/5 51/105/5 49/106/5
f 4/80/1 50/107/1 52/108/1 40/3/1
f 8/76/5 54/109/5 55/110/5 38/91/5
f 5/79/1 39/4/1 56/111/1 53/112/1
f 48/113/11 47/114/11 53/115/11 56/116/11
f 42/117/12 52/118/12 50/119/12 41/120/12
f 44/121/13 43/122/13 49/123/13 51/124/13
f 46/125/14 55/126/14 54/127/14 45/128/14
f 53/129/7 47/130/7 45/131/7 54/132/7
f 50/133/7 49/134/7 43/135/7 41/136/7
f 54/132/7 49/134/7 50/133/7 53/129/7
f 52/137/2 42/138/2 44/139/2 51/140/2
f 55/10/2 56/9/2 52/137/2 51/140/2
