# Blender v2.80 (sub 75) OBJ File: 'pilgrims_staff.blend'
# www.blender.org
mtllib pilgrims_staff.mtl
o PILGRIMS_STAFF_Cube
v 0.437500 1.421875 0.562500
v 0.437500 1.671875 0.562500
v 0.437500 1.421875 0.437500
v 0.437500 1.671875 0.437500
v 0.562500 1.421875 0.562500
v 0.562500 1.671875 0.562500
v 0.562500 1.421875 0.437500
v 0.562500 1.671875 0.437500
v 0.406250 1.734375 0.593750
v 0.406250 1.734375 0.406250
v 0.593750 1.734375 0.593750
v 0.593750 1.734375 0.406250
v 0.406250 1.671875 0.593750
v 0.406250 1.671875 0.406250
v 0.593750 1.671875 0.406250
v 0.593750 1.671875 0.593750
v 0.406250 1.421875 0.593750
v 0.406250 1.421875 0.406250
v 0.593750 1.421875 0.593750
v 0.593750 1.421875 0.406250
v 0.406250 1.359375 0.593750
v 0.406250 1.359375 0.406250
v 0.593750 1.359375 0.406250
v 0.593750 1.359375 0.593750
v 0.406250 0.296875 0.593750
v 0.406250 0.296875 0.406250
v 0.593750 0.296875 0.593750
v 0.593750 0.296875 0.406250
v 0.406250 0.234375 0.593750
v 0.406250 0.234375 0.406250
v 0.593750 0.234375 0.406250
v 0.593750 0.234375 0.593750
v 0.437500 0.796875 0.562500
v 0.437500 1.359375 0.562500
v 0.437500 0.796875 0.437500
v 0.437500 1.359375 0.437500
v 0.562500 0.796875 0.562500
v 0.562500 1.359375 0.562500
v 0.562500 0.796875 0.437500
v 0.562500 1.359375 0.437500
v 0.437500 0.296875 0.562500
v 0.437500 0.296875 0.437500
v 0.562500 0.296875 0.562500
v 0.562500 0.296875 0.437500
v 0.437500 1.234375 0.562500
v 0.437500 1.234375 0.437500
v 0.562500 1.234375 0.437500
v 0.562500 1.234375 0.562500
vt 0.500000 0.750000
vt 0.500000 1.000000
vt 0.375000 1.000000
vt 0.375000 0.750000
vt 0.250000 1.000000
vt 0.250000 0.750000
vt 0.500000 0.750000
vt 0.500000 1.000000
vt 0.375000 1.000000
vt 0.375000 0.750000
vt 0.250000 1.000000
vt 0.250000 0.750000
vt 0.187500 0.250000
vt 0.000000 0.250000
vt 0.000000 0.062500
vt 0.187500 0.062500
vt 0.187500 0.250000
vt 0.187500 0.062500
vt 0.000000 0.062500
vt 0.000000 0.250000
vt 0.000000 -0.000000
vt 0.187500 -0.000000
vt 0.250000 0.062500
vt 0.187500 0.062500
vt 0.187500 0.250000
vt 0.250000 0.250000
vt 0.250000 0.250000
vt 0.187500 0.250000
vt 0.187500 0.062500
vt 0.187500 -0.000000
vt 0.187500 0.250000
vt 0.000000 0.250000
vt 0.000000 0.062500
vt 0.187500 0.062500
vt 0.187500 0.250000
vt 0.187500 0.062500
vt 0.000000 0.062500
vt 0.000000 0.250000
vt 0.000000 -0.000000
vt 0.187500 -0.000000
vt 0.250000 0.062500
vt 0.187500 0.062500
vt 0.187500 0.250000
vt 0.250000 0.250000
vt 0.250000 0.250000
vt 0.187500 0.250000
vt 0.187500 0.062500
vt 0.187500 -0.000000
vt 0.187500 0.250000
vt 0.000000 0.250000
vt 0.000000 0.062500
vt 0.187500 0.062500
vt 0.187500 0.250000
vt 0.187500 0.062500
vt 0.000000 0.062500
vt 0.000000 0.250000
vt 0.000000 -0.000000
vt 0.187500 -0.000000
vt 0.250000 0.062500
vt 0.187500 0.062500
vt 0.187500 0.250000
vt 0.250000 0.250000
vt 0.250000 0.250000
vt 0.187500 0.250000
vt 0.187500 0.062500
vt 0.187500 -0.000000
vt 1.000000 1.000000
vt 0.750000 1.000000
vt 0.750000 -0.000000
vt 1.000000 0.000000
vt 0.500000 1.000000
vt 0.500000 0.000000
vt 0.750000 1.000000
vt 0.500000 1.000000
vt 0.500000 0.000000
vt 0.750000 0.000000
vt 1.000000 1.000000
vt 1.000000 0.000000
vt 0.125000 0.562500
vt 0.125000 1.000000
vt 0.000000 1.000000
vt 0.000000 0.562500
vt 0.500000 0.500000
vt 0.500000 0.750000
vt 0.250000 0.750000
vt 0.250000 0.500000
vt 0.250000 0.562500
vt 0.250000 1.000000
vt 0.500000 0.250000
vt 0.500000 0.500000
vt 0.250000 0.500000
vt 0.250000 0.250000
vt 0.250000 0.562500
vt 0.250000 1.000000
vt 0.125000 1.000000
vt 0.125000 0.562500
vt 0.500000 0.250000
vt 0.500000 0.500000
vt 0.250000 0.500000
vt 0.250000 0.250000
vt 0.000000 1.000000
vt 0.000000 0.562500
vt 0.500000 0.500000
vt 0.500000 0.750000
vt 0.250000 0.750000
vt 0.250000 0.500000
vn -1.0000 0.0000 0.0000
vn 0.0000 0.0000 -1.0000
vn 1.0000 0.0000 0.0000
vn 0.0000 0.0000 1.0000
vn 0.0000 1.0000 0.0000
vn 0.0000 -1.0000 0.0000
usemtl MAIN
s off
f 1/1/1 2/2/1 4/3/1 3/4/1
f 3/4/2 4/3/2 8/5/2 7/6/2
f 7/7/3 8/8/3 6/9/3 5/10/3
f 5/10/4 6/9/4 2/11/4 1/12/4
f 12/13/5 10/14/5 9/15/5 11/16/5
f 15/17/6 16/18/6 13/19/6 14/20/6
f 9/15/4 13/21/4 16/22/4 11/16/4
f 12/23/2 15/24/2 14/25/2 10/26/2
f 11/27/3 16/28/3 15/24/3 12/23/3
f 10/29/1 14/30/1 13/21/1 9/15/1
f 20/31/5 18/32/5 17/33/5 19/34/5
f 23/35/6 24/36/6 21/37/6 22/38/6
f 17/33/4 21/39/4 24/40/4 19/34/4
f 20/41/2 23/42/2 22/43/2 18/44/2
f 19/45/3 24/46/3 23/42/3 20/41/3
f 18/47/1 22/48/1 21/39/1 17/33/1
f 28/49/5 26/50/5 25/51/5 27/52/5
f 31/53/6 32/54/6 29/55/6 30/56/6
f 25/51/4 29/57/4 32/58/4 27/52/4
f 28/59/2 31/60/2 30/61/2 26/62/2
f 27/63/3 32/64/3 31/60/3 28/59/3
f 26/65/1 30/66/1 29/57/1 25/51/1
f 39/67/3 37/68/3 43/69/3 44/70/3
f 37/68/4 33/71/4 41/72/4 43/69/4
f 35/73/2 39/74/2 44/75/2 42/76/2
f 33/77/1 35/73/1 42/76/1 41/78/1
f 37/79/4 48/80/4 45/81/4 33/82/4
f 48/83/4 38/84/4 34/85/4 45/86/4
f 39/87/3 47/88/3 48/80/3 37/79/3
f 47/89/3 40/90/3 38/91/3 48/92/3
f 33/93/1 45/94/1 46/95/1 35/96/1
f 45/97/1 34/98/1 36/99/1 46/100/1
f 35/96/2 46/95/2 47/101/2 39/102/2
f 46/103/2 36/104/2 40/105/2 47/106/2
