# Blender v2.83.5 OBJ File: 'pumpkin_staff.blend'
# www.blender.org
mtllib pumpkin_staff.mtl
o PUNKIN_STAFF_Cube.002
v 0.437500 0.000000 0.562500
v 0.437500 1.125000 0.562500
v 0.437500 0.000000 0.437500
v 0.437500 1.125000 0.437500
v 0.562500 0.000000 0.562500
v 0.562500 1.125000 0.562500
v 0.562500 0.000000 0.437500
v 0.562500 1.125000 0.437500
v 0.562500 2.125000 0.562500
v 0.562500 2.125000 0.437500
v 0.437500 2.125000 0.437500
v 0.437500 2.125000 0.562500
v 0.426451 0.000000 0.426451
v 0.426451 0.000000 0.573549
v 0.573549 0.000000 0.426451
v 0.573549 1.125000 0.426451
v 0.573549 0.000000 0.573549
v 0.573549 1.125000 0.573549
v 0.573549 2.125000 0.573549
v 0.573549 2.125000 0.426451
v 0.426451 2.125000 0.573549
v 0.426451 1.125000 0.573549
v 0.426451 1.125000 0.426451
v 0.426451 2.125000 0.426451
v 0.343750 2.125000 0.656250
v 0.468750 2.437500 0.531250
v 0.343750 2.125000 0.343750
v 0.468750 2.437500 0.468750
v 0.656250 2.125000 0.656250
v 0.531250 2.437500 0.531250
v 0.656250 2.125000 0.343750
v 0.531250 2.437500 0.468750
v 0.343750 2.437500 0.656250
v 0.343750 2.437500 0.343750
v 0.656250 2.437500 0.343750
v 0.656250 2.437500 0.656250
v 0.468750 2.500000 0.531250
v 0.468750 2.500000 0.468750
v 0.531250 2.500000 0.468750
v 0.531250 2.500000 0.531250
v 0.452261 0.024841 0.437562
v 0.577261 0.024841 0.437562
v 0.452261 -0.063547 0.349174
v 0.577261 -0.063547 0.349174
v 0.332874 1.728150 0.468408
v 0.445544 1.728150 0.522542
v 0.332874 1.853150 0.468408
v 0.445544 1.853150 0.522542
v 0.562801 1.969166 0.492204
v 0.675471 1.969166 0.546337
v 0.562801 2.094166 0.492204
v 0.675471 2.094166 0.546337
v 0.563030 1.598626 0.494088
v 0.675241 1.598626 0.439009
v 0.563030 1.723626 0.494088
v 0.675241 1.723626 0.439009
v 0.415415 1.438522 0.664249
v 0.472688 1.438522 0.553142
v 0.415415 1.563522 0.664249
v 0.472688 1.563522 0.553142
v 0.568599 1.944041 0.664984
v 0.514273 1.944041 0.552407
v 0.568599 2.069041 0.664984
v 0.514273 2.069041 0.552406
v 0.440872 -0.056661 0.647026
v 0.565872 -0.056661 0.647026
v 0.440872 0.031727 0.558637
v 0.565872 0.031727 0.558637
v 0.452261 0.024841 0.437562
v 0.577261 0.024841 0.437562
v 0.452261 -0.063547 0.349174
v 0.577261 -0.063547 0.349174
v 0.332874 1.728150 0.468408
v 0.445544 1.728150 0.522542
v 0.332874 1.853150 0.468408
v 0.445544 1.853150 0.522542
v 0.562801 1.969166 0.492204
v 0.675471 1.969166 0.546337
v 0.562801 2.094166 0.492204
v 0.675471 2.094166 0.546337
v 0.563030 1.598626 0.494088
v 0.675241 1.598626 0.439009
v 0.563030 1.723626 0.494088
v 0.675241 1.723626 0.439009
v 0.415415 1.438522 0.664249
v 0.472688 1.438522 0.553142
v 0.415415 1.563522 0.664249
v 0.472688 1.563522 0.553142
v 0.568599 1.944041 0.664984
v 0.514273 1.944041 0.552407
v 0.568599 2.069041 0.664984
v 0.514273 2.069041 0.552406
v 0.440872 -0.056661 0.647026
v 0.565872 -0.056661 0.647026
v 0.440872 0.031727 0.558637
v 0.565872 0.031727 0.558637
vt 0.125000 0.000000
vt 0.125000 1.000000
vt 0.000000 1.000000
vt 0.000000 0.000000
vt 0.250000 0.000000
vt 0.250000 1.000000
vt 0.125000 1.000000
vt 0.125000 0.000000
vt 0.000000 1.000000
vt 0.000000 0.000000
vt 0.250000 0.000000
vt 0.250000 1.000000
vt 0.125000 0.125000
vt 0.000000 0.125000
vt 0.250000 1.000000
vt 0.125000 1.000000
vt 0.125000 0.000000
vt 0.250000 0.000000
vt 0.250000 1.000000
vt 0.125000 1.000000
vt 0.125000 0.000000
vt 0.250000 0.000000
vt 0.000000 1.000000
vt -0.000000 0.000000
vt 0.000000 1.000000
vt -0.000000 0.000000
vt 0.375000 1.000000
vt 0.375000 0.687500
vt 0.687500 0.687500
vt 0.687500 1.000000
vt 0.687500 0.375000
vt 0.375000 0.687500
vt 0.375000 0.375000
vt 0.375000 1.000000
vt 0.687500 0.687500
vt 0.687500 1.000000
vt 0.375000 1.000000
vt 0.375000 0.687500
vt 0.687500 0.687500
vt 0.687500 1.000000
vt 1.000000 0.375000
vt 1.000000 0.687500
vt 0.687500 0.687500
vt 0.937500 0.312500
vt 1.000000 0.312500
vt 1.000000 0.375000
vt 0.937500 0.375000
vt 0.875000 0.875000
vt 0.875000 0.812500
vt 1.000000 0.687500
vt 1.000000 1.000000
vt 0.812500 0.812500
vt 0.687500 0.687500
vt 0.812500 0.875000
vt 0.687500 1.000000
vt 0.937500 0.312500
vt 1.000000 0.312500
vt 1.000000 0.375000
vt 0.937500 0.375000
vt 0.937500 0.312500
vt 1.000000 0.312500
vt 1.000000 0.375000
vt 0.937500 0.312500
vt 1.000000 0.312500
vt 0.937500 0.375000
vt 0.937500 0.312500
vt 1.000000 0.312500
vt 1.000000 0.375000
vt 0.937500 0.375000
vt 0.250000 0.875000
vt 0.375000 0.875000
vt 0.375000 1.000000
vt 0.250000 1.000000
vt 0.250000 0.875000
vt 0.375000 0.875000
vt 0.375000 1.000000
vt 0.250000 1.000000
vt 0.250000 0.875000
vt 0.375000 0.875000
vt 0.375000 1.000000
vt 0.250000 1.000000
vt 0.250000 0.875000
vt 0.375000 0.875000
vt 0.375000 1.000000
vt 0.250000 1.000000
vt 0.250000 0.875000
vt 0.375000 0.875000
vt 0.375000 1.000000
vt 0.250000 1.000000
vt 0.250000 0.875000
vt 0.375000 0.875000
vt 0.375000 1.000000
vt 0.250000 1.000000
vt 0.250000 0.875000
vt 0.375000 0.875000
vt 0.375000 1.000000
vt 0.250000 1.000000
vt 0.250000 0.875000
vt 0.250000 1.000000
vt 0.375000 1.000000
vt 0.375000 0.875000
vt 0.250000 0.875000
vt 0.250000 1.000000
vt 0.375000 1.000000
vt 0.375000 0.875000
vt 0.250000 0.875000
vt 0.250000 1.000000
vt 0.375000 1.000000
vt 0.375000 0.875000
vt 0.250000 0.875000
vt 0.250000 1.000000
vt 0.375000 1.000000
vt 0.375000 0.875000
vt 0.250000 0.875000
vt 0.250000 1.000000
vt 0.375000 1.000000
vt 0.375000 0.875000
vt 0.250000 0.875000
vt 0.250000 1.000000
vt 0.375000 1.000000
vt 0.375000 0.875000
vt 0.250000 0.875000
vt 0.250000 1.000000
vt 0.375000 1.000000
vt 0.375000 0.875000
vt 1.000000 0.000000
vt 1.000000 1.000000
vt 0.875000 1.000000
vt 0.875000 0.000000
vt 0.750000 1.000000
vt 0.750000 0.000000
vt 0.625000 1.000000
vt 0.625000 0.000000
vt 0.500000 1.000000
vt 0.500000 0.000000
vt 0.125000 0.000000
vt 0.250000 0.000000
vt 0.250000 1.000000
vt 0.125000 1.000000
vt 0.375000 0.000000
vt 0.500000 0.000000
vt 0.500000 1.000000
vt 0.375000 1.000000
vt -0.000000 0.000000
vt 0.000000 1.000000
vn -1.0000 0.0000 0.0000
vn 0.0000 0.0000 -1.0000
vn 1.0000 0.0000 0.0000
vn 0.0000 0.0000 1.0000
vn 0.0000 -1.0000 0.0000
vn 0.0000 1.0000 0.0000
vn 0.0000 0.7071 -0.7071
vn -0.4331 0.0000 0.9014
vn 0.4406 0.0000 0.8977
vn 0.8889 0.0000 0.4582
vn 0.9006 -0.0000 -0.4346
vn 0.0000 0.7071 0.7071
vn 0.0000 -0.7071 0.7071
vn 0.4331 0.0000 -0.9014
vn -0.4406 0.0000 -0.8977
vn -0.8889 0.0000 -0.4582
vn -0.9006 0.0000 0.4346
vn 0.0000 -0.7071 -0.7071
usemtl MAIN
s off
f 1/1/1 2/2/1 4/3/1 3/4/1
f 3/5/2 4/6/2 8/7/2 7/8/2
f 7/8/3 8/7/3 6/9/3 5/10/3
f 5/11/4 6/12/4 2/2/4 1/1/4
f 3/4/5 7/8/5 5/13/5 1/14/5
f 8/15/2 4/16/2 11/17/2 10/18/2
f 2/19/4 6/20/4 9/21/4 12/22/4
f 4/16/1 2/23/1 12/24/1 11/17/1
f 6/20/3 8/25/3 10/26/3 9/21/3
f 25/27/1 33/28/1 34/29/1 27/30/1
f 27/31/2 34/29/2 35/32/2 31/33/2
f 31/34/3 35/32/3 36/35/3 29/36/3
f 29/37/4 36/38/4 33/39/4 25/40/4
f 27/31/5 31/41/5 29/42/5 25/43/5
f 32/44/2 28/45/2 38/46/2 39/47/2
f 26/48/6 28/49/6 34/50/6 33/51/6
f 28/49/6 32/52/6 35/53/6 34/50/6
f 32/52/6 30/54/6 36/55/6 35/53/6
f 30/54/6 26/48/6 33/51/6 36/55/6
f 39/56/6 38/57/6 37/58/6 40/59/6
f 30/60/3 32/61/3 39/62/3 40/59/3
f 28/63/1 26/64/1 37/58/1 38/65/1
f 26/66/4 30/67/4 40/68/4 37/69/4
f 41/70/7 42/71/7 44/72/7 43/73/7
f 45/74/8 46/75/8 48/76/8 47/77/8
f 49/78/8 50/79/8 52/80/8 51/81/8
f 53/82/9 54/83/9 56/84/9 55/85/9
f 57/86/10 58/87/10 60/88/10 59/89/10
f 61/90/11 62/91/11 64/92/11 63/93/11
f 65/94/12 66/95/12 68/96/12 67/97/12
f 69/98/13 71/99/13 72/100/13 70/101/13
f 73/102/14 75/103/14 76/104/14 74/105/14
f 77/106/14 79/107/14 80/108/14 78/109/14
f 81/110/15 83/111/15 84/112/15 82/113/15
f 85/114/16 87/115/16 88/116/16 86/117/16
f 89/118/17 91/119/17 92/120/17 90/121/17
f 93/122/18 95/123/18 96/124/18 94/125/18
usemtl VINES
f 14/126/1 22/127/1 23/128/1 13/129/1
f 13/129/2 23/128/2 16/130/2 15/131/2
f 15/131/3 16/130/3 18/132/3 17/133/3
f 17/133/4 18/132/4 22/134/4 14/135/4
f 16/136/2 23/137/2 24/138/2 20/139/2
f 22/140/4 18/141/4 19/142/4 21/143/4
f 18/144/3 16/136/3 20/139/3 19/145/3
f 23/137/1 22/140/1 21/143/1 24/138/1
