# Blender v2.80 (sub 75) OBJ File: 'wands.blend'
# www.blender.org
mtllib staff_skull.mtl
o STAFF_VAR4_Cube.003
v 0.500000 0.031250 0.500000
v 0.468750 1.750000 0.468750
v 0.531250 1.750000 0.468750
v 0.468750 1.750000 0.531250
v 0.531250 1.750000 0.531250
v 0.468750 0.062500 0.468750
v 0.531250 0.062500 0.468750
v 0.531250 0.062500 0.531250
v 0.468750 0.062500 0.531250
v 0.468750 0.125000 0.468750
v 0.468750 1.625000 0.468750
v 0.468750 1.687500 0.468750
v 0.531250 1.687500 0.468750
v 0.531250 1.625000 0.468750
v 0.531250 0.125000 0.468750
v 0.531250 1.687500 0.531250
v 0.531250 1.625000 0.531250
v 0.531250 0.125000 0.531250
v 0.468750 1.687500 0.531250
v 0.468750 1.625000 0.531250
v 0.468750 0.125000 0.531250
v 0.468750 0.625000 0.468750
v 0.468750 1.125000 0.468750
v 0.531250 1.125000 0.531250
v 0.531250 0.625000 0.531250
v 0.468750 1.125000 0.531250
v 0.468750 0.625000 0.531250
v 0.531250 1.125000 0.468750
v 0.531250 0.625000 0.468750
v 0.553347 1.687500 0.446653
v 0.553347 1.625000 0.446653
v 0.553347 1.687500 0.553347
v 0.553347 1.625000 0.553347
v 0.446653 1.687500 0.553347
v 0.446653 1.625000 0.553347
v 0.446653 1.687500 0.446653
v 0.446653 1.625000 0.446653
v 0.312500 2.215668 0.373806
v 0.687500 2.215668 0.373806
v 0.312500 2.118611 0.736029
v 0.687500 2.118611 0.736029
v 0.312500 1.913816 0.292925
v 0.312500 1.974187 0.309102
v 0.312500 2.034557 0.325278
v 0.687500 2.034557 0.325278
v 0.687500 1.974187 0.309102
v 0.687500 1.913816 0.292925
v 0.687500 1.937500 0.687500
v 0.312500 1.937500 0.687500
v 0.687500 2.150964 0.615288
v 0.312500 2.150964 0.615288
v 0.312500 1.849112 0.534407
v 0.312500 1.909482 0.550583
v 0.312500 1.969852 0.566759
v 0.687500 1.849112 0.534407
v 0.687500 1.909482 0.550583
v 0.687500 1.969852 0.566759
v 0.500000 2.215668 0.373806
v 0.500000 2.118611 0.736029
v 0.500000 1.937500 0.687500
v 0.375000 1.913816 0.292925
v 0.437500 1.913816 0.292925
v 0.500000 1.913816 0.292925
v 0.562500 1.913816 0.292925
v 0.625000 1.913816 0.292925
v 0.375000 1.974187 0.309102
v 0.437500 1.974187 0.309102
v 0.500000 1.974187 0.309102
v 0.562500 1.974187 0.309102
v 0.625000 1.974187 0.309102
v 0.500000 2.034557 0.325278
v 0.500000 2.150964 0.615288
v 0.312500 1.672638 0.362493
v 0.687500 1.672638 0.362493
v 0.312500 1.754525 0.728443
v 0.687500 1.754525 0.728443
v 0.312500 1.733630 0.348845
v 0.312500 1.794621 0.335198
v 0.687500 1.733630 0.348845
v 0.687500 1.937500 0.687500
v 0.312500 1.937500 0.687500
v 0.312500 1.788221 0.592812
v 0.312500 1.910204 0.565517
v 0.687500 1.788221 0.592812
v 0.687500 1.910204 0.565517
v 0.500000 1.672638 0.362493
v 0.375000 1.733630 0.348845
v 0.437500 1.733630 0.348845
v 0.500000 1.733630 0.348845
v 0.562500 1.733630 0.348845
v 0.625000 1.733630 0.348845
v 0.375000 1.794621 0.335198
v 0.437500 1.794621 0.335198
v 0.500000 1.794621 0.335198
v 0.562500 1.794621 0.335198
v 0.625000 1.794621 0.335198
v 0.625000 1.686286 0.423485
v 0.500000 1.686286 0.423485
v 0.375000 1.686286 0.423485
v 0.625000 1.740877 0.667452
v 0.375000 1.740877 0.667452
v 0.375000 1.750000 0.375000
v 0.375000 2.000000 0.375000
v 0.625000 1.750000 0.375000
v 0.625000 2.000000 0.375000
v 0.375000 1.750000 0.625000
v 0.375000 2.000000 0.625000
v 0.625000 1.750000 0.625000
v 0.625000 2.000000 0.625000
v 0.500000 1.750000 0.375000
v 0.500000 2.000000 0.375000
v 0.500000 1.750000 0.625000
v 0.500000 2.000000 0.625000
v 0.625000 1.750000 0.500000
v 0.625000 2.000000 0.500000
v 0.375000 1.750000 0.500000
v 0.375000 2.000000 0.500000
v 0.500000 2.000000 0.500000
v 0.500000 1.750000 0.500000
v 0.375000 1.875000 0.375000
v 0.625000 1.875000 0.375000
v 0.625000 1.875000 0.625000
v 0.375000 1.875000 0.625000
v 0.500000 1.875000 0.625000
v 0.500000 1.875000 0.375000
v 0.375000 1.875000 0.500000
v 0.625000 1.875000 0.500000
v 0.312500 2.215668 0.373806
v 0.687500 2.215668 0.373806
v 0.312500 2.118611 0.736029
v 0.687500 2.118611 0.736029
v 0.312500 1.913816 0.292925
v 0.312500 1.974187 0.309102
v 0.312500 2.034557 0.325278
v 0.687500 2.034557 0.325278
v 0.687500 1.974187 0.309102
v 0.687500 1.913816 0.292925
v 0.687500 1.937500 0.687500
v 0.312500 1.937500 0.687500
v 0.687500 2.150964 0.615288
v 0.312500 2.150964 0.615288
v 0.312500 1.849112 0.534407
v 0.312500 1.909482 0.550583
v 0.312500 1.969852 0.566759
v 0.687500 1.849112 0.534407
v 0.687500 1.909482 0.550583
v 0.687500 1.969852 0.566759
v 0.500000 2.215668 0.373806
v 0.500000 2.118611 0.736029
v 0.500000 1.937500 0.687500
v 0.375000 1.913816 0.292925
v 0.437500 1.913816 0.292925
v 0.500000 1.913816 0.292925
v 0.562500 1.913816 0.292925
v 0.625000 1.913816 0.292925
v 0.375000 1.974187 0.309102
v 0.437500 1.974187 0.309102
v 0.500000 1.974187 0.309102
v 0.562500 1.974187 0.309102
v 0.625000 1.974187 0.309102
v 0.500000 2.034557 0.325278
v 0.500000 2.150964 0.615288
v 0.312500 1.672638 0.362493
v 0.687500 1.672638 0.362493
v 0.312500 1.754525 0.728443
v 0.687500 1.754525 0.728443
v 0.312500 1.733630 0.348845
v 0.312500 1.794621 0.335198
v 0.687500 1.733630 0.348845
v 0.687500 1.937500 0.687500
v 0.312500 1.937500 0.687500
v 0.312500 1.788221 0.592812
v 0.312500 1.910204 0.565517
v 0.687500 1.788221 0.592812
v 0.687500 1.910204 0.565517
v 0.500000 1.672638 0.362493
v 0.375000 1.733630 0.348845
v 0.437500 1.733630 0.348845
v 0.500000 1.733630 0.348845
v 0.562500 1.733630 0.348845
v 0.625000 1.733630 0.348845
v 0.375000 1.794621 0.335198
v 0.437500 1.794621 0.335198
v 0.500000 1.794621 0.335198
v 0.562500 1.794621 0.335198
v 0.625000 1.794621 0.335198
v 0.625000 1.686286 0.423485
v 0.500000 1.686286 0.423485
v 0.375000 1.686286 0.423485
v 0.625000 1.740877 0.667452
v 0.375000 1.740877 0.667452
vt 0.250000 0.750000
vt 0.312500 0.750000
vt 0.312500 0.812500
vt 0.250000 0.812500
vt 0.250000 0.562500
vt 0.312500 0.562500
vt 0.312500 0.625000
vt 0.250000 0.625000
vt 0.312500 0.687500
vt 0.250000 0.687500
vt 0.250000 0.625000
vt 0.312500 0.687500
vt 0.250000 0.687500
vt 0.250000 0.562500
vt 0.312500 0.625000
vt 0.250000 0.625000
vt 0.250000 0.500000
vt 0.312500 0.562500
vt 0.250000 0.562500
vt 0.312500 0.625000
vt 0.250000 0.625000
vt 0.375000 0.812500
vt 0.375000 0.875000
vt 0.312500 0.875000
vt 0.312500 0.812500
vt 0.411612 0.588388
vt 0.338388 0.588388
vt 0.312500 0.562500
vt 0.437500 0.562500
vt 0.437500 0.812500
vt 0.437500 0.875000
vt 0.338388 0.661612
vt 0.312500 0.687500
vt 0.500000 0.812500
vt 0.500000 0.875000
vt 0.338388 0.588388
vt 0.411612 0.588388
vt 0.437500 0.562500
vt 0.312500 0.562500
vt 0.250000 0.875000
vt 0.250000 0.812500
vt 0.411612 0.661612
vt 0.437500 0.687500
vt 0.062500 0.500000
vt 0.062500 1.000000
vt 0.000000 1.000000
vt 0.000000 0.500000
vt 0.062500 0.500000
vt 0.062500 1.000000
vt 0.000000 1.000000
vt 0.000000 0.500000
vt 0.250000 0.500000
vt 0.250000 1.000000
vt 0.187500 1.000000
vt 0.187500 0.500000
vt 0.250000 0.500000
vt 0.250000 1.000000
vt 0.187500 1.000000
vt 0.187500 0.500000
vt 0.125000 1.000000
vt 0.125000 0.500000
vt 0.125000 1.000000
vt 0.125000 0.500000
vt 0.062500 0.500000
vt 0.062500 1.000000
vt 0.000000 1.000000
vt 0.000000 0.500000
vt 0.250000 0.500000
vt 0.250000 1.000000
vt 0.187500 1.000000
vt 0.187500 0.500000
vt 0.125000 1.000000
vt 0.125000 0.500000
vt 0.312500 0.812500
vt 0.312500 0.875000
vt 0.437500 0.875000
vt 0.437500 0.812500
vt 0.437500 0.812500
vt 0.437500 0.875000
vt 0.500000 0.812500
vt 0.500000 0.875000
vt 0.375000 0.875000
vt 0.375000 0.812500
vt 0.375000 0.812500
vt 0.375000 0.875000
vt 0.338388 0.661612
vt 0.312500 0.687500
vt 0.411612 0.661612
vt 0.437500 0.687500
vt 0.250000 0.812500
vt 0.250000 0.687500
vt 0.375000 0.687500
vt 0.375000 0.812500
vt 0.250000 0.687500
vt 0.375000 0.687500
vt 0.375000 0.812500
vt 0.250000 0.812500
vt 0.250000 0.812500
vt 0.250000 0.687500
vt 0.375000 0.687500
vt 0.375000 0.812500
vt 0.250000 0.812500
vt 0.250000 0.687500
vt 0.375000 0.687500
vt 0.375000 0.812500
vt 0.250000 0.812500
vt 0.250000 0.687500
vt 0.375000 0.687500
vt 0.375000 0.812500
vt 0.250000 0.812500
vt 0.375000 0.812500
vt 0.375000 0.812500
vt 0.375000 0.812500
vt 0.375000 0.687500
vt 0.375000 0.812500
vt 0.375000 0.687500
vt 0.375000 0.687500
vt 0.250000 0.687500
vt 0.375000 0.687500
vt 0.250000 0.812500
vt 0.375000 0.812500
vt 0.375000 0.812500
vt 0.375000 0.687500
vt 0.250000 0.687500
vt 0.375000 0.812500
vt 0.000000 1.000000
vt 0.000000 0.812500
vt 0.187500 0.812500
vt 0.187500 1.000000
vt 0.812500 1.000000
vt 0.687500 1.000000
vt 0.687500 0.812500
vt 0.812500 0.812500
vt 0.062500 0.687500
vt 0.062500 0.750000
vt 0.000000 0.750000
vt 0.000000 0.687500
vt 0.437500 0.812500
vt 0.687500 0.812500
vt 0.687500 0.750000
vt 0.437500 0.750000
vt 0.687500 0.687500
vt 0.437500 0.687500
vt 0.187500 0.312500
vt 0.187500 0.187500
vt 0.375000 0.187500
vt 0.375000 0.312500
vt 0.437500 0.812500
vt 0.437500 0.750000
vt 0.687500 0.750000
vt 0.437500 0.687500
vt 0.687500 0.687500
vt 0.437500 1.000000
vt 0.437500 1.000000
vt 0.687500 1.000000
vt 0.000000 0.312500
vt 0.000000 0.187500
vt 0.375000 0.812500
vt 0.375000 1.000000
vt 0.250000 0.750000
vt 0.312500 0.750000
vt 0.125000 0.750000
vt 0.187500 0.562500
vt 0.187500 0.375000
vt 0.375000 0.375000
vt 0.375000 0.562500
vt 0.187500 0.750000
vt 0.312500 0.687500
vt 0.250000 0.687500
vt 0.187500 0.687500
vt 0.125000 0.687500
vt 0.187500 0.562500
vt 0.000000 0.562500
vt 0.375000 0.750000
vt 0.000000 0.562500
vt 0.000000 0.375000
vt 0.375000 0.562500
vt 0.812500 1.000000
vt 0.812500 0.812500
vt 0.437500 0.187500
vt 0.812500 0.187500
vt 0.750000 0.250000
vt 0.500000 0.250000
vt 0.062500 0.687500
vt 0.000000 0.687500
vt 0.000000 0.625000
vt 0.687500 0.687500
vt 0.437500 0.687500
vt 0.437500 0.625000
vt 0.812500 0.625000
vt 0.312500 0.687500
vt 0.250000 0.687500
vt 0.187500 0.625000
vt 0.375000 0.625000
vt 0.812500 0.812500
vt 0.687500 0.812500
vt 0.125000 0.687500
vt 0.500000 0.500000
vt 0.750000 0.500000
vt 0.812500 0.562500
vt 0.437500 0.562500
vt 0.500000 0.375000
vt 0.437500 0.375000
vt 0.375000 0.687500
vt 0.375000 0.750000
vt 0.312500 0.750000
vt 0.250000 0.750000
vt 0.187500 0.750000
vt 0.187500 0.687500
vt 0.125000 0.750000
vt 0.062500 0.750000
vt 0.437500 0.687500
vt 0.687500 0.687500
vt 0.812500 0.625000
vt 0.437500 0.625000
vt 0.000000 0.187500
vt 0.375000 0.187500
vt 0.375000 0.375000
vt 0.000000 0.375000
vt 0.687500 0.812500
vt 0.812500 0.812500
vt 0.000000 1.000000
vt 0.187500 1.000000
vt 0.187500 0.812500
vt 0.000000 0.812500
vt 0.812500 1.000000
vt 0.812500 0.812500
vt 0.687500 0.812500
vt 0.687500 1.000000
vt 0.062500 0.687500
vt 0.000000 0.687500
vt 0.000000 0.750000
vt 0.062500 0.750000
vt 0.437500 0.812500
vt 0.437500 0.750000
vt 0.687500 0.750000
vt 0.687500 0.812500
vt 0.437500 0.687500
vt 0.687500 0.687500
vt 0.187500 0.312500
vt 0.375000 0.312500
vt 0.375000 0.187500
vt 0.187500 0.187500
vt 0.687500 0.750000
vt 0.437500 0.750000
vt 0.437500 0.812500
vt 0.687500 0.687500
vt 0.437500 0.687500
vt 0.437500 1.000000
vt 0.437500 1.000000
vt 0.687500 1.000000
vt 0.000000 0.187500
vt 0.000000 0.312500
vt 0.375000 1.000000
vt 0.375000 0.812500
vt 0.312500 0.750000
vt 0.250000 0.750000
vt 0.125000 0.750000
vt 0.187500 0.562500
vt 0.375000 0.562500
vt 0.375000 0.375000
vt 0.187500 0.375000
vt 0.187500 0.750000
vt 0.312500 0.687500
vt 0.250000 0.687500
vt 0.187500 0.687500
vt 0.125000 0.687500
vt 0.000000 0.562500
vt 0.187500 0.562500
vt 0.375000 0.750000
vt 0.000000 0.562500
vt 0.000000 0.375000
vt 0.375000 0.562500
vt 0.812500 0.812500
vt 0.812500 1.000000
vt 0.437500 0.187500
vt 0.500000 0.250000
vt 0.750000 0.250000
vt 0.812500 0.187500
vt 0.062500 0.687500
vt 0.000000 0.625000
vt 0.000000 0.687500
vt 0.687500 0.687500
vt 0.812500 0.625000
vt 0.437500 0.625000
vt 0.437500 0.687500
vt 0.312500 0.687500
vt 0.375000 0.625000
vt 0.187500 0.625000
vt 0.250000 0.687500
vt 0.687500 0.812500
vt 0.812500 0.812500
vt 0.125000 0.687500
vt 0.500000 0.500000
vt 0.437500 0.562500
vt 0.812500 0.562500
vt 0.750000 0.500000
vt 0.437500 0.375000
vt 0.500000 0.375000
vt 0.375000 0.687500
vt 0.312500 0.750000
vt 0.375000 0.750000
vt 0.187500 0.687500
vt 0.187500 0.750000
vt 0.250000 0.750000
vt 0.062500 0.750000
vt 0.125000 0.750000
vt 0.437500 0.687500
vt 0.437500 0.625000
vt 0.812500 0.625000
vt 0.687500 0.687500
vt 0.000000 0.187500
vt 0.000000 0.375000
vt 0.375000 0.375000
vt 0.375000 0.187500
vt 0.812500 0.812500
vt 0.687500 0.812500
vn 0.0000 0.0000 -1.0000
vn 1.0000 0.0000 0.0000
vn 0.0000 0.0000 1.0000
vn -1.0000 0.0000 0.0000
vn -0.7071 -0.7071 0.0000
vn 0.0000 -0.7071 0.7071
vn 0.7071 -0.7071 0.0000
vn 0.0000 -0.7071 -0.7071
vn 0.0000 1.0000 0.0000
vn 0.0000 -1.0000 0.0000
vn 0.0000 0.2588 -0.9659
vn 0.0000 0.9659 0.2588
vn 0.0000 -0.2588 0.9659
vn 0.0000 -0.9759 0.2184
vn 0.0000 -0.2184 -0.9759
vn -0.0000 0.2184 0.9759
vn 0.0000 -0.9659 -0.2588
vn -0.0000 0.9759 -0.2184
usemtl MAIN
s off
f 12/1/1 2/2/1 3/3/1 13/4/1
f 13/5/2 3/6/2 5/7/2 16/8/2
f 16/8/3 5/7/3 4/9/3 19/10/3
f 19/10/4 4/9/4 2/2/4 12/1/4
f 1/11/5 9/12/5 6/13/5
f 1/14/6 8/15/6 9/16/6
f 1/17/7 7/18/7 8/19/7
f 1/14/8 6/20/8 7/21/8
f 9/22/4 21/23/4 10/24/4 6/25/4
f 19/26/9 12/27/9 36/28/9 34/29/9
f 8/30/3 18/31/3 21/23/3 9/22/3
f 12/27/9 13/32/9 30/33/9 36/28/9
f 7/34/2 15/35/2 18/31/2 8/30/2
f 11/36/10 20/37/10 35/38/10 37/39/10
f 6/25/1 10/24/1 15/40/1 7/41/1
f 16/42/9 19/26/9 34/29/9 32/43/9
f 10/44/1 22/45/1 29/46/1 15/47/1
f 22/48/1 23/49/1 28/50/1 29/51/1
f 15/52/2 29/53/2 25/54/2 18/55/2
f 29/56/2 28/57/2 24/58/2 25/59/2
f 18/55/3 25/54/3 27/60/3 21/61/3
f 25/59/3 24/58/3 26/62/3 27/63/3
f 21/61/4 27/60/4 22/45/4 10/44/4
f 27/63/4 26/62/4 23/49/4 22/48/4
f 23/64/1 11/65/1 14/66/1 28/67/1
f 28/68/2 14/69/2 17/70/2 24/71/2
f 24/71/3 17/70/3 20/72/3 26/73/3
f 26/73/4 20/72/4 11/65/4 23/64/4
f 35/74/4 34/75/4 36/76/4 37/77/4
f 33/78/3 32/79/3 34/75/3 35/74/3
f 31/80/2 30/81/2 32/82/2 33/83/2
f 37/84/1 36/85/1 30/81/1 31/80/1
f 13/32/9 16/42/9 32/43/9 30/33/9
f 14/86/10 11/36/10 37/39/10 31/87/10
f 20/37/10 17/88/10 33/89/10 35/38/10
f 17/88/10 14/86/10 31/87/10 33/89/10
f 125/90/1 111/91/1 105/92/1 121/93/1
f 127/94/2 115/95/2 109/96/2 122/97/2
f 124/98/3 113/99/3 107/100/3 123/101/3
f 126/102/4 117/103/4 103/104/4 120/105/4
f 119/106/10 112/107/10 106/108/10 116/109/10
f 118/110/9 111/91/9 103/104/9 117/111/9
f 115/112/9 105/92/9 111/91/9 118/110/9
f 114/113/10 108/114/10 112/107/10 119/106/10
f 122/115/3 109/116/3 113/99/3 124/98/3
f 120/105/1 103/104/1 111/91/1 125/90/1
f 104/117/10 114/113/10 119/106/10 110/118/10
f 109/116/9 115/112/9 118/110/9 113/99/9
f 113/99/9 118/110/9 117/111/9 107/100/9
f 110/118/10 119/106/10 116/109/10 102/119/10
f 123/101/4 107/100/4 117/103/4 126/102/4
f 121/120/2 105/121/2 115/95/2 127/94/2
f 104/122/2 121/120/2 127/94/2 114/123/2
f 106/108/4 123/101/4 126/102/4 116/124/4
f 102/119/1 120/105/1 125/90/1 110/118/1
f 108/114/3 122/115/3 124/98/3 112/107/3
f 116/124/4 126/102/4 120/105/4 102/119/4
f 112/107/3 124/98/3 123/101/3 106/108/3
f 114/123/2 127/94/2 122/97/2 108/125/2
f 110/118/1 125/90/1 121/93/1 104/117/1
usemtl SKULL
f 39/126/11 45/127/11 71/128/11 58/129/11
f 40/130/4 51/131/4 54/132/4 49/133/4
f 65/134/11 70/135/11 46/136/11 47/137/11
f 45/138/2 57/139/2 56/140/2 46/141/2
f 46/141/2 56/140/2 55/142/2 47/143/2
f 72/144/12 59/145/12 41/146/12 50/147/12
f 54/132/4 44/148/4 43/149/4 53/150/4
f 53/150/4 43/149/4 42/151/4 52/152/4
f 51/131/4 38/153/4 44/148/4 54/132/4
f 39/154/2 50/155/2 57/139/2 45/138/2
f 72/144/12 51/156/12 40/157/12 59/145/12
f 58/129/11 71/128/11 44/158/11 38/159/11
f 44/158/11 71/128/11 67/160/11 66/161/11
f 71/128/11 45/127/11 70/135/11 69/162/11
f 59/163/13 60/164/13 48/165/13 41/166/13
f 68/167/11 67/160/11 71/128/11
f 61/168/11 66/161/11 67/160/11 62/169/11
f 46/136/11 70/135/11 45/127/11
f 63/170/11 68/167/11 69/162/11 64/171/11
f 68/167/11 71/128/11 69/162/11
f 51/156/12 72/144/12 58/172/12 38/173/12
f 43/174/11 44/158/11 66/161/11
f 40/175/13 49/176/13 60/164/13 59/163/13
f 58/172/12 72/144/12 50/147/12 39/177/12
f 57/139/2 50/155/2 41/178/2 48/179/2
f 74/180/14 76/181/14 100/182/14 97/183/14
f 91/184/15 79/185/15 74/186/15
f 82/187/4 77/188/4 73/189/4 75/190/4
f 87/191/15 88/192/15 86/193/15 73/194/15
f 82/187/4 75/190/4 81/195/4 83/196/4
f 90/197/15 91/184/15 74/186/15 86/193/15
f 99/198/14 101/199/14 75/200/14 73/201/14
f 74/180/14 97/183/14 98/202/14 86/203/14
f 98/202/14 99/198/14 73/201/14 86/203/14
f 77/204/15 78/205/15 92/206/15 87/191/15
f 88/192/15 93/207/15 94/208/15 89/209/15
f 90/197/15 95/210/15 96/211/15 91/184/15
f 73/194/15 77/204/15 87/191/15
f 88/192/15 89/209/15 86/193/15
f 86/193/15 89/209/15 90/197/15
f 79/212/2 84/213/2 76/214/2 74/215/2
f 75/216/16 76/217/16 80/218/16 81/219/16
f 76/214/2 84/213/2 85/220/2 80/221/2
f 76/181/14 75/200/14 101/199/14 100/182/14
f 129/222/13 148/223/13 161/224/13 135/225/13
f 130/226/2 139/227/2 144/228/2 141/229/2
f 155/230/13 137/231/13 136/232/13 160/233/13
f 135/234/4 136/235/4 146/236/4 147/237/4
f 136/235/4 137/238/4 145/239/4 146/236/4
f 162/240/17 140/241/17 131/242/17 149/243/17
f 144/228/2 143/244/2 133/245/2 134/246/2
f 143/244/2 142/247/2 132/248/2 133/245/2
f 141/229/2 144/228/2 134/246/2 128/249/2
f 129/250/4 135/234/4 147/237/4 140/251/4
f 162/240/17 149/243/17 130/252/17 141/253/17
f 148/223/13 128/254/13 134/255/13 161/224/13
f 134/255/13 156/256/13 157/257/13 161/224/13
f 161/224/13 159/258/13 160/233/13 135/225/13
f 149/259/11 131/260/11 138/261/11 150/262/11
f 158/263/13 161/224/13 157/257/13
f 151/264/13 152/265/13 157/257/13 156/256/13
f 136/232/13 135/225/13 160/233/13
f 153/266/13 154/267/13 159/258/13 158/263/13
f 158/263/13 159/258/13 161/224/13
f 141/253/17 128/268/17 148/269/17 162/240/17
f 133/270/13 156/256/13 134/255/13
f 130/271/11 149/259/11 150/262/11 139/272/11
f 148/269/17 129/273/17 140/241/17 162/240/17
f 147/237/4 138/274/4 131/275/4 140/251/4
f 164/276/18 187/277/18 190/278/18 166/279/18
f 181/280/16 164/281/16 169/282/16
f 172/283/2 165/284/2 163/285/2 167/286/2
f 177/287/16 163/288/16 176/289/16 178/290/16
f 172/283/2 173/291/2 171/292/2 165/284/2
f 180/293/16 176/289/16 164/281/16 181/280/16
f 189/294/18 163/295/18 165/296/18 191/297/18
f 164/276/18 176/298/18 188/299/18 187/277/18
f 188/299/18 176/298/18 163/295/18 189/294/18
f 167/300/16 177/287/16 182/301/16 168/302/16
f 178/290/16 179/303/16 184/304/16 183/305/16
f 180/293/16 181/280/16 186/306/16 185/307/16
f 163/288/16 177/287/16 167/300/16
f 178/290/16 176/289/16 179/303/16
f 176/289/16 180/293/16 179/303/16
f 169/308/4 164/309/4 166/310/4 174/311/4
f 165/312/15 171/313/15 170/314/15 166/315/15
f 166/310/4 170/316/4 175/317/4 174/311/4
f 166/279/18 190/278/18 191/297/18 165/296/18
