# Blender v2.80 (sub 75) OBJ File: 'wands.blend'
# www.blender.org
mtllib staff_netherquartz.mtl
o STAFF_VAR9_Cube.029
v 0.500000 0.031250 0.500000
v 0.468750 0.062500 0.531250
v 0.468750 0.062500 0.468750
v 0.531250 0.062500 0.468750
v 0.531250 0.062500 0.531250
v 0.468750 0.125000 0.531250
v 0.468750 1.562500 0.531250
v 0.468750 1.562500 0.468750
v 0.468750 0.125000 0.468750
v 0.531250 1.562500 0.468750
v 0.531250 0.125000 0.468750
v 0.531250 1.562500 0.531250
v 0.531250 0.125000 0.531250
v 0.468750 0.625000 0.531250
v 0.468750 1.125000 0.531250
v 0.531250 1.125000 0.468750
v 0.531250 0.625000 0.468750
v 0.531250 1.125000 0.531250
v 0.531250 0.625000 0.531250
v 0.468750 1.125000 0.468750
v 0.468750 0.625000 0.468750
v 0.437500 1.625000 0.437500
v 0.562500 1.625000 0.437500
v 0.562500 1.625000 0.562500
v 0.437500 1.625000 0.562500
v 0.531250 1.500000 0.468750
v 0.468750 1.500000 0.468750
v 0.531250 1.500000 0.531250
v 0.468750 1.500000 0.531250
v 0.531250 0.187500 0.468750
v 0.531250 0.187500 0.531250
v 0.468750 0.187500 0.468750
v 0.468750 0.187500 0.531250
v 0.406250 1.625000 0.406250
v 0.593750 1.625000 0.406250
v 0.593750 1.625000 0.593750
v 0.406250 1.625000 0.593750
v 0.406250 1.687500 0.406250
v 0.593750 1.687500 0.406250
v 0.406250 1.687500 0.593750
v 0.593750 1.687500 0.593750
v 0.437500 1.687500 0.437500
v 0.437500 1.812500 0.437500
v 0.562500 1.687500 0.437500
v 0.562500 1.812500 0.437500
v 0.437500 1.687500 0.562500
v 0.437500 1.812500 0.562500
v 0.562500 1.687500 0.562500
v 0.562500 1.812500 0.562500
v 0.500007 1.687500 0.437500
v 0.500007 1.812500 0.437500
v 0.500007 1.687500 0.562500
v 0.500007 1.812500 0.562500
v 0.562500 1.687500 0.500000
v 0.562500 1.812500 0.500000
v 0.437500 1.687500 0.500000
v 0.437500 1.812500 0.500000
v 0.500007 1.812500 0.500000
v 0.500007 1.875000 0.437500
v 0.562500 1.875000 0.437500
v 0.562500 1.875000 0.500000
v 0.562500 1.875000 0.562500
v 0.500007 1.875000 0.562500
v 0.437500 1.875000 0.562500
v 0.500007 1.875000 0.500000
v 0.437500 1.875000 0.500000
v 0.562500 1.937500 0.500000
v 0.562500 1.937500 0.562500
v 0.500007 1.937500 0.562500
v 0.500007 1.937500 0.500000
v 0.468750 1.812500 0.468750
v 0.468750 2.000000 0.468750
v 0.531250 1.812500 0.468750
v 0.531250 2.000000 0.468750
v 0.468750 1.812500 0.531250
v 0.468750 2.000000 0.531250
v 0.531250 1.812500 0.531250
v 0.531250 2.000000 0.531250
vt 0.375000 0.875000
vt 0.375000 0.812500
vt 0.437500 0.812500
vt 0.437500 0.875000
vt 0.312500 0.875000
vt 0.312500 0.812500
vt 0.250000 0.875000
vt 0.250000 0.812500
vt 0.500000 0.812500
vt 0.500000 0.875000
vt 0.062500 0.500000
vt 0.062500 1.000000
vt 0.000000 1.000000
vt 0.000000 0.500000
vt 0.250000 0.500000
vt 0.250000 1.000000
vt 0.187500 1.000000
vt 0.187500 0.500000
vt 0.125000 1.000000
vt 0.125000 0.500000
vt 0.437500 0.875000
vt 0.437500 0.812500
vt 0.500000 0.812500
vt 0.500000 0.875000
vt 0.250000 0.875000
vt 0.250000 0.812500
vt 0.312500 0.812500
vt 0.312500 0.875000
vt 0.375000 0.812500
vt 0.375000 0.875000
vt 0.250000 0.656250
vt 0.312500 0.687500
vt 0.312500 0.562500
vt 0.250000 0.593750
vt 0.250000 0.593750
vt 0.312500 0.562500
vt 0.250000 0.531250
vt 0.312500 0.500000
vt 0.312500 0.625000
vt 0.312500 0.625000
vt 0.125000 0.500000
vt 0.125000 0.875000
vt 0.062500 0.875000
vt 0.062500 0.500000
vt 0.187500 0.500000
vt 0.187500 0.875000
vt 0.250000 0.500000
vt 0.000000 0.875000
vt 0.000000 0.500000
vt 0.250000 0.687500
vt 0.312500 0.687500
vt 0.312500 0.750000
vt 0.250000 0.750000
vt 0.125000 0.562500
vt 0.125000 1.000000
vt 0.062500 1.000000
vt 0.062500 0.562500
vt 0.250000 0.625000
vt 0.312500 0.625000
vt 0.187500 0.562500
vt 0.187500 1.000000
vt 0.250000 0.562500
vt 0.312500 0.562500
vt 0.250000 0.562500
vt 0.250000 1.000000
vt 0.312500 0.812500
vt 0.000000 1.000000
vt 0.000000 0.562500
vt 0.250000 0.812500
vt 0.437500 0.812500
vt 0.437500 0.875000
vt 0.250000 0.875000
vt 0.250000 0.875000
vt 0.437500 0.875000
vt 0.437500 0.812500
vt 0.250000 0.812500
vt 0.250000 0.812500
vt 0.437500 0.812500
vt 0.437500 0.875000
vt 0.250000 0.875000
vt 0.250000 0.812500
vt 0.437500 0.812500
vt 0.437500 0.875000
vt 0.250000 0.875000
vt 0.500000 0.687500
vt 0.312500 0.687500
vt 0.312500 0.500000
vt 0.500000 0.500000
vt 0.312500 0.500000
vt 0.500000 0.500000
vt 0.500000 0.687500
vt 0.312500 0.687500
vt 0.750000 0.562500
vt 0.750000 0.687500
vt 0.687500 0.687500
vt 0.687500 0.562500
vt 0.750000 0.500000
vt 0.750000 0.625000
vt 0.687500 0.625000
vt 0.687500 0.500000
vt 0.750000 0.562500
vt 0.750000 0.687500
vt 0.687500 0.687500
vt 0.687500 0.562500
vt 0.750000 0.625000
vt 0.750000 0.750000
vt 0.687500 0.750000
vt 0.687500 0.625000
vt 0.750000 0.750000
vt 0.687500 0.750000
vt 0.750000 0.812500
vt 0.687500 0.812500
vt 0.750000 0.500000
vt 0.750000 0.625000
vt 0.687500 0.625000
vt 0.687500 0.500000
vt 0.750000 0.625000
vt 0.750000 0.750000
vt 0.687500 0.750000
vt 0.687500 0.625000
vt 0.687500 0.687500
vt 0.750000 0.687500
vt 0.750000 0.750000
vt 0.687500 0.750000
vt 0.750000 0.687500
vt 0.687500 0.687500
vt 0.750000 0.562500
vt 0.750000 0.687500
vt 0.687500 0.687500
vt 0.687500 0.562500
vt 0.750000 0.562500
vt 0.750000 0.687500
vt 0.687500 0.687500
vt 0.687500 0.562500
vt 0.687500 0.750000
vt 0.750000 0.750000
vt 0.750000 0.812500
vt 0.687500 0.812500
vt 0.687500 0.750000
vt 0.750000 0.812500
vt 0.687500 0.812500
vt 0.750000 0.750000
vt 0.687500 0.750000
vt 0.750000 0.687500
vt 0.687500 0.687500
vt 0.687500 0.687500
vt 0.750000 0.687500
vt 0.750000 0.750000
vt 0.687500 0.750000
vt 0.750000 0.750000
vt 0.687500 0.750000
vt 0.750000 0.750000
vt 0.687500 0.750000
vt 0.750000 0.812500
vt 0.687500 0.812500
vt 0.687500 0.687500
vt 0.750000 0.687500
vt 0.750000 0.750000
vt 0.687500 0.750000
vt 0.687500 0.687500
vt 0.750000 0.687500
vt 0.750000 0.750000
vt 0.687500 0.750000
vt 0.750000 0.750000
vt 0.687500 0.750000
vt 0.750000 0.625000
vt 0.750000 0.812500
vt 0.687500 0.812500
vt 0.687500 0.625000
vt 0.750000 0.812500
vt 0.750000 0.625000
vt 0.687500 0.625000
vt 0.687500 0.812500
vt 0.750000 0.812500
vt 0.750000 0.625000
vt 0.687500 0.812500
vt 0.687500 0.625000
vt 0.750000 0.812500
vt 0.750000 0.875000
vt 0.687500 0.875000
vt 0.250000 0.625000
vt 0.312500 0.687500
vt 0.250000 0.687500
vt 0.250000 0.562500
vt 0.312500 0.625000
vt 0.250000 0.625000
vt 0.250000 0.500000
vt 0.312500 0.562500
vt 0.250000 0.562500
vt 0.312500 0.625000
vt 0.250000 0.625000
vn 0.0000 0.0000 1.0000
vn 1.0000 0.0000 0.0000
vn 0.0000 0.0000 -1.0000
vn -1.0000 0.0000 0.0000
vn 0.0000 -0.4472 0.8944
vn 0.8944 -0.4472 0.0000
vn 0.0000 -0.4472 -0.8944
vn -0.8944 -0.4472 0.0000
vn 0.0000 1.0000 0.0000
vn 0.0000 -1.0000 0.0000
vn 0.0000 -0.7071 0.7071
vn 0.7071 -0.7071 0.0000
vn 0.0000 -0.7071 -0.7071
vn -0.7071 -0.7071 0.0000
usemtl MAIN
s off
f 5/1/1 13/2/1 6/3/1 2/4/1
f 4/5/2 11/6/2 13/2/2 5/1/2
f 3/7/3 9/8/3 11/6/3 4/5/3
f 2/4/4 6/3/4 9/9/4 3/10/4
f 14/11/4 15/12/4 20/13/4 21/14/4
f 21/15/3 20/16/3 16/17/3 17/18/3
f 17/18/2 16/17/2 18/19/2 19/20/2
f 19/20/1 18/19/1 15/12/1 14/11/1
f 29/21/4 7/22/4 8/23/4 27/24/4
f 27/25/3 8/26/3 10/27/3 26/28/3
f 26/28/2 10/27/2 12/29/2 28/30/2
f 28/30/1 12/29/1 7/22/1 29/21/1
f 12/31/5 24/32/5 25/33/5 7/34/5
f 10/35/6 23/36/6 24/32/6 12/31/6
f 8/37/7 22/38/7 23/39/7 10/35/7
f 7/34/8 25/40/8 22/38/8 8/37/8
f 18/41/1 28/42/1 29/43/1 15/44/1
f 16/45/2 26/46/2 28/42/2 18/41/2
f 20/47/3 27/25/3 26/46/3 16/45/3
f 15/44/4 29/43/4 27/48/4 20/49/4
f 13/50/1 31/51/1 33/52/1 6/53/1
f 31/54/1 19/55/1 14/56/1 33/57/1
f 11/58/2 30/59/2 31/51/2 13/50/2
f 30/60/2 17/61/2 19/55/2 31/54/2
f 9/62/3 32/63/3 30/59/3 11/58/3
f 32/64/3 21/65/3 17/61/3 30/60/3
f 6/53/4 33/52/4 32/66/4 9/8/4
f 33/57/4 14/56/4 21/67/4 32/68/4
f 36/69/2 35/70/2 39/71/2 41/72/2
f 34/73/4 37/74/4 40/75/4 38/76/4
f 37/77/1 36/78/1 41/79/1 40/80/1
f 35/81/3 34/82/3 38/83/3 39/84/3
f 41/85/9 39/86/9 38/87/9 40/88/9
f 36/89/10 37/90/10 34/91/10 35/92/10
f 50/93/3 51/94/3 45/95/3 44/96/3
f 54/97/2 55/98/2 49/99/2 48/100/2
f 52/101/1 53/102/1 47/103/1 46/104/1
f 56/105/4 57/106/4 43/107/4 42/108/4
f 47/103/1 53/102/1 63/109/1 64/110/1
f 58/111/9 51/112/9 43/107/9 57/106/9
f 48/113/1 49/114/1 53/115/1 52/116/1
f 42/117/3 43/118/3 51/119/3 50/120/3
f 51/121/4 58/122/4 65/123/4 59/124/4
f 49/99/2 55/98/2 61/125/2 62/126/2
f 46/127/4 47/128/4 57/129/4 56/130/4
f 44/131/2 45/132/2 55/133/2 54/134/2
f 61/135/9 60/136/9 59/137/9 65/138/9
f 63/139/9 65/123/9 66/140/9 64/141/9
f 62/126/2 61/125/2 67/142/2 68/143/2
f 53/115/1 49/114/1 62/144/1 63/145/1
f 58/146/3 57/147/3 66/148/3 65/149/3
f 45/95/3 51/94/3 59/150/3 60/151/3
f 57/129/4 47/128/4 64/152/4 66/153/4
f 55/133/2 45/132/2 60/136/2 61/135/2
f 68/143/9 67/142/9 70/154/9 69/155/9
f 65/156/4 63/157/4 69/158/4 70/159/4
f 61/160/3 65/161/3 70/162/3 67/163/3
f 63/145/1 62/144/1 68/164/1 69/165/1
f 71/166/3 72/167/3 74/168/3 73/169/3
f 73/169/2 74/168/2 78/170/2 77/171/2
f 77/172/1 78/173/1 76/174/1 75/175/1
f 75/175/4 76/174/4 72/176/4 71/177/4
f 78/173/9 74/178/9 72/179/9 76/180/9
usemtl CHIMERITE
f 1/181/11 5/182/11 2/183/11
f 1/184/12 4/185/12 5/186/12
f 1/187/13 3/188/13 4/189/13
f 1/184/14 2/190/14 3/191/14
