# Blender v2.80 (sub 75) OBJ File: 'wands.blend'
# www.blender.org
mtllib staff_vinteum.mtl
o STAFF_VAR1_Cube.001
v 0.500000 0.031250 0.500000
v 0.468750 1.750000 0.468750
v 0.531250 1.750000 0.468750
v 0.468750 1.750000 0.531250
v 0.531250 1.750000 0.531250
v 0.468750 0.062500 0.468750
v 0.531250 0.062500 0.468750
v 0.531250 0.062500 0.531250
v 0.468750 0.062500 0.531250
v 0.468750 0.125000 0.468750
v 0.468750 1.625000 0.468750
v 0.468750 1.687500 0.468750
v 0.531250 1.687500 0.468750
v 0.531250 1.625000 0.468750
v 0.531250 0.125000 0.468750
v 0.531250 1.687500 0.531250
v 0.531250 1.625000 0.531250
v 0.531250 0.125000 0.531250
v 0.468750 1.687500 0.531250
v 0.468750 1.625000 0.531250
v 0.468750 0.125000 0.531250
v 0.468750 0.625000 0.468750
v 0.468750 1.125000 0.468750
v 0.531250 1.125000 0.531250
v 0.531250 0.625000 0.531250
v 0.468750 1.125000 0.531250
v 0.468750 0.625000 0.531250
v 0.531250 1.125000 0.468750
v 0.531250 0.625000 0.468750
v 0.468750 1.500000 0.468750
v 0.468750 1.562500 0.468750
v 0.531250 1.562500 0.531250
v 0.531250 1.500000 0.531250
v 0.468750 1.562500 0.531250
v 0.468750 1.500000 0.531250
v 0.531250 1.562500 0.468750
v 0.531250 1.500000 0.468750
v 0.468750 1.750000 0.468750
v 0.531250 1.750000 0.468750
v 0.468750 1.750000 0.531250
v 0.531250 1.750000 0.531250
v 0.593750 1.812500 0.406250
v 0.593750 1.812500 0.593750
v 0.406250 1.812500 0.593750
v 0.406250 1.812500 0.406250
v 0.531250 1.783832 0.500000
v 0.487056 1.828026 0.500000
v 0.575444 1.828026 0.500000
v 0.531250 1.872220 0.500000
v 0.531250 1.783832 0.562500
v 0.487056 1.828026 0.562500
v 0.575444 1.828026 0.562500
v 0.531250 1.872220 0.562500
v 0.500000 1.828026 0.424556
v 0.500000 1.872220 0.468750
v 0.562500 1.828026 0.424556
v 0.562500 1.872220 0.468750
v 0.500000 1.783832 0.468750
v 0.500000 1.828026 0.512944
v 0.562500 1.783832 0.468750
v 0.562500 1.828026 0.512944
v 0.437500 1.783832 0.531250
v 0.437500 1.828026 0.487056
v 0.500000 1.783832 0.531250
v 0.500000 1.828026 0.487056
v 0.437500 1.828026 0.575444
v 0.437500 1.872220 0.531250
v 0.500000 1.828026 0.575444
v 0.500000 1.872220 0.531250
v 0.424556 1.828026 0.437500
v 0.468750 1.872220 0.437500
v 0.468750 1.783832 0.437500
v 0.512944 1.828026 0.437500
v 0.424556 1.828026 0.500000
v 0.468750 1.872220 0.500000
v 0.468750 1.783832 0.500000
v 0.512944 1.828026 0.500000
v 0.468750 1.843750 0.468750
v 0.531250 1.843750 0.468750
v 0.531250 1.843750 0.531250
v 0.468750 1.843750 0.531250
v 0.468750 1.906250 0.468750
v 0.531250 1.906250 0.468750
v 0.531250 1.906250 0.531250
v 0.468750 1.906250 0.531250
vt 0.062500 0.812500
vt 0.062500 0.875000
vt 0.000000 0.875000
vt 0.000000 0.812500
vt 0.250000 0.812500
vt 0.250000 0.875000
vt 0.187500 0.875000
vt 0.187500 0.812500
vt 0.125000 0.875000
vt 0.125000 0.812500
vt 0.812500 0.937500
vt 0.875000 1.000000
vt 0.750000 1.000000
vt 0.937501 0.937500
vt 1.000000 1.000000
vt 0.937501 0.812500
vt 1.000000 0.875000
vt 0.875000 0.875000
vt 1.000000 1.000000
vt 0.875000 1.000000
vt 0.375000 0.812500
vt 0.375000 0.875000
vt 0.312500 0.875000
vt 0.312500 0.812500
vt 0.125000 0.937500
vt 0.125000 1.000000
vt 0.062500 1.000000
vt 0.062500 0.937500
vt 0.375000 0.812500
vt 0.375000 0.875000
vt 0.312500 0.875000
vt 0.312500 0.812500
vt 0.437500 0.812500
vt 0.437500 0.875000
vt 0.187500 0.937500
vt 0.187500 1.000000
vt 0.437500 0.812500
vt 0.437500 0.875000
vt 0.500000 0.812500
vt 0.500000 0.875000
vt 0.250000 0.937500
vt 0.250000 1.000000
vt 0.500000 0.812500
vt 0.500000 0.875000
vt 0.250000 0.875000
vt 0.250000 0.812500
vt 0.000000 1.000000
vt 0.000000 0.937500
vt 0.250000 0.875000
vt 0.250000 0.812500
vt 0.187500 0.500000
vt 0.187500 1.000000
vt 0.125000 1.000000
vt 0.125000 0.500000
vt 0.125000 0.500000
vt 0.125000 1.000000
vt 0.062500 1.000000
vt 0.062500 0.500000
vt 0.062500 1.000000
vt 0.062500 0.500000
vt 0.000000 1.000000
vt 0.000000 0.500000
vt 0.000000 1.000000
vt 0.000000 0.500000
vt 0.250000 0.500000
vt 0.250000 1.000000
vt 0.187500 1.000000
vt 0.187500 0.500000
vt 0.250000 0.500000
vt 0.250000 1.000000
vt 0.062500 0.500000
vt 0.062500 0.875000
vt 0.000000 0.875000
vt 0.000000 0.500000
vt 0.312500 0.812500
vt 0.312500 0.875000
vt 0.250000 0.875000
vt 0.250000 0.812500
vt 0.250000 0.500000
vt 0.250000 0.875000
vt 0.187500 0.875000
vt 0.187500 0.500000
vt 0.500000 0.812500
vt 0.500000 0.875000
vt 0.437500 0.875000
vt 0.437500 0.812500
vt 0.125000 0.875000
vt 0.125000 0.500000
vt 0.375000 0.875000
vt 0.375000 0.812500
vt 0.312500 0.687500
vt 0.312500 0.500000
vt 0.500000 0.500000
vt 0.500000 0.687500
vt 0.312500 0.625001
vt 0.312500 0.562500
vt 0.375000 0.500000
vt 0.375000 0.687500
vt 0.437501 0.687500
vt 0.375000 0.687500
vt 0.312500 0.625000
vt 0.500000 0.625000
vt 0.374999 0.500000
vt 0.437500 0.500000
vt 0.500000 0.562500
vt 0.312500 0.562500
vt 0.437500 0.625001
vt 0.437500 0.562500
vt 0.500000 0.687500
vt 0.375000 0.875000
vt 0.437500 0.875000
vt 0.437500 0.937500
vt 0.375000 0.937500
vt 0.312500 0.937500
vt 0.375000 0.937500
vt 0.375000 1.000000
vt 0.312500 1.000000
vt 0.375000 0.875000
vt 0.437500 0.875000
vt 0.437500 0.937500
vt 0.375000 0.937500
vt 0.312500 0.875000
vt 0.375000 0.875000
vt 0.375000 0.937500
vt 0.312500 0.937500
vt 0.312500 0.875000
vt 0.375000 0.937500
vt 0.437500 1.000000
vt 0.375000 1.000000
vt 0.375000 0.937500
vt 0.437500 0.937500
vt 0.437500 1.000000
vt 0.375000 1.000000
vt 0.437500 0.875000
vt 0.500000 0.875000
vt 0.500000 0.937500
vt 0.437500 0.937500
vt 0.375000 0.875000
vt 0.437500 0.875000
vt 0.437500 0.937500
vt 0.375000 0.937500
vt 0.437500 0.875000
vt 0.500000 0.875000
vt 0.500000 0.937500
vt 0.437500 0.937500
vt 0.375000 0.875000
vt 0.437500 0.875000
vt 0.437500 0.937500
vt 0.437500 0.937500
vt 0.500000 0.937500
vt 0.500000 1.000000
vt 0.437500 1.000000
vt 0.250000 0.875000
vt 0.312500 0.875000
vt 0.312500 0.937500
vt 0.250000 0.937500
vt 0.312500 0.875000
vt 0.375000 0.875000
vt 0.375000 0.937500
vt 0.312500 0.937500
vt 0.250000 0.937500
vt 0.312500 0.937500
vt 0.312500 1.000000
vt 0.250000 1.000000
vt 0.312500 0.875000
vt 0.375000 0.875000
vt 0.375000 0.937500
vt 0.312500 0.937500
vt 0.250000 0.875000
vt 0.312500 0.875000
vt 0.312500 0.937500
vt 0.250000 0.937500
vt 0.375000 0.937500
vt 0.375000 1.000000
vt 0.375000 0.875000
vt 0.437500 0.875000
vt 0.437500 0.937500
vt 0.375000 0.937500
vt 0.375000 0.875000
vt 0.437500 0.875000
vt 0.437500 0.937500
vt 0.375000 0.937500
vt 0.375000 0.875000
vt 0.437500 0.875000
vt 0.437500 0.937500
vt 0.375000 0.937500
vt 0.312500 0.937500
vt 0.375000 0.937500
vt 0.375000 1.000000
vt 0.312500 1.000000
vt 0.312500 0.875000
vt 0.312500 0.937500
vt 0.375000 0.937500
vt 0.437500 1.000000
vt 0.375000 1.000000
vt 0.250000 0.937500
vt 0.312500 0.937500
vt 0.312500 1.000000
vt 0.250000 1.000000
vt 0.375000 0.937500
vt 0.437500 0.937500
vt 0.437500 1.000000
vt 0.375000 1.000000
vt 0.312500 0.937500
vt 0.375000 0.937500
vt 0.375000 1.000000
vt 0.312500 1.000000
vt 0.437500 0.937500
vt 0.500000 0.937500
vt 0.500000 1.000000
vt 0.437500 1.000000
vn 0.0000 0.0000 -1.0000
vn 1.0000 0.0000 0.0000
vn 0.0000 0.0000 1.0000
vn -1.0000 0.0000 0.0000
vn -0.7071 -0.7071 0.0000
vn 0.0000 -0.7071 0.7071
vn 0.7071 -0.7071 0.0000
vn 0.0000 -0.7071 -0.7071
vn 0.0000 1.0000 0.0000
vn 0.7071 0.7071 0.0000
vn -0.7071 0.7071 0.0000
vn 0.0000 0.7071 -0.7071
vn 0.0000 0.7071 0.7071
usemtl MAIN
s off
f 12/1/1 2/2/1 3/3/1 13/4/1
f 13/5/2 3/6/2 5/7/2 16/8/2
f 16/8/3 5/7/3 4/9/3 19/10/3
f 19/10/4 4/9/4 2/2/4 12/1/4
f 1/11/5 9/12/5 6/13/5
f 1/14/6 8/15/6 9/12/6
f 1/16/7 7/17/7 8/18/7
f 1/14/8 6/19/8 7/20/8
f 9/21/4 21/22/4 10/23/4 6/24/4
f 34/25/4 20/26/4 11/27/4 31/28/4
f 20/29/4 19/30/4 12/31/4 11/32/4
f 8/33/3 18/34/3 21/22/3 9/21/3
f 32/35/3 17/36/3 20/26/3 34/25/3
f 17/37/3 16/38/3 19/30/3 20/29/3
f 7/39/2 15/40/2 18/34/2 8/33/2
f 36/41/2 14/42/2 17/36/2 32/35/2
f 14/43/2 13/44/2 16/38/2 17/37/2
f 6/24/1 10/23/1 15/45/1 7/46/1
f 31/28/1 11/27/1 14/47/1 36/48/1
f 11/32/1 12/31/1 13/49/1 14/50/1
f 10/51/1 22/52/1 29/53/1 15/54/1
f 22/55/1 23/56/1 28/57/1 29/58/1
f 15/54/2 29/53/2 25/59/2 18/60/2
f 29/58/2 28/57/2 24/61/2 25/62/2
f 18/60/3 25/59/3 27/63/3 21/64/3
f 25/65/3 24/66/3 26/67/3 27/68/3
f 21/69/4 27/70/4 22/52/4 10/51/4
f 27/68/4 26/67/4 23/56/4 22/55/4
f 23/71/1 30/72/1 37/73/1 28/74/1
f 30/75/1 31/76/1 36/77/1 37/78/1
f 28/79/2 37/80/2 33/81/2 24/82/2
f 37/83/2 36/84/2 32/85/2 33/86/2
f 24/82/3 33/81/3 35/87/3 26/88/3
f 33/86/3 32/85/3 34/89/3 35/90/3
f 26/88/4 35/87/4 30/72/4 23/71/4
f 35/90/4 34/89/4 31/76/4 30/75/4
f 44/91/9 43/92/9 42/93/9 45/94/9
f 38/95/5 40/96/5 44/97/5 45/98/5
f 39/99/8 38/100/8 45/101/8 42/102/8
f 40/103/6 41/104/6 43/105/6 44/106/6
f 41/107/7 39/108/7 42/93/7 43/109/7
f 46/110/1 47/111/1 49/112/1 48/113/1
f 48/114/10 49/115/10 53/116/10 52/117/10
f 52/118/3 53/119/3 51/120/3 50/121/3
f 50/122/5 51/123/5 47/124/5 46/125/5
f 48/126/7 52/118/7 50/121/7 46/125/7
f 53/127/11 49/112/11 47/128/11 51/129/11
f 54/130/12 55/131/12 57/132/12 56/133/12
f 56/134/2 57/135/2 61/136/2 60/137/2
f 60/138/6 61/139/6 59/140/6 58/141/6
f 58/142/4 59/143/4 55/144/4 54/145/4
f 56/146/8 60/147/8 58/148/8 54/130/8
f 61/149/13 57/150/13 55/151/13 59/152/13
f 62/153/8 63/154/8 65/155/8 64/156/8
f 64/157/2 65/158/2 69/159/2 68/160/2
f 68/161/13 69/162/13 67/163/13 66/164/13
f 66/165/4 67/166/4 63/167/4 62/168/4
f 64/169/6 68/170/6 66/171/6 62/172/6
f 69/162/12 65/173/12 63/174/12 67/163/12
f 70/175/1 71/176/1 73/177/1 72/178/1
f 72/179/7 73/180/7 77/181/7 76/182/7
f 76/183/3 77/184/3 75/185/3 74/186/3
f 74/187/11 75/188/11 71/189/11 70/190/11
f 72/191/5 76/183/5 74/186/5 70/192/5
f 77/193/10 73/177/10 71/194/10 75/195/10
f 81/196/3 80/197/3 84/198/3 85/199/3
f 79/200/1 78/201/1 82/202/1 83/203/1
f 78/204/4 81/205/4 85/206/4 82/207/4
f 80/197/2 79/200/2 83/203/2 84/198/2
f 82/208/9 85/209/9 84/210/9 83/211/9
