# Blender v2.80 (sub 75) OBJ File: 'wands.blend'
# www.blender.org
mtllib staff_glass.mtl
o STAFF_VAR5_Cube.004
v 0.468750 0.125000 0.468750
v 0.531250 0.125000 0.468750
v 0.531250 0.125000 0.531250
v 0.468750 0.125000 0.531250
v 0.468750 0.187500 0.468750
v 0.468750 1.625000 0.468750
v 0.531250 1.625000 0.468750
v 0.531250 0.187500 0.468750
v 0.531250 1.625000 0.531250
v 0.531250 0.187500 0.531250
v 0.468750 1.625000 0.531250
v 0.468750 0.187500 0.531250
v 0.468750 0.625000 0.468750
v 0.468750 1.125000 0.468750
v 0.531250 1.125000 0.531250
v 0.531250 0.625000 0.531250
v 0.468750 1.125000 0.531250
v 0.468750 0.625000 0.531250
v 0.531250 1.125000 0.468750
v 0.531250 0.625000 0.468750
v 0.553347 1.687500 0.446653
v 0.553347 1.625000 0.446653
v 0.553347 1.687500 0.553347
v 0.553347 1.625000 0.553347
v 0.446653 1.687500 0.553347
v 0.446653 1.625000 0.553347
v 0.446653 1.687500 0.446653
v 0.446653 1.625000 0.446653
v 0.406250 1.687500 0.406250
v 0.406250 1.875000 0.406250
v 0.593750 1.687500 0.406250
v 0.593750 1.875000 0.406250
v 0.406250 1.687500 0.593750
v 0.406250 1.875000 0.593750
v 0.593750 1.687500 0.593750
v 0.593750 1.875000 0.593750
v 0.556583 1.664062 0.421320
v 0.556583 1.710938 0.421320
v 0.578680 1.664062 0.443417
v 0.578680 1.710938 0.443417
v 0.512389 1.664062 0.465514
v 0.512389 1.710938 0.465514
v 0.534486 1.664062 0.487611
v 0.534486 1.710938 0.487611
v 0.611826 1.664062 0.410271
v 0.589729 1.664062 0.388174
v 0.589729 1.710938 0.388174
v 0.611826 1.710938 0.410271
v 0.556583 1.773438 0.421320
v 0.578680 1.773438 0.443417
v 0.589729 1.773438 0.388174
v 0.611826 1.773438 0.410271
v 0.500000 1.687500 0.500000
v 0.437500 0.000000 0.437500
v 0.437500 0.125000 0.437500
v 0.562500 0.000000 0.437500
v 0.562500 0.125000 0.437500
v 0.437500 0.000000 0.562500
v 0.437500 0.125000 0.562500
v 0.562500 0.000000 0.562500
v 0.562500 0.125000 0.562500
v 0.443417 1.664062 0.578680
v 0.443417 1.710938 0.578680
v 0.421320 1.664062 0.556583
v 0.421320 1.710938 0.556583
v 0.487611 1.664062 0.534486
v 0.487611 1.710938 0.534486
v 0.465514 1.664062 0.512389
v 0.465514 1.710938 0.512389
v 0.388174 1.664062 0.589729
v 0.410271 1.664062 0.611826
v 0.410271 1.710938 0.611826
v 0.388174 1.710938 0.589729
v 0.443417 1.773438 0.578680
v 0.421320 1.773438 0.556583
v 0.410271 1.773438 0.611826
v 0.388174 1.773438 0.589729
v 0.421320 1.664062 0.443417
v 0.421320 1.710938 0.443417
v 0.443417 1.664062 0.421320
v 0.443417 1.710938 0.421320
v 0.465514 1.664062 0.487611
v 0.465514 1.710938 0.487611
v 0.487611 1.664062 0.465514
v 0.487611 1.710938 0.465514
v 0.410271 1.664062 0.388174
v 0.388174 1.664062 0.410271
v 0.388174 1.710938 0.410271
v 0.410271 1.710938 0.388174
v 0.421320 1.773438 0.443417
v 0.443417 1.773438 0.421320
v 0.388174 1.773438 0.410271
v 0.410271 1.773438 0.388174
v 0.578680 1.664062 0.556583
v 0.578680 1.710938 0.556583
v 0.556583 1.664062 0.578680
v 0.556583 1.710938 0.578680
v 0.534486 1.664062 0.512389
v 0.534486 1.710938 0.512389
v 0.512389 1.664062 0.534486
v 0.512389 1.710938 0.534486
v 0.589729 1.664062 0.611826
v 0.611826 1.664062 0.589729
v 0.611826 1.710938 0.589729
v 0.589729 1.710938 0.611826
v 0.578680 1.773438 0.556583
v 0.556583 1.773438 0.578680
v 0.611826 1.773438 0.589729
v 0.589729 1.773438 0.611826
vt 0.375000 0.812500
vt 0.375000 0.875000
vt 0.312500 0.875000
vt 0.312500 0.812500
vt 0.437500 0.812500
vt 0.437500 0.875000
vt 0.500000 0.812500
vt 0.500000 0.875000
vt 0.338388 0.588388
vt 0.411612 0.588388
vt 0.437500 0.562500
vt 0.312500 0.562500
vt 0.250000 0.875000
vt 0.250000 0.812500
vt 0.062500 0.562500
vt 0.062500 1.000000
vt 0.000000 1.000000
vt 0.000000 0.562500
vt 0.062500 0.500000
vt 0.062500 1.000000
vt 0.000000 1.000000
vt 0.000000 0.500000
vt 0.250000 0.562500
vt 0.250000 1.000000
vt 0.187500 1.000000
vt 0.187500 0.562500
vt 0.250000 0.500000
vt 0.250000 1.000000
vt 0.187500 1.000000
vt 0.187500 0.500000
vt 0.125000 1.000000
vt 0.125000 0.562500
vt 0.125000 1.000000
vt 0.125000 0.500000
vt 0.062500 0.500000
vt 0.062500 1.000000
vt 0.000000 1.000000
vt 0.000000 0.500000
vt 0.250000 0.500000
vt 0.250000 1.000000
vt 0.187500 1.000000
vt 0.187500 0.500000
vt 0.125000 1.000000
vt 0.125000 0.500000
vt 0.312500 0.812500
vt 0.312500 0.875000
vt 0.437500 0.875000
vt 0.437500 0.812500
vt 0.437500 0.812500
vt 0.437500 0.875000
vt 0.500000 0.812500
vt 0.500000 0.875000
vt 0.375000 0.875000
vt 0.375000 0.812500
vt 0.375000 0.812500
vt 0.375000 0.875000
vt 0.338388 0.661612
vt 0.312500 0.687500
vt 0.411612 0.661612
vt 0.437500 0.687500
vt 0.375000 0.312500
vt 0.375000 0.500000
vt 0.187500 0.500000
vt 0.187500 0.312500
vt 0.375000 0.312500
vt 0.375000 0.500000
vt 0.187500 0.500000
vt 0.187500 0.312500
vt 0.375000 0.312500
vt 0.375000 0.500000
vt 0.187500 0.500000
vt 0.187500 0.312500
vt 0.375000 0.312500
vt 0.375000 0.500000
vt 0.187500 0.500000
vt 0.187500 0.312500
vt 0.187500 0.312500
vt 0.375000 0.312500
vt 0.375000 0.500000
vt 0.375000 0.562500
vt 0.437500 0.562500
vt 0.437500 0.500000
vt 0.437500 0.500000
vt 0.437500 0.562500
vt 0.375000 0.562500
vt 0.375000 0.500000
vt 0.375000 0.625000
vt 0.375000 0.562500
vt 0.437500 0.562500
vt 0.437500 0.625000
vt 0.437500 0.562500
vt 0.437500 0.500000
vt 0.500000 0.500000
vt 0.500000 0.562500
vt 0.375000 0.500000
vt 0.375000 0.562500
vt 0.312500 0.562500
vt 0.312500 0.500000
vt 0.375000 0.562500
vt 0.375000 0.625000
vt 0.437500 0.625000
vt 0.437500 0.562500
vt 0.375000 0.625000
vt 0.312500 0.625000
vt 0.375000 0.500000
vt 0.375000 0.562500
vt 0.437500 0.687500
vt 0.375000 0.687500
vt 0.375000 0.687500
vt 0.437500 0.687500
vt 0.375000 0.625000
vt 0.375000 0.687500
vt 0.312500 0.687500
vt 0.312500 0.625000
vt 0.281250 0.406250
vt 0.375000 0.312500
vt 0.375000 0.437500
vt 0.250000 0.437500
vt 0.250000 0.312500
vt 0.375000 0.312500
vt 0.375000 0.437500
vt 0.250000 0.437500
vt 0.250000 0.312500
vt 0.375000 0.312500
vt 0.375000 0.437500
vt 0.250000 0.437500
vt 0.250000 0.312500
vt 0.375000 0.312500
vt 0.375000 0.437500
vt 0.250000 0.437500
vt 0.250000 0.312500
vt 0.375000 0.437500
vt 0.250000 0.437500
vt 0.250000 0.312500
vt 0.375000 0.312500
vt 0.375000 0.500000
vt 0.375000 0.562500
vt 0.437500 0.562500
vt 0.437500 0.500000
vt 0.437500 0.500000
vt 0.437500 0.562500
vt 0.375000 0.562500
vt 0.375000 0.500000
vt 0.375000 0.625000
vt 0.375000 0.562500
vt 0.437500 0.562500
vt 0.437500 0.625000
vt 0.437500 0.562500
vt 0.437500 0.500000
vt 0.500000 0.500000
vt 0.500000 0.562500
vt 0.375000 0.500000
vt 0.375000 0.562500
vt 0.312500 0.562500
vt 0.312500 0.500000
vt 0.375000 0.562500
vt 0.375000 0.625000
vt 0.437500 0.625000
vt 0.437500 0.562500
vt 0.375000 0.625000
vt 0.312500 0.625000
vt 0.375000 0.500000
vt 0.375000 0.562500
vt 0.437500 0.687500
vt 0.375000 0.687500
vt 0.375000 0.687500
vt 0.437500 0.687500
vt 0.375000 0.625000
vt 0.375000 0.687500
vt 0.312500 0.687500
vt 0.312500 0.625000
vt 0.375000 0.500000
vt 0.375000 0.562500
vt 0.437500 0.562500
vt 0.437500 0.500000
vt 0.437500 0.500000
vt 0.437500 0.562500
vt 0.375000 0.562500
vt 0.375000 0.500000
vt 0.375000 0.625000
vt 0.375000 0.562500
vt 0.437500 0.562500
vt 0.437500 0.625000
vt 0.437500 0.562500
vt 0.437500 0.500000
vt 0.500000 0.500000
vt 0.500000 0.562500
vt 0.375000 0.500000
vt 0.375000 0.562500
vt 0.312500 0.562500
vt 0.312500 0.500000
vt 0.375000 0.562500
vt 0.375000 0.625000
vt 0.437500 0.625000
vt 0.437500 0.562500
vt 0.375000 0.625000
vt 0.312500 0.625000
vt 0.375000 0.500000
vt 0.375000 0.562500
vt 0.437500 0.687500
vt 0.375000 0.687500
vt 0.375000 0.687500
vt 0.437500 0.687500
vt 0.375000 0.625000
vt 0.375000 0.687500
vt 0.312500 0.687500
vt 0.312500 0.625000
vt 0.375000 0.500000
vt 0.375000 0.562500
vt 0.437500 0.562500
vt 0.437500 0.500000
vt 0.437500 0.500000
vt 0.437500 0.562500
vt 0.375000 0.562500
vt 0.375000 0.500000
vt 0.375000 0.625000
vt 0.375000 0.562500
vt 0.437500 0.562500
vt 0.437500 0.625000
vt 0.437500 0.562500
vt 0.437500 0.500000
vt 0.500000 0.500000
vt 0.500000 0.562500
vt 0.375000 0.500000
vt 0.375000 0.562500
vt 0.312500 0.562500
vt 0.312500 0.500000
vt 0.375000 0.562500
vt 0.375000 0.625000
vt 0.437500 0.625000
vt 0.437500 0.562500
vt 0.375000 0.625000
vt 0.312500 0.625000
vt 0.375000 0.500000
vt 0.375000 0.562500
vt 0.437500 0.687500
vt 0.375000 0.687500
vt 0.375000 0.687500
vt 0.437500 0.687500
vt 0.375000 0.625000
vt 0.375000 0.687500
vt 0.312500 0.687500
vt 0.312500 0.625000
vn -1.0000 0.0000 0.0000
vn 0.0000 0.0000 1.0000
vn 1.0000 0.0000 0.0000
vn 0.0000 -1.0000 0.0000
vn 0.0000 0.0000 -1.0000
vn 0.0000 1.0000 0.0000
vn -0.7071 0.0000 -0.7071
vn 0.7071 0.0000 0.7071
vn 0.7071 0.0000 -0.7071
vn -0.7071 0.0000 0.7071
usemtl MAIN
s off
f 4/1/1 12/2/1 5/3/1 1/4/1
f 3/5/2 10/6/2 12/2/2 4/1/2
f 2/7/3 8/8/3 10/6/3 3/5/3
f 6/9/4 11/10/4 26/11/4 28/12/4
f 1/4/5 5/3/5 8/13/5 2/14/5
f 5/15/5 13/16/5 20/17/5 8/18/5
f 13/19/5 14/20/5 19/21/5 20/22/5
f 8/23/3 20/24/3 16/25/3 10/26/3
f 20/27/3 19/28/3 15/29/3 16/30/3
f 10/26/2 16/25/2 18/31/2 12/32/2
f 16/30/2 15/29/2 17/33/2 18/34/2
f 12/32/1 18/31/1 13/16/1 5/15/1
f 18/34/1 17/33/1 14/20/1 13/19/1
f 14/35/5 6/36/5 7/37/5 19/38/5
f 19/39/3 7/40/3 9/41/3 15/42/3
f 15/42/2 9/41/2 11/43/2 17/44/2
f 17/44/1 11/43/1 6/36/1 14/35/1
f 26/45/1 25/46/1 27/47/1 28/48/1
f 24/49/2 23/50/2 25/46/2 26/45/2
f 22/51/3 21/52/3 23/53/3 24/54/3
f 28/55/5 27/56/5 21/52/5 22/51/5
f 7/57/4 6/9/4 28/12/4 22/58/4
f 11/10/4 9/59/4 24/60/4 26/11/4
f 9/59/4 7/57/4 22/58/4 24/60/4
f 29/61/5 30/62/5 32/63/5 31/64/5
f 31/65/3 32/66/3 36/67/3 35/68/3
f 35/69/2 36/70/2 34/71/2 33/72/2
f 33/73/1 34/74/1 30/75/1 29/76/1
f 36/67/6 32/77/6 30/78/6 34/74/6
f 41/79/7 42/80/7 38/81/7 37/82/7
f 39/83/8 40/84/8 44/85/8 43/86/8
f 40/87/8 39/88/8 45/89/8 48/90/8
f 39/91/4 43/92/4 41/93/4 37/94/4
f 46/95/9 47/96/9 48/97/9 45/98/9
f 37/99/7 38/100/7 47/101/7 46/102/7
f 48/97/9 47/96/9 51/103/9 52/104/9
f 39/105/4 37/82/4 46/102/4 45/106/4
f 40/87/8 48/90/8 52/107/8 50/108/8
f 47/101/7 38/100/7 49/109/7 51/110/7
f 50/111/6 52/112/6 51/113/6 49/114/6
f 31/64/4 35/69/4 53/115/4
f 35/68/4 33/73/4 53/115/4
f 33/73/4 29/76/4 53/115/4
f 29/61/4 31/64/4 53/115/4
f 54/116/5 55/117/5 57/118/5 56/119/5
f 56/120/3 57/121/3 61/122/3 60/123/3
f 60/124/2 61/125/2 59/126/2 58/127/2
f 58/128/1 59/129/1 55/130/1 54/131/1
f 56/132/4 60/133/4 58/127/4 54/116/4
f 61/122/6 57/134/6 55/135/6 59/129/6
f 66/136/8 67/137/8 63/138/8 62/139/8
f 64/140/7 65/141/7 69/142/7 68/143/7
f 65/144/7 64/145/7 70/146/7 73/147/7
f 64/148/4 68/149/4 66/150/4 62/151/4
f 71/152/10 72/153/10 73/154/10 70/155/10
f 62/156/8 63/157/8 72/158/8 71/159/8
f 73/154/10 72/153/10 76/160/10 77/161/10
f 64/162/4 62/139/4 71/159/4 70/163/4
f 65/144/7 73/147/7 77/164/7 75/165/7
f 72/158/8 63/157/8 74/166/8 76/167/8
f 75/168/6 77/169/6 76/170/6 74/171/6
f 82/172/10 83/173/10 79/174/10 78/175/10
f 80/176/9 81/177/9 85/178/9 84/179/9
f 81/180/9 80/181/9 86/182/9 89/183/9
f 80/184/4 84/185/4 82/186/4 78/187/4
f 87/188/7 88/189/7 89/190/7 86/191/7
f 78/192/10 79/193/10 88/194/10 87/195/10
f 89/190/7 88/189/7 92/196/7 93/197/7
f 80/198/4 78/175/4 87/195/4 86/199/4
f 81/180/9 89/183/9 93/200/9 91/201/9
f 88/194/10 79/193/10 90/202/10 92/203/10
f 91/204/6 93/205/6 92/206/6 90/207/6
f 98/208/9 99/209/9 95/210/9 94/211/9
f 96/212/10 97/213/10 101/214/10 100/215/10
f 97/216/10 96/217/10 102/218/10 105/219/10
f 96/220/4 100/221/4 98/222/4 94/223/4
f 103/224/8 104/225/8 105/226/8 102/227/8
f 94/228/9 95/229/9 104/230/9 103/231/9
f 105/226/8 104/225/8 108/232/8 109/233/8
f 96/234/4 94/211/4 103/231/4 102/235/4
f 97/216/10 105/219/10 109/236/10 107/237/10
f 104/230/9 95/229/9 106/238/9 108/239/9
f 107/240/6 109/241/6 108/242/6 106/243/6
