# Blender v2.80 (sub 75) OBJ File: 'wands.blend'
# www.blender.org
mtllib staff_prismarineshard.mtl
o STAFF_VAR11_Cube.051
v 0.500000 0.031250 0.500000
v 0.468750 1.750000 0.468750
v 0.531250 1.750000 0.468750
v 0.468750 1.750000 0.531250
v 0.531250 1.750000 0.531250
v 0.468750 0.062500 0.468750
v 0.531250 0.062500 0.468750
v 0.531250 0.062500 0.531250
v 0.468750 0.062500 0.531250
v 0.468750 0.125000 0.468750
v 0.468750 1.625000 0.468750
v 0.468750 1.687500 0.468750
v 0.531250 1.687500 0.468750
v 0.531250 1.625000 0.468750
v 0.531250 0.125000 0.468750
v 0.531250 1.687500 0.531250
v 0.531250 1.625000 0.531250
v 0.531250 0.125000 0.531250
v 0.468750 1.687500 0.531250
v 0.468750 1.625000 0.531250
v 0.468750 0.125000 0.531250
v 0.468750 0.625000 0.468750
v 0.468750 1.125000 0.468750
v 0.531250 1.125000 0.531250
v 0.531250 0.625000 0.531250
v 0.468750 1.125000 0.531250
v 0.468750 0.625000 0.531250
v 0.531250 1.125000 0.468750
v 0.531250 0.625000 0.468750
v 0.553347 1.687500 0.446653
v 0.553347 1.625000 0.446653
v 0.553347 1.687500 0.553347
v 0.553347 1.625000 0.553347
v 0.446653 1.687500 0.553347
v 0.446653 1.625000 0.553347
v 0.446653 1.687500 0.446653
v 0.446653 1.625000 0.446653
v 0.593750 1.906250 0.468750
v 0.593750 1.718750 0.500000
v 0.593750 1.843750 0.468750
v 0.656250 1.843750 0.500000
v 0.656250 1.906250 0.500000
v 0.593750 1.968750 0.500000
v 0.500000 1.718750 0.500000
v 0.500000 1.843750 0.468750
v 0.500000 1.906250 0.468750
v 0.500000 1.968750 0.500000
v 0.593750 1.781250 0.484375
v 0.500000 1.781250 0.484375
v 0.625000 1.781250 0.500000
v 0.406250 1.906250 0.468750
v 0.406250 1.718750 0.500000
v 0.406250 1.843750 0.468750
v 0.343750 1.843750 0.500000
v 0.343750 1.906250 0.500000
v 0.406250 1.968750 0.500000
v 0.406250 1.781250 0.484375
v 0.375000 1.781250 0.500000
v 0.593750 1.906250 0.531250
v 0.593750 1.843750 0.531250
v 0.500000 1.843750 0.531250
v 0.500000 1.906250 0.531250
v 0.593750 1.781250 0.515625
v 0.500000 1.781250 0.515625
v 0.406250 1.906250 0.531250
v 0.406250 1.843750 0.531250
v 0.406250 1.781250 0.515625
v 0.531250 1.468750 0.500000
v 0.531250 1.531250 0.484375
v 0.531250 1.531250 0.515625
v 0.531250 1.593750 0.484375
v 0.531250 1.593750 0.515625
v 0.593750 1.531250 0.500000
v 0.593750 1.593750 0.500000
v 0.468750 1.468750 0.500000
v 0.468750 1.531250 0.515625
v 0.468750 1.531250 0.484375
v 0.468750 1.593750 0.515625
v 0.468750 1.593750 0.484375
v 0.406250 1.531250 0.500000
v 0.406250 1.593750 0.500000
vt 0.312500 0.687500
vt 0.375000 0.687500
vt 0.375000 0.750000
vt 0.312500 0.750000
vt 0.250000 0.750000
vt 0.312500 0.750000
vt 0.312500 0.812500
vt 0.250000 0.812500
vt 0.250000 0.562500
vt 0.312500 0.562500
vt 0.312500 0.625000
vt 0.250000 0.625000
vt 0.312500 0.687500
vt 0.250000 0.687500
vt 0.375000 0.812500
vt 0.375000 0.875000
vt 0.312500 0.875000
vt 0.312500 0.812500
vt 0.411612 0.588388
vt 0.338388 0.588388
vt 0.312500 0.562500
vt 0.437500 0.562500
vt 0.437500 0.812500
vt 0.437500 0.875000
vt 0.338388 0.661612
vt 0.312500 0.687500
vt 0.500000 0.812500
vt 0.500000 0.875000
vt 0.338388 0.588388
vt 0.411612 0.588388
vt 0.437500 0.562500
vt 0.312500 0.562500
vt 0.250000 0.875000
vt 0.250000 0.812500
vt 0.411612 0.661612
vt 0.437500 0.687500
vt 0.062500 0.500000
vt 0.062500 1.000000
vt 0.000000 1.000000
vt 0.000000 0.500000
vt 0.062500 0.500000
vt 0.062500 1.000000
vt 0.000000 1.000000
vt 0.000000 0.500000
vt 0.250000 0.500000
vt 0.250000 1.000000
vt 0.187500 1.000000
vt 0.187500 0.500000
vt 0.250000 0.500000
vt 0.250000 1.000000
vt 0.187500 1.000000
vt 0.187500 0.500000
vt 0.125000 1.000000
vt 0.125000 0.500000
vt 0.125000 1.000000
vt 0.125000 0.500000
vt 0.062500 0.500000
vt 0.062500 1.000000
vt 0.000000 1.000000
vt 0.000000 0.500000
vt 0.250000 0.500000
vt 0.250000 1.000000
vt 0.187500 1.000000
vt 0.187500 0.500000
vt 0.125000 1.000000
vt 0.125000 0.500000
vt 0.312500 0.812500
vt 0.312500 0.875000
vt 0.437500 0.875000
vt 0.437500 0.812500
vt 0.437500 0.812500
vt 0.437500 0.875000
vt 0.500000 0.812500
vt 0.500000 0.875000
vt 0.375000 0.875000
vt 0.375000 0.812500
vt 0.375000 0.812500
vt 0.375000 0.875000
vt 0.338388 0.661612
vt 0.312500 0.687500
vt 0.411612 0.661612
vt 0.437500 0.687500
vt 0.875000 0.812500
vt 0.875000 0.718750
vt 0.812500 0.718750
vt 0.812500 0.812500
vt 0.812500 0.843750
vt 0.812500 0.937500
vt 0.875000 0.937500
vt 0.875000 0.843750
vt 0.812500 0.750000
vt 0.875000 0.812500
vt 0.812500 0.812500
vt 0.812500 0.875000
vt 0.875000 0.875000
vt 0.875000 0.937500
vt 0.812500 0.937500
vt 0.812500 1.000000
vt 0.875000 0.937500
vt 0.875000 1.000000
vt 0.812500 0.812500
vt 0.875000 0.812500
vt 0.875000 0.875000
vt 0.812500 0.875000
vt 0.875000 0.875000
vt 0.875000 0.781250
vt 0.812500 0.781250
vt 0.812500 0.875000
vt 0.875000 0.750000
vt 0.875000 0.656250
vt 0.812500 0.656250
vt 0.812500 0.750000
vt 0.875000 0.625000
vt 0.812500 0.625000
vt 0.875000 0.750000
vt 0.812500 0.750000
vt 0.812500 0.500000
vt 0.812500 0.562500
vt 0.875000 0.562500
vt 0.812500 0.625000
vt 0.812500 0.687500
vt 0.875000 0.687500
vt 0.875000 0.625000
vt 0.875000 0.687500
vt 0.812500 0.562500
vt 0.875000 0.562500
vt 0.875000 0.812500
vt 0.812500 0.812500
vt 0.812500 0.718750
vt 0.875000 0.718750
vt 0.875000 0.843750
vt 0.875000 0.937500
vt 0.812500 0.812500
vt 0.812500 0.937500
vt 0.875000 0.937500
vt 0.875000 1.000000
vt 0.812500 0.875000
vt 0.875000 0.875000
vt 0.875000 0.875000
vt 0.812500 0.875000
vt 0.812500 0.781250
vt 0.875000 0.781250
vt 0.812500 0.750000
vt 0.812500 0.656250
vt 0.875000 0.625000
vt 0.812500 0.625000
vt 0.875000 0.750000
vt 0.812500 0.562500
vt 0.875000 0.687500
vt 0.812500 0.687500
vt 0.875000 0.750000
vt 0.875000 0.687500
vt 0.812500 0.750000
vt 0.875000 0.812500
vt 0.875000 0.875000
vt 0.812500 0.812500
vt 0.875000 0.750000
vt 0.875000 0.812500
vt 0.875000 0.625000
vt 0.875000 0.562500
vt 0.812500 0.625000
vt 0.875000 0.687500
vt 0.875000 0.750000
vt 0.812500 0.687500
vt 0.875000 0.625000
vt 0.875000 0.687500
vt 0.156250 0.218750
vt 0.187500 0.250000
vt 0.125000 0.250000
vt 0.218750 0.218750
vt 0.250000 0.250000
vt 0.218750 0.156250
vt 0.250000 0.187500
vt 0.187500 0.187500
vt 0.218750 0.218750
vt 0.250000 0.250000
vt 0.187500 0.250000
vn 0.0000 1.0000 0.0000
vn 0.0000 0.0000 -1.0000
vn 1.0000 0.0000 0.0000
vn 0.0000 0.0000 1.0000
vn -1.0000 0.0000 0.0000
vn 0.0000 -1.0000 0.0000
vn 0.0000 -0.2425 -0.9701
vn 0.0000 0.4472 -0.8944
vn 0.4364 -0.2182 -0.8729
vn 0.4472 0.0000 -0.8944
vn 0.4082 0.4082 -0.8165
vn -0.4364 -0.2182 -0.8729
vn -0.4472 0.0000 -0.8944
vn -0.4082 0.4082 -0.8165
vn 0.0000 -0.2425 0.9701
vn 0.0000 0.4472 0.8944
vn 0.4364 -0.2182 0.8729
vn 0.4472 0.0000 0.8944
vn 0.4082 0.4082 0.8165
vn -0.4364 -0.2182 0.8729
vn -0.4472 0.0000 0.8944
vn -0.4082 0.4082 0.8165
vn 0.2357 -0.2357 0.9428
vn 0.2425 0.0000 -0.9701
vn 0.2425 0.0000 0.9701
vn 0.2357 -0.2357 -0.9428
vn -0.2357 -0.2357 -0.9428
vn -0.2425 0.0000 0.9701
vn -0.2425 0.0000 -0.9701
vn -0.2357 -0.2357 0.9428
vn -0.7071 -0.7071 0.0000
vn 0.0000 -0.7071 0.7071
vn 0.7071 -0.7071 0.0000
vn 0.0000 -0.7071 -0.7071
usemtl MAIN
s off
f 5/1/1 3/2/1 2/3/1 4/4/1
f 12/5/2 2/6/2 3/7/2 13/8/2
f 13/9/3 3/10/3 5/11/3 16/12/3
f 16/12/4 5/11/4 4/13/4 19/14/4
f 19/14/5 4/13/5 2/6/5 12/5/5
f 9/15/5 21/16/5 10/17/5 6/18/5
f 19/19/1 12/20/1 36/21/1 34/22/1
f 8/23/4 18/24/4 21/16/4 9/15/4
f 12/20/1 13/25/1 30/26/1 36/21/1
f 7/27/3 15/28/3 18/24/3 8/23/3
f 11/29/6 20/30/6 35/31/6 37/32/6
f 6/18/2 10/17/2 15/33/2 7/34/2
f 16/35/1 19/19/1 34/22/1 32/36/1
f 10/37/2 22/38/2 29/39/2 15/40/2
f 22/41/2 23/42/2 28/43/2 29/44/2
f 15/45/3 29/46/3 25/47/3 18/48/3
f 29/49/3 28/50/3 24/51/3 25/52/3
f 18/48/4 25/47/4 27/53/4 21/54/4
f 25/52/4 24/51/4 26/55/4 27/56/4
f 21/54/5 27/53/5 22/38/5 10/37/5
f 27/56/5 26/55/5 23/42/5 22/41/5
f 23/57/2 11/58/2 14/59/2 28/60/2
f 28/61/3 14/62/3 17/63/3 24/64/3
f 24/64/4 17/63/4 20/65/4 26/66/4
f 26/66/5 20/65/5 11/58/5 23/57/5
f 35/67/5 34/68/5 36/69/5 37/70/5
f 33/71/4 32/72/4 34/68/4 35/67/4
f 31/73/3 30/74/3 32/75/3 33/76/3
f 37/77/2 36/78/2 30/74/2 31/73/2
f 13/25/1 16/35/1 32/36/1 30/26/1
f 14/79/6 11/29/6 37/32/6 31/80/6
f 20/30/6 17/81/6 33/82/6 35/31/6
f 17/81/6 14/79/6 31/80/6 33/82/6
f 48/83/7 49/84/7 45/85/7 40/86/7
f 47/87/8 43/88/8 38/89/8 46/90/8
f 50/91/9 39/92/9 48/93/9
f 42/94/10 41/95/10 40/96/10 38/97/10
f 43/98/11 42/99/11 38/100/11
f 41/101/9 50/102/9 48/103/9 40/104/9
f 40/105/2 45/106/2 46/107/2 38/108/2
f 39/109/7 44/110/7 49/111/7 48/112/7
f 57/113/7 53/114/7 45/85/7 49/84/7
f 47/87/8 46/90/8 51/115/8 56/116/8
f 58/117/12 57/118/12 52/119/12
f 55/120/13 51/121/13 53/122/13 54/123/13
f 56/116/14 51/115/14 55/124/14
f 54/125/12 53/114/12 57/113/12 58/126/12
f 53/122/2 51/121/2 46/107/2 45/106/2
f 52/119/7 57/118/7 49/111/7 44/110/7
f 63/127/15 60/128/15 61/129/15 64/130/15
f 47/87/16 62/131/16 59/132/16 43/88/16
f 50/91/17 63/133/17 39/92/17
f 42/94/18 59/134/18 60/135/18 41/95/18
f 43/98/19 59/136/19 42/99/19
f 41/101/17 60/137/17 63/138/17 50/102/17
f 60/139/4 59/140/4 62/141/4 61/142/4
f 39/109/15 63/143/15 64/144/15 44/110/15
f 67/145/15 64/130/15 61/129/15 66/146/15
f 47/87/16 56/116/16 65/147/16 62/131/16
f 58/117/20 52/119/20 67/148/20
f 55/120/21 54/123/21 66/149/21 65/150/21
f 56/116/22 55/124/22 65/147/22
f 54/125/20 58/126/20 67/145/20 66/146/20
f 66/149/4 61/142/4 62/141/4 65/150/4
f 52/119/15 44/110/15 64/144/15 67/148/15
f 70/151/23 68/152/23 73/153/23
f 71/154/1 72/155/1 74/156/1
f 69/157/24 71/154/24 74/156/24 73/153/24
f 72/158/25 70/151/25 73/153/25 74/156/25
f 68/152/26 69/157/26 73/153/26
f 77/159/27 75/160/27 80/161/27
f 78/162/1 79/163/1 81/164/1
f 76/165/28 78/162/28 81/164/28 80/161/28
f 79/166/29 77/159/29 80/161/29 81/164/29
f 75/160/30 76/165/30 80/161/30
usemtl CHIMERITE
f 1/167/31 9/168/31 6/169/31
f 1/170/32 8/171/32 9/168/32
f 1/172/33 7/173/33 8/174/33
f 1/175/34 6/176/34 7/177/34
