# Blender v2.80 (sub 75) OBJ File: 'wands.blend'
# www.blender.org
mtllib staff_chimerite.mtl
o STAFF_VAR2_Cube.008
v 0.500000 1.781250 0.500000
v 0.443021 1.869695 0.415526
v 0.398094 1.942099 0.506982
v 0.544648 1.942099 0.408130
v 0.499721 2.014502 0.499586
v 0.500279 1.797998 0.500414
v 0.455352 1.870401 0.591870
v 0.601906 1.870401 0.493018
v 0.556979 1.942805 0.584474
v 0.500000 0.031250 0.500000
v 0.468750 1.750000 0.468750
v 0.531250 1.750000 0.468750
v 0.468750 1.750000 0.531250
v 0.531250 1.750000 0.531250
v 0.468750 0.062500 0.468750
v 0.531250 0.062500 0.468750
v 0.531250 0.062500 0.531250
v 0.468750 0.062500 0.531250
v 0.468750 0.125000 0.468750
v 0.468750 1.625000 0.468750
v 0.468750 1.687500 0.468750
v 0.531250 1.687500 0.468750
v 0.531250 1.625000 0.468750
v 0.531250 0.125000 0.468750
v 0.531250 1.687500 0.531250
v 0.531250 1.625000 0.531250
v 0.531250 0.125000 0.531250
v 0.468750 1.687500 0.531250
v 0.468750 1.625000 0.531250
v 0.468750 0.125000 0.531250
v 0.468750 0.625000 0.468750
v 0.468750 1.125000 0.468750
v 0.531250 1.125000 0.531250
v 0.531250 0.625000 0.531250
v 0.468750 1.125000 0.531250
v 0.468750 0.625000 0.531250
v 0.531250 1.125000 0.468750
v 0.531250 0.625000 0.468750
v 0.553347 1.687500 0.446653
v 0.553347 1.625000 0.446653
v 0.553347 1.687500 0.553347
v 0.553347 1.625000 0.553347
v 0.446653 1.687500 0.553347
v 0.446653 1.625000 0.553347
v 0.446653 1.687500 0.446653
v 0.446653 1.625000 0.446653
vt 0.250000 0.750000
vt 0.312500 0.750000
vt 0.312500 0.812500
vt 0.250000 0.812500
vt 0.250000 0.562500
vt 0.312500 0.562500
vt 0.312500 0.625000
vt 0.250000 0.625000
vt 0.312500 0.687500
vt 0.250000 0.687500
vt 0.375000 0.812500
vt 0.375000 0.875000
vt 0.312500 0.875000
vt 0.312500 0.812500
vt 0.411612 0.588388
vt 0.338388 0.588388
vt 0.312500 0.562500
vt 0.437500 0.562500
vt 0.437500 0.812500
vt 0.437500 0.875000
vt 0.338388 0.661612
vt 0.312500 0.687500
vt 0.500000 0.812500
vt 0.500000 0.875000
vt 0.338388 0.588388
vt 0.411612 0.588388
vt 0.437500 0.562500
vt 0.312500 0.562500
vt 0.250000 0.875000
vt 0.250000 0.812500
vt 0.411612 0.661612
vt 0.437500 0.687500
vt 0.062500 0.500000
vt 0.062500 1.000000
vt 0.000000 1.000000
vt 0.000000 0.500000
vt 0.062500 0.500000
vt 0.062500 1.000000
vt 0.000000 1.000000
vt 0.000000 0.500000
vt 0.250000 0.500000
vt 0.250000 1.000000
vt 0.187500 1.000000
vt 0.187500 0.500000
vt 0.250000 0.500000
vt 0.250000 1.000000
vt 0.187500 1.000000
vt 0.187500 0.500000
vt 0.125000 1.000000
vt 0.125000 0.500000
vt 0.125000 1.000000
vt 0.125000 0.500000
vt 0.062500 0.500000
vt 0.062500 1.000000
vt 0.000000 1.000000
vt 0.000000 0.500000
vt 0.250000 0.500000
vt 0.250000 1.000000
vt 0.187500 1.000000
vt 0.187500 0.500000
vt 0.125000 1.000000
vt 0.125000 0.500000
vt 0.312500 0.812500
vt 0.312500 0.875000
vt 0.437500 0.875000
vt 0.437500 0.812500
vt 0.437500 0.812500
vt 0.437500 0.875000
vt 0.500000 0.812500
vt 0.500000 0.875000
vt 0.375000 0.875000
vt 0.375000 0.812500
vt 0.375000 0.812500
vt 0.375000 0.875000
vt 0.338388 0.661612
vt 0.312500 0.687500
vt 0.411612 0.661612
vt 0.437500 0.687500
vt 0.250000 0.187500
vt 0.187500 0.187500
vt 0.218750 0.218750
vt 0.187500 0.125000
vt 0.250000 0.125000
vt 0.218763 0.156250
vt 0.187500 0.187500
vt 0.250000 0.187500
vt 0.218763 0.218750
vt 0.125000 0.187500
vt 0.156262 0.218750
vt 0.625000 0.562500
vt 0.750000 0.562500
vt 0.750000 0.687500
vt 0.625000 0.687500
vt 0.500000 0.562500
vt 0.625000 0.562500
vt 0.625000 0.687500
vt 0.500000 0.687500
vt 0.500000 0.437500
vt 0.625000 0.437500
vt 0.625000 0.562500
vt 0.500000 0.562500
vt 0.375000 0.562500
vt 0.500000 0.562500
vt 0.500000 0.687500
vt 0.375000 0.687500
vt 0.375000 0.437500
vt 0.375000 0.562500
vt 0.750000 0.437500
vt 0.156250 0.218750
vt 0.187500 0.250000
vt 0.125000 0.250000
vt 0.218750 0.218750
vt 0.250000 0.250000
vt 0.218750 0.156250
vt 0.250000 0.187500
vt 0.187500 0.187500
vt 0.218750 0.218750
vt 0.250000 0.250000
vt 0.187500 0.250000
vn 0.0000 0.0000 -1.0000
vn 1.0000 0.0000 0.0000
vn 0.0000 0.0000 1.0000
vn -1.0000 0.0000 0.0000
vn 0.0000 1.0000 0.0000
vn 0.0000 -1.0000 0.0000
vn 0.0000 0.7071 -0.7071
vn 0.7071 0.7071 0.0000
vn 0.0000 0.7071 0.7071
vn -0.7071 0.7071 0.0000
vn -0.4581 0.5736 -0.6791
vn 0.8130 0.5792 -0.0592
vn 0.4581 -0.5736 0.6791
vn -0.8130 -0.5792 0.0592
vn 0.3594 -0.5792 -0.7317
vn -0.3594 0.5792 0.7317
vn -0.7071 -0.7071 0.0000
vn 0.0000 -0.7071 0.7071
vn 0.7071 -0.7071 0.0000
vn 0.0000 -0.7071 -0.7071
usemtl MAIN
s off
f 21/1/1 11/2/1 12/3/1 22/4/1
f 22/5/2 12/6/2 14/7/2 25/8/2
f 25/8/3 14/7/3 13/9/3 28/10/3
f 28/10/4 13/9/4 11/2/4 21/1/4
f 18/11/4 30/12/4 19/13/4 15/14/4
f 28/15/5 21/16/5 45/17/5 43/18/5
f 17/19/3 27/20/3 30/12/3 18/11/3
f 21/16/5 22/21/5 39/22/5 45/17/5
f 16/23/2 24/24/2 27/20/2 17/19/2
f 20/25/6 29/26/6 44/27/6 46/28/6
f 15/14/1 19/13/1 24/29/1 16/30/1
f 25/31/5 28/15/5 43/18/5 41/32/5
f 19/33/1 31/34/1 38/35/1 24/36/1
f 31/37/1 32/38/1 37/39/1 38/40/1
f 24/41/2 38/42/2 34/43/2 27/44/2
f 38/45/2 37/46/2 33/47/2 34/48/2
f 27/44/3 34/43/3 36/49/3 30/50/3
f 34/48/3 33/47/3 35/51/3 36/52/3
f 30/50/4 36/49/4 31/34/4 19/33/4
f 36/52/4 35/51/4 32/38/4 31/37/4
f 32/53/1 20/54/1 23/55/1 37/56/1
f 37/57/2 23/58/2 26/59/2 33/60/2
f 33/60/3 26/59/3 29/61/3 35/62/3
f 35/62/4 29/61/4 20/54/4 32/53/4
f 44/63/4 43/64/4 45/65/4 46/66/4
f 42/67/3 41/68/3 43/64/3 44/63/3
f 40/69/2 39/70/2 41/71/2 42/72/2
f 46/73/1 45/74/1 39/70/1 40/69/1
f 22/21/5 25/31/5 41/32/5 39/22/5
f 23/75/6 20/25/6 46/28/6 40/76/6
f 29/26/6 26/77/6 42/78/6 44/27/6
f 26/77/6 23/75/6 40/76/6 42/78/6
usemtl CHIMERITE
f 12/79/7 11/80/7 1/81/7
f 14/82/8 12/83/8 1/84/8
f 13/85/9 14/86/9 1/87/9
f 11/88/10 13/85/10 1/89/10
f 2/90/11 3/91/11 5/92/11 4/93/11
f 4/94/12 5/95/12 9/96/12 8/97/12
f 8/98/13 9/99/13 7/100/13 6/101/13
f 6/102/14 7/103/14 3/104/14 2/105/14
f 4/106/15 8/98/15 6/101/15 2/107/15
f 9/99/16 5/108/16 3/91/16 7/100/16
f 10/109/17 18/110/17 15/111/17
f 10/112/18 17/113/18 18/110/18
f 10/114/19 16/115/19 17/116/19
f 10/117/20 15/118/20 16/119/20
