# Blender v2.80 (sub 75) OBJ File: 'wands.blend'
# www.blender.org
mtllib staff_aum.mtl
o STAFF_VAR3_Cube.009
v 0.468750 1.750000 0.468750
v 0.406250 1.812500 0.406250
v 0.593750 1.812500 0.406250
v 0.593750 1.812500 0.593750
v 0.406250 1.812500 0.593750
v 0.500000 0.031250 0.500000
v 0.531250 1.750000 0.468750
v 0.468750 1.750000 0.531250
v 0.531250 1.750000 0.531250
v 0.468750 0.062500 0.468750
v 0.531250 0.062500 0.468750
v 0.531250 0.062500 0.531250
v 0.468750 0.062500 0.531250
v 0.468750 0.125000 0.468750
v 0.468750 1.625000 0.468750
v 0.468750 1.687500 0.468750
v 0.531250 1.687500 0.468750
v 0.531250 1.625000 0.468750
v 0.531250 0.125000 0.468750
v 0.531250 1.687500 0.531250
v 0.531250 1.625000 0.531250
v 0.531250 0.125000 0.531250
v 0.468750 1.687500 0.531250
v 0.468750 1.625000 0.531250
v 0.468750 0.125000 0.531250
v 0.468750 0.625000 0.468750
v 0.468750 1.125000 0.468750
v 0.531250 1.125000 0.531250
v 0.531250 0.625000 0.531250
v 0.468750 1.125000 0.531250
v 0.468750 0.625000 0.531250
v 0.531250 1.125000 0.468750
v 0.531250 0.625000 0.468750
v 0.468750 1.562500 0.468750
v 0.531250 1.562500 0.531250
v 0.468750 1.562500 0.531250
v 0.531250 1.562500 0.468750
v 0.531250 0.187500 0.531250
v 0.468750 0.187500 0.531250
v 0.531250 0.187500 0.468750
v 0.468750 0.187500 0.468750
v 0.468750 1.750000 0.625000
v 0.531250 1.750000 0.625000
v 0.468750 1.750000 0.687500
v 0.531250 1.750000 0.687500
v 0.500000 1.875000 0.656250
v 0.500000 1.687500 0.656250
v 0.531250 1.750000 0.375000
v 0.468750 1.750000 0.375000
v 0.531250 1.750000 0.312500
v 0.468750 1.750000 0.312500
v 0.500000 1.875000 0.343750
v 0.500000 1.687500 0.343750
v 0.625030 1.750000 0.531250
v 0.625030 1.750000 0.468750
v 0.687530 1.750000 0.531250
v 0.687530 1.750000 0.468750
v 0.656280 1.875000 0.500000
v 0.656280 1.687500 0.500000
v 0.375000 1.750000 0.468750
v 0.375000 1.750000 0.531250
v 0.312500 1.750000 0.468750
v 0.312500 1.750000 0.531250
v 0.343750 1.875000 0.500000
v 0.343750 1.687500 0.500000
v 0.500000 1.875000 0.562500
v 0.562500 1.875000 0.562500
v 0.531250 2.000000 0.531250
v 0.562500 1.812500 0.562500
v 0.500000 1.812500 0.562500
v 0.562500 1.812500 0.500000
v 0.562500 1.875000 0.500000
v 0.562500 1.875000 0.437500
v 0.531250 2.000000 0.468750
v 0.562500 1.812500 0.437500
v 0.500000 1.875000 0.437500
v 0.437500 1.875000 0.437500
v 0.468750 2.000000 0.468750
v 0.437500 1.812500 0.437500
v 0.500000 1.812500 0.437500
v 0.437500 1.812500 0.500000
v 0.500000 1.875000 0.500000
v 0.437500 1.875000 0.500000
v 0.437500 1.875000 0.562500
v 0.468750 2.000000 0.531250
v 0.437500 1.812500 0.562500
v 0.468750 1.937500 0.531250
v 0.468750 1.937500 0.468750
v 0.531250 1.937500 0.531250
v 0.531250 1.937500 0.468750
v 0.500000 2.062500 0.500000
v 0.468750 1.875000 0.531250
v 0.531250 1.875000 0.468750
v 0.531250 1.875000 0.531250
v 0.468750 1.875000 0.468750
vt 0.062500 0.875000
vt 0.250000 0.875000
vt 0.187500 0.875000
vt 0.125000 0.875000
vt 0.000000 0.812500
vt 0.187500 0.812500
vt 0.187500 1.000000
vt 0.000000 1.000000
vt 0.125000 0.937500
vt 0.062500 0.937500
vt 0.000000 1.000000
vt 0.187500 1.000000
vt 0.125000 0.937500
vt 0.062500 0.937500
vt 0.312500 0.812500
vt 0.312500 0.875000
vt 0.250000 0.812500
vt 0.500000 0.812500
vt 0.500000 0.875000
vt 0.437500 0.875000
vt 0.437500 0.812500
vt 0.375000 0.875000
vt 0.375000 0.812500
vt 0.468750 0.781250
vt 0.500000 0.812500
vt 0.437500 0.812500
vt 0.406250 0.781250
vt 0.437500 0.812500
vt 0.375000 0.812500
vt 0.406250 0.718750
vt 0.437500 0.750000
vt 0.375000 0.750000
vt 0.406250 0.781250
vt 0.375000 0.812500
vt 0.125000 0.875000
vt 0.125000 0.937500
vt 0.062500 0.937500
vt 0.062500 0.875000
vt 0.375000 0.812500
vt 0.375000 0.875000
vt 0.312500 0.875000
vt 0.312500 0.812500
vt 0.125000 0.937500
vt 0.125000 1.000000
vt 0.062500 1.000000
vt 0.062500 0.937500
vt 0.187500 0.875000
vt 0.187500 0.937500
vt 0.437500 0.812500
vt 0.437500 0.875000
vt 0.187500 0.937500
vt 0.187500 1.000000
vt 0.250000 0.875000
vt 0.250000 0.937500
vt 0.500000 0.812500
vt 0.500000 0.875000
vt 0.250000 0.937500
vt 0.250000 1.000000
vt 0.000000 0.937500
vt 0.000000 0.875000
vt 0.250000 0.875000
vt 0.250000 0.812500
vt 0.000000 1.000000
vt 0.000000 0.937500
vt 0.187500 1.000000
vt 0.125000 1.000000
vt 0.125000 0.562500
vt 0.187500 0.562500
vt 0.125000 0.500000
vt 0.125000 1.000000
vt 0.062500 1.000000
vt 0.062500 0.500000
vt 0.000000 1.000000
vt 0.000000 0.500000
vt 0.250000 0.500000
vt 0.250000 1.000000
vt 0.187500 1.000000
vt 0.187500 0.500000
vt 0.062500 0.500000
vt 0.062500 0.937500
vt 0.000000 0.937500
vt 0.000000 0.500000
vt 0.250000 0.500000
vt 0.250000 0.937500
vt 0.187500 0.937500
vt 0.187500 0.500000
vt 0.125000 0.937500
vt 0.125000 0.500000
vt 0.062500 1.000000
vt 0.062500 0.562500
vt 0.000000 1.000000
vt 0.000000 0.562500
vt 0.250000 1.000000
vt 0.250000 0.562500
vt 0.500000 0.812500
vt 0.500000 0.875000
vt 0.437500 0.875000
vt 0.437500 0.812500
vt 0.312500 0.812500
vt 0.312500 0.875000
vt 0.250000 0.875000
vt 0.250000 0.812500
vt 0.375000 0.812500
vt 0.375000 0.875000
vt 0.500000 0.812500
vt 0.437500 0.812500
vt 0.468750 0.687500
vt 0.375000 0.812500
vt 0.375000 0.750000
vt 0.500000 0.781250
vt 0.500000 0.812500
vt 0.437500 0.812500
vt 0.375000 0.812500
vt 0.375000 0.750000
vt 0.437500 0.687500
vt 0.437500 0.750000
vt 0.375000 0.718750
vt 0.437500 0.812500
vt 0.375000 0.781250
vt 0.437500 0.687500
vt 0.437500 0.750000
vt 0.437500 0.812500
vt 0.500000 0.812500
vt 0.437500 0.812500
vt 0.468750 0.687500
vt 0.375000 0.812500
vt 0.375000 0.750000
vt 0.500000 0.781250
vt 0.500000 0.812500
vt 0.437500 0.812500
vt 0.375000 0.812500
vt 0.375000 0.750000
vt 0.437500 0.687500
vt 0.437500 0.750000
vt 0.375000 0.718750
vt 0.437500 0.812500
vt 0.375000 0.781250
vt 0.437500 0.687500
vt 0.437500 0.750000
vt 0.437500 0.812500
vt 0.500000 0.812500
vt 0.437500 0.812500
vt 0.468750 0.687500
vt 0.375000 0.812500
vt 0.375000 0.750000
vt 0.500000 0.781250
vt 0.500000 0.812500
vt 0.437500 0.812500
vt 0.375000 0.812500
vt 0.375000 0.750000
vt 0.437500 0.687500
vt 0.437500 0.750000
vt 0.375000 0.718750
vt 0.437500 0.812500
vt 0.375000 0.781250
vt 0.437500 0.687500
vt 0.437500 0.750000
vt 0.437500 0.812500
vt 0.500000 0.812500
vt 0.437500 0.812500
vt 0.468750 0.687500
vt 0.375000 0.812500
vt 0.375000 0.750000
vt 0.500000 0.781250
vt 0.500000 0.812500
vt 0.437500 0.812500
vt 0.375000 0.812500
vt 0.375000 0.750000
vt 0.437500 0.687500
vt 0.437500 0.750000
vt 0.375000 0.718750
vt 0.437500 0.812500
vt 0.375000 0.781250
vt 0.437500 0.687500
vt 0.437500 0.750000
vt 0.437500 0.812500
vt 0.500000 0.812500
vt 0.437500 0.812500
vt 0.468750 0.687500
vt 0.375000 0.812500
vt 0.375000 0.750000
vt 0.500000 0.781250
vt 0.500000 0.812500
vt 0.437500 0.812500
vt 0.375000 0.812500
vt 0.375000 0.750000
vt 0.437500 0.750000
vt 0.375000 0.750000
vt 0.375000 0.687500
vt 0.437500 0.687500
vt 0.375000 0.812500
vt 0.375000 0.750000
vt 0.437500 0.750000
vt 0.468750 0.687500
vt 0.375000 0.750000
vt 0.500000 0.781250
vt 0.500000 0.812500
vt 0.437500 0.812500
vt 0.375000 0.812500
vt 0.437500 0.750000
vt 0.375000 0.750000
vt 0.375000 0.687500
vt 0.437500 0.687500
vt 0.375000 0.812500
vt 0.375000 0.750000
vt 0.437500 0.750000
vt 0.468750 0.687500
vt 0.375000 0.750000
vt 0.500000 0.781250
vt 0.500000 0.812500
vt 0.437500 0.812500
vt 0.375000 0.812500
vt 0.437500 0.750000
vt 0.375000 0.750000
vt 0.375000 0.687500
vt 0.437500 0.687500
vt 0.375000 0.812500
vt 0.375000 0.750000
vt 0.437500 0.750000
vt 0.468750 0.687500
vt 0.375000 0.750000
vt 0.500000 0.781250
vt 0.500000 0.812500
vt 0.437500 0.750000
vt 0.375000 0.750000
vt 0.375000 0.687500
vt 0.437500 0.687500
vt 0.375000 0.812500
vt 0.375000 0.750000
vt 0.437500 0.750000
vt 0.500000 0.812500
vt 0.437500 0.812500
vt 0.468750 0.687500
vt 0.375000 0.812500
vt 0.375000 0.750000
vt 0.500000 0.781250
vt 0.500000 0.812500
vt 0.437500 0.812500
vt 0.375000 0.812500
vt 0.375000 0.750000
vt 0.437500 0.750000
vt 0.375000 0.750000
vt 0.375000 0.687500
vt 0.437500 0.687500
vt 0.437500 0.750000
vt 0.375000 0.750000
vt 0.375000 0.687500
vt 0.437500 0.687500
vt 0.375000 0.812500
vt 0.375000 0.750000
vt 0.437500 0.750000
vt 0.375000 0.812500
vt 0.375000 0.750000
vt 0.437500 0.750000
vn 0.0000 -1.0000 0.0000
vn 0.0000 1.0000 0.0000
vn -0.7071 -0.7071 0.0000
vn 0.7071 -0.7071 0.0000
vn 0.0000 -0.7071 0.7071
vn 0.0000 -0.7071 -0.7071
vn 0.0000 0.0000 -1.0000
vn 1.0000 0.0000 0.0000
vn 0.0000 0.0000 1.0000
vn -1.0000 0.0000 0.0000
vn -0.9701 0.2425 0.0000
vn 0.0000 0.2425 0.9701
vn 0.9701 0.2425 0.0000
vn 0.0000 0.2425 -0.9701
vn 0.0000 -0.4472 -0.8944
vn 0.8944 -0.4472 0.0000
vn 0.0000 -0.4472 0.8944
vn -0.8944 -0.4472 0.0000
usemtl MAIN
s off
f 1/1/1 7/2/1 9/3/1 8/4/1
f 2/5/2 5/6/2 4/7/2 3/8/2
f 1/9/3 8/10/3 5/11/3 2/12/3
f 9/13/4 7/14/4 3/8/4 4/7/4
f 8/10/5 9/13/5 4/7/5 5/11/5
f 7/14/6 1/9/6 2/12/6 3/8/6
f 16/15/7 1/16/7 7/2/7 17/17/7
f 17/18/8 7/19/8 9/20/8 20/21/8
f 20/21/9 9/20/9 8/22/9 23/23/9
f 23/23/10 8/22/10 1/16/10 16/15/10
f 6/24/3 13/25/3 10/26/3
f 6/27/5 12/28/5 13/29/5
f 6/30/4 11/31/4 12/32/4
f 6/33/6 10/26/6 11/34/6
f 13/35/10 25/36/10 14/37/10 10/38/10
f 36/39/10 24/40/10 15/41/10 34/42/10
f 24/43/10 23/44/10 16/45/10 15/46/10
f 12/47/9 22/48/9 25/36/9 13/35/9
f 35/49/9 21/50/9 24/40/9 36/39/9
f 21/51/9 20/52/9 23/44/9 24/43/9
f 11/53/8 19/54/8 22/48/8 12/47/8
f 37/55/8 18/56/8 21/50/8 35/49/8
f 18/57/8 17/58/8 20/52/8 21/51/8
f 10/38/7 14/37/7 19/59/7 11/60/7
f 34/42/7 15/41/7 18/61/7 37/62/7
f 15/46/7 16/45/7 17/63/7 18/64/7
f 26/65/7 33/66/7 40/67/7 41/68/7
f 26/69/7 27/70/7 32/71/7 33/72/7
f 33/72/8 32/71/8 28/73/8 29/74/8
f 29/75/9 28/76/9 30/77/9 31/78/9
f 31/78/10 30/77/10 27/70/10 26/69/10
f 27/79/7 34/80/7 37/81/7 32/82/7
f 32/83/8 37/84/8 35/85/8 28/86/8
f 28/86/9 35/85/9 36/87/9 30/88/9
f 30/88/10 36/87/10 34/80/10 27/79/10
f 33/66/8 29/89/8 38/90/8 40/67/8
f 29/89/9 31/91/9 39/92/9 38/90/9
f 31/93/10 26/65/10 41/68/10 39/94/10
f 25/95/10 39/96/10 41/97/10 14/98/10
f 22/99/9 38/100/9 39/101/9 25/102/9
f 19/103/8 40/104/8 38/100/8 22/99/8
f 14/98/7 41/97/7 40/104/7 19/103/7
f 42/105/11 44/106/11 46/107/11
f 44/108/12 45/109/12 46/110/12
f 45/111/13 43/112/13 46/107/13
f 43/113/14 42/114/14 46/110/14
f 42/115/15 43/116/15 47/117/15
f 43/116/16 45/118/16 47/119/16
f 45/120/17 44/121/17 47/117/17
f 44/121/18 42/122/18 47/119/18
f 48/123/13 50/124/13 52/125/13
f 50/126/14 51/127/14 52/128/14
f 51/129/11 49/130/11 52/125/11
f 49/131/12 48/132/12 52/128/12
f 48/133/17 49/134/17 53/135/17
f 49/134/18 51/136/18 53/137/18
f 51/138/15 50/139/15 53/135/15
f 50/139/16 48/140/16 53/137/16
f 54/141/12 56/142/12 58/143/12
f 56/144/13 57/145/13 58/146/13
f 57/147/14 55/148/14 58/143/14
f 55/149/11 54/150/11 58/146/11
f 54/151/18 55/152/18 59/153/18
f 55/152/15 57/154/15 59/155/15
f 57/156/16 56/157/16 59/153/16
f 56/157/17 54/158/17 59/155/17
f 60/159/14 62/160/14 64/161/14
f 62/162/11 63/163/11 64/164/11
f 63/165/12 61/166/12 64/161/12
f 61/167/13 60/168/13 64/164/13
f 60/169/16 61/170/16 65/171/16
f 61/170/17 63/172/17 65/173/17
f 63/174/18 62/175/18 65/171/18
f 62/175/15 60/176/15 65/173/15
f 82/177/11 66/178/11 68/179/11
f 66/180/12 67/181/12 68/182/12
f 67/183/13 72/184/13 68/179/13
f 72/185/14 82/186/14 68/182/14
f 67/187/9 66/188/9 70/189/9 69/190/9
f 72/184/8 67/191/8 69/192/8 71/193/8
f 82/177/12 72/184/12 74/194/12
f 72/185/13 73/195/13 74/196/13
f 73/197/14 76/198/14 74/194/14
f 76/199/11 82/186/11 74/196/11
f 73/200/8 72/201/8 71/202/8 75/203/8
f 76/198/7 73/204/7 75/205/7 80/206/7
f 82/177/13 76/198/13 78/207/13
f 76/199/14 77/208/14 78/209/14
f 77/210/11 83/211/11 78/207/11
f 83/212/12 82/186/12 78/209/12
f 77/213/7 76/214/7 80/215/7 79/216/7
f 83/211/10 77/217/10 79/218/10 81/219/10
f 82/177/14 83/211/14 85/220/14
f 83/212/11 84/221/11 85/222/11
f 84/223/12 66/178/12 85/220/12
f 66/180/13 82/186/13 85/222/13
f 84/224/10 83/225/10 81/226/10 86/227/10
f 66/178/9 84/228/9 86/229/9 70/230/9
f 87/231/12 89/232/12 91/233/12
f 89/234/13 90/235/13 91/236/13
f 90/237/14 88/238/14 91/233/14
f 88/239/11 87/240/11 91/236/11
f 90/241/8 89/242/8 94/243/8 93/244/8
f 87/245/10 88/246/10 95/247/10 92/248/10
f 88/238/7 90/249/7 93/250/7 95/251/7
f 89/232/9 87/252/9 92/253/9 94/254/9
