# Blender v2.80 (sub 75) OBJ File: 'wands.blend'
# www.blender.org
mtllib staff_gold.mtl
o STAFF_VAR8_Cube.021
v 0.500000 0.031250 0.500000
v 0.468750 0.062500 0.531250
v 0.468750 0.062500 0.468750
v 0.531250 0.062500 0.468750
v 0.531250 0.062500 0.531250
v 0.468750 0.125000 0.531250
v 0.468750 1.625000 0.531250
v 0.468750 1.625000 0.468750
v 0.468750 0.125000 0.468750
v 0.531250 1.625000 0.468750
v 0.531250 0.125000 0.468750
v 0.531250 1.625000 0.531250
v 0.531250 0.125000 0.531250
v 0.468750 0.625000 0.531250
v 0.468750 1.125000 0.531250
v 0.531250 1.125000 0.468750
v 0.531250 0.625000 0.468750
v 0.531250 1.125000 0.531250
v 0.531250 0.625000 0.531250
v 0.468750 1.125000 0.468750
v 0.468750 0.625000 0.468750
v 0.437500 1.687500 0.437500
v 0.562500 1.687500 0.437500
v 0.562500 1.687500 0.562500
v 0.437500 1.687500 0.562500
v 0.402459 1.828125 0.531250
v 0.402459 1.828125 0.468750
v 0.500000 1.925666 0.531250
v 0.500000 1.925666 0.468750
v 0.597541 1.828125 0.531250
v 0.597541 1.828125 0.468750
v 0.500000 1.730584 0.531250
v 0.500000 1.730584 0.468750
v 0.544194 1.969860 0.531250
v 0.641735 1.783931 0.531250
v 0.641735 1.783931 0.468750
v 0.544194 1.686389 0.531250
v 0.544194 1.686389 0.468750
v 0.358265 1.783931 0.531250
v 0.358265 1.783931 0.468750
v 0.455806 1.686389 0.531250
v 0.455806 1.686389 0.468750
v 0.358265 1.872319 0.531250
v 0.358265 1.872319 0.468750
v 0.455806 1.969860 0.531250
v 0.455806 1.969860 0.468750
v 0.544194 1.969860 0.468750
v 0.641735 1.872319 0.531250
v 0.641735 1.872319 0.468750
v 0.766735 1.828125 0.500000
v 0.500000 1.642195 0.468750
v 0.500000 1.642195 0.531250
v 0.500000 1.687500 0.500000
v 0.531250 1.562500 0.468750
v 0.468750 1.562500 0.468750
v 0.531250 1.562500 0.531250
v 0.468750 1.562500 0.531250
v 0.531250 0.187500 0.468750
v 0.531250 0.187500 0.531250
v 0.468750 0.187500 0.468750
v 0.468750 0.187500 0.531250
v 0.233265 1.828125 0.500000
v 0.500000 2.094860 0.500000
v 0.327015 1.658931 0.468750
v 0.358265 1.783931 0.500000
v 0.389515 1.658931 0.468750
v 0.358265 1.596431 0.500000
v 0.327015 1.658931 0.531250
v 0.389515 1.658931 0.531250
v 0.610485 1.658931 0.468750
v 0.641735 1.783931 0.500000
v 0.672985 1.658931 0.468750
v 0.641735 1.596431 0.500000
v 0.610485 1.658931 0.531250
v 0.672985 1.658931 0.531250
v 0.468750 1.863166 0.468750
v 0.500000 1.925666 0.500000
v 0.531250 1.863166 0.468750
v 0.500000 1.800666 0.500000
v 0.468750 1.863166 0.531250
v 0.531250 1.863166 0.531250
vt 0.562500 0.750000
vt 0.625000 0.750000
vt 0.625000 0.812500
vt 0.562500 0.812500
vt 0.562500 0.687500
vt 0.625000 0.687500
vt 0.562500 0.625000
vt 0.625000 0.625000
vt 0.625000 0.875000
vt 0.562500 0.875000
vt 0.062500 0.500000
vt 0.062500 1.000000
vt 0.000000 1.000000
vt 0.000000 0.500000
vt 0.250000 0.500000
vt 0.250000 1.000000
vt 0.187500 1.000000
vt 0.187500 0.500000
vt 0.125000 1.000000
vt 0.125000 0.500000
vt 0.250000 0.750000
vt 0.312500 0.750000
vt 0.312500 0.812500
vt 0.250000 0.812500
vt 0.250000 0.562500
vt 0.312500 0.562500
vt 0.312500 0.625000
vt 0.250000 0.625000
vt 0.312500 0.687500
vt 0.250000 0.687500
vt 0.562500 0.656250
vt 0.625000 0.687500
vt 0.625000 0.562500
vt 0.562500 0.593750
vt 0.562500 0.593750
vt 0.625000 0.562500
vt 0.562500 0.531250
vt 0.625000 0.500000
vt 0.625000 0.625000
vt 0.625000 0.625000
vt 0.562500 0.687500
vt 0.562500 0.562500
vt 0.625000 0.562500
vt 0.625000 0.687500
vt 0.625000 0.750000
vt 0.625000 0.875000
vt 0.562500 0.875000
vt 0.562500 0.750000
vt 0.562500 0.875000
vt 0.562500 0.750000
vt 0.625000 0.750000
vt 0.625000 0.875000
vt 0.625000 0.937500
vt 0.562500 0.937500
vt 0.562500 0.812500
vt 0.625000 0.812500
vt 0.562500 0.687500
vt 0.625000 0.812500
vt 0.625000 0.875000
vt 0.625000 0.750000
vt 0.562500 0.750000
vt 0.562500 0.875000
vt 0.562500 0.625000
vt 0.625000 0.625000
vt 0.625000 0.500000
vt 0.562500 0.500000
vt 0.562500 0.562500
vt 0.562500 0.687500
vt 0.625000 0.687500
vt 0.625000 0.562500
vt 0.562500 0.687500
vt 0.625000 0.687500
vt 0.625000 0.500000
vt 0.562500 0.500000
vt 0.562500 0.625000
vt 0.625000 0.625000
vt 0.625000 0.750000
vt 0.562500 0.687500
vt 0.625000 0.562500
vt 0.625000 0.687500
vt 0.562500 0.687500
vt 0.625000 0.687500
vt 0.625000 0.562500
vt 0.562500 0.812500
vt 0.625000 0.812500
vt 0.625000 0.937500
vt 0.562500 0.937500
vt 0.562500 0.750000
vt 0.562500 0.875000
vt 0.625000 0.875000
vt 0.625000 0.750000
vt 0.562500 0.687500
vt 0.562500 0.875000
vt 0.625000 0.875000
vt 0.562500 1.000000
vt 0.562500 0.937500
vt 0.625000 0.937500
vt 0.625000 0.687500
vt 0.562500 0.687500
vt 0.625000 0.750000
vt 0.625000 0.562500
vt 0.625000 0.500000
vt 0.562500 0.500000
vt 0.562500 0.562500
vt 0.625000 0.562500
vt 0.562500 0.562500
vt 0.562500 0.500000
vt 0.625000 0.812500
vt 0.562500 0.812500
vt 0.625000 0.625000
vt 0.562500 0.750000
vt 0.562500 0.625000
vt 0.562500 0.625000
vt 0.625000 0.625000
vt 0.625000 0.750000
vt 0.625000 0.812500
vt 0.562500 0.812500
vt 0.625000 0.687500
vt 0.562500 0.750000
vt 0.562500 0.625000
vt 0.625000 0.687500
vt 0.562500 0.687500
vt 0.562500 0.562500
vt 0.625000 0.625000
vt 0.562500 0.687500
vt 0.562500 0.625000
vt 0.125000 0.500000
vt 0.125000 0.937500
vt 0.062500 0.937500
vt 0.062500 0.500000
vt 0.187500 0.500000
vt 0.187500 0.937500
vt 0.250000 0.500000
vt 0.250000 0.937500
vt 0.000000 0.937500
vt 0.000000 0.500000
vt 0.250000 0.687500
vt 0.312500 0.687500
vt 0.312500 0.750000
vt 0.250000 0.750000
vt 0.125000 0.562500
vt 0.125000 1.000000
vt 0.062500 1.000000
vt 0.062500 0.562500
vt 0.250000 0.625000
vt 0.312500 0.625000
vt 0.187500 0.562500
vt 0.187500 1.000000
vt 0.250000 0.562500
vt 0.312500 0.562500
vt 0.250000 0.562500
vt 0.250000 1.000000
vt 0.312500 0.812500
vt 0.250000 0.812500
vt 0.000000 1.000000
vt 0.000000 0.562500
vt 0.625000 0.687500
vt 0.562500 0.687500
vt 0.625000 0.812500
vt 0.625000 0.937500
vt 0.625000 0.687500
vt 0.562500 0.687500
vt 0.625000 0.937500
vt 0.625000 0.750000
vt 0.562500 0.937500
vt 0.625000 0.875000
vt 0.562500 0.875000
vt 0.250000 0.625000
vt 0.312500 0.687500
vt 0.250000 0.687500
vt 0.250000 0.562500
vt 0.312500 0.625000
vt 0.250000 0.625000
vt 0.250000 0.500000
vt 0.312500 0.562500
vt 0.250000 0.562500
vt 0.312500 0.625000
vt 0.250000 0.625000
vt 0.187500 0.125000
vt 0.125000 0.250000
vt 0.125000 0.125000
vt 0.250000 0.125000
vt 0.187500 0.250000
vt 0.187500 0.125000
vt 0.125000 0.125000
vt 0.250000 0.125000
vt 0.125000 0.062500
vt 0.187500 0.062500
vt 0.187500 0.125000
vt 0.125000 0.250000
vt 0.125000 0.125000
vt 0.250000 0.125000
vt 0.187500 0.250000
vt 0.187500 0.125000
vt 0.125000 0.125000
vt 0.250000 0.125000
vt 0.125000 0.062500
vt 0.187500 0.062500
vt 0.750000 0.125000
vt 0.687500 0.187500
vt 0.687500 0.125000
vt 0.812500 0.125000
vt 0.750000 0.187500
vt 0.750000 0.125000
vt 0.687500 0.125000
vt 0.812500 0.125000
vt 0.687500 0.062500
vt 0.750000 0.062500
vn 0.0000 0.0000 1.0000
vn 1.0000 0.0000 0.0000
vn 0.0000 0.0000 -1.0000
vn -1.0000 0.0000 0.0000
vn 0.0000 -0.4472 0.8944
vn 0.8944 -0.4472 0.0000
vn 0.0000 -0.4472 -0.8944
vn -0.8944 -0.4472 0.0000
vn 0.7071 0.7071 0.0000
vn 0.2425 0.0000 0.9701
vn 0.7071 -0.7071 0.0000
vn -0.7071 -0.7071 0.0000
vn -0.3333 -0.9428 0.0000
vn -0.7071 0.7071 0.0000
vn 0.0000 0.2425 0.9701
vn 0.0000 1.0000 0.0000
vn -0.2425 0.0000 -0.9701
vn -0.3333 0.9428 0.0000
vn -0.2425 0.0000 0.9701
vn 0.2425 0.0000 -0.9701
vn 0.3333 0.9428 0.0000
vn 0.3333 -0.9428 0.0000
vn -0.9428 0.3333 0.0000
vn 0.0000 0.2425 -0.9701
vn 0.9428 0.3333 0.0000
vn 0.0000 -0.7071 0.7071
vn 0.0000 -0.7071 -0.7071
vn 0.9701 0.2425 0.0000
vn -0.9701 0.2425 0.0000
vn 0.0000 0.4472 -0.8944
vn 0.8944 0.4472 0.0000
vn 0.0000 0.4472 0.8944
vn -0.8944 0.4472 0.0000
usemtl MAIN
s off
f 5/1/1 13/2/1 6/3/1 2/4/1
f 4/5/2 11/6/2 13/2/2 5/1/2
f 3/7/3 9/8/3 11/6/3 4/5/3
f 2/4/4 6/3/4 9/9/4 3/10/4
f 14/11/4 15/12/4 20/13/4 21/14/4
f 21/15/3 20/16/3 16/17/3 17/18/3
f 17/18/2 16/17/2 18/19/2 19/20/2
f 19/20/1 18/19/1 15/12/1 14/11/1
f 57/21/4 7/22/4 8/23/4 55/24/4
f 55/25/3 8/26/3 10/27/3 54/28/3
f 54/28/2 10/27/2 12/29/2 56/30/2
f 56/30/1 12/29/1 7/22/1 57/21/1
f 12/31/5 24/32/5 25/33/5 7/34/5
f 10/35/6 23/36/6 24/32/6 12/31/6
f 8/37/7 22/38/7 23/39/7 10/35/7
f 7/34/8 25/40/8 22/38/8 8/37/8
f 30/41/1 32/42/1 37/43/1 35/44/1
f 31/45/3 29/46/3 47/47/3 49/48/3
f 29/49/3 27/50/3 44/51/3 46/52/3
f 47/53/9 34/54/9 48/55/9 49/56/9
f 48/57/10 35/44/10 50/58/10
f 28/59/1 30/60/1 48/61/1 34/62/1
f 36/63/11 35/64/11 37/65/11 38/66/11
f 33/67/3 31/68/3 36/69/3 38/70/3
f 36/71/3 31/72/3 49/48/3
f 42/73/12 41/74/12 39/75/12 40/76/12
f 40/76/13 39/75/13 62/77/13
f 27/78/3 33/67/3 42/79/3 40/80/3
f 32/42/1 26/81/1 39/82/1 41/83/1
f 44/84/14 43/85/14 45/86/14 46/87/14
f 26/88/1 28/89/1 45/90/1 43/91/1
f 44/51/3 27/50/3 40/80/3
f 26/88/1 43/91/1 39/92/1
f 45/93/15 34/94/15 63/95/15
f 29/49/3 46/52/3 47/96/3
f 45/90/1 28/89/1 34/97/1
f 30/98/1 35/99/1 48/100/1
f 32/101/1 41/102/1 52/103/1 37/104/1
f 42/73/3 33/105/3 38/106/3 51/107/3
f 31/68/12 30/98/12 28/108/12 29/109/12
f 32/110/14 30/60/14 31/111/14 33/112/14
f 26/88/9 32/113/9 33/114/9 27/115/9
f 29/116/11 28/117/11 26/81/11 27/118/11
f 24/119/16 23/120/16 53/121/16
f 23/122/16 22/123/16 53/124/16
f 22/123/16 25/125/16 53/124/16
f 25/126/16 24/119/16 53/121/16
f 18/127/1 56/128/1 57/129/1 15/130/1
f 16/131/2 54/132/2 56/128/2 18/127/2
f 20/133/3 55/134/3 54/132/3 16/131/3
f 15/130/4 57/129/4 55/135/4 20/136/4
f 13/137/1 59/138/1 61/139/1 6/140/1
f 59/141/1 19/142/1 14/143/1 61/144/1
f 11/145/2 58/146/2 59/138/2 13/137/2
f 58/147/2 17/148/2 19/142/2 59/141/2
f 9/149/3 60/150/3 58/146/3 11/145/3
f 60/151/3 21/152/3 17/148/3 58/147/3
f 6/140/4 61/139/4 60/153/4 9/154/4
f 61/144/4 14/143/4 21/155/4 60/156/4
f 44/157/17 40/158/17 62/159/17
f 43/85/18 44/84/18 62/160/18
f 39/92/19 43/161/19 62/159/19
f 36/69/20 49/162/20 50/58/20
f 49/163/21 48/55/21 50/58/21
f 35/64/22 36/63/22 50/164/22
f 46/87/23 45/86/23 63/165/23
f 47/166/24 46/167/24 63/95/24
f 34/54/25 47/53/25 63/165/25
usemtl CHIMERITE
f 1/168/26 5/169/26 2/170/26
f 1/171/11 4/172/11 5/173/11
f 1/174/27 3/175/27 4/176/27
f 1/171/12 2/177/12 3/178/12
f 64/179/24 65/180/24 66/181/24
f 66/182/28 65/183/28 69/184/28
f 69/184/15 65/180/15 68/185/15
f 68/186/29 65/183/29 64/179/29
f 64/179/7 66/181/7 67/187/7
f 69/184/5 68/185/5 67/187/5
f 68/186/8 64/179/8 67/188/8
f 66/182/6 69/184/6 67/188/6
f 70/189/24 71/190/24 72/191/24
f 72/192/28 71/193/28 75/194/28
f 75/194/15 71/190/15 74/195/15
f 74/196/29 71/193/29 70/189/29
f 70/189/7 72/191/7 73/197/7
f 75/194/5 74/195/5 73/197/5
f 74/196/8 70/189/8 73/198/8
f 72/192/6 75/194/6 73/198/6
f 76/199/30 77/200/30 78/201/30
f 78/202/31 77/203/31 81/204/31
f 81/204/32 77/200/32 80/205/32
f 80/206/33 77/203/33 76/199/33
f 76/199/7 78/201/7 79/207/7
f 81/204/5 80/205/5 79/207/5
f 80/206/8 76/199/8 79/208/8
f 78/202/6 81/204/6 79/208/6
