# Blender v2.80 (sub 75) OBJ File: 'wands.blend'
# www.blender.org
mtllib staff_prismarinecrystal.mtl
o STAFF_VAR16_Cube.074
v 0.500000 0.031250 0.500000
v 0.468750 0.062500 0.468750
v 0.531250 0.062500 0.468750
v 0.531250 0.062500 0.531250
v 0.468750 0.062500 0.531250
v 0.468750 0.125000 0.468750
v 0.468750 1.562500 0.468750
v 0.531250 1.562500 0.468750
v 0.531250 0.125000 0.468750
v 0.531250 1.562500 0.531250
v 0.531250 0.125000 0.531250
v 0.468750 1.562500 0.531250
v 0.468750 0.125000 0.531250
v 0.468750 0.625000 0.468750
v 0.468750 1.125000 0.468750
v 0.531250 1.125000 0.531250
v 0.531250 0.625000 0.531250
v 0.468750 1.125000 0.531250
v 0.468750 0.625000 0.531250
v 0.531250 1.125000 0.468750
v 0.531250 0.625000 0.468750
v 0.468750 1.625000 0.468750
v 0.531250 1.625000 0.468750
v 0.531250 1.625000 0.531250
v 0.468750 1.625000 0.531250
v 0.562500 1.937500 0.562500
v 0.437500 1.687500 0.437500
v 0.437500 1.687500 0.562500
v 0.562500 1.750000 0.437500
v 0.500000 2.000000 0.500000
v 0.562500 2.000000 0.437500
v 0.437500 2.000000 0.562500
v 0.437500 1.937500 0.562500
v 0.562500 1.937500 0.437500
v 0.562500 2.000000 0.562500
v 0.437500 2.000000 0.437500
v 0.437500 1.937500 0.437500
v 0.500000 1.937500 0.500000
v 0.562500 1.687500 0.437500
v 0.437500 1.750000 0.437500
v 0.562500 1.750000 0.562500
v 0.437500 1.750000 0.562500
v 0.500000 1.750000 0.500000
v 0.453125 1.750000 0.546875
v 0.453125 1.937500 0.546875
v 0.453125 1.750000 0.453125
v 0.453125 1.937500 0.453125
v 0.546875 1.750000 0.546875
v 0.546875 1.937500 0.546875
v 0.546875 1.750000 0.453125
v 0.546875 1.937500 0.453125
v 0.562500 1.687500 0.562500
v 0.500000 1.687500 0.500000
v 0.468750 1.687500 0.468750
v 0.531250 1.687500 0.468750
v 0.531250 1.687500 0.531250
v 0.468750 1.687500 0.531250
v 0.468750 2.000000 0.468750
v 0.500000 2.062500 0.500000
v 0.531250 2.000000 0.468750
v 0.468750 2.000000 0.531250
v 0.531250 2.000000 0.531250
vt 0.375000 0.812500
vt 0.375000 0.875000
vt 0.312500 0.875000
vt 0.312500 0.812500
vt 0.437500 0.812500
vt 0.437500 0.875000
vt 0.500000 0.812500
vt 0.500000 0.875000
vt 0.250000 0.875000
vt 0.250000 0.812500
vt 0.062500 0.500000
vt 0.062500 1.000000
vt 0.000000 1.000000
vt 0.000000 0.500000
vt 0.062500 0.500000
vt 0.062500 1.000000
vt 0.000000 1.000000
vt 0.000000 0.500000
vt 0.250000 0.500000
vt 0.250000 1.000000
vt 0.187500 1.000000
vt 0.187500 0.500000
vt 0.250000 0.500000
vt 0.250000 1.000000
vt 0.187500 1.000000
vt 0.187500 0.500000
vt 0.125000 1.000000
vt 0.125000 0.500000
vt 0.125000 1.000000
vt 0.125000 0.500000
vt 0.062500 0.500000
vt 0.062500 0.937500
vt 0.000000 0.937500
vt 0.000000 0.500000
vt 0.250000 0.500000
vt 0.250000 0.937500
vt 0.187500 0.937500
vt 0.187500 0.500000
vt 0.125000 0.937500
vt 0.125000 0.500000
vt 0.312500 0.875000
vt 0.375000 0.875000
vt 0.375000 0.812500
vt 0.312500 0.812500
vt 0.437500 0.875000
vt 0.500000 0.875000
vt 0.500000 0.812500
vt 0.437500 0.812500
vt 0.250000 0.875000
vt 0.250000 0.812500
vt 0.812500 0.500000
vt 0.875000 0.500000
vt 0.875000 0.625000
vt 0.812500 0.625000
vt 0.812500 0.687500
vt 0.875000 0.687500
vt 0.875000 0.562500
vt 0.812500 0.562500
vt 0.812500 0.687500
vt 0.875000 0.687500
vt 0.875000 0.562500
vt 0.812500 0.562500
vt 0.812500 0.562500
vt 0.875000 0.562500
vt 0.812500 0.562500
vt 0.812500 0.687500
vt 0.875000 0.625000
vt 0.812500 0.500000
vt 0.812500 0.625000
vt 0.875000 0.562500
vt 0.812500 0.562500
vt 0.812500 0.500000
vt 0.875000 0.500000
vt 0.875000 0.625000
vt 0.812500 0.625000
vt 0.812500 0.625000
vt 0.875000 0.562500
vt 0.875000 0.687500
vt 0.812500 0.625000
vt 0.875000 0.625000
vt 0.812500 0.625000
vt 0.875000 0.562500
vt 0.875000 0.500000
vt 0.875000 0.625000
vt 0.812500 0.562500
vt 0.812500 0.687500
vt 0.875000 0.687500
vt 0.875000 0.562500
vt 0.812500 0.562500
vt 0.812500 0.687500
vt 0.875000 0.687500
vt 0.875000 0.562500
vt 0.812500 0.562500
vt 0.812500 0.562500
vt 0.875000 0.562500
vt 0.812500 0.625000
vt 0.812500 0.687500
vt 0.875000 0.625000
vt 0.812500 0.562500
vt 0.812500 0.625000
vt 0.875000 0.562500
vt 0.812500 0.500000
vt 0.812500 0.562500
vt 0.875000 0.500000
vt 0.875000 0.625000
vt 0.812500 0.562500
vt 0.812500 0.625000
vt 0.875000 0.562500
vt 0.875000 0.625000
vt 0.875000 0.562500
vt 0.875000 0.687500
vt 0.812500 0.625000
vt 0.875000 0.812500
vt 0.875000 1.000000
vt 0.812500 1.000000
vt 0.812500 0.812500
vt 0.875000 0.750000
vt 0.875000 0.937500
vt 0.812500 0.937500
vt 0.812500 0.750000
vt 0.812500 0.812500
vt 0.812500 1.000000
vt 0.875000 1.000000
vt 0.875000 0.812500
vt 0.812500 0.750000
vt 0.812500 0.937500
vt 0.875000 0.937500
vt 0.875000 0.750000
vt 0.187500 1.000000
vt 0.250000 1.000000
vt 0.250000 0.937500
vt 0.187500 0.937500
vt 0.062500 1.000000
vt 0.125000 1.000000
vt 0.125000 0.937500
vt 0.062500 0.937500
vt 0.000000 1.000000
vt 0.000000 0.937500
vt 0.000000 0.937500
vt 0.062500 1.000000
vt 0.000000 1.000000
vt 0.187500 0.937500
vt 0.250000 1.000000
vt 0.187500 1.000000
vt 0.125000 0.937500
vt 0.187500 1.000000
vt 0.125000 1.000000
vt 0.062500 0.937500
vt 0.125000 1.000000
vt 0.062500 1.000000
vt 0.250000 0.625000
vt 0.312500 0.687500
vt 0.250000 0.687500
vt 0.250000 0.562500
vt 0.312500 0.625000
vt 0.250000 0.625000
vt 0.250000 0.500000
vt 0.312500 0.562500
vt 0.250000 0.562500
vt 0.312500 0.625000
vt 0.250000 0.625000
vn -1.0000 0.0000 0.0000
vn 0.0000 0.0000 1.0000
vn 1.0000 0.0000 0.0000
vn 0.0000 0.0000 -1.0000
vn 0.0000 1.0000 0.0000
vn 0.0000 -1.0000 0.0000
vn 0.0000 0.4472 -0.8944
vn 0.8944 0.4472 0.0000
vn 0.0000 0.4472 0.8944
vn -0.8944 0.4472 0.0000
vn -0.7071 -0.7071 0.0000
vn 0.0000 -0.7071 0.7071
vn 0.7071 -0.7071 0.0000
vn 0.0000 -0.7071 -0.7071
usemtl MAIN
s off
f 5/1/1 13/2/1 6/3/1 2/4/1
f 4/5/2 11/6/2 13/2/2 5/1/2
f 3/7/3 9/8/3 11/6/3 4/5/3
f 2/4/4 6/3/4 9/9/4 3/10/4
f 6/11/4 14/12/4 21/13/4 9/14/4
f 14/15/4 15/16/4 20/17/4 21/18/4
f 9/19/3 21/20/3 17/21/3 11/22/3
f 21/23/3 20/24/3 16/25/3 17/26/3
f 11/22/2 17/21/2 19/27/2 13/28/2
f 17/26/2 16/25/2 18/29/2 19/30/2
f 13/28/1 19/27/1 14/12/1 6/11/1
f 19/30/1 18/29/1 15/16/1 14/15/1
f 15/31/4 7/32/4 8/33/4 20/34/4
f 20/35/3 8/36/3 10/37/3 16/38/3
f 16/38/2 10/37/2 12/39/2 18/40/2
f 18/40/1 12/39/1 7/32/1 15/31/1
f 7/41/1 12/42/1 25/43/1 22/44/1
f 10/45/3 8/46/3 23/47/3 24/48/3
f 12/42/2 10/45/2 24/48/2 25/43/2
f 8/49/4 7/41/4 22/44/4 23/50/4
f 26/51/2 35/52/2 32/53/2 33/54/2
f 34/55/3 31/56/3 35/57/3 26/58/3
f 37/59/4 36/60/4 31/61/4 34/62/4
f 33/63/1 32/64/1 36/60/1 37/59/1
f 31/65/5 36/66/5 30/67/5
f 35/68/5 31/69/5 30/70/5
f 32/53/5 35/52/5 30/71/5
f 52/72/2 41/73/2 42/74/2 28/75/2
f 36/60/5 32/64/5 30/76/5
f 33/77/6 37/78/6 38/79/6
f 37/59/6 34/62/6 38/80/6
f 34/81/6 26/51/6 38/82/6
f 26/83/6 33/84/6 38/85/6
f 39/86/3 29/87/3 41/88/3 52/89/3
f 27/90/4 40/91/4 29/92/4 39/93/4
f 28/94/1 42/95/1 40/91/1 27/90/1
f 42/95/5 43/96/5 40/91/5
f 40/97/5 43/98/5 29/99/5
f 29/100/5 43/101/5 41/102/5
f 41/73/5 43/103/5 42/74/5
f 52/104/6 28/105/6 53/106/6
f 39/107/6 52/72/6 53/108/6
f 27/90/6 39/93/6 53/109/6
f 28/110/6 27/111/6 53/112/6
f 44/113/1 45/114/1 47/115/1 46/116/1
f 46/117/4 47/118/4 51/119/4 50/120/4
f 50/121/3 51/122/3 49/123/3 48/124/3
f 48/125/2 49/126/2 45/127/2 44/128/2
f 24/129/3 23/130/3 55/131/3 56/132/3
f 22/133/1 25/134/1 57/135/1 54/136/1
f 23/137/4 22/133/4 54/136/4 55/138/4
f 25/134/2 24/129/2 56/132/2 57/135/2
f 58/139/7 59/140/7 60/141/7
f 60/142/8 59/143/8 62/144/8
f 62/145/9 59/146/9 61/147/9
f 61/148/10 59/149/10 58/150/10
usemtl CHIMERITE
f 1/151/11 5/152/11 2/153/11
f 1/154/12 4/155/12 5/156/12
f 1/157/13 3/158/13 4/159/13
f 1/154/14 2/160/14 3/161/14
