# Blender v2.80 (sub 75) OBJ File: 'wands.blend'
# www.blender.org
mtllib staff_lapis.mtl
o STAFF_VAR15_Cube.047
v 0.468750 1.750000 0.468750
v 0.406250 1.812500 0.406250
v 0.593750 1.812500 0.406250
v 0.593750 1.812500 0.593750
v 0.406250 1.812500 0.593750
v 0.500000 0.031250 0.500000
v 0.531250 1.750000 0.468750
v 0.468750 1.750000 0.531250
v 0.531250 1.750000 0.531250
v 0.468750 0.062500 0.468750
v 0.531250 0.062500 0.468750
v 0.531250 0.062500 0.531250
v 0.468750 0.062500 0.531250
v 0.468750 0.125000 0.468750
v 0.468750 1.625000 0.468750
v 0.468750 1.687500 0.468750
v 0.531250 1.687500 0.468750
v 0.531250 1.625000 0.468750
v 0.531250 0.125000 0.468750
v 0.531250 1.687500 0.531250
v 0.531250 1.625000 0.531250
v 0.531250 0.125000 0.531250
v 0.468750 1.687500 0.531250
v 0.468750 1.625000 0.531250
v 0.468750 0.125000 0.531250
v 0.468750 0.625000 0.468750
v 0.468750 1.125000 0.468750
v 0.531250 1.125000 0.531250
v 0.531250 0.625000 0.531250
v 0.468750 1.125000 0.531250
v 0.468750 0.625000 0.531250
v 0.531250 1.125000 0.468750
v 0.531250 0.625000 0.468750
v 0.468750 1.562500 0.468750
v 0.531250 1.562500 0.531250
v 0.468750 1.562500 0.531250
v 0.531250 1.562500 0.468750
v 0.531250 0.187500 0.531250
v 0.468750 0.187500 0.531250
v 0.531250 0.187500 0.468750
v 0.468750 0.187500 0.468750
v 0.455806 1.812500 0.500000
v 0.455806 2.062500 0.500000
v 0.500000 1.812500 0.455806
v 0.500000 2.062500 0.455806
v 0.500000 1.812500 0.544194
v 0.500000 2.062500 0.544194
v 0.544194 1.812500 0.500000
v 0.544194 2.062500 0.500000
v 0.546875 1.821653 0.515625
v 0.578125 1.865847 0.484375
v 0.493528 1.852903 0.506472
v 0.524778 1.897097 0.475222
v 0.537722 1.790403 0.462278
v 0.568972 1.834597 0.431028
v 0.484375 1.821653 0.453125
v 0.515625 1.865847 0.421875
v 0.484375 1.884153 0.546875
v 0.515625 1.928347 0.578125
v 0.493528 1.915403 0.493528
v 0.524778 1.959597 0.524778
v 0.537722 1.852903 0.537722
v 0.568972 1.897097 0.568972
v 0.546875 1.884153 0.484375
v 0.578125 1.928347 0.515625
v 0.484375 1.946653 0.546875
v 0.515625 1.990847 0.578125
v 0.493528 1.977903 0.493528
v 0.524778 2.022097 0.524778
v 0.537722 1.915403 0.537722
v 0.568972 1.959597 0.568972
v 0.546875 1.946653 0.484375
v 0.578125 1.990847 0.515625
v 0.484375 1.821653 0.546875
v 0.515625 1.865847 0.578125
v 0.493528 1.852903 0.493528
v 0.524778 1.897097 0.524778
v 0.537722 1.790403 0.537722
v 0.568972 1.834597 0.568972
v 0.546875 1.821653 0.484375
v 0.578125 1.865847 0.515625
v 0.546875 1.884153 0.515625
v 0.578125 1.928347 0.484375
v 0.493528 1.915403 0.506472
v 0.524778 1.959597 0.475222
v 0.537722 1.852903 0.462278
v 0.568972 1.897097 0.431028
v 0.484375 1.884153 0.453125
v 0.515625 1.928347 0.421875
v 0.546875 1.946653 0.515625
v 0.578125 1.990847 0.484375
v 0.493528 1.977903 0.506472
v 0.524778 2.022097 0.475222
v 0.537722 1.915403 0.462278
v 0.568972 1.959597 0.431028
v 0.484375 1.946653 0.453125
v 0.515625 1.990847 0.421875
v 0.515625 1.821653 0.453125
v 0.484375 1.865847 0.421875
v 0.506472 1.852903 0.506472
v 0.475222 1.897097 0.475222
v 0.462278 1.790403 0.462278
v 0.431028 1.834597 0.431028
v 0.453125 1.821653 0.515625
v 0.421875 1.865847 0.484375
v 0.515625 1.884153 0.453125
v 0.484375 1.928347 0.421875
v 0.506472 1.915403 0.506472
v 0.475222 1.959597 0.475222
v 0.462278 1.852903 0.462278
v 0.431028 1.897097 0.431028
v 0.453125 1.884153 0.515625
v 0.421875 1.928347 0.484375
v 0.515625 1.946653 0.453125
v 0.484375 1.990847 0.421875
v 0.506472 1.977903 0.506472
v 0.475222 2.022097 0.475222
v 0.462278 1.915403 0.462278
v 0.431028 1.959597 0.431028
v 0.453125 1.946653 0.515625
v 0.421875 1.990847 0.484375
v 0.453125 1.884153 0.484375
v 0.421875 1.928347 0.515625
v 0.506472 1.915403 0.493528
v 0.475222 1.959597 0.524778
v 0.462278 1.852903 0.537722
v 0.431028 1.897097 0.568972
v 0.515625 1.884153 0.546875
v 0.484375 1.928347 0.578125
v 0.453125 1.946653 0.484375
v 0.421875 1.990847 0.515625
v 0.506472 1.977903 0.493528
v 0.475222 2.022097 0.524778
v 0.462278 1.915403 0.537722
v 0.431028 1.959597 0.568972
v 0.515625 1.946653 0.546875
v 0.484375 1.990847 0.578125
v 0.453125 1.821653 0.484375
v 0.421875 1.865847 0.515625
v 0.506472 1.852903 0.493528
v 0.475222 1.897097 0.524778
v 0.462278 1.790403 0.537722
v 0.431028 1.834597 0.568972
v 0.515625 1.821653 0.546875
v 0.484375 1.865847 0.578125
vt 0.062500 0.875000
vt 0.250000 0.875000
vt 0.187500 0.875000
vt 0.125000 0.875000
vt 0.000000 0.812500
vt 0.187500 0.812500
vt 0.187500 1.000000
vt 0.000000 1.000000
vt 0.125000 0.937500
vt 0.062500 0.937500
vt 0.000000 1.000000
vt 0.187500 1.000000
vt 0.125000 0.937500
vt 0.062500 0.937500
vt 0.312500 0.812500
vt 0.312500 0.875000
vt 0.250000 0.812500
vt 0.500000 0.812500
vt 0.500000 0.875000
vt 0.437500 0.875000
vt 0.437500 0.812500
vt 0.375000 0.875000
vt 0.375000 0.812500
vt 0.937500 0.750000
vt 0.937500 0.812500
vt 0.875000 0.812500
vt 0.937500 0.687500
vt 0.937500 0.750000
vt 0.875000 0.750000
vt 0.937500 0.562500
vt 0.937500 0.625000
vt 0.875000 0.625000
vt 0.937500 0.750000
vt 0.875000 0.750000
vt 0.125000 0.875000
vt 0.125000 0.937500
vt 0.062500 0.937500
vt 0.062500 0.875000
vt 0.375000 0.812500
vt 0.375000 0.875000
vt 0.312500 0.875000
vt 0.312500 0.812500
vt 0.125000 0.937500
vt 0.125000 1.000000
vt 0.062500 1.000000
vt 0.062500 0.937500
vt 0.187500 0.875000
vt 0.187500 0.937500
vt 0.437500 0.812500
vt 0.437500 0.875000
vt 0.187500 0.937500
vt 0.187500 1.000000
vt 0.250000 0.875000
vt 0.250000 0.937500
vt 0.500000 0.812500
vt 0.500000 0.875000
vt 0.250000 0.937500
vt 0.250000 1.000000
vt 0.000000 0.937500
vt 0.000000 0.875000
vt 0.250000 0.875000
vt 0.250000 0.812500
vt 0.000000 1.000000
vt 0.000000 0.937500
vt 0.187500 1.000000
vt 0.125000 1.000000
vt 0.125000 0.562500
vt 0.187500 0.562500
vt 0.125000 0.500000
vt 0.125000 1.000000
vt 0.062500 1.000000
vt 0.062500 0.500000
vt 0.000000 1.000000
vt 0.000000 0.500000
vt 0.250000 0.500000
vt 0.250000 1.000000
vt 0.187500 1.000000
vt 0.187500 0.500000
vt 0.062500 0.500000
vt 0.062500 0.937500
vt 0.000000 0.937500
vt 0.000000 0.500000
vt 0.250000 0.500000
vt 0.250000 0.937500
vt 0.187500 0.937500
vt 0.187500 0.500000
vt 0.125000 0.937500
vt 0.125000 0.500000
vt 0.062500 1.000000
vt 0.062500 0.562500
vt 0.000000 1.000000
vt 0.000000 0.562500
vt 0.250000 1.000000
vt 0.250000 0.562500
vt 0.500000 0.812500
vt 0.500000 0.875000
vt 0.437500 0.875000
vt 0.437500 0.812500
vt 0.312500 0.812500
vt 0.312500 0.875000
vt 0.250000 0.875000
vt 0.250000 0.812500
vt 0.375000 0.812500
vt 0.375000 0.875000
vt 0.875000 0.625000
vt 0.875000 0.875000
vt 0.937500 0.875000
vt 0.937500 0.625000
vt 0.937500 0.562500
vt 0.937500 0.812500
vt 0.875000 0.812500
vt 0.875000 0.562500
vt 0.937500 0.500000
vt 0.937500 0.750000
vt 0.875000 0.750000
vt 0.875000 0.500000
vt 0.875000 0.562500
vt 0.875000 0.812500
vt 0.937500 0.812500
vt 0.937500 0.562500
vt 0.875000 0.937500
vt 0.937500 0.937500
vt 0.937500 1.000000
vt 0.875000 1.000000
vt 0.875000 0.625000
vt 0.937500 0.625000
vt 0.937500 0.687500
vt 0.875000 0.687500
vt 0.875000 0.562500
vt 0.937500 0.562500
vt 0.937500 0.625000
vt 0.875000 0.625000
vt 0.875000 0.562500
vt 0.937500 0.562500
vt 0.937500 0.625000
vt 0.875000 0.625000
vt 0.937500 0.687500
vt 0.875000 0.687500
vt 0.937500 0.562500
vt 0.937500 0.625000
vt 0.875000 0.687500
vt 0.937500 0.750000
vt 0.875000 0.750000
vt 0.875000 0.625000
vt 0.937500 0.625000
vt 0.937500 0.687500
vt 0.875000 0.687500
vt 0.875000 0.562500
vt 0.937500 0.562500
vt 0.937500 0.625000
vt 0.875000 0.625000
vt 0.937500 0.687500
vt 0.875000 0.687500
vt 0.875000 0.562500
vt 0.937500 0.562500
vt 0.875000 0.500000
vt 0.937500 0.500000
vt 0.937500 0.562500
vt 0.875000 0.562500
vt 0.875000 0.687500
vt 0.937500 0.750000
vt 0.875000 0.750000
vt 0.875000 0.687500
vt 0.937500 0.687500
vt 0.937500 0.750000
vt 0.875000 0.750000
vt 0.875000 0.625000
vt 0.937500 0.625000
vt 0.937500 0.687500
vt 0.875000 0.687500
vt 0.937500 0.750000
vt 0.875000 0.750000
vt 0.875000 0.625000
vt 0.937500 0.625000
vt 0.875000 0.562500
vt 0.937500 0.562500
vt 0.937500 0.625000
vt 0.875000 0.625000
vt 0.875000 0.750000
vt 0.937500 0.812500
vt 0.875000 0.812500
vt 0.875000 0.562500
vt 0.937500 0.562500
vt 0.937500 0.625000
vt 0.875000 0.625000
vt 0.875000 0.500000
vt 0.937500 0.500000
vt 0.937500 0.562500
vt 0.875000 0.562500
vt 0.937500 0.625000
vt 0.875000 0.625000
vt 0.875000 0.500000
vt 0.937500 0.500000
vt 0.937500 0.500000
vt 0.937500 0.562500
vt 0.875000 0.625000
vt 0.937500 0.687500
vt 0.875000 0.687500
vt 0.875000 0.687500
vt 0.937500 0.687500
vt 0.937500 0.750000
vt 0.875000 0.750000
vt 0.875000 0.625000
vt 0.937500 0.625000
vt 0.937500 0.687500
vt 0.875000 0.687500
vt 0.875000 0.625000
vt 0.937500 0.625000
vt 0.937500 0.687500
vt 0.875000 0.687500
vt 0.937500 0.750000
vt 0.875000 0.750000
vt 0.875000 0.562500
vt 0.937500 0.562500
vt 0.937500 0.625000
vt 0.875000 0.625000
vt 0.875000 0.750000
vt 0.937500 0.812500
vt 0.875000 0.812500
vt 0.875000 0.750000
vt 0.937500 0.750000
vt 0.937500 0.812500
vt 0.875000 0.812500
vt 0.875000 0.687500
vt 0.937500 0.687500
vt 0.937500 0.750000
vt 0.875000 0.750000
vt 0.875000 0.687500
vt 0.937500 0.687500
vt 0.937500 0.750000
vt 0.875000 0.750000
vt 0.937500 0.812500
vt 0.875000 0.812500
vt 0.875000 0.625000
vt 0.937500 0.625000
vt 0.937500 0.687500
vt 0.875000 0.687500
vt 0.875000 0.812500
vt 0.937500 0.875000
vt 0.875000 0.875000
vt 0.875000 0.687500
vt 0.937500 0.687500
vt 0.937500 0.750000
vt 0.875000 0.750000
vt 0.875000 0.625000
vt 0.937500 0.625000
vt 0.937500 0.687500
vt 0.875000 0.687500
vt 0.937500 0.750000
vt 0.875000 0.750000
vt 0.875000 0.625000
vt 0.937500 0.625000
vt 0.937500 0.625000
vt 0.937500 0.687500
vt 0.875000 0.750000
vt 0.937500 0.812500
vt 0.875000 0.812500
vt 0.875000 0.750000
vt 0.937500 0.750000
vt 0.937500 0.812500
vt 0.875000 0.812500
vt 0.875000 0.687500
vt 0.937500 0.687500
vt 0.937500 0.750000
vt 0.875000 0.750000
vt 0.937500 0.812500
vt 0.875000 0.812500
vt 0.875000 0.687500
vt 0.937500 0.687500
vt 0.875000 0.625000
vt 0.937500 0.625000
vt 0.937500 0.687500
vt 0.875000 0.687500
vt 0.875000 0.812500
vt 0.937500 0.875000
vt 0.875000 0.875000
vt 0.875000 0.812500
vt 0.937500 0.812500
vt 0.937500 0.875000
vt 0.875000 0.875000
vt 0.875000 0.750000
vt 0.937500 0.750000
vt 0.937500 0.812500
vt 0.875000 0.812500
vt 0.937500 0.875000
vt 0.875000 0.875000
vt 0.875000 0.750000
vt 0.937500 0.750000
vt 0.875000 0.687500
vt 0.937500 0.687500
vt 0.937500 0.750000
vt 0.875000 0.750000
vt 0.875000 0.875000
vt 0.937500 0.937500
vt 0.875000 0.937500
vt 0.875000 0.687500
vt 0.937500 0.687500
vt 0.937500 0.750000
vt 0.875000 0.750000
vt 0.875000 0.625000
vt 0.937500 0.625000
vt 0.937500 0.687500
vt 0.875000 0.687500
vt 0.937500 0.750000
vt 0.875000 0.750000
vt 0.875000 0.625000
vt 0.937500 0.625000
vt 0.875000 0.562500
vt 0.937500 0.562500
vt 0.937500 0.625000
vt 0.875000 0.625000
vt 0.875000 0.750000
vt 0.937500 0.812500
vt 0.875000 0.812500
vt 0.875000 0.750000
vt 0.937500 0.750000
vt 0.937500 0.812500
vt 0.875000 0.812500
vt 0.875000 0.687500
vt 0.937500 0.687500
vt 0.937500 0.750000
vt 0.875000 0.750000
vt 0.937500 0.812500
vt 0.875000 0.812500
vt 0.875000 0.687500
vt 0.937500 0.687500
vt 0.875000 0.625000
vt 0.937500 0.625000
vt 0.937500 0.687500
vt 0.875000 0.687500
vt 0.875000 0.812500
vt 0.937500 0.875000
vt 0.875000 0.875000
vt 0.875000 0.625000
vt 0.937500 0.625000
vt 0.937500 0.687500
vt 0.875000 0.687500
vt 0.875000 0.562500
vt 0.937500 0.562500
vt 0.937500 0.625000
vt 0.875000 0.625000
vt 0.937500 0.687500
vt 0.875000 0.687500
vt 0.875000 0.562500
vt 0.937500 0.562500
vt 0.937500 0.562500
vt 0.937500 0.625000
vt 0.875000 0.687500
vt 0.937500 0.750000
vt 0.875000 0.750000
vn 0.0000 -1.0000 0.0000
vn 0.0000 1.0000 0.0000
vn -0.7071 -0.7071 0.0000
vn 0.7071 -0.7071 0.0000
vn 0.0000 -0.7071 0.7071
vn 0.0000 -0.7071 -0.7071
vn 0.0000 0.0000 -1.0000
vn 1.0000 0.0000 0.0000
vn 0.0000 0.0000 1.0000
vn -1.0000 0.0000 0.0000
vn -0.7071 0.0000 -0.7071
vn 0.7071 0.0000 -0.7071
vn 0.7071 0.0000 0.7071
vn -0.7071 0.0000 0.7071
vn 0.1464 0.5000 0.8536
vn -0.8536 0.5000 -0.1464
vn -0.1464 -0.5000 -0.8536
vn 0.8536 -0.5000 0.1464
vn -0.5000 -0.7071 0.5000
vn 0.5000 0.7071 -0.5000
vn -0.8536 0.5000 0.1464
vn 0.1464 0.5000 -0.8536
vn 0.8536 -0.5000 -0.1464
vn -0.1464 -0.5000 0.8536
vn -0.5000 -0.7071 -0.5000
vn 0.5000 0.7071 0.5000
vn 0.8536 0.5000 -0.1464
vn -0.1464 0.5000 0.8536
vn -0.8536 -0.5000 0.1464
vn 0.1464 -0.5000 -0.8536
vn 0.5000 -0.7071 0.5000
vn -0.5000 0.7071 -0.5000
vn -0.1464 0.5000 -0.8536
vn 0.8536 0.5000 0.1464
vn 0.1464 -0.5000 0.8536
vn -0.8536 -0.5000 -0.1464
vn 0.5000 -0.7071 -0.5000
vn -0.5000 0.7071 0.5000
usemtl MAIN
s off
f 1/1/1 7/2/1 9/3/1 8/4/1
f 2/5/2 5/6/2 4/7/2 3/8/2
f 1/9/3 8/10/3 5/11/3 2/12/3
f 9/13/4 7/14/4 3/8/4 4/7/4
f 8/10/5 9/13/5 4/7/5 5/11/5
f 7/14/6 1/9/6 2/12/6 3/8/6
f 16/15/7 1/16/7 7/2/7 17/17/7
f 17/18/8 7/19/8 9/20/8 20/21/8
f 20/21/9 9/20/9 8/22/9 23/23/9
f 23/23/10 8/22/10 1/16/10 16/15/10
f 6/24/3 13/25/3 10/26/3
f 6/27/5 12/28/5 13/29/5
f 6/30/4 11/31/4 12/32/4
f 6/27/6 10/33/6 11/34/6
f 13/35/10 25/36/10 14/37/10 10/38/10
f 36/39/10 24/40/10 15/41/10 34/42/10
f 24/43/10 23/44/10 16/45/10 15/46/10
f 12/47/9 22/48/9 25/36/9 13/35/9
f 35/49/9 21/50/9 24/40/9 36/39/9
f 21/51/9 20/52/9 23/44/9 24/43/9
f 11/53/8 19/54/8 22/48/8 12/47/8
f 37/55/8 18/56/8 21/50/8 35/49/8
f 18/57/8 17/58/8 20/52/8 21/51/8
f 10/38/7 14/37/7 19/59/7 11/60/7
f 34/42/7 15/41/7 18/61/7 37/62/7
f 15/46/7 16/45/7 17/63/7 18/64/7
f 26/65/7 33/66/7 40/67/7 41/68/7
f 26/69/7 27/70/7 32/71/7 33/72/7
f 33/72/8 32/71/8 28/73/8 29/74/8
f 29/75/9 28/76/9 30/77/9 31/78/9
f 31/78/10 30/77/10 27/70/10 26/69/10
f 27/79/7 34/80/7 37/81/7 32/82/7
f 32/83/8 37/84/8 35/85/8 28/86/8
f 28/86/9 35/85/9 36/87/9 30/88/9
f 30/88/10 36/87/10 34/80/10 27/79/10
f 33/66/8 29/89/8 38/90/8 40/67/8
f 29/89/9 31/91/9 39/92/9 38/90/9
f 31/93/10 26/65/10 41/68/10 39/94/10
f 25/95/10 39/96/10 41/97/10 14/98/10
f 22/99/9 38/100/9 39/101/9 25/102/9
f 19/103/8 40/104/8 38/100/8 22/99/8
f 14/98/7 41/97/7 40/104/7 19/103/7
f 42/105/11 43/106/11 45/107/11 44/108/11
f 44/109/12 45/110/12 49/111/12 48/112/12
f 48/113/13 49/114/13 47/115/13 46/116/13
f 46/117/14 47/118/14 43/119/14 42/120/14
f 49/121/2 45/122/2 43/123/2 47/124/2
f 50/125/15 51/126/15 53/127/15 52/128/15
f 52/129/16 53/130/16 57/131/16 56/132/16
f 56/133/17 57/134/17 55/135/17 54/136/17
f 54/136/18 55/135/18 51/137/18 50/138/18
f 52/129/19 56/139/19 54/140/19 50/125/19
f 57/141/20 53/127/20 51/142/20 55/143/20
f 58/144/21 59/145/21 61/146/21 60/147/21
f 60/148/22 61/149/22 65/150/22 64/151/22
f 64/151/23 65/150/23 63/152/23 62/153/23
f 62/154/24 63/155/24 59/145/24 58/144/24
f 60/156/25 64/157/25 62/158/25 58/159/25
f 65/160/26 61/146/26 59/161/26 63/162/26
f 66/163/21 67/164/21 69/165/21 68/166/21
f 68/167/22 69/168/22 73/169/22 72/170/22
f 72/170/23 73/169/23 71/171/23 70/172/23
f 70/173/24 71/174/24 67/164/24 66/163/24
f 68/175/25 72/176/25 70/177/25 66/178/25
f 73/179/26 69/165/26 67/180/26 71/181/26
f 74/182/21 75/183/21 77/184/21 76/185/21
f 76/186/22 77/187/22 81/188/22 80/189/22
f 80/189/23 81/188/23 79/190/23 78/191/23
f 78/192/24 79/193/24 75/183/24 74/182/24
f 76/186/25 80/194/25 78/195/25 74/182/25
f 81/196/26 77/184/26 75/197/26 79/198/26
f 82/199/15 83/200/15 85/201/15 84/202/15
f 84/203/16 85/204/16 89/205/16 88/206/16
f 88/207/17 89/208/17 87/209/17 86/210/17
f 86/210/18 87/209/18 83/211/18 82/212/18
f 84/213/19 88/214/19 86/215/19 82/216/19
f 89/217/20 85/201/20 83/218/20 87/219/20
f 90/220/15 91/221/15 93/222/15 92/223/15
f 92/224/16 93/225/16 97/226/16 96/227/16
f 96/228/17 97/229/17 95/230/17 94/231/17
f 94/231/18 95/230/18 91/232/18 90/233/18
f 92/234/19 96/235/19 94/236/19 90/237/19
f 97/238/20 93/222/20 91/239/20 95/240/20
f 98/241/27 99/242/27 101/243/27 100/244/27
f 100/245/28 101/246/28 105/247/28 104/248/28
f 104/248/29 105/247/29 103/249/29 102/250/29
f 102/251/30 103/252/30 99/242/30 98/241/30
f 100/245/31 104/253/31 102/254/31 98/241/31
f 105/255/32 101/243/32 99/256/32 103/257/32
f 106/258/27 107/259/27 109/260/27 108/261/27
f 108/262/28 109/263/28 113/264/28 112/265/28
f 112/265/29 113/264/29 111/266/29 110/267/29
f 110/268/30 111/269/30 107/259/30 106/258/30
f 108/270/31 112/271/31 110/272/31 106/273/31
f 113/274/32 109/260/32 107/275/32 111/276/32
f 114/277/27 115/278/27 117/279/27 116/280/27
f 116/281/28 117/282/28 121/283/28 120/284/28
f 120/284/29 121/283/29 119/285/29 118/286/29
f 118/287/30 119/288/30 115/278/30 114/277/30
f 116/289/31 120/290/31 118/291/31 114/292/31
f 121/293/32 117/279/32 115/294/32 119/295/32
f 122/296/33 123/297/33 125/298/33 124/299/33
f 124/300/34 125/301/34 129/302/34 128/303/34
f 128/303/35 129/302/35 127/304/35 126/305/35
f 126/306/36 127/307/36 123/297/36 122/296/36
f 124/308/37 128/309/37 126/310/37 122/311/37
f 129/312/38 125/298/38 123/313/38 127/314/38
f 130/315/33 131/316/33 133/317/33 132/318/33
f 132/319/34 133/320/34 137/321/34 136/322/34
f 136/322/35 137/321/35 135/323/35 134/324/35
f 134/325/36 135/326/36 131/316/36 130/315/36
f 132/327/37 136/328/37 134/329/37 130/330/37
f 137/331/38 133/317/38 131/332/38 135/333/38
f 138/334/33 139/335/33 141/336/33 140/337/33
f 140/338/34 141/339/34 145/340/34 144/341/34
f 144/341/35 145/340/35 143/342/35 142/343/35
f 142/344/36 143/345/36 139/335/36 138/334/36
f 140/338/37 144/346/37 142/347/37 138/334/37
f 145/348/38 141/336/38 139/349/38 143/350/38
