# Blender v2.80 (sub 75) OBJ File: 'staffofnames.blend'
# www.blender.org
mtllib staffofcalling_fire.mtl
o Cylinder.000_Cylinder.010
v 0.353218 2.000000 0.533636
v 0.353218 2.250000 0.533636
v 0.353218 2.250000 0.466364
v 0.353218 2.000000 0.466364
v 0.419737 2.000000 0.372683
v 0.372169 2.000000 0.420250
v 0.372169 2.250000 0.420250
v 0.419737 2.250000 0.372683
v 0.627574 2.000000 0.419993
v 0.580006 2.000000 0.372426
v 0.580006 2.250000 0.372426
v 0.627574 2.250000 0.419993
v 0.533636 2.000000 0.353218
v 0.466364 2.000000 0.353218
v 0.466364 2.250000 0.353218
v 0.533636 2.250000 0.353218
v 0.419993 2.000000 0.627574
v 0.419993 2.250000 0.627574
v 0.372426 2.250000 0.580007
v 0.372426 2.000000 0.580007
v 0.579804 2.000000 0.627777
v 0.627372 2.000000 0.580209
v 0.627372 2.250000 0.580209
v 0.579804 2.250000 0.627777
v 0.466364 2.000000 0.646782
v 0.533636 2.000000 0.646782
v 0.533636 2.250000 0.646782
v 0.466364 2.250000 0.646782
v 0.646782 2.000000 0.533636
v 0.646782 2.000000 0.466364
v 0.646782 2.250000 0.466364
v 0.646782 2.250000 0.533636
v 0.415718 1.687500 0.485220
v 0.415718 1.687500 0.514780
v 0.415718 1.812500 0.514780
v 0.415718 1.812500 0.485220
v 0.429953 1.687500 0.549146
v 0.450854 1.687500 0.570047
v 0.450854 1.812500 0.570047
v 0.429953 1.812500 0.549146
v 0.450854 1.687500 0.429953
v 0.429953 1.687500 0.450854
v 0.429953 1.812500 0.450854
v 0.450854 1.812500 0.429953
v 0.570047 1.687500 0.450854
v 0.549146 1.687500 0.429953
v 0.549146 1.812500 0.429953
v 0.570047 1.812500 0.450854
v 0.584282 1.687500 0.514780
v 0.584282 1.687500 0.485220
v 0.584282 1.812500 0.485220
v 0.584282 1.812500 0.514780
v 0.549146 1.687500 0.570047
v 0.570047 1.687500 0.549146
v 0.570047 1.812500 0.549146
v 0.549146 1.812500 0.570047
v 0.514642 1.687500 0.415718
v 0.485083 1.687500 0.415718
v 0.485083 1.812500 0.415718
v 0.514642 1.812500 0.415718
v 0.485220 1.812500 0.584282
v 0.485220 1.687500 0.584282
v 0.514780 1.687500 0.584282
v 0.514780 1.812500 0.584282
vt 0.250000 0.000000
vt 0.250000 0.500000
vt 0.125000 0.500000
vt 0.125000 0.000000
vt 0.312500 0.000000
vt 0.437500 0.000000
vt 0.437500 0.500000
vt 0.312500 0.500000
vt 0.312500 0.000000
vt 0.437500 0.000000
vt 0.437500 0.500000
vt 0.312500 0.500000
vt 0.125000 0.000000
vt 0.250000 0.000000
vt 0.250000 0.500000
vt 0.125000 0.500000
vt 0.437500 0.000000
vt 0.437500 0.500000
vt 0.312500 0.500000
vt 0.312500 0.000000
vt 0.312500 0.000000
vt 0.437500 0.000000
vt 0.437500 0.500000
vt 0.312500 0.500000
vt 0.125000 0.000000
vt 0.250000 0.000000
vt 0.250000 0.500000
vt 0.125000 0.500000
vt 0.125000 0.000000
vt 0.250000 0.000000
vt 0.250000 0.500000
vt 0.125000 0.500000
vt 0.250000 0.187500
vt 0.312500 0.187500
vt 0.312500 0.437500
vt 0.250000 0.437500
vt 0.437500 0.187500
vt 0.500000 0.187500
vt 0.500000 0.437500
vt 0.437500 0.437500
vt 0.437500 0.187500
vt 0.500000 0.187500
vt 0.500000 0.437500
vt 0.437500 0.437500
vt 0.437500 0.187500
vt 0.500000 0.187500
vt 0.500000 0.437500
vt 0.437500 0.437500
vt 0.250000 0.187500
vt 0.312500 0.187500
vt 0.312500 0.437500
vt 0.250000 0.437500
vt 0.437500 0.187500
vt 0.500000 0.187500
vt 0.500000 0.437500
vt 0.437500 0.437500
vt 0.250000 0.187500
vt 0.312500 0.187500
vt 0.312500 0.437500
vt 0.250000 0.437500
vt 0.250000 0.437500
vt 0.250000 0.187500
vt 0.312500 0.187500
vt 0.312500 0.437500
vn -1.0000 0.0000 0.0000
vn -0.7071 0.0000 -0.7071
vn 0.7071 0.0000 -0.7071
vn 0.0000 0.0000 -1.0000
vn -0.7071 0.0000 0.7071
vn 0.7071 0.0000 0.7071
vn 0.0000 0.0000 1.0000
vn 1.0000 0.0000 0.0000
usemtl SOULFIRE
s off
f 1/1/1 2/2/1 3/3/1 4/4/1
f 5/5/2 6/6/2 7/7/2 8/8/2
f 9/9/3 10/10/3 11/11/3 12/12/3
f 13/13/4 14/14/4 15/15/4 16/16/4
f 17/17/5 18/18/5 19/19/5 20/20/5
f 21/21/6 22/22/6 23/23/6 24/24/6
f 25/25/7 26/26/7 27/27/7 28/28/7
f 29/29/8 30/30/8 31/31/8 32/32/8
f 33/33/1 34/34/1 35/35/1 36/36/1
f 37/37/5 38/38/5 39/39/5 40/40/5
f 41/41/2 42/42/2 43/43/2 44/44/2
f 45/45/3 46/46/3 47/47/3 48/48/3
f 49/49/8 50/50/8 51/51/8 52/52/8
f 53/53/6 54/54/6 55/55/6 56/56/6
f 57/57/4 58/58/4 59/59/4 60/60/4
f 61/61/7 62/62/7 63/63/7 64/64/7
