# Blender v2.80 (sub 75) OBJ File: 'wands.blend'
# www.blender.org
mtllib staff_tarma.mtl
o STAFF_VAR12_Cube.060
v 0.500000 0.031250 0.500000
v 0.468750 0.062500 0.468750
v 0.531250 0.062500 0.468750
v 0.531250 0.062500 0.531250
v 0.468750 0.062500 0.531250
v 0.468750 0.125000 0.468750
v 0.468750 1.625000 0.468750
v 0.468750 1.687500 0.468750
v 0.531250 1.687500 0.468750
v 0.531250 1.625000 0.468750
v 0.531250 0.125000 0.468750
v 0.531250 1.687500 0.531250
v 0.531250 1.625000 0.531250
v 0.531250 0.125000 0.531250
v 0.468750 1.687500 0.531250
v 0.468750 1.625000 0.531250
v 0.468750 0.125000 0.531250
v 0.468750 0.625000 0.468750
v 0.468750 1.125000 0.468750
v 0.531250 1.125000 0.531250
v 0.531250 0.625000 0.531250
v 0.468750 1.125000 0.531250
v 0.468750 0.625000 0.531250
v 0.531250 1.125000 0.468750
v 0.531250 0.625000 0.468750
v 0.553347 1.687500 0.446653
v 0.553347 1.625000 0.446653
v 0.553347 1.687500 0.553347
v 0.553347 1.625000 0.553347
v 0.446653 1.687500 0.553347
v 0.446653 1.625000 0.553347
v 0.446653 1.687500 0.446653
v 0.446653 1.625000 0.446653
v 0.468750 1.750000 0.468750
v 0.531250 1.750000 0.468750
v 0.468750 1.750000 0.531250
v 0.531250 1.750000 0.531250
v 0.468750 1.687500 0.468750
v 0.531250 1.687500 0.468750
v 0.531250 1.687500 0.531250
v 0.468750 1.687500 0.531250
v 0.504836 1.806644 0.531250
v 0.504836 1.806644 0.468750
v 0.399344 1.780413 0.468750
v 0.399344 1.780413 0.531250
v 0.446105 1.828020 0.468750
v 0.350731 1.884665 0.531250
v 0.446105 1.828020 0.531250
v 0.350731 1.884665 0.468750
v 0.419692 1.884664 0.468750
v 0.397789 1.985582 0.531250
v 0.419692 1.884664 0.531250
v 0.397789 1.985582 0.468750
v 0.446105 1.941309 0.468750
v 0.488682 2.038060 0.531250
v 0.446105 1.941309 0.531250
v 0.500232 1.972559 0.531250
v 0.500232 1.972559 0.468750
v 0.488682 2.038060 0.468750
v 0.554895 1.966991 0.471875
v 0.601925 2.014021 0.531250
v 0.554895 1.966991 0.528125
v 0.601925 2.014021 0.468750
v 0.648124 1.904501 0.523438
v 0.648124 1.904501 0.476562
v 0.582078 1.919143 0.476562
v 0.569850 1.817290 0.515625
v 0.582078 1.919143 0.523438
v 0.552898 1.871056 0.515625
v 0.569850 1.817290 0.484375
v 0.495459 1.873126 0.492188
v 0.455939 1.919247 0.500000
v 0.495459 1.873126 0.507812
v 0.552898 1.871056 0.484375
v 0.464990 1.839876 0.492188
v 0.464990 1.839876 0.507812
vt 0.375000 0.812500
vt 0.375000 0.875000
vt 0.312500 0.875000
vt 0.312500 0.812500
vt 0.411612 0.588388
vt 0.338388 0.588388
vt 0.312500 0.562500
vt 0.437500 0.562500
vt 0.437500 0.812500
vt 0.437500 0.875000
vt 0.338388 0.661612
vt 0.312500 0.687500
vt 0.500000 0.812500
vt 0.500000 0.875000
vt 0.338388 0.588388
vt 0.411612 0.588388
vt 0.437500 0.562500
vt 0.312500 0.562500
vt 0.250000 0.875000
vt 0.250000 0.812500
vt 0.411612 0.661612
vt 0.437500 0.687500
vt 0.062500 0.500000
vt 0.062500 1.000000
vt 0.000000 1.000000
vt 0.000000 0.500000
vt 0.062500 0.500000
vt 0.062500 1.000000
vt 0.000000 1.000000
vt 0.000000 0.500000
vt 0.250000 0.500000
vt 0.250000 1.000000
vt 0.187500 1.000000
vt 0.187500 0.500000
vt 0.250000 0.500000
vt 0.250000 1.000000
vt 0.187500 1.000000
vt 0.187500 0.500000
vt 0.125000 1.000000
vt 0.125000 0.500000
vt 0.125000 1.000000
vt 0.125000 0.500000
vt 0.062500 0.500000
vt 0.062500 1.000000
vt 0.000000 1.000000
vt 0.000000 0.500000
vt 0.250000 0.500000
vt 0.250000 1.000000
vt 0.187500 1.000000
vt 0.187500 0.500000
vt 0.125000 1.000000
vt 0.125000 0.500000
vt 0.312500 0.812500
vt 0.312500 0.875000
vt 0.437500 0.875000
vt 0.437500 0.812500
vt 0.437500 0.812500
vt 0.437500 0.875000
vt 0.500000 0.812500
vt 0.500000 0.875000
vt 0.375000 0.875000
vt 0.375000 0.812500
vt 0.375000 0.812500
vt 0.375000 0.875000
vt 0.338388 0.661612
vt 0.312500 0.687500
vt 0.411612 0.661612
vt 0.437500 0.687500
vt 0.250000 0.750000
vt 0.312500 0.750000
vt 0.312500 0.812500
vt 0.250000 0.812500
vt 0.250000 0.562500
vt 0.312500 0.562500
vt 0.312500 0.625000
vt 0.250000 0.625000
vt 0.312500 0.687500
vt 0.250000 0.687500
vt 0.937500 0.562500
vt 1.000000 0.562500
vt 1.000000 0.625000
vt 0.937500 0.625000
vt 1.000000 0.500000
vt 1.000000 0.562500
vt 0.937500 0.562500
vt 0.937500 0.500000
vt 0.937500 0.625000
vt 1.000000 0.625000
vt 1.000000 0.562500
vt 0.937500 0.562500
vt 1.000000 0.500000
vt 0.937500 0.562500
vt 0.937500 0.500000
vt 1.000000 0.625000
vt 1.000000 0.750000
vt 0.937500 0.721132
vt 0.937500 0.653868
vt 1.000000 0.687500
vt 0.937500 0.687500
vt 0.937500 0.653868
vt 0.937500 0.721132
vt 1.000000 0.750000
vt 1.000000 0.625000
vt 1.000000 0.687500
vt 0.937500 0.687500
vt 1.000000 0.875000
vt 0.937500 0.847996
vt 0.937500 0.777004
vt 1.000000 0.812500
vt 0.937500 0.812500
vt 0.937500 0.777004
vt 0.937500 0.847996
vt 1.000000 0.875000
vt 1.000000 0.812500
vt 0.937500 0.812500
vt 1.000000 1.000000
vt 0.937500 0.974530
vt 0.937500 0.900470
vt 1.000000 0.937500
vt 0.937500 0.937500
vt 0.937500 0.900470
vt 0.937500 0.974530
vt 1.000000 1.000000
vt 1.000000 0.937500
vt 0.937500 0.937500
vt 1.000000 0.937500
vt 1.000000 0.812500
vt 0.937500 0.855902
vt 0.937500 0.917351
vt 0.937500 0.875000
vt 0.937500 0.784879
vt 1.000000 0.784879
vt 1.000000 0.875000
vt 0.937500 0.917351
vt 0.937500 0.855902
vt 1.000000 0.812500
vt 1.000000 0.875000
vt 1.000000 0.750000
vt 0.937500 0.750000
vt 0.937500 0.875000
vt 1.000000 0.687500
vt 0.937500 0.734923
vt 0.937500 0.792980
vt 0.937500 0.750000
vt 0.937500 0.666080
vt 1.000000 0.666080
vt 1.000000 0.750000
vt 0.937500 0.792980
vt 0.937500 0.734923
vt 1.000000 0.687500
vt 1.000000 0.625000
vt 0.937500 0.625000
vt 1.000000 0.437500
vt 1.000000 0.500000
vt 0.937500 0.437500
vt 0.937500 0.625000
vt 0.937500 0.500000
vt 1.000000 0.500000
vt 1.000000 0.625000
vt 0.937500 0.500000
vt 1.000000 0.529854
vt 1.000000 0.595146
vt 0.937500 0.625000
vt 1.000000 0.500000
vt 0.937500 0.500000
vt 0.937500 0.375000
vt 1.000000 0.437500
vt 0.937500 0.437500
vt 1.000000 0.437500
vt 0.937500 0.437500
vt 1.000000 0.595861
vt 1.000000 0.654139
vt 0.937500 0.687500
vt 0.937500 0.562500
vt 0.937500 0.562500
vt 0.937500 0.437500
vt 1.000000 0.562500
vt 1.000000 0.654139
vt 1.000000 0.595861
vt 0.937500 0.562500
vt 0.937500 0.687500
vt 0.937500 0.375000
vt 1.000000 0.375000
vt 0.937500 0.437500
vt 1.000000 0.595146
vt 1.000000 0.529854
vt 0.937500 0.500000
vt 0.937500 0.625000
vt 1.000000 0.562500
vt 1.000000 0.437500
vt 0.937500 0.500000
vt 0.937500 0.562500
vt 1.000000 0.500000
vt 0.937500 0.562500
vt 0.937500 0.500000
vt 0.937500 0.437500
vt 1.000000 0.437500
vt 0.156250 0.218750
vt 0.187500 0.250000
vt 0.125000 0.250000
vt 0.218750 0.218750
vt 0.250000 0.250000
vt 0.218750 0.156250
vt 0.250000 0.187500
vt 0.187500 0.187500
vt 0.218750 0.218750
vt 0.250000 0.250000
vt 0.187500 0.250000
vn -1.0000 0.0000 0.0000
vn 0.0000 1.0000 0.0000
vn 0.0000 0.0000 1.0000
vn 1.0000 0.0000 0.0000
vn 0.0000 -1.0000 0.0000
vn 0.0000 0.0000 -1.0000
vn 0.3420 0.9397 0.0000
vn -0.4014 -0.9159 0.0000
vn 0.9063 0.4226 0.0000
vn -0.9063 -0.4226 -0.0000
vn 0.9063 -0.4226 0.0000
vn -0.9063 0.4226 0.0000
vn 0.5000 -0.8660 0.0000
vn -0.5000 0.8660 0.0000
vn 0.0130 -0.0318 -0.9994
vn -0.1013 -0.9949 0.0000
vn 0.0130 -0.0318 0.9994
vn 0.2076 0.9782 0.0000
vn -0.0043 -0.0812 -0.9967
vn -0.8695 -0.4940 0.0000
vn -0.0043 -0.0812 0.9967
vn 0.9214 0.3887 0.0000
vn -0.0947 0.0868 0.9917
vn -0.8549 0.5188 0.0000
vn -0.0936 0.0145 -0.9955
vn 0.7442 -0.6679 0.0000
vn 0.7594 0.6507 0.0000
vn -0.0947 0.0868 -0.9917
vn -0.0573 -0.0695 -0.9959
vn 0.0360 0.9994 -0.0000
vn -0.0573 -0.0695 0.9959
vn -0.9936 -0.1133 0.0000
vn -0.0936 0.0145 0.9955
vn -0.2106 -0.9776 0.0000
vn -0.7071 -0.7071 0.0000
vn 0.0000 -0.7071 0.7071
vn 0.7071 -0.7071 0.0000
vn 0.0000 -0.7071 -0.7071
usemtl MAIN
s off
f 5/1/1 17/2/1 6/3/1 2/4/1
f 15/5/2 8/6/2 32/7/2 30/8/2
f 4/9/3 14/10/3 17/2/3 5/1/3
f 8/6/2 9/11/2 26/12/2 32/7/2
f 3/13/4 11/14/4 14/10/4 4/9/4
f 7/15/5 16/16/5 31/17/5 33/18/5
f 2/4/6 6/3/6 11/19/6 3/20/6
f 12/21/2 15/5/2 30/8/2 28/22/2
f 6/23/6 18/24/6 25/25/6 11/26/6
f 18/27/6 19/28/6 24/29/6 25/30/6
f 11/31/4 25/32/4 21/33/4 14/34/4
f 25/35/4 24/36/4 20/37/4 21/38/4
f 14/34/3 21/33/3 23/39/3 17/40/3
f 21/38/3 20/37/3 22/41/3 23/42/3
f 17/40/1 23/39/1 18/24/1 6/23/1
f 23/42/1 22/41/1 19/28/1 18/27/1
f 19/43/6 7/44/6 10/45/6 24/46/6
f 24/47/4 10/48/4 13/49/4 20/50/4
f 20/50/3 13/49/3 16/51/3 22/52/3
f 22/52/1 16/51/1 7/44/1 19/43/1
f 31/53/1 30/54/1 32/55/1 33/56/1
f 29/57/3 28/58/3 30/54/3 31/53/3
f 27/59/4 26/60/4 28/61/4 29/62/4
f 33/63/6 32/64/6 26/60/6 27/59/6
f 9/11/2 12/21/2 28/22/2 26/12/2
f 10/65/5 7/15/5 33/18/5 27/66/5
f 16/16/5 13/67/5 29/68/5 31/17/5
f 13/67/5 10/65/5 27/66/5 29/68/5
f 38/69/6 34/70/6 35/71/6 39/72/6
f 39/73/4 35/74/4 37/75/4 40/76/4
f 40/76/3 37/75/3 36/77/3 41/78/3
f 41/78/1 36/77/1 34/70/1 38/69/1
f 34/79/6 44/80/6 46/81/6 43/82/6
f 43/83/7 46/84/7 48/85/7 42/86/7
f 42/87/3 48/88/3 45/89/3 36/90/3
f 36/91/8 45/89/8 44/92/8 34/93/8
f 44/94/6 49/95/6 50/96/6 46/97/6
f 46/84/9 50/98/9 52/99/9 48/85/9
f 48/100/3 52/101/3 47/102/3 45/103/3
f 45/89/10 47/104/10 49/105/10 44/92/10
f 49/95/6 53/106/6 54/107/6 50/108/6
f 50/98/11 54/109/11 56/110/11 52/99/11
f 52/111/3 56/112/3 51/113/3 47/102/3
f 47/104/12 51/114/12 53/115/12 49/105/12
f 53/106/6 59/116/6 58/117/6 54/118/6
f 54/109/13 58/119/13 57/120/13 56/110/13
f 56/121/3 57/122/3 55/123/3 51/113/3
f 51/114/14 55/124/14 59/125/14 53/115/14
f 59/126/15 63/127/15 60/128/15 58/129/15
f 58/130/16 60/131/16 62/132/16 57/133/16
f 57/134/17 62/135/17 61/136/17 55/124/17
f 55/137/18 61/138/18 63/139/18 59/140/18
f 63/127/19 65/141/19 66/142/19 60/143/19
f 60/144/20 66/145/20 68/146/20 62/147/20
f 62/148/21 68/149/21 64/150/21 61/136/21
f 61/138/22 64/151/22 65/152/22 63/139/22
f 73/153/23 72/154/23 76/155/23
f 66/156/24 74/157/24 69/158/24 68/159/24
f 75/160/25 71/161/25 74/162/25 70/163/25
f 64/151/26 67/164/26 70/165/26 65/152/26
f 71/166/27 72/167/27 73/168/27
f 72/154/28 71/169/28 75/170/28
f 74/171/29 66/172/29 65/173/29 70/174/29
f 74/175/30 71/176/30 73/153/30 69/177/30
f 68/178/31 69/179/31 67/180/31 64/181/31
f 75/182/32 76/183/32 72/184/32
f 69/185/33 73/186/33 76/187/33 67/188/33
f 70/174/34 67/189/34 76/190/34 75/170/34
f 36/91/3 37/191/3 42/192/3
f 34/193/6 43/194/6 35/195/6
f 37/196/9 35/197/9 43/83/9 42/86/9
usemtl CHIMERITE
f 1/198/35 5/199/35 2/200/35
f 1/201/36 4/202/36 5/199/36
f 1/203/37 3/204/37 4/205/37
f 1/206/38 2/207/38 3/208/38
