# Blender v2.80 (sub 75) OBJ File: 'wands.blend'
# www.blender.org
mtllib wand_emerald.mtl
o WAND_VAR6_Cube.028
v 0.500000 0.031250 0.500000
v 0.468750 0.062500 0.468750
v 0.531250 0.062500 0.468750
v 0.531250 0.062500 0.531250
v 0.468750 0.062500 0.531250
v 0.468750 0.125000 0.468750
v 0.468750 0.937500 0.468750
v 0.531250 0.937500 0.468750
v 0.531250 0.125000 0.468750
v 0.531250 0.875000 0.531250
v 0.531250 0.125000 0.531250
v 0.468750 0.937500 0.531250
v 0.468750 0.875000 0.531250
v 0.468750 0.125000 0.531250
v 0.468750 0.625000 0.468750
v 0.531250 0.625000 0.531250
v 0.468750 0.625000 0.531250
v 0.531250 0.625000 0.468750
v 0.553347 0.937500 0.446653
v 0.553347 0.875000 0.446653
v 0.553347 0.937500 0.553347
v 0.553347 0.875000 0.553347
v 0.446653 0.937500 0.553347
v 0.446653 0.875000 0.553347
v 0.446653 0.937500 0.446653
v 0.446653 0.875000 0.446653
v 0.531250 0.937500 0.531250
v 0.468750 1.062500 0.531250
v 0.468750 1.062500 0.468750
v 0.531250 1.062500 0.531250
v 0.531250 1.062500 0.468750
v 0.500000 1.187500 0.500000
v 0.468750 0.875000 0.468750
v 0.531250 0.875000 0.468750
vt 0.062500 0.437500
vt 0.125000 0.500000
vt 0.062500 0.500000
vt 0.062500 0.375000
vt 0.125000 0.437500
vt 0.062500 0.437500
vt 0.062500 0.312500
vt 0.125000 0.375000
vt 0.062500 0.375000
vt 0.125000 0.437500
vt 0.062500 0.437500
vt 0.375000 0.812500
vt 0.375000 0.875000
vt 0.312500 0.875000
vt 0.312500 0.812500
vt 0.411612 0.588388
vt 0.338388 0.588388
vt 0.312500 0.562500
vt 0.437500 0.562500
vt 0.437500 0.812500
vt 0.437500 0.875000
vt 0.338388 0.661612
vt 0.312500 0.687500
vt 0.500000 0.812500
vt 0.500000 0.875000
vt 0.338388 0.588388
vt 0.411612 0.588388
vt 0.437500 0.562500
vt 0.312500 0.562500
vt 0.250000 0.875000
vt 0.250000 0.812500
vt 0.411612 0.661612
vt 0.437500 0.687500
vt 0.062500 0.500000
vt 0.062500 1.000000
vt 0.000000 1.000000
vt 0.000000 0.500000
vt 0.250000 0.500000
vt 0.250000 1.000000
vt 0.187500 1.000000
vt 0.187500 0.500000
vt 0.125000 1.000000
vt 0.125000 0.500000
vt 0.312500 0.812500
vt 0.312500 0.875000
vt 0.437500 0.875000
vt 0.437500 0.812500
vt 0.437500 0.812500
vt 0.437500 0.875000
vt 0.500000 0.812500
vt 0.500000 0.875000
vt 0.375000 0.875000
vt 0.375000 0.812500
vt 0.375000 0.812500
vt 0.375000 0.875000
vt 0.338388 0.661612
vt 0.312500 0.687500
vt 0.411612 0.661612
vt 0.437500 0.687500
vt 0.062500 0.437500
vt 0.125000 0.437500
vt 0.125000 0.312500
vt 0.062500 0.312500
vt 0.062500 0.437500
vt 0.125000 0.437500
vt 0.125000 0.312500
vt 0.062500 0.312500
vt 0.187500 0.437500
vt 0.125000 0.437500
vt 0.125000 0.312500
vt 0.187500 0.312500
vt 0.187500 0.437500
vt 0.125000 0.437500
vt 0.125000 0.312500
vt 0.187500 0.312500
vt 0.062500 0.375000
vt 0.000000 0.375000
vt 0.062500 0.500000
vt 0.062500 0.375000
vt 0.125000 0.375000
vt 0.062500 0.375000
vt 0.000000 0.375000
vt 0.062500 0.375000
vt 0.125000 0.375000
vt 0.125000 0.500000
vt 0.125000 0.750000
vt 0.062500 0.750000
vt 0.062500 0.500000
vt 0.187500 0.500000
vt 0.187500 0.750000
vt 0.250000 0.500000
vt 0.250000 0.750000
vt 0.000000 0.750000
vt 0.000000 0.500000
vn -0.7071 -0.7071 0.0000
vn 0.0000 -0.7071 0.7071
vn 0.7071 -0.7071 0.0000
vn 0.0000 -0.7071 -0.7071
vn -1.0000 0.0000 0.0000
vn 0.0000 1.0000 0.0000
vn 0.0000 0.0000 1.0000
vn 1.0000 0.0000 0.0000
vn 0.0000 -1.0000 0.0000
vn 0.0000 0.0000 -1.0000
vn 0.0000 0.2425 0.9701
vn 0.9701 0.2425 0.0000
vn 0.0000 0.2425 -0.9701
vn -0.9701 0.2425 0.0000
usemtl MAIN
s off
f 1/1/1 5/2/1 2/3/1
f 1/4/2 4/5/2 5/6/2
f 1/7/3 3/8/3 4/9/3
f 1/4/4 2/10/4 3/11/4
f 5/12/5 14/13/5 6/14/5 2/15/5
f 12/16/6 7/17/6 25/18/6 23/19/6
f 4/20/7 11/21/7 14/13/7 5/12/7
f 7/17/6 8/22/6 19/23/6 25/18/6
f 3/24/8 9/25/8 11/21/8 4/20/8
f 33/26/9 13/27/9 24/28/9 26/29/9
f 2/15/10 6/14/10 9/30/10 3/31/10
f 27/32/6 12/16/6 23/19/6 21/33/6
f 6/34/10 15/35/10 18/36/10 9/37/10
f 9/38/8 18/39/8 16/40/8 11/41/8
f 11/41/7 16/40/7 17/42/7 14/43/7
f 14/43/5 17/42/5 15/35/5 6/34/5
f 24/44/5 23/45/5 25/46/5 26/47/5
f 22/48/7 21/49/7 23/45/7 24/44/7
f 20/50/8 19/51/8 21/52/8 22/53/8
f 26/54/10 25/55/10 19/51/10 20/50/10
f 8/22/6 27/32/6 21/33/6 19/23/6
f 34/56/9 33/26/9 26/29/9 20/57/9
f 13/27/9 10/58/9 22/59/9 24/28/9
f 10/58/9 34/56/9 20/57/9 22/59/9
f 30/60/7 28/61/7 12/62/7 27/63/7
f 29/64/10 31/65/10 8/66/10 7/67/10
f 31/68/8 30/69/8 27/70/8 8/71/8
f 28/72/5 29/73/5 7/74/5 12/75/5
f 28/76/11 30/77/11 32/78/11
f 30/79/12 31/80/12 32/78/12
f 31/81/13 29/82/13 32/78/13
f 29/83/14 28/84/14 32/78/14
f 17/85/5 13/86/5 33/87/5 15/88/5
f 16/89/7 10/90/7 13/86/7 17/85/7
f 18/91/8 34/92/8 10/90/8 16/89/8
f 15/88/10 33/87/10 34/93/10 18/94/10
