# Blender v2.80 (sub 75) OBJ File: 'wands.blend'
# www.blender.org
mtllib wand_wakebloom.mtl
o WAND_VAR13_Cube.044
v 0.499419 0.031250 0.501402
v 0.468169 0.062500 0.470152
v 0.530669 0.062500 0.470152
v 0.530669 0.062500 0.532652
v 0.468169 0.062500 0.532652
v 0.468169 0.125000 0.470152
v 0.530669 0.125000 0.470152
v 0.530669 0.875000 0.532652
v 0.530669 0.125000 0.532652
v 0.468169 0.125000 0.532652
v 0.468169 0.625000 0.470152
v 0.530669 0.625000 0.532652
v 0.468169 0.625000 0.532652
v 0.530669 0.625000 0.470152
v 0.552766 0.937500 0.448055
v 0.552766 0.875000 0.448055
v 0.552766 0.937500 0.554749
v 0.552766 0.875000 0.554749
v 0.446072 0.937500 0.554749
v 0.446072 0.875000 0.554749
v 0.446072 0.937500 0.448055
v 0.446072 0.875000 0.448055
v 0.468169 0.875000 0.470152
v 0.468169 0.875000 0.532652
v 0.530669 0.875000 0.470152
v 0.499419 0.937500 0.457208
v 0.543613 0.937500 0.501402
v 0.499419 0.937500 0.545596
v 0.455225 0.937500 0.501402
v 0.499419 1.062500 0.501402
v 0.627284 1.058596 0.545914
v 0.657061 0.937201 0.547207
v 0.698778 1.012022 0.568978
v 0.536405 0.939303 0.502049
v 0.521516 1.000000 0.501402
v 0.653131 1.000276 0.517392
v 0.565704 1.091682 0.552963
v 0.616301 0.986039 0.596603
v 0.632638 1.072241 0.607317
v 0.520381 0.945688 0.520625
v 0.371555 1.058596 0.545914
v 0.610577 1.038177 0.550433
v 0.499419 0.999999 0.500743
v 0.341778 0.937201 0.547207
v 0.300060 1.012022 0.568978
v 0.462434 0.939303 0.502049
v 0.477322 1.000000 0.501402
v 0.345708 1.000276 0.517392
v 0.433135 1.091682 0.552963
v 0.382537 0.986039 0.596603
v 0.366201 1.072241 0.607317
v 0.478457 0.945688 0.520625
v 0.388261 1.038177 0.550433
v 0.499419 0.986753 0.413349
v 0.499419 0.997864 0.482337
v 0.499419 1.057499 0.501043
v 0.499419 1.106022 0.450762
v 0.499419 1.065094 0.372420
v 0.530669 1.046388 0.432055
v 0.468169 1.046388 0.432055
vt 0.375000 0.812500
vt 0.375000 0.875000
vt 0.312500 0.875000
vt 0.312500 0.812500
vt 0.437500 0.812500
vt 0.437500 0.875000
vt 0.500000 0.812500
vt 0.500000 0.875000
vt 0.338388 0.588388
vt 0.411612 0.588388
vt 0.437500 0.562500
vt 0.312500 0.562500
vt 0.250000 0.875000
vt 0.250000 0.812500
vt 0.062500 0.500000
vt 0.062500 1.000000
vt 0.000000 1.000000
vt 0.000000 0.500000
vt 0.250000 0.500000
vt 0.250000 1.000000
vt 0.187500 1.000000
vt 0.187500 0.500000
vt 0.125000 1.000000
vt 0.125000 0.500000
vt 0.312500 0.812500
vt 0.312500 0.875000
vt 0.437500 0.875000
vt 0.437500 0.812500
vt 0.437500 0.812500
vt 0.437500 0.875000
vt 0.500000 0.812500
vt 0.500000 0.875000
vt 0.375000 0.875000
vt 0.375000 0.812500
vt 0.375000 0.812500
vt 0.375000 0.875000
vt 0.312500 0.687500
vt 0.312500 0.562500
vt 0.437500 0.562500
vt 0.437500 0.687500
vt 0.338388 0.661612
vt 0.312500 0.687500
vt 0.411612 0.661612
vt 0.437500 0.687500
vt 0.125000 0.500000
vt 0.125000 0.750000
vt 0.062500 0.750000
vt 0.062500 0.500000
vt 0.187500 0.500000
vt 0.187500 0.750000
vt 0.250000 0.500000
vt 0.250000 0.750000
vt 0.000000 0.750000
vt 0.000000 0.500000
vt 0.937500 0.687500
vt 1.000000 0.687500
vt 0.937500 0.812500
vt 0.937500 0.625000
vt 1.000000 0.625000
vt 0.937500 0.750000
vt 1.000000 0.687500
vt 0.937500 0.687500
vt 1.000000 0.625000
vt 0.937500 0.625000
vt 0.781250 0.312500
vt 0.718750 0.312500
vt 0.687500 0.437500
vt 0.812500 0.437500
vt 0.812500 0.437500
vt 0.750000 0.437500
vt 0.750000 0.312500
vt 0.875000 0.437500
vt 0.812500 0.500000
vt 0.875000 0.312500
vt 0.750000 0.500000
vt 0.583036 0.312500
vt 0.531250 0.312500
vt 0.500000 0.437500
vt 0.625000 0.437500
vt 0.625000 0.437500
vt 0.562500 0.437500
vt 0.562500 0.312500
vt 0.687500 0.437500
vt 0.625000 0.500000
vt 0.687500 0.312500
vt 0.781250 0.312500
vt 0.812500 0.437500
vt 0.687500 0.437500
vt 0.718750 0.312500
vt 0.562500 0.500000
vt 0.875000 0.437500
vt 0.812500 0.437500
vt 0.812500 0.500000
vt 0.750000 0.312500
vt 0.750000 0.437500
vt 0.875000 0.312500
vt 0.750000 0.500000
vt 0.595669 0.320176
vt 0.625000 0.437500
vt 0.500000 0.437500
vt 0.531250 0.312500
vt 0.625000 0.437500
vt 0.562500 0.312500
vt 0.562500 0.437500
vt 0.687500 0.437500
vt 0.625000 0.500000
vt 0.562500 0.500000
vt 0.406300 0.375100
vt 0.468700 0.375100
vt 0.437500 0.437500
vt 0.499900 0.437500
vt 0.375100 0.437500
vt 0.437500 0.499900
vt 0.437500 0.437500
vt 0.156250 0.218750
vt 0.187500 0.250000
vt 0.125000 0.250000
vt 0.218750 0.218750
vt 0.250000 0.250000
vt 0.218750 0.156250
vt 0.250000 0.187500
vt 0.187500 0.187500
vt 0.218750 0.218750
vt 0.250000 0.250000
vt 0.187500 0.250000
vn -1.0000 0.0000 0.0000
vn 0.0000 0.0000 1.0000
vn 1.0000 0.0000 0.0000
vn 0.0000 -1.0000 0.0000
vn 0.0000 0.0000 -1.0000
vn 0.0000 1.0000 0.0000
vn 0.6860 0.2425 0.6860
vn 0.6860 0.2425 -0.6860
vn -0.6860 0.2425 -0.6860
vn -0.6860 0.2425 0.6860
vn -0.3507 -0.0761 0.9334
vn -0.9966 -0.0129 -0.0819
vn 0.3170 -0.3891 -0.8649
vn 0.5588 0.5508 -0.6199
vn 0.1052 0.4741 -0.8741
vn 0.2001 -0.5312 0.8233
vn 0.1205 0.0190 -0.9925
vn 0.7533 -0.2421 -0.6115
vn -0.6322 0.0247 0.7744
vn -0.8777 -0.3175 -0.3591
vn 0.6627 -0.4544 -0.5953
vn 0.6182 0.5452 -0.5662
vn 0.3029 0.2968 -0.9056
vn 0.3507 -0.0761 0.9334
vn -0.5106 -0.7478 0.4244
vn 0.9487 -0.1448 -0.2812
vn -0.8858 -0.3025 -0.3519
vn -0.6264 0.0219 0.7792
vn -0.0032 -0.2873 0.9578
vn 0.4461 -0.1507 -0.8822
vn -0.5588 0.5508 -0.6199
vn -0.3170 -0.3891 -0.8649
vn -0.1052 0.4741 -0.8741
vn 0.6769 -0.1303 0.7245
vn -0.1205 0.0190 -0.9925
vn -0.7533 -0.2421 -0.6115
vn -0.1626 0.8895 0.4271
vn -0.0691 0.9178 0.3909
vn -0.4687 -0.4746 0.7450
vn 0.6322 0.0247 0.7744
vn -0.6627 -0.4544 -0.5953
vn -0.6182 0.5452 -0.5662
vn -0.3029 0.2968 -0.9056
vn -0.9487 -0.1448 -0.2812
vn 0.1698 0.9674 0.1880
vn 0.6264 0.0219 0.7792
vn 0.8556 -0.1326 0.5003
vn -0.4461 -0.1507 -0.8822
vn 0.4440 0.6936 0.5673
vn 0.8944 -0.1339 0.4267
vn 0.8729 -0.4817 0.0776
vn 0.8729 0.3511 0.3388
vn 0.8165 0.5117 -0.2673
vn 0.8165 -0.2673 -0.5117
vn -0.8944 -0.1339 0.4267
vn -0.8729 -0.4817 0.0776
vn -0.8729 0.3511 0.3388
vn -0.8165 0.5117 -0.2673
vn -0.8165 -0.2673 -0.5117
vn -0.7071 -0.7071 0.0000
vn 0.0000 -0.7071 0.7071
vn 0.7071 -0.7071 0.0000
vn 0.0000 -0.7071 -0.7071
usemtl MAIN
s off
f 5/1/1 10/2/1 6/3/1 2/4/1
f 4/5/2 9/6/2 10/2/2 5/1/2
f 3/7/3 7/8/3 9/6/3 4/5/3
f 23/9/4 24/10/4 20/11/4 22/12/4
f 2/4/5 6/3/5 7/13/5 3/14/5
f 6/15/5 11/16/5 14/17/5 7/18/5
f 7/19/3 14/20/3 12/21/3 9/22/3
f 9/22/2 12/21/2 13/23/2 10/24/2
f 10/24/1 13/23/1 11/16/1 6/15/1
f 20/25/1 19/26/1 21/27/1 22/28/1
f 18/29/2 17/30/2 19/26/2 20/25/2
f 16/31/3 15/32/3 17/33/3 18/34/3
f 22/35/5 21/36/5 15/32/5 16/31/5
f 19/37/6 17/38/6 15/39/6 21/40/6
f 25/41/4 23/9/4 22/12/4 16/42/4
f 24/10/4 8/43/4 18/44/4 20/11/4
f 8/43/4 25/41/4 16/42/4 18/44/4
f 13/45/1 24/46/1 23/47/1 11/48/1
f 12/49/2 8/50/2 24/46/2 13/45/2
f 14/51/3 25/52/3 8/50/3 12/49/3
f 11/48/5 23/47/5 25/53/5 14/54/5
f 28/55/7 27/56/7 30/57/7
f 27/58/8 26/59/8 30/60/8
f 26/61/9 29/62/9 30/57/9
f 29/63/10 28/64/10 30/60/10
f 35/65/11 34/66/11 32/67/11 31/68/12
f 36/69/13 32/70/13 34/71/13
f 31/72/14 33/73/14 36/69/14
f 35/74/15 31/72/15 36/69/15
f 34/71/16 35/74/17 36/69/17
f 32/70/18 36/69/18 33/73/18
f 31/68/12 32/67/11 33/75/11
f 43/76/19 40/77/19 38/78/19 37/79/20
f 42/80/21 38/81/21 40/82/21
f 37/83/22 39/84/22 42/80/22
f 43/85/23 37/83/23 42/80/23
f 47/86/24 41/87/25 44/88/24 46/89/24
f 38/81/26 42/80/26 39/84/26
f 37/79/27 38/78/28 39/90/28
f 40/82/29 43/85/30 42/80/30
f 41/91/31 48/92/31 45/93/31
f 48/92/32 46/94/32 44/95/32
f 47/96/33 48/92/33 41/91/33
f 46/94/34 48/92/35 47/96/35
f 44/95/36 45/93/36 48/92/36
f 41/87/37 45/97/24 44/88/24
f 43/98/38 49/99/39 50/100/40 52/101/40
f 53/102/41 52/103/41 50/104/41
f 49/105/42 53/102/42 51/106/42
f 43/85/43 53/102/43 49/105/43
f 50/104/44 51/106/44 53/102/44
f 49/99/45 51/107/46 50/100/46
f 52/103/47 53/102/48 43/85/49
f 56/108/50 55/109/50 59/110/50
f 54/111/51 59/110/51 55/109/51
f 57/112/52 56/108/52 59/110/52
f 57/112/53 59/110/53 58/113/53
f 59/110/54 54/111/54 58/113/54
f 56/108/55 60/114/55 55/109/55
f 54/111/56 55/109/56 60/114/56
f 57/112/57 60/114/57 56/108/57
f 57/112/58 58/113/58 60/114/58
f 60/114/59 58/113/59 54/111/59
usemtl CHIMERITE
f 1/115/60 5/116/60 2/117/60
f 1/118/61 4/119/61 5/116/61
f 1/120/62 3/121/62 4/122/62
f 1/123/63 2/124/63 3/125/63
