# Blender v2.80 (sub 75) OBJ File: 'wands.blend'
# www.blender.org
mtllib wand_prismarineshard.mtl
o WAND_VAR11_Cube.020
v 0.500000 0.031250 0.500000
v 0.468750 1.000000 0.468750
v 0.531250 1.000000 0.468750
v 0.468750 1.000000 0.531250
v 0.531250 1.000000 0.531250
v 0.468750 0.062500 0.468750
v 0.531250 0.062500 0.468750
v 0.531250 0.062500 0.531250
v 0.468750 0.062500 0.531250
v 0.468750 0.125000 0.468750
v 0.468750 0.875000 0.468750
v 0.468750 0.937500 0.468750
v 0.531250 0.937500 0.468750
v 0.531250 0.875000 0.468750
v 0.531250 0.125000 0.468750
v 0.531250 0.937500 0.531250
v 0.531250 0.875000 0.531250
v 0.531250 0.125000 0.531250
v 0.468750 0.937500 0.531250
v 0.468750 0.875000 0.531250
v 0.468750 0.125000 0.531250
v 0.468750 0.625000 0.468750
v 0.531250 0.625000 0.531250
v 0.468750 0.625000 0.531250
v 0.531250 0.625000 0.468750
v 0.553347 0.937500 0.446653
v 0.553347 0.875000 0.446653
v 0.553347 0.937500 0.553347
v 0.553347 0.875000 0.553347
v 0.446653 0.937500 0.553347
v 0.446653 0.875000 0.553347
v 0.446653 0.937500 0.446653
v 0.446653 0.875000 0.446653
v 0.593750 1.093750 0.500000
v 0.593750 1.156250 0.500000
v 0.531250 1.218750 0.500000
v 0.531250 0.968750 0.500000
v 0.531250 1.093750 0.468750
v 0.531250 1.156250 0.468750
v 0.531250 1.031250 0.484375
v 0.562500 1.031250 0.500000
v 0.468750 1.156250 0.468750
v 0.468750 0.968750 0.500000
v 0.468750 1.093750 0.468750
v 0.406250 1.093750 0.500000
v 0.406250 1.156250 0.500000
v 0.468750 1.218750 0.500000
v 0.468750 1.031250 0.484375
v 0.437500 1.031250 0.500000
v 0.531250 1.093750 0.531250
v 0.531250 1.156250 0.531250
v 0.531250 1.031250 0.515625
v 0.468750 1.156250 0.531250
v 0.468750 1.093750 0.531250
v 0.468750 1.031250 0.515625
v 0.468750 0.873288 0.468750
v 0.531250 0.873288 0.468750
v 0.468750 0.873288 0.531250
v 0.531250 0.873288 0.531250
vt 0.312500 0.687500
vt 0.375000 0.687500
vt 0.375000 0.750000
vt 0.312500 0.750000
vt 0.250000 0.750000
vt 0.312500 0.750000
vt 0.312500 0.812500
vt 0.250000 0.812500
vt 0.250000 0.562500
vt 0.312500 0.562500
vt 0.312500 0.625000
vt 0.250000 0.625000
vt 0.312500 0.687500
vt 0.250000 0.687500
vt 0.375000 0.812500
vt 0.375000 0.875000
vt 0.312500 0.875000
vt 0.312500 0.812500
vt 0.411612 0.588388
vt 0.338388 0.588388
vt 0.312500 0.562500
vt 0.437500 0.562500
vt 0.437500 0.812500
vt 0.437500 0.875000
vt 0.338388 0.661612
vt 0.312500 0.687500
vt 0.500000 0.812500
vt 0.500000 0.875000
vt 0.338388 0.588388
vt 0.411612 0.588388
vt 0.437500 0.562500
vt 0.312500 0.562500
vt 0.250000 0.875000
vt 0.250000 0.812500
vt 0.411612 0.661612
vt 0.437500 0.687500
vt 0.062500 0.500000
vt 0.062500 1.000000
vt 0.000000 1.000000
vt 0.000000 0.500000
vt 0.250000 0.500000
vt 0.250000 1.000000
vt 0.187500 1.000000
vt 0.187500 0.500000
vt 0.125000 1.000000
vt 0.125000 0.500000
vt 0.312500 0.812500
vt 0.312500 0.875000
vt 0.437500 0.875000
vt 0.437500 0.812500
vt 0.437500 0.812500
vt 0.437500 0.875000
vt 0.500000 0.812500
vt 0.500000 0.875000
vt 0.375000 0.875000
vt 0.375000 0.812500
vt 0.375000 0.812500
vt 0.375000 0.875000
vt 0.338388 0.661612
vt 0.312500 0.687500
vt 0.411612 0.661612
vt 0.437500 0.687500
vt 0.812500 0.687500
vt 0.875000 0.750000
vt 0.812500 0.750000
vt 0.812500 0.812500
vt 0.875000 0.812500
vt 0.875000 0.875000
vt 0.812500 0.875000
vt 0.812500 0.937500
vt 0.875000 0.875000
vt 0.875000 0.937500
vt 0.812500 0.750000
vt 0.875000 0.750000
vt 0.875000 0.812500
vt 0.812500 0.812500
vt 0.875000 0.687500
vt 0.812500 0.687500
vt 0.812500 0.750000
vt 0.875000 0.750000
vt 0.812500 0.875000
vt 0.875000 0.875000
vt 0.875000 0.812500
vt 0.812500 0.812500
vt 0.812500 0.562500
vt 0.812500 0.625000
vt 0.875000 0.625000
vt 0.812500 0.687500
vt 0.812500 0.750000
vt 0.875000 0.750000
vt 0.875000 0.687500
vt 0.875000 0.750000
vt 0.812500 0.625000
vt 0.875000 0.625000
vt 0.812500 0.812500
vt 0.875000 0.812500
vt 0.812500 0.687500
vt 0.875000 0.687500
vt 0.812500 0.750000
vt 0.812500 0.875000
vt 0.875000 0.875000
vt 0.875000 0.937500
vt 0.812500 0.812500
vt 0.875000 0.812500
vt 0.875000 0.687500
vt 0.875000 0.750000
vt 0.812500 0.750000
vt 0.812500 0.687500
vt 0.875000 0.812500
vt 0.875000 0.875000
vt 0.812500 0.625000
vt 0.875000 0.750000
vt 0.812500 0.750000
vt 0.875000 0.812500
vt 0.812500 0.812500
vt 0.812500 0.687500
vt 0.062500 0.500000
vt 0.062500 0.750000
vt 0.000000 0.750000
vt 0.000000 0.500000
vt 0.250000 0.500000
vt 0.250000 0.750000
vt 0.187500 0.750000
vt 0.187500 0.500000
vt 0.125000 0.750000
vt 0.125000 0.500000
vt 0.156250 0.218750
vt 0.187500 0.250000
vt 0.125000 0.250000
vt 0.218750 0.218750
vt 0.250000 0.250000
vt 0.218750 0.156250
vt 0.250000 0.187500
vt 0.187500 0.187500
vt 0.218750 0.218750
vt 0.250000 0.250000
vt 0.187500 0.250000
vn 0.0000 1.0000 0.0000
vn 0.0000 0.0000 -1.0000
vn 1.0000 0.0000 0.0000
vn 0.0000 0.0000 1.0000
vn -1.0000 0.0000 0.0000
vn 0.0000 -1.0000 0.0000
vn 0.4364 -0.2182 -0.8729
vn 0.4472 0.0000 -0.8944
vn 0.4082 0.4082 -0.8165
vn 0.0000 -0.2425 -0.9701
vn 0.0000 0.4472 -0.8944
vn -0.4364 -0.2182 -0.8729
vn -0.4472 0.0000 -0.8944
vn -0.4082 0.4082 -0.8165
vn 0.4364 -0.2182 0.8729
vn 0.4472 0.0000 0.8944
vn 0.4082 0.4082 0.8165
vn 0.0000 -0.2425 0.9701
vn 0.0000 0.4472 0.8944
vn -0.4364 -0.2182 0.8729
vn -0.4472 0.0000 0.8944
vn -0.4082 0.4082 0.8165
vn -0.7071 -0.7071 0.0000
vn 0.0000 -0.7071 0.7071
vn 0.7071 -0.7071 0.0000
vn 0.0000 -0.7071 -0.7071
usemtl MAIN
s off
f 5/1/1 3/2/1 2/3/1 4/4/1
f 12/5/2 2/6/2 3/7/2 13/8/2
f 13/9/3 3/10/3 5/11/3 16/12/3
f 16/12/4 5/11/4 4/13/4 19/14/4
f 19/14/5 4/13/5 2/6/5 12/5/5
f 9/15/5 21/16/5 10/17/5 6/18/5
f 19/19/1 12/20/1 32/21/1 30/22/1
f 8/23/4 18/24/4 21/16/4 9/15/4
f 12/20/1 13/25/1 26/26/1 32/21/1
f 7/27/3 15/28/3 18/24/3 8/23/3
f 11/29/6 20/30/6 31/31/6 33/32/6
f 6/18/2 10/17/2 15/33/2 7/34/2
f 16/35/1 19/19/1 30/22/1 28/36/1
f 10/37/2 22/38/2 25/39/2 15/40/2
f 15/41/3 25/42/3 23/43/3 18/44/3
f 18/44/4 23/43/4 24/45/4 21/46/4
f 21/46/5 24/45/5 22/38/5 10/37/5
f 31/47/5 30/48/5 32/49/5 33/50/5
f 29/51/4 28/52/4 30/48/4 31/47/4
f 27/53/3 26/54/3 28/55/3 29/56/3
f 33/57/2 32/58/2 26/54/2 27/53/2
f 13/25/1 16/35/1 28/36/1 26/26/1
f 14/59/6 11/29/6 33/32/6 27/60/6
f 20/30/6 17/61/6 29/62/6 31/31/6
f 17/61/6 14/59/6 27/60/6 29/62/6
f 41/63/7 37/64/7 40/65/7
f 35/66/8 34/67/8 38/68/8 39/69/8
f 36/70/9 35/71/9 39/72/9
f 34/73/7 41/74/7 40/75/7 38/76/7
f 48/77/10 44/78/10 38/79/10 40/80/10
f 36/81/11 39/82/11 42/83/11 47/84/11
f 49/85/12 48/86/12 43/87/12
f 46/88/13 42/89/13 44/90/13 45/91/13
f 47/84/14 42/83/14 46/92/14
f 45/93/12 44/78/12 48/77/12 49/94/12
f 44/90/2 42/89/2 39/95/2 38/96/2
f 43/87/10 48/86/10 40/97/10 37/98/10
f 41/63/15 52/99/15 37/64/15
f 35/66/16 51/100/16 50/101/16 34/67/16
f 36/70/17 51/102/17 35/71/17
f 34/73/15 50/103/15 52/104/15 41/74/15
f 55/105/18 52/106/18 50/107/18 54/108/18
f 36/81/19 47/84/19 53/109/19 51/110/19
f 49/85/20 43/87/20 55/111/20
f 46/88/21 45/91/21 54/112/21 53/113/21
f 47/84/22 46/92/22 53/109/22
f 45/93/20 49/94/20 55/105/20 54/108/20
f 54/112/4 50/114/4 51/115/4 53/113/4
f 43/87/18 37/98/18 52/116/18 55/111/18
f 22/117/2 56/118/2 57/119/2 25/120/2
f 25/121/3 57/122/3 59/123/3 23/124/3
f 23/124/4 59/123/4 58/125/4 24/126/4
f 24/126/5 58/125/5 56/118/5 22/117/5
usemtl CHIMERITE
f 1/127/23 9/128/23 6/129/23
f 1/130/24 8/131/24 9/128/24
f 1/132/25 7/133/25 8/134/25
f 1/135/26 6/136/26 7/137/26
