# Blender v2.80 (sub 75) OBJ File: 'wands.blend'
# www.blender.org
mtllib wand_iron.mtl
o WAND_VAR7_Cube.027
v 0.500000 0.031250 0.500000
v 0.468750 0.062500 0.531250
v 0.468750 0.062500 0.468750
v 0.531250 0.062500 0.468750
v 0.531250 0.062500 0.531250
v 0.468750 0.125000 0.531250
v 0.468750 0.875000 0.531250
v 0.468750 0.875000 0.468750
v 0.468750 0.125000 0.468750
v 0.531250 0.875000 0.468750
v 0.531250 0.125000 0.468750
v 0.531250 0.875000 0.531250
v 0.531250 0.125000 0.531250
v 0.468750 0.625000 0.531250
v 0.531250 0.625000 0.468750
v 0.531250 0.625000 0.531250
v 0.468750 0.625000 0.468750
v 0.446653 0.937500 0.446653
v 0.446653 0.875000 0.446653
v 0.553347 0.937500 0.446653
v 0.553347 0.875000 0.446653
v 0.553347 0.937500 0.553347
v 0.553347 0.875000 0.553347
v 0.446653 0.937500 0.553347
v 0.446653 0.875000 0.553347
v 0.402459 1.078125 0.531250
v 0.402459 1.078125 0.468750
v 0.500000 1.175666 0.531250
v 0.500000 1.175666 0.468750
v 0.597541 1.078125 0.531250
v 0.597541 1.078125 0.468750
v 0.500000 0.980584 0.531250
v 0.500000 0.980584 0.468750
v 0.641735 1.033931 0.531250
v 0.641735 1.033931 0.468750
v 0.544194 0.936389 0.531250
v 0.544194 0.936389 0.468750
v 0.358265 1.033931 0.531250
v 0.358265 1.033931 0.468750
v 0.455806 0.936389 0.531250
v 0.455806 0.936389 0.468750
v 0.500000 0.892195 0.468750
v 0.500000 0.892195 0.531250
v 0.500000 0.937500 0.500000
v 0.468750 0.812500 0.531250
v 0.531250 0.187500 0.468750
v 0.531250 0.187500 0.531250
v 0.468750 0.187500 0.468750
v 0.468750 0.187500 0.531250
v 0.548771 1.029354 0.531250
v 0.548771 1.029354 0.468750
v 0.592965 0.985160 0.531250
v 0.592965 0.985160 0.468750
v 0.451229 1.126895 0.468750
v 0.451229 1.126895 0.531250
v 0.548771 1.126895 0.468750
v 0.548771 1.126895 0.531250
v 0.500000 1.078125 0.468750
v 0.500000 1.078125 0.531250
v 0.451229 1.029354 0.531250
v 0.451229 1.029354 0.468750
v 0.407035 0.985160 0.531250
v 0.407035 0.985160 0.468750
v 0.531250 0.812500 0.468750
v 0.531250 0.812500 0.531250
v 0.468750 0.812500 0.468750
vt 0.500000 0.750000
vt 0.562500 0.750000
vt 0.562500 0.812500
vt 0.500000 0.812500
vt 0.500000 0.687500
vt 0.562500 0.687500
vt 0.500000 0.625000
vt 0.562500 0.625000
vt 0.525888 0.713388
vt 0.525888 0.786612
vt 0.500000 0.812500
vt 0.500000 0.687500
vt 0.562500 0.875000
vt 0.500000 0.875000
vt 0.250000 0.750000
vt 0.312500 0.750000
vt 0.312500 0.812500
vt 0.250000 0.812500
vt 0.250000 0.562500
vt 0.312500 0.562500
vt 0.312500 0.625000
vt 0.250000 0.625000
vt 0.312500 0.687500
vt 0.250000 0.687500
vt 0.500000 0.875000
vt 0.562500 0.875000
vt 0.562500 0.750000
vt 0.500000 0.750000
vt 0.500000 0.750000
vt 0.562500 0.750000
vt 0.500000 0.687500
vt 0.562500 0.687500
vt 0.562500 0.812500
vt 0.500000 0.812500
vt 0.500000 0.812500
vt 0.562500 0.812500
vt 0.525888 0.650888
vt 0.525888 0.724112
vt 0.500000 0.625000
vt 0.525888 0.713388
vt 0.500000 0.687500
vt 0.525888 0.724112
vt 0.500000 0.625000
vt 0.500000 0.562500
vt 0.562500 0.562500
vt 0.562500 0.625000
vt 0.500000 0.562500
vt 0.562500 0.562500
vt 0.562500 0.500000
vt 0.500000 0.500000
vt 0.500000 0.625000
vt 0.500000 0.687500
vt 0.562500 0.687500
vt 0.562500 0.625000
vt 0.562500 0.562500
vt 0.500000 0.562500
vt 0.500000 0.625000
vt 0.562500 0.625000
vt 0.562500 0.812500
vt 0.562500 0.750000
vt 0.500000 0.750000
vt 0.500000 0.812500
vt 0.500000 0.625000
vt 0.500000 0.562500
vt 0.562500 0.562500
vt 0.562500 0.625000
vt 0.500000 0.625000
vt 0.500000 0.687500
vt 0.562500 0.687500
vt 0.562500 0.625000
vt 0.500000 0.687500
vt 0.500000 0.750000
vt 0.562500 0.750000
vt 0.562500 0.687500
vt 0.562500 0.562500
vt 0.562500 0.500000
vt 0.500000 0.500000
vt 0.500000 0.562500
vt 0.562500 0.500000
vt 0.562500 0.562500
vt 0.500000 0.562500
vt 0.500000 0.500000
vt 0.562500 0.750000
vt 0.562500 0.812500
vt 0.500000 0.812500
vt 0.500000 0.625000
vt 0.562500 0.625000
vt 0.562500 0.687500
vt 0.562500 0.687500
vt 0.562500 0.750000
vt 0.500000 0.750000
vt 0.500000 0.687500
vt 0.500000 0.937500
vt 0.500000 0.812500
vt 0.562500 0.875000
vt 0.500000 0.875000
vt 0.500000 0.750000
vt 0.562500 0.812500
vt 0.500000 0.875000
vt 0.500000 0.812500
vt 0.250000 0.687500
vt 0.312500 0.687500
vt 0.312500 0.750000
vt 0.250000 0.750000
vt 0.125000 0.562500
vt 0.125000 1.000000
vt 0.062500 1.000000
vt 0.062500 0.562500
vt 0.250000 0.625000
vt 0.312500 0.625000
vt 0.187500 0.562500
vt 0.187500 1.000000
vt 0.250000 0.562500
vt 0.312500 0.562500
vt 0.250000 0.562500
vt 0.250000 1.000000
vt 0.312500 0.812500
vt 0.250000 0.812500
vt 0.000000 1.000000
vt 0.000000 0.562500
vt 0.562500 0.625000
vt 0.562500 0.687500
vt 0.500000 0.687500
vt 0.500000 0.625000
vt 0.562500 0.562500
vt 0.500000 0.625000
vt 0.562500 0.625000
vt 0.500000 0.687500
vt 0.562500 0.687500
vt 0.562500 0.750000
vt 0.562500 0.687500
vt 0.500000 0.750000
vt 0.500000 0.875000
vt 0.562500 0.812500
vt 0.562500 0.875000
vt 0.500000 0.750000
vt 0.562500 0.750000
vt 0.500000 0.812500
vt 0.562500 0.812500
vt 0.562500 0.750000
vt 0.500000 0.750000
vt 0.562500 0.750000
vt 0.562500 0.625000
vt 0.562500 0.687500
vt 0.562500 0.812500
vt 0.562500 0.687500
vt 0.500000 0.687500
vt 0.562500 0.625000
vt 0.500000 0.687500
vt 0.562500 0.562500
vt 0.500000 0.500000
vt 0.187500 0.500000
vt 0.187500 0.687500
vt 0.125000 0.687500
vt 0.125000 0.500000
vt 0.250000 0.500000
vt 0.250000 0.687500
vt 0.062500 0.500000
vt 0.062500 0.687500
vt 0.000000 0.687500
vt 0.000000 0.500000
vt 0.250000 0.625000
vt 0.312500 0.687500
vt 0.250000 0.687500
vt 0.250000 0.562500
vt 0.312500 0.625000
vt 0.250000 0.625000
vt 0.250000 0.500000
vt 0.312500 0.562500
vt 0.250000 0.562500
vt 0.312500 0.625000
vt 0.250000 0.625000
vn 0.0000 0.0000 1.0000
vn 1.0000 0.0000 0.0000
vn 0.0000 0.0000 -1.0000
vn 0.0000 -1.0000 0.0000
vn -1.0000 0.0000 0.0000
vn 0.7071 -0.7071 0.0000
vn -0.7071 -0.7071 0.0000
vn -0.7071 0.7071 -0.0000
vn 0.7071 0.7071 0.0000
vn 0.0000 1.0000 0.0000
vn 0.0000 -0.7071 0.7071
vn 0.0000 -0.7071 -0.7071
usemtl MAIN
s off
f 5/1/1 13/2/1 6/3/1 2/4/1
f 4/5/2 11/6/2 13/2/2 5/1/2
f 3/7/3 9/8/3 11/6/3 4/5/3
f 7/9/4 12/10/4 23/11/4 25/12/4
f 2/4/5 6/3/5 9/13/5 3/14/5
f 45/15/5 7/16/5 8/17/5 66/18/5
f 66/19/3 8/20/3 10/21/3 64/22/3
f 64/22/2 10/21/2 12/23/2 65/24/2
f 65/24/1 12/23/1 7/16/1 45/15/1
f 23/25/1 22/26/1 24/27/1 25/28/1
f 21/29/2 20/30/2 22/26/2 23/25/2
f 19/31/3 18/32/3 20/33/3 21/34/3
f 25/35/5 24/36/5 18/32/5 19/31/5
f 8/37/4 7/38/4 25/28/4 19/39/4
f 12/10/4 10/40/4 21/41/4 23/11/4
f 10/42/4 8/37/4 19/39/4 21/29/4
f 50/43/1 32/44/1 36/45/1 52/46/1
f 53/47/6 52/48/6 36/49/6 37/50/6
f 51/51/3 31/52/3 35/53/3 53/54/3
f 63/55/7 62/56/7 38/57/7 39/58/7
f 27/59/8 26/60/8 55/61/8 54/62/8
f 61/63/3 33/64/3 41/65/3 63/66/3
f 60/67/1 26/68/1 38/69/1 62/70/1
f 60/71/1 59/72/1 55/73/1 26/74/1
f 32/75/1 40/76/1 43/77/1 36/78/1
f 41/79/3 33/80/3 37/81/3 42/82/3
f 57/83/1 28/84/1 55/85/1 59/72/1
f 60/71/9 32/86/9 33/87/9 61/88/9
f 39/89/8 38/90/8 26/91/8 27/92/8
f 22/93/10 20/94/10 44/95/10
f 20/96/10 18/97/10 44/98/10
f 18/97/10 24/99/10 44/98/10
f 24/100/10 22/93/10 44/95/10
f 13/101/1 47/102/1 49/103/1 6/104/1
f 47/105/1 16/106/1 14/107/1 49/108/1
f 11/109/2 46/110/2 47/102/2 13/101/2
f 46/111/2 15/112/2 16/106/2 47/105/2
f 9/113/3 48/114/3 46/110/3 11/109/3
f 48/115/3 17/116/3 15/112/3 46/111/3
f 6/104/5 49/103/5 48/117/5 9/118/5
f 49/108/5 14/107/5 17/119/5 48/120/5
f 32/121/8 50/122/8 51/123/8 33/124/8
f 33/64/3 51/51/3 53/54/3 37/125/3
f 35/126/6 34/127/6 52/48/6 53/47/6
f 30/128/1 50/43/1 52/46/1 34/129/1
f 56/130/3 31/131/3 51/123/3 58/132/3
f 29/133/8 54/62/8 55/134/8 28/135/8
f 61/88/3 27/92/3 54/136/3 58/137/3
f 56/138/9 29/133/9 28/135/9 57/139/9
f 34/129/9 35/140/9 31/141/9 30/128/9
f 31/141/9 56/138/9 57/139/9 30/142/9
f 51/123/7 50/43/7 59/143/7 58/144/7
f 29/145/3 56/130/3 58/132/3 54/62/3
f 30/146/1 57/83/1 59/72/1 50/147/1
f 61/148/6 58/144/6 59/149/6 60/67/6
f 32/44/1 60/67/1 62/70/1 40/150/1
f 27/92/3 61/63/3 63/66/3 39/89/3
f 41/79/7 40/151/7 62/56/7 63/55/7
f 15/152/2 64/153/2 65/154/2 16/155/2
f 17/156/3 66/157/3 64/153/3 15/152/3
f 14/158/5 45/159/5 66/160/5 17/161/5
f 16/155/1 65/154/1 45/159/1 14/158/1
usemtl CHIMERITE
f 1/162/11 5/163/11 2/164/11
f 1/165/6 4/166/6 5/167/6
f 1/168/12 3/169/12 4/170/12
f 1/165/7 2/171/7 3/172/7
