# Blender v2.80 (sub 75) OBJ File: 'wands.blend'
# www.blender.org
mtllib wand_skull.mtl
o WAND_VAR4_Cube.035
v 0.312500 0.715668 0.373806
v 0.687500 0.715668 0.373806
v 0.312500 0.618611 0.736029
v 0.687500 0.618611 0.736029
v 0.312500 0.413816 0.292925
v 0.312500 0.474187 0.309102
v 0.312500 0.534557 0.325278
v 0.687500 0.534557 0.325278
v 0.687500 0.474187 0.309102
v 0.687500 0.413816 0.292925
v 0.687500 0.437500 0.687500
v 0.312500 0.437500 0.687500
v 0.687500 0.650964 0.615288
v 0.312500 0.650964 0.615288
v 0.312500 0.349112 0.534407
v 0.312500 0.409482 0.550583
v 0.312500 0.469852 0.566759
v 0.687500 0.349112 0.534407
v 0.687500 0.409482 0.550583
v 0.687500 0.469852 0.566759
v 0.500000 0.715668 0.373806
v 0.500000 0.618611 0.736029
v 0.500000 0.437500 0.687500
v 0.375000 0.413816 0.292925
v 0.437500 0.413816 0.292925
v 0.500000 0.413816 0.292925
v 0.562500 0.413816 0.292925
v 0.625000 0.413816 0.292925
v 0.375000 0.474187 0.309102
v 0.437500 0.474187 0.309102
v 0.500000 0.474187 0.309102
v 0.562500 0.474187 0.309102
v 0.625000 0.474187 0.309102
v 0.500000 0.534557 0.325278
v 0.500000 0.650964 0.615288
v 0.312500 0.172638 0.362493
v 0.687500 0.172638 0.362493
v 0.312500 0.254525 0.728443
v 0.687500 0.254525 0.728443
v 0.312500 0.233630 0.348845
v 0.312500 0.294621 0.335198
v 0.687500 0.233630 0.348845
v 0.687500 0.437500 0.687500
v 0.312500 0.437500 0.687500
v 0.312500 0.288221 0.592812
v 0.312500 0.410204 0.565517
v 0.687500 0.288221 0.592812
v 0.687500 0.410204 0.565517
v 0.500000 0.172638 0.362493
v 0.375000 0.233630 0.348845
v 0.437500 0.233630 0.348845
v 0.500000 0.233630 0.348845
v 0.562500 0.233630 0.348845
v 0.625000 0.233630 0.348845
v 0.375000 0.294621 0.335198
v 0.437500 0.294621 0.335198
v 0.500000 0.294621 0.335198
v 0.562500 0.294621 0.335198
v 0.625000 0.294621 0.335198
v 0.625000 0.186286 0.423485
v 0.500000 0.186286 0.423485
v 0.375000 0.186286 0.423485
v 0.625000 0.240877 0.667452
v 0.375000 0.240877 0.667452
v 0.375000 0.250000 0.375000
v 0.375000 0.500000 0.375000
v 0.625000 0.250000 0.375000
v 0.625000 0.500000 0.375000
v 0.375000 0.250000 0.625000
v 0.375000 0.500000 0.625000
v 0.625000 0.250000 0.625000
v 0.625000 0.500000 0.625000
v 0.500000 0.250000 0.375000
v 0.500000 0.500000 0.375000
v 0.500000 0.250000 0.625000
v 0.500000 0.500000 0.625000
v 0.625000 0.250000 0.500000
v 0.625000 0.500000 0.500000
v 0.375000 0.250000 0.500000
v 0.375000 0.500000 0.500000
v 0.500000 0.500000 0.500000
v 0.500000 0.250000 0.500000
v 0.375000 0.375000 0.375000
v 0.625000 0.375000 0.375000
v 0.625000 0.375000 0.625000
v 0.375000 0.375000 0.625000
v 0.500000 0.375000 0.625000
v 0.500000 0.375000 0.375000
v 0.375000 0.375000 0.500000
v 0.625000 0.375000 0.500000
v 0.312500 0.715668 0.373806
v 0.687500 0.715668 0.373806
v 0.312500 0.618611 0.736029
v 0.687500 0.618611 0.736029
v 0.312500 0.413816 0.292925
v 0.312500 0.474187 0.309102
v 0.312500 0.534557 0.325278
v 0.687500 0.534557 0.325278
v 0.687500 0.474187 0.309102
v 0.687500 0.413816 0.292925
v 0.687500 0.437500 0.687500
v 0.312500 0.437500 0.687500
v 0.687500 0.650964 0.615288
v 0.312500 0.650964 0.615288
v 0.312500 0.349112 0.534407
v 0.312500 0.409482 0.550583
v 0.312500 0.469852 0.566759
v 0.687500 0.349112 0.534407
v 0.687500 0.409482 0.550583
v 0.687500 0.469852 0.566759
v 0.500000 0.715668 0.373806
v 0.500000 0.618611 0.736029
v 0.500000 0.437500 0.687500
v 0.375000 0.413816 0.292925
v 0.437500 0.413816 0.292925
v 0.500000 0.413816 0.292925
v 0.562500 0.413816 0.292925
v 0.625000 0.413816 0.292925
v 0.375000 0.474187 0.309102
v 0.437500 0.474187 0.309102
v 0.500000 0.474187 0.309102
v 0.562500 0.474187 0.309102
v 0.625000 0.474187 0.309102
v 0.500000 0.534557 0.325278
v 0.500000 0.650964 0.615288
v 0.312500 0.172638 0.362493
v 0.687500 0.172638 0.362493
v 0.312500 0.254525 0.728443
v 0.687500 0.254525 0.728443
v 0.312500 0.233630 0.348845
v 0.312500 0.294621 0.335198
v 0.687500 0.233630 0.348845
v 0.687500 0.437500 0.687500
v 0.312500 0.437500 0.687500
v 0.312500 0.288221 0.592812
v 0.312500 0.410204 0.565517
v 0.687500 0.288221 0.592812
v 0.687500 0.410204 0.565517
v 0.500000 0.172638 0.362493
v 0.375000 0.233630 0.348845
v 0.437500 0.233630 0.348845
v 0.500000 0.233630 0.348845
v 0.562500 0.233630 0.348845
v 0.625000 0.233630 0.348845
v 0.375000 0.294621 0.335198
v 0.437500 0.294621 0.335198
v 0.500000 0.294621 0.335198
v 0.562500 0.294621 0.335198
v 0.625000 0.294621 0.335198
v 0.625000 0.186286 0.423485
v 0.500000 0.186286 0.423485
v 0.375000 0.186286 0.423485
v 0.625000 0.240877 0.667452
v 0.375000 0.240877 0.667452
vt 0.250000 0.812500
vt 0.250000 0.687500
vt 0.375000 0.687500
vt 0.375000 0.812500
vt 0.250000 0.687500
vt 0.375000 0.687500
vt 0.375000 0.812500
vt 0.250000 0.812500
vt 0.250000 0.812500
vt 0.250000 0.687500
vt 0.375000 0.687500
vt 0.375000 0.812500
vt 0.250000 0.812500
vt 0.250000 0.687500
vt 0.375000 0.687500
vt 0.375000 0.812500
vt 0.250000 0.812500
vt 0.250000 0.687500
vt 0.375000 0.687500
vt 0.375000 0.812500
vt 0.250000 0.812500
vt 0.375000 0.812500
vt 0.375000 0.812500
vt 0.375000 0.812500
vt 0.375000 0.687500
vt 0.375000 0.812500
vt 0.375000 0.687500
vt 0.375000 0.687500
vt 0.250000 0.687500
vt 0.375000 0.687500
vt 0.250000 0.812500
vt 0.375000 0.812500
vt 0.375000 0.812500
vt 0.375000 0.687500
vt 0.250000 0.687500
vt 0.375000 0.812500
vt 0.000000 1.000000
vt 0.000000 0.812500
vt 0.187500 0.812500
vt 0.187500 1.000000
vt 0.812500 1.000000
vt 0.687500 1.000000
vt 0.687500 0.812500
vt 0.812500 0.812500
vt 0.062500 0.687500
vt 0.062500 0.750000
vt 0.000000 0.750000
vt 0.000000 0.687500
vt 0.437500 0.812500
vt 0.687500 0.812500
vt 0.687500 0.750000
vt 0.437500 0.750000
vt 0.687500 0.687500
vt 0.437500 0.687500
vt 0.187500 0.312500
vt 0.187500 0.187500
vt 0.375000 0.187500
vt 0.375000 0.312500
vt 0.437500 0.812500
vt 0.437500 0.750000
vt 0.687500 0.750000
vt 0.437500 0.687500
vt 0.687500 0.687500
vt 0.437500 1.000000
vt 0.437500 1.000000
vt 0.687500 1.000000
vt 0.000000 0.312500
vt 0.000000 0.187500
vt 0.375000 0.812500
vt 0.375000 1.000000
vt 0.250000 0.750000
vt 0.312500 0.750000
vt 0.125000 0.750000
vt 0.187500 0.562500
vt 0.187500 0.375000
vt 0.375000 0.375000
vt 0.375000 0.562500
vt 0.187500 0.750000
vt 0.312500 0.687500
vt 0.250000 0.687500
vt 0.187500 0.687500
vt 0.125000 0.687500
vt 0.187500 0.562500
vt 0.000000 0.562500
vt 0.375000 0.750000
vt 0.000000 0.562500
vt 0.000000 0.375000
vt 0.375000 0.562500
vt 0.812500 1.000000
vt 0.812500 0.812500
vt 0.437500 0.187500
vt 0.812500 0.187500
vt 0.750000 0.250000
vt 0.500000 0.250000
vt 0.062500 0.687500
vt 0.000000 0.687500
vt 0.000000 0.625000
vt 0.687500 0.687500
vt 0.437500 0.687500
vt 0.437500 0.625000
vt 0.812500 0.625000
vt 0.312500 0.687500
vt 0.250000 0.687500
vt 0.187500 0.625000
vt 0.375000 0.625000
vt 0.812500 0.812500
vt 0.687500 0.812500
vt 0.125000 0.687500
vt 0.500000 0.500000
vt 0.750000 0.500000
vt 0.812500 0.562500
vt 0.437500 0.562500
vt 0.500000 0.375000
vt 0.437500 0.375000
vt 0.375000 0.687500
vt 0.375000 0.750000
vt 0.312500 0.750000
vt 0.250000 0.750000
vt 0.187500 0.750000
vt 0.187500 0.687500
vt 0.125000 0.750000
vt 0.062500 0.750000
vt 0.437500 0.687500
vt 0.687500 0.687500
vt 0.812500 0.625000
vt 0.437500 0.625000
vt 0.000000 0.187500
vt 0.375000 0.187500
vt 0.375000 0.375000
vt 0.000000 0.375000
vt 0.687500 0.812500
vt 0.812500 0.812500
vt 0.000000 1.000000
vt 0.187500 1.000000
vt 0.187500 0.812500
vt 0.000000 0.812500
vt 0.812500 1.000000
vt 0.812500 0.812500
vt 0.687500 0.812500
vt 0.687500 1.000000
vt 0.062500 0.687500
vt 0.000000 0.687500
vt 0.000000 0.750000
vt 0.062500 0.750000
vt 0.437500 0.812500
vt 0.437500 0.750000
vt 0.687500 0.750000
vt 0.687500 0.812500
vt 0.437500 0.687500
vt 0.687500 0.687500
vt 0.187500 0.312500
vt 0.375000 0.312500
vt 0.375000 0.187500
vt 0.187500 0.187500
vt 0.687500 0.750000
vt 0.437500 0.750000
vt 0.437500 0.812500
vt 0.687500 0.687500
vt 0.437500 0.687500
vt 0.437500 1.000000
vt 0.437500 1.000000
vt 0.687500 1.000000
vt 0.000000 0.187500
vt 0.000000 0.312500
vt 0.375000 1.000000
vt 0.375000 0.812500
vt 0.312500 0.750000
vt 0.250000 0.750000
vt 0.125000 0.750000
vt 0.187500 0.562500
vt 0.375000 0.562500
vt 0.375000 0.375000
vt 0.187500 0.375000
vt 0.187500 0.750000
vt 0.312500 0.687500
vt 0.250000 0.687500
vt 0.187500 0.687500
vt 0.125000 0.687500
vt 0.000000 0.562500
vt 0.187500 0.562500
vt 0.375000 0.750000
vt 0.000000 0.562500
vt 0.000000 0.375000
vt 0.375000 0.562500
vt 0.812500 0.812500
vt 0.812500 1.000000
vt 0.437500 0.187500
vt 0.500000 0.250000
vt 0.750000 0.250000
vt 0.812500 0.187500
vt 0.062500 0.687500
vt 0.000000 0.625000
vt 0.000000 0.687500
vt 0.687500 0.687500
vt 0.812500 0.625000
vt 0.437500 0.625000
vt 0.437500 0.687500
vt 0.312500 0.687500
vt 0.375000 0.625000
vt 0.187500 0.625000
vt 0.250000 0.687500
vt 0.687500 0.812500
vt 0.812500 0.812500
vt 0.125000 0.687500
vt 0.500000 0.500000
vt 0.437500 0.562500
vt 0.812500 0.562500
vt 0.750000 0.500000
vt 0.437500 0.375000
vt 0.500000 0.375000
vt 0.375000 0.687500
vt 0.312500 0.750000
vt 0.375000 0.750000
vt 0.187500 0.687500
vt 0.187500 0.750000
vt 0.250000 0.750000
vt 0.062500 0.750000
vt 0.125000 0.750000
vt 0.437500 0.687500
vt 0.437500 0.625000
vt 0.812500 0.625000
vt 0.687500 0.687500
vt 0.000000 0.187500
vt 0.000000 0.375000
vt 0.375000 0.375000
vt 0.375000 0.187500
vt 0.812500 0.812500
vt 0.687500 0.812500
vn 0.0000 0.0000 -1.0000
vn 1.0000 0.0000 0.0000
vn 0.0000 0.0000 1.0000
vn -1.0000 0.0000 0.0000
vn 0.0000 -1.0000 0.0000
vn 0.0000 1.0000 0.0000
vn 0.0000 0.2588 -0.9659
vn 0.0000 0.9659 0.2588
vn 0.0000 -0.2588 0.9659
vn 0.0000 -0.9759 0.2184
vn 0.0000 -0.2184 -0.9759
vn -0.0000 0.2184 0.9759
vn 0.0000 -0.9659 -0.2588
vn -0.0000 0.9759 -0.2184
usemtl MAIN
s off
f 88/1/1 74/2/1 68/3/1 84/4/1
f 90/5/2 78/6/2 72/7/2 85/8/2
f 87/9/3 76/10/3 70/11/3 86/12/3
f 89/13/4 80/14/4 66/15/4 83/16/4
f 82/17/5 75/18/5 69/19/5 79/20/5
f 81/21/6 74/2/6 66/15/6 80/22/6
f 78/23/6 68/3/6 74/2/6 81/21/6
f 77/24/5 71/25/5 75/18/5 82/17/5
f 85/26/3 72/27/3 76/10/3 87/9/3
f 83/16/1 66/15/1 74/2/1 88/1/1
f 67/28/5 77/24/5 82/17/5 73/29/5
f 72/27/6 78/23/6 81/21/6 76/10/6
f 76/10/6 81/21/6 80/22/6 70/11/6
f 73/29/5 82/17/5 79/20/5 65/30/5
f 86/12/4 70/11/4 80/14/4 89/13/4
f 84/31/2 68/32/2 78/6/2 90/5/2
f 67/33/2 84/31/2 90/5/2 77/34/2
f 69/19/4 86/12/4 89/13/4 79/35/4
f 65/30/1 83/16/1 88/1/1 73/29/1
f 71/25/3 85/26/3 87/9/3 75/18/3
f 79/35/4 89/13/4 83/16/4 65/30/4
f 75/18/3 87/9/3 86/12/3 69/19/3
f 77/34/2 90/5/2 85/8/2 71/36/2
f 73/29/1 88/1/1 84/4/1 67/28/1
usemtl SKULL
f 2/37/7 8/38/7 34/39/7 21/40/7
f 3/41/4 14/42/4 17/43/4 12/44/4
f 28/45/7 33/46/7 9/47/7 10/48/7
f 8/49/2 20/50/2 19/51/2 9/52/2
f 9/52/2 19/51/2 18/53/2 10/54/2
f 35/55/8 22/56/8 4/57/8 13/58/8
f 17/43/4 7/59/4 6/60/4 16/61/4
f 16/61/4 6/60/4 5/62/4 15/63/4
f 14/42/4 1/64/4 7/59/4 17/43/4
f 2/65/2 13/66/2 20/50/2 8/49/2
f 35/55/8 14/67/8 3/68/8 22/56/8
f 21/40/7 34/39/7 7/69/7 1/70/7
f 7/69/7 34/39/7 30/71/7 29/72/7
f 34/39/7 8/38/7 33/46/7 32/73/7
f 22/74/9 23/75/9 11/76/9 4/77/9
f 31/78/7 30/71/7 34/39/7
f 24/79/7 29/72/7 30/71/7 25/80/7
f 9/47/7 33/46/7 8/38/7
f 26/81/7 31/78/7 32/73/7 27/82/7
f 31/78/7 34/39/7 32/73/7
f 14/67/8 35/55/8 21/83/8 1/84/8
f 6/85/7 7/69/7 29/72/7
f 3/86/9 12/87/9 23/75/9 22/74/9
f 21/83/8 35/55/8 13/58/8 2/88/8
f 20/50/2 13/66/2 4/89/2 11/90/2
f 37/91/10 39/92/10 63/93/10 60/94/10
f 54/95/11 42/96/11 37/97/11
f 45/98/4 40/99/4 36/100/4 38/101/4
f 50/102/11 51/103/11 49/104/11 36/105/11
f 45/98/4 38/101/4 44/106/4 46/107/4
f 53/108/11 54/95/11 37/97/11 49/104/11
f 62/109/10 64/110/10 38/111/10 36/112/10
f 37/91/10 60/94/10 61/113/10 49/114/10
f 61/113/10 62/109/10 36/112/10 49/114/10
f 40/115/11 41/116/11 55/117/11 50/102/11
f 51/103/11 56/118/11 57/119/11 52/120/11
f 53/108/11 58/121/11 59/122/11 54/95/11
f 36/105/11 40/115/11 50/102/11
f 51/103/11 52/120/11 49/104/11
f 49/104/11 52/120/11 53/108/11
f 42/123/2 47/124/2 39/125/2 37/126/2
f 38/127/12 39/128/12 43/129/12 44/130/12
f 39/125/2 47/124/2 48/131/2 43/132/2
f 39/92/10 38/111/10 64/110/10 63/93/10
f 92/133/9 111/134/9 124/135/9 98/136/9
f 93/137/2 102/138/2 107/139/2 104/140/2
f 118/141/9 100/142/9 99/143/9 123/144/9
f 98/145/4 99/146/4 109/147/4 110/148/4
f 99/146/4 100/149/4 108/150/4 109/147/4
f 125/151/13 103/152/13 94/153/13 112/154/13
f 107/139/2 106/155/2 96/156/2 97/157/2
f 106/155/2 105/158/2 95/159/2 96/156/2
f 104/140/2 107/139/2 97/157/2 91/160/2
f 92/161/4 98/145/4 110/148/4 103/162/4
f 125/151/13 112/154/13 93/163/13 104/164/13
f 111/134/9 91/165/9 97/166/9 124/135/9
f 97/166/9 119/167/9 120/168/9 124/135/9
f 124/135/9 122/169/9 123/144/9 98/136/9
f 112/170/7 94/171/7 101/172/7 113/173/7
f 121/174/9 124/135/9 120/168/9
f 114/175/9 115/176/9 120/168/9 119/167/9
f 99/143/9 98/136/9 123/144/9
f 116/177/9 117/178/9 122/169/9 121/174/9
f 121/174/9 122/169/9 124/135/9
f 104/164/13 91/179/13 111/180/13 125/151/13
f 96/181/9 119/167/9 97/166/9
f 93/182/7 112/170/7 113/173/7 102/183/7
f 111/180/13 92/184/13 103/152/13 125/151/13
f 110/148/4 101/185/4 94/186/4 103/162/4
f 127/187/14 150/188/14 153/189/14 129/190/14
f 144/191/12 127/192/12 132/193/12
f 135/194/2 128/195/2 126/196/2 130/197/2
f 140/198/12 126/199/12 139/200/12 141/201/12
f 135/194/2 136/202/2 134/203/2 128/195/2
f 143/204/12 139/200/12 127/192/12 144/191/12
f 152/205/14 126/206/14 128/207/14 154/208/14
f 127/187/14 139/209/14 151/210/14 150/188/14
f 151/210/14 139/209/14 126/206/14 152/205/14
f 130/211/12 140/198/12 145/212/12 131/213/12
f 141/201/12 142/214/12 147/215/12 146/216/12
f 143/204/12 144/191/12 149/217/12 148/218/12
f 126/199/12 140/198/12 130/211/12
f 141/201/12 139/200/12 142/214/12
f 139/200/12 143/204/12 142/214/12
f 132/219/4 127/220/4 129/221/4 137/222/4
f 128/223/11 134/224/11 133/225/11 129/226/11
f 129/221/4 133/227/4 138/228/4 137/222/4
f 129/190/14 153/189/14 154/208/14 128/207/14
