# Blender v2.80 (sub 75) OBJ File: 'wands.blend'
# www.blender.org
mtllib wand_cerublossom.mtl
o WAND_VAR18_Cube.052
v 0.500000 0.031250 0.500000
v 0.468750 0.812500 0.468750
v 0.531250 0.812500 0.531250
v 0.468750 0.062500 0.468750
v 0.531250 0.062500 0.468750
v 0.531250 0.062500 0.531250
v 0.468750 0.062500 0.531250
v 0.468750 0.125000 0.468750
v 0.468750 0.687500 0.468750
v 0.468750 0.750000 0.468750
v 0.531250 0.750000 0.468750
v 0.531250 0.687500 0.468750
v 0.531250 0.125000 0.468750
v 0.531250 0.750000 0.531250
v 0.531250 0.687500 0.531250
v 0.531250 0.125000 0.531250
v 0.468750 0.750000 0.531250
v 0.468750 0.687500 0.531250
v 0.468750 0.125000 0.531250
v 0.531250 0.625000 0.468750
v 0.468750 0.625000 0.468750
v 0.531250 0.625000 0.531250
v 0.468750 0.625000 0.531250
v 0.531250 0.812500 0.468750
v 0.468750 0.812500 0.531250
v 0.562500 0.875000 0.437500
v 0.562500 0.875000 0.562500
v 0.437500 0.875000 0.562500
v 0.437500 0.875000 0.437500
v 0.466175 0.960938 0.418340
v 0.418340 0.960938 0.533825
v 0.509907 0.960938 0.639403
v 0.533825 0.960938 0.581660
v 0.581660 0.960938 0.466175
v 0.591567 0.960938 0.605578
v 0.567649 0.960938 0.663320
v 0.408433 0.960938 0.394422
v 0.360597 0.960938 0.509907
v 0.639403 0.960938 0.490093
v 0.605578 0.960938 0.408433
v 0.490093 0.960938 0.360597
v 0.432351 0.960938 0.336680
v 0.663320 0.960938 0.432351
v 0.394422 0.960938 0.591567
v 0.336680 0.960938 0.567649
v 0.466175 0.976562 0.418340
v 0.418340 0.976562 0.533825
v 0.509907 0.976562 0.639403
v 0.533825 0.976562 0.581660
v 0.581660 0.976562 0.466175
v 0.591567 0.976562 0.605578
v 0.567649 0.976562 0.663320
v 0.408433 0.976562 0.394422
v 0.360597 0.976562 0.509907
v 0.639403 0.976562 0.490093
v 0.605578 0.976562 0.408433
v 0.490093 0.976562 0.360597
v 0.432351 0.976562 0.336680
v 0.663320 0.976562 0.432351
v 0.394422 0.976562 0.591567
v 0.336680 0.976562 0.567649
v 0.500000 0.906250 0.500000
v 0.500000 1.031250 0.500000
v 0.455806 1.000000 0.500000
v 0.500000 1.000000 0.455806
v 0.544194 1.000000 0.500000
v 0.500000 1.000000 0.544194
v 0.500000 0.937500 0.455806
v 0.455806 0.937500 0.500000
v 0.544194 0.937500 0.500000
v 0.500000 0.937500 0.544194
v 0.375000 1.039062 0.625000
v 0.437500 1.039062 0.625000
v 0.625000 1.039062 0.375000
v 0.375000 1.039062 0.375000
v 0.437500 1.039062 0.375000
v 0.562500 1.039062 0.375000
v 0.625000 1.039062 0.437500
v 0.375000 1.039062 0.562500
v 0.375000 1.039062 0.437500
v 0.625000 1.039062 0.625000
v 0.625000 1.039062 0.562500
v 0.562500 1.039062 0.437500
v 0.562500 1.039062 0.562500
v 0.562500 1.039062 0.625000
v 0.437500 1.039062 0.562500
v 0.437500 1.039062 0.437500
v 0.375000 1.023438 0.625000
v 0.437500 1.023438 0.625000
v 0.625000 1.023438 0.375000
v 0.375000 1.023438 0.375000
v 0.437500 1.023438 0.375000
v 0.562500 1.023438 0.375000
v 0.625000 1.023438 0.437500
v 0.375000 1.023438 0.562500
v 0.375000 1.023438 0.437500
v 0.625000 1.023438 0.625000
v 0.625000 1.023438 0.562500
v 0.562500 1.023438 0.437500
v 0.562500 1.023438 0.562500
v 0.562500 1.023438 0.625000
v 0.437500 1.023438 0.562500
v 0.437500 1.023438 0.437500
v 0.500000 0.898438 0.411612
v 0.411612 0.898438 0.500000
v 0.455806 0.898438 0.632583
v 0.500000 0.898438 0.588388
v 0.588388 0.898438 0.500000
v 0.544194 0.898438 0.632583
v 0.500000 0.898438 0.676777
v 0.455806 0.898438 0.367417
v 0.367417 0.898438 0.455806
v 0.632583 0.898438 0.544194
v 0.632583 0.898438 0.455806
v 0.544194 0.898438 0.367417
v 0.500000 0.898438 0.323223
v 0.676777 0.898438 0.500000
v 0.367417 0.898438 0.544194
v 0.323223 0.898438 0.500000
v 0.500000 0.914062 0.411612
v 0.411612 0.914062 0.500000
v 0.455806 0.914062 0.632583
v 0.500000 0.914062 0.588388
v 0.588388 0.914062 0.500000
v 0.544194 0.914062 0.632583
v 0.500000 0.914062 0.676777
v 0.455806 0.914062 0.367417
v 0.367417 0.914062 0.455806
v 0.632583 0.914062 0.544194
v 0.632583 0.914062 0.455806
v 0.544194 0.914062 0.367417
v 0.500000 0.914062 0.323223
v 0.676777 0.914062 0.500000
v 0.367417 0.914062 0.544194
v 0.323223 0.914062 0.500000
vt 0.062500 0.812500
vt 0.062500 0.875000
vt 0.000000 0.875000
vt 0.000000 0.812500
vt 0.250000 0.812500
vt 0.250000 0.875000
vt 0.187500 0.875000
vt 0.187500 0.812500
vt 0.125000 0.875000
vt 0.125000 0.812500
vt 0.375000 0.812500
vt 0.375000 0.875000
vt 0.312500 0.875000
vt 0.312500 0.812500
vt 0.125000 0.500000
vt 0.125000 0.562500
vt 0.062500 0.562500
vt 0.062500 0.500000
vt 0.375000 0.812500
vt 0.375000 0.875000
vt 0.312500 0.875000
vt 0.312500 0.812500
vt 0.437500 0.812500
vt 0.437500 0.875000
vt 0.187500 0.500000
vt 0.187500 0.562500
vt 0.437500 0.812500
vt 0.437500 0.875000
vt 0.500000 0.812500
vt 0.500000 0.875000
vt 0.250000 0.500000
vt 0.250000 0.562500
vt 0.500000 0.812500
vt 0.500000 0.875000
vt 0.250000 0.875000
vt 0.250000 0.812500
vt 0.000000 0.562500
vt 0.000000 0.500000
vt 0.250000 0.875000
vt 0.250000 0.812500
vt 0.187500 0.500000
vt 0.187500 1.000000
vt 0.125000 1.000000
vt 0.125000 0.500000
vt 0.062500 1.000000
vt 0.062500 0.500000
vt 0.000000 1.000000
vt 0.000000 0.500000
vt 0.250000 0.500000
vt 0.250000 1.000000
vt 0.312500 0.687500
vt 0.312500 0.562500
vt 0.437500 0.562500
vt 0.437500 0.687500
vt 0.312500 0.531249
vt 0.312500 0.593750
vt 0.375000 0.625000
vt 0.375000 0.500000
vt 0.437500 0.531249
vt 0.437500 0.593750
vt 0.500000 0.625000
vt 0.500000 0.500000
vt 0.312500 0.531250
vt 0.375000 0.500000
vt 0.437500 0.593751
vt 0.500000 0.625000
vt 0.375000 0.187500
vt 0.312500 0.187500
vt 0.312500 0.250000
vt 0.375000 0.250000
vt 0.187500 0.250000
vt 0.312500 0.250000
vt 0.312500 0.187500
vt 0.187500 0.187500
vt 0.312500 0.187500
vt 0.187500 0.187500
vt 0.187500 0.250000
vt 0.312500 0.250000
vt 0.375000 0.250000
vt 0.375000 0.187500
vt 0.312500 0.187500
vt 0.187500 0.187500
vt 0.187500 0.250000
vt 0.312500 0.250000
vt 0.187500 0.187500
vt 0.125000 0.187500
vt 0.125000 0.250000
vt 0.187500 0.250000
vt 0.187500 0.250000
vt 0.312500 0.250000
vt 0.312500 0.187500
vt 0.187500 0.187500
vt 0.125000 0.250000
vt 0.125000 0.187500
vt 0.375000 0.187500
vt 0.375000 0.250000
vt 0.312500 0.250000
vt 0.375000 0.250000
vt 0.312500 0.250000
vt 0.187500 0.250000
vt 0.125000 0.250000
vt 0.125000 0.187500
vt 0.187500 0.250000
vt 0.312500 0.250000
vt 0.312500 0.187500
vt 0.125000 0.250000
vt 0.187500 0.250000
vt 0.187500 0.187500
vt 0.312500 0.250000
vt 0.187500 0.250000
vt 0.312500 0.250000
vt 0.187500 0.250000
vt 0.312500 0.250000
vt 0.187500 0.250000
vt 0.375000 0.187500
vt 0.375000 0.250000
vt 0.312500 0.250000
vt 0.312500 0.187500
vt 0.187500 0.187500
vt 0.312500 0.187500
vt 0.312500 0.187500
vt 0.187500 0.187500
vt 0.375000 0.187500
vt 0.375000 0.250000
vt 0.312500 0.187500
vt 0.187500 0.187500
vt 0.187500 0.187500
vt 0.187500 0.250000
vt 0.125000 0.250000
vt 0.125000 0.187500
vt 0.187500 0.187500
vt 0.312500 0.187500
vt 0.125000 0.250000
vt 0.125000 0.187500
vt 0.187500 -0.000000
vt 0.250000 -0.000000
vt 0.250000 0.125000
vt 0.187500 0.125000
vt 0.187500 -0.000000
vt 0.250000 -0.000000
vt 0.250000 0.125000
vt 0.187500 0.125000
vt 0.187500 -0.000000
vt 0.250000 -0.000000
vt 0.250000 0.125000
vt 0.187500 0.125000
vt 0.187500 -0.000000
vt 0.250000 -0.000000
vt 0.250000 0.125000
vt 0.187500 0.125000
vt 0.312500 0.093750
vt 0.125000 0.031250
vt 0.312500 0.250000
vt 0.312500 0.312500
vt 0.375000 0.312500
vt 0.375000 0.250000
vt 0.125000 0.312500
vt 0.125000 0.250000
vt 0.187500 0.250000
vt 0.187500 0.312500
vt 0.187500 0.312500
vt 0.187500 0.250000
vt 0.312500 0.250000
vt 0.312500 0.312500
vt 0.187500 0.250000
vt 0.187500 0.312500
vt 0.125000 0.312500
vt 0.125000 0.250000
vt 0.312500 0.250000
vt 0.187500 0.312500
vt 0.187500 0.250000
vt 0.312500 0.312500
vt 0.312500 0.250000
vt 0.375000 0.250000
vt 0.375000 0.312500
vt 0.312500 0.250000
vt 0.312500 0.312500
vt 0.187500 0.312500
vt 0.187500 0.250000
vt 0.375000 0.250000
vt 0.375000 0.312500
vt 0.312500 0.312500
vt 0.312500 0.250000
vt 0.187500 0.250000
vt 0.187500 0.312500
vt 0.125000 0.312500
vt 0.125000 0.250000
vt 0.187500 0.250000
vt 0.312500 0.250000
vt 0.312500 0.250000
vt 0.312500 0.312500
vt 0.187500 0.250000
vt 0.312500 0.250000
vt 0.187500 0.250000
vt 0.312500 0.250000
vt 0.312500 0.312500
vt 0.187500 0.312500
vt 0.187500 0.250000
vt 0.312500 0.250000
vt 0.125000 0.250000
vt 0.125000 0.312500
vt 0.187500 0.250000
vt 0.375000 0.312500
vt 0.375000 0.250000
vt 0.125000 0.312500
vt 0.187500 0.312500
vt 0.187500 0.312500
vt 0.312500 0.312500
vt 0.125000 0.250000
vt 0.125000 0.312500
vt 0.187500 0.312500
vt 0.187500 0.312500
vt 0.312500 0.312500
vt 0.312500 0.312500
vt 0.375000 0.312500
vt 0.187500 0.312500
vt 0.312500 0.312500
vt 0.375000 0.250000
vt 0.312500 0.312500
vt 0.375000 0.312500
vt 0.375000 0.125000
vt 0.312500 0.125000
vt 0.312500 0.187500
vt 0.375000 0.187500
vt 0.187500 0.187500
vt 0.312500 0.187500
vt 0.312500 0.125000
vt 0.187500 0.125000
vt 0.312500 0.125000
vt 0.187500 0.125000
vt 0.187500 0.187500
vt 0.312500 0.187500
vt 0.375000 0.187500
vt 0.375000 0.125000
vt 0.312500 0.125000
vt 0.187500 0.125000
vt 0.187500 0.187500
vt 0.312500 0.187500
vt 0.187500 0.125000
vt 0.125000 0.125000
vt 0.125000 0.187500
vt 0.187500 0.187500
vt 0.187500 0.187500
vt 0.312500 0.187500
vt 0.312500 0.125000
vt 0.187500 0.125000
vt 0.125000 0.187500
vt 0.125000 0.125000
vt 0.375000 0.125000
vt 0.375000 0.187500
vt 0.312500 0.187500
vt 0.375000 0.187500
vt 0.312500 0.187500
vt 0.187500 0.187500
vt 0.125000 0.187500
vt 0.125000 0.125000
vt 0.187500 0.187500
vt 0.312500 0.187500
vt 0.312500 0.125000
vt 0.125000 0.187500
vt 0.187500 0.187500
vt 0.187500 0.125000
vt 0.312500 0.187500
vt 0.187500 0.187500
vt 0.312500 0.187500
vt 0.187500 0.187500
vt 0.312500 0.187500
vt 0.187500 0.187500
vt 0.375000 0.125000
vt 0.375000 0.187500
vt 0.312500 0.187500
vt 0.312500 0.125000
vt 0.187500 0.125000
vt 0.312500 0.125000
vt 0.312500 0.125000
vt 0.187500 0.125000
vt 0.375000 0.125000
vt 0.375000 0.187500
vt 0.312500 0.125000
vt 0.187500 0.125000
vt 0.187500 0.125000
vt 0.187500 0.187500
vt 0.125000 0.187500
vt 0.125000 0.125000
vt 0.187500 0.125000
vt 0.312500 0.125000
vt 0.125000 0.187500
vt 0.125000 0.125000
vt 0.437500 0.562500
vt 0.500000 0.625000
vt 0.437500 0.625000
vt 0.250001 0.375000
vt 0.312500 0.437500
vt 0.250000 0.437500
vt 0.312501 0.125000
vt 0.375000 0.187500
vt 0.312500 0.187500
vt 0.312500 0.437500
vt 0.250000 0.437500
vn 0.0000 0.0000 -1.0000
vn 1.0000 0.0000 0.0000
vn 0.0000 0.0000 1.0000
vn -1.0000 0.0000 0.0000
vn 0.0000 1.0000 0.0000
vn -0.8944 -0.4472 0.0000
vn 0.0000 -0.4472 -0.8944
vn 0.0000 -0.4472 0.8944
vn 0.8944 -0.4472 0.0000
vn 0.0000 -1.0000 -0.0000
vn 0.3827 0.0000 -0.9239
vn -0.3827 0.0000 0.9239
vn 0.9239 0.0000 0.3827
vn -0.9239 0.0000 -0.3827
vn -0.7071 0.0000 -0.7071
vn 0.7071 0.0000 -0.7071
vn 0.7071 0.0000 0.7071
vn -0.7071 0.0000 0.7071
vn -0.5000 0.7071 -0.5000
vn 0.5000 0.7071 -0.5000
vn 0.5000 0.7071 0.5000
vn -0.5000 0.7071 0.5000
vn -0.5000 -0.7071 -0.5000
vn 0.5000 -0.7071 -0.5000
vn 0.5000 -0.7071 0.5000
vn -0.5000 -0.7071 0.5000
vn -0.7071 -0.7071 0.0000
vn 0.0000 -0.7071 0.7071
vn 0.7071 -0.7071 0.0000
vn 0.0000 -0.7071 -0.7071
usemtl MAIN
s off
f 10/1/1 2/2/1 24/3/1 11/4/1
f 11/5/2 24/6/2 3/7/2 14/8/2
f 14/8/3 3/7/3 25/9/3 17/10/3
f 17/10/4 25/9/4 2/2/4 10/1/4
f 7/11/4 19/12/4 8/13/4 4/14/4
f 23/15/4 18/16/4 9/17/4 21/18/4
f 18/19/4 17/20/4 10/21/4 9/22/4
f 6/23/3 16/24/3 19/12/3 7/11/3
f 22/25/3 15/26/3 18/16/3 23/15/3
f 15/27/3 14/28/3 17/20/3 18/19/3
f 5/29/2 13/30/2 16/24/2 6/23/2
f 20/31/2 12/32/2 15/26/2 22/25/2
f 12/33/2 11/34/2 14/28/2 15/27/2
f 4/14/1 8/13/1 13/35/1 5/36/1
f 21/18/1 9/17/1 12/37/1 20/38/1
f 9/22/1 10/21/1 11/39/1 12/40/1
f 8/41/1 21/42/1 20/43/1 13/44/1
f 13/44/2 20/43/2 22/45/2 16/46/2
f 16/46/3 22/45/3 23/47/3 19/48/3
f 19/49/4 23/50/4 21/42/4 8/41/4
f 28/51/5 27/52/5 26/53/5 29/54/5
f 2/55/6 25/56/6 28/57/6 29/58/6
f 24/59/7 2/60/7 29/61/7 26/62/7
f 25/56/8 3/63/8 27/64/8 28/57/8
f 3/65/9 24/59/9 26/62/9 27/66/9
f 30/67/10 37/68/10 42/69/10 41/70/10
f 31/71/10 33/72/10 32/73/10 44/74/10
f 30/75/10 31/76/10 38/77/10 37/78/10
f 33/72/10 35/79/10 36/80/10 32/73/10
f 33/81/10 34/82/10 39/83/10 35/84/10
f 39/85/10 34/86/10 40/87/10 43/88/10
f 34/89/10 30/90/10 41/91/10 40/92/10
f 38/93/10 31/71/10 44/74/10 45/94/10
f 42/95/11 58/96/11 57/97/11 41/91/11
f 36/80/12 52/98/12 48/99/12 32/73/12
f 40/92/11 56/100/11 59/101/11 43/102/11
f 39/85/13 55/103/13 51/104/13 35/105/13
f 45/94/14 61/106/14 54/107/14 38/108/14
f 37/68/14 53/109/14 58/96/14 42/95/14
f 34/82/12 50/110/12 46/111/12 30/75/12
f 43/102/13 59/101/13 55/103/13 39/85/13
f 30/75/13 46/111/13 47/112/13 31/76/13
f 41/91/11 57/97/11 56/100/11 40/92/11
f 33/81/14 49/113/14 50/110/14 34/82/14
f 31/76/11 47/112/11 49/113/11 33/81/11
f 32/73/12 48/99/12 60/114/12 44/74/12
f 38/108/14 54/107/14 53/109/14 37/68/14
f 44/74/12 60/114/12 61/106/12 45/94/12
f 46/115/5 57/116/5 58/117/5 53/118/5
f 47/112/5 60/119/5 48/120/5 49/113/5
f 46/121/5 53/109/5 54/107/5 47/122/5
f 49/113/5 48/120/5 52/123/5 51/124/5
f 49/125/5 51/104/5 55/103/5 50/126/5
f 55/127/5 59/128/5 56/129/5 50/130/5
f 50/110/5 56/131/5 57/132/5 46/111/5
f 54/133/5 61/134/5 60/119/5 47/112/5
f 35/105/13 51/104/13 52/98/13 36/80/13
f 69/135/15 64/136/15 65/137/15 68/138/15
f 68/139/16 65/140/16 66/141/16 70/142/16
f 70/143/17 66/144/17 67/145/17 71/146/17
f 71/147/18 67/148/18 64/149/18 69/150/18
f 63/151/19 65/137/19 64/136/19
f 63/151/20 66/141/20 65/140/20
f 63/151/21 67/145/21 66/144/21
f 63/151/22 64/149/22 67/148/22
f 62/152/23 69/135/23 68/138/23
f 62/152/24 68/139/24 70/142/24
f 62/152/25 70/143/25 71/146/25
f 62/152/26 71/147/26 69/150/26
f 98/153/2 82/154/2 81/155/2 97/156/2
f 79/157/5 72/158/5 73/159/5 86/160/5
f 83/161/5 77/162/5 76/163/5 87/164/5
f 78/165/5 74/166/5 77/167/5 83/168/5
f 84/169/5 82/154/5 78/170/5 83/171/5
f 84/172/5 85/173/5 81/174/5 82/175/5
f 87/176/5 80/177/5 79/178/5 86/179/5
f 86/160/5 73/159/5 85/173/5 84/172/5
f 87/180/5 76/181/5 75/182/5 80/183/5
f 89/184/3 73/185/3 72/186/3 88/187/3
f 95/188/4 79/178/4 80/177/4 96/189/4
f 101/190/3 85/191/3 73/185/3 89/184/3
f 102/192/1 86/160/1 84/172/1 100/193/1
f 100/193/4 84/172/4 83/161/4 99/194/4
f 92/195/1 76/196/1 77/197/1 93/198/1
f 103/199/2 87/164/2 86/160/2 102/192/2
f 90/200/2 74/201/2 78/170/2 94/202/2
f 99/194/3 83/161/3 87/164/3 103/199/3
f 96/189/4 80/177/4 75/203/4 91/204/4
f 88/187/4 72/186/4 79/178/4 95/188/4
f 94/202/2 78/170/2 82/154/2 98/153/2
f 93/198/1 77/197/1 74/201/1 90/200/1
f 97/156/3 81/155/3 85/191/3 101/190/3
f 91/204/1 75/203/1 76/196/1 92/195/1
f 95/205/10 102/206/10 89/184/10 88/187/10
f 99/207/10 103/208/10 92/195/10 93/198/10
f 94/202/10 99/209/10 93/210/10 90/211/10
f 100/193/10 99/194/10 94/212/10 98/213/10
f 100/214/10 98/215/10 97/156/10 101/190/10
f 103/199/10 102/192/10 95/216/10 96/217/10
f 102/206/10 100/214/10 101/190/10 89/184/10
f 103/218/10 96/189/10 91/219/10 92/220/10
f 104/221/10 111/222/10 116/223/10 115/224/10
f 105/225/10 107/226/10 106/227/10 118/228/10
f 104/229/10 105/230/10 112/231/10 111/232/10
f 107/226/10 109/233/10 110/234/10 106/227/10
f 107/235/10 108/236/10 113/237/10 109/238/10
f 113/239/10 108/240/10 114/241/10 117/242/10
f 108/243/10 104/244/10 115/245/10 114/246/10
f 112/247/10 105/225/10 118/228/10 119/248/10
f 116/249/16 132/250/16 131/251/16 115/245/16
f 110/234/18 126/252/18 122/253/18 106/227/18
f 114/246/16 130/254/16 133/255/16 117/256/16
f 113/239/17 129/257/17 125/258/17 109/259/17
f 119/248/15 135/260/15 128/261/15 112/262/15
f 111/222/15 127/263/15 132/250/15 116/249/15
f 108/236/18 124/264/18 120/265/18 104/229/18
f 117/256/17 133/255/17 129/257/17 113/239/17
f 104/229/17 120/265/17 121/266/17 105/230/17
f 115/245/16 131/251/16 130/254/16 114/246/16
f 107/235/15 123/267/15 124/264/15 108/236/15
f 105/230/16 121/266/16 123/267/16 107/235/16
f 106/227/18 122/253/18 134/268/18 118/228/18
f 112/262/15 128/261/15 127/263/15 111/222/15
f 118/228/18 134/268/18 135/260/18 119/248/18
f 120/269/5 131/270/5 132/271/5 127/272/5
f 121/266/5 134/273/5 122/274/5 123/267/5
f 120/275/5 127/263/5 128/261/5 121/276/5
f 123/267/5 122/274/5 126/277/5 125/278/5
f 123/279/5 125/258/5 129/257/5 124/280/5
f 129/281/5 133/282/5 130/283/5 124/284/5
f 124/264/5 130/285/5 131/286/5 120/265/5
f 128/287/5 135/288/5 134/273/5 121/266/5
f 109/259/17 125/258/17 126/252/17 110/234/17
usemtl CHIMERITE
f 1/289/27 7/290/27 4/291/27
f 1/292/28 6/293/28 7/294/28
f 1/295/29 5/296/29 6/297/29
f 1/292/30 4/298/30 5/299/30
