# Blender v2.80 (sub 75) OBJ File: 'wands.blend'
# www.blender.org
mtllib wand_redstone.mtl
o WAND_VAR17_Cube.017
v 0.500000 0.968750 0.500000
v 0.468750 0.937500 0.468750
v 0.531250 0.937500 0.468750
v 0.468750 0.937500 0.531250
v 0.531250 0.937500 0.531250
v 0.468750 0.875000 0.468750
v 0.531250 0.875000 0.468750
v 0.531250 0.875000 0.531250
v 0.468750 0.875000 0.531250
v 0.544194 1.250000 0.500000
v 0.544194 1.000000 0.500000
v 0.500000 1.250000 0.544194
v 0.500000 1.000000 0.544194
v 0.500000 1.250000 0.455806
v 0.500000 1.000000 0.455806
v 0.455806 1.250000 0.500000
v 0.455806 1.000000 0.500000
v 0.500000 0.031250 0.500000
v 0.468750 0.062500 0.531250
v 0.468750 0.062500 0.468750
v 0.531250 0.062500 0.468750
v 0.531250 0.062500 0.531250
v 0.468750 0.125000 0.531250
v 0.468750 0.812500 0.531250
v 0.468750 0.812500 0.468750
v 0.468750 0.125000 0.468750
v 0.531250 0.812500 0.468750
v 0.531250 0.125000 0.468750
v 0.531250 0.812500 0.531250
v 0.531250 0.125000 0.531250
v 0.468750 0.625000 0.531250
v 0.531250 0.625000 0.468750
v 0.531250 0.625000 0.531250
v 0.468750 0.625000 0.468750
v 0.446653 0.875000 0.446653
v 0.446653 0.812500 0.446653
v 0.553347 0.875000 0.446653
v 0.553347 0.812500 0.446653
v 0.553347 0.875000 0.553347
v 0.553347 0.812500 0.553347
v 0.446653 0.875000 0.553347
v 0.446653 0.812500 0.553347
v 0.500000 0.875000 0.500000
v 0.531250 0.750000 0.468750
v 0.468750 0.750000 0.531250
v 0.531250 0.187500 0.468750
v 0.531250 0.187500 0.531250
v 0.468750 0.187500 0.468750
v 0.468750 0.187500 0.531250
v 0.415403 0.812500 0.468750
v 0.415403 0.875000 0.468750
v 0.446653 0.812500 0.468750
v 0.446653 0.875000 0.468750
v 0.415403 0.812500 0.531250
v 0.415403 0.875000 0.531250
v 0.446653 0.812500 0.531250
v 0.446653 0.875000 0.531250
v 0.352903 0.875000 0.468750
v 0.415403 1.000000 0.468750
v 0.352903 0.875000 0.531250
v 0.415403 1.000000 0.531250
v 0.415403 0.937500 0.531250
v 0.415403 0.937500 0.468750
v 0.352903 0.937500 0.531250
v 0.352903 0.937500 0.468750
v 0.352903 1.000000 0.531250
v 0.352903 1.000000 0.468750
v 0.415403 1.062500 0.468750
v 0.352903 1.062500 0.468750
v 0.352903 1.062500 0.531250
v 0.415403 1.062500 0.531250
v 0.352903 1.125000 0.468750
v 0.352903 1.125000 0.531250
v 0.321653 0.937500 0.531250
v 0.321653 0.937500 0.468750
v 0.321653 0.875000 0.531250
v 0.321653 0.875000 0.468750
v 0.321653 1.000000 0.531250
v 0.321653 1.000000 0.468750
v 0.321653 1.062500 0.531250
v 0.321653 1.062500 0.468750
v 0.531250 0.750000 0.531250
v 0.468750 0.750000 0.468750
vt 0.250000 0.750000
vt 0.312500 0.750000
vt 0.312500 0.812500
vt 0.250000 0.812500
vt 0.250000 0.562500
vt 0.312500 0.562500
vt 0.312500 0.625000
vt 0.250000 0.625000
vt 0.312500 0.687500
vt 0.250000 0.687500
vt 0.937500 0.500000
vt 0.875000 0.500000
vt 0.875000 0.437500
vt 0.937500 0.437500
vt 0.875000 -0.000000
vt 0.937500 -0.000000
vt 0.937500 0.062500
vt 0.875000 0.062500
vt 0.937500 0.125000
vt 0.937500 0.375000
vt 0.875000 0.375000
vt 0.875000 0.125000
vt 0.937500 0.062500
vt 0.937500 0.312500
vt 0.875000 0.312500
vt 0.875000 0.062500
vt 0.937500 0.125000
vt 0.937500 0.375000
vt 0.875000 0.375000
vt 0.875000 0.125000
vt 0.937500 0.062500
vt 0.937500 0.312500
vt 0.875000 0.312500
vt 0.875000 0.062500
vt 0.500000 0.750000
vt 0.562500 0.750000
vt 0.562500 0.812500
vt 0.500000 0.812500
vt 0.500000 0.687500
vt 0.562500 0.687500
vt 0.500000 0.625000
vt 0.562500 0.625000
vt 0.525888 0.713388
vt 0.525888 0.786612
vt 0.500000 0.812500
vt 0.500000 0.687500
vt 0.562500 0.875000
vt 0.500000 0.875000
vt 0.250000 0.750000
vt 0.312500 0.750000
vt 0.312500 0.812500
vt 0.250000 0.812500
vt 0.250000 0.562500
vt 0.312500 0.562500
vt 0.312500 0.625000
vt 0.250000 0.625000
vt 0.312500 0.687500
vt 0.250000 0.687500
vt 0.500000 0.875000
vt 0.562500 0.875000
vt 0.562500 0.750000
vt 0.500000 0.750000
vt 0.500000 0.750000
vt 0.562500 0.750000
vt 0.500000 0.625000
vt 0.562500 0.625000
vt 0.500000 0.812500
vt 0.562500 0.812500
vt 0.562500 0.687500
vt 0.500000 0.687500
vt 0.525888 0.650888
vt 0.525888 0.724112
vt 0.525888 0.713388
vt 0.500000 0.687500
vt 0.525888 0.724112
vt 0.500000 0.937500
vt 0.500000 0.812500
vt 0.562500 0.875000
vt 0.500000 0.875000
vt 0.500000 0.750000
vt 0.562500 0.812500
vt 0.500000 0.875000
vt 0.500000 0.812500
vt 0.250000 0.687500
vt 0.312500 0.687500
vt 0.312500 0.750000
vt 0.250000 0.750000
vt 0.125000 0.562500
vt 0.125000 1.000000
vt 0.062500 1.000000
vt 0.062500 0.562500
vt 0.250000 0.625000
vt 0.312500 0.625000
vt 0.187500 0.562500
vt 0.187500 1.000000
vt 0.250000 0.562500
vt 0.312500 0.562500
vt 0.250000 0.562500
vt 0.250000 1.000000
vt 0.312500 0.812500
vt 0.250000 0.812500
vt 0.000000 1.000000
vt 0.000000 0.562500
vt 0.500000 0.687500
vt 0.500000 0.750000
vt 0.562500 0.750000
vt 0.562500 0.687500
vt 0.562500 0.812500
vt 0.500000 0.812500
vt 0.500000 0.875000
vt 0.562500 0.875000
vt 0.562500 0.687500
vt 0.562500 0.750000
vt 0.500000 0.750000
vt 0.500000 0.687500
vt 0.500000 0.562500
vt 0.562500 0.562500
vt 0.562500 0.625000
vt 0.500000 0.625000
vt 0.500000 0.687500
vt 0.562500 0.750000
vt 0.500000 0.750000
vt 0.500000 0.687500
vt 0.562500 0.687500
vt 0.562500 0.750000
vt 0.500000 0.687500
vt 0.562500 0.687500
vt 0.562500 0.750000
vt 0.500000 0.750000
vt 0.562500 0.625000
vt 0.562500 0.687500
vt 0.562500 0.625000
vt 0.500000 0.687500
vt 0.500000 0.687500
vt 0.562500 0.687500
vt 0.562500 0.750000
vt 0.500000 0.750000
vt 0.500000 0.625000
vt 0.562500 0.625000
vt 0.500000 0.625000
vt 0.562500 0.625000
vt 0.562500 0.687500
vt 0.500000 0.687500
vt 0.500000 0.750000
vt 0.562500 0.750000
vt 0.562500 0.750000
vt 0.500000 0.750000
vt 0.562500 0.750000
vt 0.562500 0.812500
vt 0.500000 0.812500
vt 0.500000 0.750000
vt 0.562500 1.000000
vt 0.500000 1.000000
vt 0.500000 0.937500
vt 0.562500 0.937500
vt 0.500000 0.812500
vt 0.562500 0.812500
vt 0.562500 0.875000
vt 0.500000 0.875000
vt 0.562500 0.812500
vt 0.500000 0.812500
vt 0.562500 0.937500
vt 0.562500 0.875000
vt 0.500000 0.875000
vt 0.500000 0.937500
vt 0.500000 0.937500
vt 0.500000 0.812500
vt 0.562500 0.812500
vt 0.562500 0.875000
vt 0.500000 0.875000
vt 0.500000 0.687500
vt 0.562500 0.687500
vt 0.562500 0.750000
vt 0.500000 0.750000
vt 0.562500 0.812500
vt 0.562500 0.750000
vt 0.500000 0.750000
vt 0.500000 0.812500
vt 0.562500 0.750000
vt 0.562500 0.812500
vt 0.500000 0.812500
vt 0.500000 0.750000
vt 0.500000 0.750000
vt 0.562500 0.750000
vt 0.562500 0.812500
vt 0.500000 0.812500
vt 0.562500 0.875000
vt 0.562500 0.937500
vt 0.500000 0.937500
vt 0.500000 0.875000
vt 0.500000 0.625000
vt 0.562500 0.625000
vt 0.562500 0.687500
vt 0.500000 0.687500
vt 0.562500 0.875000
vt 0.062500 0.500000
vt 0.062500 0.625000
vt 0.000000 0.625000
vt 0.000000 0.500000
vt 0.250000 0.500000
vt 0.250000 0.625000
vt 0.187500 0.625000
vt 0.187500 0.500000
vt 0.125000 0.625000
vt 0.125000 0.500000
vt 0.250000 0.187500
vt 0.187500 0.187500
vt 0.218750 0.218750
vt 0.187500 0.125000
vt 0.250000 0.125000
vt 0.218763 0.156250
vt 0.187500 0.187500
vt 0.250000 0.187500
vt 0.218763 0.218750
vt 0.125000 0.187500
vt 0.156262 0.218750
vt 0.250000 0.625000
vt 0.312500 0.687500
vt 0.250000 0.687500
vt 0.250000 0.562500
vt 0.312500 0.625000
vt 0.250000 0.625000
vt 0.250000 0.500000
vt 0.312500 0.562500
vt 0.250000 0.562500
vt 0.312500 0.625000
vt 0.250000 0.625000
vn 0.0000 0.0000 -1.0000
vn 1.0000 0.0000 0.0000
vn 0.0000 0.0000 1.0000
vn -1.0000 0.0000 0.0000
vn 0.0000 1.0000 0.0000
vn 0.0000 -1.0000 0.0000
vn -0.7071 0.0000 0.7071
vn 0.7071 0.0000 0.7071
vn 0.7071 0.0000 -0.7071
vn -0.7071 0.0000 -0.7071
vn -0.7071 -0.7071 0.0000
vn 0.7071 0.7071 0.0000
vn 0.0000 0.7071 -0.7071
vn 0.0000 0.7071 0.7071
vn -0.7071 0.7071 0.0000
vn 0.0000 -0.7071 0.7071
vn 0.7071 -0.7071 0.0000
vn 0.0000 -0.7071 -0.7071
usemtl MAIN
s off
f 6/1/1 2/2/1 3/3/1 7/4/1
f 7/5/2 3/6/2 5/7/2 8/8/2
f 8/8/3 5/7/3 4/9/3 9/10/3
f 9/10/4 4/9/4 2/2/4 6/1/4
f 10/11/5 14/12/5 16/13/5 12/14/5
f 15/15/6 11/16/6 13/17/6 17/18/6
f 13/19/7 12/20/7 16/21/7 17/22/7
f 11/23/8 10/24/8 12/25/8 13/26/8
f 15/27/9 14/28/9 10/29/9 11/30/9
f 17/31/10 16/32/10 14/33/10 15/34/10
f 22/35/3 30/36/3 23/37/3 19/38/3
f 21/39/2 28/40/2 30/36/2 22/35/2
f 20/41/1 26/42/1 28/40/1 21/39/1
f 24/43/6 29/44/6 40/45/6 42/46/6
f 19/38/4 23/37/4 26/47/4 20/48/4
f 45/49/4 24/50/4 25/51/4 83/52/4
f 83/53/1 25/54/1 27/55/1 44/56/1
f 44/56/2 27/55/2 29/57/2 82/58/2
f 82/58/3 29/57/3 24/50/3 45/49/3
f 40/59/3 39/60/3 41/61/3 42/62/3
f 38/63/2 37/64/2 39/60/2 40/59/2
f 36/65/1 35/66/1 37/64/1 38/63/1
f 42/67/4 41/68/4 35/69/4 36/70/4
f 25/71/6 24/72/6 42/62/6 36/65/6
f 29/44/6 27/73/6 38/74/6 40/45/6
f 27/75/6 25/71/6 36/65/6 38/63/6
f 39/76/5 37/77/5 43/78/5
f 37/79/5 35/80/5 43/81/5
f 35/80/5 41/82/5 43/81/5
f 41/83/5 39/76/5 43/78/5
f 30/84/3 47/85/3 49/86/3 23/87/3
f 47/88/3 33/89/3 31/90/3 49/91/3
f 28/92/2 46/93/2 47/85/2 30/84/2
f 46/94/2 32/95/2 33/89/2 47/88/2
f 26/96/1 48/97/1 46/93/1 28/92/1
f 48/98/1 34/99/1 32/95/1 46/94/1
f 23/87/4 49/86/4 48/100/4 26/101/4
f 49/91/4 31/90/4 34/102/4 48/103/4
f 50/104/1 51/105/1 53/106/1 52/107/1
f 59/108/1 67/109/1 69/110/1 68/111/1
f 56/112/3 57/113/3 55/114/3 54/115/3
f 50/116/11 54/117/11 60/118/11 58/119/11
f 52/120/6 56/112/6 54/121/6 50/122/6
f 57/123/5 53/124/5 51/125/5 55/114/5
f 60/126/3 55/127/3 62/128/3 64/129/3
f 54/130/3 55/127/3 60/126/3
f 51/131/1 50/132/1 58/133/1
f 65/134/4 64/135/4 66/136/4 67/137/4
f 64/135/5 65/134/5 75/138/5 74/139/5
f 55/140/2 51/141/2 63/142/2 62/143/2
f 51/131/1 58/133/1 65/144/1 63/145/1
f 63/145/1 65/144/1 67/109/1 59/108/1
f 62/143/2 63/142/2 59/146/2 61/147/2
f 64/148/3 62/149/3 61/150/3 66/151/3
f 71/152/12 68/153/12 72/154/12 73/155/12
f 66/156/3 61/157/3 71/158/3 70/159/3
f 61/147/2 59/146/2 68/160/2 71/161/2
f 69/162/1 67/163/1 79/164/1 81/165/1
f 68/111/1 69/110/1 72/154/1
f 70/159/3 71/158/3 73/166/3
f 69/167/4 70/168/4 73/169/4 72/170/4
f 77/171/4 76/172/4 74/173/4 75/174/4
f 65/175/1 58/176/1 77/177/1 75/178/1
f 58/119/6 60/118/6 76/172/6 77/171/6
f 60/179/3 64/180/3 74/181/3 76/182/3
f 79/183/4 78/184/4 80/185/4 81/186/4
f 66/187/3 70/188/3 80/189/3 78/190/3
f 67/191/6 66/192/6 78/193/6 79/194/6
f 70/195/5 69/110/5 81/186/5 80/185/5
f 31/196/4 45/197/4 83/198/4 34/199/4
f 34/200/1 83/201/1 44/202/1 32/203/1
f 32/203/2 44/202/2 82/204/2 33/205/2
f 33/205/3 82/204/3 45/197/3 31/196/3
usemtl CHIMERITE
f 3/206/13 2/207/13 1/208/13
f 5/209/12 3/210/12 1/211/12
f 4/212/14 5/213/14 1/214/14
f 2/215/15 4/212/15 1/216/15
f 18/217/16 22/218/16 19/219/16
f 18/220/17 21/221/17 22/222/17
f 18/223/18 20/224/18 21/225/18
f 18/220/11 19/226/11 20/227/11
