# Blender v2.80 (sub 75) OBJ File: 'wands.blend'
# www.blender.org
mtllib wand_glass.mtl
o WAND_VAR5_Cube.040
v 0.468750 0.125000 0.468750
v 0.531250 0.125000 0.468750
v 0.531250 0.125000 0.531250
v 0.468750 0.125000 0.531250
v 0.468750 0.187500 0.468750
v 0.468750 0.875000 0.468750
v 0.531250 0.875000 0.468750
v 0.531250 0.187500 0.468750
v 0.531250 0.875000 0.531250
v 0.531250 0.187500 0.531250
v 0.468750 0.875000 0.531250
v 0.468750 0.187500 0.531250
v 0.468750 0.625000 0.468750
v 0.531250 0.625000 0.531250
v 0.468750 0.625000 0.531250
v 0.531250 0.625000 0.468750
v 0.553347 0.937500 0.446653
v 0.531250 0.875000 0.468750
v 0.553347 0.937500 0.553347
v 0.531250 0.875000 0.531250
v 0.446653 0.937500 0.553347
v 0.468750 0.875000 0.531250
v 0.446653 0.937500 0.446653
v 0.468750 0.875000 0.468750
v 0.437500 0.937500 0.437500
v 0.437500 1.062500 0.437500
v 0.562500 0.937500 0.437500
v 0.562500 1.062500 0.437500
v 0.437500 0.937500 0.562500
v 0.437500 1.062500 0.562500
v 0.562500 0.937500 0.562500
v 0.562500 1.062500 0.562500
v 0.525333 0.914062 0.452570
v 0.525333 0.960938 0.452570
v 0.547430 0.914062 0.474667
v 0.547430 0.960938 0.474667
v 0.481139 0.914062 0.496764
v 0.481139 0.960938 0.496764
v 0.503236 0.914062 0.518861
v 0.503236 0.960938 0.518861
v 0.580576 0.914062 0.441521
v 0.558479 0.914062 0.419424
v 0.558479 0.960938 0.419424
v 0.580576 0.960938 0.441521
v 0.525333 1.023438 0.452570
v 0.547430 1.023438 0.474667
v 0.558479 1.023438 0.419424
v 0.580576 1.023438 0.441521
v 0.500000 0.937500 0.500000
v 0.468750 0.062500 0.531250
v 0.500000 0.156250 0.500000
v 0.531250 0.062500 0.531250
v 0.531250 0.062500 0.468750
v 0.468750 0.062500 0.468750
v 0.474672 0.914062 0.547430
v 0.474672 0.960938 0.547430
v 0.452575 0.914062 0.525333
v 0.452575 0.960938 0.525333
v 0.518866 0.914062 0.503236
v 0.518866 0.960938 0.503236
v 0.496769 0.914062 0.481139
v 0.496769 0.960938 0.481139
v 0.419429 0.914062 0.558479
v 0.441526 0.914062 0.580576
v 0.441526 0.960938 0.580576
v 0.419429 0.960938 0.558479
v 0.474672 1.023438 0.547430
v 0.452575 1.023438 0.525333
v 0.441526 1.023438 0.580576
v 0.419429 1.023438 0.558479
v 0.452575 0.914062 0.474667
v 0.452575 0.960938 0.474667
v 0.474672 0.914062 0.452570
v 0.474672 0.960938 0.452570
v 0.496769 0.914062 0.518861
v 0.496769 0.960938 0.518861
v 0.518866 0.914062 0.496764
v 0.518866 0.960938 0.496764
v 0.441526 0.914062 0.419424
v 0.419429 0.914062 0.441521
v 0.419429 0.960938 0.441521
v 0.441526 0.960938 0.419424
v 0.452575 1.023438 0.474667
v 0.474672 1.023438 0.452570
v 0.419429 1.023438 0.441521
v 0.441526 1.023438 0.419424
v 0.547430 0.914062 0.525333
v 0.547430 0.960938 0.525333
v 0.525333 0.914062 0.547430
v 0.525333 0.960938 0.547430
v 0.503236 0.914062 0.481139
v 0.503236 0.960938 0.481139
v 0.481139 0.914062 0.503236
v 0.481139 0.960938 0.503236
v 0.558479 0.914062 0.580576
v 0.580576 0.914062 0.558479
v 0.580576 0.960938 0.558479
v 0.558479 0.960938 0.580576
v 0.547430 1.023438 0.525333
v 0.525333 1.023438 0.547430
v 0.580576 1.023438 0.558479
v 0.558479 1.023438 0.580576
vt 0.375000 0.843750
vt 0.375000 0.875000
vt 0.312500 0.875000
vt 0.437500 0.843750
vt 0.437500 0.875000
vt 0.500000 0.843750
vt 0.500000 0.875000
vt 0.338388 0.588388
vt 0.411612 0.588388
vt 0.437500 0.562500
vt 0.312500 0.562500
vt 0.312500 0.843750
vt 0.250000 0.875000
vt 0.062500 0.562500
vt 0.062500 1.000000
vt 0.000000 1.000000
vt 0.000000 0.562500
vt 0.250000 0.562500
vt 0.250000 1.000000
vt 0.187500 1.000000
vt 0.187500 0.562500
vt 0.125000 1.000000
vt 0.125000 0.562500
vt 0.343750 0.812500
vt 0.320312 0.875000
vt 0.429688 0.875000
vt 0.406250 0.812500
vt 0.406250 0.812500
vt 0.429687 0.875000
vt 0.468750 0.812500
vt 0.492188 0.875000
vt 0.382812 0.875000
vt 0.382812 0.875000
vt 0.338388 0.661612
vt 0.312500 0.687500
vt 0.411612 0.661612
vt 0.437500 0.687500
vt 0.375000 0.375000
vt 0.375000 0.500000
vt 0.250000 0.500000
vt 0.250000 0.375000
vt 0.375000 0.375000
vt 0.375000 0.500000
vt 0.250000 0.500000
vt 0.250000 0.375000
vt 0.375000 0.375000
vt 0.375000 0.500000
vt 0.250000 0.500000
vt 0.250000 0.375000
vt 0.375000 0.375000
vt 0.375000 0.500000
vt 0.250000 0.500000
vt 0.250000 0.375000
vt 0.187500 0.500000
vt 0.187500 0.375000
vt 0.312500 0.375000
vt 0.312500 0.500000
vt 0.375000 0.500000
vt 0.375000 0.562500
vt 0.437500 0.562500
vt 0.437500 0.500000
vt 0.437500 0.500000
vt 0.437500 0.562500
vt 0.375000 0.562500
vt 0.375000 0.500000
vt 0.375000 0.625000
vt 0.375000 0.562500
vt 0.437500 0.562500
vt 0.437500 0.625000
vt 0.437500 0.562500
vt 0.437500 0.500000
vt 0.500000 0.500000
vt 0.500000 0.562500
vt 0.375000 0.500000
vt 0.375000 0.562500
vt 0.312500 0.562500
vt 0.312500 0.500000
vt 0.375000 0.562500
vt 0.375000 0.625000
vt 0.437500 0.625000
vt 0.437500 0.562500
vt 0.375000 0.625000
vt 0.312500 0.625000
vt 0.375000 0.500000
vt 0.375000 0.562500
vt 0.437500 0.687500
vt 0.375000 0.687500
vt 0.375000 0.687500
vt 0.437500 0.687500
vt 0.375000 0.625000
vt 0.375000 0.687500
vt 0.312500 0.687500
vt 0.312500 0.625000
vt 0.250000 0.312500
vt 0.375000 0.312500
vt 0.312500 0.375000
vt 0.250000 0.312500
vt 0.375000 0.312500
vt 0.250000 0.312500
vt 0.375000 0.312500
vt 0.312500 0.500000
vt 0.250000 0.500000
vt 0.250000 0.437500
vt 0.312500 0.437500
vt 0.312500 0.437500
vt 0.375000 0.437500
vt 0.375000 0.375000
vt 0.312500 0.375000
vt 0.500000 0.812500
vt 0.437500 0.812500
vt 0.437500 0.812500
vt 0.375000 0.812500
vt 0.375000 0.812500
vt 0.312500 0.812500
vt 0.312500 0.812500
vt 0.250000 0.843750
vt 0.250000 0.812500
vt 0.375000 0.500000
vt 0.375000 0.562500
vt 0.437500 0.562500
vt 0.437500 0.500000
vt 0.437500 0.500000
vt 0.437500 0.562500
vt 0.375000 0.562500
vt 0.375000 0.500000
vt 0.375000 0.625000
vt 0.375000 0.562500
vt 0.437500 0.562500
vt 0.437500 0.625000
vt 0.437500 0.562500
vt 0.437500 0.500000
vt 0.500000 0.500000
vt 0.500000 0.562500
vt 0.375000 0.500000
vt 0.375000 0.562500
vt 0.312500 0.562500
vt 0.312500 0.500000
vt 0.375000 0.562500
vt 0.375000 0.625000
vt 0.437500 0.625000
vt 0.437500 0.562500
vt 0.375000 0.625000
vt 0.312500 0.625000
vt 0.375000 0.500000
vt 0.375000 0.562500
vt 0.437500 0.687500
vt 0.375000 0.687500
vt 0.375000 0.687500
vt 0.437500 0.687500
vt 0.375000 0.625000
vt 0.375000 0.687500
vt 0.312500 0.687500
vt 0.312500 0.625000
vt 0.375000 0.500000
vt 0.375000 0.562500
vt 0.437500 0.562500
vt 0.437500 0.500000
vt 0.437500 0.500000
vt 0.437500 0.562500
vt 0.375000 0.562500
vt 0.375000 0.500000
vt 0.375000 0.625000
vt 0.375000 0.562500
vt 0.437500 0.562500
vt 0.437500 0.625000
vt 0.437500 0.562500
vt 0.437500 0.500000
vt 0.500000 0.500000
vt 0.500000 0.562500
vt 0.375000 0.500000
vt 0.375000 0.562500
vt 0.312500 0.562500
vt 0.312500 0.500000
vt 0.375000 0.562500
vt 0.375000 0.625000
vt 0.437500 0.625000
vt 0.437500 0.562500
vt 0.375000 0.625000
vt 0.312500 0.625000
vt 0.375000 0.500000
vt 0.375000 0.562500
vt 0.437500 0.687500
vt 0.375000 0.687500
vt 0.375000 0.687500
vt 0.437500 0.687500
vt 0.375000 0.625000
vt 0.375000 0.687500
vt 0.312500 0.687500
vt 0.312500 0.625000
vt 0.375000 0.500000
vt 0.375000 0.562500
vt 0.437500 0.562500
vt 0.437500 0.500000
vt 0.437500 0.500000
vt 0.437500 0.562500
vt 0.375000 0.562500
vt 0.375000 0.500000
vt 0.375000 0.625000
vt 0.375000 0.562500
vt 0.437500 0.562500
vt 0.437500 0.625000
vt 0.437500 0.562500
vt 0.437500 0.500000
vt 0.500000 0.500000
vt 0.500000 0.562500
vt 0.375000 0.500000
vt 0.375000 0.562500
vt 0.312500 0.562500
vt 0.312500 0.500000
vt 0.375000 0.562500
vt 0.375000 0.625000
vt 0.437500 0.625000
vt 0.437500 0.562500
vt 0.375000 0.625000
vt 0.312500 0.625000
vt 0.375000 0.500000
vt 0.375000 0.562500
vt 0.437500 0.687500
vt 0.375000 0.687500
vt 0.375000 0.687500
vt 0.437500 0.687500
vt 0.375000 0.625000
vt 0.375000 0.687500
vt 0.312500 0.687500
vt 0.312500 0.625000
vt 0.125000 0.500000
vt 0.125000 0.750000
vt 0.062500 0.750000
vt 0.062500 0.500000
vt 0.187500 0.500000
vt 0.187500 0.750000
vt 0.250000 0.500000
vt 0.250000 0.750000
vt 0.000000 0.750000
vt 0.000000 0.500000
vt 0.250000 0.437500
vt 0.250000 0.375000
vt 0.312500 0.437500
vt 0.250000 0.437500
vt 0.250000 0.375000
vt 0.312500 0.375000
vt 0.312500 0.312500
vt 0.375000 0.312500
vt 0.312500 0.375000
vn -0.7071 -0.7071 0.0000
vn 0.0000 -0.7071 0.7071
vn 0.7071 -0.7071 0.0000
vn 0.0000 0.0000 1.0000
vn 0.0000 -0.7071 -0.7071
vn 0.0000 0.0000 -1.0000
vn 1.0000 0.0000 0.0000
vn -1.0000 0.0000 0.0000
vn -0.9428 -0.3333 0.0000
vn 0.0000 -0.3333 0.9428
vn 0.9428 -0.3333 0.0000
vn 0.0000 -0.3333 -0.9428
vn 0.0000 1.0000 0.0000
vn -0.7071 0.0000 -0.7071
vn 0.7071 0.0000 0.7071
vn 0.0000 -1.0000 0.0000
vn 0.7071 0.0000 -0.7071
vn -0.7071 0.7071 0.0000
vn 0.0000 0.7071 0.7071
vn 0.7071 0.7071 0.0000
vn 0.0000 0.7071 -0.7071
vn -0.7071 0.0000 0.7071
usemtl MAIN
s off
f 51/1/1 12/2/1 5/3/1
f 51/4/2 10/5/2 12/2/2
f 51/6/3 8/7/3 10/5/3
f 6/8/4 11/9/4 22/10/4 24/11/4
f 51/12/5 5/3/5 8/13/5
f 5/14/6 13/15/6 16/16/6 8/17/6
f 8/18/7 16/19/7 14/20/7 10/21/7
f 10/21/4 14/20/4 15/22/4 12/23/4
f 12/23/8 15/22/8 13/15/8 5/14/8
f 22/24/9 21/25/9 23/26/9 24/27/9
f 20/28/10 19/29/10 21/25/10 22/24/10
f 18/30/11 17/31/11 19/32/11 20/28/11
f 24/27/12 23/33/12 17/31/12 18/30/12
f 7/34/4 6/8/4 24/11/4 18/35/4
f 11/9/4 9/36/4 20/37/4 22/10/4
f 9/36/4 7/34/4 18/35/4 20/37/4
f 25/38/6 26/39/6 28/40/6 27/41/6
f 27/42/7 28/43/7 32/44/7 31/45/7
f 31/46/4 32/47/4 30/48/4 29/49/4
f 29/50/8 30/51/8 26/52/8 25/53/8
f 32/54/13 28/55/13 26/56/13 30/57/13
f 37/58/14 38/59/14 34/60/14 33/61/14
f 35/62/15 36/63/15 40/64/15 39/65/15
f 36/66/15 35/67/15 41/68/15 44/69/15
f 35/70/16 39/71/16 37/72/16 33/73/16
f 42/74/17 43/75/17 44/76/17 41/77/17
f 33/78/14 34/79/14 43/80/14 42/81/14
f 44/76/17 43/75/17 47/82/17 48/83/17
f 35/84/16 33/61/16 42/81/16 41/85/16
f 36/66/15 44/69/15 48/86/15 46/87/15
f 43/80/14 34/79/14 45/88/14 47/89/14
f 46/90/13 48/91/13 47/92/13 45/93/13
f 27/94/16 31/95/16 49/96/16
f 31/97/16 29/98/16 49/96/16
f 29/98/16 25/99/16 49/96/16
f 25/100/16 27/94/16 49/96/16
f 4/101/8 1/102/8 54/103/8 50/104/8
f 2/105/7 3/106/7 52/107/7 53/108/7
f 4/109/18 51/4/18 1/110/18
f 3/111/19 51/1/19 4/112/19
f 2/113/20 51/12/20 3/114/20
f 1/115/21 51/116/21 2/117/21
f 59/118/15 60/119/15 56/120/15 55/121/15
f 57/122/14 58/123/14 62/124/14 61/125/14
f 58/126/14 57/127/14 63/128/14 66/129/14
f 57/130/16 61/131/16 59/132/16 55/133/16
f 64/134/22 65/135/22 66/136/22 63/137/22
f 55/138/15 56/139/15 65/140/15 64/141/15
f 66/136/22 65/135/22 69/142/22 70/143/22
f 57/144/16 55/121/16 64/141/16 63/145/16
f 58/126/14 66/129/14 70/146/14 68/147/14
f 65/140/15 56/139/15 67/148/15 69/149/15
f 68/150/13 70/151/13 69/152/13 67/153/13
f 75/154/22 76/155/22 72/156/22 71/157/22
f 73/158/17 74/159/17 78/160/17 77/161/17
f 74/162/17 73/163/17 79/164/17 82/165/17
f 73/166/16 77/167/16 75/168/16 71/169/16
f 80/170/14 81/171/14 82/172/14 79/173/14
f 71/174/22 72/175/22 81/176/22 80/177/22
f 82/172/14 81/171/14 85/178/14 86/179/14
f 73/180/16 71/157/16 80/177/16 79/181/16
f 74/162/17 82/165/17 86/182/17 84/183/17
f 81/176/22 72/175/22 83/184/22 85/185/22
f 84/186/13 86/187/13 85/188/13 83/189/13
f 91/190/17 92/191/17 88/192/17 87/193/17
f 89/194/22 90/195/22 94/196/22 93/197/22
f 90/198/22 89/199/22 95/200/22 98/201/22
f 89/202/16 93/203/16 91/204/16 87/205/16
f 96/206/15 97/207/15 98/208/15 95/209/15
f 87/210/17 88/211/17 97/212/17 96/213/17
f 98/208/15 97/207/15 101/214/15 102/215/15
f 89/216/16 87/193/16 96/213/16 95/217/16
f 90/198/22 98/201/22 102/218/22 100/219/22
f 97/212/17 88/211/17 99/220/17 101/221/17
f 100/222/13 102/223/13 101/224/13 99/225/13
f 15/226/8 22/227/8 24/228/8 13/229/8
f 14/230/4 20/231/4 22/227/4 15/226/4
f 16/232/7 18/233/7 20/231/7 14/230/7
f 13/229/6 24/228/6 18/234/6 16/235/6
f 1/236/6 2/105/6 53/108/6 54/237/6
f 3/238/4 4/239/4 50/240/4 52/241/4
f 54/242/16 53/243/16 52/107/16 50/244/16
