# Blender v2.80 (sub 75) OBJ File: 'wands.blend'
# www.blender.org
mtllib wand_amethyst.mtl
o WAND_VAR10_Cube.024
v 0.500000 1.031250 0.500000
v 0.500000 0.031250 0.500000
v 0.468750 1.000000 0.468750
v 0.531250 1.000000 0.468750
v 0.468750 1.000000 0.531250
v 0.531250 1.000000 0.531250
v 0.468750 0.062500 0.468750
v 0.531250 0.062500 0.468750
v 0.531250 0.062500 0.531250
v 0.468750 0.062500 0.531250
v 0.468750 0.125000 0.468750
v 0.468750 0.875000 0.468750
v 0.468750 0.937500 0.468750
v 0.531250 0.937500 0.468750
v 0.531250 0.875000 0.468750
v 0.531250 0.125000 0.468750
v 0.531250 0.937500 0.531250
v 0.531250 0.875000 0.531250
v 0.531250 0.125000 0.531250
v 0.468750 0.937500 0.531250
v 0.468750 0.875000 0.531250
v 0.468750 0.125000 0.531250
v 0.468750 0.625000 0.468750
v 0.531250 0.625000 0.531250
v 0.468750 0.625000 0.531250
v 0.531250 0.625000 0.468750
v 0.553347 0.937500 0.446653
v 0.553347 0.875000 0.446653
v 0.553347 0.937500 0.553347
v 0.553347 0.875000 0.553347
v 0.446653 0.937500 0.553347
v 0.446653 0.875000 0.553347
v 0.446653 0.937500 0.446653
v 0.446653 0.875000 0.446653
v 0.500000 1.062500 0.500000
v 0.468750 1.125000 0.468750
v 0.531250 1.125000 0.468750
v 0.468750 1.125000 0.531250
v 0.531250 1.125000 0.531250
v 0.468750 1.250000 0.468750
v 0.531250 1.250000 0.468750
v 0.531250 1.250000 0.531250
v 0.468750 1.250000 0.531250
v 0.500000 1.312500 0.500000
v 0.500000 1.123750 0.593750
v 0.468750 1.186250 0.562500
v 0.531250 1.186250 0.562500
v 0.468750 1.186250 0.625000
v 0.531250 1.186250 0.625000
v 0.500000 1.248750 0.593750
v 0.500000 1.000000 0.562500
v 0.468750 1.062500 0.531250
v 0.531250 1.062500 0.531250
v 0.468750 1.062500 0.593750
v 0.531250 1.062500 0.593750
v 0.500000 1.125000 0.562500
vt 0.250000 0.750000
vt 0.312500 0.750000
vt 0.312500 0.812500
vt 0.250000 0.812500
vt 0.250000 0.562500
vt 0.312500 0.562500
vt 0.312500 0.625000
vt 0.250000 0.625000
vt 0.312500 0.687500
vt 0.250000 0.687500
vt 0.375000 0.812500
vt 0.375000 0.875000
vt 0.312500 0.875000
vt 0.312500 0.812500
vt 0.411612 0.588388
vt 0.338388 0.588388
vt 0.312500 0.562500
vt 0.437500 0.562500
vt 0.437500 0.812500
vt 0.437500 0.875000
vt 0.338388 0.661612
vt 0.312500 0.687500
vt 0.500000 0.812500
vt 0.500000 0.875000
vt 0.338388 0.588388
vt 0.411612 0.588388
vt 0.437500 0.562500
vt 0.312500 0.562500
vt 0.250000 0.875000
vt 0.250000 0.812500
vt 0.411612 0.661612
vt 0.437500 0.687500
vt 0.062500 0.500000
vt 0.062500 1.000000
vt 0.000000 1.000000
vt 0.000000 0.500000
vt 0.250000 0.500000
vt 0.250000 1.000000
vt 0.187500 1.000000
vt 0.187500 0.500000
vt 0.125000 1.000000
vt 0.125000 0.500000
vt 0.312500 0.812500
vt 0.312500 0.875000
vt 0.437500 0.875000
vt 0.437500 0.812500
vt 0.437500 0.812500
vt 0.437500 0.875000
vt 0.500000 0.812500
vt 0.500000 0.875000
vt 0.375000 0.875000
vt 0.375000 0.812500
vt 0.375000 0.812500
vt 0.375000 0.875000
vt 0.338388 0.661612
vt 0.312500 0.687500
vt 0.411612 0.661612
vt 0.437500 0.687500
vt 0.750000 0.687500
vt 0.812500 0.750000
vt 0.750000 0.750000
vt 0.750000 0.625000
vt 0.812500 0.687500
vt 0.750000 0.687500
vt 0.812500 0.750000
vt 0.750000 0.750000
vt 0.750000 0.750000
vt 0.812500 0.812500
vt 0.750000 0.812500
vt 0.812500 0.812500
vt 0.750000 0.812500
vt 0.750000 0.875000
vt 0.812500 0.875000
vt 0.750000 0.937500
vt 0.812500 0.875000
vt 0.750000 0.875000
vt 0.812500 0.937500
vt 0.750000 0.937500
vt 0.750000 1.000000
vt 0.750000 0.875000
vt 0.750000 0.812500
vt 0.812500 0.875000
vt 0.750000 0.875000
vt 0.750000 0.750000
vt 0.812500 0.812500
vt 0.750000 0.812500
vt 0.812500 0.875000
vt 0.750000 0.875000
vt 0.750000 0.875000
vt 0.812500 0.937500
vt 0.750000 0.937500
vt 0.750000 0.937500
vt 0.750000 1.000000
vt 0.750000 0.875000
vt 0.750000 0.687500
vt 0.812500 0.750000
vt 0.750000 0.750000
vt 0.750000 0.625000
vt 0.812500 0.687500
vt 0.750000 0.687500
vt 0.812500 0.750000
vt 0.750000 0.750000
vt 0.750000 0.750000
vt 0.812500 0.812500
vt 0.750000 0.812500
vt 0.750000 0.812500
vt 0.750000 0.875000
vt 0.750000 0.750000
vt 0.062500 0.500000
vt 0.062500 0.750000
vt 0.000000 0.750000
vt 0.000000 0.500000
vt 0.250000 0.500000
vt 0.250000 0.750000
vt 0.187500 0.750000
vt 0.187500 0.500000
vt 0.125000 0.750000
vt 0.125000 0.500000
vt 0.250000 0.187500
vt 0.187500 0.187500
vt 0.218750 0.218750
vt 0.187500 0.125000
vt 0.250000 0.125000
vt 0.218763 0.156250
vt 0.187500 0.187500
vt 0.250000 0.187500
vt 0.218763 0.218750
vt 0.125000 0.187500
vt 0.156262 0.218750
vt 0.156250 0.218750
vt 0.187500 0.250000
vt 0.125000 0.250000
vt 0.218750 0.218750
vt 0.250000 0.250000
vt 0.218750 0.156250
vt 0.250000 0.187500
vt 0.187500 0.187500
vt 0.218750 0.218750
vt 0.250000 0.250000
vt 0.187500 0.250000
vn 0.0000 0.0000 -1.0000
vn 1.0000 0.0000 0.0000
vn 0.0000 0.0000 1.0000
vn -1.0000 0.0000 0.0000
vn 0.0000 1.0000 0.0000
vn 0.0000 -1.0000 0.0000
vn 0.0000 -0.4472 -0.8944
vn 0.8944 -0.4472 0.0000
vn 0.0000 -0.4472 0.8944
vn -0.8944 -0.4472 0.0000
vn 0.0000 0.4472 0.8944
vn 0.0000 0.4472 -0.8944
vn -0.8944 0.4472 0.0000
vn 0.8944 0.4472 0.0000
vn 0.0000 0.7071 -0.7071
vn 0.7071 0.7071 0.0000
vn 0.0000 0.7071 0.7071
vn -0.7071 0.7071 0.0000
vn -0.7071 -0.7071 0.0000
vn 0.0000 -0.7071 0.7071
vn 0.7071 -0.7071 0.0000
vn 0.0000 -0.7071 -0.7071
usemtl MAIN
s off
f 13/1/1 3/2/1 4/3/1 14/4/1
f 14/5/2 4/6/2 6/7/2 17/8/2
f 17/8/3 6/7/3 5/9/3 20/10/3
f 20/10/4 5/9/4 3/2/4 13/1/4
f 10/11/4 22/12/4 11/13/4 7/14/4
f 20/15/5 13/16/5 33/17/5 31/18/5
f 9/19/3 19/20/3 22/12/3 10/11/3
f 13/16/5 14/21/5 27/22/5 33/17/5
f 8/23/2 16/24/2 19/20/2 9/19/2
f 12/25/6 21/26/6 32/27/6 34/28/6
f 7/14/1 11/13/1 16/29/1 8/30/1
f 17/31/5 20/15/5 31/18/5 29/32/5
f 11/33/1 23/34/1 26/35/1 16/36/1
f 16/37/2 26/38/2 24/39/2 19/40/2
f 19/40/3 24/39/3 25/41/3 22/42/3
f 22/42/4 25/41/4 23/34/4 11/33/4
f 32/43/4 31/44/4 33/45/4 34/46/4
f 30/47/3 29/48/3 31/44/3 32/43/3
f 28/49/2 27/50/2 29/51/2 30/52/2
f 34/53/1 33/54/1 27/50/1 28/49/1
f 14/21/5 17/31/5 29/32/5 27/22/5
f 15/55/6 12/25/6 34/28/6 28/56/6
f 21/26/6 18/57/6 30/58/6 32/27/6
f 18/57/6 15/55/6 28/56/6 30/58/6
f 35/59/7 36/60/7 37/61/7
f 35/62/8 37/63/8 39/64/8
f 35/59/9 39/65/9 38/66/9
f 35/67/10 38/68/10 36/69/10
f 39/64/2 37/63/2 41/70/2 42/71/2
f 43/72/11 42/73/11 44/74/11
f 38/66/3 39/65/3 42/73/3 43/72/3
f 37/61/1 36/60/1 40/75/1 41/76/1
f 36/69/4 38/68/4 43/77/4 40/78/4
f 41/76/12 40/75/12 44/74/12
f 40/78/13 43/77/13 44/79/13
f 42/71/14 41/70/14 44/80/14
f 45/81/7 46/82/7 47/83/7
f 45/84/8 47/85/8 49/86/8
f 45/81/9 49/87/9 48/88/9
f 45/89/10 48/90/10 46/91/10
f 48/88/11 49/87/11 50/92/11
f 47/83/12 46/82/12 50/92/12
f 46/91/13 48/90/13 50/93/13
f 49/86/14 47/85/14 50/94/14
f 51/95/7 52/96/7 53/97/7
f 51/98/8 53/99/8 55/100/8
f 51/95/9 55/101/9 54/102/9
f 51/103/10 54/104/10 52/105/10
f 54/102/11 55/101/11 56/106/11
f 53/97/12 52/96/12 56/106/12
f 52/105/13 54/104/13 56/107/13
f 55/100/14 53/99/14 56/108/14
f 23/109/1 12/110/1 15/111/1 26/112/1
f 26/113/2 15/114/2 18/115/2 24/116/2
f 24/116/3 18/115/3 21/117/3 25/118/3
f 25/118/4 21/117/4 12/110/4 23/109/4
usemtl CHIMERITE
f 4/119/15 3/120/15 1/121/15
f 6/122/16 4/123/16 1/124/16
f 5/125/17 6/126/17 1/127/17
f 3/128/18 5/125/18 1/129/18
f 2/130/19 10/131/19 7/132/19
f 2/133/20 9/134/20 10/131/20
f 2/135/21 8/136/21 9/137/21
f 2/138/22 7/139/22 8/140/22
