# Blender v2.80 (sub 75) OBJ File: 'wands.blend'
# www.blender.org
mtllib wand_desertnova.mtl
o WAND_VAR14_Cube.023
v 0.468750 0.875000 0.468750
v 0.453125 0.937500 0.453125
v 0.546875 0.937500 0.453125
v 0.546875 0.937500 0.546875
v 0.453125 0.937500 0.546875
v 0.500000 0.031250 0.500000
v 0.531250 0.875000 0.468750
v 0.468750 0.875000 0.531250
v 0.531250 0.875000 0.531250
v 0.468750 0.062500 0.468750
v 0.531250 0.062500 0.468750
v 0.531250 0.062500 0.531250
v 0.468750 0.062500 0.531250
v 0.468750 0.125000 0.468750
v 0.468750 0.750000 0.468750
v 0.468750 0.812500 0.468750
v 0.531250 0.812500 0.468750
v 0.531250 0.750000 0.468750
v 0.531250 0.125000 0.468750
v 0.531250 0.812500 0.531250
v 0.531250 0.750000 0.531250
v 0.531250 0.125000 0.531250
v 0.468750 0.812500 0.531250
v 0.468750 0.750000 0.531250
v 0.468750 0.125000 0.531250
v 0.468750 0.625000 0.468750
v 0.531250 0.625000 0.531250
v 0.468750 0.625000 0.531250
v 0.531250 0.625000 0.468750
v 0.468750 0.687500 0.468750
v 0.531250 0.687500 0.531250
v 0.468750 0.687500 0.531250
v 0.531250 0.187500 0.531250
v 0.468750 0.187500 0.531250
v 0.531250 0.187500 0.468750
v 0.468750 0.187500 0.468750
v 0.468750 1.062500 0.468750
v 0.531250 1.062500 0.468750
v 0.468750 1.062500 0.531250
v 0.531250 1.062500 0.531250
v 0.500000 1.250000 0.500000
v 0.484375 0.937500 0.484375
v 0.515625 0.937500 0.484375
v 0.484375 0.937500 0.515625
v 0.515625 0.937500 0.515625
v 0.468750 1.000000 0.531250
v 0.468750 1.000000 0.468750
v 0.531250 1.000000 0.468750
v 0.531250 1.000000 0.531250
v 0.574379 1.011438 0.530185
v 0.596476 0.957312 0.552282
v 0.525057 0.953125 0.525058
v 0.530185 1.011438 0.574379
v 0.552282 0.957312 0.596476
v 0.601604 1.015625 0.601604
v 0.530185 1.011438 0.425621
v 0.552282 0.957312 0.403524
v 0.525058 0.953125 0.474943
v 0.574379 1.011438 0.469815
v 0.596476 0.957312 0.447718
v 0.601604 1.015625 0.398396
v 0.425621 1.011438 0.469815
v 0.403524 0.957312 0.447718
v 0.474943 0.953125 0.474942
v 0.469815 1.011438 0.425621
v 0.447718 0.957312 0.403524
v 0.398396 1.015625 0.398396
v 0.469815 1.011438 0.574379
v 0.447718 0.957312 0.596476
v 0.474942 0.953125 0.525057
v 0.425621 1.011438 0.530185
v 0.403524 0.957312 0.552282
v 0.398396 1.015625 0.601604
v 0.531250 0.687504 0.468750
vt 0.062500 0.875000
vt 0.250000 0.875000
vt 0.187500 0.875000
vt 0.125000 0.875000
vt 0.125000 1.000000
vt 0.125000 0.875000
vt 0.250000 0.875000
vt 0.250000 1.000000
vt 0.093750 0.937500
vt 0.031250 0.937500
vt 0.015625 1.000000
vt 0.109375 1.000000
vt 0.093750 0.937500
vt 0.031250 0.937500
vt 0.015625 1.000000
vt 0.109375 1.000000
vt 0.312500 0.812500
vt 0.312500 0.875000
vt 0.250000 0.812500
vt 0.500000 0.812500
vt 0.500000 0.875000
vt 0.437500 0.875000
vt 0.437500 0.812500
vt 0.375000 0.875000
vt 0.375000 0.812500
vt 0.125000 0.875000
vt 0.125000 0.937500
vt 0.062500 0.937500
vt 0.062500 0.875000
vt 0.375000 0.812500
vt 0.375000 0.875000
vt 0.312500 0.875000
vt 0.312500 0.812500
vt 0.125000 0.937500
vt 0.125000 1.000000
vt 0.062500 1.000000
vt 0.062500 0.937500
vt 0.187500 0.875000
vt 0.187500 0.937500
vt 0.437500 0.812500
vt 0.437500 0.875000
vt 0.187500 0.937500
vt 0.187500 1.000000
vt 0.250000 0.875000
vt 0.250000 0.937500
vt 0.500000 0.812500
vt 0.500000 0.875000
vt 0.250000 0.937500
vt 0.250000 1.000000
vt 0.000000 0.937500
vt 0.000000 0.875000
vt 0.250000 0.875000
vt 0.250000 0.812500
vt 0.000000 1.000000
vt 0.000000 0.937500
vt 0.187500 1.000000
vt 0.125000 1.000000
vt 0.125000 0.562500
vt 0.187500 0.562500
vt 0.062500 1.000000
vt 0.062500 0.562500
vt 0.000000 1.000000
vt 0.000000 0.562500
vt 0.250000 1.000000
vt 0.250000 0.562500
vt 0.500000 0.812500
vt 0.500000 0.875000
vt 0.437500 0.875000
vt 0.437500 0.812500
vt 0.312500 0.812500
vt 0.312500 0.875000
vt 0.250000 0.875000
vt 0.250000 0.812500
vt 0.375000 0.812500
vt 0.375000 0.875000
vt 0.000000 0.125000
vt 0.062500 0.125000
vt 0.062500 0.312500
vt 0.000000 0.125000
vt 0.062500 0.125000
vt 0.000000 0.312500
vt 0.000000 0.125000
vt 0.062500 0.125000
vt 0.000000 0.125000
vt 0.062500 0.125000
vt 0.062500 0.000000
vt 0.000000 -0.000000
vt 0.000000 -0.062500
vt 0.062500 -0.062500
vt 0.062500 0.000000
vt 0.000000 -0.000000
vt 0.000000 -0.062500
vt 0.062500 -0.062500
vt 0.062500 -0.000000
vt 0.000000 0.000000
vt 0.000000 -0.062500
vt 0.062500 -0.062500
vt 0.062500 -0.000000
vt 0.000000 0.000000
vt 0.000000 -0.062500
vt 0.062500 -0.062500
vt 0.000000 0.062500
vt 0.062500 0.062500
vt 0.000000 0.062500
vt 0.062500 0.062500
vt 0.000000 0.062500
vt 0.062500 0.062500
vt 0.000000 0.062500
vt 0.062500 0.062500
vt 1.000000 0.000000
vt 0.937500 0.062500
vt 1.000000 0.062500
vt 1.000000 0.062500
vt 1.000000 0.125000
vt 0.937500 0.125000
vt 0.937500 0.000000
vt 1.000000 0.062500
vt 0.937500 0.062500
vt 1.000000 0.125000
vt 0.937500 0.125000
vt 1.000000 0.187500
vt 0.937500 0.125000
vt 1.000000 0.125000
vt 1.000000 0.000000
vt 0.937500 0.062500
vt 1.000000 0.062500
vt 1.000000 0.062500
vt 1.000000 0.125000
vt 0.937500 0.125000
vt 0.937500 0.000000
vt 1.000000 0.062500
vt 0.937500 0.062500
vt 1.000000 0.125000
vt 0.937500 0.125000
vt 1.000000 0.187500
vt 0.937500 0.125000
vt 1.000000 0.125000
vt 1.000000 0.000000
vt 0.937500 0.062500
vt 1.000000 0.062500
vt 1.000000 0.062500
vt 1.000000 0.125000
vt 0.937500 0.125000
vt 0.937500 0.000000
vt 1.000000 0.062500
vt 0.937500 0.062500
vt 1.000000 0.125000
vt 0.937500 0.125000
vt 1.000000 0.187500
vt 0.937500 0.125000
vt 1.000000 0.125000
vt 1.000000 0.000000
vt 0.937500 0.062500
vt 1.000000 0.062500
vt 1.000000 0.062500
vt 1.000000 0.125000
vt 0.937500 0.125000
vt 0.937500 0.000000
vt 1.000000 0.062500
vt 0.937500 0.062500
vt 1.000000 0.125000
vt 0.937500 0.125000
vt 1.000000 0.187500
vt 0.937500 0.125000
vt 1.000000 0.125000
vt 0.187500 0.500000
vt 0.187500 0.562504
vt 0.125000 0.562504
vt 0.125000 0.500000
vt 0.250000 0.500000
vt 0.250000 0.562504
vt 0.062500 0.500000
vt 0.062500 0.562504
vt 0.000000 0.562504
vt 0.000000 0.500000
vt 0.250000 0.062500
vt 0.250000 0.125000
vt 0.187500 0.125000
vt 0.187500 0.062500
vt 0.187500 0.125000
vt 0.125000 0.125000
vt 0.125000 0.062500
vt 0.125000 0.125000
vt 0.062500 0.125000
vn 0.0000 -1.0000 0.0000
vn 0.0000 1.0000 0.0000
vn -0.9701 -0.2425 0.0000
vn 0.9701 -0.2425 0.0000
vn 0.0000 -0.2425 0.9701
vn 0.0000 -0.2425 -0.9701
vn 0.0000 0.0000 -1.0000
vn 1.0000 0.0000 0.0000
vn 0.0000 0.0000 1.0000
vn -1.0000 0.0000 0.0000
vn 0.9864 0.1644 0.0000
vn 0.0000 0.1644 0.9864
vn 0.0000 0.1644 -0.9864
vn -0.9864 0.1644 0.0000
vn 0.3586 -0.2236 -0.9063
vn 0.0424 -0.9982 0.0424
vn -0.9063 -0.2236 0.3586
vn -0.5901 0.5510 -0.5901
vn 0.5901 -0.5510 0.5901
vn -0.3586 0.2236 0.9063
vn 0.9063 0.2236 -0.3586
vn -0.0424 0.9982 -0.0424
vn -0.9063 -0.2236 -0.3586
vn 0.0424 -0.9982 -0.0424
vn 0.3586 -0.2236 0.9063
vn -0.5901 0.5510 0.5901
vn 0.5901 -0.5510 -0.5901
vn 0.9063 0.2236 0.3586
vn -0.3586 0.2236 -0.9063
vn -0.0424 0.9982 0.0424
vn -0.3586 -0.2236 0.9063
vn -0.0424 -0.9982 -0.0424
vn 0.9063 -0.2236 -0.3586
vn 0.5901 0.5510 0.5901
vn -0.5901 -0.5510 -0.5901
vn 0.3586 0.2236 -0.9063
vn -0.9063 0.2236 0.3586
vn 0.0424 0.9982 0.0424
vn 0.9063 -0.2236 0.3586
vn -0.0424 -0.9982 0.0424
vn -0.3586 -0.2236 -0.9063
vn 0.5901 0.5510 -0.5901
vn -0.5901 -0.5510 0.5901
vn -0.9063 0.2236 -0.3586
vn 0.3586 0.2236 0.9063
vn 0.0424 0.9982 -0.0424
vn -0.7071 -0.7071 0.0000
vn 0.0000 -0.7071 0.7071
vn 0.7071 -0.7071 0.0000
vn 0.0000 -0.7071 -0.7071
usemtl MAIN
s off
f 1/1/1 7/2/1 9/3/1 8/4/1
f 2/5/2 5/6/2 4/7/2 3/8/2
f 1/9/3 8/10/3 5/11/3 2/12/3
f 9/13/4 7/14/4 3/15/4 4/16/4
f 8/10/5 9/13/5 4/16/5 5/11/5
f 7/14/6 1/9/6 2/12/6 3/15/6
f 16/17/7 1/18/7 7/2/7 17/19/7
f 17/20/8 7/21/8 9/22/8 20/23/8
f 20/23/9 9/22/9 8/24/9 23/25/9
f 23/25/10 8/24/10 1/18/10 16/17/10
f 13/26/10 25/27/10 14/28/10 10/29/10
f 32/30/10 24/31/10 15/32/10 30/33/10
f 24/34/10 23/35/10 16/36/10 15/37/10
f 12/38/9 22/39/9 25/27/9 13/26/9
f 31/40/9 21/41/9 24/31/9 32/30/9
f 21/42/9 20/43/9 23/35/9 24/34/9
f 11/44/8 19/45/8 22/39/8 12/38/8
f 74/46/8 18/47/8 21/41/8 31/40/8
f 18/48/8 17/49/8 20/43/8 21/42/8
f 10/29/7 14/28/7 19/50/7 11/51/7
f 30/33/7 15/32/7 18/52/7 74/53/7
f 15/37/7 16/36/7 17/54/7 18/55/7
f 26/56/7 29/57/7 35/58/7 36/59/7
f 29/57/8 27/60/8 33/61/8 35/58/8
f 27/60/9 28/62/9 34/63/9 33/61/9
f 28/64/10 26/56/10 36/59/10 34/65/10
f 25/66/10 34/67/10 36/68/10 14/69/10
f 22/70/9 33/71/9 34/72/9 25/73/9
f 19/74/8 35/75/8 33/71/8 22/70/8
f 14/69/7 36/68/7 35/75/7 19/74/7
f 40/76/11 38/77/11 41/78/11
f 39/79/12 40/80/12 41/81/12
f 38/82/13 37/83/13 41/81/13
f 37/84/14 39/85/14 41/78/14
f 46/86/3 47/87/3 42/88/3 44/89/3
f 48/90/4 49/91/4 45/92/4 43/93/4
f 49/94/5 46/95/5 44/96/5 45/97/5
f 47/98/6 48/99/6 43/100/6 42/101/6
f 40/80/9 39/79/9 46/102/9 49/103/9
f 38/77/8 40/76/8 49/104/8 48/105/8
f 39/85/10 37/84/10 47/106/10 46/107/10
f 37/83/7 38/82/7 48/108/7 47/109/7
f 52/110/15 50/111/15 51/112/15
f 52/113/16 51/114/16 54/115/16
f 52/116/17 54/117/17 53/118/17
f 52/113/18 53/119/18 50/120/18
f 54/115/19 51/114/19 55/121/19
f 53/118/20 54/117/20 55/122/20
f 51/112/21 50/111/21 55/123/21
f 50/120/22 53/119/22 55/121/22
f 58/124/23 56/125/23 57/126/23
f 58/127/24 57/128/24 60/129/24
f 58/130/25 60/131/25 59/132/25
f 58/127/26 59/133/26 56/134/26
f 60/129/27 57/128/27 61/135/27
f 59/132/28 60/131/28 61/136/28
f 57/126/29 56/125/29 61/137/29
f 56/134/30 59/133/30 61/135/30
f 64/138/31 62/139/31 63/140/31
f 64/141/32 63/142/32 66/143/32
f 64/144/33 66/145/33 65/146/33
f 64/141/34 65/147/34 62/148/34
f 66/143/35 63/142/35 67/149/35
f 65/146/36 66/145/36 67/150/36
f 63/140/37 62/139/37 67/151/37
f 62/148/38 65/147/38 67/149/38
f 70/152/39 68/153/39 69/154/39
f 70/155/40 69/156/40 72/157/40
f 70/158/41 72/159/41 71/160/41
f 70/155/42 71/161/42 68/162/42
f 72/157/43 69/156/43 73/163/43
f 71/160/44 72/159/44 73/164/44
f 69/154/45 68/153/45 73/165/45
f 68/162/46 71/161/46 73/163/46
f 28/166/10 32/167/10 30/168/10 26/169/10
f 27/170/9 31/171/9 32/167/9 28/166/9
f 29/172/8 74/173/8 31/174/8 27/175/8
f 26/169/7 30/168/7 74/173/7 29/172/7
usemtl CHIMERITE
f 6/176/47 13/177/47 10/178/47
f 6/179/48 12/180/48 13/181/48
f 6/182/49 11/183/49 12/184/49
f 6/179/50 10/178/50 11/183/50
