# Blender v2.80 (sub 75) OBJ File: 'prisms.blend'
# www.blender.org
mtllib prism_octagon.mtl
o OCTAGON_BASE_PEDESTAL_Cylinder.001
v 0.619589 0.062500 0.211288
v 0.380411 0.062500 0.211288
v 0.211288 0.062500 0.380411
v 0.382382 -0.000000 0.216045
v 0.617618 -0.000000 0.216045
v 0.356494 0.062500 0.153545
v 0.153545 0.062500 0.356494
v 0.153545 -0.000000 0.356494
v 0.356494 -0.000000 0.153545
v 0.211288 0.062500 0.619589
v 0.216045 0.000000 0.617618
v 0.216045 -0.000000 0.382382
v 0.153545 0.062500 0.643506
v 0.153545 0.000000 0.643506
v 0.380411 0.062500 0.788712
v 0.619589 0.062500 0.788712
v 0.783955 -0.000000 0.617618
v 0.617618 -0.000000 0.783955
v 0.382382 -0.000000 0.783955
v 0.643506 0.062500 0.846455
v 0.356494 0.062500 0.846455
v 0.846455 0.062500 0.643506
v 0.846455 -0.000000 0.643506
v 0.643506 -0.000000 0.846455
v 0.356494 -0.000000 0.846455
v 0.500000 0.062500 0.500000
v 0.788712 0.062500 0.619589
v 0.788712 0.062500 0.380411
v 0.783955 0.000000 0.382383
v 0.846455 0.062500 0.356494
v 0.643506 0.062500 0.153545
v 0.643506 -0.000000 0.153545
v 0.846455 0.000000 0.356494
v 0.500000 -0.000000 0.500000
vt 0.875000 0.000000
vt 0.875000 0.062500
vt 0.625000 0.062500
vt 0.625000 0.000000
vt 0.687500 0.000000
vt 0.687500 0.062500
vt 0.937500 0.062500
vt 0.937500 0.000000
vt 0.875000 0.062500
vt 0.625000 0.062500
vt 0.645938 0.125000
vt 0.854062 0.125000
vt 0.687500 0.062500
vt 0.937500 0.062500
vt 0.916562 0.125000
vt 0.708438 0.125000
vt 0.916562 0.125000
vt 0.708438 0.125000
vt 0.687500 0.062500
vt 0.937500 0.062500
vt 0.854062 0.125000
vt 0.645938 0.125000
vt 0.625000 0.062500
vt 0.875000 0.062500
vt 0.708438 0.125000
vt 0.916562 0.125000
vt 0.812500 0.437500
vt 0.916562 0.125000
vt 0.812500 0.437500
vt 0.875000 0.000000
vt 0.875000 0.062500
vt 0.625000 0.062500
vt 0.625000 0.000000
vt 0.687500 0.000000
vt 0.687500 0.062500
vt 0.937500 0.062500
vt 0.937500 0.000000
vt 0.875000 0.062500
vt 0.625000 0.062500
vt 0.645938 0.125000
vt 0.854062 0.125000
vt 0.687500 0.062500
vt 0.937500 0.062500
vt 0.916562 0.125000
vt 0.708438 0.125000
vt 0.916562 0.125000
vt 0.708438 0.125000
vt 0.687500 0.062500
vt 0.937500 0.062500
vt 0.854062 0.125000
vt 0.645938 0.125000
vt 0.625000 0.062500
vt 0.875000 0.062500
vt 0.708438 0.125000
vt 0.916562 0.125000
vt 0.875000 0.000000
vt 0.875000 0.062500
vt 0.625000 0.062500
vt 0.625000 0.000000
vt 0.687500 0.000000
vt 0.687500 0.062500
vt 0.937500 0.062500
vt 0.937500 0.000000
vt 0.875000 0.062500
vt 0.625000 0.062500
vt 0.645938 0.125000
vt 0.854062 0.125000
vt 0.687500 0.062500
vt 0.937500 0.062500
vt 0.916562 0.125000
vt 0.708438 0.125000
vt 0.916562 0.125000
vt 0.708438 0.125000
vt 0.687500 0.062500
vt 0.937500 0.062500
vt 0.854062 0.125000
vt 0.645938 0.125000
vt 0.625000 0.062500
vt 0.875000 0.062500
vt 0.708438 0.125000
vt 0.916562 0.125000
vt 0.875000 0.000000
vt 0.875000 0.062500
vt 0.625000 0.062500
vt 0.625000 0.000000
vt 0.687500 0.000000
vt 0.687500 0.062500
vt 0.937500 0.062500
vt 0.937500 0.000000
vt 0.875000 0.062500
vt 0.625000 0.062500
vt 0.645938 0.125000
vt 0.854062 0.125000
vt 0.687500 0.062500
vt 0.937500 0.062500
vt 0.708438 0.125000
vt 0.916562 0.125000
vt 0.708438 0.125000
vt 0.687500 0.062500
vt 0.937500 0.062500
vt 0.854062 0.125000
vt 0.645938 0.125000
vt 0.625000 0.062500
vt 0.875000 0.062500
vt 0.708438 0.125000
vt 0.916562 0.125000
vn -0.0000 0.0000 -1.0000
vn -0.7071 0.0000 -0.7071
vn 0.0000 1.0000 0.0000
vn 0.0000 -1.0000 0.0000
vn -1.0000 0.0000 -0.0000
vn -0.7071 0.0000 0.7071
vn 0.0000 0.0000 1.0000
vn 0.7071 0.0000 0.7071
vn 1.0000 0.0000 0.0000
vn 0.7071 -0.0000 -0.7071
usemtl MAIN
s off
f 9/1/1 6/2/1 31/3/1 32/4/1
f 8/5/2 7/6/2 6/7/2 9/8/2
f 31/9/3 6/10/3 2/11/3 1/12/3
f 6/13/3 7/14/3 3/15/3 2/16/3
f 4/17/4 12/18/4 8/19/4 9/20/4
f 5/21/4 4/22/4 9/23/4 32/24/4
f 4/25/4 5/26/4 34/27/4
f 1/28/3 2/16/3 26/29/3
f 2/16/3 3/15/3 26/29/3
f 12/18/4 4/17/4 34/27/4
f 14/30/5 13/31/5 7/32/5 8/33/5
f 25/34/6 21/35/6 13/36/6 14/37/6
f 7/38/3 13/39/3 10/40/3 3/41/3
f 13/42/3 21/43/3 15/44/3 10/45/3
f 11/46/4 19/47/4 25/48/4 14/49/4
f 12/50/4 11/51/4 14/52/4 8/53/4
f 11/54/4 12/55/4 34/27/4
f 3/15/3 10/45/3 26/29/3
f 10/45/3 15/44/3 26/29/3
f 19/47/4 11/46/4 34/27/4
f 24/56/7 20/57/7 21/58/7 25/59/7
f 23/60/8 22/61/8 20/62/8 24/63/8
f 21/64/3 20/65/3 16/66/3 15/67/3
f 20/68/3 22/69/3 27/70/3 16/71/3
f 18/72/4 17/73/4 23/74/4 24/75/4
f 19/76/4 18/77/4 24/78/4 25/79/4
f 18/80/4 19/81/4 34/27/4
f 15/44/3 16/71/3 26/29/3
f 16/71/3 27/70/3 26/29/3
f 17/73/4 18/72/4 34/27/4
f 33/82/9 30/83/9 22/84/9 23/85/9
f 32/86/10 31/87/10 30/88/10 33/89/10
f 22/90/3 30/91/3 28/92/3 27/93/3
f 30/94/3 31/95/3 1/28/3 28/96/3
f 29/97/4 5/98/4 32/99/4 33/100/4
f 17/101/4 29/102/4 33/103/4 23/104/4
f 29/105/4 17/106/4 34/27/4
f 27/70/3 28/96/3 26/29/3
f 28/96/3 1/28/3 26/29/3
f 5/98/4 29/97/4 34/27/4
o OCTAGON_PRISM_PEDESTAL_Cylinder.002
v 0.788712 0.062500 0.380411
v 0.788712 0.062500 0.619589
v 0.720792 0.150720 0.500000
v 0.279208 0.150720 0.500000
v 0.380411 0.062500 0.211288
v 0.500000 0.150720 0.279208
v 0.380411 0.062500 0.788712
v 0.500000 0.150720 0.720792
v 0.619588 0.062500 0.211288
v 0.656123 0.150720 0.343877
v 0.211288 0.062500 0.619588
v 0.500000 0.437500 0.500000
v 0.343877 0.150720 0.656123
v 0.211287 0.062500 0.380412
v 0.343877 0.150720 0.343877
v 0.619588 0.062500 0.788713
v 0.656123 0.150720 0.656123
vt 0.062500 0.937500
vt 0.062500 1.000000
vt 0.375000 1.000000
vt 0.062500 0.937500
vt 0.375000 1.000000
vt 0.062500 0.937500
vt 0.062500 1.000000
vt 0.062500 1.000000
vt 0.062500 0.937500
vt 0.375000 1.000000
vt 0.062500 0.937500
vt 0.375000 1.000000
vt 0.062500 1.000000
vt 0.062500 1.000000
vt 0.062500 0.937500
vt 0.375000 1.000000
vt 0.062500 0.937500
vt 0.375000 1.000000
vt 0.062500 1.000000
vt 0.062500 1.000000
vt 0.062500 0.937500
vt 0.375000 1.000000
vt 0.062500 0.937500
vt 0.375000 1.000000
vt 0.062500 1.000000
vt 0.062500 1.000000
vn -0.7924 0.6100 -0.0000
vn 0.7924 0.6100 0.0000
vn -0.0000 0.6100 0.7924
vn 0.0000 0.6100 -0.7924
vn -0.5603 0.6100 0.5603
vn 0.5603 0.6100 -0.5603
vn 0.5603 0.6100 0.5603
vn -0.5603 0.6100 -0.5603
usemtl MAIN
s off
f 45/107/11 46/108/11 38/109/11
f 35/110/12 46/108/12 37/111/12
f 46/112/12 36/113/12 37/111/12
f 46/112/11 48/114/11 38/109/11
f 36/113/12 35/110/12 37/111/12
f 48/114/11 45/107/11 38/109/11
f 50/115/13 46/108/13 42/116/13
f 39/117/14 46/108/14 40/118/14
f 46/112/14 43/119/14 40/118/14
f 46/112/13 41/120/13 42/116/13
f 43/119/14 39/117/14 40/118/14
f 41/120/13 50/115/13 42/116/13
f 41/121/15 46/108/15 47/122/15
f 43/123/16 46/108/16 44/124/16
f 46/112/16 35/125/16 44/124/16
f 46/112/15 45/126/15 47/122/15
f 35/125/16 43/123/16 44/124/16
f 45/126/15 41/121/15 47/122/15
f 36/127/17 46/108/17 51/128/17
f 48/129/18 46/108/18 49/130/18
f 46/112/18 39/131/18 49/130/18
f 46/112/17 50/132/17 51/128/17
f 39/131/18 48/129/18 49/130/18
f 50/132/17 36/127/17 51/128/17
