# Blender v2.80 (sub 75) OBJ File: 'manaweaving_projector.blend'
# www.blender.org
mtllib manaweaving_projector_inventory.mtl
o MAIN_BODY_Cylinder
v 0.447381 0.124750 0.552619
v 0.552619 0.124750 0.552619
v 0.552619 0.124750 0.447381
v 0.447381 0.124750 0.447381
v 0.372967 0.124750 0.447381
v 0.447381 0.124750 0.372967
v 0.372967 0.124750 0.552619
v 0.447381 0.124750 0.627033
v 0.552619 0.124750 0.627033
v 0.627033 0.124750 0.552619
v 0.627033 0.124750 0.447381
v 0.552619 0.124750 0.372967
v 0.372967 0.062250 0.447381
v 0.447381 0.062250 0.372967
v 0.372967 0.062250 0.552619
v 0.447381 0.062250 0.627033
v 0.552619 0.062250 0.627033
v 0.627033 0.062250 0.552619
v 0.627033 0.062250 0.447381
v 0.552619 0.062250 0.372967
v 0.500000 -0.000250 0.500000
v 0.399546 0.062250 0.742518
v 0.399546 -0.000250 0.742518
v 0.257482 0.062250 0.600454
v 0.257482 -0.000250 0.600454
v 0.257482 0.062250 0.399546
v 0.399546 0.062250 0.257482
v 0.600454 0.062250 0.742518
v 0.742518 0.062250 0.600454
v 0.742518 0.062250 0.399546
v 0.600454 0.062250 0.257482
v 0.257482 -0.000250 0.399546
v 0.600454 -0.000250 0.257482
v 0.399546 -0.000250 0.257482
v 0.600454 -0.000250 0.742518
v 0.742518 -0.000250 0.600454
v 0.742518 -0.000250 0.399546
v 0.372967 0.500250 0.447381
v 0.447381 0.500250 0.447381
v 0.552619 0.500250 0.447381
v 0.552619 0.500250 0.552619
v 0.447381 0.500250 0.552619
v 0.447381 0.500250 0.372967
v 0.372967 0.500250 0.552619
v 0.447381 0.500250 0.627033
v 0.552619 0.500250 0.627033
v 0.627033 0.500250 0.552619
v 0.627033 0.500250 0.447381
v 0.552619 0.500250 0.372967
v 0.372967 0.562750 0.447381
v 0.447381 0.562750 0.372967
v 0.372967 0.562750 0.552619
v 0.447381 0.562750 0.627033
v 0.552619 0.562750 0.627033
v 0.627033 0.562750 0.552619
v 0.627033 0.562750 0.447381
v 0.552619 0.562750 0.372967
v 0.436483 0.562750 0.473691
v 0.473691 0.562750 0.436483
v 0.436483 0.562750 0.526309
v 0.473691 0.562750 0.563517
v 0.526309 0.562750 0.563517
v 0.563517 0.562750 0.526309
v 0.563517 0.562750 0.473691
v 0.526309 0.562750 0.436483
v 0.500000 0.531500 0.500000
vt 0.031250 0.961677
vt 0.018306 0.930427
vt 0.044194 0.930427
vt 0.018306 0.930427
vt 0.812500 0.500000
vt 0.812500 0.437500
vt 0.937500 0.437500
vt 0.937500 0.500000
vt 0.562500 0.500000
vt 0.562500 0.437500
vt 0.687500 0.437500
vt 0.687500 0.500000
vt 0.812500 0.500000
vt 0.812500 0.437500
vt 0.937500 0.437500
vt 0.937500 0.500000
vt 0.562500 0.500000
vt 0.562500 0.437500
vt 0.687500 0.437500
vt 0.687500 0.500000
vt 0.812500 0.500000
vt 0.812500 0.437500
vt 0.937500 0.437500
vt 0.937500 0.500000
vt 0.562500 0.500000
vt 0.562500 0.437500
vt 0.687500 0.437500
vt 0.687500 0.500000
vt 0.812500 0.500000
vt 0.812500 0.437500
vt 0.937500 0.437500
vt 0.937500 0.500000
vt 0.562500 0.500000
vt 0.562500 0.437500
vt 0.687500 0.437500
vt 0.687500 0.500000
vt 0.822948 0.437500
vt 0.774448 0.312500
vt 0.975552 0.312500
vt 0.927052 0.437500
vt 0.062500 0.500000
vt 0.062500 0.625000
vt 0.187500 0.625000
vt 0.187500 0.500000
vt 0.572948 0.437500
vt 0.524448 0.312500
vt 0.725552 0.312500
vt 0.677052 0.437500
vt 1.000000 1.000000
vt 0.875000 1.000000
vt 0.875000 0.875000
vt 1.000000 0.875000
vt 0.044194 0.930427
vt 0.774448 0.312500
vt 0.774448 0.250000
vt 0.975552 0.250000
vt 0.975552 0.312500
vt 0.524448 0.312500
vt 0.524448 0.250000
vt 0.725552 0.250000
vt 0.725552 0.312500
vt 0.774448 0.312500
vt 0.774448 0.250000
vt 0.975552 0.250000
vt 0.975552 0.312500
vt 0.524448 0.312500
vt 0.524448 0.250000
vt 0.725552 0.250000
vt 0.725552 0.312500
vt 0.774448 0.312500
vt 0.774448 0.250000
vt 0.975552 0.250000
vt 0.975552 0.312500
vt 0.524448 0.250000
vt 0.725552 0.250000
vt 0.774448 0.250000
vt 0.975552 0.250000
vt 0.524448 0.312500
vt 0.524448 0.250000
vt 0.725552 0.250000
vt 0.725552 0.312500
vt 0.018306 0.930427
vt 0.822948 0.437500
vt 0.927052 0.437500
vt 0.572948 0.437500
vt 0.677052 0.437500
vt 0.572948 0.437500
vt 0.677052 0.437500
vt 0.044194 0.930427
vt 0.822948 0.437500
vt 0.927052 0.437500
vt 0.018306 0.930427
vt 0.572948 0.437500
vt 0.677052 0.437500
vt 0.044194 0.930427
vt 0.822948 0.437500
vt 0.927052 0.437500
vt 0.562500 0.500000
vt 0.687500 0.500000
vt 0.687500 0.437500
vt 0.562500 0.437500
vt 0.812500 0.500000
vt 0.937500 0.500000
vt 0.937500 0.437500
vt 0.812500 0.437500
vt 0.562500 0.500000
vt 0.687500 0.500000
vt 0.687500 0.437500
vt 0.562500 0.437500
vt 0.812500 0.500000
vt 0.937500 0.500000
vt 0.937500 0.437500
vt 0.812500 0.437500
vt 0.312500 0.500000
vt 0.312500 0.625000
vt 0.187500 0.625000
vt 0.187500 0.500000
vt 0.812500 0.500000
vt 0.937500 0.500000
vt 0.937500 0.437500
vt 0.812500 0.437500
vt 0.562500 0.500000
vt 0.687500 0.500000
vt 0.687500 0.437500
vt 0.562500 0.437500
vt 0.812500 0.500000
vt 0.937500 0.500000
vt 0.937500 0.437500
vt 0.812500 0.437500
vt 0.562500 0.500000
vt 0.687500 0.500000
vt 0.687500 0.437500
vt 0.562500 0.437500
vt 0.250000 0.625000
vt 0.125000 0.624998
vt 0.125000 0.499998
vt 0.250000 0.499998
vt 0.187500 0.625000
vt 0.062500 0.625000
vt 0.062500 0.500000
vt 0.187500 0.500000
vt 0.125000 0.500000
vt 0.125000 0.625000
vt 0.000000 0.625000
vt 0.000000 0.499998
vt 0.937500 0.250000
vt 0.937494 0.375000
vt 0.500005 0.375000
vt 0.500000 0.250000
vt 0.937500 0.250000
vt 0.500000 0.250000
vt 0.500000 0.250000
vt 0.500005 0.375000
vt 0.937494 0.375000
vt 0.937500 0.250000
vt 0.499997 0.250000
vt 0.937495 0.250000
vt 0.937496 0.250000
vt 0.499997 0.250000
vt 0.499997 0.375000
vt 0.937486 0.375000
vt 0.499997 0.250000
vt 0.937496 0.250000
vt 0.500000 0.250000
vt 0.937500 0.250000
vt 0.937494 0.375000
vt 0.500004 0.375000
vt 0.937496 0.250000
vt 0.499997 0.250000
vt 0.312500 0.500000
vt 0.187500 0.500000
vt 0.187500 0.625000
vt 0.312500 0.625000
vt 0.125000 0.500000
vt 0.000000 0.499998
vt 0.000000 0.625000
vt 0.125000 0.625000
vt 0.125000 0.499998
vt 0.125000 0.624998
vt 0.250000 0.625000
vt 0.250000 0.499998
vt 0.875000 1.000000
vt 1.000000 1.000000
vt 1.000000 0.875000
vt 0.875000 0.875000
vt 0.500000 0.250000
vt 0.500000 0.375000
vt 0.937500 0.375000
vt 0.937500 0.250000
vt 0.500000 0.375000
vt 0.937500 0.375000
vt 0.500000 0.375000
vt 0.937500 0.375000
vt 0.500000 0.375000
vt 0.937500 0.375000
vt 0.135448 0.500000
vt 0.161474 0.562500
vt 0.213526 0.562500
vt 0.239552 0.500000
vt 0.385448 0.500000
vt 0.411474 0.562500
vt 0.463526 0.562500
vt 0.489552 0.500000
vt 0.135448 0.500000
vt 0.161474 0.562500
vt 0.213526 0.562500
vt 0.239552 0.500000
vt 0.260448 0.500000
vt 0.286474 0.562500
vt 0.338526 0.562500
vt 0.364552 0.500000
vt 0.010448 0.500000
vt 0.036474 0.562500
vt 0.088526 0.562500
vt 0.114552 0.500000
vt 0.260448 0.500000
vt 0.286474 0.562500
vt 0.338526 0.562500
vt 0.364552 0.500000
vt 0.010448 0.500000
vt 0.036474 0.562500
vt 0.088526 0.562500
vt 0.114552 0.500000
vt 0.385448 0.500000
vt 0.411474 0.562500
vt 0.463526 0.562500
vt 0.489552 0.500000
vt 0.692296 0.374746
vt 0.718354 0.437282
vt 0.744148 0.374637
vt 0.754796 0.374746
vt 0.780854 0.437282
vt 0.806648 0.374637
vt 0.692296 0.374746
vt 0.744148 0.374637
vt 0.754796 0.437246
vt 0.780854 0.499782
vt 0.806648 0.437137
vt 0.692296 0.437246
vt 0.718354 0.499782
vt 0.744148 0.437137
vt 0.806648 0.437137
vt 0.754796 0.437246
vt 0.744148 0.437137
vt 0.692296 0.437246
vt 0.754796 0.374746
vt 0.806648 0.374637
vn 0.0000 -1.0000 0.0000
vn 0.7071 0.0000 0.7071
vn 0.0000 0.0000 -1.0000
vn -0.7071 0.0000 0.7071
vn 1.0000 0.0000 0.0000
vn -0.7071 0.0000 -0.7071
vn 0.0000 0.0000 1.0000
vn 0.7071 0.0000 -0.7071
vn -1.0000 0.0000 0.0000
vn 0.0000 1.0000 -0.0000
vn 0.0000 0.8973 -0.4415
vn -0.4415 0.8973 0.0000
vn 0.0000 0.8973 0.4415
vn 0.3122 0.8973 0.3122
vn 0.3122 0.8973 -0.3122
vn -0.3122 0.8973 -0.3122
vn -0.3122 0.8973 0.3122
vn 0.4415 0.8973 0.0000
usemtl MAIN
s off
f 21/1/1 37/2/1 36/3/1
f 21/1/1 36/3/1 35/4/1
f 9/5/2 17/6/2 18/7/2 10/8/2
f 12/9/3 20/10/3 14/11/3 6/12/3
f 7/13/4 15/14/4 16/15/4 8/16/4
f 10/17/5 18/18/5 19/19/5 11/20/5
f 6/21/6 14/22/6 13/23/6 5/24/6
f 8/25/7 16/26/7 17/27/7 9/28/7
f 11/29/8 19/30/8 20/31/8 12/32/8
f 5/33/9 13/34/9 15/35/9 7/36/9
f 15/37/10 24/38/10 22/39/10 16/40/10
f 49/41/1 40/42/1 39/43/1 43/44/1
f 13/45/10 26/46/10 24/47/10 15/48/10
f 3/49/10 4/50/10 1/51/10 2/52/10
f 21/1/1 35/4/1 23/53/1
f 30/54/8 37/55/8 33/56/8 31/57/8
f 29/58/5 36/59/5 37/60/5 30/61/5
f 28/62/2 35/63/2 36/64/2 29/65/2
f 31/66/3 33/67/3 34/68/3 27/69/3
f 27/70/6 34/71/6 32/72/6 26/73/6
f 26/46/9 32/74/9 25/75/9 24/47/9
f 24/38/4 25/76/4 23/77/4 22/39/4
f 22/78/7 23/79/7 35/80/7 28/81/7
f 21/1/1 23/53/1 25/82/1
f 14/83/10 27/70/10 26/73/10 13/84/10
f 20/85/10 31/66/10 27/69/10 14/86/10
f 16/87/10 22/78/10 28/81/10 17/88/10
f 21/1/1 33/89/1 37/2/1
f 17/90/10 28/62/10 29/65/10 18/91/10
f 21/1/1 34/92/1 33/89/1
f 18/93/10 29/58/10 30/61/10 19/94/10
f 21/1/1 32/95/1 34/92/1
f 19/96/10 30/54/10 31/57/10 20/97/10
f 21/1/1 25/82/1 32/95/1
f 47/98/5 48/99/5 56/100/5 55/101/5
f 44/102/4 45/103/4 53/104/4 52/105/4
f 49/106/3 43/107/3 51/108/3 57/109/3
f 46/110/2 47/111/2 55/112/2 54/113/2
f 9/114/10 2/115/10 1/116/10 8/117/10
f 43/118/6 38/119/6 50/120/6 51/121/6
f 45/122/7 46/123/7 54/124/7 53/125/7
f 48/126/8 49/127/8 57/128/8 56/129/8
f 38/130/9 44/131/9 52/132/9 50/133/9
f 1/134/10 4/135/10 5/136/10 7/137/10
f 4/138/10 3/139/10 12/140/10 6/141/10
f 11/142/10 3/143/10 2/144/10 10/145/10
f 48/146/7 40/147/7 3/148/7 11/149/7
f 40/147/9 49/150/9 12/151/9 3/148/9
f 10/152/3 2/153/3 41/154/3 47/155/3
f 2/153/9 9/156/9 46/157/9 41/154/9
f 7/158/3 44/159/3 42/160/3 1/161/3
f 1/161/5 42/160/5 45/162/5 8/163/5
f 6/164/5 43/165/5 39/166/5 4/167/5
f 4/167/7 39/166/7 38/168/7 5/169/7
f 46/170/1 45/171/1 42/172/1 41/173/1
f 48/174/1 47/175/1 41/176/1 40/177/1
f 38/178/1 39/179/1 42/180/1 44/181/1
f 39/182/1 40/183/1 41/184/1 42/185/1
f 7/186/4 8/187/4 45/188/4 44/189/4
f 9/190/2 10/152/2 47/155/2 46/191/2
f 11/149/8 12/192/8 49/193/8 48/146/8
f 6/194/6 5/169/6 38/168/6 43/195/6
f 53/196/10 61/197/10 60/198/10 52/199/10
f 55/200/10 63/201/10 62/202/10 54/203/10
f 57/204/10 65/205/10 64/206/10 56/207/10
f 52/208/10 60/209/10 58/210/10 50/211/10
f 54/212/10 62/213/10 61/214/10 53/215/10
f 56/216/10 64/217/10 63/218/10 55/219/10
f 51/220/10 59/221/10 65/222/10 57/223/10
f 50/224/10 58/225/10 59/226/10 51/227/10
f 62/228/11 66/229/11 61/230/11
f 64/231/12 66/232/12 63/233/12
f 59/234/13 66/229/13 65/235/13
f 58/236/14 66/237/14 59/238/14
f 61/239/15 66/240/15 60/241/15
f 63/242/16 66/237/16 62/243/16
f 65/244/17 66/240/17 64/245/17
f 60/246/18 66/232/18 58/247/18
o SHAPE_PEDESTAL_Cube.010
v 0.562500 0.750000 0.562500
v 0.531250 1.000000 0.531250
v 0.562500 0.750000 0.437500
v 0.531250 1.000000 0.468750
v 0.437500 0.750000 0.562500
v 0.468750 1.000000 0.531250
v 0.437500 0.750000 0.437500
v 0.468750 1.000000 0.468750
v 0.562500 0.937500 0.562500
v 0.562500 0.937500 0.437500
v 0.437500 0.937500 0.437500
v 0.437500 0.937500 0.562500
v 0.593750 1.000000 0.406250
v 0.406250 1.000000 0.406250
v 0.593750 0.937500 0.406250
v 0.406250 0.937500 0.406250
v 0.593750 0.937500 0.593750
v 0.593750 1.000000 0.593750
v 0.406250 1.000000 0.593750
v 0.406250 0.937500 0.593750
v 0.500000 0.625000 0.500000
vt 0.656250 0.968750
vt 0.687500 1.000000
vt 0.500000 1.000000
vt 0.531250 0.968750
vt 0.625000 0.875000
vt 0.687500 0.812500
vt 0.500000 0.812500
vt 0.562499 0.875000
vt 0.937500 0.937500
vt 0.937500 0.875000
vt 0.875000 0.875000
vt 0.875000 0.937500
vt 0.187500 0.125000
vt 0.187500 0.000000
vt -0.000000 0.000000
vt -0.000000 0.125000
vt 0.187500 0.250000
vt -0.000000 0.250000
vt 0.187500 0.125000
vt 0.187500 0.000000
vt -0.000000 0.000000
vt -0.000000 0.125000
vt 0.187500 0.250000
vt -0.000000 0.250000
vt 0.687500 0.687500
vt 0.500000 0.687500
vt 0.500000 0.750000
vt 0.687500 0.750000
vt 0.562499 0.937500
vt 0.500000 1.000000
vt 0.687500 1.000000
vt 0.625000 0.937500
vt 0.687500 0.687500
vt 0.500000 0.687500
vt 0.500000 0.750000
vt 0.687500 0.750000
vt 0.531250 0.843750
vt 0.500000 0.812500
vt 0.687500 0.812500
vt 0.656250 0.843750
vt 0.687500 0.750000
vt 0.500000 0.750000
vt 0.500000 0.812500
vt 0.687500 0.812500
vt 0.687500 0.750000
vt 0.500000 0.750000
vt 0.500000 0.812500
vt 0.687500 0.812500
vt 0.375000 0.062500
vt 0.375000 0.187500
vn 0.0000 -1.0000 0.0000
vn 0.0000 1.0000 0.0000
vn 0.0000 0.0000 1.0000
vn -1.0000 0.0000 0.0000
vn 0.0000 0.0000 -1.0000
vn 1.0000 0.0000 0.0000
vn 0.0000 -0.4472 -0.8944
vn -0.8944 -0.4472 0.0000
vn 0.0000 -0.4472 0.8944
vn 0.8944 -0.4472 0.0000
usemtl MAIN
s off
f 77/248/19 82/249/19 81/250/19 76/251/19
f 72/252/20 85/253/20 84/254/20 68/255/20
f 74/256/20 72/257/20 68/258/20 70/259/20
f 71/260/21 67/261/21 75/262/21 78/263/21
f 73/264/22 71/260/22 78/263/22 77/265/22
f 69/266/23 73/267/23 77/268/23 76/269/23
f 67/270/24 69/266/24 76/269/24 75/271/24
f 81/272/23 82/273/23 80/274/23 79/275/23
f 70/276/20 79/277/20 80/278/20 74/279/20
f 86/280/21 83/281/21 84/282/21 85/283/21
f 75/284/19 83/285/19 86/286/19 78/287/19
f 83/288/24 81/289/24 79/290/24 84/291/24
f 76/251/19 81/250/19 83/285/19 75/284/19
f 68/255/20 84/254/20 79/277/20 70/276/20
f 82/292/22 86/293/22 85/294/22 80/295/22
f 74/279/20 80/278/20 85/253/20 72/252/20
f 78/287/19 86/286/19 82/249/19 77/248/19
f 69/266/25 87/296/25 73/267/25
f 73/264/26 87/297/26 71/260/26
f 71/260/27 87/296/27 67/261/27
f 67/270/28 87/297/28 69/266/28
