# Blender v2.83.5 OBJ File: 'astro_blade.blend'
# www.blender.org
mtllib astro_blade_blade.mtl
o Blade_Cube.006
v 0.468750 0.281250 0.531250
v 0.500000 0.281250 0.593750
v 0.468750 0.281250 0.468750
v 0.500000 0.281250 0.406250
v 0.531250 0.281250 0.531250
v 0.531250 0.281250 0.468750
v 0.531250 1.281250 0.531250
v 0.500000 1.281250 0.593750
v 0.468750 1.281250 0.531250
v 0.468750 1.281250 0.468750
v 0.531250 1.281250 0.468750
v 0.500000 1.281250 0.406250
v 0.500000 1.468750 0.531250
v 0.500000 1.468750 0.468750
vt 0.843750 0.000000
vt 0.875000 0.062500
vt 0.812500 0.062500
vt 0.875000 0.125000
vt 0.812500 0.125000
vt 0.843750 0.187500
vt 0.625000 0.000000
vt 0.562500 0.000000
vt 0.625000 0.187500
vt 0.687500 0.187500
vt 0.687500 0.000000
vt 0.375000 0.000000
vt 0.437500 0.187500
vt 0.437500 0.000000
vt 0.062500 -0.000000
vt 0.062500 1.000000
vt 0.125000 1.000000
vt 0.125000 0.000000
vt 0.000000 0.000000
vt 0.000000 1.000000
vt 0.187500 1.000000
vt 0.187500 0.000000
vt 0.312500 -0.000000
vt 0.312500 1.000000
vt 0.375000 1.000000
vt 0.375000 -0.000000
vt 0.250000 -0.000000
vt 0.250000 1.000000
vt 0.750000 0.000000
vt 0.500000 0.000000
vt 0.500000 0.187500
vn 0.0000 1.0000 -0.0000
vn -0.8847 -0.1474 -0.4423
vn -0.9864 -0.1644 0.0000
vn 0.8847 -0.1474 0.4423
vn -1.0000 0.0000 0.0000
vn -0.8944 0.0000 -0.4472
vn -0.8944 0.0000 0.4472
vn 0.8944 0.0000 -0.4472
vn 1.0000 0.0000 0.0000
vn 0.8944 0.0000 0.4472
vn -0.8847 -0.1474 0.4423
vn 0.8847 -0.1474 -0.4423
vn 0.9864 -0.1644 0.0000
usemtl BLADE
s off
f 2/1/1 5/2/1 1/3/1
f 1/3/1 5/2/1 6/4/1 3/5/1
f 4/6/1 3/5/1 6/4/1
f 7/7/2 8/8/2 13/9/2
f 7/7/3 13/9/3 14/10/3 11/11/3
f 12/12/4 14/13/4 10/14/4
f 5/15/5 7/16/5 11/17/5 6/18/5
f 2/19/6 8/20/6 7/16/6 5/15/6
f 6/18/7 11/17/7 12/21/7 4/22/7
f 1/23/8 9/24/8 8/25/8 2/26/8
f 3/27/9 10/28/9 9/24/9 1/23/9
f 4/22/10 12/21/10 10/28/10 3/27/10
f 11/11/11 14/10/11 12/29/11
f 9/30/12 13/31/12 8/8/12
f 10/14/13 14/13/13 13/31/13 9/30/13
