# Blender v2.80 (sub 75) OBJ File: 'supplier_crystal.blend'
# www.blender.org
mtllib supplier_inventory.mtl
o UPPER_Cube.003
v 0.500000 1.732050 0.500000
v 0.449303 1.804453 0.588388
v 0.449302 1.804453 0.411612
v 0.398605 1.876857 0.500000
v 0.602394 1.803747 0.500000
v 0.551697 1.876150 0.588388
v 0.551696 1.876150 0.411612
v 0.500999 1.948554 0.500000
v 0.500000 1.781865 0.500000
v 0.398605 1.926672 0.676776
v 0.398605 1.926672 0.323223
v 0.297210 2.071479 0.500000
v 0.704788 1.925260 0.500000
v 0.603393 2.070066 0.676776
v 0.603393 2.070066 0.323223
v 0.501998 2.214874 0.500000
vt 0.750000 0.500000
vt 1.000000 0.500000
vt 1.000000 0.750000
vt 0.750000 0.750000
vt 1.000000 1.000000
vt 0.750000 1.000000
vt 1.000000 0.750000
vt 0.750000 1.000000
vt 0.750000 0.750000
vt 1.000000 0.500000
vt 1.000000 0.750000
vt 0.750000 0.750000
vt 1.000000 0.500000
vt 0.750000 1.000000
vt 0.875000 0.875000
vt 0.625000 0.875000
vt 0.625000 0.625000
vt 0.875000 0.625000
vt 0.625000 0.125000
vt 0.625000 0.375000
vt 0.375000 0.375000
vt 0.375000 0.125000
vt 0.625000 0.875000
vt 0.625000 0.625000
vt 0.875000 0.625000
vt 0.875000 0.875000
vt 0.375000 0.125000
vt 0.625000 0.125000
vt 0.625000 0.375000
vt 0.375000 0.375000
vt 0.375000 0.625000
vt 0.375000 0.875000
vt 0.125000 0.875000
vt 0.125000 0.625000
vt 0.375000 0.875000
vt 0.125000 0.875000
vt 0.125000 0.625000
vt 0.375000 0.625000
vn -0.8192 -0.5736 0.0000
vn -0.4056 0.5792 -0.7071
vn 0.8192 0.5736 0.0000
vn 0.4056 -0.5792 0.7071
vn 0.4056 -0.5792 -0.7071
vn -0.4056 0.5792 0.7071
usemtl MAIN
s off
f 1/1/1 2/2/1 4/3/1 3/4/1
f 3/4/2 4/3/2 8/5/2 7/6/2
f 7/7/3 8/5/3 6/8/3 5/9/3
f 5/10/4 6/11/4 2/12/4 1/1/4
f 3/13/5 7/7/5 5/9/5 1/1/5
f 8/5/6 4/14/6 2/12/6 6/11/6
usemtl CHIMERITE
f 9/15/1 10/16/1 12/17/1 11/18/1
f 11/19/2 12/20/2 16/21/2 15/22/2
f 15/23/3 16/24/3 14/25/3 13/26/3
f 13/27/4 14/28/4 10/29/4 9/30/4
f 11/31/5 15/32/5 13/33/5 9/34/5
f 16/35/6 12/36/6 10/37/6 14/38/6
o LOWER_EXTERIOR_Cube.004
v 0.091462 1.154598 1.207107
v -0.316642 0.577145 0.500000
v 0.499565 1.732051 0.500000
v 0.091462 1.154598 -0.207107
v 0.908103 0.577453 1.207107
v 0.500000 0.000000 0.500000
v 1.316207 1.154906 0.500000
v 0.908103 0.577453 -0.207107
v 0.014942 1.046326 1.074524
v -0.240122 0.685418 0.632582
v 0.423046 1.623779 0.367417
v 0.167981 1.262871 -0.074524
v 0.984623 0.685725 -0.074524
v 1.239687 1.046633 0.367417
v 0.831584 0.469180 1.074524
v 0.576519 0.108272 0.632582
v 0.167981 1.262871 1.074524
v 0.423046 1.623779 0.632582
v -0.240122 0.685418 0.367417
v 0.014942 1.046326 -0.074524
v 0.831584 0.469180 -0.074524
v 0.576519 0.108272 0.367417
v 1.239687 1.046633 0.632583
v 0.984623 0.685725 1.074524
v -0.163603 0.793690 0.500000
v 0.091462 1.154598 0.058058
v 0.091462 1.154598 0.941942
v 0.346526 1.515506 0.500000
v 0.908103 0.577453 0.058058
v 0.653039 0.216545 0.500000
v 1.163168 0.938361 0.500000
v 0.908103 0.577453 0.941942
v 0.754983 0.685668 -0.207107
v 0.244582 1.046383 -0.207107
v 0.754983 0.685668 1.207107
v 0.244582 1.046383 1.207107
v 0.652685 1.623836 0.500000
v 1.163086 1.263120 0.500000
v 0.346880 0.108215 0.500000
v -0.163521 0.468931 0.500000
v 0.321101 1.154656 -0.074524
v 0.831502 0.793940 -0.074524
v 0.576166 1.515564 0.367417
v 1.086567 1.154848 0.367417
v 0.168063 0.938111 1.074524
v 0.678464 0.577395 1.074524
v -0.087002 0.577203 0.632582
v 0.423399 0.216487 0.632582
v -0.087002 0.577203 0.367417
v 0.423399 0.216487 0.367417
v 0.168063 0.938111 -0.074524
v 0.678464 0.577395 -0.074524
v 0.576166 1.515564 0.632582
v 1.086567 1.154848 0.632582
v 0.321101 1.154656 1.074524
v 0.831502 0.793940 1.074524
v 0.908076 0.685706 -0.030330
v 0.805996 0.757849 -0.030330
v 0.754983 0.685668 -0.118719
v 0.857063 0.613524 0.058058
v 0.806050 0.541343 -0.030330
v 0.806050 0.541343 1.030330
v 0.857063 0.613524 0.941942
v 0.703970 0.613486 -0.030330
v 0.908076 0.685706 1.030330
v 0.805996 0.757849 1.030330
v 1.163141 1.046614 0.588388
v 1.112128 0.974433 0.500000
v 0.703970 0.613486 1.030330
v 1.163141 1.046614 0.411612
v 1.112073 1.190939 0.500000
v 1.061061 1.118757 0.411612
v 0.754983 0.685668 1.118718
v 1.061061 1.118757 0.588388
v 0.397893 0.180396 0.500000
v 0.448906 0.252578 0.588388
v 0.550986 0.180435 0.411612
v 0.448906 0.252578 0.411612
v 0.550986 0.180435 0.588388
v 0.601999 0.252616 0.500000
v 0.448645 1.551570 0.588388
v 0.601672 1.551655 0.500000
v 0.550659 1.479473 0.588388
v 0.448645 1.551570 0.411612
v 0.397632 1.479388 0.500000
v 0.270067 1.298957 0.720971
v 0.423127 1.299019 0.190641
v 0.550659 1.479473 0.411612
v 0.193515 1.190708 -0.030330
v 0.295595 1.118565 -0.030330
v 0.142502 1.118527 0.058058
v 0.091489 1.046345 1.030330
v 0.193569 0.974202 1.030330
v 0.244582 1.046383 1.118718
v 0.295595 1.118565 1.030330
v 0.142502 1.118527 0.941942
v 0.193515 1.190708 1.030330
v -0.112563 0.757619 0.500000
v -0.163576 0.685437 0.588388
v -0.163576 0.685437 0.411612
v -0.036044 0.865891 0.809359
v -0.061496 0.613294 0.588388
v -0.112508 0.541112 0.500000
v 0.066037 0.793748 0.809359
v -0.061495 0.613294 0.411612
v 0.014969 0.938073 0.720971
v 0.244582 1.046383 -0.118719
v 0.193569 0.974202 -0.030330
v 0.091489 1.046345 -0.030330
v 0.270067 1.298958 0.279029
v 0.321080 1.371139 0.190641
v 0.423127 1.299019 0.809359
v 0.321080 1.371139 0.809359
v 0.933528 0.938303 0.809359
v 0.984596 0.793979 0.720971
v 1.035609 0.866160 0.809359
v 0.499783 0.866025 1.118718
v 0.448770 0.793844 1.030330
v 0.550795 0.938207 1.030330
v 0.193705 0.432936 0.588388
v 0.142692 0.360754 0.500000
v 0.193705 0.432936 0.411612
v 0.448770 0.793844 -0.030330
v 0.550795 0.938207 -0.030330
v 0.499783 0.866026 -0.118719
v 0.729531 0.433070 0.279029
v 0.576438 0.433032 0.190641
v 0.678518 0.360889 0.190641
v 0.014969 0.938073 0.279029
v 0.066037 0.793748 0.190641
v -0.036043 0.865891 0.190641
v 0.805860 1.299115 0.588388
v 0.805860 1.299115 0.411612
v 0.856873 1.371297 0.500000
v 0.933528 0.938303 0.190641
v 1.035609 0.866160 0.190641
v 0.984596 0.793979 0.279029
v 0.729531 0.433070 0.720971
v 0.678518 0.360889 0.809359
v 0.576438 0.433032 0.809359
vt 0.375000 0.625000
vt 0.500000 0.625000
vt 0.500000 0.875000
vt 0.375000 1.000000
vt 0.750000 1.000000
vt 0.625000 1.000000
vt 0.625000 0.750000
vt 0.750000 0.625000
vt 0.375000 0.625000
vt 0.500000 0.625000
vt 0.500000 0.875000
vt 0.375000 1.000000
vt 0.000000 0.125000
vt 0.000000 0.375000
vt 0.625000 0.375000
vt 0.625000 0.125000
vt 0.000000 0.375000
vt 0.000000 0.125000
vt 0.625000 0.125000
vt 0.625000 0.375000
vt 0.375000 1.000000
vt 0.250000 0.875000
vt 0.250000 0.625000
vt 0.375000 0.625000
vt 0.750000 0.625000
vt 0.625000 0.750000
vt 0.375000 0.750000
vt 0.375000 0.625000
vt 0.250000 0.750000
vt 0.000000 0.750000
vt 0.000000 0.625000
vt 0.750000 0.625000
vt 0.750000 0.750000
vt 0.500000 0.750000
vt 0.375000 0.625000
vt 0.000000 0.625000
vt 0.125000 0.625000
vt 0.125000 0.875000
vt 0.000000 1.000000
vt 0.750000 0.625000
vt 0.750000 0.750000
vt 0.500000 0.750000
vt 0.375000 0.625000
vt 0.000000 1.000000
vt 0.000000 0.875000
vt 0.375000 0.875000
vt 0.375000 1.000000
vt 0.375000 0.625000
vt 0.250000 0.750000
vt 0.000000 0.750000
vt 0.000000 0.625000
vt 0.500000 1.000000
vt 0.375000 1.000000
vt 0.000000 1.000000
vt 0.125000 0.875000
vt 0.375000 0.875000
vt 0.375000 1.000000
vt 0.750000 1.000000
vt 0.625000 1.000000
vt 0.250000 1.000000
vt 0.750000 0.875000
vt 0.750000 1.000000
vt 0.375000 0.625000
vt 0.375000 0.750000
vt 0.125000 0.750000
vt 0.000000 0.625000
vt 0.125000 1.000000
vt 0.000000 1.000000
vt 0.000000 0.625000
vt 0.125000 0.750000
vt 0.125000 1.000000
vt 0.000000 1.000000
vt 0.375000 0.625000
vt 0.375000 0.750000
vt 0.375000 0.625000
vt 0.375000 0.750000
vt 0.125000 0.750000
vt 0.000000 0.625000
vt 0.750000 0.625000
vt 0.750000 1.000000
vt 0.375000 1.000000
vt 0.375000 0.625000
vt 0.125000 1.000000
vt 0.000000 1.000000
vt 0.375000 1.000000
vt 0.750000 0.625000
vt 0.750000 1.000000
vt 0.375000 1.000000
vt 0.375000 0.875000
vt 0.625000 0.875000
vt 0.750000 1.000000
vt 0.750000 1.000000
vt 0.625000 0.875000
vt 0.625000 0.625000
vt 0.750000 0.625000
vt 0.750000 1.000000
vt 0.625000 0.875000
vt 0.625000 0.625000
vt 0.750000 0.625000
vt 0.375000 1.000000
vt 0.375000 0.875000
vt 0.625000 0.625000
vt 0.750000 0.625000
vt 0.375000 1.000000
vt 0.375000 0.875000
vt 0.375000 1.000000
vt 0.500000 0.875000
vt 0.750000 0.875000
vt 0.750000 1.000000
vt 0.750000 1.000000
vt 0.625000 1.000000
vt 0.625000 0.750000
vt 0.750000 0.625000
vt 0.375000 1.000000
vt 0.250000 0.875000
vt 0.250000 0.625000
vt 0.375000 0.625000
vt 0.625000 0.375000
vt 0.000000 0.375000
vt 0.000000 0.625000
vt 0.625000 0.625000
vt 0.000000 1.000000
vt 0.000000 0.875000
vt 0.000000 1.000000
vt 0.000000 0.625000
vt 0.375000 0.625000
vt 0.375000 1.000000
vt 0.250000 1.000000
vt 0.250000 0.750000
vt 0.375000 0.625000
vt 0.000000 0.625000
vt 0.125000 0.625000
vt 0.125000 0.875000
vt 0.000000 1.000000
vt 0.000000 0.125000
vt 0.000000 0.375000
vt 0.625000 0.375000
vt 0.625000 0.125000
vt 0.000000 0.125000
vt 0.625000 0.125000
vt 0.750000 0.625000
vt 0.750000 1.000000
vt 0.375000 1.000000
vt 0.750000 0.875000
vt 0.750000 1.000000
vt 0.000000 1.000000
vt 0.000000 0.625000
vt 0.375000 0.625000
vt 0.375000 1.000000
vt 0.250000 0.875000
vt 0.250000 0.625000
vt 0.375000 0.625000
vt 0.375000 0.625000
vt 0.000000 1.000000
vt 0.000000 0.625000
vt 0.375000 0.750000
vt 0.000000 1.000000
vt 0.000000 0.875000
vt 0.000000 0.625000
vt 0.000000 0.750000
vt 0.375000 0.875000
vt 0.000000 1.000000
vt 0.000000 0.625000
vt 0.375000 0.625000
vt 0.375000 0.625000
vt 0.500000 0.750000
vt 0.500000 1.000000
vt 0.375000 1.000000
vt 0.750000 0.625000
vt 0.750000 1.000000
vt 0.375000 1.000000
vt 0.750000 0.625000
vt 0.750000 0.750000
vt 0.750000 1.000000
vt 0.375000 1.000000
vt 0.750000 0.625000
vt 0.375000 0.625000
vt 0.750000 0.625000
vt 0.750000 1.000000
vt 0.375000 1.000000
vt 0.500000 0.625000
vt 0.000000 0.625000
vt 0.375000 0.625000
vt 0.000000 1.000000
vt 0.375000 0.750000
vt 0.000000 0.625000
vt 0.375000 0.625000
vt 0.375000 1.000000
vt 0.000000 1.000000
vt 0.375000 0.625000
vt 0.000000 1.000000
vt 0.000000 0.625000
vt 0.000000 1.000000
vt 0.000000 0.625000
vt 0.375000 0.625000
vt 0.000000 0.125000
vt -0.000000 0.375000
vt 0.625000 0.375000
vt 0.625000 0.125000
vt 0.625000 0.625000
vt 0.000000 0.625000
vt 0.000000 0.375000
vt 0.625000 0.375000
vt 0.000000 0.125000
vt 0.625000 0.125000
vt 0.250000 1.000000
vt 0.000000 0.625000
vt 0.125000 0.625000
vt 0.500000 1.000000
vt 0.375000 1.000000
vt 0.000000 1.000000
vt 0.000000 0.625000
vt 0.375000 0.625000
vt 0.375000 1.000000
vt 0.750000 0.625000
vt 0.750000 1.000000
vt 0.000000 1.000000
vt 0.000000 0.625000
vt 0.375000 0.625000
vt 0.000000 0.375000
vt 0.625000 0.375000
vt 0.000000 0.125000
vt 0.000000 0.125000
vt 0.000000 1.000000
vt 0.000000 0.625000
vt 0.375000 0.625000
vt 0.750000 1.000000
vt 0.375000 1.000000
vt 0.750000 0.625000
vt 0.375000 1.000000
vt 0.750000 0.625000
vt 0.750000 1.000000
vt 0.625000 0.625000
vt 0.625000 0.375000
vt 0.000000 0.375000
vt 0.000000 0.625000
vt 0.000000 0.375000
vt 0.000000 0.125000
vt 0.625000 0.125000
vt 0.625000 0.375000
vt 0.000000 0.125000
vt 0.000000 0.375000
vt 0.625000 0.375000
vt 0.000000 0.125000
vt 0.625000 0.125000
vt 0.375000 1.000000
vt 0.750000 0.625000
vt 0.750000 1.000000
vt 0.750000 1.000000
vt 0.375000 1.000000
vt 0.750000 0.625000
vt 0.000000 1.000000
vt 0.000000 0.625000
vt 0.375000 0.625000
vt 0.000000 0.125000
vt 0.625000 0.125000
vt 0.625000 0.375000
vt -0.000000 0.375000
vt 0.000000 0.125000
vt 0.625000 0.125000
vt 0.375000 1.000000
vt 0.750000 0.625000
vt 0.750000 1.000000
vt 0.625000 0.625000
vt 0.000000 0.625000
vt 0.000000 0.375000
vt 0.625000 0.375000
vt 0.625000 0.375000
vt 0.000000 0.375000
vt 0.000000 0.375000
vt 0.000000 0.125000
vt 0.625000 0.125000
vt 0.625000 0.375000
vt 0.625000 0.125000
vt 0.000000 0.125000
vt 0.625000 0.375000
vt 0.000000 0.625000
vt 0.625000 0.625000
vt 0.000000 0.375000
vt 0.625000 0.375000
vt 0.625000 0.625000
vt 0.000000 0.625000
vt 0.000000 0.375000
vt 0.625000 0.375000
vt 0.000000 0.125000
vt -0.000000 0.375000
vt 0.625000 0.375000
vt 0.000000 0.375000
vt 0.625000 0.375000
vt 0.625000 0.625000
vt 0.000000 0.625000
vt 0.000000 0.375000
vt 0.625000 0.375000
vt 0.000000 0.125000
vt 0.000000 0.375000
vt 0.625000 0.375000
vt 0.000000 0.375000
vt 0.625000 0.375000
vt 0.625000 0.625000
vt 0.000000 0.625000
vt 0.000000 0.375000
vt 0.625000 0.375000
vt 0.000000 0.375000
vt 0.625000 0.375000
vt 0.625000 0.125000
vt 0.000000 0.125000
vt 0.625000 0.375000
vt 0.625000 0.625000
vt 0.000000 0.625000
vt 0.000000 0.375000
vt 0.625000 0.375000
vt 0.000000 0.625000
vt 0.625000 0.625000
vt 0.625000 0.375000
vt 0.625000 0.375000
vt 0.000000 0.625000
vt 0.625000 0.625000
vt 0.625000 0.375000
vt 0.000000 0.375000
vt 0.625000 0.375000
vt 0.625000 0.375000
vt 0.000000 0.375000
vt 0.000000 0.125000
vt 0.625000 0.125000
vt 0.625000 0.125000
vt 0.000000 0.125000
vt 0.000000 0.125000
vt 0.625000 0.375000
vt 0.000000 0.625000
vt 0.000000 0.375000
vt 0.625000 0.375000
vt 0.625000 0.625000
vt 0.625000 0.375000
vt 0.000000 0.375000
vt 0.000000 0.375000
vt 0.625000 0.375000
vt 0.000000 0.125000
vt 0.625000 0.125000
vt 0.625000 0.375000
vt 0.625000 0.125000
vt 0.000000 0.125000
vt -0.000000 0.375000
vt 0.000000 0.125000
vt 0.625000 0.125000
vn -0.4081 -0.5775 -0.7071
vn 0.8166 -0.5771 0.0000
vn -0.8166 0.5772 -0.0001
vn -0.8166 0.5771 0.0000
vn -0.4081 -0.5775 0.7071
vn 0.4081 0.5775 0.7071
vn 0.4081 0.5775 -0.7071
vn -0.8166 0.5772 0.0001
usemtl MAIN
s off
f 47/39/7 84/40/7 86/41/7 30/42/7
f 43/43/7 112/44/7 108/45/7 25/46/7
f 61/47/8 109/48/8 110/49/8 52/50/8
f 102/51/9 129/52/9 97/53/9 101/54/9
f 147/55/10 145/56/10 107/57/10 125/58/10
f 54/59/10 87/60/10 90/61/10 70/62/10
f 39/63/11 83/64/11 84/65/11 47/39/11
f 29/66/12 73/67/12 76/68/12 45/69/12
f 62/70/7 85/71/7 78/72/7 31/73/7
f 48/74/13 79/75/13 81/76/13 40/77/13
f 45/78/11 76/79/11 77/80/11 37/81/11
f 60/82/10 88/83/10 87/60/10 54/59/10
f 40/77/13 81/76/13 82/84/13 72/85/13
f 51/86/10 89/87/10 85/88/10 62/89/10
f 31/73/7 78/72/7 79/90/7 48/91/7
f 49/92/10 75/93/10 74/94/10 58/95/10
f 70/96/11 90/97/11 83/64/11 39/63/11
f 72/85/10 82/98/10 89/87/10 51/86/10
f 30/42/7 86/41/7 88/99/7 60/100/7
f 46/101/12 96/102/12 95/103/12 32/104/12
f 32/104/12 95/103/12 92/105/12 64/106/12
f 55/107/10 91/108/10 94/109/10 66/110/10
f 64/111/10 92/112/10 91/108/10 55/107/10
f 66/113/13 94/114/13 93/115/13 38/116/13
f 55/117/7 66/118/7 38/119/7 22/120/7
f 38/116/13 93/115/13 96/121/13 46/122/13
f 55/123/11 22/120/11 32/124/11 64/125/11
f 69/126/8 99/127/8 98/128/8 53/129/8
f 34/130/11 97/131/11 99/132/11 69/133/11
f 27/134/7 100/135/7 101/136/7 44/137/7
f 44/138/11 101/139/11 97/131/11 34/130/11
f 53/129/8 98/128/8 104/140/8 59/141/8
f 59/142/7 104/143/7 100/135/7 27/134/7
f 36/144/11 125/145/11 107/146/11 42/147/11
f 57/148/8 106/149/8 123/150/8 50/151/8
f 28/152/12 105/153/12 106/154/12 57/155/12
f 146/156/7 121/157/7 116/158/7 147/159/7
f 42/160/12 107/161/12 105/153/12 28/152/12
f 57/162/13 50/163/13 20/164/13 28/152/13
f 41/165/13 114/166/13 116/167/13 35/168/13
f 63/169/12 118/170/12 115/171/12 26/172/12
f 122/173/10 117/174/10 108/175/10 112/176/10
f 120/177/11 109/178/11 108/175/11 117/174/11
f 61/47/11 52/179/11 17/180/11 25/181/11
f 52/50/8 110/49/8 111/182/8 71/183/8
f 43/184/10 25/185/10 17/186/10 33/187/10
f 33/187/13 113/188/13 112/189/13 43/190/13
f 71/191/12 33/187/12 17/192/12 52/193/12
f 25/46/7 108/45/7 109/194/7 61/47/7
f 71/195/13 111/196/13 113/188/13 33/187/13
f 65/197/13 35/168/13 116/167/13 121/198/13
f 26/172/12 115/171/12 114/199/12 41/165/12
f 41/165/10 35/200/10 18/201/10 26/202/10
f 56/203/8 119/204/8 118/205/8 63/206/8
f 56/203/11 63/207/11 26/208/11 18/209/11
f 56/203/8 65/210/8 121/211/8 119/204/8
f 35/212/7 65/213/7 56/203/7 18/214/7
f 67/215/7 36/216/7 20/217/7 50/218/7
f 67/215/11 124/219/11 125/145/11 36/144/11
f 36/220/10 42/221/10 28/152/10 20/222/10
f 50/151/8 123/150/8 124/223/8 67/215/8
f 44/224/10 34/225/10 19/226/10 27/227/10
f 53/228/12 19/226/12 34/229/12 69/230/12
f 53/231/13 59/232/13 27/233/13 19/226/13
f 103/234/13 127/235/13 100/236/13 104/237/13
f 127/238/14 105/239/14 107/240/14 126/241/14
f 128/242/12 99/243/12 97/53/12 129/52/12
f 58/95/12 74/244/12 73/67/12 29/66/12
f 68/245/10 80/246/10 75/93/10 49/92/10
f 37/81/11 77/80/11 80/247/11 68/248/11
f 54/59/13 23/249/13 30/250/13 60/251/13
f 39/252/8 47/39/8 30/253/8 23/254/8
f 54/59/12 70/255/12 39/256/12 23/257/12
f 150/258/12 98/259/12 99/243/12 148/260/12
f 150/258/13 149/261/13 104/237/13 98/259/13
f 51/262/12 21/263/12 40/264/12 72/85/12
f 40/265/8 21/266/8 31/73/8 48/267/8
f 62/268/11 31/73/11 21/269/11 51/270/11
f 132/271/12 130/272/12 82/273/12 81/274/12
f 132/275/8 131/276/8 84/277/8 83/278/8
f 134/279/11 133/280/11 110/281/11 109/178/11
f 135/282/12 111/283/12 110/281/12 133/280/12
f 45/284/8 37/81/8 24/285/8 29/286/8
f 49/287/7 24/288/7 37/81/7 68/289/7
f 58/95/13 29/290/13 24/291/13 49/292/13
f 139/293/7 124/294/7 123/295/7 141/296/7
f 140/297/13 141/296/13 123/295/13 106/298/13
f 32/299/8 22/120/8 38/300/8 46/301/8
f 155/302/8 95/303/8 96/304/8 154/305/8
f 155/302/11 156/306/11 92/307/11 95/303/11
f 137/308/11 136/309/11 118/310/11 119/311/11
f 137/308/7 119/311/7 121/312/7 138/313/7
f 142/314/8 96/304/8 93/315/8 144/316/8
f 144/316/7 93/315/7 94/317/7 143/318/7
f 152/319/13 73/320/13 74/321/13 151/322/13
f 153/323/8 152/324/8 86/325/8 84/277/8
f 118/326/11 120/327/11 117/328/11 115/329/11
f 114/330/10 115/329/10 117/328/10 122/331/10
f 100/236/14 127/235/14 126/332/14 101/54/14
f 106/333/13 105/239/13 127/238/13 103/334/13
f 111/335/12 128/336/12 129/337/12 113/338/12
f 112/339/9 113/338/9 129/337/9 102/340/9
f 81/274/8 79/341/8 131/342/8 132/271/8
f 83/278/12 90/343/12 130/344/12 132/275/12
f 82/273/12 135/345/12 133/346/12 89/347/12
f 85/348/11 89/347/11 133/346/11 134/349/11
f 91/350/7 137/351/7 138/352/7 94/317/7
f 91/350/11 92/307/11 136/353/11 137/351/11
f 74/321/13 75/354/13 141/355/13 140/356/13
f 80/357/7 139/358/7 141/355/7 75/354/7
f 77/359/7 144/360/7 143/361/7 80/362/7
f 76/363/8 142/364/8 144/360/8 77/359/8
f 124/294/7 146/365/7 147/55/7 125/58/7
f 116/158/10 114/330/10 145/366/10 147/159/10
f 87/367/13 88/368/13 149/369/13 150/370/13
f 87/367/12 150/370/12 148/371/12 90/372/12
f 76/373/8 73/320/8 152/319/8 153/374/8
f 86/325/13 152/324/13 151/375/13 88/376/13
f 78/377/11 85/378/11 156/379/11 155/380/11
f 78/377/8 155/380/8 154/381/8 79/382/8
o LOWER_INTERIOR_Cube.006
v 0.805996 0.757849 -0.030330
v 0.857063 0.613524 0.058058
v 0.857063 0.613524 0.941942
v 0.703970 0.613486 -0.030330
v 0.805996 0.757849 1.030330
v 1.112128 0.974433 0.500000
v 0.703970 0.613486 1.030330
v 1.061061 1.118757 0.411612
v 1.061061 1.118757 0.588388
v 0.448906 0.252578 0.588388
v 0.448906 0.252578 0.411612
v 0.601999 0.252616 0.500000
v 0.550659 1.479473 0.588388
v 0.397632 1.479388 0.500000
v 0.550659 1.479473 0.411612
v 0.295595 1.118565 -0.030330
v 0.142502 1.118527 0.058058
v 0.193569 0.974202 1.030330
v 0.295595 1.118565 1.030330
v 0.142502 1.118527 0.941942
v -0.112563 0.757619 0.500000
v -0.061496 0.613294 0.588388
v -0.061495 0.613294 0.411612
v 0.193569 0.974202 -0.030330
vt 0.000100 0.000100
vt 0.000100 0.999900
vt 0.999900 0.999900
vt 0.999900 0.000100
vt 0.999900 0.999900
vt 0.999900 0.000100
vt 0.000100 0.000100
vt 0.000100 0.999900
vt 0.999900 0.999900
vt 0.999900 0.000100
vt 0.000100 0.000100
vt 0.000100 0.999900
vt 0.999900 0.000100
vt 0.000100 0.000100
vt 0.000100 0.999900
vt 0.999900 0.999900
vt 0.999900 0.999900
vt 0.999900 0.000100
vt 0.000100 0.000100
vt 0.000100 0.999900
vt 0.000100 0.000100
vt 0.000100 0.999900
vt 0.999900 0.999900
vt 0.999899 0.000100
vn 0.8166 -0.5772 -0.0000
vn 0.4081 0.5775 0.7071
vn -0.4081 -0.5775 0.7071
vn -0.4081 -0.5775 -0.7071
vn 0.4081 0.5775 -0.7071
vn -0.8166 0.5771 -0.0000
vn 0.5771 0.8166 0.0000
vn 0.8660 0.0002 0.5000
vn 0.8660 0.0002 -0.5000
vn 0.9427 0.3336 0.0000
vn -0.5771 -0.8166 -0.0000
vn 0.2890 -0.8165 -0.4999
vn 0.2890 -0.8165 0.4999
vn 0.0006 -1.0000 0.0000
vn -0.0000 -0.0000 1.0000
vn 0.4715 -0.3332 0.8165
vn -0.8660 -0.0002 0.5000
vn -0.8660 -0.0002 -0.5000
vn -0.9427 -0.3336 0.0000
vn 0.0000 0.0000 -1.0000
vn -0.2889 0.8164 -0.5000
vn -0.4715 0.3332 -0.8165
vn 0.4715 -0.3332 -0.8165
vn -0.2889 0.8164 0.5000
vn -0.4715 0.3332 0.8165
vn -0.0003 1.0000 0.0000
usemtl STARFIELD
s off
f 176/383/15 177/384/15 173/385/15 170/386/15
f 179/387/16 167/388/16 160/389/16 180/390/16
f 172/391/17 157/392/17 164/393/17 171/394/17
f 175/395/18 169/396/18 165/397/18 161/398/18
f 178/399/19 174/400/19 163/401/19 166/402/19
f 162/403/20 158/404/20 168/405/20 159/406/20
f 179/387/21 178/399/21 166/402/21 167/388/21
f 173/385/22 177/384/22 179/387/22 180/390/22
f 178/399/23 177/384/23 176/383/23 174/400/23
f 179/387/24 177/384/24 178/399/24
f 169/396/25 171/394/25 164/393/25 165/397/25
f 170/386/26 169/396/26 175/395/26 176/383/26
f 172/391/27 171/394/27 170/386/27 173/385/27
f 169/396/28 170/386/28 171/394/28
f 180/390/29 160/389/29 157/392/29 172/391/29
f 173/385/30 180/390/30 172/391/30
f 158/404/31 162/403/31 164/393/31 157/392/31
f 165/397/32 162/403/32 159/406/32 161/398/32
f 164/393/33 162/403/33 165/397/33
f 174/400/34 175/395/34 161/398/34 163/401/34
f 168/405/35 166/402/35 163/401/35 159/406/35
f 161/398/36 159/406/36 163/401/36
f 176/383/37 175/395/37 174/400/37
f 168/405/38 158/404/38 160/389/38 167/388/38
f 157/392/39 160/389/39 158/404/39
f 166/402/40 168/405/40 167/388/40
