# Blender v2.80 (sub 75) OBJ File: 'wellspring_pillar.blend'
# www.blender.org
mtllib wellspring_pillar_inventory.mtl
o PYLON_INVENTORY_Cube.002
v 0.250000 1.250000 0.750000
v 0.250000 1.250000 0.250000
v 0.750000 1.250000 0.750000
v 0.750000 1.250000 0.250000
v 0.687500 1.437500 0.687500
v 0.687500 1.375000 0.687500
v 0.687500 1.312500 0.687500
v 0.312500 1.437500 0.312500
v 0.312500 1.375000 0.312500
v 0.312500 1.312500 0.312500
v 0.687500 1.312500 0.312500
v 0.687500 1.375000 0.312500
v 0.687500 1.437500 0.312500
v 0.312500 1.312500 0.687500
v 0.312500 1.375000 0.687500
v 0.312500 1.437500 0.687500
v 0.750000 1.312500 0.250000
v 0.750000 1.312500 0.750000
v 0.750000 1.375000 0.250000
v 0.750000 1.375000 0.750000
v 0.750000 1.437500 0.250000
v 0.750000 1.437500 0.750000
v 0.250000 1.312500 0.750000
v 0.250000 1.375000 0.750000
v 0.250000 1.437500 0.750000
v 0.250000 1.312500 0.250000
v 0.250000 1.375000 0.250000
v 0.250000 1.437500 0.250000
v 0.000000 1.000000 0.000000
v 0.000000 0.000000 0.000000
v 1.000000 0.000000 0.000000
v 1.000000 1.000000 0.000000
v 0.000000 0.000000 1.000000
v 0.000000 1.000000 1.000000
v 1.000000 1.000000 1.000000
v 1.000000 0.000000 1.000000
v 0.500000 1.562500 0.500000
v 0.500000 0.000000 0.000000
v 0.500000 1.250000 0.750000
v 0.500000 1.250000 0.250000
v 0.500000 1.000000 1.000000
v 0.500000 0.000000 1.000000
v 0.500000 1.000000 0.000000
v 0.000000 0.000000 0.500000
v 0.000000 1.000000 0.500000
v 1.000000 0.000000 0.500000
v 1.000000 1.000000 0.500000
v 0.250000 1.250000 0.500000
v 0.750000 1.250000 0.500000
v 0.500000 0.000000 0.500000
vt 1.000000 0.250000
vt 0.750000 0.250000
vt 0.500000 0.000000
vt 1.000000 0.000000
vt 1.000000 0.250000
vt 0.750000 0.250000
vt 0.500000 0.000000
vt 1.000000 0.000000
vt 0.031250 0.093750
vt 0.046875 0.093750
vt 0.046875 0.109375
vt 0.031250 0.109375
vt 1.000000 0.250000
vt 0.750000 0.250000
vt 0.500000 0.000000
vt 1.000000 0.000000
vt 1.000000 0.250000
vt 0.750000 0.250000
vt 0.500000 0.000000
vt 1.000000 0.000000
vt 0.750000 0.000000
vt 1.000000 0.000000
vt 0.874999 0.250000
vt 0.000000 0.250000
vt 0.250000 0.250000
vt 0.000000 0.312500
vt 0.500000 0.312500
vt 0.000000 0.312500
vt 0.250000 0.250000
vt 0.750000 0.000000
vt 1.000000 0.000000
vt 0.500000 0.312500
vt 0.500000 0.250000
vt 0.500000 0.312500
vt 0.000000 0.312500
vt 0.000000 0.250000
vt 0.437500 0.375000
vt 0.062500 0.375000
vt 0.500000 0.250000
vt 0.500000 0.312500
vt 0.000000 0.312500
vt 0.000000 0.250000
vt 0.437500 0.375000
vt 0.062500 0.375000
vt 0.437500 0.375000
vt 0.500000 0.312500
vt 0.000000 0.312500
vt 0.500000 0.250000
vt 0.500000 0.312500
vt 0.000000 0.312500
vt 0.000000 0.250000
vt 0.062500 0.375000
vt 0.500000 0.250000
vt 0.500000 0.312500
vt 0.000000 0.312500
vt 0.000000 0.250000
vt 0.750000 0.000000
vt 1.000000 0.000000
vt 0.437500 0.375000
vt 0.500000 0.312500
vt 0.750000 0.000000
vt 1.000000 0.000000
vt 0.062500 0.375000
vt 0.000000 0.312500
vt 0.437500 0.375000
vt 0.062500 0.375000
vt 0.437500 0.375000
vt 0.062500 0.375000
vt 0.500000 0.250000
vt 0.000000 0.250000
vt 0.250000 0.250000
vt 0.000000 0.312500
vt 0.500000 0.250000
vt 0.500000 0.312500
vt 0.000000 0.250000
vt 0.500000 0.250000
vt 0.015625 0.093750
vt 0.015625 0.109375
vt 0.015625 0.078125
vt 0.031250 0.078125
vt 0.046875 0.078125
vt 0.000000 0.250000
vt 0.250000 0.250000
vt 0.000000 0.312500
vt 0.500000 0.250000
vt 0.500000 0.312500
vt 1.000000 0.000000
vt 1.000000 0.500000
vt 0.750000 0.500000
vt 0.750000 0.000000
vt 0.500000 0.500000
vt 0.500000 0.000000
vt 0.250000 0.500000
vt 0.250000 0.000000
vt 0.000000 0.500000
vt 0.000000 0.000000
vt 1.000000 0.500000
vt 1.000000 1.000000
vt 0.750000 1.000000
vt 0.750000 0.500000
vt 0.500000 1.000000
vt 0.500000 0.500000
vt 0.250000 1.000000
vt 0.250000 0.500000
vt -0.000000 1.000000
vt -0.000000 0.500000
vt 0.687500 0.375000
vt 0.687500 0.437500
vt 0.312500 0.437500
vt 0.312500 0.375000
vt 0.687500 0.375000
vt 0.687500 0.437500
vt 0.312500 0.437500
vt 0.312500 0.375000
vt 0.687500 0.375000
vt 0.687500 0.437500
vt 0.312500 0.437500
vt 0.312500 0.375000
vt 0.687500 0.375000
vt 0.687500 0.437500
vt 0.312500 0.437500
vt 0.312500 0.375000
vn -0.7071 0.7071 0.0000
vn 0.0000 0.7071 -0.7071
vn 0.0000 -1.0000 0.0000
vn 0.0000 0.7071 0.7071
vn 0.7071 0.7071 0.0000
vn 0.5547 0.8321 0.0000
vn 1.0000 0.0000 0.0000
vn -1.0000 0.0000 0.0000
vn -0.5547 0.8321 0.0000
vn 0.0000 1.0000 0.0000
vn 0.0000 0.0000 1.0000
vn 0.0000 0.0000 -1.0000
vn 0.0000 0.8321 0.5547
vn 0.0000 0.8321 -0.5547
usemtl MAIN
s off
f 48/1/1 2/2/1 29/3/1 45/4/1
f 40/5/2 4/6/2 32/7/2 43/8/2
f 50/9/3 46/10/3 36/11/3 42/12/3
f 39/13/4 1/14/4 34/15/4 41/16/4
f 49/17/5 3/18/5 35/19/5 47/20/5
f 5/21/6 13/22/6 37/23/6
f 3/24/7 49/25/7 18/26/7
f 23/27/8 26/28/8 48/29/8
f 8/30/9 16/31/9 37/23/9
f 17/32/7 18/26/7 49/25/7
f 19/33/7 21/34/7 22/35/7 20/36/7
f 11/37/10 7/38/10 18/26/10 17/32/10
f 20/39/11 22/40/11 25/41/11 24/42/11
f 7/38/10 14/43/10 23/27/10 18/26/10
f 15/44/3 6/45/3 20/46/3 24/47/3
f 27/48/12 28/49/12 21/50/12 19/51/12
f 10/52/10 11/37/10 17/32/10 26/28/10
f 24/53/8 25/54/8 28/55/8 27/56/8
f 14/43/10 10/52/10 26/28/10 23/27/10
f 16/57/13 5/58/13 37/23/13
f 9/59/3 15/44/3 24/47/3 27/60/3
f 13/61/14 8/62/14 37/23/14
f 6/45/3 12/63/3 19/64/3 20/46/3
f 12/63/3 9/59/3 27/60/3 19/64/3
f 5/65/10 16/66/10 25/41/10 22/40/10
f 16/66/10 8/67/10 28/49/10 25/41/10
f 13/68/10 5/65/10 22/40/10 21/50/10
f 4/69/7 17/32/7 49/25/7
f 4/70/12 40/71/12 17/72/12
f 2/73/12 26/74/12 40/71/12
f 2/75/8 48/29/8 26/28/8
f 26/74/12 17/72/12 40/71/12
f 1/76/8 23/27/8 48/29/8
f 3/18/4 39/13/4 41/16/4 35/19/4
f 44/77/3 50/9/3 42/12/3 33/78/3
f 2/2/2 40/5/2 43/8/2 29/3/2
f 30/79/3 38/80/3 50/9/3 44/77/3
f 4/6/5 49/17/5 47/20/5 32/7/5
f 38/80/3 31/81/3 46/10/3 50/9/3
f 1/14/1 48/1/1 45/4/1 34/15/1
f 1/82/11 39/83/11 23/84/11
f 3/85/11 18/86/11 39/83/11
f 18/86/11 23/84/11 39/83/11
f 8/67/10 13/68/10 21/50/10 28/49/10
usemtl GLYPH_FACE
f 31/87/7 32/88/7 47/89/7 46/90/7
f 46/90/7 47/89/7 35/91/7 36/92/7
f 36/92/11 35/91/11 41/93/11 42/94/11
f 42/94/11 41/93/11 34/95/11 33/96/11
f 33/97/8 34/98/8 45/99/8 44/100/8
f 44/100/8 45/99/8 29/101/8 30/102/8
f 30/102/12 29/101/12 43/103/12 38/104/12
f 38/104/12 43/103/12 32/105/12 31/106/12
usemtl CHIMERITE
f 7/107/11 6/108/11 15/109/11 14/110/11
f 10/111/12 9/112/12 12/113/12 11/114/12
f 11/115/7 12/116/7 6/117/7 7/118/7
f 14/119/8 15/120/8 9/121/8 10/122/8
