# Blender v2.80 (sub 75) OBJ File: 'urns.blend'
# www.blender.org
mtllib urn_standard.mtl
o URN_STANDARD_Cube.009
v 0.375000 0.000000 0.625000
v 0.312500 0.125000 0.687500
v 0.375000 0.000000 0.375000
v 0.312500 0.125000 0.312500
v 0.625000 0.000000 0.625000
v 0.687500 0.125000 0.687500
v 0.625000 0.000000 0.375000
v 0.687500 0.125000 0.312500
v 0.312500 0.750000 0.687500
v 0.312500 0.750000 0.312500
v 0.687500 0.750000 0.312500
v 0.687500 0.750000 0.687500
v 0.406250 0.875000 0.593750
v 0.406250 0.875000 0.406250
v 0.593750 0.875000 0.406250
v 0.593750 0.875000 0.593750
v 0.406250 0.937500 0.593750
v 0.406250 0.937500 0.406250
v 0.593750 0.937500 0.406250
v 0.593750 0.937500 0.593750
v 0.437500 1.000000 0.562500
v 0.437500 1.000000 0.437500
v 0.562500 1.000000 0.562500
v 0.562500 1.000000 0.437500
v 0.625000 0.937500 0.625000
v 0.375000 0.937500 0.625000
v 0.625000 1.000000 0.625000
v 0.375000 1.000000 0.625000
v 0.375000 0.937500 0.375000
v 0.625000 0.937500 0.375000
v 0.375000 1.000000 0.375000
v 0.625000 1.000000 0.375000
v 0.312500 0.625000 0.468750
v 0.312500 0.687500 0.468750
v 0.312500 0.625000 0.531250
v 0.312500 0.687500 0.531250
v 0.187500 0.625000 0.468750
v 0.187500 0.687500 0.468750
v 0.187500 0.625000 0.531250
v 0.187500 0.687500 0.531250
v 0.125000 0.625000 0.531250
v 0.125000 0.625000 0.468750
v 0.187500 0.250000 0.468750
v 0.187500 0.250000 0.531250
v 0.125000 0.250000 0.468750
v 0.125000 0.250000 0.531250
v 0.187500 0.187500 0.468750
v 0.187500 0.187500 0.531250
v 0.312500 0.250000 0.468750
v 0.312500 0.250000 0.531250
v 0.312500 0.187500 0.468750
v 0.312500 0.187500 0.531250
v 0.437500 0.187500 0.281250
v 0.437500 0.687500 0.281250
v 0.562500 0.187500 0.281250
v 0.562500 0.687500 0.281250
v 0.375000 0.187500 0.281250
v 0.375000 0.187500 0.343750
v 0.375000 0.687500 0.343750
v 0.375000 0.687500 0.281250
v 0.625000 0.687500 0.281250
v 0.625000 0.187500 0.281250
v 0.625000 0.187500 0.343750
v 0.625000 0.687500 0.343750
v 0.437500 0.750000 0.343750
v 0.437500 0.750000 0.281250
v 0.562500 0.750000 0.281250
v 0.562500 0.750000 0.343750
v 0.375000 0.750000 0.343750
v 0.375000 0.750000 0.281250
v 0.625000 0.750000 0.281250
v 0.625000 0.750000 0.343750
v 0.437500 0.125000 0.281250
v 0.437500 0.125000 0.343750
v 0.562500 0.125000 0.281250
v 0.562500 0.125000 0.343750
v 0.375000 0.125000 0.281250
v 0.375000 0.125000 0.343750
v 0.625000 0.125000 0.343750
v 0.625000 0.125000 0.281250
v 0.437500 0.687500 0.343750
v 0.437500 0.187500 0.343750
v 0.562500 0.187500 0.343750
v 0.562500 0.687500 0.343750
v 0.562500 0.437500 0.281250
v 0.625000 0.437500 0.281250
v 0.625000 0.437500 0.343750
v 0.562500 0.437500 0.343750
v 0.437500 0.437500 0.281250
v 0.375000 0.437500 0.343750
v 0.375000 0.437500 0.281250
v 0.437500 0.437500 0.343750
v 0.437500 1.000000 0.562500
v 0.437500 1.000000 0.437500
v 0.562500 1.000000 0.562500
v 0.500000 0.875000 0.500000
v 0.562500 1.000000 0.437500
v 0.687500 0.625000 0.531250
v 0.687500 0.687500 0.531250
v 0.687500 0.625000 0.468750
v 0.687500 0.687500 0.468750
v 0.812500 0.625000 0.531250
v 0.812500 0.687500 0.531250
v 0.812500 0.625000 0.468750
v 0.812500 0.687500 0.468750
v 0.875000 0.625000 0.468750
v 0.875000 0.625000 0.531250
v 0.812500 0.250000 0.531250
v 0.812500 0.250000 0.468750
v 0.875000 0.250000 0.531250
v 0.875000 0.250000 0.468750
v 0.812500 0.187500 0.531250
v 0.812500 0.187500 0.468750
v 0.687500 0.250000 0.531250
v 0.687500 0.250000 0.468750
v 0.687500 0.187500 0.531250
v 0.687500 0.187500 0.468750
v 0.562500 0.437500 0.656250
v 0.625000 0.437500 0.718750
v 0.625000 0.437500 0.656250
v 0.562500 0.437500 0.718750
v 0.437500 0.437500 0.656250
v 0.375000 0.437500 0.656250
v 0.375000 0.437500 0.718750
v 0.437500 0.437500 0.718750
v 0.437500 0.687500 0.656250
v 0.437500 0.187500 0.656250
v 0.562500 0.187500 0.656250
v 0.562500 0.687500 0.656250
v 0.375000 0.125000 0.718750
v 0.375000 0.125000 0.656250
v 0.625000 0.125000 0.656250
v 0.625000 0.125000 0.718750
v 0.437500 0.125000 0.656250
v 0.437500 0.125000 0.718750
v 0.562500 0.125000 0.656250
v 0.562500 0.125000 0.718750
v 0.375000 0.750000 0.656250
v 0.375000 0.750000 0.718750
v 0.625000 0.750000 0.718750
v 0.625000 0.750000 0.656250
v 0.437500 0.750000 0.656250
v 0.437500 0.750000 0.718750
v 0.562500 0.750000 0.718750
v 0.562500 0.750000 0.656250
v 0.375000 0.687500 0.656250
v 0.375000 0.187500 0.656250
v 0.375000 0.187500 0.718750
v 0.375000 0.687500 0.718750
v 0.625000 0.687500 0.718750
v 0.625000 0.687500 0.656250
v 0.625000 0.187500 0.656250
v 0.625000 0.187500 0.718750
v 0.437500 0.687500 0.718750
v 0.437500 0.187500 0.718750
v 0.562500 0.687500 0.718750
v 0.562500 0.187500 0.718750
vt 0.062500 0.000000
vt 0.000000 0.125000
vt 0.375000 0.125000
vt 0.312500 0.000000
vt 0.687500 0.000000
vt 0.750000 0.125000
vt 0.375000 0.125000
vt 0.437500 0.000000
vt 0.062500 -0.000000
vt 0.000000 0.125000
vt 0.375000 0.125000
vt 0.312500 -0.000000
vt 0.687500 0.000000
vt 0.750000 0.125000
vt 0.375000 0.125000
vt 0.437500 0.000000
vt 0.750000 -0.000000
vt 1.000000 -0.000000
vt 1.000000 0.250000
vt 0.750000 0.250000
vt 0.750000 0.750000
vt 0.375000 0.750000
vt 0.375000 0.750000
vt 0.000000 0.750000
vt 0.093750 0.875000
vt 0.281250 0.875000
vt 0.000000 0.750000
vt 0.375000 0.750000
vt 0.750000 0.750000
vt 0.375000 0.750000
vt 0.187500 0.875000
vt 0.000000 0.875000
vt 0.000000 0.937500
vt 0.187500 0.937500
vt 0.093750 0.875000
vt 0.281250 0.875000
vt 0.656250 0.875000
vt 0.468750 0.875000
vt 0.656250 0.875000
vt 0.468750 0.875000
vt 0.000000 0.875000
vt 0.187500 0.875000
vt 0.187500 0.937500
vt 0.000000 0.937500
vt 0.187500 0.937500
vt 0.000000 0.937500
vt 0.000000 1.000000
vt 0.187500 1.000000
vt 0.000000 0.937500
vt 0.187500 0.937500
vt 0.187500 1.000000
vt 0.000000 1.000000
vt 0.875000 0.312500
vt 0.875000 0.437500
vt 0.937500 0.500000
vt 0.937500 0.250000
vt 0.187500 0.875000
vt 0.437500 0.875000
vt 0.437500 0.937500
vt 0.187500 0.937500
vt 0.875000 0.312500
vt 0.875000 0.437500
vt 0.937500 0.500000
vt 0.937500 0.250000
vt 0.187500 0.875000
vt 0.437500 0.875000
vt 0.437500 0.937500
vt 0.187500 0.937500
vt 0.437500 0.937500
vt 0.187500 0.937500
vt 0.187500 1.000000
vt 0.437500 1.000000
vt 0.437500 0.937500
vt 0.187500 0.937500
vt 0.187500 1.000000
vt 0.437500 1.000000
vt 0.843750 0.468750
vt 0.812500 0.500000
vt 0.812500 0.250000
vt 0.843750 0.281250
vt 0.937500 0.937500
vt 0.937500 0.562500
vt 1.000000 0.562500
vt 1.000000 0.937500
vt 0.937500 0.750000
vt 0.875000 0.750000
vt 0.875000 0.875000
vt 0.937500 0.875000
vt 0.937500 0.875000
vt 0.875000 0.875000
vt 0.875000 0.750000
vt 0.937500 0.750000
vt 0.812500 0.750000
vt 0.812500 0.875000
vt 0.750000 0.875000
vt 0.750000 0.750000
vt 0.812500 0.875000
vt 0.812500 0.750000
vt 0.750000 0.750000
vt 0.750000 0.875000
vt 0.750000 0.875000
vt 0.812500 0.875000
vt 0.812500 0.937500
vt 0.750000 0.937500
vt 0.937500 0.937500
vt 0.937500 0.937500
vt 0.812500 0.937500
vt 0.812500 0.562500
vt 0.875000 0.562500
vt 0.875000 0.937500
vt 1.000000 0.937500
vt 1.000000 0.562500
vt 0.937500 0.562500
vt 0.937500 0.937500
vt 0.812500 0.562500
vt 0.875000 0.562500
vt 0.875000 0.937500
vt 0.937500 0.562500
vt 0.937500 0.625000
vt 0.875000 0.625000
vt 0.750000 0.625000
vt 0.812500 0.625000
vt 0.812500 0.562500
vt 0.750000 0.562500
vt 0.937500 0.750000
vt 0.875000 0.750000
vt 0.937500 0.625000
vt 0.937500 0.562500
vt 0.875000 0.625000
vt 0.750000 0.750000
vt 0.812500 0.750000
vt 0.875000 0.750000
vt 0.937500 0.750000
vt 0.812500 0.625000
vt 0.812500 0.750000
vt 0.750000 0.750000
vt 0.750000 0.625000
vt 0.750000 0.500000
vt 0.812500 0.500000
vt 0.812500 0.562500
vt 0.750000 0.562500
vt 1.000000 0.250000
vt 1.000000 0.500000
vt 0.937500 0.500000
vt 0.937500 0.250000
vt 0.750000 0.500000
vt 0.812500 0.500000
vt 0.812500 0.562500
vt 0.750000 0.562500
vt 0.937500 0.250000
vt 0.937500 0.500000
vt 1.000000 0.500000
vt 1.000000 0.250000
vt 0.812500 0.250000
vt 0.750000 0.250000
vt 0.812500 0.250000
vt 0.750000 0.250000
vt 0.812500 0.250000
vt 0.812500 0.500000
vt 0.750000 0.500000
vt 0.750000 0.250000
vt 0.937500 0.500000
vt 1.000000 0.500000
vt 1.000000 0.562500
vt 0.937500 0.562500
vt 0.937500 0.500000
vt 0.937500 0.562500
vt 1.000000 0.562500
vt 1.000000 0.500000
vt 0.812500 0.562500
vt 0.812500 0.500000
vt 0.750000 0.500000
vt 0.750000 0.562500
vt 0.937500 0.500000
vt 0.937500 0.562500
vt 0.812500 0.500000
vt 0.937500 0.500000
vt 0.937500 0.562500
vt 0.812500 0.562500
vt 0.750000 0.562500
vt 0.750000 0.500000
vt 1.000000 0.500000
vt 0.937500 0.500000
vt 1.000000 0.500000
vt 1.000000 0.562500
vt 0.937500 0.562500
vt 0.812500 0.500000
vt 0.812500 0.562500
vt 0.937500 0.562500
vt 0.812500 0.562500
vt 0.812500 0.500000
vt 0.937500 0.562500
vt 0.812500 0.562500
vt 0.812500 0.500000
vt 0.937500 0.500000
vt 1.000000 0.250000
vt 1.000000 0.500000
vt 0.937500 0.250000
vt 0.937500 0.250000
vt 1.000000 0.250000
vt 0.937500 0.250000
vt 1.000000 0.250000
vt 0.750000 0.500000
vt 0.750000 0.250000
vt 0.812500 0.250000
vt 0.750000 0.500000
vt 0.750000 0.250000
vt 0.812500 0.250000
vt 0.937500 0.250000
vt 0.812500 0.250000
vt 0.812500 0.500000
vt 0.843750 0.468750
vt 0.812500 0.250000
vt 0.843750 0.281250
vt 0.437500 0.875000
vt 0.562500 0.875000
vt 0.500000 0.937500
vt 0.562500 1.000000
vt 0.437500 1.000000
vt 0.937500 0.937500
vt 0.937500 0.562500
vt 1.000000 0.562500
vt 1.000000 0.937500
vt 0.937500 0.750000
vt 0.875000 0.750000
vt 0.875000 0.875000
vt 0.937500 0.875000
vt 0.937500 0.875000
vt 0.875000 0.875000
vt 0.875000 0.750000
vt 0.937500 0.750000
vt 0.812500 0.750000
vt 0.812500 0.875000
vt 0.750000 0.875000
vt 0.750000 0.750000
vt 0.812500 0.875000
vt 0.812500 0.750000
vt 0.750000 0.750000
vt 0.750000 0.875000
vt 0.750000 0.875000
vt 0.812500 0.875000
vt 0.812500 0.937500
vt 0.750000 0.937500
vt 0.937500 0.937500
vt 0.937500 0.937500
vt 0.812500 0.937500
vt 0.812500 0.562500
vt 0.875000 0.562500
vt 0.875000 0.937500
vt 1.000000 0.937500
vt 1.000000 0.562500
vt 0.937500 0.562500
vt 0.937500 0.937500
vt 0.812500 0.562500
vt 0.875000 0.562500
vt 0.875000 0.937500
vt 0.937500 0.562500
vt 0.937500 0.625000
vt 0.875000 0.625000
vt 0.750000 0.625000
vt 0.812500 0.625000
vt 0.812500 0.562500
vt 0.750000 0.562500
vt 0.937500 0.750000
vt 0.875000 0.750000
vt 0.937500 0.625000
vt 0.937500 0.562500
vt 0.875000 0.625000
vt 0.750000 0.750000
vt 0.812500 0.750000
vt 0.875000 0.750000
vt 0.937500 0.750000
vt 0.812500 0.625000
vt 0.812500 0.750000
vt 0.750000 0.750000
vt 0.750000 0.625000
vt 0.812500 0.500000
vt 0.812500 0.250000
vt 0.750000 0.250000
vt 0.750000 0.500000
vt 0.937500 0.500000
vt 0.937500 0.250000
vt 1.000000 0.250000
vt 1.000000 0.500000
vt 0.750000 0.500000
vt 0.750000 0.250000
vt 0.812500 0.250000
vt 0.812500 0.500000
vt 0.750000 0.500000
vt 0.750000 0.250000
vt 0.812500 0.250000
vt 0.812500 0.500000
vt 0.937500 0.500000
vt 0.937500 0.250000
vt 1.000000 0.250000
vt 1.000000 0.500000
vt 0.937500 0.500000
vt 0.937500 0.250000
vt 1.000000 0.250000
vt 1.000000 0.500000
vt 1.000000 0.250000
vt 1.000000 0.500000
vt 0.937500 0.500000
vt 0.937500 0.250000
vt 0.937500 0.562500
vt 0.812500 0.562500
vt 0.937500 0.562500
vt 0.812500 0.562500
vt 0.937500 0.500000
vt 0.750000 0.562500
vt 0.812500 0.562500
vt 0.812500 0.500000
vt 0.937500 0.562500
vt 0.812500 0.562500
vt 1.000000 0.562500
vt 0.937500 0.562500
vt 0.937500 0.500000
vt 1.000000 0.500000
vt 1.000000 0.562500
vt 0.812500 0.500000
vt 0.812500 0.562500
vt 0.750000 0.562500
vt 0.750000 0.500000
vt 0.937500 0.500000
vt 0.937500 0.562500
vt 1.000000 0.562500
vt 0.750000 0.500000
vt 0.812500 0.500000
vt 0.812500 0.562500
vt 0.750000 0.562500
vt 0.937500 0.562500
vt 0.937500 0.500000
vt 0.812500 0.500000
vt 0.750000 0.500000
vt 1.000000 0.500000
vt 0.937500 0.562500
vt 0.812500 0.250000
vt 0.750000 0.250000
vt 0.812500 0.250000
vt 0.812500 0.500000
vt 0.750000 0.500000
vt 0.750000 0.250000
vt 0.812500 0.250000
vt 0.937500 0.250000
vt 1.000000 0.250000
vt 1.000000 0.500000
vt 0.937500 0.250000
vt 0.812500 0.562500
vt 0.750000 0.562500
vn -0.8944 -0.4472 0.0000
vn 0.0000 -0.4472 -0.8944
vn 0.8944 -0.4472 0.0000
vn 0.0000 -0.4472 0.8944
vn 0.0000 -1.0000 0.0000
vn 0.0000 0.0000 -1.0000
vn 0.8000 0.6000 0.0000
vn 1.0000 0.0000 0.0000
vn -1.0000 0.0000 0.0000
vn 0.0000 0.0000 1.0000
vn -0.8000 0.6000 0.0000
vn 0.0000 0.6000 0.8000
vn 0.0000 0.6000 -0.8000
vn 0.0000 1.0000 0.0000
vn -0.7071 0.7071 0.0000
vn -0.7071 -0.7071 0.0000
vn 0.0000 0.4472 0.8944
vn 0.8944 0.4472 0.0000
vn 0.0000 0.4472 -0.8944
vn -0.8944 0.4472 0.0000
vn 0.7071 0.7071 0.0000
vn 0.7071 -0.7071 0.0000
usemtl Material
s off
f 1/1/1 2/2/1 4/3/1 3/4/1
f 3/5/2 4/6/2 8/7/2 7/8/2
f 7/9/3 8/10/3 6/11/3 5/12/3
f 5/13/4 6/14/4 2/15/4 1/16/4
f 3/17/5 7/18/5 5/19/5 1/20/5
f 8/7/6 4/6/6 10/21/6 11/22/6
f 12/23/7 11/24/7 15/25/7 16/26/7
f 6/11/8 8/10/8 11/24/8 12/23/8
f 4/3/9 2/2/9 9/27/9 10/28/9
f 2/15/10 6/14/10 12/29/10 9/30/10
f 16/31/8 15/32/8 19/33/8 20/34/8
f 10/28/11 9/27/11 13/35/11 14/36/11
f 9/30/12 12/29/12 16/37/12 13/38/12
f 11/22/13 10/21/13 14/39/13 15/40/13
f 14/41/9 13/42/9 17/43/9 18/44/9
f 13/45/10 16/46/10 20/47/10 17/48/10
f 15/49/6 14/50/6 18/51/6 19/52/6
f 21/53/14 22/54/14 31/55/14 28/56/14
f 26/57/10 25/58/10 27/59/10 28/60/10
f 24/61/14 23/62/14 27/63/14 32/64/14
f 23/62/14 21/53/14 28/56/14 27/63/14
f 30/65/6 29/66/6 31/67/6 32/68/6
f 22/54/14 24/61/14 32/64/14 31/55/14
f 25/69/8 30/70/8 32/71/8 27/72/8
f 29/73/9 26/74/9 28/75/9 31/76/9
f 18/77/5 29/78/5 30/79/5 19/80/5
f 37/81/6 43/82/6 45/83/6 42/84/6
f 35/85/10 36/86/10 40/87/10 39/88/10
f 37/89/6 38/90/6 34/91/6 33/92/6
f 35/93/5 39/94/5 37/95/5 33/96/5
f 40/97/14 36/98/14 34/99/14 38/100/14
f 40/101/15 38/102/15 42/103/15 41/104/15
f 39/88/10 40/87/10 41/105/10
f 38/90/6 37/89/6 42/106/6
f 39/107/8 44/108/8 43/109/8 37/110/8
f 41/111/10 46/112/10 44/113/10 39/114/10
f 42/103/9 45/115/9 46/116/9 41/117/9
f 45/118/6 43/119/6 47/120/6
f 47/121/16 48/122/16 46/123/16 45/124/16
f 43/119/6 49/125/6 51/126/6 47/120/6
f 44/127/10 46/128/10 48/129/10
f 47/121/5 51/130/5 52/131/5 48/122/5
f 44/127/10 48/129/10 52/132/10 50/133/10
f 44/134/14 50/135/14 49/136/14 43/137/14
f 64/138/8 61/139/8 71/140/8 72/141/8
f 85/142/9 55/143/9 83/144/9 88/145/9
f 57/146/6 53/147/6 73/148/6 77/149/6
f 90/150/9 59/151/9 60/152/9 91/153/9
f 89/154/6 53/147/6 57/146/6 91/155/6
f 86/156/8 61/139/8 64/138/8 87/157/8
f 85/158/6 56/159/6 61/160/6 86/161/6
f 62/162/8 63/163/8 79/164/8 80/165/8
f 65/166/14 66/167/14 70/168/14 69/169/14
f 67/170/14 68/171/14 72/172/14 71/173/14
f 67/170/14 66/167/14 65/166/14 68/171/14
f 56/159/6 54/174/6 66/167/6 67/170/6
f 54/174/6 60/152/6 70/168/6 66/167/6
f 61/160/6 56/159/6 67/170/6 71/173/6
f 60/152/9 59/151/9 69/175/9 70/168/9
f 73/176/5 75/177/5 76/178/5 74/179/5
f 73/176/5 74/179/5 78/180/5 77/181/5
f 76/178/5 75/177/5 80/182/5 79/164/5
f 55/183/6 62/184/6 80/185/6 75/186/6
f 53/147/6 55/183/6 75/186/6 73/148/6
f 58/187/9 57/146/9 77/149/9 78/188/9
f 55/189/14 53/190/14 82/191/14 83/144/14
f 54/192/5 56/193/5 84/194/5 81/195/5
f 89/196/8 54/197/8 81/195/8 92/198/8
f 55/183/6 85/199/6 86/200/6 62/184/6
f 62/162/8 86/201/8 87/202/8 63/163/8
f 56/203/9 85/204/9 88/205/9 84/194/9
f 53/206/8 89/207/8 92/208/8 82/191/8
f 54/174/6 89/209/6 91/153/6 60/152/6
f 58/187/9 90/210/9 91/155/9 57/146/9
f 19/80/5 30/79/5 25/211/5 20/212/5
f 20/212/5 25/211/5 26/213/5 17/214/5
f 17/214/5 26/213/5 29/78/5 18/77/5
f 97/215/17 94/216/17 96/217/17
f 94/216/18 93/218/18 96/217/18
f 93/218/19 95/219/19 96/217/19
f 95/219/20 97/215/20 96/217/20
f 102/220/10 108/221/10 110/222/10 107/223/10
f 100/224/6 101/225/6 105/226/6 104/227/6
f 102/228/10 103/229/10 99/230/10 98/231/10
f 100/232/5 104/233/5 102/234/5 98/235/5
f 105/236/14 101/237/14 99/238/14 103/239/14
f 105/240/21 103/241/21 107/242/21 106/243/21
f 104/227/6 105/226/6 106/244/6
f 103/229/10 102/228/10 107/245/10
f 104/246/9 109/247/9 108/248/9 102/249/9
f 106/250/6 111/251/6 109/252/6 104/253/6
f 107/242/8 110/254/8 111/255/8 106/256/8
f 110/257/10 108/258/10 112/259/10
f 112/260/22 113/261/22 111/262/22 110/263/22
f 108/258/10 114/264/10 116/265/10 112/259/10
f 109/266/6 111/267/6 113/268/6
f 112/260/5 116/269/5 117/270/5 113/261/5
f 109/266/6 113/268/6 117/271/6 115/272/6
f 109/273/14 115/274/14 114/275/14 108/276/14
f 152/277/8 120/278/8 119/279/8 153/280/8
f 156/281/10 121/282/10 119/283/10 150/284/10
f 157/285/9 121/286/9 118/287/9 128/288/9
f 154/289/8 125/290/8 122/291/8 126/292/8
f 148/293/9 124/294/9 123/295/9 147/296/9
f 155/297/10 125/298/10 124/299/10 148/300/10
f 121/301/9 156/302/9 129/303/9 118/304/9
f 156/305/5 154/306/5 126/292/5 129/303/5
f 155/307/14 157/308/14 128/288/14 127/309/14
f 152/277/8 153/280/8 133/310/8 132/311/8
f 157/312/10 155/297/10 135/313/10 137/314/10
f 155/297/10 148/300/10 130/315/10 135/313/10
f 134/316/5 135/317/5 130/318/5 131/319/5
f 137/320/5 136/321/5 132/322/5 133/323/5
f 137/320/5 135/317/5 134/316/5 136/321/5
f 150/284/8 151/324/8 141/325/8 140/326/8
f 149/327/10 154/328/10 143/329/10 139/330/10
f 156/281/10 150/284/10 140/326/10 144/331/10
f 154/328/10 156/281/10 144/331/10 143/329/10
f 143/329/14 144/331/14 145/332/14 142/333/14
f 143/329/14 142/333/14 138/334/14 139/330/14
f 145/332/14 144/331/14 140/326/14 141/335/14
f 148/293/9 147/296/9 131/319/9 130/336/9
f 125/337/10 154/328/10 149/327/10 124/338/10
f 124/339/9 149/340/9 146/341/9 123/342/9
f 121/343/10 157/312/10 153/280/10 119/279/10
f 120/344/8 151/324/8 150/284/8 119/283/8
f 153/280/10 157/312/10 137/314/10 133/310/10
f 125/345/8 155/346/8 127/309/8 122/347/8
f 146/341/9 149/340/9 139/348/9 138/349/9
