# Blender v2.80 (sub 75) OBJ File: 'bell_of_bidding.blend'
# www.blender.org
mtllib bell_of_bidding.mtl
o BELL_Cube.006
v 0.343750 0.437500 0.656250
v 0.406250 0.500000 0.593750
v 0.343750 0.437500 0.343750
v 0.406250 0.500000 0.406250
v 0.656250 0.437500 0.656250
v 0.593750 0.500000 0.593750
v 0.656250 0.437500 0.343750
v 0.593750 0.500000 0.406250
v 0.343750 0.187500 0.343750
v 0.343750 0.187500 0.656250
v 0.656250 0.187500 0.343750
v 0.656250 0.187500 0.656250
v 0.281250 0.062500 0.281250
v 0.281250 0.062500 0.718750
v 0.718750 0.062500 0.281250
v 0.718750 0.062500 0.718750
v 0.281250 0.000000 0.281250
v 0.281250 0.000000 0.718750
v 0.718750 0.000000 0.281250
v 0.718750 0.000000 0.718750
v 0.343750 0.000000 0.343750
v 0.656250 0.000000 0.343750
v 0.656250 0.000000 0.656250
v 0.343750 0.000000 0.656250
v 0.656250 0.062500 0.343750
v 0.343750 0.062500 0.343750
v 0.343750 0.062500 0.656250
v 0.656250 0.062500 0.656250
v 0.500000 0.312500 0.500000
v 0.437500 -0.062500 0.562500
v 0.437500 0.062500 0.562500
v 0.437500 -0.062500 0.437500
v 0.437500 0.062500 0.437500
v 0.562500 -0.062500 0.562500
v 0.562500 0.062500 0.562500
v 0.562500 -0.062500 0.437500
v 0.562500 0.062500 0.437500
v 0.484375 0.062500 0.515625
v 0.484375 0.312500 0.515625
v 0.484375 0.062500 0.484375
v 0.484375 0.312500 0.484375
v 0.515625 0.062500 0.515625
v 0.515625 0.312500 0.515625
v 0.515625 0.062500 0.484375
v 0.515625 0.312500 0.484375
v 0.455806 0.500000 0.531250
v 0.500000 0.544194 0.531250
v 0.455806 0.500000 0.468750
v 0.500000 0.544194 0.468750
v 0.500000 0.455806 0.531250
v 0.544194 0.500000 0.531250
v 0.500000 0.455806 0.468750
v 0.544194 0.500000 0.468750
v 0.367417 0.588388 0.531250
v 0.367417 0.588388 0.468750
v 0.500000 0.720971 0.468750
v 0.500000 0.720971 0.531250
v 0.455806 0.676777 0.468750
v 0.455806 0.676777 0.531250
v 0.411612 0.632583 0.468750
v 0.411612 0.632583 0.531250
v 0.544194 0.676777 0.468750
v 0.500000 0.632583 0.468750
v 0.500000 0.632583 0.531250
v 0.544194 0.676777 0.531250
v 0.455806 0.588388 0.468750
v 0.455806 0.588388 0.531250
v 0.411612 0.544194 0.531250
v 0.411612 0.544194 0.468750
v 0.632583 0.588388 0.468750
v 0.632583 0.588388 0.531250
v 0.588388 0.632583 0.468750
v 0.588388 0.632583 0.531250
v 0.544194 0.588388 0.531250
v 0.588388 0.544194 0.531250
v 0.588388 0.544194 0.468750
v 0.544194 0.588388 0.468750
v 0.648208 0.588388 0.531250
v 0.648208 0.588388 0.468750
v 0.671875 0.437500 0.531250
v 0.671875 0.437500 0.468750
v 0.671875 0.187500 0.531250
v 0.671875 0.187500 0.468750
v 0.734375 0.062500 0.531250
v 0.734375 0.062500 0.468750
v 0.734375 -0.187500 0.531250
v 0.734375 -0.125000 0.468750
v 0.533146 0.577340 0.546875
v 0.488951 0.621534 0.546875
v 0.488951 0.621534 0.453125
v 0.533146 0.577340 0.453125
v 0.599437 0.643631 0.453125
v 0.599437 0.643631 0.546875
v 0.555243 0.687825 0.453125
v 0.555243 0.687825 0.546875
v 0.599437 0.643631 0.468750
v 0.599437 0.643631 0.531250
v 0.648208 0.588388 0.531250
v 0.648208 0.588388 0.468750
v 0.671875 0.437500 0.531250
v 0.671875 0.437500 0.468750
v 0.671875 0.187500 0.531250
v 0.671875 0.187500 0.468750
v 0.734375 0.062500 0.531250
v 0.734375 0.062500 0.468750
v 0.734375 -0.187500 0.531250
v 0.734375 -0.125000 0.468750
v 0.533146 0.577340 0.546875
v 0.488951 0.621534 0.546875
v 0.488951 0.621534 0.453125
v 0.533146 0.577340 0.453125
v 0.599437 0.643631 0.453125
v 0.599437 0.643631 0.546875
v 0.555243 0.687825 0.453125
v 0.555243 0.687825 0.546875
v 0.599437 0.643631 0.468750
v 0.599437 0.643631 0.531250
vt 0.375000 0.437500
vt 0.312500 0.500000
vt 0.125000 0.500000
vt 0.062500 0.437500
vt 0.375000 0.437500
vt 0.312500 0.500000
vt 0.125000 0.500000
vt 0.062500 0.437500
vt 0.062500 0.187500
vt 0.375000 0.187500
vt 0.562500 0.187500
vt 0.562500 0.375000
vt 0.375000 0.375000
vt 0.375000 0.187500
vt 0.062500 0.187500
vt 0.375000 0.187500
vt 0.562500 0.187500
vt 0.875000 0.187500
vt 0.937500 0.062500
vt 0.500000 0.062500
vt 0.437500 0.062500
vt 0.000000 0.062500
vt 0.000000 0.000000
vt 0.437500 0.000000
vt 0.000000 0.062500
vt 0.437500 0.062500
vt 0.000000 0.000000
vt 0.437500 0.000000
vt 0.500000 0.062500
vt 0.937500 0.062500
vt 0.937500 0.000000
vt 0.500000 0.000000
vt 0.000000 0.562500
vt 0.437500 0.562500
vt 0.375000 0.625000
vt 0.062500 0.625000
vt 0.437500 1.000000
vt 0.000000 1.000000
vt 0.062500 0.937500
vt 0.375000 0.937500
vt 0.375000 0.687500
vt 0.062500 0.687500
vt 0.375000 0.875000
vt 0.062500 0.875000
vt 0.062500 0.937500
vt 0.375000 0.937500
vt 0.062500 0.625000
vt 0.375000 0.625000
vt 0.218750 0.937500
vt 0.062500 0.781250
vt 0.218750 0.625000
vt 0.375000 0.781250
vt 0.937500 0.000000
vt 0.500000 0.000000
vt 0.312500 0.937500
vt 0.312500 0.625000
vt 0.562500 0.187500
vt 0.875000 0.187500
vt 0.562500 0.437500
vt 0.875000 0.437500
vt 0.562500 0.437500
vt 0.875000 0.437500
vt 0.625000 0.500000
vt 0.812500 0.500000
vt 0.625000 0.500000
vt 0.812500 0.500000
vt 0.125000 0.937500
vt 0.125000 0.625000
vt 0.562500 0.750000
vt 0.562500 0.875000
vt 0.437500 0.875000
vt 0.437500 0.750000
vt 0.437500 1.000000
vt 0.562500 0.875000
vt 0.562500 1.000000
vt 0.437500 0.875000
vt 0.562500 1.000000
vt 0.437500 1.000000
vt 0.562500 0.875000
vt 0.437500 0.875000
vt 0.437500 0.750000
vt 0.562500 0.875000
vt 0.437500 0.750000
vt 0.562500 1.000000
vt 0.437500 1.000000
vt 0.062500 0.187500
vt 0.062500 0.437500
vt -0.000000 0.437500
vt -0.000000 0.187500
vt 0.062500 0.437500
vt 0.062500 0.187500
vt -0.000000 0.187500
vt -0.000000 0.437500
vt 0.062500 0.437500
vt 0.062500 0.187500
vt 0.000000 0.437500
vt 0.000000 0.187500
vt 0.750000 0.812500
vt 0.750000 0.875000
vt 0.687500 0.875000
vt 0.687500 0.812500
vt 0.875000 0.812500
vt 0.812500 0.812500
vt 0.812500 0.750000
vt 0.875000 0.750000
vt 0.812500 0.687500
vt 0.875000 0.687500
vt 0.875000 0.750000
vt 0.812500 0.750000
vt 0.812500 0.812500
vt 0.875000 0.812500
vt 0.937500 0.750000
vt 0.937500 0.812500
vt 0.687500 0.812500
vt 0.750000 0.875000
vt 0.687500 0.875000
vt 0.875000 0.750000
vt 0.875000 0.812500
vt 0.812500 0.812500
vt 0.812500 0.750000
vt 0.750000 0.812500
vt 0.687500 0.812500
vt 0.687500 0.875000
vt 0.750000 0.875000
vt 0.625000 0.812500
vt 0.625000 0.875000
vt 0.812500 0.875000
vt 0.875000 0.875000
vt 0.875000 0.875000
vt 0.937500 0.875000
vt 0.937500 0.937500
vt 0.875000 0.937500
vt 0.875000 0.937500
vt 0.812500 0.937500
vt 0.812500 0.875000
vt 0.875000 0.875000
vt 0.687500 0.937500
vt 0.625000 0.937500
vt 0.750000 0.937500
vt 0.687500 0.937500
vt 0.750000 0.937500
vt 0.812500 0.937500
vt 0.875000 0.937500
vt 0.812500 0.937500
vt 0.750000 1.000000
vt 0.687500 1.000000
vt 0.875000 1.000000
vt 0.812500 1.000000
vt 0.750000 0.687500
vt 0.750000 0.750000
vt 0.687500 0.750000
vt 0.687500 0.687500
vt 0.750000 0.750000
vt 0.687500 0.750000
vt 0.625000 0.750000
vt 0.812500 0.750000
vt 0.875000 0.750000
vt 0.875000 0.812500
vt 1.000000 0.250000
vt 0.937500 0.250000
vt 0.937500 -0.000000
vt 1.000000 0.062500
vt 1.000000 0.375000
vt 0.937500 0.375000
vt 1.000000 0.625000
vt 0.937500 0.625000
vt 1.000000 0.750000
vt 0.937500 0.750000
vt 1.000000 0.812500
vt 1.000000 0.875000
vt 0.937500 0.875000
vt 0.937500 0.812500
vt 1.000000 0.937500
vt 0.937500 0.937500
vt 0.937500 0.875000
vt 0.937500 0.937500
vt 1.000000 0.937500
vt 1.000000 0.875000
vt 1.000000 1.000000
vt 0.937500 1.000000
vt 1.000000 0.812500
vt 0.937500 0.812500
vt 1.000000 0.250000
vt 1.000000 0.062500
vt 0.937500 -0.000000
vt 0.937500 0.250000
vt 1.000000 0.375000
vt 0.937500 0.375000
vt 1.000000 0.625000
vt 0.937500 0.625000
vt 0.937500 0.750000
vt 1.000000 0.750000
vt 1.000000 0.812500
vt 0.937500 0.812500
vt 0.937500 0.875000
vt 1.000000 0.875000
vt 0.937500 0.937500
vt 1.000000 0.937500
vt 0.937500 0.875000
vt 1.000000 0.875000
vt 1.000000 0.937500
vt 0.937500 0.937500
vt 1.000000 1.000000
vt 0.937500 1.000000
vt 1.000000 0.812500
vt 0.937500 0.812500
vn 0.0000 0.7071 -0.7071
vn 0.0000 0.7071 0.7071
vn 0.0000 0.0000 1.0000
vn 0.0000 1.0000 0.0000
vn 0.0000 0.0000 -1.0000
vn -0.8944 0.4472 0.0000
vn 0.0000 0.4472 0.8944
vn 0.0000 0.4472 -0.8944
vn 1.0000 0.0000 0.0000
vn 0.0000 -1.0000 0.0000
vn 0.0000 -0.5300 0.8480
vn -0.8480 -0.5300 0.0000
vn 0.0000 -0.5300 -0.8480
vn 0.8480 -0.5300 0.0000
vn -1.0000 0.0000 0.0000
vn 0.8944 0.4472 0.0000
vn 0.7071 0.7071 0.0000
vn -0.7071 0.7071 0.0000
vn -0.7071 -0.7071 0.0000
vn 0.7071 -0.7071 0.0000
vn 0.9879 0.1550 0.0000
vn 0.7497 0.6618 0.0000
vn -0.8944 -0.4472 0.0000
vn -0.9879 -0.1550 0.0000
vn -0.7497 -0.6618 0.0000
usemtl MAIN
s off
f 3/1/1 4/2/1 8/3/1 7/4/1
f 5/5/2 6/6/2 2/7/2 1/8/2
f 5/5/3 1/8/3 10/9/3 12/10/3
f 4/11/4 2/12/4 6/13/4 8/14/4
f 3/1/5 7/4/5 11/15/5 9/16/5
f 10/17/6 9/18/6 13/19/6 14/20/6
f 16/21/3 14/22/3 18/23/3 20/24/3
f 12/10/7 10/9/7 14/22/7 16/21/7
f 9/16/8 11/15/8 15/25/8 13/26/8
f 13/26/5 15/25/5 19/27/5 17/28/5
f 15/29/9 16/30/9 20/31/9 19/32/9
f 17/33/10 19/34/10 22/35/10 21/36/10
f 20/37/10 18/38/10 24/39/10 23/40/10
f 19/34/10 20/37/10 23/40/10 22/35/10
f 21/36/3 22/35/3 25/41/3 26/42/3
f 23/43/5 24/44/5 27/45/5 28/46/5
f 18/38/10 17/33/10 21/36/10 24/39/10
f 26/47/11 25/48/11 29/49/11
f 25/48/12 28/46/12 29/50/12
f 28/46/13 27/45/13 29/51/13
f 27/45/14 26/47/14 29/52/14
f 14/20/15 13/19/15 17/53/15 18/54/15
f 22/35/15 23/40/15 28/55/15 25/56/15
f 11/57/16 12/58/16 16/30/16 15/29/16
f 7/59/9 5/60/9 12/58/9 11/57/9
f 1/61/15 3/62/15 9/18/15 10/17/15
f 8/63/17 6/64/17 5/60/17 7/59/17
f 2/65/18 4/66/18 3/62/18 1/61/18
f 24/67/9 21/68/9 26/47/9 27/45/9
f 30/69/15 31/70/15 33/71/15 32/72/15
f 32/73/5 33/71/5 37/74/5 36/75/5
f 36/76/9 37/74/9 35/77/9 34/78/9
f 34/79/3 35/80/3 31/81/3 30/69/3
f 32/82/10 36/76/10 34/83/10 30/69/10
f 37/74/4 33/84/4 31/85/4 35/80/4
f 38/86/15 39/87/15 41/88/15 40/89/15
f 40/89/5 41/88/5 45/90/5 44/91/5
f 44/92/9 45/93/9 43/94/9 42/95/9
f 42/95/3 43/94/3 39/96/3 38/97/3
f 77/98/19 74/99/19 64/100/19 63/101/19
f 48/102/5 49/103/5 53/104/5 52/105/5
f 52/105/20 53/104/20 51/106/20 50/107/20
f 50/108/3 51/109/3 47/110/3 46/111/3
f 48/102/19 52/105/19 50/112/19 46/113/19
f 72/114/5 77/98/5 63/115/5 62/116/5
f 47/117/17 49/118/17 66/119/17 67/120/17
f 74/121/3 73/122/3 65/123/3 64/124/3
f 73/125/17 72/114/17 62/116/17 65/126/17
f 46/111/3 47/110/3 67/127/3 68/128/3
f 69/129/19 68/130/19 54/131/19 55/132/19
f 64/133/20 67/134/20 66/135/20 63/136/20
f 49/103/5 48/102/5 69/129/5 66/135/5
f 65/126/17 62/116/17 56/137/17 57/138/17
f 62/116/5 63/115/5 58/139/5 56/137/5
f 64/124/3 65/123/3 57/140/3 59/141/3
f 68/128/3 67/127/3 61/142/3 54/143/3
f 59/141/3 61/142/3 67/127/3 64/124/3
f 66/135/5 69/129/5 55/132/5 60/144/5
f 58/139/18 59/145/18 57/146/18 56/137/18
f 55/132/18 54/147/18 61/148/18 60/144/18
f 63/115/5 66/135/5 60/144/5 58/139/5
f 75/149/20 76/150/20 70/151/20 71/152/20
f 74/121/3 75/153/3 71/154/3 73/122/3
f 72/114/17 73/125/17 71/155/17 70/151/17
f 49/103/18 47/156/18 74/157/18 77/158/18
f 51/106/20 53/104/20 76/150/20 75/149/20
f 53/104/5 49/103/5 77/98/5 76/150/5
f 76/150/5 77/98/5 72/114/5 70/151/5
f 47/110/3 51/109/3 75/153/3 74/121/3
f 48/102/19 46/113/19 68/130/19 69/129/19
f 58/139/18 60/144/18 61/148/18 59/145/18
f 85/159/9 84/160/9 86/161/9 87/162/9
f 83/163/16 82/164/16 84/160/16 85/159/16
f 81/165/9 80/166/9 82/164/9 83/163/9
f 81/165/21 79/167/21 78/168/21 80/166/21
f 93/169/17 92/170/17 94/171/17 95/172/17
f 92/170/5 91/173/5 90/174/5 94/171/5
f 95/175/3 89/176/3 88/177/3 93/178/3
f 91/179/19 88/177/19 89/176/19 90/180/19
f 96/181/22 97/182/22 78/168/22 79/167/22
f 105/183/15 107/184/15 106/185/15 104/186/15
f 103/187/23 105/183/23 104/186/23 102/188/23
f 101/189/15 103/187/15 102/188/15 100/190/15
f 101/189/24 100/190/24 98/191/24 99/192/24
f 113/193/19 115/194/19 114/195/19 112/196/19
f 112/196/3 114/195/3 110/197/3 111/198/3
f 115/199/5 113/200/5 108/201/5 109/202/5
f 111/203/17 110/204/17 109/202/17 108/201/17
f 116/205/25 99/192/25 98/191/25 117/206/25
