# Blender v2.80 (sub 75) OBJ File: 'constructs.blend'
# www.blender.org
mtllib arm_axe_l.mtl
o ARM_LEFT_DECO_IRON_Cube.151
v -0.437500 1.062500 0.125000
v -0.437500 1.250000 0.125000
v -0.500000 1.125000 0.250000
v -0.500000 1.187500 0.250000
v -0.625000 1.062500 0.125000
v -0.625000 1.250000 0.125000
v -0.562500 1.125000 0.250000
v -0.562500 1.187500 0.250000
v -0.437500 1.250000 0.187500
v -0.437500 1.062500 0.187500
v -0.625000 1.062500 0.187500
v -0.625000 1.250000 0.187500
v -0.437500 1.062500 -0.125000
v -0.437500 1.250000 -0.125000
v -0.500000 1.125000 -0.250000
v -0.500000 1.187500 -0.250000
v -0.625000 1.062500 -0.125000
v -0.625000 1.250000 -0.125000
v -0.562500 1.125000 -0.250000
v -0.562500 1.187500 -0.250000
v -0.437500 1.250000 -0.187500
v -0.437500 1.062500 -0.187500
v -0.625000 1.062500 -0.187500
v -0.625000 1.250000 -0.187500
v -0.625000 1.312500 -0.093750
v -0.625000 1.375000 -0.093750
v -0.625000 1.312500 -0.156250
v -0.625000 1.375000 -0.156250
v -0.687500 1.312500 -0.093750
v -0.687500 1.375000 -0.093750
v -0.687500 1.312500 -0.156250
v -0.687500 1.375000 -0.156250
v -0.656250 1.437500 -0.125000
v -0.375000 1.312500 -0.093750
v -0.375000 1.375000 -0.093750
v -0.375000 1.312500 -0.156250
v -0.375000 1.375000 -0.156250
v -0.437500 1.312500 -0.093750
v -0.437500 1.375000 -0.093750
v -0.437500 1.312500 -0.156250
v -0.437500 1.375000 -0.156250
v -0.406250 1.437500 -0.125000
v -0.625000 1.312500 0.093750
v -0.625000 1.375000 0.093750
v -0.625000 1.312500 0.156250
v -0.625000 1.375000 0.156250
v -0.687500 1.312500 0.093750
v -0.687500 1.375000 0.093750
v -0.687500 1.312500 0.156250
v -0.687500 1.375000 0.156250
v -0.656250 1.437500 0.125000
v -0.375000 1.312500 0.093750
v -0.375000 1.375000 0.093750
v -0.375000 1.312500 0.156250
v -0.375000 1.375000 0.156250
v -0.437500 1.312500 0.093750
v -0.437500 1.375000 0.093750
v -0.437500 1.312500 0.156250
v -0.437500 1.375000 0.156250
v -0.406250 1.437500 0.125000
vt 0.140625 0.500000
vt 0.093750 0.500000
vt 0.093750 0.515625
vt 0.140625 0.515625
vt 0.187500 0.500000
vt 0.203125 0.500000
vt 0.203125 0.515625
vt 0.187500 0.515625
vt 0.093750 0.515625
vt 0.046875 0.515625
vt 0.046875 0.500000
vt 0.093750 0.500000
vt 0.187500 0.515625
vt 0.140625 0.515625
vt 0.140625 0.500000
vt 0.187500 0.500000
vt 0.000000 0.515625
vt 0.000000 0.500000
vt 0.109375 0.531250
vt 0.125000 0.531250
vt 0.171875 0.531250
vt 0.156250 0.531250
vt 0.031250 0.531250
vt 0.015625 0.531250
vt 0.078125 0.531250
vt 0.062500 0.531250
vt 0.140625 0.500000
vt 0.140625 0.515625
vt 0.093750 0.515625
vt 0.093750 0.500000
vt 0.187500 0.500000
vt 0.187500 0.515625
vt 0.203125 0.515625
vt 0.203125 0.500000
vt 0.093750 0.515625
vt 0.093750 0.500000
vt 0.046875 0.500000
vt 0.046875 0.515625
vt 0.187500 0.515625
vt 0.187500 0.500000
vt 0.140625 0.500000
vt 0.140625 0.515625
vt 0.000000 0.500000
vt 0.000000 0.515625
vt 0.109375 0.531250
vt 0.125000 0.531250
vt 0.171875 0.531250
vt 0.156250 0.531250
vt 0.031250 0.531250
vt 0.015625 0.531250
vt 0.078125 0.531250
vt 0.062500 0.531250
vt 0.015625 0.531250
vt 0.015625 0.546875
vt 0.031250 0.546875
vt 0.031250 0.531250
vt -0.000000 0.531250
vt -0.000000 0.546875
vt 0.015625 0.546875
vt 0.015625 0.531250
vt 0.031250 0.531250
vt 0.015625 0.531250
vt 0.015625 0.546875
vt 0.031250 0.546875
vt 0.046875 0.546875
vt 0.046875 0.531250
vt 0.031250 0.546875
vt -0.000000 0.546875
vt 0.015625 0.562500
vt 0.015625 0.546875
vt 0.031250 0.562500
vt 0.031250 0.546875
vt 0.046875 0.562500
vt 0.046875 0.546875
vt 0.062500 0.531250
vt 0.078125 0.531250
vt 0.078125 0.546875
vt 0.062500 0.546875
vt 0.062500 0.531250
vt 0.046875 0.531250
vt 0.046875 0.546875
vt 0.062500 0.546875
vt 0.078125 0.531250
vt 0.062500 0.531250
vt 0.062500 0.546875
vt 0.078125 0.546875
vt 0.093750 0.531250
vt 0.078125 0.531250
vt 0.078125 0.546875
vt 0.093750 0.546875
vt 0.062500 0.562500
vt 0.078125 0.562500
vt 0.093750 0.562500
vt 0.015625 0.531250
vt 0.031250 0.531250
vt 0.031250 0.546875
vt 0.015625 0.546875
vt -0.000000 0.531250
vt 0.015625 0.531250
vt 0.015625 0.546875
vt -0.000000 0.546875
vt 0.031250 0.531250
vt 0.031250 0.546875
vt 0.015625 0.546875
vt 0.015625 0.531250
vt 0.046875 0.546875
vt 0.031250 0.546875
vt 0.046875 0.531250
vt -0.000000 0.546875
vt 0.015625 0.546875
vt 0.015625 0.562500
vt 0.031250 0.546875
vt 0.031250 0.562500
vt 0.046875 0.546875
vt 0.046875 0.562500
vt 0.062500 0.531250
vt 0.062500 0.546875
vt 0.078125 0.546875
vt 0.078125 0.531250
vt 0.062500 0.531250
vt 0.062500 0.546875
vt 0.046875 0.546875
vt 0.046875 0.531250
vt 0.078125 0.531250
vt 0.078125 0.546875
vt 0.062500 0.546875
vt 0.062500 0.531250
vt 0.093750 0.531250
vt 0.093750 0.546875
vt 0.078125 0.546875
vt 0.078125 0.531250
vt 0.062500 0.562500
vt 0.078125 0.562500
vt 0.093750 0.562500
vn 1.0000 0.0000 0.0000
vn 0.0000 0.0000 1.0000
vn -1.0000 0.0000 0.0000
vn 0.0000 -1.0000 0.0000
vn 0.0000 1.0000 0.0000
vn 0.7071 0.0000 0.7071
vn 0.0000 -0.7071 0.7071
vn 0.0000 0.7071 0.7071
vn -0.7071 0.0000 0.7071
vn 0.0000 0.0000 -1.0000
vn 0.7071 0.0000 -0.7071
vn 0.0000 -0.7071 -0.7071
vn 0.0000 0.7071 -0.7071
vn -0.7071 0.0000 -0.7071
vn 0.0000 0.4472 -0.8944
vn 0.8944 0.4472 0.0000
vn 0.0000 0.4472 0.8944
vn -0.8944 0.4472 0.0000
usemtl MAIN
s off
f 1/1/1 2/2/1 9/3/1 10/4/1
f 3/5/2 4/6/2 8/7/2 7/8/2
f 11/9/3 12/10/3 6/11/3 5/12/3
f 10/13/4 11/14/4 5/15/4 1/16/4
f 12/10/5 9/17/5 2/18/5 6/11/5
f 4/19/6 3/20/6 10/4/6 9/3/6
f 3/21/7 7/22/7 11/14/7 10/13/7
f 8/23/8 4/24/8 9/17/8 12/10/8
f 7/25/9 8/26/9 12/10/9 11/9/9
f 13/27/1 22/28/1 21/29/1 14/30/1
f 15/31/10 19/32/10 20/33/10 16/34/10
f 23/35/3 17/36/3 18/37/3 24/38/3
f 22/39/4 13/40/4 17/41/4 23/42/4
f 24/38/5 18/37/5 14/43/5 21/44/5
f 16/45/11 21/29/11 22/28/11 15/46/11
f 15/47/12 22/39/12 23/42/12 19/48/12
f 20/49/13 24/38/13 21/44/13 16/50/13
f 19/51/14 23/35/14 24/38/14 20/52/14
f 25/53/1 27/54/1 28/55/1 26/56/1
f 27/57/10 31/58/10 32/59/10 28/60/10
f 31/61/3 29/62/3 30/63/3 32/64/3
f 29/65/2 25/66/2 26/56/2 30/67/2
f 32/68/15 33/69/15 28/70/15
f 28/70/16 33/71/16 26/72/16
f 26/72/17 33/73/17 30/74/17
f 30/63/18 33/71/18 32/64/18
f 34/75/1 36/76/1 37/77/1 35/78/1
f 36/79/10 40/80/10 41/81/10 37/82/10
f 40/83/3 38/84/3 39/85/3 41/86/3
f 38/87/2 34/88/2 35/89/2 39/90/2
f 41/81/15 42/91/15 37/82/15
f 37/77/16 42/92/16 35/78/16
f 35/89/17 42/93/17 39/90/17
f 39/85/18 42/92/18 41/86/18
f 43/94/1 44/95/1 46/96/1 45/97/1
f 45/98/2 46/99/2 50/100/2 49/101/2
f 49/102/3 50/103/3 48/104/3 47/105/3
f 47/106/10 48/107/10 44/95/10 43/108/10
f 50/109/17 46/110/17 51/111/17
f 46/110/16 44/112/16 51/113/16
f 44/112/15 48/114/15 51/115/15
f 48/104/18 50/103/18 51/113/18
f 52/116/1 53/117/1 55/118/1 54/119/1
f 54/120/2 55/121/2 59/122/2 58/123/2
f 58/124/3 59/125/3 57/126/3 56/127/3
f 56/128/10 57/129/10 53/130/10 52/131/10
f 59/122/17 55/121/17 60/132/17
f 55/118/16 53/117/16 60/133/16
f 53/130/15 57/129/15 60/134/15
f 57/126/18 59/125/18 60/133/18
o ARM_LEFT_AXE_Cube.027
v -0.375000 1.000000 0.156250
v -0.375000 1.312500 0.156250
v -0.687500 1.000000 0.156250
v -0.687500 1.312500 0.156250
v -0.375000 1.000000 -0.156250
v -0.375000 1.312500 -0.156250
v -0.687500 1.000000 -0.156250
v -0.687500 1.312500 -0.156250
v -0.437500 1.000000 0.093750
v -0.625000 1.000000 0.093750
v -0.437500 1.000000 -0.093750
v -0.625000 1.000000 -0.093750
v -0.687500 1.062500 0.093750
v -0.671875 1.296875 -0.093750
v -0.671875 1.296875 0.093750
v -0.687500 1.062500 -0.093750
v -0.437500 1.312500 0.093750
v -0.437500 1.312500 -0.093750
v -0.437500 1.296875 0.093750
v -0.437500 1.296875 -0.093750
v -0.687500 1.312500 -0.093750
v -0.687500 1.312500 0.093750
v -0.671875 1.062500 -0.093750
v -0.671875 1.062500 0.093750
v -0.453125 0.750000 -0.078125
v -0.453125 0.937500 -0.078125
v -0.562500 0.937500 0.093750
v -0.562500 0.750000 0.093750
v -0.562500 0.750000 -0.093750
v -0.562500 0.937500 -0.093750
v -0.453125 0.937500 0.078125
v -0.453125 0.750000 0.078125
v -0.562500 0.750000 -0.078125
v -0.562500 0.937500 -0.078125
v -0.437500 0.937500 -0.093750
v -0.437500 0.750000 -0.093750
v -0.437500 0.937500 0.093750
v -0.437500 0.750000 0.093750
v -0.562500 0.937500 0.078125
v -0.562500 0.750000 0.078125
v -0.625000 0.687500 0.093750
v -0.437500 0.687500 0.093750
v -0.625000 0.687500 -0.093750
v -0.437500 0.687500 -0.093750
v -0.671875 1.296875 -0.093750
v -0.671875 1.296875 0.093750
v -0.437500 1.296875 0.093750
v -0.437500 1.296875 -0.093750
v -0.671875 1.062500 -0.093750
v -0.671875 1.062500 0.093750
v -0.468750 0.687500 0.062500
v -0.593750 0.687500 0.062500
v -0.468750 0.687500 -0.062500
v -0.593750 0.687500 -0.062500
v -0.453125 0.750000 -0.078125
v -0.453125 0.937500 -0.078125
v -0.453125 0.937500 0.078125
v -0.453125 0.750000 0.078125
v -0.562500 0.750000 -0.078125
v -0.562500 0.937500 -0.078125
v -0.562500 0.937500 0.078125
v -0.562500 0.750000 0.078125
v -0.593750 0.625000 0.062500
v -0.468750 0.625000 0.062500
v -0.593750 0.625000 -0.062500
v -0.468750 0.625000 -0.062500
v -0.500000 0.593750 0.031250
v -0.500000 0.656250 0.031250
v -0.562500 0.593750 0.031250
v -0.562500 0.656250 0.031250
v -0.500000 0.593750 -0.031250
v -0.500000 0.656250 -0.031250
v -0.562500 0.593750 -0.031250
v -0.562500 0.656250 -0.031250
v -0.562500 0.281250 0.031250
v -0.500000 0.281250 0.031250
v -0.562500 0.281250 -0.031250
v -0.500000 0.281250 -0.031250
v -0.531250 0.250000 0.000000
v -0.531250 0.281250 0.156250
v -0.539062 0.281250 0.093750
v -0.523438 0.281250 0.093750
v -0.539062 0.218750 0.093750
v -0.523438 0.218750 0.093750
v -0.531250 0.406250 0.156250
v -0.539062 0.406250 0.093750
v -0.523438 0.406250 0.093750
v -0.539062 0.468750 0.093750
v -0.523438 0.468750 0.093750
v -0.523438 0.406250 0.031250
v -0.539062 0.406250 0.031250
v -0.523438 0.281250 0.031250
v -0.539062 0.281250 0.031250
vt 0.656250 0.281250
vt 0.656250 0.359375
vt 0.734375 0.359375
vt 0.734375 0.281250
vt 0.578125 0.203125
vt 0.562500 0.203125
vt 0.562500 0.265625
vt 0.578125 0.281250
vt 0.734375 0.281250
vt 0.734375 0.359375
vt 0.656250 0.359375
vt 0.656250 0.281250
vt 0.578125 0.359375
vt 0.578125 0.281250
vt 0.500000 0.203125
vt 0.515625 0.203125
vt 0.515625 0.265625
vt 0.500000 0.281250
vt 0.500000 0.281250
vt 0.578125 0.281250
vt 0.578125 0.359375
vt 0.500000 0.359375
vt 0.578125 0.203125
vt 0.625000 0.203125
vt 0.625000 0.218750
vt 0.593750 0.218750
vt 0.718750 0.203125
vt 0.718750 0.281250
vt 0.671875 0.281250
vt 0.671875 0.203125
vt 0.625000 0.281250
vt 0.625000 0.265625
vt 0.593750 0.265625
vt 0.578125 0.281250
vt 0.500000 0.281250
vt 0.515625 0.265625
vt 0.562500 0.265625
vt 0.546875 0.265625
vt 0.546875 0.207031
vt 0.578125 0.281250
vt 0.515625 0.250000
vt 0.562500 0.250000
vt 0.562500 0.265625
vt 0.515625 0.265625
vt 0.515625 0.250000
vt 0.562500 0.250000
vt 0.531250 0.207031
vt 0.531250 0.265625
vt 0.531250 0.265625
vt 0.546875 0.265625
vt 0.625000 0.265625
vt 0.593750 0.265625
vt 0.593750 0.250000
vt 0.621094 0.250000
vt 0.578125 0.281250
vt 0.578125 0.203125
vt 0.593750 0.218750
vt 0.625000 0.203125
vt 0.625000 0.218750
vt 0.671875 0.265625
vt 0.628906 0.250000
vt 0.667969 0.250000
vt 0.671875 0.218750
vt 0.667969 0.234375
vt 0.628906 0.234375
vt 0.621094 0.250000
vt 0.593750 0.250000
vt 0.609375 0.265625
vt 0.609375 0.218750
vt 0.671875 0.203125
vt 0.593750 0.234375
vt 0.621094 0.234375
vt 0.625000 0.281250
vt 0.671875 0.281250
vt 0.609375 0.218750
vt 0.609375 0.265625
vt 0.621094 0.234375
vt 0.593750 0.234375
vt 0.718750 0.218750
vt 0.765625 0.218750
vt 0.765625 0.265625
vt 0.718750 0.265625
vt 0.718750 0.187500
vt 0.718750 0.203125
vt 0.703125 0.203125
vt 0.703125 0.187500
vt 0.687500 0.203125
vt 0.687500 0.187500
vt 0.703125 0.187500
vt 0.703125 0.203125
vt 0.718750 0.203125
vt 0.718750 0.187500
vt 0.687500 0.187500
vt 0.687500 0.203125
vt 0.703125 0.203125
vt 0.703125 0.187500
vt 0.703125 0.109375
vt 0.718750 0.109375
vt 0.718750 0.093750
vt 0.718750 0.109375
vt 0.703125 0.109375
vt 0.687500 0.109375
vt 0.703125 0.109375
vt 0.703125 0.093750
vt 0.687500 0.109375
vt 0.765625 0.109375
vt 0.765625 0.125000
vt 0.734375 0.125000
vt 0.734375 0.109375
vt 0.781250 0.109375
vt 0.781250 0.125000
vt 0.781250 0.109375
vt 0.765625 0.109375
vt 0.734375 0.109375
vt 0.765625 0.093750
vt 0.734375 0.093750
vt 0.750000 0.109375
vt 0.765625 0.093750
vt 0.750000 0.093750
vt 0.765625 0.125000
vt 0.718750 0.109375
vt 0.750000 0.109375
vt 0.750000 0.093750
vt 0.718750 0.109375
vt 0.718750 0.125000
vt 0.734375 0.125000
vt 0.734375 0.093750
vt 0.984375 -0.000000
vt 0.875000 -0.000000
vt 0.875000 0.187500
vt 0.984375 0.187500
vt 0.812500 0.437500
vt 0.687500 0.437500
vt 0.687500 0.375000
vt 0.812500 0.375000
vt 1.000000 0.625000
vt 0.812500 0.625000
vt 0.812500 0.390625
vt 1.000000 0.390625
vt 0.812500 0.187500
vt 1.000000 0.187500
vt 1.000000 0.421875
vt 0.812500 0.421875
vt 0.703125 0.187500
vt 0.703125 -0.000000
vt 0.859375 -0.000000
vt 0.859375 0.187500
vt 0.984375 -0.000000
vt 0.984375 0.187500
vt 0.875000 0.187500
vt 0.875000 -0.000000
vt 0.687500 0.250000
vt 0.812500 0.250000
vt 0.687500 0.250000
vt 0.812500 0.250000
vt 0.812500 0.187500
vt 0.687500 0.187500
vt 0.687500 0.250000
vt 0.687500 0.187500
vt 0.812500 0.437500
vt 0.812500 0.375000
vn 0.0000 0.0000 1.0000
vn -1.0000 0.0000 0.0000
vn -0.0000 0.0000 -1.0000
vn 1.0000 0.0000 0.0000
vn 0.0000 1.0000 0.0000
vn 0.0000 -1.0000 0.0000
vn -0.0000 -0.7071 -0.7071
vn 0.0000 -0.7071 0.7071
vn 0.7071 -0.7071 0.0000
vn -0.7071 -0.7071 0.0000
vn -0.9923 0.0000 0.1240
vn 0.9923 0.0000 0.1240
vn 0.0000 0.7071 0.7071
usemtl MAIN
s off
f 61/135/19 62/136/19 64/137/19 63/138/19
f 64/139/20 82/140/20 73/141/20 63/142/20
f 67/143/21 68/144/21 66/145/21 65/146/21
f 65/146/22 66/145/22 62/147/22 61/148/22
f 68/149/23 81/150/23 78/151/23 66/152/23
f 63/153/24 67/154/24 65/155/24 61/156/24
f 101/157/19 102/158/19 98/159/19 88/160/19
f 101/161/20 70/162/20 72/163/20 103/164/20
f 71/165/21 95/166/21 90/167/21 72/168/21
f 68/149/20 67/169/20 76/170/20 81/150/20
f 82/140/21 77/171/21 79/172/21 75/173/21
f 67/169/20 63/142/20 73/141/20 76/170/20
f 62/174/23 66/152/23 78/151/23 77/171/23
f 64/139/23 62/174/23 77/171/23 82/140/23
f 77/171/20 78/151/20 80/175/20 79/176/20
f 76/177/23 73/178/23 84/179/23 83/180/23
f 78/151/19 81/150/19 74/181/19 80/182/19
f 81/150/19 76/170/19 83/183/19 74/181/19
f 73/141/21 82/140/21 75/173/21 84/184/21
f 97/185/24 87/186/24 99/187/24 91/188/24
f 70/189/19 101/157/19 88/160/19 87/186/19
f 103/190/21 72/168/21 90/167/21 89/191/21
f 104/192/21 103/190/21 89/191/21 96/193/21
f 95/194/24 97/185/24 91/195/24 86/196/24
f 98/159/23 96/197/23 85/198/23 92/199/23
f 90/167/24 95/166/24 86/200/24 94/201/24
f 89/191/22 90/167/22 94/202/22 93/203/22
f 102/158/22 104/204/22 96/197/22 98/159/22
f 96/193/23 89/191/23 93/205/23 85/206/23
f 69/207/22 97/185/22 95/194/22 71/208/22
f 87/186/22 88/160/22 100/209/22 99/210/22
f 69/207/19 70/189/19 87/186/19 97/185/19
f 88/160/23 98/159/23 92/211/23 100/212/23
f 101/213/24 103/214/24 104/215/24 102/216/24
f 127/217/19 128/218/19 130/219/19 129/220/19
f 129/220/20 130/219/20 134/221/20 133/222/20
f 133/223/21 134/224/21 132/225/21 131/226/21
f 131/227/22 132/228/22 128/229/22 127/230/22
f 137/231/25 138/232/25 139/233/25
f 136/234/26 135/235/26 139/233/26
f 138/236/27 136/237/27 139/238/27
f 135/235/28 137/239/28 139/238/28
f 141/240/29 140/241/29 145/242/29 146/243/29
f 141/240/29 143/244/29 140/241/29
f 143/244/26 144/245/26 140/241/26
f 144/246/30 142/247/30 140/241/30
f 147/248/22 142/247/22 152/249/22 150/250/22
f 142/251/24 141/240/24 153/252/24 152/253/24
f 142/254/21 144/245/21 143/244/21 141/240/21
f 146/243/29 145/242/29 148/255/29
f 146/256/23 147/248/23 150/250/23 151/257/23
f 140/241/30 142/247/30 147/248/30 145/242/30
f 145/242/30 147/248/30 149/258/30
f 145/242/31 149/259/31 148/255/31
f 147/260/21 146/243/21 148/255/21 149/259/21
f 129/220/19 135/235/19 136/234/19 127/217/19
f 131/226/21 138/232/21 137/231/21 133/223/21
f 133/222/20 137/239/20 135/235/20 129/220/20
f 127/230/22 136/237/22 138/236/22 131/227/22
f 141/240/20 146/243/20 151/261/20 153/252/20
usemtl CIRCUITRY
f 115/262/21 119/263/21 120/264/21 116/265/21
f 113/266/22 111/267/22 124/268/22 126/269/22
f 107/270/23 108/271/23 105/272/23 106/273/23
f 109/274/20 110/275/20 106/276/20 105/277/20
f 115/278/22 116/279/22 117/280/22 118/281/22
f 118/282/19 117/283/19 121/284/19 122/285/19
f 123/286/24 125/287/24 126/269/24 124/268/24
f 112/288/20 114/289/20 125/290/20 123/291/20
f 114/289/21 113/292/21 126/293/21 125/290/21
f 111/267/19 112/294/19 123/295/19 124/268/19
