# Blender v2.80 (sub 75) OBJ File: 'constructs.blend'
# www.blender.org
mtllib arm_blade_r.mtl
o ARM_RIGHT_DECO_IRON_Cube.139
v 0.437500 1.062500 0.125000
v 0.437500 1.250000 0.125000
v 0.500000 1.125000 0.250000
v 0.500000 1.187500 0.250000
v 0.625000 1.062500 0.125000
v 0.625000 1.250000 0.125000
v 0.562500 1.125000 0.250000
v 0.562500 1.187500 0.250000
v 0.437500 1.250000 0.187500
v 0.437500 1.062500 0.187500
v 0.625000 1.062500 0.187500
v 0.625000 1.250000 0.187500
v 0.437500 1.062500 -0.125000
v 0.437500 1.250000 -0.125000
v 0.500000 1.125000 -0.250000
v 0.500000 1.187500 -0.250000
v 0.625000 1.062500 -0.125000
v 0.625000 1.250000 -0.125000
v 0.562500 1.125000 -0.250000
v 0.562500 1.187500 -0.250000
v 0.437500 1.250000 -0.187500
v 0.437500 1.062500 -0.187500
v 0.625000 1.062500 -0.187500
v 0.625000 1.250000 -0.187500
v 0.625000 1.312500 -0.093750
v 0.625000 1.375000 -0.093750
v 0.625000 1.312500 -0.156250
v 0.625000 1.375000 -0.156250
v 0.687500 1.312500 -0.093750
v 0.687500 1.375000 -0.093750
v 0.687500 1.312500 -0.156250
v 0.687500 1.375000 -0.156250
v 0.656250 1.437500 -0.125000
v 0.375000 1.312500 -0.093750
v 0.375000 1.375000 -0.093750
v 0.375000 1.312500 -0.156250
v 0.375000 1.375000 -0.156250
v 0.437500 1.312500 -0.093750
v 0.437500 1.375000 -0.093750
v 0.437500 1.312500 -0.156250
v 0.437500 1.375000 -0.156250
v 0.406250 1.437500 -0.125000
v 0.625000 1.312500 0.093750
v 0.625000 1.375000 0.093750
v 0.625000 1.312500 0.156250
v 0.625000 1.375000 0.156250
v 0.687500 1.312500 0.093750
v 0.687500 1.375000 0.093750
v 0.687500 1.312500 0.156250
v 0.687500 1.375000 0.156250
v 0.656250 1.437500 0.125000
v 0.375000 1.312500 0.093750
v 0.375000 1.375000 0.093750
v 0.375000 1.312500 0.156250
v 0.375000 1.375000 0.156250
v 0.437500 1.312500 0.093750
v 0.437500 1.375000 0.093750
v 0.437500 1.312500 0.156250
v 0.437500 1.375000 0.156250
v 0.406250 1.437500 0.125000
vt 0.140625 0.500000
vt 0.140625 0.515625
vt 0.093750 0.515625
vt 0.093750 0.500000
vt 0.187500 0.500000
vt 0.187500 0.515625
vt 0.203125 0.515625
vt 0.203125 0.500000
vt 0.093750 0.515625
vt 0.093750 0.500000
vt 0.046875 0.500000
vt 0.046875 0.515625
vt 0.187500 0.515625
vt 0.187500 0.500000
vt 0.140625 0.500000
vt 0.140625 0.515625
vt 0.000000 0.500000
vt 0.000000 0.515625
vt 0.109375 0.531250
vt 0.125000 0.531250
vt 0.171875 0.531250
vt 0.156250 0.531250
vt 0.031250 0.531250
vt 0.015625 0.531250
vt 0.078125 0.531250
vt 0.062500 0.531250
vt 0.140625 0.500000
vt 0.093750 0.500000
vt 0.093750 0.515625
vt 0.140625 0.515625
vt 0.187500 0.500000
vt 0.203125 0.500000
vt 0.203125 0.515625
vt 0.187500 0.515625
vt 0.093750 0.515625
vt 0.046875 0.515625
vt 0.046875 0.500000
vt 0.093750 0.500000
vt 0.187500 0.515625
vt 0.140625 0.515625
vt 0.140625 0.500000
vt 0.187500 0.500000
vt -0.000000 0.515625
vt -0.000000 0.500000
vt 0.109375 0.531250
vt 0.125000 0.531250
vt 0.171875 0.531250
vt 0.156250 0.531250
vt 0.031250 0.531250
vt 0.015625 0.531250
vt 0.078125 0.531250
vt 0.062500 0.531250
vt 0.015625 0.531250
vt 0.031250 0.531250
vt 0.031250 0.546875
vt 0.015625 0.546875
vt -0.000000 0.531250
vt 0.015625 0.531250
vt 0.015625 0.546875
vt -0.000000 0.546875
vt 0.031250 0.531250
vt 0.031250 0.546875
vt 0.015625 0.546875
vt 0.015625 0.531250
vt 0.046875 0.546875
vt 0.031250 0.546875
vt 0.046875 0.531250
vt -0.000000 0.546875
vt 0.015625 0.546875
vt 0.015625 0.562500
vt 0.031250 0.546875
vt 0.031250 0.562500
vt 0.046875 0.546875
vt 0.046875 0.562500
vt 0.062500 0.531250
vt 0.062500 0.546875
vt 0.078125 0.546875
vt 0.078125 0.531250
vt 0.062500 0.531250
vt 0.062500 0.546875
vt 0.046875 0.546875
vt 0.046875 0.531250
vt 0.078125 0.531250
vt 0.078125 0.546875
vt 0.062500 0.546875
vt 0.062500 0.531250
vt 0.093750 0.531250
vt 0.093750 0.546875
vt 0.078125 0.546875
vt 0.078125 0.531250
vt 0.062500 0.562500
vt 0.078125 0.562500
vt 0.093750 0.562500
vt 0.015625 0.531250
vt 0.015625 0.546875
vt 0.031250 0.546875
vt 0.031250 0.531250
vt -0.000000 0.531250
vt -0.000000 0.546875
vt 0.015625 0.546875
vt 0.015625 0.531250
vt 0.031250 0.531250
vt 0.015625 0.531250
vt 0.015625 0.546875
vt 0.031250 0.546875
vt 0.046875 0.546875
vt 0.046875 0.531250
vt 0.031250 0.546875
vt -0.000000 0.546875
vt 0.015625 0.562500
vt 0.015625 0.546875
vt 0.031250 0.562500
vt 0.031250 0.546875
vt 0.046875 0.562500
vt 0.046875 0.546875
vt 0.062500 0.531250
vt 0.078125 0.531250
vt 0.078125 0.546875
vt 0.062500 0.546875
vt 0.062500 0.531250
vt 0.046875 0.531250
vt 0.046875 0.546875
vt 0.062500 0.546875
vt 0.078125 0.531250
vt 0.062500 0.531250
vt 0.062500 0.546875
vt 0.078125 0.546875
vt 0.093750 0.531250
vt 0.078125 0.531250
vt 0.078125 0.546875
vt 0.093750 0.546875
vt 0.062500 0.562500
vt 0.078125 0.562500
vt 0.093750 0.562500
vn -1.0000 0.0000 0.0000
vn 0.0000 0.0000 1.0000
vn 1.0000 0.0000 0.0000
vn 0.0000 -1.0000 0.0000
vn 0.0000 1.0000 0.0000
vn -0.7071 0.0000 0.7071
vn 0.0000 -0.7071 0.7071
vn 0.0000 0.7071 0.7071
vn 0.7071 0.0000 0.7071
vn 0.0000 0.0000 -1.0000
vn -0.7071 0.0000 -0.7071
vn 0.0000 -0.7071 -0.7071
vn 0.0000 0.7071 -0.7071
vn 0.7071 0.0000 -0.7071
vn 0.0000 0.4472 -0.8944
vn -0.8944 0.4472 0.0000
vn 0.0000 0.4472 0.8944
vn 0.8944 0.4472 0.0000
usemtl MAIN
s off
f 1/1/1 10/2/1 9/3/1 2/4/1
f 3/5/2 7/6/2 8/7/2 4/8/2
f 11/9/3 5/10/3 6/11/3 12/12/3
f 10/13/4 1/14/4 5/15/4 11/16/4
f 12/12/5 6/11/5 2/17/5 9/18/5
f 4/19/6 9/3/6 10/2/6 3/20/6
f 3/21/7 10/13/7 11/16/7 7/22/7
f 8/23/8 12/12/8 9/18/8 4/24/8
f 7/25/9 11/9/9 12/12/9 8/26/9
f 13/27/1 14/28/1 21/29/1 22/30/1
f 15/31/10 16/32/10 20/33/10 19/34/10
f 23/35/3 24/36/3 18/37/3 17/38/3
f 22/39/4 23/40/4 17/41/4 13/42/4
f 24/36/5 21/43/5 14/44/5 18/37/5
f 16/45/11 15/46/11 22/30/11 21/29/11
f 15/47/12 19/48/12 23/40/12 22/39/12
f 20/49/13 16/50/13 21/43/13 24/36/13
f 19/51/14 20/52/14 24/36/14 23/35/14
f 25/53/1 26/54/1 28/55/1 27/56/1
f 27/57/10 28/58/10 32/59/10 31/60/10
f 31/61/3 32/62/3 30/63/3 29/64/3
f 29/65/2 30/66/2 26/54/2 25/67/2
f 32/68/15 28/69/15 33/70/15
f 28/69/16 26/71/16 33/72/16
f 26/71/17 30/73/17 33/74/17
f 30/63/18 32/62/18 33/72/18
f 34/75/1 35/76/1 37/77/1 36/78/1
f 36/79/10 37/80/10 41/81/10 40/82/10
f 40/83/3 41/84/3 39/85/3 38/86/3
f 38/87/2 39/88/2 35/89/2 34/90/2
f 41/81/15 37/80/15 42/91/15
f 37/77/16 35/76/16 42/92/16
f 35/89/17 39/88/17 42/93/17
f 39/85/18 41/84/18 42/92/18
f 43/94/1 45/95/1 46/96/1 44/97/1
f 45/98/2 49/99/2 50/100/2 46/101/2
f 49/102/3 47/103/3 48/104/3 50/105/3
f 47/106/10 43/107/10 44/97/10 48/108/10
f 50/109/17 51/110/17 46/111/17
f 46/111/16 51/112/16 44/113/16
f 44/113/15 51/114/15 48/115/15
f 48/104/18 51/112/18 50/105/18
f 52/116/1 54/117/1 55/118/1 53/119/1
f 54/120/2 58/121/2 59/122/2 55/123/2
f 58/124/3 56/125/3 57/126/3 59/127/3
f 56/128/10 52/129/10 53/130/10 57/131/10
f 59/122/17 60/132/17 55/123/17
f 55/118/16 60/133/16 53/119/16
f 53/130/15 60/134/15 57/131/15
f 57/126/18 60/133/18 59/127/18
o ARM_RIGHT_BLADE_Cube.044
v 0.375000 1.000000 0.156250
v 0.375000 1.312500 0.156250
v 0.687500 1.000000 0.156250
v 0.687500 1.312500 0.156250
v 0.375000 1.000000 -0.156250
v 0.375000 1.312500 -0.156250
v 0.687500 1.000000 -0.156250
v 0.687500 1.312500 -0.156250
v 0.437500 1.000000 0.093750
v 0.625000 1.000000 0.093750
v 0.437500 1.000000 -0.093750
v 0.625000 1.000000 -0.093750
v 0.687500 1.062500 0.093750
v 0.671875 1.296875 -0.093750
v 0.671875 1.296875 0.093750
v 0.687500 1.062500 -0.093750
v 0.437500 1.312500 0.093750
v 0.437500 1.312500 -0.093750
v 0.437500 1.296875 0.093750
v 0.437500 1.296875 -0.093750
v 0.687500 1.312500 -0.093750
v 0.687500 1.312500 0.093750
v 0.671875 1.062500 -0.093750
v 0.671875 1.062500 0.093750
v 0.453125 0.750000 -0.078125
v 0.453125 0.937500 -0.078125
v 0.562500 0.937500 0.093750
v 0.562500 0.750000 0.093750
v 0.562500 0.750000 -0.093750
v 0.562500 0.937500 -0.093750
v 0.453125 0.937500 0.078125
v 0.453125 0.750000 0.078125
v 0.562500 0.750000 -0.078125
v 0.562500 0.937500 -0.078125
v 0.437500 0.937500 -0.093750
v 0.437500 0.750000 -0.093750
v 0.437500 0.937500 0.093750
v 0.437500 0.750000 0.093750
v 0.562500 0.937500 0.078125
v 0.562500 0.750000 0.078125
v 0.625000 0.687500 0.093750
v 0.437500 0.687500 0.093750
v 0.625000 0.687500 -0.093750
v 0.437500 0.687500 -0.093750
v 0.671875 1.296875 -0.093750
v 0.671875 1.296875 0.093750
v 0.437500 1.296875 0.093750
v 0.437500 1.296875 -0.093750
v 0.671875 1.062500 -0.093750
v 0.671875 1.062500 0.093750
v 0.468750 0.687500 0.062500
v 0.593750 0.687500 0.062500
v 0.468750 0.687500 -0.062500
v 0.593750 0.687500 -0.062500
v 0.453125 0.750000 -0.078125
v 0.453125 0.937500 -0.078125
v 0.453125 0.937500 0.078125
v 0.453125 0.750000 0.078125
v 0.562500 0.750000 -0.078125
v 0.562500 0.937500 -0.078125
v 0.562500 0.937500 0.078125
v 0.562500 0.750000 0.078125
v 0.593750 0.625000 0.062500
v 0.468750 0.625000 0.062500
v 0.593750 0.625000 -0.062500
v 0.468750 0.625000 -0.062500
v 0.500000 0.593750 0.031250
v 0.500000 0.656250 0.031250
v 0.562500 0.593750 0.031250
v 0.562500 0.656250 0.031250
v 0.500000 0.593750 -0.031250
v 0.500000 0.656250 -0.031250
v 0.562500 0.593750 -0.031250
v 0.562500 0.656250 -0.031250
v 0.531250 0.593750 0.031250
v 0.539062 0.593750 -0.031250
v 0.523438 0.593750 -0.031250
v 0.531250 0.281250 0.031250
v 0.539062 0.218750 -0.031250
v 0.523438 0.218750 -0.031250
vt 0.656250 0.281250
vt 0.734375 0.281250
vt 0.734375 0.359375
vt 0.656250 0.359375
vt 0.578125 0.203125
vt 0.578125 0.281250
vt 0.562500 0.265625
vt 0.562500 0.203125
vt 0.734375 0.281250
vt 0.656250 0.281250
vt 0.656250 0.359375
vt 0.734375 0.359375
vt 0.578125 0.281250
vt 0.578125 0.359375
vt 0.500000 0.203125
vt 0.500000 0.281250
vt 0.515625 0.265625
vt 0.515625 0.203125
vt 0.500000 0.281250
vt 0.500000 0.359375
vt 0.578125 0.359375
vt 0.578125 0.281250
vt 0.578125 0.203125
vt 0.593750 0.218750
vt 0.625000 0.218750
vt 0.625000 0.203125
vt 0.718750 0.203125
vt 0.671875 0.203125
vt 0.671875 0.281250
vt 0.718750 0.281250
vt 0.625000 0.281250
vt 0.578125 0.281250
vt 0.593750 0.265625
vt 0.625000 0.265625
vt 0.515625 0.265625
vt 0.500000 0.281250
vt 0.546875 0.207031
vt 0.546875 0.265625
vt 0.562500 0.265625
vt 0.578125 0.281250
vt 0.562500 0.250000
vt 0.515625 0.250000
vt 0.562500 0.265625
vt 0.562500 0.250000
vt 0.515625 0.250000
vt 0.515625 0.265625
vt 0.531250 0.265625
vt 0.531250 0.207031
vt 0.531250 0.265625
vt 0.546875 0.265625
vt 0.625000 0.265625
vt 0.621094 0.250000
vt 0.593750 0.250000
vt 0.593750 0.265625
vt 0.578125 0.281250
vt 0.578125 0.203125
vt 0.593750 0.218750
vt 0.625000 0.203125
vt 0.625000 0.218750
vt 0.671875 0.265625
vt 0.667969 0.250000
vt 0.628906 0.250000
vt 0.628906 0.234375
vt 0.667969 0.234375
vt 0.671875 0.218750
vt 0.593750 0.250000
vt 0.621094 0.250000
vt 0.609375 0.218750
vt 0.609375 0.265625
vt 0.671875 0.203125
vt 0.621094 0.234375
vt 0.593750 0.234375
vt 0.625000 0.281250
vt 0.671875 0.281250
vt 0.609375 0.265625
vt 0.609375 0.218750
vt 0.593750 0.234375
vt 0.621094 0.234375
vt 0.718750 0.218750
vt 0.718750 0.265625
vt 0.765625 0.265625
vt 0.765625 0.218750
vt 0.656250 0.156250
vt 0.671875 0.156250
vt 0.671875 0.171875
vt 0.656250 0.171875
vt 0.671875 0.171875
vt 0.656250 0.171875
vt 0.656250 0.187500
vt 0.671875 0.187500
vt 0.671875 0.156250
vt 0.656250 0.156250
vt 0.656250 0.171875
vt 0.671875 0.171875
vt 0.656250 0.171875
vt 0.671875 0.171875
vt 0.671875 0.187500
vt 0.656250 0.187500
vt 0.671875 0.187500
vt 0.671875 0.093750
vt 0.687500 0.093750
vt 0.687500 0.187500
vt 0.671875 0.093750
vt 0.687500 0.109375
vt 0.687500 0.093750
vt 0.671875 0.187500
vt 0.671875 0.093750
vt 0.687500 0.109375
vt 0.687500 0.187500
vt 0.609375 0.140625
vt 0.625000 0.140625
vt 0.625000 0.156250
vt 0.609375 0.156250
vt 0.984375 -0.000000
vt 0.984375 0.187500
vt 0.875000 0.187500
vt 0.875000 -0.000000
vt 0.812500 0.437500
vt 0.812500 0.375000
vt 0.687500 0.375000
vt 0.687500 0.437500
vt 1.000000 0.625000
vt 1.000000 0.390625
vt 0.812500 0.390625
vt 0.812500 0.625000
vt 0.812500 0.187500
vt 0.812500 0.421875
vt 1.000000 0.421875
vt 1.000000 0.187500
vt 0.703125 0.187500
vt 0.859375 0.187500
vt 0.859375 -0.000000
vt 0.703125 -0.000000
vt 0.984375 -0.000000
vt 0.875000 -0.000000
vt 0.875000 0.187500
vt 0.984375 0.187500
vt 0.687500 0.250000
vt 0.812500 0.250000
vt 0.687500 0.250000
vt 0.687500 0.187500
vt 0.812500 0.187500
vt 0.812500 0.250000
vt 0.687500 0.187500
vt 0.687500 0.250000
vt 0.812500 0.375000
vt 0.812500 0.437500
vn 0.0000 0.0000 1.0000
vn 1.0000 0.0000 0.0000
vn -0.0000 0.0000 -1.0000
vn -1.0000 0.0000 0.0000
vn 0.0000 1.0000 0.0000
vn 0.0000 -1.0000 0.0000
vn 0.0000 -0.7071 0.7071
vn -0.9923 0.0000 0.1240
vn 0.9923 0.0000 0.1240
usemtl MAIN
s off
f 61/135/19 63/136/19 64/137/19 62/138/19
f 64/139/20 63/140/20 73/141/20 82/142/20
f 67/143/21 65/144/21 66/145/21 68/146/21
f 65/144/22 61/147/22 62/148/22 66/145/22
f 68/149/23 66/150/23 78/151/23 81/152/23
f 63/153/24 61/154/24 65/155/24 67/156/24
f 101/157/19 88/158/19 98/159/19 102/160/19
f 101/161/20 103/162/20 72/163/20 70/164/20
f 71/165/21 72/166/21 90/167/21 95/168/21
f 68/149/20 81/152/20 76/169/20 67/170/20
f 82/142/21 75/171/21 79/172/21 77/173/21
f 67/170/20 76/169/20 73/141/20 63/140/20
f 62/174/23 77/173/23 78/151/23 66/150/23
f 64/139/23 82/142/23 77/173/23 62/174/23
f 77/173/20 79/175/20 80/176/20 78/151/20
f 76/177/23 83/178/23 84/179/23 73/180/23
f 78/151/19 80/181/19 74/182/19 81/152/19
f 81/152/19 74/182/19 83/183/19 76/169/19
f 73/141/21 84/184/21 75/171/21 82/142/21
f 97/185/24 91/186/24 99/187/24 87/188/24
f 70/189/19 87/188/19 88/158/19 101/157/19
f 103/190/21 89/191/21 90/167/21 72/166/21
f 104/192/21 96/193/21 89/191/21 103/190/21
f 95/194/24 86/195/24 91/196/24 97/185/24
f 98/159/23 92/197/23 85/198/23 96/199/23
f 90/167/24 94/200/24 86/201/24 95/168/24
f 89/191/22 93/202/22 94/203/22 90/167/22
f 102/160/22 98/159/22 96/199/22 104/204/22
f 96/193/23 85/205/23 93/206/23 89/191/23
f 69/207/22 71/208/22 95/194/22 97/185/22
f 87/188/22 99/209/22 100/210/22 88/158/22
f 69/207/19 97/185/19 87/188/19 70/189/19
f 88/158/23 100/211/23 92/212/23 98/159/23
f 101/213/24 102/214/24 104/215/24 103/216/24
f 127/217/19 129/218/19 130/219/19 128/220/19
f 129/221/20 133/222/20 134/223/20 130/224/20
f 133/225/21 131/226/21 132/227/21 134/228/21
f 131/229/22 127/230/22 128/231/22 132/232/22
f 136/233/21 139/234/21 140/235/21 137/236/21
f 138/237/25 140/238/25 139/239/25
f 137/240/26 140/241/26 138/242/26 135/243/26
f 135/243/27 138/242/27 139/234/27 136/233/27
f 129/244/24 127/245/24 131/246/24 133/247/24
usemtl CIRCUITRY
f 115/248/21 116/249/21 120/250/21 119/251/21
f 113/252/22 126/253/22 124/254/22 111/255/22
f 107/256/23 106/257/23 105/258/23 108/259/23
f 109/260/20 105/261/20 106/262/20 110/263/20
f 115/264/22 118/265/22 117/266/22 116/267/22
f 118/268/19 122/269/19 121/270/19 117/271/19
f 123/272/24 124/254/24 126/253/24 125/273/24
f 112/274/20 123/275/20 125/276/20 114/277/20
f 114/277/21 125/276/21 126/278/21 113/279/21
f 111/255/19 124/254/19 123/280/19 112/281/19
