# Blender v2.80 (sub 75) OBJ File: 'wizard_lab_blocks.blend'
# www.blender.org
mtllib altar_of_arcana_candle_short.mtl
o ENSORCELLATION_CANDLE_SHORT_Cylinder.003
v -0.062500 0.156250 0.062500
v -0.062500 0.093750 -0.062500
v -0.062500 0.156250 -0.062500
v 0.062500 0.156250 0.062500
v 0.062500 0.093750 -0.062500
v 0.062500 0.156250 -0.062500
v -0.062500 0.093750 0.062500
v 0.062500 0.093750 0.062500
v 0.000000 0.000000 0.000000
v -0.031250 0.062500 0.031250
v -0.031250 0.062500 -0.031250
v 0.031250 0.062500 0.031250
v 0.031250 0.062500 -0.031250
v 0.031250 0.124290 0.031250
v -0.031250 0.124290 -0.031250
v 0.031250 0.124290 -0.031250
v -0.031250 0.124290 0.031250
v 0.031250 0.343750 -0.031250
v 0.031250 0.156250 -0.031250
v -0.031250 0.343750 -0.031250
v -0.031250 0.156250 -0.031250
v -0.031250 0.343750 0.031250
v -0.031250 0.156250 0.031250
v 0.031250 0.343750 0.031250
v 0.031250 0.156250 0.031250
vt 0.312500 0.062500
vt 0.375000 0.062500
vt 0.375000 0.187500
vt 0.312500 0.187500
vt 0.375000 0.062500
vt 0.312500 0.062500
vt 0.312500 -0.000000
vt 0.187500 -0.000000
vt 0.187500 0.062500
vt 0.187500 0.000000
vt 0.187500 0.062500
vt 0.312500 0.062500
vt 0.312500 0.000000
vt 0.187500 0.187500
vt 0.187500 0.062500
vt 0.312500 0.062500
vt 0.312500 0.187500
vt 0.187500 0.187500
vt 0.312500 0.187500
vt 0.312500 0.062500
vt 0.187500 0.062500
vt 0.312500 0.500000
vt 0.375000 0.500000
vt 0.375000 0.562500
vt 0.312500 0.562500
vt 0.312500 0.312500
vt 0.375000 0.312500
vt 0.312500 0.312500
vt 0.375000 0.312500
vt 0.375000 0.500000
vt 0.312500 0.500000
vt 0.312500 0.250000
vt 0.375000 0.250000
vt 0.375000 0.437500
vt 0.312500 0.437500
vt 0.312500 0.250000
vt 0.375000 0.250000
vt 0.375000 0.437500
vt 0.312500 0.437500
vt 0.312500 0.562500
vt 0.312500 0.625000
vt 0.250000 0.625000
vt 0.125000 0.562500
vt 0.125000 0.625000
vt 0.062500 0.625000
vt 0.187500 0.562500
vt 0.125000 0.625000
vt 0.187500 0.625000
vt 0.250000 0.562500
vt 0.250000 0.625000
vt 0.125000 0.686790
vt 0.187500 0.686790
vt 0.312500 0.686790
vt 0.250000 0.686790
vt 0.250000 0.686790
vt 0.125000 0.686790
vt 0.062500 0.686790
vn -1.0000 0.0000 0.0000
vn 0.0000 0.0000 -1.0000
vn 1.0000 0.0000 0.0000
vn 0.0000 0.0000 1.0000
vn 0.0000 1.0000 0.0000
vn 0.0000 -1.0000 0.0000
vn -0.8944 -0.4472 0.0000
vn 0.0000 -0.4472 -0.8944
vn 0.8944 -0.4472 0.0000
vn 0.0000 -0.4472 0.8944
usemtl MASTERY
s off
f 7/1/1 1/2/1 3/3/1 2/4/1
f 2/4/2 3/3/2 6/5/2 5/6/2
f 5/6/3 6/7/3 4/8/3 8/9/3
f 8/10/4 4/11/4 1/12/4 7/13/4
f 4/14/5 6/15/5 3/16/5 1/17/5
f 8/18/6 7/19/6 2/20/6 5/21/6
usemtl DECO
f 24/22/5 18/23/5 20/24/5 22/25/5
f 25/26/3 19/27/3 18/23/3 24/22/3
f 21/28/1 23/29/1 22/30/1 20/31/1
f 19/32/2 21/33/2 20/34/2 18/35/2
f 23/36/4 25/37/4 24/38/4 22/39/4
usemtl CHIMERITE
f 9/40/7 10/41/7 11/42/7
f 9/43/8 11/44/8 13/45/8
f 9/46/9 13/47/9 12/48/9
f 9/49/10 12/48/10 10/50/10
f 12/48/3 13/47/3 16/51/3 14/52/3
f 11/42/1 10/41/1 17/53/1 15/54/1
f 10/50/4 12/48/4 14/52/4 17/55/4
f 13/45/2 11/44/2 15/56/2 16/57/2
