# Blender v2.80 (sub 75) OBJ File: 'wizard_lab_blocks.blend'
# www.blender.org
mtllib altar_of_arcana_main.mtl
o ENSORCELLATION_MAIN_Cylinder.001
v 0.408156 1.062500 0.278269
v 0.591844 1.062500 0.278269
v 0.721731 1.062500 0.408156
v 0.721731 1.062500 0.591844
v 0.591844 1.062500 0.721731
v 0.408156 1.062500 0.721731
v 0.278269 1.062500 0.591844
v 0.278269 1.062500 0.408156
v 0.500000 1.000000 0.500000
v 0.384238 1.000000 0.220527
v 0.615762 1.000000 0.220527
v 0.615762 1.062500 0.220527
v 0.384238 1.062500 0.220527
v 0.779474 1.000000 0.384238
v 0.779474 1.062500 0.384238
v 0.779474 1.000000 0.615762
v 0.779474 1.062500 0.615762
v 0.615762 1.000000 0.779474
v 0.615762 1.062500 0.779474
v 0.384238 1.000000 0.779474
v 0.384238 1.062500 0.779474
v 0.220526 1.000000 0.615762
v 0.220526 1.062500 0.615762
v 0.220526 1.000000 0.384239
v 0.220526 1.062500 0.384239
v 0.250000 1.015625 0.187500
v 0.750000 1.015625 0.187500
v 0.250000 1.015625 -0.015625
v 0.750000 1.015625 -0.015625
v 0.250000 0.390625 -0.015625
v 0.750000 0.390625 -0.015625
v 0.500000 1.015625 0.187500
v 0.500000 1.015625 -0.015625
v 0.500000 0.390625 -0.015625
v 0.500000 1.015625 0.375000
v 0.750000 1.015625 0.375000
v 0.250000 1.015625 0.375000
v 0.250000 0.700752 -0.015625
v 0.750000 0.700752 -0.015625
v 0.500000 0.700752 -0.015625
v 0.250000 0.763726 -0.015625
v 0.250000 0.826701 -0.015625
v 0.750000 0.826701 -0.015625
v 0.750000 0.763726 -0.015625
v 0.500000 0.826701 -0.015625
v 0.500000 0.763726 -0.015625
v 0.250000 1.015625 -0.015625
v 0.750000 1.015625 -0.015625
v 0.250000 0.390625 -0.015625
v 0.750000 0.390625 -0.015625
v 0.500000 1.015625 -0.015625
v 0.500000 0.390625 -0.015625
v 0.250000 0.700752 -0.015625
v 0.750000 0.700752 -0.015625
v 0.500000 0.700752 -0.015625
v 0.250000 0.763726 -0.015625
v 0.250000 0.826701 -0.015625
v 0.750000 0.826701 -0.015625
v 0.750000 0.763726 -0.015625
v 0.500000 0.826701 -0.015625
v 0.500000 0.763726 -0.015625
vt 0.171375 0.437500
vt 0.078625 0.437500
vt 0.067031 0.406250
vt 0.182969 0.406250
vt 0.171375 0.437500
vt 0.078625 0.437500
vt 0.067031 0.406250
vt 0.182969 0.406250
vt 0.296375 0.437500
vt 0.203625 0.437500
vt 0.192031 0.406250
vt 0.307969 0.406250
vt 0.171375 0.437500
vt 0.078625 0.437500
vt 0.067031 0.406250
vt 0.182969 0.406250
vt 0.296375 0.437500
vt 0.203625 0.437500
vt 0.192031 0.406250
vt 0.307969 0.406250
vt 1.000000 0.156250
vt 0.906250 0.156250
vt 0.953125 0.281250
vt 0.906250 0.125000
vt 1.000000 0.125000
vt 0.953125 0.250000
vt 1.000000 0.156250
vt 0.906250 0.156250
vt 0.906250 0.125000
vt 1.000000 0.125000
vt 1.000000 0.156250
vt 0.906250 0.156250
vt 0.906250 0.125000
vt 1.000000 0.125000
vt 1.000000 0.156250
vt 0.906250 0.156250
vt 0.906250 0.125000
vt 1.000000 0.125000
vt 0.307969 0.375000
vt 0.192031 0.375000
vt 0.182969 0.375000
vt 0.182969 0.406250
vt 0.067031 0.406250
vt 0.067031 0.375000
vt 0.307969 0.375000
vt 0.192031 0.375000
vt 0.182969 0.375000
vt 0.067031 0.375000
vt 0.307969 0.375000
vt 0.307969 0.406250
vt 0.192031 0.406250
vt 0.192031 0.375000
vt 0.182969 0.375000
vt 0.067031 0.375000
vt 0.307969 0.375000
vt 0.307969 0.406250
vt 0.192031 0.406250
vt 0.192031 0.375000
vt 0.182969 0.375000
vt 0.067031 0.375000
vt 0.171375 0.437500
vt 0.078625 0.437500
vt 0.296375 0.437500
vt 0.203625 0.437500
vt 0.296375 0.437500
vt 0.203625 0.437500
vt 0.750000 0.750000
vt 1.000000 0.750000
vt 1.000000 0.562500
vt 0.750000 0.562500
vt 0.750000 0.310127
vt 1.000000 0.310127
vt 1.000000 0.000000
vt 0.750000 0.000000
vt 1.000000 0.310127
vt 1.000000 0.000000
vt 1.000000 0.750000
vt 1.000000 0.562500
vt 1.000000 0.562500
vt 0.750000 0.562500
vt 0.750000 0.750000
vt 1.000000 0.750000
vt 1.000000 0.562500
vt 1.000000 0.750000
vt 1.000000 0.373101
vt 0.750000 0.373101
vt 1.000000 0.373101
vt 0.750000 0.625000
vt 1.000000 0.625000
vt 1.000000 0.437500
vt 0.750000 0.437500
vt 0.750000 0.687500
vt 1.000000 0.687500
vt 1.000000 0.625000
vt 0.750000 0.625000
vt 1.000000 0.625000
vt 1.000000 0.437500
vt 1.000000 0.687500
vt 1.000000 0.625000
vt 0.750000 0.310127
vt 0.750000 0.000000
vt 1.000000 0.000000
vt 1.000000 0.310127
vt 1.000000 0.310127
vt 1.000000 0.000000
vt 1.000000 0.373101
vt 0.750000 0.373101
vt 1.000000 0.373101
vt 0.750000 0.625000
vt 0.750000 0.437500
vt 1.000000 0.437500
vt 1.000000 0.625000
vt 0.750000 0.687500
vt 0.750000 0.625000
vt 1.000000 0.625000
vt 1.000000 0.687500
vt 1.000000 0.625000
vt 1.000000 0.437500
vt 1.000000 0.687500
vt 1.000000 0.625000
vn 0.0000 1.0000 0.0000
vn 0.0000 0.9625 0.2713
vn 0.1918 0.9625 0.1918
vn 0.2713 0.9625 0.0000
vn 0.1918 0.9625 -0.1918
vn 0.0000 0.9625 -0.2713
vn -0.1918 0.9625 -0.1918
vn -0.2713 0.9625 0.0000
vn -0.1918 0.9625 0.1918
vn 0.0000 0.0000 -1.0000
vn 0.7071 0.0000 -0.7071
vn 1.0000 0.0000 0.0000
vn 0.7071 0.0000 0.7071
vn 0.0000 0.0000 1.0000
vn -0.7071 0.0000 0.7071
vn -1.0000 0.0000 0.0000
vn -0.7071 0.0000 -0.7071
usemtl MAIN
s off
f 4/1/1 5/2/1 19/3/1 17/4/1
f 6/5/1 7/6/1 23/7/1 21/8/1
f 1/9/1 2/10/1 12/11/1 13/12/1
f 8/13/1 1/14/1 13/15/1 25/16/1
f 3/17/1 4/18/1 17/19/1 15/20/1
f 2/21/2 1/22/2 9/23/2
f 1/24/3 8/25/3 9/26/3
f 8/27/4 7/28/4 9/23/4
f 7/29/5 6/30/5 9/26/5
f 6/31/6 5/32/6 9/23/6
f 5/33/7 4/34/7 9/26/7
f 4/35/8 3/36/8 9/23/8
f 3/37/9 2/38/9 9/26/9
f 10/39/10 13/12/10 12/11/10 11/40/10
f 11/41/11 12/42/11 15/43/11 14/44/11
f 14/45/12 15/20/12 17/19/12 16/46/12
f 16/47/13 17/4/13 19/3/13 18/48/13
f 18/49/14 19/50/14 21/51/14 20/52/14
f 20/53/15 21/8/15 23/7/15 22/54/15
f 22/55/16 23/56/16 25/57/16 24/58/16
f 24/59/17 25/16/17 13/15/17 10/60/17
f 2/61/1 3/62/1 15/43/1 12/42/1
f 7/63/1 8/64/1 25/57/1 23/56/1
f 5/65/1 6/66/1 21/51/1 19/50/1
usemtl THESIS_DESK
f 32/67/1 27/68/1 29/69/1 33/70/1
f 40/71/10 39/72/10 31/73/10 34/74/10
f 38/75/10 40/71/10 34/74/10 30/76/10
f 26/77/1 32/67/1 33/70/1 28/78/1
f 27/79/1 32/80/1 35/81/1 36/82/1
f 32/80/1 26/83/1 37/84/1 35/81/1
f 41/85/10 46/86/10 40/71/10 38/75/10
f 46/86/10 44/87/10 39/72/10 40/71/10
f 33/88/10 29/89/10 43/90/10 45/91/10
f 45/92/10 43/93/10 44/94/10 46/95/10
f 28/96/10 33/88/10 45/91/10 42/97/10
f 42/98/10 45/92/10 46/95/10 41/99/10
f 55/100/14 52/101/14 50/102/14 54/103/14
f 53/104/14 49/105/14 52/101/14 55/100/14
f 56/106/14 53/104/14 55/100/14 61/107/14
f 61/107/14 55/100/14 54/103/14 59/108/14
f 51/109/14 60/110/14 58/111/14 48/112/14
f 60/113/14 61/114/14 59/115/14 58/116/14
f 47/117/14 57/118/14 60/110/14 51/109/14
f 57/119/14 56/120/14 61/114/14 60/113/14
