# Blender v2.80 (sub 75) OBJ File: 'wizard_lab_blocks.blend'
# www.blender.org
mtllib desk_center.mtl
o DESK_CENTER_MAIN.002
v 0.500000 0.125000 1.000000
v 0.500000 0.125000 0.312500
v 0.500000 -0.000000 1.000000
v 0.500000 0.000000 0.250000
v 1.000000 1.000000 0.000000
v 1.000000 0.937500 0.000000
v 1.000000 1.000000 1.000000
v 1.000000 0.937500 1.000000
v 0.000000 1.000000 0.000000
v 0.000000 0.937500 0.000000
v 0.000000 1.000000 1.000000
v 0.000000 0.937500 1.000000
v 0.500000 0.812500 0.250000
v 0.500000 0.812500 0.312500
v 0.500000 0.750000 0.937500
v 0.500000 0.750000 1.000000
v 0.500000 0.812500 0.937500
v 0.500000 0.812500 1.000000
v 0.500000 0.750000 0.312500
v 0.500000 0.750000 0.250000
v 0.500000 1.000000 1.000000
v 0.500000 0.937500 1.000000
v 0.500000 0.937500 0.000000
v 0.500000 1.000000 0.000000
v 1.000000 0.125000 1.000000
v 1.000000 -0.000000 1.000000
v 1.000000 0.000000 0.250000
v 1.000000 0.125000 0.250000
v 1.000000 0.125000 0.312500
v 1.000000 0.750000 0.312500
v 1.000000 0.750000 0.250000
v 1.000000 0.750000 1.000000
v 1.000000 0.812500 1.000000
v 1.000000 0.812500 0.250000
v 1.000000 0.812500 0.312500
v 1.000000 0.812500 0.937500
v 1.000000 0.937500 0.937500
v 1.000000 0.937500 0.312500
v 1.000000 0.750000 0.937500
v 1.000000 0.125000 0.937500
v 0.000000 0.125000 0.250000
v 0.000000 0.000000 0.250000
v 0.000000 -0.000000 1.000000
v 0.000000 0.125000 1.000000
v 0.000000 0.125000 0.312500
v 0.000000 0.750000 0.312500
v 0.000000 0.750000 0.250000
v 0.000000 0.750000 1.000000
v 0.000000 0.812500 1.000000
v 0.000000 0.812500 0.250000
v 0.000000 0.812500 0.312500
v 0.000000 0.812500 0.937500
v 0.000000 0.937500 0.937500
v 0.000000 0.937500 0.312500
v 0.000000 0.750000 0.937500
v 0.000000 0.125000 0.937500
v 0.500000 0.125000 0.937500
v 0.500000 0.937500 0.937500
v 0.500000 0.937500 0.312500
v 0.500000 0.125000 0.250000
vt 0.906250 0.250000
vt 0.937500 0.250000
vt 0.937500 0.000000
vt 0.906250 0.000000
vt 1.000000 0.875000
vt 1.000000 0.906250
vt 0.968750 0.906250
vt 0.968750 0.875000
vt 0.937500 0.250000
vt 0.906250 0.250000
vt 0.906250 0.000000
vt 0.937500 0.000000
vt 0.281250 0.500000
vt 0.281250 0.468750
vt 0.031250 0.468750
vt 0.031250 0.500000
vt 0.218750 0.468750
vt 0.218750 0.500000
vt 0.468750 0.500000
vt 0.468750 0.468750
vt 0.781250 0.312500
vt 0.781250 0.375000
vt 0.531250 0.375000
vt 0.531250 0.312500
vt 1.000000 0.250000
vt 1.000000 0.000000
vt 0.781250 0.375000
vt 0.781250 0.312500
vt 0.531250 0.312500
vt 0.531250 0.375000
vt 0.937500 0.625000
vt 1.000000 0.625000
vt 1.000000 0.875000
vt 0.937500 0.875000
vt 0.906250 0.250000
vt 0.937500 0.250000
vt 0.937500 0.000000
vt 0.906250 0.000000
vt 0.937500 0.625000
vt 0.968750 0.625000
vt 0.968750 0.875000
vt 0.937500 0.875000
vt 0.468750 0.500000
vt 0.468750 0.468750
vt 0.218750 0.468750
vt 0.218750 0.500000
vt 0.031250 0.468750
vt 0.031250 0.500000
vt 0.281250 0.500000
vt 0.281250 0.468750
vt 0.906250 0.031250
vt 0.937500 0.031250
vt 0.937500 0.281250
vt 0.906250 0.281250
vt 0.968750 -0.000000
vt 0.937500 -0.000000
vt 0.937500 0.250000
vt 0.968750 0.250000
vt 0.906250 0.000000
vt 0.906250 0.250000
vt 0.937500 -0.000000
vt 0.906250 -0.000000
vt 0.906250 0.250000
vt 0.937500 0.250000
vt 0.937500 0.250000
vt 0.906250 0.250000
vt 1.000000 0.906250
vt 0.968750 0.906250
vt 0.968750 0.875000
vt 0.906250 0.250000
vt 0.937500 0.250000
vt 0.781250 0.375000
vt 0.781250 0.312500
vt 1.000000 0.250000
vt 0.781250 0.312500
vt 0.781250 0.375000
vt 1.000000 0.625000
vt 0.937500 0.625000
vt 0.937500 0.250000
vt 0.906250 0.250000
vt 0.968750 0.625000
vt 0.937500 0.625000
vt 0.937500 0.250000
vt 0.906250 0.250000
vt 0.937500 0.250000
vt 0.906250 0.250000
vt 0.968750 0.250000
vt 0.906250 0.281250
vt 0.937500 0.281250
vt 0.500000 1.000000
vt 0.500000 0.687500
vt 0.750000 0.687500
vt 0.750000 1.000000
vt 0.250000 0.500000
vt 0.250000 1.000000
vt 0.500000 1.000000
vt 0.500000 0.500000
vt 0.250000 1.000000
vt 0.250000 0.500000
vt 0.500000 0.500000
vt 0.500000 1.000000
vt 0.750000 0.687500
vt 0.750000 1.000000
vt 1.000000 1.000000
vt 1.000000 0.687500
vt -0.000000 0.500000
vt -0.000000 1.000000
vt 0.000000 1.000000
vt 0.000000 0.500000
vt 0.500000 0.687500
vt 0.500000 1.000000
vt 0.750000 1.000000
vt 0.750000 0.687500
vn 0.0000 1.0000 0.0000
vn 0.0000 -1.0000 -0.0000
vn 0.0000 0.0000 -1.0000
vn 0.0000 0.0000 1.0000
usemtl MAIN
s off
f 35/1/1 34/2/1 13/3/1 14/4/1
f 27/5/2 26/6/2 3/7/2 4/8/2
f 25/9/1 40/10/1 57/11/1 1/12/1
f 24/13/3 23/14/3 10/15/3 9/16/3
f 22/17/4 21/18/4 11/19/4 12/20/4
f 36/21/4 37/22/4 58/23/4 17/24/4
f 26/25/4 25/9/4 1/12/4 3/26/4
f 38/27/3 35/28/3 14/29/3 59/30/3
f 28/31/3 27/32/3 4/33/3 60/34/3
f 29/35/1 28/36/1 60/37/1 2/38/1
f 34/39/3 31/40/3 20/41/3 13/42/3
f 5/43/3 6/44/3 23/45/3 24/46/3
f 8/47/4 7/48/4 21/49/4 22/50/4
f 15/51/2 16/52/2 48/53/2 55/54/2
f 16/55/4 18/56/4 49/57/4 48/58/4
f 18/56/1 17/59/1 52/60/1 49/57/1
f 20/61/2 19/62/2 46/63/2 47/64/2
f 14/4/1 13/3/1 50/65/1 51/66/1
f 4/33/2 3/67/2 43/68/2 42/69/2
f 1/12/1 57/11/1 56/70/1 44/71/1
f 17/24/4 58/23/4 53/72/4 52/73/4
f 3/26/4 1/12/4 44/71/4 43/74/4
f 59/30/3 14/29/3 51/75/3 54/76/3
f 60/34/3 4/33/3 42/77/3 41/78/3
f 2/38/1 60/37/1 41/79/1 45/80/1
f 13/42/3 20/41/3 47/81/3 50/82/3
f 31/83/2 30/84/2 19/62/2 20/61/2
f 33/85/1 36/86/1 17/59/1 18/56/1
f 32/87/4 33/85/4 18/56/4 16/55/4
f 39/88/2 32/89/2 16/52/2 15/51/2
usemtl EXTENSION
f 30/90/3 29/91/3 2/92/3 19/93/3
f 23/94/2 22/95/2 12/96/2 10/97/2
f 21/98/1 24/99/1 9/100/1 11/101/1
f 40/102/4 39/103/4 15/104/4 57/105/4
f 6/106/2 8/107/2 22/95/2 23/94/2
f 7/108/1 5/109/1 24/99/1 21/98/1
f 19/93/3 2/92/3 45/110/3 46/111/3
f 57/105/4 15/104/4 55/112/4 56/113/4
