# Blender v2.80 (sub 75) OBJ File: 'wizard_lab_blocks.blend'
# www.blender.org
mtllib desk_attachment_left.mtl
o DESK_TABLE_ATTACHMENT_LEFT_LONG_TABLE_LEGS_Cube.001
v 1.000000 0.375000 0.187500
v 1.000000 0.375000 0.250000
v 1.000000 0.500000 0.250000
v 1.000000 0.500000 0.187500
v 1.000000 0.500000 0.750000
v 1.000000 0.375000 0.750000
v 1.000000 0.500000 0.812500
v 1.000000 0.375000 0.812500
v 0.875000 0.375000 0.187501
v 0.875000 0.500000 0.187500
v 0.937500 0.375000 0.250000
v 0.937500 0.375000 0.187500
v 0.937500 0.500000 0.250000
v 0.937500 0.500000 0.187500
v 1.000000 0.125000 0.750000
v 1.000000 0.125000 0.812500
v 1.000000 0.750000 0.750000
v 1.000000 0.750000 0.812500
v 0.937500 0.500000 0.687500
v 0.937500 0.375000 0.687500
v 0.937500 0.125000 0.687500
v 0.937500 0.750000 0.687500
v 0.937500 0.500000 0.875000
v 0.937500 0.375000 0.875000
v 0.937500 0.125000 0.875000
v 0.937500 0.750000 0.875000
vt 0.625000 0.062500
vt 0.593750 0.093750
vt 0.625000 0.093750
vt 0.625000 0.156250
vt 0.656250 0.156250
vt 0.656250 0.093750
vt 0.625000 0.093750
vt 0.000000 0.687500
vt 0.000000 0.687500
vt 0.125000 0.687500
vt 0.125000 0.687500
vt 0.718750 0.531250
vt 0.687500 0.531250
vt 0.718750 0.562500
vt 0.593750 0.125000
vt 0.625000 0.125000
vt 0.625000 0.187500
vt 0.593750 0.187500
vt 0.750000 0.531250
vt 0.750000 0.562500
vt 0.687500 0.125000
vt 0.656250 0.125000
vt 0.656250 0.187500
vt 0.687500 0.187500
vt 0.593750 0.156250
vt 0.593750 0.093750
vt 0.656250 0.062500
vt 0.656250 0.093750
vt 0.656250 0.187500
vt 0.625000 0.312500
vt 0.656250 0.312500
vt 0.281250 0.125000
vt 0.281250 0.000000
vt 0.312500 0.000000
vt 0.312500 0.125000
vt 0.343750 0.000000
vt 0.343750 0.125000
vt 0.687500 0.312500
vt 0.687500 0.187500
vt 0.250000 0.125000
vt 0.250000 0.000000
vt 0.656250 0.187500
vt 0.656250 0.125000
vt 0.687500 0.125000
vt 0.718750 0.312500
vt 0.718750 0.187500
vn 0.0000 -1.0000 0.0000
vn -0.7071 0.0000 0.7071
vn -0.0000 -0.0000 -1.0000
vn 0.0000 1.0000 0.0000
vn 0.7071 -0.0000 -0.7071
vn 0.0000 0.0000 1.0000
vn 1.0000 0.0000 0.0000
vn 0.7071 0.0000 0.7071
usemtl MAIN
s off
f 11/1/1 9/2/1 12/3/1
f 13/4/2 10/5/2 9/6/2 11/7/2
f 12/8/3 9/9/3 10/10/3 14/11/3
f 14/12/4 10/13/4 13/14/4
f 6/15/5 20/16/5 19/17/5 5/18/5
f 4/19/4 14/12/4 13/14/4 3/20/4
f 1/21/3 12/22/3 14/23/3 4/24/3
f 3/25/6 13/4/6 11/7/6 2/26/6
f 2/27/1 11/1/1 12/3/1 1/28/1
f 5/29/5 19/17/5 22/30/5 17/31/5
f 8/32/7 16/33/7 15/34/7 6/35/7
f 15/34/5 21/36/5 20/37/5 6/35/5
f 18/38/7 7/39/7 5/29/7 17/31/7
f 8/32/8 24/40/8 25/41/8 16/33/8
f 7/39/8 23/42/8 24/43/8 8/44/8
f 18/38/8 26/45/8 23/46/8 7/39/8
