# Blender v2.80 (sub 75) OBJ File: 'wizard_lab_blocks.blend'
# www.blender.org
mtllib desk_left.mtl
o DESK_LEFT_MAIN
v 0.812500 0.000000 0.250000
v 0.812500 0.000000 0.062500
v 1.000000 0.000000 0.062500
v 1.000000 0.000000 0.250000
v 1.000000 0.125000 1.000000
v 1.000000 0.125000 0.250000
v 0.937500 0.125000 0.312500
v 0.937500 0.125000 0.937500
v 0.812500 0.125000 0.250000
v 0.500000 0.125000 1.000000
v 0.500000 -0.000000 1.000000
v 1.000000 -0.000000 1.000000
v 0.812500 0.125000 0.062500
v 1.000000 0.125000 0.062500
v 0.500000 0.000000 0.250000
v 0.500000 0.125000 0.250000
v 0.500000 0.125000 0.312500
v 0.875000 0.125000 0.125000
v 0.937500 0.125000 0.125000
v 0.937500 0.125000 0.187500
v 0.875000 0.125000 0.187500
v 1.000000 0.812500 1.000000
v 1.000000 0.812500 0.250000
v 0.937500 0.812500 0.312500
v 0.937500 0.812500 0.937500
v 0.937500 0.750000 0.937500
v 0.937500 0.750000 0.312500
v 1.000000 0.750000 0.250000
v 1.000000 0.750000 1.000000
v 0.500000 0.750000 0.312500
v 0.500000 0.750000 0.250000
v 0.812500 0.750000 0.250000
v 0.812500 0.812500 0.250000
v 0.500000 0.750000 1.000000
v 0.500000 0.812500 1.000000
v 0.500000 0.812500 0.250000
v 0.500000 0.812500 0.312500
v 1.000000 0.750000 0.062500
v 1.000000 0.812500 0.062500
v 0.812500 0.750000 0.062500
v 0.812500 0.812500 0.062500
v 0.937500 0.750000 0.125000
v 0.875000 0.750000 0.125000
v 0.875000 0.750000 0.187500
v 0.937500 0.750000 0.187500
v 0.937500 0.812500 0.187500
v 0.875000 0.812500 0.187500
v 0.937500 0.812500 0.125000
v 0.875000 0.812500 0.125000
v 0.937500 0.937500 0.312500
v 0.937500 0.937500 0.937500
v 0.500000 0.812500 0.937500
v 0.500000 0.937500 0.937500
v 0.875000 0.937500 0.187500
v 0.875000 0.937500 0.125000
v 0.937500 0.937500 0.125000
v 0.937500 0.937500 0.187500
v 1.000000 1.000000 0.000000
v 1.000000 1.000000 1.000000
v 1.000000 0.937500 1.000000
v 1.000000 0.937500 0.000000
v 0.500000 0.937500 0.312500
v 0.500000 0.750000 0.937500
v 0.500000 0.125000 0.937500
v 0.500000 1.000000 0.000000
v 0.500000 0.937500 0.000000
v 0.500000 1.000000 1.000000
v 0.500000 0.937500 1.000000
v 0.000000 0.125000 1.000000
v 0.000000 -0.000000 1.000000
v 0.000000 0.000000 0.250000
v 0.000000 0.125000 0.250000
v 0.000000 0.125000 0.312500
v 0.000000 0.750000 0.312500
v 0.000000 0.750000 0.250000
v 0.000000 0.750000 1.000000
v 0.000000 0.812500 1.000000
v 0.000000 0.812500 0.250000
v 0.000000 0.812500 0.312500
v 0.000000 0.812500 0.937500
v 0.000000 0.937500 0.937500
v 0.000000 0.937500 0.312500
v 0.000000 0.750000 0.937500
v 0.000000 0.125000 0.937500
v 0.000000 1.000000 0.000000
v 0.000000 0.937500 0.000000
v 0.000000 1.000000 1.000000
v 0.000000 0.937500 1.000000
vt 0.968750 0.906250
vt 0.968750 0.875000
vt 1.000000 0.875000
vt 1.000000 0.906250
vt 0.937500 0.250000
vt 0.937500 0.625000
vt 0.906250 0.593750
vt 0.906250 0.281250
vt 0.937500 0.156250
vt 0.906250 0.218750
vt 0.937500 0.250000
vt 0.937500 0.000000
vt 1.000000 0.000000
vt 1.000000 0.250000
vt 0.937500 0.625000
vt 0.937500 0.718750
vt 1.000000 0.718750
vt 1.000000 0.625000
vt 0.875000 0.718750
vt 0.875000 0.625000
vt 0.937500 0.625000
vt 0.937500 0.718750
vt 1.000000 0.875000
vt 0.937500 0.875000
vt 0.937500 0.718750
vt 1.000000 0.718750
vt 1.000000 0.625000
vt 1.000000 0.718750
vt 0.937500 0.718750
vt 1.000000 0.875000
vt 1.000000 0.906250
vt 0.968750 0.875000
vt 0.906250 0.000000
vt 0.937500 0.000000
vt 0.937500 0.937500
vt 0.968750 0.937500
vt 1.000000 0.906250
vt 0.906250 0.906250
vt 0.968750 0.968750
vt 0.937500 0.968750
vt 0.906250 1.000000
vt 1.000000 1.000000
vt 0.937500 0.250000
vt 0.937500 0.625000
vt 0.906250 0.593750
vt 0.906250 0.281250
vt 0.906250 0.281250
vt 0.906250 0.593750
vt 0.937500 0.625000
vt 0.937500 0.250000
vt 0.968750 0.250000
vt 0.968750 0.625000
vt 0.906250 0.000000
vt 0.937500 0.000000
vt 0.937500 0.156250
vt 0.906250 0.218750
vt 0.937500 0.250000
vt 0.937500 0.250000
vt 0.937500 0.156250
vt 0.906250 0.218750
vt 0.968750 0.000000
vt 0.937500 0.000000
vt 0.937500 0.000000
vt 0.906250 0.000000
vt 0.968750 0.718750
vt 0.937500 0.718750
vt 0.968750 0.625000
vt 0.968750 0.718750
vt 0.937500 0.718750
vt 0.937500 0.625000
vt 0.968750 0.625000
vt 0.968750 0.718750
vt 0.937500 0.718750
vt 0.937500 0.625000
vt 0.968750 0.937500
vt 0.937500 0.937500
vt 0.906250 0.906250
vt 1.000000 0.906250
vt 0.937500 0.968750
vt 0.906250 1.000000
vt 0.968750 0.968750
vt 1.000000 1.000000
vt 0.218750 -0.000000
vt 0.218750 0.312500
vt -0.000000 0.312500
vt -0.000000 -0.000000
vt 0.531250 -0.000000
vt 0.531250 0.312500
vt 0.218750 0.312500
vt 0.218750 0.000000
vt 0.687500 -0.000000
vt 0.687500 0.312500
vt 0.656250 0.312500
vt 0.656250 -0.000000
vt 0.718750 0.000000
vt 0.718750 0.312500
vt 0.687500 0.312500
vt 0.687500 0.000000
vt 0.656250 0.312500
vt 0.656250 -0.000000
vt 0.625000 0.312500
vt 0.625000 -0.000000
vt 0.968750 0.968750
vt 0.937500 0.968750
vt 0.906250 1.000000
vt 1.000000 1.000000
vt 0.968750 0.937500
vt 1.000000 0.906250
vt 0.937500 0.937500
vt 0.906250 0.906250
vt 0.218750 0.312500
vt 0.531250 0.312500
vt 0.531250 0.375000
vt 0.218750 0.375000
vt 0.531250 0.312500
vt 0.750000 0.312500
vt 0.750000 0.375000
vt 0.531250 0.375000
vt 0.687500 0.312500
vt 0.718750 0.312500
vt 0.718750 0.375000
vt 0.687500 0.375000
vt 0.687500 0.312500
vt 0.718750 0.312500
vt 0.718750 0.375000
vt 0.687500 0.375000
vt 0.656250 0.312500
vt 0.656250 0.375000
vt 0.750000 0.312500
vt 0.750000 0.375000
vt 0.500000 0.500000
vt -0.000000 0.500000
vt -0.000000 0.468750
vt 0.500000 0.468750
vt 0.250000 0.468750
vt 0.250000 0.500000
vt 0.500000 0.750000
vt 0.000000 0.750000
vt 0.000000 0.312500
vt 0.218750 0.312500
vt 0.218750 0.375000
vt 0.000000 0.375000
vt 0.750000 0.000000
vt 0.750000 0.312500
vt 0.531250 0.312500
vt 0.531250 0.000000
vt 0.968750 0.875000
vt 0.937500 0.875000
vt 0.906250 0.218750
vt 0.906250 0.000000
vt 0.906250 0.218750
vt 0.937500 0.031250
vt 0.906250 0.031250
vt 0.968750 0.906250
vt 0.968750 0.875000
vt 0.906250 0.218750
vt 0.906250 0.000000
vt -0.000000 0.468750
vt 0.250000 0.468750
vt 0.250000 0.500000
vt -0.000000 0.500000
vt 0.500000 1.000000
vt 0.000000 1.000000
vt 0.000000 0.750000
vt 0.500000 0.750000
vt 0.906250 0.250000
vt 0.937500 0.250000
vt 0.937500 0.250000
vt 0.968750 0.250000
vt 0.906250 0.250000
vt 0.937500 0.250000
vt 0.968750 0.625000
vt 0.937500 0.625000
vt 1.000000 0.250000
vt 0.937500 0.250000
vt 0.906250 0.250000
vt 0.906250 0.250000
vt 0.937500 0.281250
vt 0.906250 0.281250
vt 1.000000 0.656250
vt 0.937500 0.656250
vt 0.937500 0.250000
vt 0.906250 0.250000
vt 0.781250 0.375000
vt 0.781250 0.312500
vt 0.531250 0.312500
vt 0.781250 0.312500
vt 0.781250 0.375000
vt 0.531250 0.375000
vt 0.218750 0.468750
vt 0.218750 0.500000
vt 0.468750 0.500000
vt 0.468750 0.468750
vt 0.218750 0.500000
vt 0.218750 0.468750
vt 0.468750 0.468750
vt 0.468750 0.500000
vt 1.000000 0.906250
vt 0.968750 0.906250
vt 0.968750 0.875000
vt 0.750000 0.375000
vt 0.500000 0.375000
vt 0.500000 0.687500
vt 0.750000 0.687500
vt 1.000000 0.687500
vt 0.750000 0.687500
vt 0.750000 0.375000
vt 1.000000 0.375000
vt 0.250000 1.000000
vt 0.500000 0.500000
vt 0.500000 1.000000
vt 0.250000 0.500000
vt 0.250000 1.000000
vt 0.500000 1.000000
vt 0.500000 0.500000
vn 0.0000 -1.0000 -0.0000
vn -0.0000 1.0000 0.0000
vn 0.0000 0.0000 1.0000
vn -1.0000 0.0000 0.0000
vn 0.0000 0.0000 -1.0000
vn 1.0000 0.0000 0.0000
usemtl MAIN
s off
f 1/1/1 2/2/1 3/3/1 4/4/1
f 5/5/2 6/6/2 7/7/2 8/8/2
f 9/9/2 7/10/2 6/11/2
f 10/12/3 11/13/3 12/14/3 5/5/3
f 9/15/4 13/16/4 2/17/4 1/18/4
f 13/19/5 14/20/5 3/21/5 2/22/5
f 15/23/5 16/24/5 9/25/5 1/26/5
f 6/6/6 4/27/6 3/28/6 14/29/6
f 12/14/6 4/27/6 6/6/6 5/5/6
f 4/30/1 12/31/1 1/32/1
f 17/33/2 7/10/2 9/9/2 16/34/2
f 18/35/2 19/36/2 14/37/2 13/38/2
f 20/39/2 21/40/2 9/41/2 6/42/2
f 21/40/2 18/35/2 13/38/2 9/41/2
f 19/36/2 20/39/2 6/42/2 14/37/2
f 22/43/2 23/44/2 24/45/2 25/46/2
f 26/47/1 27/48/1 28/49/1 29/50/1
f 22/43/6 29/51/6 28/52/6 23/44/6
f 30/53/1 31/54/1 32/55/1 27/56/1
f 27/56/1 32/55/1 28/57/1
f 23/58/2 33/59/2 24/60/2
f 34/61/3 29/51/3 22/43/3 35/62/3
f 36/63/2 37/64/2 24/60/2 33/59/2
f 28/52/6 38/65/6 39/66/6 23/44/6
f 40/67/4 32/68/4 33/69/4 41/70/4
f 38/71/5 40/72/5 41/73/5 39/74/5
f 42/75/1 43/76/1 40/77/1 38/78/1
f 43/76/1 44/79/1 32/80/1 40/77/1
f 44/79/1 45/81/1 28/82/1 32/80/1
f 45/81/1 42/75/1 38/78/1 28/82/1
f 17/83/5 30/84/5 27/85/5 7/86/5
f 7/87/6 27/88/6 26/89/6 8/90/6
f 19/91/6 42/92/6 45/93/6 20/94/6
f 20/95/3 45/96/3 44/97/3 21/98/3
f 21/98/4 44/97/4 43/99/4 18/100/4
f 18/100/5 43/99/5 42/101/5 19/102/5
f 46/103/2 47/104/2 33/105/2 23/106/2
f 48/107/2 46/103/2 23/106/2 39/108/2
f 49/109/2 48/107/2 39/108/2 41/110/2
f 47/104/2 49/109/2 41/110/2 33/105/2
f 25/111/6 24/112/6 50/113/6 51/114/6
f 52/115/3 25/116/3 51/117/3 53/118/3
f 49/119/4 47/120/4 54/121/4 55/122/4
f 46/123/6 48/124/6 56/125/6 57/126/6
f 48/127/5 49/119/5 55/122/5 56/128/5
f 47/120/3 46/129/3 57/130/3 54/121/3
f 58/131/6 59/132/6 60/133/6 61/134/6
f 68/135/3 60/133/3 59/132/3 67/136/3
f 65/137/2 67/138/2 59/132/2 58/131/2
f 24/139/5 37/140/5 62/141/5 50/142/5
f 8/143/3 26/144/3 63/145/3 64/146/3
f 32/68/5 31/147/5 36/148/5 33/69/5
f 22/43/2 25/149/2 52/150/2 35/62/2
f 26/151/1 29/50/1 34/152/1 63/153/1
f 12/31/1 11/154/1 15/155/1 1/32/1
f 8/156/2 64/157/2 10/12/2 5/5/2
f 61/158/5 66/159/5 65/160/5 58/161/5
f 61/162/1 60/163/1 68/164/1 66/165/1
f 64/157/2 84/166/2 69/167/2 10/12/2
f 35/62/3 77/168/3 76/169/3 34/61/3
f 30/53/1 74/170/1 75/171/1 31/54/1
f 31/147/5 75/172/5 78/173/5 36/148/5
f 10/12/3 69/167/3 70/174/3 11/13/3
f 16/34/2 72/175/2 73/176/2 17/33/2
f 52/150/2 80/177/2 77/168/2 35/62/2
f 34/152/1 76/178/1 83/179/1 63/153/1
f 15/23/5 71/180/5 72/181/5 16/24/5
f 36/63/2 78/182/2 79/183/2 37/64/2
f 53/118/3 81/184/3 80/185/3 52/115/3
f 37/186/5 79/187/5 82/188/5 62/189/5
f 68/190/3 67/191/3 87/192/3 88/193/3
f 65/194/5 66/195/5 86/196/5 85/197/5
f 11/198/1 70/199/1 71/200/1 15/23/1
usemtl EXTENSION
f 17/201/5 73/202/5 74/203/5 30/204/5
f 63/205/3 83/206/3 84/207/3 64/208/3
f 67/209/2 65/160/2 85/210/2 87/211/2
f 66/212/1 68/213/1 88/214/1 86/215/1
