# Blender v2.80 (sub 75) OBJ File: 'wizard_lab_blocks.blend'
# www.blender.org
mtllib station_inscription_vellum.mtl
o VELLUM_VELLUM_STACK
v 0.562500 1.187500 0.562500
v 0.562500 1.000000 0.562500
v 0.125000 1.187500 0.562500
v 0.125000 1.000000 0.562500
v 0.125000 1.187500 0.875000
v 0.562500 1.187500 0.875000
v 0.562500 1.000000 0.875000
vt 0.312500 0.687500
vt -0.000000 0.687500
vt -0.000000 0.250000
vt 0.312500 0.250000
vt 0.250000 -0.000000
vt 0.562500 -0.000000
vt 0.562500 0.187500
vt 0.250000 0.187500
vt 1.000000 0.000000
vt 1.000000 0.187500
vn 0.0000 1.0000 -0.0000
vn 1.0000 -0.0000 -0.0000
vn 0.0000 -0.0000 -1.0000
usemtl DECO
s off
f 6/1/1 1/2/1 3/3/1 5/4/1
f 7/5/2 2/6/2 1/7/2 6/8/2
f 2/6/3 4/9/3 3/10/3 1/7/3
