# Blender v2.80 (sub 75) OBJ File: 'wizard_lab_blocks.blend'
# www.blender.org
mtllib station_codexlectern.mtl
o CODEX_LECTERN_Cube.007
v 0.718750 1.187500 0.906250
v 0.718750 1.375000 0.906250
v 0.718750 1.187500 0.843750
v 0.718750 1.375000 0.843750
v 0.781250 1.187500 0.906250
v 0.781250 1.375000 0.906250
v 0.781250 1.187500 0.843750
v 0.781250 1.375000 0.843750
v 0.125000 1.000000 0.937500
v 0.875000 1.000000 0.812500
v 0.125000 1.000000 0.812500
v 0.187500 1.187500 0.937500
v 0.187500 1.187500 0.812500
v 0.812500 1.187500 0.812500
v 0.875000 1.000000 0.937500
v 0.812500 1.187500 0.937500
v 0.843750 1.312500 0.875000
v 0.843750 1.250000 0.812500
v 0.843750 1.312500 0.812500
v 0.156250 1.312500 0.812500
v 0.156250 1.312500 0.875000
v 0.843750 1.250000 0.875000
v 0.156250 1.250000 0.812500
v 0.156250 1.250000 0.875000
v 0.250000 1.015625 0.187500
v 0.750000 1.015625 0.187500
v 0.250000 1.015625 -0.015625
v 0.750000 1.015625 -0.015625
v 0.812500 1.000000 0.812500
v 0.812500 1.000000 0.187500
v 0.187500 1.187500 0.812500
v 0.187500 1.062500 0.187500
v 0.812500 1.062500 0.187500
v 0.187500 1.000000 0.187500
v 0.812500 1.187500 0.812500
v 0.187500 1.000000 0.812500
v 0.812500 1.062500 0.812500
v 0.125000 1.125000 0.812500
v 0.875000 1.125000 0.937500
v 0.125000 1.125000 0.937500
v 0.875000 1.125000 0.812500
v 0.500000 1.015625 0.187500
v 0.500000 1.015625 -0.015625
v 0.500000 1.000000 0.187500
v 0.500000 1.062500 0.187500
v 0.500000 1.187500 0.812500
v 0.187500 1.062500 0.812500
v 0.281250 1.187500 0.906250
v 0.281250 1.375000 0.906250
v 0.281250 1.187500 0.843750
v 0.281250 1.375000 0.843750
v 0.218750 1.187500 0.906250
v 0.218750 1.375000 0.906250
v 0.218750 1.187500 0.843750
v 0.218750 1.375000 0.843750
v 0.531250 1.312500 0.875000
v 0.531250 1.312500 0.812500
v 0.531250 1.250000 0.875000
v 0.531250 1.250000 0.812500
v 0.250000 1.015625 -0.015625
v 0.750000 1.015625 -0.015625
v 0.250000 0.390625 -0.015625
v 0.750000 0.390625 -0.015625
v 0.500000 1.015625 -0.015625
v 0.500000 0.390625 -0.015625
v 0.250000 0.515625 -0.015625
v 0.250000 0.640625 -0.015625
v 0.250000 0.828125 -0.015625
v 0.750000 0.828125 -0.015625
v 0.750000 0.640625 -0.015625
v 0.750000 0.515625 -0.015625
v 0.500000 0.828125 -0.015625
v 0.500000 0.640625 -0.015625
v 0.500000 0.515625 -0.015625
v 0.687500 1.015625 -0.015625
v 0.687500 0.390625 -0.015625
v 0.687500 0.828125 -0.015625
v 0.687500 0.640625 -0.015625
v 0.687500 0.515625 -0.015625
v 0.312500 1.015625 -0.015625
v 0.312500 0.390625 -0.015625
v 0.312500 0.828125 -0.015625
v 0.312500 0.640625 -0.015625
v 0.312500 0.515625 -0.015625
v 0.250000 1.015625 -0.015625
v 0.750000 1.015625 -0.015625
v 0.250000 0.390625 -0.015625
v 0.750000 0.390625 -0.015625
v 0.500000 1.015625 -0.015625
v 0.500000 0.390625 -0.015625
v 0.250000 0.515625 -0.015625
v 0.250000 0.640625 -0.015625
v 0.250000 0.828125 -0.015625
v 0.750000 0.828125 -0.015625
v 0.750000 0.640625 -0.015625
v 0.750000 0.515625 -0.015625
v 0.500000 0.828125 -0.015625
v 0.500000 0.640625 -0.015625
v 0.500000 0.515625 -0.015625
v 0.687500 1.015625 -0.015625
v 0.687500 0.390625 -0.015625
v 0.687500 0.828125 -0.015625
v 0.687500 0.640625 -0.015625
v 0.687500 0.515625 -0.015625
v 0.312500 1.015625 -0.015625
v 0.312500 0.390625 -0.015625
v 0.312500 0.828125 -0.015625
v 0.312500 0.640625 -0.015625
v 0.312500 0.515625 -0.015625
vt 0.125000 0.937500
vt 0.312500 0.937500
vt 0.312500 1.000000
vt 0.125000 1.000000
vt 0.125000 0.875000
vt 0.312500 0.875000
vt 0.312500 0.937500
vt 0.125000 0.937500
vt 0.312500 1.000000
vt 0.125000 1.000000
vt 0.125000 0.875000
vt 0.312500 0.875000
vt 0.375000 0.875000
vt 0.375000 0.937500
vt 0.750000 0.125000
vt 0.687500 0.187500
vt 0.062500 0.187500
vt -0.000000 0.125000
vt -0.000000 0.125000
vt 0.750000 0.125000
vt 0.750000 0.000000
vt -0.000000 0.000000
vt 0.750000 0.312500
vt 0.750000 0.375000
vt 0.625000 0.375000
vt 0.625000 0.312500
vt 1.000000 0.937500
vt 0.937500 0.937500
vt 0.937500 0.875000
vt 1.000000 0.875000
vt 0.625000 0.312500
vt 0.625000 0.375000
vt 0.750000 0.375000
vt 0.750000 0.312500
vt -0.000000 0.187500
vt 0.625000 0.187500
vt 0.625000 0.312500
vt -0.000000 0.312500
vt 0.750000 0.750000
vt 1.000000 0.750000
vt 1.000000 0.562500
vt 0.750000 0.562500
vt 0.625000 0.625000
vt -0.000000 0.625000
vt -0.000000 0.312500
vt 0.625000 0.312500
vt 0.625000 0.312500
vt -0.000000 0.312500
vt 0.312500 0.687500
vt 0.312500 0.625000
vt -0.000000 0.625000
vt -0.000000 0.687500
vt -0.000000 0.687500
vt -0.000000 0.625000
vt -0.000000 0.812500
vt -0.000000 0.687500
vt 0.625000 0.687500
vt 0.625000 0.687500
vt 0.625000 0.625000
vt -0.000000 0.625000
vt -0.000000 0.687500
vt 0.625000 0.187500
vt 0.750000 0.187500
vt 0.750000 0.187500
vt 0.625000 0.187500
vt 0.062500 0.187500
vt 0.687500 0.187500
vt 0.750000 0.000000
vt -0.000000 0.000000
vt 1.000000 0.750000
vt 1.000000 0.562500
vt -0.000000 0.812500
vt -0.000000 0.625000
vt 0.625000 0.625000
vt 0.125000 0.937500
vt 0.125000 1.000000
vt 0.312500 1.000000
vt 0.312500 0.937500
vt 0.125000 0.875000
vt 0.125000 0.937500
vt 0.312500 0.937500
vt 0.312500 0.875000
vt 0.125000 1.000000
vt 0.312500 1.000000
vt 0.125000 0.875000
vt 0.312500 0.875000
vt 0.375000 0.937500
vt 0.375000 0.875000
vt 0.250000 0.937500
vt 0.562500 0.937500
vt 0.562500 1.000000
vt 0.250000 1.000000
vt 0.187500 0.937500
vt 0.187500 1.000000
vt 0.187500 0.875000
vt 0.187500 0.937500
vt 0.562500 0.937500
vt 0.562500 0.875000
vt 0.250000 0.937500
vt 0.250000 0.875000
vt 0.250000 0.937500
vt 0.562500 0.937500
vt 0.562500 0.875000
vt 0.250000 0.875000
vt 0.187500 0.937500
vt 0.187500 0.875000
vt 0.250000 1.000000
vt 0.562500 1.000000
vt 0.937500 0.937500
vt 0.937500 0.875000
vt 1.000000 0.875000
vt 1.000000 0.937500
vt 0.187500 1.000000
vt 0.937500 0.125000
vt 0.937500 0.000000
vt 0.750000 0.000000
vt 0.750000 0.125000
vt 0.937500 0.750000
vt 0.750000 0.750000
vt 0.750000 0.625000
vt 0.937500 0.625000
vt 0.750000 0.625000
vt 0.937500 0.625000
vt 0.937500 0.437500
vt 0.750000 0.437500
vt 0.750000 0.687500
vt 0.937500 0.687500
vt 0.937500 0.500000
vt 0.750000 0.500000
vt 0.937500 0.000000
vt 0.937500 0.125000
vt 1.000000 0.250000
vt 1.000000 0.125000
vt 0.937500 0.250000
vt 1.000000 0.437500
vt 1.000000 0.625000
vt 1.000000 0.000000
vt 0.937500 0.750000
vt 0.937500 0.625000
vt 1.000000 0.000000
vt 1.000000 0.125000
vt 1.000000 0.437500
vt 0.937500 0.437500
vt 0.937500 0.250000
vt 1.000000 0.250000
vt 0.937500 0.500000
vt 0.937500 0.687500
vt 1.000000 0.625000
vt 0.937500 0.625000
vt 0.937500 0.125000
vt 0.750000 0.125000
vt 0.750000 0.000000
vt 0.937500 0.000000
vt 0.937500 0.750000
vt 0.937500 0.625000
vt 0.750000 0.625000
vt 0.750000 0.750000
vt 0.750000 0.625000
vt 0.750000 0.437500
vt 0.937500 0.437500
vt 0.937500 0.625000
vt 0.750000 0.687500
vt 0.750000 0.500000
vt 0.937500 0.500000
vt 0.937500 0.687500
vt 0.937500 0.125000
vt 0.937500 0.000000
vt 1.000000 0.250000
vt 0.937500 0.250000
vt 1.000000 0.125000
vt 1.000000 0.437500
vt 1.000000 0.625000
vt 1.000000 0.000000
vt 0.937500 0.625000
vt 0.937500 0.750000
vt 1.000000 0.125000
vt 1.000000 0.000000
vt 1.000000 0.437500
vt 1.000000 0.250000
vt 0.937500 0.250000
vt 0.937500 0.437500
vt 0.937500 0.687500
vt 0.937500 0.500000
vt 1.000000 0.625000
vt 0.937500 0.625000
vn -1.0000 0.0000 0.0000
vn 0.0000 0.0000 -1.0000
vn 1.0000 0.0000 0.0000
vn 0.0000 0.0000 1.0000
vn 0.0000 1.0000 0.0000
vn -0.7071 0.7071 0.0000
vn 0.7071 0.7071 0.0000
vn 0.0000 0.9806 -0.1961
vn 0.0000 -1.0000 0.0000
usemtl THESIS_DESK
s off
f 1/1/1 2/2/1 4/3/1 3/4/1
f 3/5/2 4/6/2 8/7/2 7/8/2
f 7/8/3 8/7/3 6/9/3 5/10/3
f 5/11/4 6/12/4 2/2/4 1/1/4
f 8/7/5 4/6/5 2/13/5 6/14/5
f 38/15/2 13/16/2 14/17/2 41/18/2
f 39/19/4 40/20/4 9/21/4 15/22/4
f 40/23/6 12/24/6 13/25/6 38/26/6
f 19/27/3 17/28/3 22/29/3 18/30/3
f 41/31/7 14/32/7 16/33/7 39/34/7
f 14/35/5 13/36/5 12/37/5 16/38/5
f 42/39/5 26/40/5 28/41/5 43/42/5
f 45/43/8 46/44/8 35/45/8 33/46/8
f 45/43/8 32/47/8 31/48/8 46/44/8
f 45/49/2 44/50/2 34/51/2 32/52/2
f 45/49/2 33/53/2 30/54/2 44/50/2
f 35/55/3 37/56/3 33/57/3
f 32/58/1 34/59/1 36/60/1 47/61/1
f 10/62/3 41/31/3 39/34/3 15/63/3
f 9/64/1 40/23/1 38/26/1 11/65/1
f 16/66/4 12/67/4 40/20/4 39/19/4
f 11/68/2 38/15/2 41/18/2 10/69/2
f 25/70/5 42/39/5 43/42/5 27/71/5
f 31/72/1 32/58/1 47/61/1
f 33/57/3 37/56/3 29/73/3 30/74/3
f 48/75/3 50/76/3 51/77/3 49/78/3
f 50/79/2 54/80/2 55/81/2 51/82/2
f 54/80/1 52/83/1 53/84/1 55/81/1
f 52/85/4 48/75/4 49/78/4 53/86/4
f 55/81/5 53/87/5 49/88/5 51/82/5
f 22/89/9 58/90/9 59/91/9 18/92/9
f 58/90/9 24/93/9 23/94/9 59/91/9
f 23/95/2 20/96/2 57/97/2 59/98/2
f 59/98/2 57/97/2 19/99/2 18/100/2
f 17/101/4 56/102/4 58/103/4 22/104/4
f 56/102/4 21/105/4 24/106/4 58/103/4
f 19/107/5 57/108/5 56/102/5 17/101/5
f 20/109/1 23/110/1 24/111/1 21/112/1
f 57/108/5 20/113/5 21/105/5 56/102/5
f 79/114/2 76/115/2 65/116/2 74/117/2
f 83/118/2 73/119/2 74/120/2 84/121/2
f 64/122/2 75/123/2 77/124/2 72/125/2
f 72/126/2 77/127/2 78/128/2 73/129/2
f 65/116/2 81/130/2 84/131/2 74/117/2
f 70/132/2 71/133/2 79/114/2 78/134/2
f 69/135/2 70/132/2 78/134/2 77/124/2
f 61/136/2 69/135/2 77/124/2 75/123/2
f 79/114/2 71/133/2 63/137/2 76/115/2
f 73/119/2 78/138/2 79/139/2 74/120/2
f 84/131/2 81/130/2 62/140/2 66/141/2
f 68/142/2 82/143/2 83/144/2 67/145/2
f 72/126/2 73/129/2 83/146/2 82/147/2
f 60/148/2 80/149/2 82/143/2 68/142/2
f 64/122/2 72/125/2 82/143/2 80/149/2
f 67/145/2 83/144/2 84/131/2 66/141/2
f 104/150/4 99/151/4 90/152/4 101/153/4
f 108/154/4 109/155/4 99/156/4 98/157/4
f 89/158/4 97/159/4 102/160/4 100/161/4
f 97/162/4 98/163/4 103/164/4 102/165/4
f 90/152/4 99/151/4 109/166/4 106/167/4
f 95/168/4 103/169/4 104/150/4 96/170/4
f 94/171/4 102/160/4 103/169/4 95/168/4
f 86/172/4 100/161/4 102/160/4 94/171/4
f 104/150/4 101/153/4 88/173/4 96/170/4
f 98/157/4 99/156/4 104/174/4 103/175/4
f 109/166/4 91/176/4 87/177/4 106/167/4
f 93/178/4 92/179/4 108/180/4 107/181/4
f 97/162/4 107/182/4 108/183/4 98/163/4
f 85/184/4 93/178/4 107/181/4 105/185/4
f 89/158/4 105/185/4 107/181/4 97/159/4
f 92/179/4 91/176/4 109/166/4 108/180/4
