# Blender v2.80 (sub 75) OBJ File: 'wizard_lab_blocks.blend'
# www.blender.org
mtllib station_mastery_crystal_rear.mtl
o MASTERY_CRYSTAL_REAR_Cube.045
v 0.500000 -0.312500 0.500000
v 0.437500 -0.187500 0.562500
v 0.437500 -0.187500 0.437500
v 0.562500 -0.187500 0.562500
v 0.562500 -0.187500 0.437500
v 0.437500 0.187500 0.562500
v 0.437500 0.187500 0.437500
v 0.562500 0.187500 0.437500
v 0.562500 0.187500 0.562500
v 0.500000 0.312500 0.500000
vt 0.437500 0.062500
vt 0.500000 0.187500
vt 0.375000 0.187500
vt 0.312500 0.062500
vt 0.250000 0.187500
vt 0.687500 0.062500
vt 0.625000 0.187500
vt 0.750000 0.187500
vt 0.562500 0.062500
vt 0.500000 0.187500
vt 0.625000 0.187500
vt 0.375000 0.562500
vt 0.250000 0.562500
vt 0.750000 0.562500
vt 0.625000 0.562500
vt 0.687500 0.687500
vt 0.500000 0.562500
vt 0.500000 0.562500
vt 0.625000 0.562500
vt 0.437500 0.687500
vt 0.562500 0.687500
vt 0.312500 0.687500
vn -0.8944 -0.4472 0.0000
vn 0.0000 -0.4472 -0.8944
vn 0.8944 -0.4472 0.0000
vn 0.0000 -0.4472 0.8944
vn 0.0000 0.0000 -1.0000
vn 0.8944 0.4472 0.0000
vn 1.0000 0.0000 0.0000
vn -1.0000 0.0000 0.0000
vn 0.0000 0.0000 1.0000
vn -0.8944 0.4472 0.0000
vn 0.0000 0.4472 0.8944
vn 0.0000 0.4472 -0.8944
usemtl CHIMERITE
s off
f 1/1/1 2/2/1 3/3/1
f 1/4/2 3/3/2 5/5/2
f 1/6/3 5/7/3 4/8/3
f 1/9/4 4/10/4 2/11/4
f 5/5/5 3/3/5 7/12/5 8/13/5
f 9/14/6 8/15/6 10/16/6
f 4/8/7 5/7/7 8/15/7 9/14/7
f 3/3/8 2/2/8 6/17/8 7/12/8
f 2/11/9 4/10/9 9/18/9 6/19/9
f 7/12/10 6/17/10 10/20/10
f 6/19/11 9/18/11 10/21/11
f 8/13/12 7/12/12 10/22/12
