# Blender v2.80 (sub 75) OBJ File: 'wizard_lab_blocks.blend'
# www.blender.org
mtllib station_inscription_lapis.mtl
o TRANSCRIPTION_LAPIS_ASH.006
v 0.828125 1.046875 0.078125
v 0.921875 1.046875 0.078125
v 0.921875 1.046875 0.171875
v 0.828125 1.046875 0.171875
v 0.875000 1.078125 0.125000
vt 0.562500 0.500000
vt 0.500000 0.437500
vt 0.437500 0.500000
vt 0.437500 0.375000
vt 0.562500 0.375000
vn 0.0000 0.8321 0.5547
vn -0.5547 0.8321 0.0000
vn 0.0000 0.8321 -0.5547
vn 0.5547 0.8320 0.0000
usemtl DISENCHANTER
s off
f 3/1/1 5/2/1 4/3/1
f 4/3/2 5/2/2 1/4/2
f 1/4/3 5/2/3 2/5/3
f 2/5/4 5/2/4 3/1/4
