# Blender v2.80 (sub 75) OBJ File: 'wizard_lab_blocks.blend'
# www.blender.org
mtllib station_mastery_crystal_frontright.mtl
o MASTERY_CRYSTAL_FRONTRIGHT_Cube.044
v 0.500000 -0.187500 0.500000
v 0.531250 -0.125000 0.531250
v 0.531250 -0.125000 0.468750
v 0.468750 -0.125000 0.531250
v 0.468750 -0.125000 0.468750
v 0.531250 0.125000 0.531250
v 0.531250 0.125000 0.468750
v 0.468750 0.125000 0.468750
v 0.468750 0.125000 0.531250
v 0.500000 0.187500 0.500000
vt 0.937500 0.562500
vt 0.937500 0.625000
vt 0.875000 0.625000
vt 0.750000 0.562500
vt 0.750000 0.625000
vt 0.687500 0.625000
vt 0.812500 0.562500
vt 0.812500 0.625000
vt 0.875000 0.562500
vt 0.812500 0.875000
vt 0.750000 0.875000
vt 0.937500 0.875000
vt 0.937500 0.937500
vt 0.875000 0.875000
vt 0.687500 0.875000
vt 0.875000 0.937500
vt 0.750000 0.937500
vt 0.812500 0.937500
vn 0.8944 -0.4472 0.0000
vn 0.0000 -0.4472 -0.8944
vn -0.8944 -0.4472 0.0000
vn 0.0000 -0.4472 0.8944
vn -1.0000 0.0000 0.0000
vn 0.8944 0.4472 0.0000
vn 1.0000 0.0000 0.0000
vn 0.0000 0.0000 1.0000
vn 0.0000 0.0000 -1.0000
vn 0.0000 0.4472 0.8944
vn 0.0000 0.4472 -0.8944
vn -0.8944 0.4472 0.0000
usemtl CHIMERITE
s off
f 1/1/1 3/2/1 2/3/1
f 1/4/2 5/5/2 3/6/2
f 1/7/3 4/8/3 5/5/3
f 1/9/4 2/3/4 4/8/4
f 4/8/5 9/10/5 8/11/5 5/5/5
f 7/12/6 10/13/6 6/14/6
f 3/2/7 7/12/7 6/14/7 2/3/7
f 2/3/8 6/14/8 9/10/8 4/8/8
f 5/5/9 8/11/9 7/15/9 3/6/9
f 6/14/10 10/16/10 9/10/10
f 8/11/11 10/17/11 7/15/11
f 9/10/12 10/18/12 8/11/12
