# Blender v2.80 (sub 75) OBJ File: 'constructs.blend'
# www.blender.org
mtllib arm_hammer_r.mtl
o ARM_RIGHT_HAMMER.OBSVAR_Cube.331
v 0.375000 1.000000 0.156250
v 0.375000 1.312500 0.156250
v 0.687500 1.000000 0.156250
v 0.687500 1.312500 0.156250
v 0.375000 1.000000 -0.156250
v 0.375000 1.312500 -0.156250
v 0.687500 1.000000 -0.156250
v 0.687500 1.312500 -0.156250
v 0.437500 1.000000 0.093750
v 0.625000 1.000000 0.093750
v 0.437500 1.000000 -0.093750
v 0.625000 1.000000 -0.093750
v 0.687500 1.062500 0.093750
v 0.671875 1.296875 -0.093750
v 0.671875 1.296875 0.093750
v 0.687500 1.062500 -0.093750
v 0.437500 1.312500 0.093750
v 0.437500 1.312500 -0.093750
v 0.437500 1.296875 0.093750
v 0.437500 1.296875 -0.093750
v 0.687500 1.312500 -0.093750
v 0.687500 1.312500 0.093750
v 0.671875 1.062500 -0.093750
v 0.671875 1.062500 0.093750
v 0.453125 0.750000 -0.078125
v 0.453125 0.937500 -0.078125
v 0.562500 0.937500 0.093750
v 0.562500 0.750000 0.093750
v 0.562500 0.750000 -0.093750
v 0.562500 0.937500 -0.093750
v 0.453125 0.937500 0.078125
v 0.453125 0.750000 0.078125
v 0.562500 0.750000 -0.078125
v 0.562500 0.937500 -0.078125
v 0.437500 0.937500 -0.093750
v 0.437500 0.750000 -0.093750
v 0.437500 0.937500 0.093750
v 0.437500 0.750000 0.093750
v 0.562500 0.937500 0.078125
v 0.562500 0.750000 0.078125
v 0.625000 0.687500 0.093750
v 0.437500 0.687500 0.093750
v 0.625000 0.687500 -0.093750
v 0.437500 0.687500 -0.093750
v 0.671875 1.296875 -0.093750
v 0.671875 1.296875 0.093750
v 0.437500 1.296875 0.093750
v 0.437500 1.296875 -0.093750
v 0.671875 1.062500 -0.093750
v 0.671875 1.062500 0.093750
v 0.468750 0.687500 0.062500
v 0.593750 0.687500 0.062500
v 0.468750 0.687500 -0.062500
v 0.593750 0.687500 -0.062500
v 0.453125 0.750000 -0.078125
v 0.453125 0.937500 -0.078125
v 0.453125 0.937500 0.078125
v 0.453125 0.750000 0.078125
v 0.562500 0.750000 -0.078125
v 0.562500 0.937500 -0.078125
v 0.562500 0.937500 0.078125
v 0.562500 0.750000 0.078125
v 0.593750 0.625000 0.062500
v 0.468750 0.625000 0.062500
v 0.593750 0.625000 -0.062500
v 0.468750 0.625000 -0.062500
v 0.437500 0.406250 0.156250
v 0.437500 0.593750 0.156250
v 0.625000 0.406250 0.156250
v 0.625000 0.593750 0.156250
v 0.437500 0.406250 -0.156250
v 0.437500 0.593750 -0.156250
v 0.625000 0.406250 -0.156250
v 0.625000 0.593750 -0.156250
v 0.500000 0.593750 0.031250
v 0.500000 0.656250 0.031250
v 0.562500 0.593750 0.031250
v 0.562500 0.656250 0.031250
v 0.500000 0.593750 -0.031250
v 0.500000 0.656250 -0.031250
v 0.562500 0.593750 -0.031250
v 0.562500 0.656250 -0.031250
v 0.437500 0.531250 0.156250
v 0.625000 0.531250 0.156250
v 0.625000 0.531250 -0.156250
v 0.437500 0.531250 -0.156250
v 0.625000 0.406250 -0.093750
v 0.625000 0.406250 -0.031250
v 0.625000 0.406250 0.031250
v 0.625000 0.406250 0.093750
v 0.625000 0.593750 0.093750
v 0.625000 0.593750 0.031250
v 0.625000 0.593750 -0.031250
v 0.625000 0.593750 -0.093750
v 0.437500 0.406250 0.093750
v 0.437500 0.406250 0.031250
v 0.437500 0.406250 -0.031250
v 0.437500 0.406250 -0.093750
v 0.437500 0.593750 -0.093750
v 0.437500 0.593750 -0.031250
v 0.437500 0.593750 0.031250
v 0.437500 0.593750 0.093750
v 0.625000 0.531250 -0.093750
v 0.625000 0.531250 -0.031250
v 0.625000 0.531250 0.031250
v 0.625000 0.531250 0.093750
v 0.437500 0.531250 0.093750
v 0.437500 0.531250 0.031250
v 0.437500 0.531250 -0.031250
v 0.437500 0.531250 -0.093750
v 0.453125 0.421875 0.031250
v 0.453125 0.421875 0.093750
v 0.453125 0.421875 0.093750
v 0.453125 0.421875 0.031250
v 0.453125 0.421875 -0.093750
v 0.453125 0.531250 0.093750
v 0.453125 0.531250 0.031250
v 0.453125 0.531250 -0.093750
v 0.609375 0.421875 -0.093750
v 0.609375 0.421875 -0.031250
v 0.609375 0.421875 0.031250
v 0.609375 0.421875 0.093750
v 0.609375 0.531250 -0.093750
v 0.609375 0.531250 -0.031250
v 0.609375 0.531250 0.031250
v 0.609375 0.531250 0.093750
v 0.453125 0.421875 -0.031250
v 0.453125 0.531250 -0.031250
v 0.453125 0.421875 -0.093750
v 0.453125 0.531250 0.093750
v 0.453125 0.531250 0.031250
v 0.453125 0.531250 -0.093750
v 0.609375 0.421875 -0.093750
v 0.609375 0.421875 -0.031250
v 0.609375 0.421875 0.031250
v 0.609375 0.421875 0.093750
v 0.609375 0.531250 -0.093750
v 0.609375 0.531250 -0.031250
v 0.609375 0.531250 0.031250
v 0.609375 0.531250 0.093750
v 0.453125 0.421875 -0.031250
v 0.453125 0.531250 -0.031250
v 0.531250 0.421875 -0.031250
v 0.531250 0.421875 -0.093750
v 0.531250 0.421875 0.093750
v 0.531250 0.421875 0.031250
vt 0.656250 0.281250
vt 0.734375 0.281250
vt 0.734375 0.359375
vt 0.656250 0.359375
vt 0.578125 0.203125
vt 0.578125 0.281250
vt 0.562500 0.265625
vt 0.562500 0.203125
vt 0.734375 0.281250
vt 0.656250 0.281250
vt 0.656250 0.359375
vt 0.734375 0.359375
vt 0.578125 0.281250
vt 0.578125 0.359375
vt 0.500000 0.203125
vt 0.500000 0.281250
vt 0.515625 0.265625
vt 0.515625 0.203125
vt 0.500000 0.281250
vt 0.500000 0.359375
vt 0.578125 0.359375
vt 0.578125 0.281250
vt 0.578125 0.203125
vt 0.593750 0.218750
vt 0.625000 0.218750
vt 0.625000 0.203125
vt 0.718750 0.203125
vt 0.671875 0.203125
vt 0.671875 0.281250
vt 0.718750 0.281250
vt 0.625000 0.281250
vt 0.578125 0.281250
vt 0.593750 0.265625
vt 0.625000 0.265625
vt 0.515625 0.265625
vt 0.500000 0.281250
vt 0.546875 0.207031
vt 0.546875 0.265625
vt 0.562500 0.265625
vt 0.578125 0.281250
vt 0.562500 0.250000
vt 0.515625 0.250000
vt 0.562500 0.265625
vt 0.562500 0.250000
vt 0.515625 0.250000
vt 0.515625 0.265625
vt 0.531250 0.265625
vt 0.531250 0.207031
vt 0.531250 0.265625
vt 0.546875 0.265625
vt 0.562500 0.453125
vt 0.562500 0.437500
vt 0.531250 0.437500
vt 0.531250 0.453125
vt 0.625000 0.265625
vt 0.621094 0.250000
vt 0.593750 0.250000
vt 0.593750 0.265625
vt 0.578125 0.281250
vt 0.578125 0.203125
vt 0.593750 0.218750
vt 0.625000 0.203125
vt 0.625000 0.218750
vt 0.671875 0.265625
vt 0.667969 0.250000
vt 0.628906 0.250000
vt 0.628906 0.234375
vt 0.667969 0.234375
vt 0.671875 0.218750
vt 0.593750 0.250000
vt 0.621094 0.250000
vt 0.609375 0.218750
vt 0.609375 0.265625
vt 0.671875 0.203125
vt 0.621094 0.234375
vt 0.593750 0.234375
vt 0.625000 0.281250
vt 0.671875 0.281250
vt 0.609375 0.265625
vt 0.609375 0.218750
vt 0.593750 0.234375
vt 0.621094 0.234375
vt 0.718750 0.218750
vt 0.718750 0.265625
vt 0.765625 0.265625
vt 0.765625 0.218750
vt 0.531250 0.406250
vt 0.562500 0.406250
vt 0.531250 0.406250
vt 0.531250 0.390625
vt 0.562500 0.390625
vt 0.562500 0.406250
vt 0.531250 0.390625
vt 0.531250 0.406250
vt 0.562500 0.437500
vt 0.562500 0.453125
vt 0.796875 0.312500
vt 0.812500 0.312500
vt 0.812500 0.359375
vt 0.796875 0.359375
vt 0.796875 0.359375
vt 0.812500 0.359375
vt 0.812500 0.312500
vt 0.796875 0.312500
vt 0.890625 0.187500
vt 0.843750 0.187500
vt 0.843750 0.203125
vt 0.890625 0.203125
vt 0.812500 0.250000
vt 0.765625 0.250000
vt 0.765625 0.265625
vt 0.812500 0.265625
vt 0.796875 0.296875
vt 0.812500 0.296875
vt 0.750000 0.296875
vt 0.734375 0.296875
vt 0.734375 0.312500
vt 0.750000 0.312500
vt 0.921875 0.187500
vt 0.937500 0.187500
vt 0.937500 0.203125
vt 0.921875 0.203125
vt 0.937500 0.203125
vt 0.921875 0.203125
vt 0.921875 0.218750
vt 0.937500 0.218750
vt 0.937500 0.187500
vt 0.921875 0.187500
vt 0.921875 0.203125
vt 0.937500 0.203125
vt 0.921875 0.203125
vt 0.937500 0.203125
vt 0.937500 0.218750
vt 0.921875 0.218750
vt 0.781250 0.265625
vt 0.765625 0.265625
vt 0.765625 0.296875
vt 0.781250 0.296875
vt 0.765625 0.265625
vt 0.781250 0.265625
vt 0.781250 0.296875
vt 0.765625 0.296875
vt 0.843750 0.156250
vt 0.890625 0.156250
vt 0.750000 0.265625
vt 0.734375 0.265625
vt 0.765625 0.218750
vt 0.812500 0.218750
vt 0.796875 0.265625
vt 0.812500 0.265625
vt 0.750000 0.265625
vt 0.750000 0.296875
vt 0.734375 0.296875
vt 0.734375 0.265625
vt 0.812500 0.296875
vt 0.796875 0.296875
vt 0.796875 0.312500
vt 0.812500 0.312500
vt 0.781250 0.312500
vt 0.765625 0.312500
vt 0.750000 0.312500
vt 0.734375 0.312500
vt 0.765625 0.312500
vt 0.781250 0.312500
vt 0.734375 0.359375
vt 0.750000 0.359375
vt 0.750000 0.312500
vt 0.734375 0.312500
vt 0.765625 0.359375
vt 0.781250 0.359375
vt 0.781250 0.312500
vt 0.765625 0.312500
vt 0.796875 0.265625
vt 0.812500 0.265625
vt 0.750000 0.359375
vt 0.734375 0.359375
vt 0.765625 0.359375
vt 0.781250 0.359375
vt 0.765625 0.265625
vt 0.765625 0.296875
vt 0.781250 0.292969
vt 0.781250 0.265625
vt 0.750000 0.265625
vt 0.750000 0.296875
vt 0.734375 0.292969
vt 0.734375 0.265625
vt 0.796875 0.296875
vt 0.796875 0.265625
vt 0.812500 0.265625
vt 0.812500 0.292969
vt 0.765625 0.265625
vt 0.765625 0.296875
vt 0.781250 0.292969
vt 0.781250 0.265625
vt 0.812500 0.265625
vt 0.812500 0.296875
vt 0.796875 0.292969
vt 0.796875 0.265625
vt 0.734375 0.296875
vt 0.734375 0.265625
vt 0.750000 0.265625
vt 0.750000 0.292969
vt 0.781250 0.296875
vt 0.781250 0.265625
vt 0.765625 0.265625
vt 0.765625 0.292969
vt 0.781250 0.296875
vt 0.781250 0.265625
vt 0.765625 0.265625
vt 0.765625 0.292969
vt 0.781250 0.359375
vt 0.765625 0.355469
vt 0.765625 0.316406
vt 0.781250 0.312500
vt 0.812500 0.312500
vt 0.812500 0.359375
vt 0.796875 0.355469
vt 0.796875 0.316406
vt 0.734375 0.312500
vt 0.750000 0.316406
vt 0.750000 0.355469
vt 0.734375 0.359375
vt 0.781250 0.312500
vt 0.765625 0.316406
vt 0.765625 0.355469
vt 0.781250 0.359375
vt 0.750000 0.312500
vt 0.765625 0.312500
vt 0.765625 0.296875
vt 0.750000 0.296875
vt 0.796875 0.312500
vt 0.781250 0.312500
vt 0.765625 0.312500
vt 0.750000 0.312500
vt 0.750000 0.296875
vt 0.765625 0.296875
vt 0.781250 0.312500
vt 0.796875 0.312500
vt 0.578125 -0.000000
vt 0.578125 0.187500
vt 0.687500 0.187500
vt 0.687500 -0.000000
vt 1.000000 0.625000
vt 1.000000 0.390625
vt 0.812500 0.390625
vt 0.812500 0.625000
vt 0.812500 0.187500
vt 0.812500 0.421875
vt 1.000000 0.421875
vt 1.000000 0.187500
vt 0.859375 -0.000000
vt 0.703125 0.000000
vt 0.703125 0.187500
vt 0.859375 0.187500
vt 0.984375 -0.000000
vt 0.875000 -0.000000
vt 0.875000 0.187500
vt 0.984375 0.187500
vt 0.812500 0.625000
vt 0.812500 0.515625
vt 0.875000 0.515625
vt 0.875000 0.625000
vt 0.875000 0.500000
vt 0.875000 0.390625
vt 0.812500 0.390625
vt 0.812500 0.500000
vt 0.750000 0.500000
vt 0.750000 0.390625
vt 0.687500 0.390625
vt 0.687500 0.500000
vt 0.875000 0.500000
vt 0.812500 0.500000
vt 0.812500 0.625000
vt 0.812500 0.515625
vt 0.875000 0.515625
vt 0.875000 0.625000
vt 0.687500 0.515625
vt 0.687500 0.625000
vt 0.750000 0.625000
vt 0.750000 0.515625
vt 0.750000 0.500000
vt 0.687500 0.500000
vt 0.750000 0.625000
vt 0.750000 0.515625
vt 0.687500 0.515625
vt 0.687500 0.625000
vn 0.0000 0.0000 1.0000
vn 1.0000 0.0000 0.0000
vn -0.0000 0.0000 -1.0000
vn -1.0000 0.0000 0.0000
vn 0.0000 1.0000 0.0000
vn 0.0000 -1.0000 0.0000
usemtl MAIN
s off
f 1/1/1 3/2/1 4/3/1 2/4/1
f 4/5/2 3/6/2 13/7/2 22/8/2
f 7/9/3 5/10/3 6/11/3 8/12/3
f 5/10/4 1/13/4 2/14/4 6/11/4
f 8/15/5 6/16/5 18/17/5 21/18/5
f 3/19/6 1/20/6 5/21/6 7/22/6
f 41/23/1 28/24/1 38/25/1 42/26/1
f 41/27/2 43/28/2 12/29/2 10/30/2
f 11/31/3 12/32/3 30/33/3 35/34/3
f 8/15/2 21/18/2 16/35/2 7/36/2
f 22/8/3 15/37/3 19/38/3 17/39/3
f 7/36/2 16/35/2 13/7/2 3/6/2
f 2/40/5 17/39/5 18/17/5 6/16/5
f 4/5/5 22/8/5 17/39/5 2/40/5
f 17/39/2 19/41/2 20/42/2 18/17/2
f 16/43/5 23/44/5 24/45/5 13/46/5
f 18/17/1 20/47/1 14/48/1 21/18/1
f 21/18/1 14/48/1 23/49/1 16/35/1
f 13/7/3 24/50/3 15/37/3 22/8/3
f 53/51/4 66/52/4 64/53/4 51/54/4
f 37/55/6 31/56/6 39/57/6 27/58/6
f 10/59/1 27/58/1 28/24/1 41/23/1
f 43/60/3 29/61/3 30/33/3 12/32/3
f 44/62/3 36/63/3 29/61/3 43/60/3
f 35/64/6 26/65/6 31/66/6 37/55/6
f 38/25/5 32/67/5 25/68/5 36/69/5
f 30/33/6 34/70/6 26/71/6 35/34/6
f 29/61/4 33/72/4 34/73/4 30/33/4
f 42/26/4 38/25/4 36/69/4 44/74/4
f 36/63/5 25/75/5 33/76/5 29/61/5
f 9/77/4 11/78/4 35/64/4 37/55/4
f 27/58/4 39/79/4 40/80/4 28/24/4
f 9/77/1 37/55/1 27/58/1 10/59/1
f 28/24/5 40/81/5 32/82/5 38/25/5
f 41/83/6 42/84/6 44/85/6 43/86/6
f 63/87/6 64/53/6 66/52/6 65/88/6
f 52/89/2 63/90/2 65/91/2 54/92/2
f 54/92/3 65/91/3 66/93/3 53/94/3
f 51/54/1 64/53/1 63/95/1 52/96/1
f 102/97/5 68/98/5 70/99/5 91/100/5
f 90/101/6 69/102/6 67/103/6 95/104/6
f 83/105/1 84/106/1 70/107/1 68/108/1
f 85/109/3 86/110/3 72/111/3 74/112/3
f 107/113/4 83/114/4 68/98/4 102/97/4
f 103/115/2 85/116/2 74/117/2 94/118/2
f 75/119/1 77/120/1 78/121/1 76/122/1
f 77/123/2 81/124/2 82/125/2 78/126/2
f 81/127/3 79/128/3 80/129/3 82/130/3
f 79/131/4 75/132/4 76/133/4 80/134/4
f 89/135/2 88/136/2 104/137/2 105/138/2
f 97/139/4 96/140/4 108/141/4 109/142/4
f 69/143/1 84/106/1 83/105/1 67/144/1
f 87/145/2 73/146/2 85/116/2 103/115/2
f 71/147/3 86/110/3 85/109/3 73/148/3
f 95/149/4 67/150/4 83/114/4 107/113/4
f 98/151/4 110/152/4 86/153/4 71/154/4
f 84/155/2 106/156/2 91/157/2 70/158/2
f 106/156/2 105/138/2 92/159/2 91/157/2
f 105/138/2 104/137/2 93/160/2 92/159/2
f 104/137/2 103/115/2 94/118/2 93/160/2
f 86/153/4 110/152/4 99/161/4 72/162/4
f 110/152/4 109/142/4 100/163/4 99/161/4
f 109/142/4 108/141/4 101/164/4 100/163/4
f 108/141/4 107/113/4 102/97/4 101/164/4
f 73/165/6 87/166/6 98/167/6 71/168/6
f 88/169/6 89/170/6 96/171/6 97/172/6
f 90/173/2 106/156/2 84/155/2 69/174/2
f 72/162/5 99/161/5 94/175/5 74/176/5
f 99/161/5 100/163/5 93/177/5 94/175/5
f 100/163/5 101/164/5 92/178/5 93/177/5
f 101/164/5 102/97/5 91/100/5 92/178/5
f 108/179/1 96/180/1 114/181/1 117/182/1
f 110/183/1 98/184/1 115/185/1 118/186/1
f 95/187/3 107/188/3 116/189/3 113/190/3
f 104/191/3 88/192/3 120/193/3 124/194/3
f 106/195/3 90/196/3 122/197/3 126/198/3
f 87/199/1 103/200/1 123/201/1 119/202/1
f 89/203/1 105/204/1 125/205/1 121/206/1
f 97/207/3 109/208/3 128/209/3 127/210/3
f 97/211/3 127/212/3 120/213/3 88/214/3
f 90/215/3 95/216/3 113/217/3 122/218/3
f 87/219/1 119/220/1 115/221/1 98/222/1
f 89/223/1 121/224/1 114/225/1 96/226/1
f 103/227/6 104/228/6 124/229/6 123/230/6
f 105/138/6 106/156/6 126/231/6 125/232/6
f 109/233/6 110/234/6 118/235/6 128/236/6
f 107/113/6 108/141/6 117/237/6 116/238/6
usemtl CIRCUITRY
f 55/239/3 56/240/3 60/241/3 59/242/3
f 47/243/5 46/244/5 45/245/5 48/246/5
f 49/247/2 45/248/2 46/249/2 50/250/2
f 55/251/4 58/252/4 57/253/4 56/254/4
f 58/255/1 62/256/1 61/257/1 57/258/1
f 140/259/2 136/260/2 135/261/2 139/262/2
f 136/263/6 145/264/6 146/265/6 135/266/6
f 134/267/6 143/268/6 144/269/6 133/270/6
f 145/264/6 112/271/6 111/272/6 146/265/6
f 131/273/4 111/274/4 112/275/4 130/276/4
f 132/277/4 129/278/4 141/279/4 142/280/4
f 143/268/6 141/281/6 129/282/6 144/269/6
f 138/283/2 134/284/2 133/285/2 137/286/2
