# Blender v2.80 (sub 75) OBJ File: 'constructs.blend'
# www.blender.org
mtllib arm_grabber_r.mtl
o ARM_RIGHT_GRABBY.OBSVAR_Cube.330
v 0.375000 1.000000 0.156250
v 0.375000 1.312500 0.156250
v 0.687500 1.000000 0.156250
v 0.687500 1.312500 0.156250
v 0.375000 1.000000 -0.156250
v 0.375000 1.312500 -0.156250
v 0.687500 1.000000 -0.156250
v 0.687500 1.312500 -0.156250
v 0.437500 1.000000 0.093750
v 0.625000 1.000000 0.093750
v 0.437500 1.000000 -0.093750
v 0.625000 1.000000 -0.093750
v 0.687500 1.062500 0.093750
v 0.671875 1.296875 -0.093750
v 0.671875 1.296875 0.093750
v 0.687500 1.062500 -0.093750
v 0.437500 1.312500 0.093750
v 0.437500 1.312500 -0.093750
v 0.437500 1.296875 0.093750
v 0.437500 1.296875 -0.093750
v 0.687500 1.312500 -0.093750
v 0.687500 1.312500 0.093750
v 0.671875 1.062500 -0.093750
v 0.671875 1.062500 0.093750
v 0.453125 0.750000 -0.078125
v 0.453125 0.937500 -0.078125
v 0.562500 0.937500 0.093750
v 0.562500 0.750000 0.093750
v 0.562500 0.750000 -0.093750
v 0.562500 0.937500 -0.093750
v 0.453125 0.937500 0.078125
v 0.453125 0.750000 0.078125
v 0.562500 0.750000 -0.078125
v 0.562500 0.937500 -0.078125
v 0.437500 0.937500 -0.093750
v 0.437500 0.750000 -0.093750
v 0.437500 0.937500 0.093750
v 0.437500 0.750000 0.093750
v 0.562500 0.937500 0.078125
v 0.562500 0.750000 0.078125
v 0.625000 0.687500 0.093750
v 0.437500 0.687500 0.093750
v 0.625000 0.687500 -0.093750
v 0.437500 0.687500 -0.093750
v 0.671875 1.296875 -0.093750
v 0.671875 1.296875 0.093750
v 0.437500 1.296875 0.093750
v 0.437500 1.296875 -0.093750
v 0.671875 1.062500 -0.093750
v 0.671875 1.062500 0.093750
v 0.468750 0.687500 0.062500
v 0.593750 0.687500 0.062500
v 0.468750 0.687500 -0.062500
v 0.593750 0.687500 -0.062500
v 0.453125 0.750000 -0.078125
v 0.453125 0.937500 -0.078125
v 0.453125 0.937500 0.078125
v 0.453125 0.750000 0.078125
v 0.562500 0.750000 -0.078125
v 0.562500 0.937500 -0.078125
v 0.562500 0.937500 0.078125
v 0.562500 0.750000 0.078125
v 0.593750 0.625000 0.062500
v 0.468750 0.625000 0.062500
v 0.593750 0.625000 -0.062500
v 0.468750 0.625000 -0.062500
v 0.500000 0.585377 0.031250
v 0.500000 0.625000 0.031250
v 0.562500 0.585377 0.031250
v 0.562500 0.625000 0.031250
v 0.500000 0.625000 -0.031250
v 0.562500 0.625000 -0.031250
v 0.500000 0.522877 -0.139503
v 0.562500 0.522877 -0.139503
v 0.562500 0.500000 -0.054127
v 0.500000 0.500000 -0.054127
v 0.562500 0.414623 0.077003
v 0.500000 0.468750 -0.108253
v 0.562500 0.445873 0.022877
v 0.562500 0.468750 -0.108253
v 0.562500 0.445873 -0.022877
v 0.562500 0.414623 -0.077003
v 0.562500 0.554127 -0.085377
v 0.562500 0.585377 -0.031250
v 0.500000 0.585377 -0.031250
v 0.500000 0.554127 -0.085377
v 0.562500 0.468750 0.108253
v 0.562500 0.531250 -0.000000
v 0.500000 0.468750 0.108253
v 0.500000 0.531250 -0.000000
v 0.500000 0.500000 0.054127
v 0.562500 0.500000 0.054127
v 0.562500 0.522877 0.139503
v 0.500000 0.522877 0.139503
v 0.500000 0.554127 0.085377
v 0.562500 0.554127 0.085377
v 0.500000 0.445873 0.022877
v 0.500000 0.414623 0.077003
v 0.500000 0.445873 -0.022877
v 0.500000 0.414623 -0.077003
vt 0.656250 0.281250
vt 0.734375 0.281250
vt 0.734375 0.359375
vt 0.656250 0.359375
vt 0.578125 0.203125
vt 0.578125 0.281250
vt 0.562500 0.265625
vt 0.562500 0.203125
vt 0.734375 0.281250
vt 0.656250 0.281250
vt 0.656250 0.359375
vt 0.734375 0.359375
vt 0.578125 0.281250
vt 0.578125 0.359375
vt 0.500000 0.203125
vt 0.500000 0.281250
vt 0.515625 0.265625
vt 0.515625 0.203125
vt 0.500000 0.281250
vt 0.500000 0.359375
vt 0.578125 0.359375
vt 0.578125 0.281250
vt 0.578125 0.203125
vt 0.593750 0.218750
vt 0.625000 0.218750
vt 0.625000 0.203125
vt 0.718750 0.203125
vt 0.671875 0.203125
vt 0.671875 0.281250
vt 0.718750 0.281250
vt 0.625000 0.281250
vt 0.578125 0.281250
vt 0.593750 0.265625
vt 0.625000 0.265625
vt 0.515625 0.265625
vt 0.500000 0.281250
vt 0.546875 0.207031
vt 0.546875 0.265625
vt 0.562500 0.265625
vt 0.578125 0.281250
vt 0.562500 0.250000
vt 0.515625 0.250000
vt 0.562500 0.265625
vt 0.562500 0.250000
vt 0.515625 0.250000
vt 0.515625 0.265625
vt 0.531250 0.265625
vt 0.531250 0.207031
vt 0.531250 0.265625
vt 0.546875 0.265625
vt 0.562500 0.453125
vt 0.562500 0.437500
vt 0.531250 0.437500
vt 0.531250 0.453125
vt 0.625000 0.265625
vt 0.621094 0.250000
vt 0.593750 0.250000
vt 0.593750 0.265625
vt 0.578125 0.281250
vt 0.578125 0.203125
vt 0.593750 0.218750
vt 0.625000 0.203125
vt 0.625000 0.218750
vt 0.671875 0.265625
vt 0.667969 0.250000
vt 0.628906 0.250000
vt 0.628906 0.234375
vt 0.667969 0.234375
vt 0.671875 0.218750
vt 0.593750 0.250000
vt 0.621094 0.250000
vt 0.609375 0.218750
vt 0.609375 0.265625
vt 0.671875 0.203125
vt 0.621094 0.234375
vt 0.593750 0.234375
vt 0.625000 0.281250
vt 0.671875 0.281250
vt 0.609375 0.265625
vt 0.609375 0.218750
vt 0.593750 0.234375
vt 0.621094 0.234375
vt 0.718750 0.218750
vt 0.718750 0.265625
vt 0.765625 0.265625
vt 0.765625 0.218750
vt 0.531250 0.406250
vt 0.562500 0.406250
vt 0.531250 0.406250
vt 0.531250 0.390625
vt 0.562500 0.390625
vt 0.562500 0.406250
vt 0.531250 0.390625
vt 0.531250 0.406250
vt 0.562500 0.437500
vt 0.562500 0.453125
vt 0.828125 0.390625
vt 0.812500 0.390625
vt 0.812500 0.406250
vt 0.828125 0.406250
vt 0.843750 0.390625
vt 0.828125 0.390625
vt 0.828125 0.406250
vt 0.843750 0.406250
vt 0.812500 0.390625
vt 0.828125 0.390625
vt 0.828125 0.406250
vt 0.812500 0.406250
vt 0.843750 0.390625
vt 0.843750 0.406250
vt 0.828125 0.375000
vt 0.812500 0.312500
vt 0.828125 0.312500
vt 0.828125 0.328125
vt 0.812500 0.328125
vt 0.828125 0.312500
vt 0.812500 0.312500
vt 0.812500 0.328125
vt 0.828125 0.328125
vt 0.828125 0.296875
vt 0.812500 0.296875
vt 0.812500 0.343750
vt 0.812500 0.328125
vt 0.828125 0.328125
vt 0.828125 0.343750
vt 0.828125 0.328125
vt 0.828125 0.343750
vt 0.843750 0.343750
vt 0.843750 0.328125
vt 0.843750 0.312500
vt 0.843750 0.328125
vt 0.828125 0.359375
vt 0.828125 0.375000
vt 0.812500 0.375000
vt 0.812500 0.359375
vt 0.812500 0.343750
vt 0.828125 0.343750
vt 0.828125 0.328125
vt 0.812500 0.328125
vt 0.843750 0.343750
vt 0.843750 0.359375
vt 0.828125 0.359375
vt 0.828125 0.343750
vt 0.843750 0.359375
vt 0.828125 0.359375
vt 0.843750 0.375000
vt 0.812500 0.359375
vt 0.828125 0.359375
vt 0.828125 0.328125
vt 0.843750 0.328125
vt 0.828125 0.296875
vt 0.812500 0.296875
vt 0.828125 0.312500
vt 0.828125 0.328125
vt 0.843750 0.328125
vt 0.812500 0.312500
vt 0.812500 0.328125
vt 0.843750 0.312500
vt 0.843750 0.328125
vt 0.828125 0.296875
vt 0.828125 0.312500
vt 0.812500 0.312500
vt 0.812500 0.296875
vt 0.828125 0.375000
vt 0.812500 0.375000
vt 0.843750 0.328125
vt 0.828125 0.328125
vt 0.828125 0.375000
vt 0.828125 0.296875
vt 0.812500 0.296875
vt 0.812500 0.328125
vt 0.578125 -0.000000
vt 0.578125 0.187500
vt 0.687500 0.187500
vt 0.687500 -0.000000
vt 1.000000 0.625000
vt 1.000000 0.390625
vt 0.812500 0.390625
vt 0.812500 0.625000
vt 0.812500 0.187500
vt 0.812500 0.421875
vt 1.000000 0.421875
vt 1.000000 0.187500
vt 0.859375 -0.000000
vt 0.703125 0.000000
vt 0.703125 0.187500
vt 0.859375 0.187500
vt 0.984375 -0.000000
vt 0.875000 -0.000000
vt 0.875000 0.187500
vt 0.984375 0.187500
vn 0.0000 0.0000 1.0000
vn 1.0000 0.0000 0.0000
vn -0.0000 0.0000 -1.0000
vn -1.0000 0.0000 0.0000
vn 0.0000 1.0000 0.0000
vn 0.0000 -1.0000 0.0000
vn 0.0000 -0.5000 -0.8660
vn 0.0000 -0.8660 0.5000
vn -0.0000 0.8660 -0.5000
vn 0.0000 -0.5000 0.8660
vn -0.0000 0.5000 -0.8660
vn 0.0000 -0.8660 -0.5000
vn 0.0000 0.8660 0.5000
vn 0.0000 0.5000 0.8660
usemtl MAIN
s off
f 1/1/1 3/2/1 4/3/1 2/4/1
f 4/5/2 3/6/2 13/7/2 22/8/2
f 7/9/3 5/10/3 6/11/3 8/12/3
f 5/10/4 1/13/4 2/14/4 6/11/4
f 8/15/5 6/16/5 18/17/5 21/18/5
f 3/19/6 1/20/6 5/21/6 7/22/6
f 41/23/1 28/24/1 38/25/1 42/26/1
f 41/27/2 43/28/2 12/29/2 10/30/2
f 11/31/3 12/32/3 30/33/3 35/34/3
f 8/15/2 21/18/2 16/35/2 7/36/2
f 22/8/3 15/37/3 19/38/3 17/39/3
f 7/36/2 16/35/2 13/7/2 3/6/2
f 2/40/5 17/39/5 18/17/5 6/16/5
f 4/5/5 22/8/5 17/39/5 2/40/5
f 17/39/2 19/41/2 20/42/2 18/17/2
f 16/43/5 23/44/5 24/45/5 13/46/5
f 18/17/1 20/47/1 14/48/1 21/18/1
f 21/18/1 14/48/1 23/49/1 16/35/1
f 13/7/3 24/50/3 15/37/3 22/8/3
f 53/51/4 66/52/4 64/53/4 51/54/4
f 37/55/6 31/56/6 39/57/6 27/58/6
f 10/59/1 27/58/1 28/24/1 41/23/1
f 43/60/3 29/61/3 30/33/3 12/32/3
f 44/62/3 36/63/3 29/61/3 43/60/3
f 35/64/6 26/65/6 31/66/6 37/55/6
f 38/25/5 32/67/5 25/68/5 36/69/5
f 30/33/6 34/70/6 26/71/6 35/34/6
f 29/61/4 33/72/4 34/73/4 30/33/4
f 42/26/4 38/25/4 36/69/4 44/74/4
f 36/63/5 25/75/5 33/76/5 29/61/5
f 9/77/4 11/78/4 35/64/4 37/55/4
f 27/58/4 39/79/4 40/80/4 28/24/4
f 9/77/1 37/55/1 27/58/1 10/59/1
f 28/24/5 40/81/5 32/82/5 38/25/5
f 41/83/6 42/84/6 44/85/6 43/86/6
f 63/87/6 64/53/6 66/52/6 65/88/6
f 52/89/2 63/90/2 65/91/2 54/92/2
f 54/92/3 65/91/3 66/93/3 53/94/3
f 51/54/1 64/53/1 63/95/1 52/96/1
f 67/97/1 69/98/1 70/99/1 68/100/1
f 69/101/2 84/102/2 72/103/2 70/104/2
f 84/105/3 85/106/3 71/107/3 72/108/3
f 85/106/4 67/109/4 68/110/4 71/107/4
f 88/111/2 84/102/2 69/101/2
f 87/112/2 92/113/2 96/114/2 93/115/2
f 91/116/4 89/117/4 94/118/4 95/119/4
f 97/120/4 98/121/4 89/117/4 91/116/4
f 80/122/7 82/123/7 100/124/7 78/125/7
f 82/126/8 81/127/8 99/128/8 100/129/8
f 88/130/2 69/131/2 96/114/2 92/113/2
f 73/132/9 86/133/9 83/134/9 74/135/9
f 87/136/10 89/137/10 98/138/10 77/139/10
f 97/140/11 91/141/11 92/142/11 79/143/11
f 86/133/9 85/106/9 84/105/9 83/134/9
f 76/144/8 75/145/8 88/111/8 90/146/8
f 89/137/10 87/136/10 93/147/10 94/148/10
f 77/149/12 98/150/12 97/140/12 79/143/12
f 79/151/2 92/113/2 87/112/2 77/152/2
f 88/130/2 75/153/2 83/154/2 84/155/2
f 80/156/2 74/157/2 83/154/2 75/153/2
f 90/158/4 91/116/4 95/119/4 67/159/4
f 91/141/12 90/146/12 88/111/12 92/142/12
f 99/160/4 76/161/4 78/162/4 100/163/4
f 95/164/13 96/165/13 69/98/13 67/97/13
f 94/148/13 93/147/13 96/165/13 95/164/13
f 90/158/4 85/166/4 86/167/4 76/161/4
f 78/125/7 73/132/7 74/135/7 80/122/7
f 85/106/4 90/168/4 67/109/4
f 81/169/2 82/170/2 80/156/2 75/153/2
f 76/161/4 86/167/4 73/171/4 78/162/4
f 99/128/14 81/127/14 75/145/14 76/144/14
usemtl CIRCUITRY
f 55/172/3 56/173/3 60/174/3 59/175/3
f 47/176/5 46/177/5 45/178/5 48/179/5
f 49/180/2 45/181/2 46/182/2 50/183/2
f 55/184/4 58/185/4 57/186/4 56/187/4
f 58/188/1 62/189/1 61/190/1 57/191/1
