# Blender v2.80 (sub 75) OBJ File: 'constructs.blend'
# www.blender.org
mtllib arm_hammer_l.mtl
o ARM_LEFT_DECO_OBSIDIAN_Cube.362
v -0.593750 1.250000 0.062500
v -0.593750 1.437500 0.062500
v -0.593750 1.250000 -0.062500
v -0.593750 1.437500 -0.062500
v -0.468750 1.250000 0.062500
v -0.468750 1.437500 0.062500
v -0.468750 1.250000 -0.062500
v -0.468750 1.437500 -0.062500
v -0.531250 1.687500 0.000000
v -0.781250 1.187500 0.031250
v -0.781250 1.312500 0.031250
v -0.781250 1.187500 -0.031250
v -0.781250 1.312500 -0.031250
v -0.593750 1.187500 0.031250
v -0.593750 1.375000 0.031250
v -0.593750 1.187500 -0.031250
v -0.593750 1.375000 -0.031250
v -0.656250 1.125000 -0.031250
v -0.656250 1.312500 -0.031250
v -0.656250 1.125000 0.031250
v -0.656250 1.312500 0.031250
v -0.718750 1.125000 -0.031250
v -0.718750 1.312500 0.031250
v -0.718750 1.312500 -0.031250
v -0.718750 1.125000 0.031250
v -0.750000 0.875000 -0.031250
v -0.750000 1.000000 -0.031250
v -0.750000 0.875000 -0.093750
v -0.750000 1.000000 -0.093750
v -0.625000 0.812500 -0.093750
v -0.625000 1.000000 -0.093750
v -0.625000 0.812500 -0.031250
v -0.625000 1.000000 -0.031250
v -0.687500 0.812500 -0.093750
v -0.687500 1.000000 -0.031250
v -0.687500 1.000000 -0.093750
v -0.687500 0.812500 -0.031250
v -0.750000 0.875000 0.093750
v -0.750000 1.000000 0.093750
v -0.750000 0.875000 0.031250
v -0.750000 1.000000 0.031250
v -0.625000 0.812500 0.031250
v -0.625000 1.000000 0.031250
v -0.625000 0.812500 0.093750
v -0.625000 1.000000 0.093750
v -0.687500 0.812500 0.031250
v -0.687500 1.000000 0.093750
v -0.687500 1.000000 0.031250
v -0.687500 0.812500 0.093750
vt 0.062500 0.500000
vt 0.062500 0.546875
vt 0.031250 0.546875
vt 0.031250 0.500000
vt 0.000000 0.546875
vt 0.000000 0.500000
vt 0.031250 0.500000
vt 0.031250 0.546875
vt 0.062500 0.546875
vt 0.062500 0.500000
vt 0.093750 0.500000
vt 0.093750 0.546875
vt 0.046875 0.609375
vt 0.078125 0.609375
vt 0.015625 0.609375
vt 0.156250 0.531250
vt 0.156250 0.562500
vt 0.140625 0.562500
vt 0.140625 0.531250
vt 0.109375 0.500000
vt 0.109375 0.546875
vt 0.093750 0.562500
vt 0.093750 0.515625
vt 0.125000 0.500000
vt 0.125000 0.546875
vt 0.140625 0.546875
vt 0.140625 0.515625
vt 0.125000 0.562500
vt 0.140625 0.578125
vt 0.125000 0.578125
vt 0.109375 0.562500
vt 0.109375 0.578125
vt 0.093750 0.578125
vt 0.140625 0.515625
vt 0.140625 0.500000
vt 0.156250 0.500000
vt 0.156250 0.515625
vt 0.093750 0.515625
vt 0.093750 0.562500
vt 0.109375 0.546875
vt 0.109375 0.500000
vt 0.125000 0.500000
vt 0.125000 0.546875
vt 0.140625 0.515625
vt 0.140625 0.546875
vt 0.203125 0.531250
vt 0.203125 0.562500
vt 0.187500 0.562500
vt 0.187500 0.531250
vt 0.171875 0.546875
vt 0.171875 0.593750
vt 0.187500 0.593750
vt 0.187500 0.562500
vt 0.187500 0.578125
vt 0.203125 0.578125
vt 0.187500 0.515625
vt 0.187500 0.500000
vt 0.203125 0.500000
vt 0.203125 0.515625
vt 0.171875 0.500000
vt 0.171875 0.546875
vt 0.156250 0.546875
vt 0.156250 0.500000
vt 0.187500 0.515625
vt 0.187500 0.546875
vt 0.156250 0.546875
vt 0.156250 0.593750
vt 0.203125 0.531250
vt 0.203125 0.562500
vt 0.187500 0.562500
vt 0.187500 0.531250
vt 0.171875 0.500000
vt 0.171875 0.546875
vt 0.187500 0.546875
vt 0.187500 0.515625
vt 0.187500 0.578125
vt 0.203125 0.578125
vt 0.187500 0.515625
vt 0.187500 0.500000
vt 0.203125 0.500000
vt 0.203125 0.515625
vt 0.171875 0.546875
vt 0.171875 0.593750
vt 0.156250 0.593750
vt 0.156250 0.546875
vt 0.187500 0.562500
vt 0.187500 0.593750
vt 0.156250 0.500000
vt 0.156250 0.546875
vn -1.0000 0.0000 0.0000
vn 0.0000 0.0000 -1.0000
vn 1.0000 0.0000 0.0000
vn 0.0000 0.0000 1.0000
vn 0.9701 0.2425 0.0000
vn -0.9701 0.2425 0.0000
vn 0.0000 0.2425 0.9701
vn 0.0000 0.2425 -0.9701
vn 0.0000 1.0000 0.0000
vn -0.7071 0.7071 0.0000
vn 0.0000 -1.0000 0.0000
vn -0.7071 -0.7071 0.0000
usemtl MAIN
s off
f 1/1/1 2/2/1 4/3/1 3/4/1
f 3/4/2 4/3/2 8/5/2 7/6/2
f 7/7/3 8/8/3 6/9/3 5/10/3
f 5/11/4 6/12/4 2/2/4 1/1/4
f 6/9/5 8/8/5 9/13/5
f 4/3/6 2/2/6 9/13/6
f 2/2/7 6/12/7 9/14/7
f 8/5/8 4/3/8 9/15/8
f 10/16/1 11/17/1 13/18/1 12/19/1
f 18/20/2 19/21/2 17/22/2 16/23/2
f 25/24/4 23/25/4 11/26/4 10/27/4
f 24/28/9 13/18/9 11/29/9 23/30/9
f 17/22/10 19/31/10 21/32/10 15/33/10
f 22/34/11 18/35/11 20/36/11 25/37/11
f 14/38/4 15/39/4 21/40/4 20/41/4
f 22/42/2 24/43/2 19/21/2 18/20/2
f 12/44/2 13/45/2 24/43/2 22/42/2
f 12/19/12 22/34/12 25/37/12 10/16/12
f 19/31/9 24/28/9 23/30/9 21/32/9
f 20/41/4 21/40/4 23/25/4 25/24/4
f 26/46/1 27/47/1 29/48/1 28/49/1
f 37/50/4 35/51/4 27/52/4 26/53/4
f 36/54/9 29/48/9 27/47/9 35/55/9
f 34/56/11 30/57/11 32/58/11 37/59/11
f 34/60/2 36/61/2 31/62/2 30/63/2
f 28/64/2 29/65/2 36/61/2 34/60/2
f 28/49/12 34/56/12 37/59/12 26/46/12
f 32/66/4 33/67/4 35/51/4 37/50/4
f 38/68/1 39/69/1 41/70/1 40/71/1
f 49/72/4 47/73/4 39/74/4 38/75/4
f 48/76/9 41/70/9 39/69/9 47/77/9
f 46/78/11 42/79/11 44/80/11 49/81/11
f 46/82/2 48/83/2 43/84/2 42/85/2
f 40/86/2 41/87/2 48/83/2 46/82/2
f 40/71/12 46/78/12 49/81/12 38/68/12
f 44/88/4 45/89/4 47/73/4 49/72/4
o ARM_LEFT_HAMMER.OBSVAR_Cube.324
v -0.375000 1.000000 0.156250
v -0.375000 1.312500 0.156250
v -0.687500 1.000000 0.156250
v -0.687500 1.312500 0.156250
v -0.375000 1.000000 -0.156250
v -0.375000 1.312500 -0.156250
v -0.687500 1.000000 -0.156250
v -0.687500 1.312500 -0.156250
v -0.437500 1.000000 0.093750
v -0.625000 1.000000 0.093750
v -0.437500 1.000000 -0.093750
v -0.625000 1.000000 -0.093750
v -0.687500 1.062500 0.093750
v -0.671875 1.296875 -0.093750
v -0.671875 1.296875 0.093750
v -0.687500 1.062500 -0.093750
v -0.437500 1.312500 0.093750
v -0.437500 1.312500 -0.093750
v -0.437500 1.296875 0.093750
v -0.437500 1.296875 -0.093750
v -0.687500 1.312500 -0.093750
v -0.687500 1.312500 0.093750
v -0.671875 1.062500 -0.093750
v -0.671875 1.062500 0.093750
v -0.453125 0.750000 -0.078125
v -0.453125 0.937500 -0.078125
v -0.562500 0.937500 0.093750
v -0.562500 0.750000 0.093750
v -0.562500 0.750000 -0.093750
v -0.562500 0.937500 -0.093750
v -0.453125 0.937500 0.078125
v -0.453125 0.750000 0.078125
v -0.562500 0.750000 -0.078125
v -0.562500 0.937500 -0.078125
v -0.437500 0.937500 -0.093750
v -0.437500 0.750000 -0.093750
v -0.437500 0.937500 0.093750
v -0.437500 0.750000 0.093750
v -0.562500 0.937500 0.078125
v -0.562500 0.750000 0.078125
v -0.625000 0.687500 0.093750
v -0.437500 0.687500 0.093750
v -0.625000 0.687500 -0.093750
v -0.437500 0.687500 -0.093750
v -0.671875 1.296875 -0.093750
v -0.671875 1.296875 0.093750
v -0.437500 1.296875 0.093750
v -0.437500 1.296875 -0.093750
v -0.671875 1.062500 -0.093750
v -0.671875 1.062500 0.093750
v -0.468750 0.687500 0.062500
v -0.593750 0.687500 0.062500
v -0.468750 0.687500 -0.062500
v -0.593750 0.687500 -0.062500
v -0.453125 0.750000 -0.078125
v -0.453125 0.937500 -0.078125
v -0.453125 0.937500 0.078125
v -0.453125 0.750000 0.078125
v -0.562500 0.750000 -0.078125
v -0.562500 0.937500 -0.078125
v -0.562500 0.937500 0.078125
v -0.562500 0.750000 0.078125
v -0.593750 0.625000 0.062500
v -0.468750 0.625000 0.062500
v -0.593750 0.625000 -0.062500
v -0.468750 0.625000 -0.062500
v -0.500000 0.593750 0.031250
v -0.500000 0.656250 0.031250
v -0.562500 0.593750 0.031250
v -0.562500 0.656250 0.031250
v -0.500000 0.593750 -0.031250
v -0.500000 0.656250 -0.031250
v -0.562500 0.593750 -0.031250
v -0.562500 0.656250 -0.031250
v -0.437500 0.406250 0.156250
v -0.437500 0.593750 0.156250
v -0.625000 0.406250 0.156250
v -0.625000 0.593750 0.156250
v -0.437500 0.406250 -0.156250
v -0.437500 0.593750 -0.156250
v -0.625000 0.406250 -0.156250
v -0.625000 0.593750 -0.156250
v -0.437500 0.531250 0.156250
v -0.625000 0.531250 0.156250
v -0.625000 0.531250 -0.156250
v -0.437500 0.531250 -0.156250
v -0.625000 0.406250 -0.093750
v -0.625000 0.406250 -0.031250
v -0.625000 0.406250 0.031250
v -0.625000 0.406250 0.093750
v -0.625000 0.593750 0.093750
v -0.625000 0.593750 0.031250
v -0.625000 0.593750 -0.031250
v -0.625000 0.593750 -0.093750
v -0.437500 0.406250 0.093750
v -0.437500 0.406250 0.031250
v -0.437500 0.406250 -0.031250
v -0.437500 0.406250 -0.093750
v -0.437500 0.593750 -0.093750
v -0.437500 0.593750 -0.031250
v -0.437500 0.593750 0.031250
v -0.437500 0.593750 0.093750
v -0.625000 0.531250 -0.093750
v -0.625000 0.531250 -0.031250
v -0.625000 0.531250 0.031250
v -0.625000 0.531250 0.093750
v -0.437500 0.531250 0.093750
v -0.437500 0.531250 0.031250
v -0.437500 0.531250 -0.031250
v -0.437500 0.531250 -0.093750
v -0.453125 0.421875 0.031250
v -0.453125 0.421875 0.093750
v -0.453125 0.421875 0.093750
v -0.453125 0.421875 0.031250
v -0.453125 0.421875 -0.093750
v -0.453125 0.531250 0.093750
v -0.453125 0.531250 0.031250
v -0.453125 0.531250 -0.093750
v -0.609375 0.421875 -0.093750
v -0.609375 0.421875 -0.031250
v -0.609375 0.421875 0.031250
v -0.609375 0.421875 0.093750
v -0.609375 0.531250 -0.093750
v -0.609375 0.531250 -0.031250
v -0.609375 0.531250 0.031250
v -0.609375 0.531250 0.093750
v -0.453125 0.421875 -0.031250
v -0.453125 0.531250 -0.031250
v -0.453125 0.421875 -0.093750
v -0.453125 0.531250 0.093750
v -0.453125 0.531250 0.031250
v -0.453125 0.531250 -0.093750
v -0.609375 0.421875 -0.093750
v -0.609375 0.421875 -0.031250
v -0.609375 0.421875 0.031250
v -0.609375 0.421875 0.093750
v -0.609375 0.531250 -0.093750
v -0.609375 0.531250 -0.031250
v -0.609375 0.531250 0.031250
v -0.609375 0.531250 0.093750
v -0.453125 0.421875 -0.031250
v -0.453125 0.531250 -0.031250
v -0.531250 0.421875 -0.031250
v -0.531250 0.421875 -0.093750
v -0.531250 0.421875 0.093750
v -0.531250 0.421875 0.031250
vt 0.656250 0.281250
vt 0.656250 0.359375
vt 0.734375 0.359375
vt 0.734375 0.281250
vt 0.578125 0.203125
vt 0.562500 0.203125
vt 0.562500 0.265625
vt 0.578125 0.281250
vt 0.734375 0.281250
vt 0.734375 0.359375
vt 0.656250 0.359375
vt 0.656250 0.281250
vt 0.578125 0.359375
vt 0.578125 0.281250
vt 0.500000 0.203125
vt 0.515625 0.203125
vt 0.515625 0.265625
vt 0.500000 0.281250
vt 0.500000 0.281250
vt 0.578125 0.281250
vt 0.578125 0.359375
vt 0.500000 0.359375
vt 0.578125 0.203125
vt 0.625000 0.203125
vt 0.625000 0.218750
vt 0.593750 0.218750
vt 0.718750 0.203125
vt 0.718750 0.281250
vt 0.671875 0.281250
vt 0.671875 0.203125
vt 0.625000 0.281250
vt 0.625000 0.265625
vt 0.593750 0.265625
vt 0.578125 0.281250
vt 0.500000 0.281250
vt 0.515625 0.265625
vt 0.562500 0.265625
vt 0.546875 0.265625
vt 0.546875 0.207031
vt 0.578125 0.281250
vt 0.515625 0.250000
vt 0.562500 0.250000
vt 0.562500 0.265625
vt 0.515625 0.265625
vt 0.515625 0.250000
vt 0.562500 0.250000
vt 0.531250 0.207031
vt 0.531250 0.265625
vt 0.531250 0.265625
vt 0.546875 0.265625
vt 0.562500 0.453125
vt 0.531250 0.453125
vt 0.531250 0.437500
vt 0.562500 0.437500
vt 0.625000 0.265625
vt 0.593750 0.265625
vt 0.593750 0.250000
vt 0.621094 0.250000
vt 0.578125 0.281250
vt 0.578125 0.203125
vt 0.593750 0.218750
vt 0.625000 0.203125
vt 0.625000 0.218750
vt 0.671875 0.265625
vt 0.628906 0.250000
vt 0.667969 0.250000
vt 0.671875 0.218750
vt 0.667969 0.234375
vt 0.628906 0.234375
vt 0.621094 0.250000
vt 0.593750 0.250000
vt 0.609375 0.265625
vt 0.609375 0.218750
vt 0.671875 0.203125
vt 0.593750 0.234375
vt 0.621094 0.234375
vt 0.625000 0.281250
vt 0.671875 0.281250
vt 0.609375 0.218750
vt 0.609375 0.265625
vt 0.621094 0.234375
vt 0.593750 0.234375
vt 0.718750 0.218750
vt 0.765625 0.218750
vt 0.765625 0.265625
vt 0.718750 0.265625
vt 0.531250 0.406250
vt 0.562500 0.406250
vt 0.531250 0.406250
vt 0.562500 0.406250
vt 0.562500 0.390625
vt 0.531250 0.390625
vt 0.531250 0.406250
vt 0.531250 0.390625
vt 0.562500 0.453125
vt 0.562500 0.437500
vt 0.921875 0.187500
vt 0.921875 0.203125
vt 0.937500 0.203125
vt 0.937500 0.187500
vt 0.937500 0.203125
vt 0.937500 0.218750
vt 0.921875 0.218750
vt 0.921875 0.203125
vt 0.937500 0.187500
vt 0.937500 0.203125
vt 0.921875 0.203125
vt 0.921875 0.187500
vt 0.921875 0.203125
vt 0.921875 0.218750
vt 0.937500 0.218750
vt 0.937500 0.203125
vt 0.796875 0.312500
vt 0.796875 0.359375
vt 0.812500 0.359375
vt 0.812500 0.312500
vt 0.796875 0.359375
vt 0.796875 0.312500
vt 0.812500 0.312500
vt 0.812500 0.359375
vt 0.890625 0.187500
vt 0.890625 0.203125
vt 0.843750 0.203125
vt 0.843750 0.187500
vt 0.812500 0.250000
vt 0.812500 0.265625
vt 0.765625 0.265625
vt 0.765625 0.250000
vt 0.796875 0.296875
vt 0.812500 0.296875
vt 0.750000 0.296875
vt 0.750000 0.312500
vt 0.734375 0.312500
vt 0.734375 0.296875
vt 0.781250 0.265625
vt 0.781250 0.296875
vt 0.765625 0.296875
vt 0.765625 0.265625
vt 0.765625 0.265625
vt 0.765625 0.296875
vt 0.781250 0.296875
vt 0.781250 0.265625
vt 0.843750 0.156250
vt 0.890625 0.156250
vt 0.750000 0.265625
vt 0.734375 0.265625
vt 0.765625 0.218750
vt 0.812500 0.218750
vt 0.796875 0.265625
vt 0.812500 0.265625
vt 0.750000 0.265625
vt 0.734375 0.265625
vt 0.734375 0.296875
vt 0.750000 0.296875
vt 0.812500 0.296875
vt 0.812500 0.312500
vt 0.796875 0.312500
vt 0.796875 0.296875
vt 0.781250 0.312500
vt 0.765625 0.312500
vt 0.734375 0.312500
vt 0.750000 0.312500
vt 0.765625 0.312500
vt 0.781250 0.312500
vt 0.734375 0.359375
vt 0.734375 0.312500
vt 0.750000 0.312500
vt 0.750000 0.359375
vt 0.765625 0.359375
vt 0.765625 0.312500
vt 0.781250 0.312500
vt 0.781250 0.359375
vt 0.796875 0.265625
vt 0.812500 0.265625
vt 0.734375 0.359375
vt 0.750000 0.359375
vt 0.765625 0.359375
vt 0.781250 0.359375
vt 0.765625 0.265625
vt 0.781250 0.265625
vt 0.781250 0.292969
vt 0.765625 0.296875
vt 0.750000 0.265625
vt 0.734375 0.265625
vt 0.734375 0.292969
vt 0.750000 0.296875
vt 0.796875 0.296875
vt 0.812500 0.292969
vt 0.812500 0.265625
vt 0.796875 0.265625
vt 0.765625 0.265625
vt 0.781250 0.265625
vt 0.781250 0.292969
vt 0.765625 0.296875
vt 0.812500 0.265625
vt 0.796875 0.265625
vt 0.796875 0.292969
vt 0.812500 0.296875
vt 0.734375 0.296875
vt 0.750000 0.292969
vt 0.750000 0.265625
vt 0.734375 0.265625
vt 0.781250 0.296875
vt 0.765625 0.292969
vt 0.765625 0.265625
vt 0.781250 0.265625
vt 0.781250 0.296875
vt 0.765625 0.292969
vt 0.765625 0.265625
vt 0.781250 0.265625
vt 0.781250 0.359375
vt 0.781250 0.312500
vt 0.765625 0.316406
vt 0.765625 0.355469
vt 0.812500 0.312500
vt 0.796875 0.316406
vt 0.796875 0.355469
vt 0.812500 0.359375
vt 0.734375 0.312500
vt 0.734375 0.359375
vt 0.750000 0.355469
vt 0.750000 0.316406
vt 0.781250 0.312500
vt 0.781250 0.359375
vt 0.765625 0.355469
vt 0.765625 0.316406
vt 0.750000 0.312500
vt 0.750000 0.296875
vt 0.765625 0.296875
vt 0.765625 0.312500
vt 0.781250 0.312500
vt 0.796875 0.312500
vt 0.765625 0.312500
vt 0.765625 0.296875
vt 0.750000 0.296875
vt 0.750000 0.312500
vt 0.796875 0.312500
vt 0.781250 0.312500
vt 0.578125 -0.000000
vt 0.687500 -0.000000
vt 0.687500 0.187500
vt 0.578125 0.187500
vt 1.000000 0.625000
vt 0.812500 0.625000
vt 0.812500 0.390625
vt 1.000000 0.390625
vt 0.812500 0.187500
vt 1.000000 0.187500
vt 1.000000 0.421875
vt 0.812500 0.421875
vt 0.859375 -0.000000
vt 0.859375 0.187500
vt 0.703125 0.187500
vt 0.703125 0.000000
vt 0.984375 -0.000000
vt 0.984375 0.187500
vt 0.875000 0.187500
vt 0.875000 -0.000000
vt 0.812500 0.625000
vt 0.875000 0.625000
vt 0.875000 0.515625
vt 0.812500 0.515625
vt 0.875000 0.500000
vt 0.812500 0.500000
vt 0.812500 0.390625
vt 0.875000 0.390625
vt 0.750000 0.500000
vt 0.687500 0.500000
vt 0.687500 0.390625
vt 0.750000 0.390625
vt 0.812500 0.500000
vt 0.875000 0.500000
vt 0.812500 0.625000
vt 0.875000 0.625000
vt 0.875000 0.515625
vt 0.812500 0.515625
vt 0.687500 0.515625
vt 0.750000 0.515625
vt 0.750000 0.625000
vt 0.687500 0.625000
vt 0.687500 0.500000
vt 0.750000 0.500000
vt 0.750000 0.625000
vt 0.687500 0.625000
vt 0.687500 0.515625
vt 0.750000 0.515625
vn 0.0000 0.0000 1.0000
vn -1.0000 0.0000 0.0000
vn -0.0000 0.0000 -1.0000
vn 1.0000 0.0000 0.0000
vn 0.0000 1.0000 0.0000
vn 0.0000 -1.0000 0.0000
usemtl MAIN
s off
f 50/90/13 51/91/13 53/92/13 52/93/13
f 53/94/14 71/95/14 62/96/14 52/97/14
f 56/98/15 57/99/15 55/100/15 54/101/15
f 54/101/16 55/100/16 51/102/16 50/103/16
f 57/104/17 70/105/17 67/106/17 55/107/17
f 52/108/18 56/109/18 54/110/18 50/111/18
f 90/112/13 91/113/13 87/114/13 77/115/13
f 90/116/14 59/117/14 61/118/14 92/119/14
f 60/120/15 84/121/15 79/122/15 61/123/15
f 57/104/14 56/124/14 65/125/14 70/105/14
f 71/95/15 66/126/15 68/127/15 64/128/15
f 56/124/14 52/97/14 62/96/14 65/125/14
f 51/129/17 55/107/17 67/106/17 66/126/17
f 53/94/17 51/129/17 66/126/17 71/95/17
f 66/126/14 67/106/14 69/130/14 68/131/14
f 65/132/17 62/133/17 73/134/17 72/135/17
f 67/106/13 70/105/13 63/136/13 69/137/13
f 70/105/13 65/125/13 72/138/13 63/136/13
f 62/96/15 71/95/15 64/128/15 73/139/15
f 102/140/16 100/141/16 113/142/16 115/143/16
f 86/144/18 76/145/18 88/146/18 80/147/18
f 59/148/13 90/112/13 77/115/13 76/145/13
f 92/149/15 61/123/15 79/122/15 78/150/15
f 93/151/15 92/149/15 78/150/15 85/152/15
f 84/153/18 86/144/18 80/154/18 75/155/18
f 87/114/17 85/156/17 74/157/17 81/158/17
f 79/122/18 84/121/18 75/159/18 83/160/18
f 78/150/16 79/122/16 83/161/16 82/162/16
f 91/113/16 93/163/16 85/156/16 87/114/16
f 85/152/17 78/150/17 82/164/17 74/165/17
f 58/166/16 86/144/16 84/153/16 60/167/16
f 76/145/16 77/115/16 89/168/16 88/169/16
f 58/166/13 59/148/13 76/145/13 86/144/13
f 77/115/17 87/114/17 81/170/17 89/171/17
f 90/172/18 92/173/18 93/174/18 91/175/18
f 112/176/18 114/177/18 115/143/18 113/142/18
f 101/178/14 103/179/14 114/180/14 112/181/14
f 103/179/15 102/182/15 115/183/15 114/180/15
f 100/141/13 101/184/13 112/185/13 113/142/13
f 116/186/13 117/187/13 119/188/13 118/189/13
f 118/190/14 119/191/14 123/192/14 122/193/14
f 122/194/15 123/195/15 121/196/15 120/197/15
f 120/198/16 121/199/16 117/200/16 116/201/16
f 151/202/17 140/203/17 127/204/17 125/205/17
f 139/206/18 144/207/18 124/208/18 126/209/18
f 132/210/13 125/211/13 127/212/13 133/213/13
f 134/214/15 131/215/15 129/216/15 135/217/15
f 156/218/16 151/202/16 125/205/16 132/219/16
f 152/220/14 143/221/14 131/222/14 134/223/14
f 138/224/14 154/225/14 153/226/14 137/227/14
f 146/228/16 158/229/16 157/230/16 145/231/16
f 126/232/13 124/233/13 132/210/13 133/213/13
f 136/234/14 152/220/14 134/223/14 130/235/14
f 128/236/15 130/237/15 134/214/15 135/217/15
f 144/238/16 156/218/16 132/219/16 124/239/16
f 147/240/16 128/241/16 135/242/16 159/243/16
f 133/244/14 127/245/14 140/246/14 155/247/14
f 155/247/14 140/246/14 141/248/14 154/225/14
f 154/225/14 141/248/14 142/249/14 153/226/14
f 153/226/14 142/249/14 143/221/14 152/220/14
f 135/242/16 129/250/16 148/251/16 159/243/16
f 159/243/16 148/251/16 149/252/16 158/229/16
f 158/229/16 149/252/16 150/253/16 157/230/16
f 157/230/16 150/253/16 151/202/16 156/218/16
f 130/254/18 128/255/18 147/256/18 136/257/18
f 137/258/18 146/259/18 145/260/18 138/261/18
f 139/262/14 126/263/14 133/244/14 155/247/14
f 129/250/17 131/264/17 143/265/17 148/251/17
f 148/251/17 143/265/17 142/266/17 149/252/17
f 149/252/17 142/266/17 141/267/17 150/253/17
f 150/253/17 141/267/17 140/203/17 151/202/17
f 157/268/13 166/269/13 163/270/13 145/271/13
f 159/272/13 167/273/13 164/274/13 147/275/13
f 144/276/15 162/277/15 165/278/15 156/279/15
f 153/280/15 173/281/15 169/282/15 137/283/15
f 155/284/15 175/285/15 171/286/15 139/287/15
f 136/288/13 168/289/13 172/290/13 152/291/13
f 138/292/13 170/293/13 174/294/13 154/295/13
f 146/296/15 176/297/15 177/298/15 158/299/15
f 146/300/15 137/301/15 169/302/15 176/303/15
f 139/304/15 171/305/15 162/306/15 144/307/15
f 136/308/13 147/309/13 164/310/13 168/311/13
f 138/312/13 145/313/13 163/314/13 170/315/13
f 152/316/18 172/317/18 173/318/18 153/319/18
f 154/225/18 174/320/18 175/321/18 155/247/18
f 158/322/18 177/323/18 167/324/18 159/325/18
f 156/218/18 165/326/18 166/327/18 157/230/18
usemtl CIRCUITRY
f 104/328/15 108/329/15 109/330/15 105/331/15
f 96/332/17 97/333/17 94/334/17 95/335/17
f 98/336/14 99/337/14 95/338/14 94/339/14
f 104/340/16 105/341/16 106/342/16 107/343/16
f 107/344/13 106/345/13 110/346/13 111/347/13
f 189/348/14 188/349/14 184/350/14 185/351/14
f 185/352/18 184/353/18 195/354/18 194/355/18
f 183/356/18 182/357/18 193/358/18 192/359/18
f 194/355/18 195/354/18 160/360/18 161/361/18
f 180/362/16 179/363/16 161/364/16 160/365/16
f 181/366/16 191/367/16 190/368/16 178/369/16
f 192/359/18 193/358/18 178/370/18 190/371/18
f 187/372/14 186/373/14 182/374/14 183/375/14
