# Blender v2.80 (sub 75) OBJ File: 'constructs.blend'
# www.blender.org
mtllib arm_caster_r.mtl
o ARM_RIGHT_CASTER.OBSVAR_Cube.335
v 0.378171 1.000000 0.157200
v 0.378171 1.312500 0.157200
v 0.690671 1.000000 0.157200
v 0.690671 1.312500 0.157200
v 0.378171 1.000000 -0.155300
v 0.378171 1.312500 -0.155300
v 0.690671 1.000000 -0.155300
v 0.690671 1.312500 -0.155300
v 0.440671 1.000000 0.094700
v 0.628171 1.000000 0.094700
v 0.440671 1.000000 -0.092800
v 0.628171 1.000000 -0.092800
v 0.690671 1.062500 0.094700
v 0.675046 1.296875 -0.092800
v 0.675046 1.296875 0.094700
v 0.690671 1.062500 -0.092800
v 0.440671 1.312500 0.094700
v 0.440671 1.312500 -0.092800
v 0.440671 1.296875 0.094700
v 0.440671 1.296875 -0.092800
v 0.690671 1.312500 -0.092800
v 0.690671 1.312500 0.094700
v 0.675046 1.062500 -0.092800
v 0.675046 1.062500 0.094700
v 0.456296 0.750000 -0.077175
v 0.456296 0.937500 -0.077175
v 0.565671 0.937500 0.094700
v 0.565671 0.750000 0.094700
v 0.565671 0.750000 -0.092800
v 0.565671 0.937500 -0.092800
v 0.456296 0.937500 0.079075
v 0.456296 0.750000 0.079075
v 0.565671 0.750000 -0.077175
v 0.565671 0.937500 -0.077175
v 0.440671 0.937500 -0.092800
v 0.440671 0.750000 -0.092800
v 0.440671 0.937500 0.094700
v 0.440671 0.750000 0.094700
v 0.565671 0.937500 0.079075
v 0.565671 0.750000 0.079075
v 0.628171 0.687500 0.094700
v 0.440671 0.687500 0.094700
v 0.628171 0.687500 -0.092800
v 0.440671 0.687500 -0.092800
v 0.675046 1.296875 -0.092800
v 0.675046 1.296875 0.094700
v 0.440671 1.296875 0.094700
v 0.440671 1.296875 -0.092800
v 0.675046 1.062500 -0.092800
v 0.675046 1.062500 0.094700
v 0.471921 0.687500 0.063450
v 0.596921 0.687500 0.063450
v 0.471921 0.687500 -0.061550
v 0.596921 0.687500 -0.061550
v 0.456296 0.750000 -0.077175
v 0.456296 0.937500 -0.077175
v 0.456296 0.937500 0.079075
v 0.456296 0.750000 0.079075
v 0.565671 0.750000 -0.077175
v 0.565671 0.937500 -0.077175
v 0.565671 0.937500 0.079075
v 0.565671 0.750000 0.079075
v 0.596921 0.625000 0.063450
v 0.471921 0.625000 0.063450
v 0.596921 0.625000 -0.061550
v 0.471921 0.625000 -0.061550
v 0.503171 0.593750 0.032200
v 0.503171 0.656250 0.032200
v 0.565671 0.593750 0.032200
v 0.565671 0.656250 0.032200
v 0.503171 0.593750 -0.030300
v 0.503171 0.656250 -0.030300
v 0.565671 0.593750 -0.030300
v 0.565671 0.656250 -0.030300
v 0.471921 0.468750 0.032200
v 0.471921 0.593750 0.032200
v 0.596921 0.468750 0.032200
v 0.596921 0.593750 0.032200
v 0.471921 0.468750 -0.030300
v 0.471921 0.593750 -0.030300
v 0.596921 0.468750 -0.030300
v 0.596921 0.593750 -0.030300
v 0.503171 0.500000 0.532200
v 0.503171 0.562500 0.532200
v 0.565671 0.500000 0.532200
v 0.565671 0.562500 0.532200
v 0.503171 0.500000 -0.280300
v 0.503171 0.562500 -0.280300
v 0.565671 0.500000 -0.280300
v 0.565671 0.562500 -0.280300
v 0.471921 0.468750 -0.280300
v 0.471921 0.593750 -0.280300
v 0.596921 0.468750 -0.280300
v 0.596921 0.593750 -0.280300
v 0.471921 0.468750 -0.342800
v 0.471921 0.593750 -0.342800
v 0.596921 0.468750 -0.342800
v 0.596921 0.593750 -0.342800
v 0.503171 0.500000 -0.342800
v 0.503171 0.562500 -0.342800
v 0.565671 0.500000 -0.342800
v 0.565671 0.562500 -0.342800
v 0.503171 0.500000 -0.467800
v 0.503171 0.562500 -0.467800
v 0.565671 0.500000 -0.467800
v 0.565671 0.562500 -0.467800
v 0.534421 0.531250 -0.530300
v 0.487546 0.484375 0.594700
v 0.487546 0.578125 0.594700
v 0.581296 0.484375 0.594700
v 0.581296 0.578125 0.594700
v 0.487546 0.484375 0.532200
v 0.487546 0.578125 0.532200
v 0.581296 0.484375 0.532200
v 0.581296 0.578125 0.532200
v 0.534421 0.531250 0.657200
v 0.503171 0.500000 0.594700
v 0.503171 0.562500 0.594700
v 0.565671 0.500000 0.594700
v 0.565671 0.562500 0.594700
v 0.565671 0.500000 -0.030300
v 0.565671 0.500000 0.032200
v 0.565671 0.562500 0.032200
v 0.565671 0.562500 -0.030300
v 0.503171 0.500000 0.032200
v 0.503171 0.500000 -0.030300
v 0.503171 0.562500 -0.030300
v 0.503171 0.562500 0.032200
vt 0.656250 0.281250
vt 0.734375 0.281250
vt 0.734375 0.359375
vt 0.656250 0.359375
vt 0.578125 0.203125
vt 0.578125 0.281250
vt 0.562500 0.265625
vt 0.562500 0.203125
vt 0.734375 0.281250
vt 0.656250 0.281250
vt 0.656250 0.359375
vt 0.734375 0.359375
vt 0.578125 0.281250
vt 0.578125 0.359375
vt 0.500000 0.203125
vt 0.500000 0.281250
vt 0.515625 0.265625
vt 0.515625 0.203125
vt 0.500000 0.281250
vt 0.500000 0.359375
vt 0.578125 0.359375
vt 0.578125 0.281250
vt 0.578125 0.203125
vt 0.593750 0.218750
vt 0.625000 0.218750
vt 0.625000 0.203125
vt 0.718750 0.203125
vt 0.671875 0.203125
vt 0.671875 0.281250
vt 0.718750 0.281250
vt 0.625000 0.281250
vt 0.578125 0.281250
vt 0.593750 0.265625
vt 0.625000 0.265625
vt 0.515625 0.265625
vt 0.500000 0.281250
vt 0.546875 0.207031
vt 0.546875 0.265625
vt 0.562500 0.265625
vt 0.578125 0.281250
vt 0.562500 0.250000
vt 0.515625 0.250000
vt 0.562500 0.265625
vt 0.562500 0.250000
vt 0.515625 0.250000
vt 0.515625 0.265625
vt 0.531250 0.265625
vt 0.531250 0.207031
vt 0.531250 0.265625
vt 0.546875 0.265625
vt 0.562500 0.453125
vt 0.562500 0.437500
vt 0.531250 0.437500
vt 0.531250 0.453125
vt 0.625000 0.265625
vt 0.621094 0.250000
vt 0.593750 0.250000
vt 0.593750 0.265625
vt 0.578125 0.281250
vt 0.578125 0.203125
vt 0.593750 0.218750
vt 0.625000 0.203125
vt 0.625000 0.218750
vt 0.671875 0.265625
vt 0.667969 0.250000
vt 0.628906 0.250000
vt 0.628906 0.234375
vt 0.667969 0.234375
vt 0.671875 0.218750
vt 0.593750 0.250000
vt 0.621094 0.250000
vt 0.609375 0.218750
vt 0.609375 0.265625
vt 0.671875 0.203125
vt 0.621094 0.234375
vt 0.593750 0.234375
vt 0.625000 0.281250
vt 0.671875 0.281250
vt 0.609375 0.265625
vt 0.609375 0.218750
vt 0.593750 0.234375
vt 0.621094 0.234375
vt 0.718750 0.218750
vt 0.718750 0.265625
vt 0.765625 0.265625
vt 0.765625 0.218750
vt 0.531250 0.406250
vt 0.562500 0.406250
vt 0.531250 0.406250
vt 0.531250 0.390625
vt 0.562500 0.390625
vt 0.562500 0.406250
vt 0.531250 0.390625
vt 0.531250 0.406250
vt 0.562500 0.437500
vt 0.562500 0.453125
vt 0.500000 0.031250
vt 0.500000 0.046875
vt 0.515625 0.046875
vt 0.515625 0.031250
vt 0.500000 0.015625
vt 0.500000 0.031250
vt 0.515625 0.031250
vt 0.515625 0.015625
vt 0.500000 0.046875
vt 0.515625 0.046875
vt 0.500000 0.015625
vt 0.515625 0.015625
vt 0.531250 0.406250
vt 0.562500 0.406250
vt 0.562500 0.437500
vt 0.531250 0.437500
vt 0.562500 0.390625
vt 0.562500 0.406250
vt 0.531250 0.406250
vt 0.531250 0.390625
vt 0.531250 0.406250
vt 0.531250 0.437500
vt 0.562500 0.437500
vt 0.562500 0.453125
vt 0.562500 0.437500
vt 0.531250 0.453125
vt 0.531250 0.390625
vt 0.562500 0.453125
vt 0.531250 0.406250
vt 0.562500 0.406250
vt 0.562500 0.437500
vt 0.531250 0.437500
vt 0.562500 0.390625
vt 0.562500 0.406250
vt 0.531250 0.406250
vt 0.531250 0.390625
vt 0.531250 0.406250
vt 0.531250 0.437500
vt 0.562500 0.437500
vt 0.562500 0.453125
vt 0.562500 0.437500
vt 0.531250 0.453125
vt 0.531250 0.390625
vt 0.562500 0.453125
vt 0.531250 0.406250
vt 0.562500 0.406250
vt 0.562500 0.437500
vt 0.531250 0.437500
vt 0.562500 0.390625
vt 0.531250 0.390625
vt 0.531250 0.406250
vt 0.562500 0.406250
vt 0.531250 0.406250
vt 0.531250 0.437500
vt 0.562500 0.437500
vt 0.562500 0.437500
vt 0.562500 0.453125
vt 0.531250 0.453125
vt 0.562500 0.390625
vt 0.531250 0.390625
vt 0.562500 0.453125
vt 0.531250 0.453125
vt 0.531250 0.359375
vt 0.531250 0.375000
vt 0.593750 0.375000
vt 0.593750 0.359375
vt 0.500000 0.359375
vt 0.500000 0.375000
vt 0.625000 0.375000
vt 0.625000 0.359375
vt 0.625000 0.359375
vt 0.625000 0.375000
vt 0.500000 0.375000
vt 0.500000 0.359375
vt 0.593750 0.359375
vt 0.593750 0.375000
vt 0.531250 0.375000
vt 0.531250 0.359375
vt 0.531250 0.359375
vt 0.593750 0.359375
vt 0.500000 0.359375
vt 0.625000 0.359375
vt 0.500000 0.375000
vt 0.625000 0.375000
vt 0.531250 0.375000
vt 0.593750 0.375000
vt 0.578125 -0.000000
vt 0.578125 0.187500
vt 0.687500 0.187500
vt 0.687500 -0.000000
vt 1.000000 0.625000
vt 1.000000 0.390625
vt 0.812500 0.390625
vt 0.812500 0.625000
vt 0.812500 0.187500
vt 0.812500 0.421875
vt 1.000000 0.421875
vt 1.000000 0.187500
vt 0.859375 -0.000000
vt 0.703125 0.000000
vt 0.703125 0.187500
vt 0.859375 0.187500
vt 0.984375 -0.000000
vt 0.875000 -0.000000
vt 0.875000 0.187500
vt 0.984375 0.187500
vt 0.125000 0.062500
vt 0.125000 0.187500
vt 0.187500 0.187500
vt 0.187500 0.062500
vt 0.187500 0.250000
vt 0.125000 0.187500
vt 0.125000 0.062500
vt 0.187500 0.062500
vt 0.187500 0.187500
vt 0.125000 0.250000
vt 0.187500 0.250000
vt 0.187500 0.375000
vt 0.125000 0.375000
vt 0.125000 0.375000
vt 0.187500 0.375000
vt 0.187500 0.250000
vt 0.125000 0.250000
vt 0.187500 0.437500
vt 0.187500 0.250000
vt 0.125000 0.187500
vt 0.187500 0.187500
vt 0.125000 0.187500
vt 0.187500 0.187500
vt 0.187500 0.437500
vt 0.125000 0.375000
vt 0.187500 0.375000
vt 0.187500 0.375000
vt 0.125000 0.375000
vn 0.0000 0.0000 1.0000
vn 1.0000 0.0000 0.0000
vn -0.0000 0.0000 -1.0000
vn -1.0000 0.0000 0.0000
vn 0.0000 1.0000 0.0000
vn 0.0000 -1.0000 0.0000
vn 0.8944 0.0000 -0.4472
vn -0.8944 0.0000 -0.4472
vn 0.0000 -0.8944 -0.4472
vn 0.0000 0.8944 -0.4472
vn 0.8944 0.0000 0.4472
vn -0.8944 0.0000 0.4472
vn 0.0000 -0.8944 0.4472
vn 0.0000 0.8944 0.4472
usemtl MAIN
s off
f 1/1/1 3/2/1 4/3/1 2/4/1
f 4/5/2 3/6/2 13/7/2 22/8/2
f 7/9/3 5/10/3 6/11/3 8/12/3
f 5/10/4 1/13/4 2/14/4 6/11/4
f 8/15/5 6/16/5 18/17/5 21/18/5
f 3/19/6 1/20/6 5/21/6 7/22/6
f 41/23/1 28/24/1 38/25/1 42/26/1
f 41/27/2 43/28/2 12/29/2 10/30/2
f 11/31/3 12/32/3 30/33/3 35/34/3
f 8/15/2 21/18/2 16/35/2 7/36/2
f 22/8/3 15/37/3 19/38/3 17/39/3
f 7/36/2 16/35/2 13/7/2 3/6/2
f 2/40/5 17/39/5 18/17/5 6/16/5
f 4/5/5 22/8/5 17/39/5 2/40/5
f 17/39/2 19/41/2 20/42/2 18/17/2
f 16/43/5 23/44/5 24/45/5 13/46/5
f 18/17/1 20/47/1 14/48/1 21/18/1
f 21/18/1 14/48/1 23/49/1 16/35/1
f 13/7/3 24/50/3 15/37/3 22/8/3
f 53/51/4 66/52/4 64/53/4 51/54/4
f 37/55/6 31/56/6 39/57/6 27/58/6
f 10/59/1 27/58/1 28/24/1 41/23/1
f 43/60/3 29/61/3 30/33/3 12/32/3
f 44/62/3 36/63/3 29/61/3 43/60/3
f 35/64/6 26/65/6 31/66/6 37/55/6
f 38/25/5 32/67/5 25/68/5 36/69/5
f 30/33/6 34/70/6 26/71/6 35/34/6
f 29/61/4 33/72/4 34/73/4 30/33/4
f 42/26/4 38/25/4 36/69/4 44/74/4
f 36/63/5 25/75/5 33/76/5 29/61/5
f 9/77/4 11/78/4 35/64/4 37/55/4
f 27/58/4 39/79/4 40/80/4 28/24/4
f 9/77/1 37/55/1 27/58/1 10/59/1
f 28/24/5 40/81/5 32/82/5 38/25/5
f 41/83/6 42/84/6 44/85/6 43/86/6
f 63/87/6 64/53/6 66/52/6 65/88/6
f 52/89/2 63/90/2 65/91/2 54/92/2
f 54/92/3 65/91/3 66/93/3 53/94/3
f 51/54/1 64/53/1 63/95/1 52/96/1
f 67/97/1 69/98/1 70/99/1 68/100/1
f 69/101/2 73/102/2 74/103/2 70/104/2
f 73/102/3 71/105/3 72/106/3 74/103/3
f 71/107/4 67/97/4 68/100/4 72/108/4
f 75/109/1 77/110/1 78/111/1 76/112/1
f 77/113/2 81/114/2 82/115/2 78/116/2
f 81/114/3 79/117/3 80/118/3 82/119/3
f 79/120/4 75/121/4 76/112/4 80/122/4
f 77/113/6 75/123/6 79/117/6 81/114/6
f 82/124/5 80/122/5 76/112/5 78/111/5
f 91/125/1 93/126/1 94/127/1 92/128/1
f 93/129/2 97/130/2 98/131/2 94/132/2
f 97/130/3 95/133/3 96/134/3 98/135/3
f 95/136/4 91/137/4 92/128/4 96/138/4
f 93/129/6 91/139/6 95/133/6 97/130/6
f 98/140/5 96/138/5 92/128/5 94/127/5
f 108/141/1 110/142/1 111/143/1 109/144/1
f 110/142/2 114/145/2 115/146/2 111/147/2
f 114/148/3 112/149/3 113/150/3 115/151/3
f 112/152/4 108/153/4 109/154/4 113/150/4
f 110/155/6 108/156/6 112/149/6 114/148/6
f 115/157/5 113/158/5 109/144/5 111/143/5
f 90/159/5 88/160/5 127/161/5 124/162/5
f 123/163/5 128/164/5 84/165/5 86/166/5
f 85/167/6 83/168/6 125/169/6 122/170/6
f 121/171/6 126/172/6 87/173/6 89/174/6
f 87/175/4 126/176/4 127/161/4 88/160/4
f 125/177/4 83/178/4 84/165/4 128/164/4
f 85/167/2 122/170/2 123/179/2 86/180/2
f 121/171/2 89/174/2 90/181/2 124/182/2
usemtl CIRCUITRY
f 55/183/3 56/184/3 60/185/3 59/186/3
f 47/187/5 46/188/5 45/189/5 48/190/5
f 49/191/2 45/192/2 46/193/2 50/194/2
f 55/195/4 58/196/4 57/197/4 56/198/4
f 58/199/1 62/200/1 61/201/1 57/202/1
usemtl CHIMERITE
f 101/203/2 105/204/2 106/205/2 102/206/2
f 105/204/7 107/207/7 106/205/7
f 103/208/4 99/209/4 100/210/4 104/211/4
f 101/212/6 99/213/6 103/214/6 105/215/6
f 106/216/5 104/217/5 100/218/5 102/219/5
f 104/211/8 107/207/8 103/208/8
f 103/214/9 107/220/9 105/215/9
f 106/216/10 107/220/10 104/217/10
f 116/221/11 119/222/11 120/223/11
f 117/224/12 116/221/12 118/225/12
f 116/226/13 117/227/13 119/228/13
f 120/229/14 118/230/14 116/226/14
