# Blender v2.80 (sub 75) OBJ File: 'constructs.blend'
# www.blender.org
mtllib arm_nozzle_r.mtl
o ARM_RIGHT_NOZZLE.OBSVAR_Cube.332
v 0.375000 1.000000 0.156250
v 0.375000 1.312500 0.156250
v 0.687500 1.000000 0.156250
v 0.687500 1.312500 0.156250
v 0.375000 1.000000 -0.156250
v 0.375000 1.312500 -0.156250
v 0.687500 1.000000 -0.156250
v 0.687500 1.312500 -0.156250
v 0.437500 1.000000 0.093750
v 0.625000 1.000000 0.093750
v 0.437500 1.000000 -0.093750
v 0.625000 1.000000 -0.093750
v 0.687500 1.062500 0.093750
v 0.671875 1.296875 -0.093750
v 0.671875 1.296875 0.093750
v 0.687500 1.062500 -0.093750
v 0.437500 1.312500 0.093750
v 0.437500 1.312500 -0.093750
v 0.437500 1.296875 0.093750
v 0.437500 1.296875 -0.093750
v 0.687500 1.312500 -0.093750
v 0.687500 1.312500 0.093750
v 0.671875 1.062500 -0.093750
v 0.671875 1.062500 0.093750
v 0.453125 0.750000 -0.078125
v 0.453125 0.937500 -0.078125
v 0.562500 0.937500 0.093750
v 0.562500 0.750000 0.093750
v 0.562500 0.750000 -0.093750
v 0.562500 0.937500 -0.093750
v 0.453125 0.937500 0.078125
v 0.453125 0.750000 0.078125
v 0.562500 0.750000 -0.078125
v 0.562500 0.937500 -0.078125
v 0.437500 0.937500 -0.093750
v 0.437500 0.750000 -0.093750
v 0.437500 0.937500 0.093750
v 0.437500 0.750000 0.093750
v 0.562500 0.937500 0.078125
v 0.562500 0.750000 0.078125
v 0.625000 0.687500 0.093750
v 0.437500 0.687500 0.093750
v 0.625000 0.687500 -0.093750
v 0.437500 0.687500 -0.093750
v 0.671875 1.296875 -0.093750
v 0.671875 1.296875 0.093750
v 0.437500 1.296875 0.093750
v 0.437500 1.296875 -0.093750
v 0.671875 1.062500 -0.093750
v 0.671875 1.062500 0.093750
v 0.468750 0.687500 0.062500
v 0.593750 0.687500 0.062500
v 0.468750 0.687500 -0.062500
v 0.593750 0.687500 -0.062500
v 0.453125 0.750000 -0.078125
v 0.453125 0.937500 -0.078125
v 0.453125 0.937500 0.078125
v 0.453125 0.750000 0.078125
v 0.562500 0.750000 -0.078125
v 0.562500 0.937500 -0.078125
v 0.562500 0.937500 0.078125
v 0.562500 0.750000 0.078125
v 0.593750 0.625000 0.062500
v 0.468750 0.625000 0.062500
v 0.593750 0.625000 -0.062500
v 0.468750 0.625000 -0.062500
v 0.500000 0.593750 0.031250
v 0.500000 0.656250 0.031250
v 0.562500 0.593750 0.031250
v 0.562500 0.656250 0.031250
v 0.500000 0.593750 -0.031250
v 0.500000 0.656250 -0.031250
v 0.562500 0.593750 -0.031250
v 0.562500 0.656250 -0.031250
v 0.500000 0.343750 0.031250
v 0.468750 0.593750 0.062500
v 0.562500 0.343750 0.031250
v 0.593750 0.593750 0.062500
v 0.500000 0.343750 -0.031250
v 0.468750 0.593750 -0.062500
v 0.562500 0.343750 -0.031250
v 0.593750 0.593750 -0.062500
v 0.593750 0.343750 0.062500
v 0.468750 0.343750 0.062500
v 0.593750 0.343750 -0.062500
v 0.468750 0.343750 -0.062500
v 0.531250 0.406250 -0.000000
v 0.656250 0.468750 0.031250
v 0.593750 0.531250 0.031250
v 0.593750 0.468750 0.031250
v 0.656250 0.531250 0.031250
v 0.593750 0.468750 -0.031250
v 0.593750 0.531250 -0.031250
v 0.656250 0.468750 -0.031250
v 0.656250 0.531250 -0.031250
vt 0.656250 0.281250
vt 0.734375 0.281250
vt 0.734375 0.359375
vt 0.656250 0.359375
vt 0.578125 0.203125
vt 0.578125 0.281250
vt 0.562500 0.265625
vt 0.562500 0.203125
vt 0.734375 0.281250
vt 0.656250 0.281250
vt 0.656250 0.359375
vt 0.734375 0.359375
vt 0.578125 0.281250
vt 0.578125 0.359375
vt 0.500000 0.203125
vt 0.500000 0.281250
vt 0.515625 0.265625
vt 0.515625 0.203125
vt 0.500000 0.281250
vt 0.500000 0.359375
vt 0.578125 0.359375
vt 0.578125 0.281250
vt 0.578125 0.203125
vt 0.593750 0.218750
vt 0.625000 0.218750
vt 0.625000 0.203125
vt 0.718750 0.203125
vt 0.671875 0.203125
vt 0.671875 0.281250
vt 0.718750 0.281250
vt 0.625000 0.281250
vt 0.578125 0.281250
vt 0.593750 0.265625
vt 0.625000 0.265625
vt 0.515625 0.265625
vt 0.500000 0.281250
vt 0.546875 0.207031
vt 0.546875 0.265625
vt 0.562500 0.265625
vt 0.578125 0.281250
vt 0.562500 0.250000
vt 0.515625 0.250000
vt 0.562500 0.265625
vt 0.562500 0.250000
vt 0.515625 0.250000
vt 0.515625 0.265625
vt 0.531250 0.265625
vt 0.531250 0.207031
vt 0.531250 0.265625
vt 0.546875 0.265625
vt 0.562500 0.453125
vt 0.562500 0.437500
vt 0.531250 0.437500
vt 0.531250 0.453125
vt 0.625000 0.265625
vt 0.621094 0.250000
vt 0.593750 0.250000
vt 0.593750 0.265625
vt 0.578125 0.281250
vt 0.578125 0.203125
vt 0.593750 0.218750
vt 0.625000 0.203125
vt 0.625000 0.218750
vt 0.671875 0.265625
vt 0.667969 0.250000
vt 0.628906 0.250000
vt 0.628906 0.234375
vt 0.667969 0.234375
vt 0.671875 0.218750
vt 0.593750 0.250000
vt 0.621094 0.250000
vt 0.609375 0.218750
vt 0.609375 0.265625
vt 0.671875 0.203125
vt 0.621094 0.234375
vt 0.593750 0.234375
vt 0.625000 0.281250
vt 0.671875 0.281250
vt 0.609375 0.265625
vt 0.609375 0.218750
vt 0.593750 0.234375
vt 0.621094 0.234375
vt 0.718750 0.218750
vt 0.718750 0.265625
vt 0.765625 0.265625
vt 0.765625 0.218750
vt 0.531250 0.406250
vt 0.562500 0.406250
vt 0.531250 0.406250
vt 0.531250 0.390625
vt 0.562500 0.390625
vt 0.562500 0.406250
vt 0.531250 0.390625
vt 0.531250 0.406250
vt 0.562500 0.437500
vt 0.562500 0.453125
vt 0.828125 0.156250
vt 0.828125 0.171875
vt 0.843750 0.171875
vt 0.843750 0.156250
vt 0.812500 0.156250
vt 0.812500 0.171875
vt 0.828125 0.171875
vt 0.828125 0.156250
vt 0.828125 0.156250
vt 0.828125 0.171875
vt 0.843750 0.171875
vt 0.843750 0.156250
vt 0.812500 0.156250
vt 0.812500 0.171875
vt 0.828125 0.171875
vt 0.828125 0.156250
vt 0.718750 0.187500
vt 0.718750 0.156250
vt 0.781250 0.156250
vt 0.781250 0.187500
vt 0.718750 0.187500
vt 0.718750 0.203125
vt 0.781250 0.203125
vt 0.781250 0.187500
vt 0.718750 0.156250
vt 0.718750 0.187500
vt 0.781250 0.187500
vt 0.781250 0.156250
vt 0.718750 0.203125
vt 0.718750 0.218750
vt 0.781250 0.218750
vt 0.781250 0.203125
vt 0.812500 0.156250
vt 0.812500 0.187500
vt 0.789062 0.210938
vt 0.781250 0.218750
vt 0.812500 0.218750
vt 0.804688 0.210938
vt 0.789062 0.195312
vt 0.781250 0.187500
vt 0.804688 0.195312
vt 0.812500 0.187500
vt 0.546875 0.390625
vt 0.546875 0.406250
vt 0.562500 0.406250
vt 0.562500 0.390625
vt 0.546875 0.406250
vt 0.546875 0.421875
vt 0.562500 0.421875
vt 0.562500 0.406250
vt 0.546875 0.421875
vt 0.562500 0.421875
vt 0.531250 0.421875
vt 0.531250 0.406250
vt 0.546875 0.406250
vt 0.546875 0.421875
vt 0.531250 0.406250
vt 0.531250 0.421875
vt 0.578125 -0.000000
vt 0.578125 0.187500
vt 0.687500 0.187500
vt 0.687500 -0.000000
vt 1.000000 0.625000
vt 1.000000 0.390625
vt 0.812500 0.390625
vt 0.812500 0.625000
vt 0.812500 0.187500
vt 0.812500 0.421875
vt 1.000000 0.421875
vt 1.000000 0.187500
vt 0.859375 -0.000000
vt 0.703125 0.000000
vt 0.703125 0.187500
vt 0.859375 0.187500
vt 0.984375 -0.000000
vt 0.875000 -0.000000
vt 0.875000 0.187500
vt 0.984375 0.187500
vt 0.546875 0.093750
vt 0.531250 0.078125
vt 0.531250 0.093750
vt 0.531250 0.078125
vt 0.546875 0.093750
vt 0.546875 0.078125
vt 0.546875 0.078125
vt 0.531250 0.093750
vn 0.0000 0.0000 1.0000
vn 1.0000 0.0000 0.0000
vn -0.0000 0.0000 -1.0000
vn -1.0000 0.0000 0.0000
vn 0.0000 1.0000 0.0000
vn 0.0000 -1.0000 0.0000
vn 0.0000 -0.4472 0.8944
vn -0.0000 -0.4472 -0.8944
vn 0.8944 -0.4472 0.0000
vn -0.8944 -0.4472 0.0000
usemtl MAIN
s off
f 1/1/1 3/2/1 4/3/1 2/4/1
f 4/5/2 3/6/2 13/7/2 22/8/2
f 7/9/3 5/10/3 6/11/3 8/12/3
f 5/10/4 1/13/4 2/14/4 6/11/4
f 8/15/5 6/16/5 18/17/5 21/18/5
f 3/19/6 1/20/6 5/21/6 7/22/6
f 41/23/1 28/24/1 38/25/1 42/26/1
f 41/27/2 43/28/2 12/29/2 10/30/2
f 11/31/3 12/32/3 30/33/3 35/34/3
f 8/15/2 21/18/2 16/35/2 7/36/2
f 22/8/3 15/37/3 19/38/3 17/39/3
f 7/36/2 16/35/2 13/7/2 3/6/2
f 2/40/5 17/39/5 18/17/5 6/16/5
f 4/5/5 22/8/5 17/39/5 2/40/5
f 17/39/2 19/41/2 20/42/2 18/17/2
f 16/43/5 23/44/5 24/45/5 13/46/5
f 18/17/1 20/47/1 14/48/1 21/18/1
f 21/18/1 14/48/1 23/49/1 16/35/1
f 13/7/3 24/50/3 15/37/3 22/8/3
f 53/51/4 66/52/4 64/53/4 51/54/4
f 37/55/6 31/56/6 39/57/6 27/58/6
f 10/59/1 27/58/1 28/24/1 41/23/1
f 43/60/3 29/61/3 30/33/3 12/32/3
f 44/62/3 36/63/3 29/61/3 43/60/3
f 35/64/6 26/65/6 31/66/6 37/55/6
f 38/25/5 32/67/5 25/68/5 36/69/5
f 30/33/6 34/70/6 26/71/6 35/34/6
f 29/61/4 33/72/4 34/73/4 30/33/4
f 42/26/4 38/25/4 36/69/4 44/74/4
f 36/63/5 25/75/5 33/76/5 29/61/5
f 9/77/4 11/78/4 35/64/4 37/55/4
f 27/58/4 39/79/4 40/80/4 28/24/4
f 9/77/1 37/55/1 27/58/1 10/59/1
f 28/24/5 40/81/5 32/82/5 38/25/5
f 41/83/6 42/84/6 44/85/6 43/86/6
f 63/87/6 64/53/6 66/52/6 65/88/6
f 52/89/2 63/90/2 65/91/2 54/92/2
f 54/92/3 65/91/3 66/93/3 53/94/3
f 51/54/1 64/53/1 63/95/1 52/96/1
f 67/97/1 69/98/1 70/99/1 68/100/1
f 69/101/2 73/102/2 74/103/2 70/104/2
f 73/105/3 71/106/3 72/107/3 74/108/3
f 71/109/4 67/110/4 68/111/4 72/112/4
f 84/113/1 83/114/1 78/115/1 76/116/1
f 83/117/2 85/118/2 82/119/2 78/120/2
f 85/121/3 86/122/3 80/123/3 82/124/3
f 86/125/4 84/126/4 76/127/4 80/128/4
f 78/120/5 82/124/5 80/129/5 76/130/5
f 77/131/6 83/132/6 84/133/6 75/134/6
f 81/135/6 85/136/6 83/132/6 77/131/6
f 79/137/6 86/138/6 85/136/6 81/135/6
f 75/134/6 84/133/6 86/138/6 79/137/6
f 88/139/2 94/140/2 95/141/2 91/142/2
f 90/143/1 88/144/1 91/145/1 89/146/1
f 94/140/3 92/147/3 93/148/3 95/141/3
f 95/149/5 93/150/5 89/151/5 91/152/5
f 88/153/6 90/154/6 92/147/6 94/140/6
usemtl CIRCUITRY
f 55/155/3 56/156/3 60/157/3 59/158/3
f 47/159/5 46/160/5 45/161/5 48/162/5
f 49/163/2 45/164/2 46/165/2 50/166/2
f 55/167/4 58/168/4 57/169/4 56/170/4
f 58/171/1 62/172/1 61/173/1 57/174/1
f 81/175/7 87/176/7 79/177/7
f 75/178/8 87/179/8 77/180/8
f 79/177/9 87/181/9 75/178/9
f 77/180/10 87/182/10 81/175/10
