# Blender v2.80 (sub 75) OBJ File: 'constructs.blend'
# www.blender.org
mtllib leg_ender_front_l.mtl
o LEG_ENDER_LEFTFRONT.OBSVAR_Cube.382
v -0.187500 0.528185 -0.213441
v -0.250000 0.707312 -0.028185
v -0.375000 0.528185 -0.213441
v -0.312500 0.707312 -0.028185
v -0.187500 0.690565 -0.307191
v -0.250000 0.761438 -0.059435
v -0.375000 0.690565 -0.307191
v -0.312500 0.761438 -0.059435
v -0.187500 0.621935 -0.051062
v -0.375000 0.621935 -0.051062
v -0.375000 0.784315 -0.144812
v -0.187500 0.784315 -0.144812
v -0.218750 0.415416 -0.258015
v -0.343750 0.415416 -0.258015
v -0.218750 0.450775 -0.377910
v -0.343750 0.450775 -0.377910
v -0.218750 0.655206 -0.187297
v -0.343750 0.655206 -0.187297
v -0.343750 0.690565 -0.307191
v -0.218750 0.690565 -0.307191
v -0.312500 0.322041 -0.383295
v -0.312500 0.304361 -0.323347
v -0.250000 0.304361 -0.323347
v -0.250000 0.322041 -0.383295
v -0.250000 0.064572 -0.394065
v -0.250000 0.082252 -0.454013
v -0.312500 0.082252 -0.454013
v -0.312500 0.064572 -0.394065
v -0.281250 0.000362 -0.445583
v -0.375000 0.590685 -0.105188
v -0.375000 0.559435 -0.159315
v -0.375000 0.753065 -0.198938
v -0.375000 0.721815 -0.253065
v -0.250000 0.739533 -0.191126
v -0.250000 0.708283 -0.245252
v -0.359375 0.708283 -0.245252
v -0.359375 0.739533 -0.191126
v -0.359375 0.572967 -0.167127
v -0.359375 0.604217 -0.113001
v -0.250000 0.721815 -0.253065
v -0.250000 0.753065 -0.198938
v -0.250000 0.559435 -0.159315
v -0.250000 0.590685 -0.105188
v -0.250000 0.572967 -0.167127
v -0.250000 0.604217 -0.113001
vt 0.921875 0.390625
vt 0.917969 0.375000
vt 0.878906 0.375000
vt 0.875000 0.390625
vt 0.890625 0.390625
vt 0.906250 0.390625
vt 0.906250 0.375000
vt 0.890625 0.375000
vt 0.875000 0.234375
vt 0.875000 0.296875
vt 0.843750 0.296875
vt 0.843750 0.234375
vt 0.812500 0.234375
vt 0.812500 0.296875
vt 0.843750 0.296875
vt 0.843750 0.234375
vt 0.875000 0.234375
vt 0.875000 0.296875
vt 0.843750 0.296875
vt 0.843750 0.234375
vt 0.812500 0.234375
vt 0.812500 0.296875
vt 0.843750 0.296875
vt 0.843750 0.234375
vt 0.812500 0.234375
vt 0.820312 0.203125
vt 0.835938 0.203125
vt 0.851562 0.203125
vt 0.867188 0.203125
vt 0.835938 0.203125
vt 0.820312 0.203125
vt 0.851562 0.203125
vt 0.867188 0.203125
vt 0.906250 0.265625
vt 0.890625 0.265625
vt 0.890625 0.203125
vt 0.906250 0.203125
vt 0.921875 0.203125
vt 0.906250 0.203125
vt 0.906250 0.187500
vt 0.906250 0.265625
vt 0.921875 0.265625
vt 0.921875 0.203125
vt 0.906250 0.203125
vt 0.921875 0.265625
vt 0.921875 0.203125
vt 0.890625 0.265625
vt 0.906250 0.265625
vt 0.906250 0.203125
vt 0.890625 0.203125
vt 0.921875 0.203125
vt 0.890625 0.187500
vt 0.875000 0.359375
vt 0.875000 0.406250
vt 0.921875 0.406250
vt 0.921875 0.359375
vt 0.890625 0.390625
vt 0.921875 0.406250
vt 0.875000 0.406250
vt 0.890625 0.375000
vt 0.906250 0.390625
vt 0.906250 0.375000
vt 0.921875 0.312500
vt 0.906250 0.296875
vt 0.906250 0.281250
vt 0.921875 0.265625
vt 0.875000 0.265625
vt 0.890625 0.281250
vt 0.890625 0.296875
vt 0.875000 0.312500
vt 0.921875 0.375000
vt 0.921875 0.359375
vt 0.875000 0.359375
vt 0.875000 0.375000
vt 0.875000 0.375000
vt 0.878906 0.390625
vt 0.906250 0.375000
vt 0.875000 0.390625
vt 0.878906 0.375000
vt 0.917969 0.375000
vt 0.921875 0.390625
vt 0.921875 0.406250
vt 0.917969 0.390625
vt 0.890625 0.390625
vt 0.890625 0.406250
vt 0.875000 0.359375
vt 0.875000 0.312500
vt 0.921875 0.312500
vt 0.921875 0.359375
vt 0.906250 0.390625
vt 0.878906 0.390625
vt 0.906250 0.375000
vt 0.890625 0.375000
vt 0.890625 0.390625
vt 0.906250 0.390625
vt 0.890625 0.406250
vt 0.917969 0.390625
vt 0.921875 0.406250
vt 0.437500 0.296875
vt 0.375000 0.296875
vt 0.375000 0.187500
vt 0.437500 0.187500
vt 0.437500 0.484375
vt 0.375000 0.484375
vt 0.375000 0.328125
vt 0.437500 0.328125
vt 0.437500 0.625000
vt 0.375000 0.625000
vt 0.375000 0.515625
vt 0.437500 0.515625
vn 0.0000 0.5000 0.8660
vn -1.0000 0.0000 0.0000
vn 0.0000 -0.2829 0.9592
vn 0.0000 0.2829 -0.9592
vn 1.0000 0.0000 -0.0000
vn 0.9701 -0.2326 -0.0686
vn 0.0000 0.0418 -0.9991
vn -0.9701 -0.2326 -0.0686
vn 0.0000 -0.5071 0.8619
vn 0.0000 -0.1024 -0.9947
vn 0.0000 -0.6258 0.7800
vn 0.9251 -0.3641 -0.1074
vn -0.9251 -0.3641 -0.1074
vn 0.0000 -0.8660 0.5000
vn 0.0000 0.8660 -0.5000
vn 0.7071 0.3536 0.6124
vn -0.7071 0.3536 0.6124
vn 0.0000 -0.5000 -0.8660
vn 0.0000 0.9659 0.2588
vn 0.0000 -0.2588 0.9659
usemtl MAIN
s off
f 31/1/1 38/2/1 36/3/1 33/4/1
f 40/5/2 35/6/2 34/7/2 41/8/2
f 13/9/3 17/10/3 18/11/3 14/12/3
f 14/13/2 18/14/2 19/15/2 16/16/2
f 16/17/4 19/18/4 20/19/4 15/20/4
f 15/21/5 20/22/5 17/23/5 13/24/5
f 15/20/6 13/25/6 23/26/6 24/27/6
f 16/17/7 15/20/7 24/28/7 21/29/7
f 14/13/8 16/16/8 21/30/8 22/31/8
f 13/9/9 14/12/9 22/32/9 23/33/9
f 22/34/2 21/35/2 27/36/2 28/37/2
f 27/38/10 26/39/10 29/40/10
f 21/41/4 24/42/4 26/43/4 27/44/4
f 23/45/3 22/34/3 28/37/3 25/46/3
f 24/47/5 23/48/5 25/49/5 26/50/5
f 25/49/11 28/51/11 29/40/11
f 26/50/12 25/49/12 29/52/12
f 28/37/13 27/36/13 29/52/13
f 9/53/5 1/54/5 5/55/5 12/56/5
f 1/54/14 42/57/14 31/1/14 3/58/14
f 3/58/2 31/1/2 33/4/2 7/59/2
f 42/57/14 1/54/14 9/53/14 43/60/14
f 12/56/15 5/55/15 40/61/15 41/62/15
f 12/63/16 6/64/16 2/65/16 9/66/16
f 10/67/17 4/68/17 8/69/17 11/70/17
f 30/71/2 10/72/2 11/73/2 32/74/2
f 33/75/1 36/76/1 35/6/1 40/77/1
f 32/78/18 37/79/18 39/80/18 30/81/18
f 8/69/1 4/68/1 2/65/1 6/64/1
f 30/82/18 39/83/18 45/84/18 43/85/18
f 7/59/15 33/4/15 40/61/15 5/55/15
f 11/70/19 8/69/19 6/64/19 12/63/19
f 2/65/20 4/68/20 10/67/20 9/66/20
f 32/74/15 11/73/15 12/56/15 41/62/15
f 9/53/14 10/72/14 30/71/14 43/60/14
f 3/86/18 7/87/18 5/88/18 1/89/18
f 41/62/18 34/90/18 37/91/18 32/74/18
f 43/92/2 45/93/2 44/94/2 42/95/2
f 42/96/1 44/94/1 38/97/1 31/98/1
usemtl CIRCUITRY
f 36/99/15 37/100/15 34/101/15 35/102/15
f 38/103/2 39/104/2 37/105/2 36/106/2
f 44/107/14 45/108/14 39/109/14 38/110/14
