# Blender v2.80 (sub 75) OBJ File: 'constructs.blend'
# www.blender.org
mtllib leg_basic_l.mtl
o LEG_LEFT_DECO_OBSIDIAN_Cube.376
v -0.250000 0.391747 -0.216506
v -0.250000 0.477123 -0.239383
v -0.250000 0.422997 -0.270633
v -0.312500 0.391747 -0.216506
v -0.312500 0.477123 -0.239383
v -0.312500 0.422997 -0.270633
v -0.281250 0.512560 -0.363261
v -0.125000 0.391747 -0.216506
v -0.125000 0.477123 -0.239383
v -0.125000 0.422997 -0.270633
v -0.187500 0.391747 -0.216506
v -0.187500 0.477123 -0.239383
v -0.187500 0.422997 -0.270633
v -0.156250 0.512560 -0.363261
vt 0.265625 0.500000
vt 0.265625 0.515625
vt 0.250000 0.515625
vt 0.234375 0.515625
vt 0.234375 0.546875
vt 0.218750 0.515625
vt 0.250000 0.515625
vt 0.234375 0.500000
vt 0.234375 0.515625
vt 0.218750 0.515625
vt 0.218750 0.500000
vt 0.203125 0.500000
vt 0.203125 0.515625
vt 0.250000 0.546875
vt 0.218750 0.546875
vt 0.265625 0.500000
vt 0.250000 0.515625
vt 0.265625 0.515625
vt 0.296875 0.515625
vt 0.296875 0.546875
vt 0.281250 0.515625
vt 0.234375 0.515625
vt 0.234375 0.500000
vt 0.250000 0.515625
vt 0.281250 0.515625
vt 0.281250 0.500000
vt 0.265625 0.500000
vt 0.265625 0.515625
vt 0.250000 0.546875
vt 0.281250 0.546875
vn 1.0000 0.0000 0.0000
vn 0.0000 0.9614 0.2750
vn -1.0000 0.0000 0.0000
vn 0.0000 -0.8660 -0.5000
vn 0.9701 0.1213 -0.2100
vn -0.9701 0.1213 -0.2100
vn 0.0000 -0.7189 -0.6951
usemtl MAIN
s off
f 1/1/1 3/2/1 2/3/1
f 2/4/2 7/5/2 5/6/2
f 6/7/3 4/8/3 5/9/3
f 3/10/4 1/11/4 4/12/4 6/13/4
f 3/2/5 7/14/5 2/3/5
f 5/9/6 7/14/6 6/7/6
f 6/13/7 7/15/7 3/10/7
f 8/16/1 10/17/1 9/18/1
f 9/19/2 14/20/2 12/21/2
f 13/22/3 11/23/3 12/24/3
f 10/25/4 8/26/4 11/27/4 13/28/4
f 10/17/5 14/29/5 9/18/5
f 12/24/6 14/29/6 13/22/6
f 13/28/7 14/30/7 10/25/7
o LEG_LEFT_BASIC.OBVAR_Cube.316
v -0.125000 0.062500 0.062500
v -0.312500 0.062500 0.062500
v -0.125000 0.062500 -0.125000
v -0.312500 0.062500 -0.125000
v -0.375000 -0.000000 0.125000
v -0.062500 -0.000000 0.125000
v -0.375000 -0.000000 -0.187500
v -0.062500 -0.000000 -0.187500
v -0.343750 0.062500 0.093750
v -0.093750 0.062500 0.093750
v -0.093750 0.062500 -0.156250
v -0.343750 0.062500 -0.156250
v -0.281250 0.187500 0.031250
v -0.156250 0.187500 0.031250
v -0.281250 0.187500 -0.031250
v -0.156250 0.187500 -0.031250
v -0.312500 0.187500 0.062500
v -0.125000 0.187500 0.062500
v -0.125000 0.187500 -0.062500
v -0.312500 0.187500 -0.062500
v -0.312500 0.375000 0.062500
v -0.312500 0.302831 -0.062500
v -0.125000 0.739383 0.056370
v -0.312500 0.739383 0.056370
v -0.125000 0.801883 -0.051883
v -0.312500 0.801883 -0.051883
v -0.312500 0.468750 -0.099880
v -0.125000 0.468750 -0.099880
v -0.312500 0.531250 -0.208133
v -0.125000 0.531250 -0.208133
v -0.312500 0.477123 -0.239383
v -0.125000 0.477123 -0.239383
v -0.312500 0.360497 -0.162380
v -0.125000 0.360497 -0.162380
v -0.312500 0.391747 -0.216506
v -0.125000 0.391747 -0.216506
v -0.187500 0.824630 0.033718
v -0.250000 0.824630 0.033718
v -0.093750 0.125000 -0.156250
v -0.093750 0.125000 0.093750
v -0.343750 0.125000 0.093750
v -0.343750 0.125000 -0.156250
v -0.187500 0.747756 -0.083133
v -0.187500 0.585377 -0.176883
v -0.187500 0.522877 -0.068630
v -0.187500 0.685256 0.025120
v -0.312500 0.685256 0.025120
v -0.312500 0.522877 -0.068630
v -0.312500 0.585377 -0.176883
v -0.312500 0.747756 -0.083133
v -0.187500 0.577564 -0.163351
v -0.187500 0.739944 -0.069601
v -0.296875 0.739944 -0.069601
v -0.296875 0.577564 -0.163351
v -0.187500 0.693069 0.011589
v -0.187500 0.530689 -0.082161
v -0.296875 0.693069 0.011589
v -0.296875 0.530689 -0.082161
v -0.250000 0.437500 -0.045753
v -0.250000 0.250000 0.062500
v -0.250000 0.375000 0.062500
v -0.250000 0.342778 -0.100441
v -0.250000 0.311852 -0.046875
v -0.125000 0.250000 0.062500
v -0.250000 0.423968 -0.053566
v -0.125000 0.437500 -0.045753
v -0.250000 0.365979 0.046875
v -0.250000 0.329247 -0.108253
v -0.250000 0.250000 -0.062500
v -0.250000 0.302831 -0.062500
v -0.125000 0.250000 -0.062500
v -0.125000 0.329247 -0.108253
v -0.250000 0.250000 0.046875
v -0.250000 0.250000 -0.046875
v -0.140625 0.342778 -0.100441
v -0.140625 0.423968 -0.053566
v -0.140625 0.250000 0.046875
v -0.140625 0.250000 -0.046875
v -0.375000 0.062500 0.125000
v -0.062500 0.062500 0.125000
v -0.375000 0.062500 -0.187500
v -0.062500 0.062500 -0.187500
v -0.343750 0.187500 0.093750
v -0.093750 0.187500 0.093750
v -0.343750 0.187500 -0.093750
v -0.093750 0.187500 -0.093750
v -0.187500 0.577564 -0.163351
v -0.187500 0.739944 -0.069601
v -0.296875 0.739944 -0.069601
v -0.296875 0.577564 -0.163351
v -0.187500 0.693069 0.011589
v -0.187500 0.530689 -0.082161
v -0.296875 0.693069 0.011589
v -0.296875 0.530689 -0.082161
v -0.250000 0.342778 -0.100441
v -0.250000 0.311852 -0.046875
v -0.250000 0.423968 -0.053566
v -0.250000 0.365979 0.046875
v -0.250000 0.250000 0.046875
v -0.250000 0.250000 -0.046875
v -0.140625 0.342778 -0.100441
v -0.140625 0.311852 -0.046875
v -0.140625 0.423968 -0.053566
v -0.140625 0.365979 0.046875
v -0.140625 0.250000 0.046875
v -0.140625 0.250000 -0.046875
vt 0.578125 0.031250
vt 0.515625 0.031250
vt 0.531250 0.046875
vt 0.578125 0.046875
vt 0.500000 0.015625
vt 0.500000 0.000000
vt 0.578125 0.000000
vt 0.578125 0.015625
vt 0.500000 0.062500
vt 0.500000 0.046875
vt 0.578125 0.046875
vt 0.578125 0.062500
vt 0.578125 0.015625
vt 0.578125 0.000000
vt 0.500000 0.000000
vt 0.500000 0.015625
vt 0.500000 0.015625
vt 0.515625 0.015625
vt 0.515625 0.031250
vt 0.500000 0.031250
vt 0.500000 0.062500
vt 0.500000 0.046875
vt 0.578125 0.046875
vt 0.578125 0.062500
vt 0.671875 0.093750
vt 0.656250 0.109375
vt 0.625000 0.109375
vt 0.625000 0.093750
vt 0.515625 0.078125
vt 0.578125 0.078125
vt 0.578125 0.093750
vt 0.515625 0.093750
vt 0.515625 0.078125
vt 0.578125 0.078125
vt 0.578125 0.093750
vt 0.515625 0.093750
vt 0.515625 0.031250
vt 0.578125 0.031250
vt 0.578125 0.046875
vt 0.531250 0.046875
vt 0.734375 0.000000
vt 0.765625 0.000000
vt 0.765625 0.046875
vt 0.734375 0.029018
vt 0.562500 0.140625
vt 0.578125 0.140625
vt 0.578125 0.171875
vt 0.562500 0.171875
vt 0.656250 0.156250
vt 0.656250 0.187500
vt 0.640625 0.156250
vt 0.843750 0.203125
vt 0.828125 0.171875
vt 0.812500 0.187500
vt 0.812500 0.203125
vt 0.625000 0.171875
vt 0.625000 0.187500
vt 0.843750 0.171875
vt 0.734375 0.093750
vt 0.734375 0.064732
vt 0.765625 0.093750
vt 0.687500 0.078125
vt 0.703125 0.093750
vt 0.718750 0.093750
vt 0.734375 0.078125
vt 0.687500 0.078125
vt 0.734375 0.078125
vt 0.578125 0.140625
vt 0.593750 0.140625
vt 0.593750 0.171875
vt 0.578125 0.187500
vt 0.703125 0.000000
vt 0.703125 0.015625
vt 0.671875 0.015625
vt 0.656250 0.000000
vt 0.703125 0.078125
vt 0.703125 0.062500
vt 0.671875 0.062500
vt 0.656250 0.078125
vt 0.625000 0.046875
vt 0.578125 0.046875
vt 0.578125 0.031250
vt 0.625000 0.031250
vt 0.625000 0.000000
vt 0.625000 0.015625
vt 0.578125 0.015625
vt 0.578125 0.000000
vt 0.734375 0.031250
vt 0.703125 0.031250
vt 0.718750 0.046875
vt 0.703125 0.046875
vt 0.687500 0.031250
vt 0.718750 0.031250
vt 0.515625 0.015625
vt 0.578125 0.015625
vt 0.515625 0.062500
vt 0.578125 0.062500
vt 0.515625 0.062500
vt 0.578125 0.062500
vt 0.578125 0.015625
vt 0.515625 0.015625
vt 0.703125 0.078125
vt 0.656250 0.078125
vt 0.671875 0.062500
vt 0.703125 0.062500
vt 0.734375 0.078125
vt 0.734375 0.062500
vt 0.703125 0.000000
vt 0.656250 0.000000
vt 0.671875 0.015625
vt 0.703125 0.015625
vt 0.699219 0.046875
vt 0.671875 0.046875
vt 0.734375 0.000000
vt 0.734375 0.015625
vt 0.671875 0.046875
vt 0.699219 0.046875
vt 0.699219 0.031250
vt 0.671875 0.031250
vt 0.671875 0.031250
vt 0.699219 0.031250
vt 0.687500 0.015625
vt 0.687500 0.062500
vt 0.730469 0.031250
vt 0.707031 0.031250
vt 0.707031 0.046875
vt 0.730469 0.046875
vt 0.578125 0.093750
vt 0.625000 0.093750
vt 0.625000 0.109375
vt 0.593750 0.109375
vt 0.562500 0.203125
vt 0.578125 0.203125
vt 0.578125 0.171875
vt 0.562500 0.171875
vt 0.625000 0.187500
vt 0.625000 0.171875
vt 0.656250 0.125000
vt 0.656250 0.140625
vt 0.640625 0.140625
vt 0.640625 0.125000
vt 0.671875 0.122750
vt 0.656250 0.122750
vt 0.656250 0.125000
vt 0.625000 0.140625
vt 0.628906 0.125000
vt 0.640625 0.109375
vt 0.671875 0.127250
vt 0.671875 0.156250
vt 0.656250 0.127250
vt 0.625000 0.156250
vt 0.609375 0.142875
vt 0.609375 0.171875
vt 0.609375 0.109375
vt 0.609375 0.138375
vt 0.593750 0.078125
vt 0.597656 0.062500
vt 0.621094 0.062500
vt 0.625000 0.078125
vt 0.593750 0.156250
vt 0.621094 0.156250
vt 0.621094 0.125000
vt 0.593750 0.125000
vt 0.593750 0.046875
vt 0.625000 0.046875
vt 0.621094 0.062500
vt 0.597656 0.062500
vt 0.656250 0.125000
vt 0.628906 0.125000
vt 0.671875 0.093750
vt 0.625000 0.093750
vt 0.609375 0.078125
vt 0.687500 0.078125
vt 0.750000 0.375000
vt 0.796875 0.375000
vt 0.812500 0.359375
vt 0.734375 0.359375
vt 0.671875 0.093750
vt 0.625000 0.093750
vt 0.609375 0.078125
vt 0.687500 0.078125
vt 0.750000 0.375000
vt 0.796875 0.375000
vt 0.812500 0.359375
vt 0.734375 0.359375
vt 0.812500 0.078125
vt 0.781250 0.078125
vt 0.765625 0.062500
vt 0.828125 0.062500
vt 0.781250 0.093750
vt 0.781250 0.078125
vt 0.765625 0.062500
vt 0.765625 0.109375
vt 0.781250 0.078125
vt 0.781250 0.093750
vt 0.765625 0.109375
vt 0.765625 0.062500
vt 0.812500 0.078125
vt 0.828125 0.062500
vt 0.687500 0.015625
vt 0.687500 0.062500
vt 0.671875 0.062500
vt 0.671875 0.015625
vt 0.625000 0.078125
vt 0.625000 0.000000
vt 0.625000 0.687500
vt 0.625000 0.500000
vt 0.515625 0.500000
vt 0.515625 0.687500
vt 0.859375 0.500000
vt 0.859375 0.687500
vt 0.750000 0.687500
vt 0.750000 0.500000
vt 0.250000 0.750000
vt 0.359375 0.750000
vt 0.359375 0.812500
vt 0.250000 0.812500
vt 0.375000 0.500000
vt 0.484375 0.500000
vt 0.484375 0.616000
vt 0.375000 0.616000
vt 0.250000 0.750000
vt 0.250000 0.687500
vt 0.359375 0.687500
vt 0.359375 0.750000
vt 0.625000 0.634000
vt 0.500000 0.687500
vt 0.500000 0.750000
vt 0.625000 0.750000
vt 0.500000 0.562500
vt 0.625000 0.616000
vt 0.625000 0.500000
vt 0.500000 0.500000
vt 0.484375 0.750000
vt 0.375000 0.750000
vt 0.375000 0.634000
vt 0.484375 0.634000
vt 0.625000 0.687500
vt 0.625000 0.500000
vn 1.0000 0.0000 -0.0000
vn -1.0000 0.0000 0.0000
vn -0.0000 0.0000 -1.0000
vn 0.0000 -1.0000 0.0000
vn 0.0000 0.0000 1.0000
vn -0.0000 0.7071 -0.7071
vn -0.0000 0.9665 -0.2568
vn 0.0000 0.2568 0.9665
vn 0.0000 0.8660 0.5000
vn -0.0000 0.5000 -0.8660
vn -0.0000 -0.5000 0.8660
vn -0.0000 -0.8660 -0.5000
vn -0.0000 -0.2588 -0.9659
vn 0.7071 0.6124 0.3536
vn -0.7071 0.6124 0.3536
vn 0.0000 1.0000 0.0000
usemtl MAIN
s off
f 54/31/8 53/32/8 100/33/8 98/34/8
f 95/35/9 21/36/9 19/37/9 93/38/9
f 96/39/10 22/40/10 21/41/10 95/42/10
f 94/43/8 20/44/8 22/45/8 96/46/8
f 19/47/11 21/48/11 22/49/11 20/50/11
f 93/51/12 19/52/12 20/53/12 94/54/12
f 34/55/10 83/56/10 85/57/10 33/58/10
f 55/59/12 54/60/12 98/61/12 97/62/12
f 53/63/13 56/64/13 99/65/13 100/66/13
f 56/67/9 55/68/9 97/69/9 99/70/9
f 34/71/9 31/72/9 35/73/9 36/74/9
f 86/75/8 48/76/8 42/77/8 80/78/8
f 47/79/9 41/80/9 49/81/9
f 42/82/8 50/83/8 46/84/8
f 44/85/8 42/82/8 46/84/8
f 41/80/9 45/86/9 49/81/9
f 41/80/9 43/87/9 45/86/9
f 42/82/8 48/88/8 50/83/8
f 47/89/9 36/90/9 35/73/9 41/91/9
f 40/92/14 52/93/14 51/94/14 39/95/14
f 38/96/15 37/97/15 51/94/15 52/93/15
f 35/98/16 75/99/16 73/100/16 41/101/16
f 43/102/17 63/103/17 58/104/17 44/105/17
f 38/106/18 61/107/18 60/108/18 37/109/18
f 43/110/17 44/111/17 46/112/17 45/113/17
f 47/114/19 49/115/19 50/116/19 48/117/19
f 49/115/20 45/113/20 46/112/20 50/116/20
f 37/118/21 39/119/21 51/120/21
f 52/121/22 40/122/22 38/123/22
f 26/124/9 23/125/9 55/68/9 56/67/9
f 25/126/10 26/127/10 56/64/10 53/63/10
f 23/128/12 24/129/12 54/60/12 55/59/12
f 24/130/8 25/131/8 53/32/8 54/31/8
f 40/132/17 39/133/17 57/134/17 64/135/17
f 38/136/9 40/132/9 64/135/9 61/137/9
f 39/133/17 44/105/17 58/104/17 57/134/17
f 41/138/18 42/139/18 59/140/18 62/141/18
f 60/108/19 61/107/19 71/142/19 69/143/19
f 43/102/9 41/144/9 62/145/9 63/103/9
f 64/135/19 57/134/19 66/146/19 67/147/19
f 58/104/16 63/103/16 68/148/16 65/149/16
f 62/141/16 59/140/16 70/150/16 72/151/16
f 57/134/9 58/104/9 65/152/9 66/153/9
f 63/103/16 62/145/16 72/154/16 68/155/16
f 61/137/19 64/135/19 67/156/19 71/157/19
f 31/158/12 32/159/12 78/160/12 74/161/12
f 35/98/12 31/158/12 74/161/12 75/99/12
f 78/162/8 32/163/8 33/164/8 85/165/8
f 42/166/16 41/101/16 73/100/16 80/167/16
f 84/168/8 82/169/8 76/170/8 77/171/8
f 36/172/10 84/173/10 83/56/10 34/55/10
f 76/174/18 82/169/18 86/175/18 89/176/18
f 83/56/8 84/168/8 77/171/8 88/177/8
f 36/178/19 47/179/19 82/169/19 84/180/19
f 47/179/19 48/181/19 86/175/19 82/169/19
f 73/100/8 75/99/8 81/182/8 79/183/8
f 75/99/8 74/161/8 87/184/8 81/185/8
f 80/186/18 90/187/18 89/188/18 86/189/18
f 80/167/18 73/100/18 79/190/18 90/191/18
f 78/160/23 91/192/23 87/193/23 74/161/23
f 78/194/23 85/195/23 92/196/23 91/197/23
f 88/198/23 92/199/23 85/57/23 83/56/23
f 15/200/23 16/201/23 93/202/23 94/203/23
f 16/204/23 18/205/23 95/206/23 93/207/23
f 18/208/23 17/209/23 96/210/23 95/211/23
f 17/212/23 15/213/23 94/214/23 96/215/23
f 28/216/23 27/217/23 97/218/23 98/219/23
f 27/220/23 29/221/23 99/222/23 97/223/23
f 30/224/23 28/225/23 98/226/23 100/227/23
f 29/228/23 30/224/23 100/227/23 99/229/23
f 59/230/9 60/231/9 69/232/9 70/233/9
f 42/139/18 37/109/18 60/108/18 59/140/18
f 37/234/8 42/235/8 44/105/8 39/133/8
usemtl CIRCUITRY
f 102/236/17 101/237/17 104/238/17 103/239/17
f 106/240/18 105/241/18 107/242/18 108/243/18
f 109/244/19 115/245/19 116/246/19 110/247/19
f 113/248/12 119/249/12 118/250/12 112/251/12
f 114/252/10 110/253/10 116/254/10 120/255/10
f 118/256/8 116/257/8 115/258/8 117/259/8
f 116/260/8 118/261/8 119/262/8 120/263/8
f 117/264/16 111/265/16 112/266/16 118/267/16
f 108/243/9 107/242/9 103/268/9 104/269/9
