# Blender v2.80 (sub 75) OBJ File: 'collector.blend'
# www.blender.org
mtllib collector_error.mtl
o COLLECTOR_ERROR_Cube.000
v -0.625000 0.531250 -0.625000
v 1.625000 0.531250 -0.625000
v -0.625000 0.531250 1.625000
v 1.625000 0.531250 1.625000
v 0.050000 0.531250 -0.625000
v 0.050000 0.531250 1.625000
v 0.950000 0.531250 -0.625000
v 0.950000 0.531250 1.625000
v -0.625000 0.531250 0.050000
v 1.625000 0.531250 0.050000
v 0.050000 0.531250 0.050000
v 0.950000 0.531250 0.050000
v -0.625000 0.531250 0.950000
v 1.625000 0.531250 0.950000
v 0.050000 0.531250 0.950000
v 0.950000 0.531250 0.950000
v -0.625000 0.468750 -0.625000
v 1.625000 0.468750 -0.625000
v -0.625000 0.468750 1.625000
v 1.625000 0.468750 1.625000
v 0.050000 0.468750 -0.625000
v 0.050000 0.468750 1.625000
v 0.950000 0.468750 -0.625000
v 0.950000 0.468750 1.625000
v -0.625000 0.468750 0.050000
v 1.625000 0.468750 0.050000
v 0.050000 0.468750 0.050000
v 0.950000 0.468750 0.050000
v -0.625000 0.468750 0.950000
v 1.625000 0.468750 0.950000
v 0.050000 0.468750 0.950000
v 0.950000 0.468750 0.950000
vt 0.750000 0.750000
vt 0.000000 0.750000
vt 0.000000 0.000000
vt 0.750000 0.000000
vt 1.000000 1.000000
vt 0.250000 1.000000
vt 0.250000 0.000000
vt 1.000000 0.000000
vt 0.000000 0.750000
vt 0.000000 0.000000
vt 1.000000 0.000000
vt 1.000000 0.750000
vt 1.000000 1.000000
vt 0.000000 1.000000
vt 0.000000 0.000000
vt 1.000000 0.000000
vt 1.000000 1.000000
vt 0.000000 1.000000
vt 0.000000 0.250000
vt 1.000000 0.250000
vt 0.750000 1.000000
vt 0.000000 1.000000
vt 0.000000 0.000000
vt 0.750000 0.000000
vt 0.250000 0.750000
vt 0.250000 0.000000
vt 1.000000 0.000000
vt 1.000000 0.750000
vt 1.000000 1.000000
vt 0.250000 1.000000
vt 0.250000 0.250000
vt 1.000000 0.250000
vt 0.750000 1.000000
vt 0.000000 1.000000
vt 0.000000 0.250000
vt 0.750000 0.250000
vt 0.750000 0.750000
vt 0.750000 0.000000
vt 0.000000 0.000000
vt 0.000000 0.750000
vt 1.000000 1.000000
vt 1.000000 0.000000
vt 0.250000 0.000000
vt 0.250000 1.000000
vt 0.000000 0.750000
vt 1.000000 0.750000
vt 1.000000 0.000000
vt 0.000000 0.000000
vt 1.000000 1.000000
vt 1.000000 0.000000
vt 0.000000 0.000000
vt 0.000000 1.000000
vt 1.000000 1.000000
vt 1.000000 0.250000
vt 0.000000 0.250000
vt 0.000000 1.000000
vt 0.750000 1.000000
vt 0.750000 0.000000
vt 0.000000 0.000000
vt 0.000000 1.000000
vt 0.250000 0.750000
vt 1.000000 0.750000
vt 1.000000 0.000000
vt 0.250000 0.000000
vt 1.000000 1.000000
vt 1.000000 0.250000
vt 0.250000 0.250000
vt 0.250000 1.000000
vt 0.750000 1.000000
vt 0.750000 0.250000
vt 0.000000 0.250000
vt 0.000000 1.000000
vn 0.0000 1.0000 0.0000
vn 0.0000 -1.0000 -0.0000
usemtl ERROR
s off
f 2/1/1 7/2/1 12/3/1 10/4/1
f 11/5/1 9/6/1 13/7/1 15/8/1
f 5/9/1 11/10/1 12/11/1 7/12/1
f 12/13/1 11/14/1 15/15/1 16/16/1
f 16/17/1 15/18/1 6/19/1 8/20/1
f 10/21/1 12/22/1 16/23/1 14/24/1
f 1/25/1 9/26/1 11/27/1 5/28/1
f 15/29/1 13/30/1 3/31/1 6/32/1
f 14/33/1 16/34/1 8/35/1 4/36/1
f 18/37/2 26/38/2 28/39/2 23/40/2
f 27/41/2 31/42/2 29/43/2 25/44/2
f 21/45/2 23/46/2 28/47/2 27/48/2
f 28/49/2 32/50/2 31/51/2 27/52/2
f 32/53/2 24/54/2 22/55/2 31/56/2
f 26/57/2 30/58/2 32/59/2 28/60/2
f 17/61/2 21/62/2 27/63/2 25/64/2
f 31/65/2 22/66/2 19/67/2 29/68/2
f 30/69/2 20/70/2 24/71/2 32/72/2
