# Blender v2.80 (sub 75) OBJ File: 'wellspring_pillar.blend'
# www.blender.org
mtllib wellspring_pillar_portal.mtl
o PYLON_PORTAL_Cube.000
v 0.125000 6.250000 0.875000
v 0.125000 6.250000 0.125000
v 0.875000 6.250000 0.125000
v 0.875000 6.250000 0.875000
v 0.125000 6.000000 0.875000
v 0.125000 6.000000 0.125000
v 0.875000 6.000000 0.125000
v 0.875000 6.000000 0.875000
v 0.125000 6.250000 0.500000
v 0.875000 6.250000 0.500000
v 0.500000 6.250000 0.125000
v 0.500000 6.250000 0.875000
vt 0.500000 1.000000
vt 0.875000 1.000000
vt 0.875000 0.750000
vt 0.500000 1.000000
vt 0.875000 1.000000
vt 0.875000 0.750000
vt 0.125000 0.750000
vt 0.500000 1.000000
vt 0.125000 1.000000
vt 0.125000 0.750000
vt 0.500000 0.625000
vt 0.125000 0.625000
vt 0.125000 0.875000
vt 0.125000 1.000000
vt 0.875000 0.875000
vt 0.875000 0.625000
vt 0.875000 1.000000
vt 0.875000 0.750000
vt 0.875000 0.125000
vt 0.875000 0.875000
vt 0.125000 0.875000
vt 0.125000 0.125000
vn -1.0000 0.0000 0.0000
vn 0.0000 0.0000 1.0000
vn 0.0000 0.0000 -1.0000
vn 1.0000 0.0000 0.0000
vn 0.0000 1.0000 0.0000
usemtl END_PORTAL
s off
f 10/1/1 3/2/1 7/3/1
f 11/4/2 2/5/2 6/6/2
f 7/7/2 11/4/2 6/6/2
f 12/8/3 4/9/3 8/10/3
f 9/11/4 1/12/4 5/13/4
f 3/14/2 11/4/2 7/7/2
f 6/15/4 9/11/4 5/13/4
f 2/16/4 9/11/4 6/15/4
f 8/10/1 10/1/1 7/3/1
f 1/17/3 12/8/3 5/18/3
f 5/18/3 12/8/3 8/10/3
f 8/19/5 7/20/5 6/21/5 5/22/5
f 4/9/1 10/1/1 8/10/1
