# Blender v2.80 (sub 75) OBJ File: 'runeforge.blend'
# www.blender.org
mtllib pedestal_square_gold.mtl
o CALEFACTOR_PEDESTAL_Cube.007
v 0.250000 0.125000 0.750000
v 0.750000 0.125000 0.750000
v 0.250000 0.062500 0.750000
v 0.750000 0.062500 0.750000
v 0.250000 0.062500 0.875000
v 0.750000 0.062500 0.875000
v 0.125000 0.062500 0.750000
v 0.250000 0.000000 0.875000
v 0.875000 0.062500 0.875000
v 0.125000 0.062500 0.875000
v 0.500000 0.062500 0.750000
v 0.500000 0.125000 0.750000
v 0.500000 0.062500 0.875000
v 0.500000 0.000000 0.875000
v 0.500000 0.125000 0.687500
v 0.500000 0.000000 0.500000
v 0.250000 0.000000 0.125000
v 0.750000 0.000000 0.125000
v 0.875000 0.000000 0.250000
v 0.875000 0.000000 0.750000
v 0.750000 0.000000 0.875000
v 0.125000 0.000000 0.750000
v 0.125000 0.000000 0.875000
v 0.875000 0.000000 0.500000
v 0.687500 0.125000 0.312500
v 0.750000 0.125000 0.250000
v 0.875000 0.062500 0.750000
v 0.875000 0.062500 0.250000
v 0.875000 0.062500 0.125000
v 0.875000 0.000000 0.875000
v 0.750000 0.062500 0.500000
v 0.750000 0.125000 0.500000
v 0.875000 0.062500 0.500000
v 0.687500 0.125000 0.500000
v 0.250000 0.125000 0.250000
v 0.750000 0.062500 0.250000
v 0.250000 0.062500 0.250000
v 0.750000 0.062500 0.125000
v 0.250000 0.062500 0.125000
v 0.125000 0.062500 0.125000
v 0.875000 0.000000 0.125000
v 0.500000 0.062500 0.250000
v 0.500000 0.125000 0.250000
v 0.500000 0.062500 0.125000
v 0.500000 0.000000 0.125000
v 0.500000 0.125000 0.312500
v 0.312500 0.125000 0.687500
v 0.312500 0.125000 0.312500
v 0.125000 0.062500 0.250000
v 0.125000 0.000000 0.250000
v 0.125000 0.000000 0.125000
v 0.250000 0.062500 0.500000
v 0.250000 0.125000 0.500000
v 0.125000 0.062500 0.500000
v 0.125000 0.000000 0.500000
v 0.312500 0.125000 0.500000
v 0.687500 0.750000 0.312500
v 0.687500 0.125000 0.687500
v 0.812500 1.000000 0.250000
v 0.812500 1.000000 0.750000
v 0.812500 0.875000 0.250000
v 0.812500 0.875000 0.750000
v 0.750000 1.000000 0.187500
v 0.250000 1.000000 0.187500
v 0.250000 0.875000 0.250000
v 0.250000 0.875000 0.750000
v 0.750000 0.875000 0.250000
v 0.750000 0.875000 0.750000
v 0.687500 0.750000 0.687500
v 0.312500 0.750000 0.312500
v 0.312500 0.750000 0.687500
v 0.250000 0.812500 0.250000
v 0.250000 0.812500 0.750000
v 0.750000 0.812500 0.250000
v 0.750000 0.812500 0.750000
v 0.250000 0.875000 0.187500
v 0.750000 0.875000 0.187500
v 0.187500 1.000000 0.250000
v 0.187500 1.000000 0.750000
v 0.187500 0.875000 0.750000
v 0.187500 0.875000 0.250000
v 0.250000 1.000000 0.812500
v 0.750000 1.000000 0.812500
v 0.750000 0.875000 0.812500
v 0.250000 0.875000 0.812500
v 0.625000 0.937500 0.625000
v 0.625000 0.937500 0.375000
v 0.375000 0.937500 0.625000
v 0.375000 0.937500 0.375000
v 0.250000 1.000000 0.250000
v 0.250000 1.000000 0.750000
v 0.750000 1.000000 0.750000
v 0.750000 1.000000 0.250000
v 0.312500 1.000000 0.312500
v 0.312500 1.000000 0.687500
v 0.687500 1.000000 0.687500
v 0.687500 1.000000 0.312500
vt 0.500000 0.687500
vt 0.687500 0.687500
vt 0.750000 0.750000
vt 0.500000 0.750000
vt 0.750000 0.812500
vt 0.500000 0.812500
vt 0.500000 0.937500
vt 0.750000 0.937500
vt 0.750000 1.000000
vt 0.500000 1.000000
vt 0.000000 0.859375
vt 0.031250 0.843750
vt 0.015625 0.875000
vt 0.000000 0.875000
vt 0.031250 0.875000
vt 0.046875 0.875000
vt 0.875000 0.812500
vt 0.875000 0.937500
vt 0.015625 0.812500
vt 0.000000 0.828125
vt 0.000000 0.812500
vt 0.875000 1.000000
vt 0.750000 0.937500
vt 0.750000 1.000000
vt 0.875000 1.000000
vt 0.875000 0.937500
vt 0.000000 0.843750
vt 0.750000 0.812500
vt 0.750000 0.750000
vt 0.687500 0.687500
vt 0.031250 0.812500
vt 0.046875 0.812500
vt 0.062500 0.859375
vt 0.062500 0.875000
vt 0.062500 0.843750
vt 0.062500 0.828125
vt 0.500000 0.687500
vt 0.500000 0.750000
vt 0.500000 0.812500
vt 0.500000 0.937500
vt 0.750000 0.937500
vt 0.750000 1.000000
vt 0.500000 1.000000
vt 0.875000 0.812500
vt 0.750000 0.937500
vt 0.750000 1.000000
vt 0.875000 1.000000
vt 0.875000 0.937500
vt 0.750000 0.812500
vt 0.750000 0.750000
vt 0.687500 0.687500
vt 0.500000 0.687500
vt 0.500000 0.750000
vt 0.500000 0.812500
vt 0.500000 0.937500
vt 0.750000 0.937500
vt 0.750000 1.000000
vt 0.500000 1.000000
vt 0.875000 0.812500
vt 0.750000 0.937500
vt 0.750000 1.000000
vt 0.875000 1.000000
vt 0.875000 0.937500
vt 0.750000 0.812500
vt 0.750000 0.750000
vt 0.687500 0.687500
vt 0.500000 0.687500
vt 0.500000 0.750000
vt 0.500000 0.812500
vt 0.500000 0.937500
vt 0.750000 0.937500
vt 0.750000 1.000000
vt 0.500000 1.000000
vt 0.875000 0.812500
vt 0.750000 0.937500
vt 0.750000 1.000000
vt 0.062500 0.000000
vt 0.437500 0.000000
vt 0.437500 0.625000
vt 0.062500 0.625000
vt 0.062500 0.625000
vt 0.062500 -0.000000
vt 0.437500 -0.000000
vt 0.437500 0.625000
vt 0.062500 0.625000
vt 0.062500 0.000000
vt 0.437500 0.000000
vt 0.437500 0.625000
vt 0.000000 0.750000
vt 0.500000 0.750000
vt 0.500000 0.812500
vt -0.000000 0.812500
vt 0.000000 0.875000
vt 0.500000 0.875000
vt 0.500000 1.000000
vt 0.000000 1.000000
vt 0.062500 0.625000
vt 0.062500 0.000000
vt 0.437500 0.000000
vt 0.437500 0.625000
vt 0.500000 0.000000
vt 0.500000 0.500000
vt 0.437500 0.500000
vt 0.437500 0.000000
vt -0.000000 0.875000
vt 0.500000 0.875000
vt 0.500000 1.000000
vt -0.000000 1.000000
vt 0.000000 0.687500
vt 0.500000 0.687500
vt 0.750000 0.812500
vt 0.750000 0.562500
vt 1.000000 0.562500
vt 1.000000 0.812500
vt -0.000000 0.750000
vt 0.500000 0.750000
vt 0.500000 0.812500
vt -0.000000 0.812500
vt 0.000000 0.875000
vt 0.500000 0.875000
vt 0.500000 1.000000
vt 0.000000 1.000000
vt 0.500000 0.687500
vt 0.000000 0.687500
vt 0.500000 0.687500
vt -0.000000 0.687500
vt 0.500000 0.687500
vt 0.000000 0.687500
vt 0.500000 0.750000
vt 0.000000 0.750000
vt 0.500000 0.812500
vt -0.000000 0.812500
vt 0.500000 0.000000
vt 0.500000 0.500000
vt 0.437500 0.500000
vt 0.437500 0.000000
vt 0.500000 0.750000
vt -0.000000 0.750000
vt 0.000000 0.875000
vt 0.500000 0.875000
vt 0.500000 1.000000
vt 0.000000 1.000000
vt 0.500000 0.000000
vt 0.500000 0.500000
vt 0.437500 0.500000
vt 0.437500 0.000000
vt 0.500000 0.000000
vt 0.500000 0.500000
vt 0.437500 0.500000
vt 0.437500 0.000000
vt 0.500000 0.812500
vt 0.000000 0.812500
vt 0.062500 0.812500
vt 0.062500 0.812500
vt 0.437500 0.812500
vt 0.500000 0.750000
vt 0.000000 0.750000
vt 0.437500 0.812500
vt 0.500000 0.750000
vt 0.062500 0.812500
vt 0.000000 0.750000
vt -0.000000 0.562500
vt -0.000000 0.312500
vt 0.062500 0.250000
vt 0.062500 0.625000
vt 0.000000 0.312500
vt 0.062500 0.250000
vt -0.000000 0.562500
vt 0.062500 0.625000
vt 0.062500 0.750000
vt -0.000000 0.750000
vt 0.437500 0.500000
vt 0.437500 0.437500
vt 0.500000 0.500000
vt 0.000000 1.000000
vt 0.000000 0.875000
vt 0.062500 0.875000
vt 0.062500 1.000000
vt 0.062500 0.750000
vt -0.000000 0.750000
vt 0.500000 0.500000
vt 0.437500 0.500000
vt 0.437500 0.437500
vt 0.062500 0.875000
vt 0.062500 1.000000
vt -0.000000 1.000000
vt 0.000000 0.875000
vt 0.437500 0.500000
vt 0.437500 0.437500
vt 0.500000 0.500000
vt 0.062500 0.750000
vt -0.000000 0.875000
vt 0.062500 0.875000
vt 0.062500 1.000000
vt -0.000000 1.000000
vt 0.437500 0.437500
vt 0.500000 0.500000
vt 0.437500 0.500000
vt 0.062500 0.750000
vt -0.000000 0.750000
vt 0.000325 1.000000
vt 0.000000 0.875000
vt 0.062500 0.875000
vt 0.062500 1.000000
vn 0.0000 1.0000 0.0000
vn 0.0000 0.0000 1.0000
vn 0.0000 -1.0000 -0.0000
vn 1.0000 0.0000 0.0000
vn 0.0000 0.0000 -1.0000
vn -1.0000 0.0000 0.0000
vn 0.7071 -0.7071 0.0000
vn 0.0000 -0.7071 0.7071
vn 0.0000 -0.7071 -0.7071
vn -0.7071 -0.7071 0.0000
vn 0.7071 0.7071 0.0000
vn 0.0000 0.7071 -0.7071
vn -0.7071 0.7071 0.0000
vn 0.0000 0.7071 0.7071
vn -0.7071 0.0000 0.7071
vn 0.7071 0.0000 0.7071
vn 0.7071 0.0000 -0.7071
vn -0.7071 0.0000 -0.7071
usemtl RUNEFORGE_PEDESTAL
s off
f 15/1/1 47/2/1 1/3/1 12/4/1
f 12/4/2 1/3/2 3/5/2 11/6/2
f 13/7/2 5/8/2 8/9/2 14/10/2
f 11/6/1 3/5/1 5/8/1 13/7/1
f 19/11/3 16/12/3 18/13/3 41/14/3
f 45/15/3 16/12/3 17/16/3
f 18/13/3 16/12/3 45/15/3
f 3/5/1 7/17/1 10/18/1 5/8/1
f 21/19/3 16/12/3 20/20/3 30/21/3
f 10/18/2 23/22/2 8/9/2 5/8/2
f 6/23/2 21/24/2 30/25/2 9/26/2
f 24/27/3 16/12/3 19/11/3
f 20/20/3 16/12/3 24/27/3
f 4/28/1 11/6/1 13/7/1 6/23/1
f 6/23/2 13/7/2 14/10/2 21/24/2
f 2/29/2 12/4/2 11/6/2 4/28/2
f 58/30/1 15/1/1 12/4/1 2/29/1
f 14/31/3 16/12/3 21/19/3
f 8/32/3 16/12/3 14/31/3
f 17/16/3 16/12/3 50/33/3 51/34/3
f 55/35/3 16/12/3 22/36/3
f 50/33/3 16/12/3 55/35/3
f 34/37/1 58/30/1 2/29/1 32/38/1
f 32/38/4 2/29/4 4/28/4 31/39/4
f 33/40/4 27/41/4 20/42/4 24/43/4
f 31/39/1 4/28/1 27/41/1 33/40/1
f 4/28/1 6/44/1 9/26/1 27/41/1
f 9/26/4 30/25/4 20/42/4 27/41/4
f 28/45/4 19/46/4 41/47/4 29/48/4
f 36/49/1 31/39/1 33/40/1 28/45/1
f 28/45/4 33/40/4 24/43/4 19/46/4
f 26/50/4 32/38/4 31/39/4 36/49/4
f 25/51/1 34/37/1 32/38/1 26/50/1
f 46/52/1 25/51/1 26/50/1 43/53/1
f 43/53/5 26/50/5 36/49/5 42/54/5
f 44/55/5 38/56/5 18/57/5 45/58/5
f 42/54/1 36/49/1 38/56/1 44/55/1
f 36/49/1 28/59/1 29/48/1 38/56/1
f 29/48/5 41/47/5 18/57/5 38/56/5
f 39/60/5 17/61/5 51/62/5 40/63/5
f 37/64/1 42/54/1 44/55/1 39/60/1
f 39/60/5 44/55/5 45/58/5 17/61/5
f 35/65/5 43/53/5 42/54/5 37/64/5
f 48/66/1 46/52/1 43/53/1 35/65/1
f 56/67/1 48/66/1 35/65/1 53/68/1
f 53/68/6 35/65/6 37/64/6 52/69/6
f 54/70/6 49/71/6 50/72/6 55/73/6
f 52/69/1 37/64/1 49/71/1 54/70/1
f 37/64/1 39/74/1 40/63/1 49/71/1
f 40/63/6 51/62/6 50/72/6 49/71/6
f 7/75/6 22/76/6 23/22/6 10/18/6
f 3/5/1 52/69/1 54/70/1 7/75/1
f 7/75/6 54/70/6 55/73/6 22/76/6
f 1/3/6 53/68/6 52/69/6 3/5/6
f 47/2/1 56/67/1 53/68/1 1/3/1
f 47/77/2 58/78/2 69/79/2 71/80/2
f 57/81/5 25/82/5 48/83/5 70/84/5
f 69/85/4 58/86/4 25/87/4 57/88/4
f 68/89/3 67/90/3 61/91/3 62/92/3
f 62/93/4 61/94/4 59/95/4 60/96/4
f 70/97/6 48/98/6 47/99/6 71/100/6
f 90/101/1 93/102/1 63/103/1 64/104/1
f 77/105/5 76/106/5 64/107/5 63/108/5
f 67/90/4 68/89/4 75/109/4 74/110/4
f 89/111/1 88/112/1 86/113/1 87/114/1
f 65/115/3 66/116/3 80/117/3 81/118/3
f 81/119/6 80/120/6 79/121/6 78/122/6
f 57/88/7 74/110/7 75/109/7 69/85/7
f 69/79/8 75/123/8 73/124/8 71/80/8
f 57/81/9 70/84/9 72/125/9 74/126/9
f 71/100/10 73/127/10 72/128/10 70/97/10
f 68/129/2 66/130/2 73/124/2 75/123/2
f 66/130/3 68/129/3 84/131/3 85/132/3
f 92/133/1 91/134/1 82/135/1 83/136/1
f 66/116/6 65/115/6 72/128/6 73/127/6
f 65/137/5 67/138/5 74/126/5 72/125/5
f 85/139/2 84/140/2 83/141/2 82/142/2
f 93/143/1 92/144/1 60/145/1 59/146/1
f 91/147/1 90/148/1 78/149/1 79/150/1
f 67/138/3 65/137/3 76/151/3 77/152/3
f 22/36/3 16/12/3 8/32/3 23/153/3
f 95/154/1 94/155/1 90/156/1 91/157/1
f 96/158/1 95/154/1 91/157/1 92/159/1
f 97/160/1 96/158/1 92/159/1 93/161/1
f 94/155/1 97/160/1 93/161/1 90/156/1
f 88/162/11 89/163/11 94/164/11 95/165/11
f 86/166/12 88/162/12 95/165/12 96/167/12
f 87/168/13 86/166/13 96/167/13 97/169/13
f 89/163/14 87/168/14 97/169/14 94/164/14
f 66/170/3 85/132/3 80/171/3
f 91/172/1 79/173/1 82/174/1
f 79/175/15 80/176/15 85/177/15 82/178/15
f 68/179/3 62/92/3 84/180/3
f 60/181/1 92/182/1 83/183/1
f 62/184/16 60/185/16 83/186/16 84/187/16
f 93/188/1 59/189/1 63/190/1
f 67/138/3 77/152/3 61/191/3
f 61/192/17 77/193/17 63/194/17 59/195/17
f 64/196/1 78/197/1 90/198/1
f 65/199/3 81/118/3 76/200/3
f 64/201/18 76/202/18 81/203/18 78/204/18
