# Blender v2.80 (sub 75) OBJ File: 'lodestar_copier.blend'
# www.blender.org
mtllib lodestar_copier.mtl
o CRYSTAL_Cube.005
v 0.437500 0.000000 0.562500
v 0.375000 0.062500 0.625000
v 0.437500 0.000000 0.437500
v 0.375000 0.062500 0.375000
v 0.562500 0.000000 0.562500
v 0.625000 0.062500 0.625000
v 0.562500 0.000000 0.437500
v 0.625000 0.062500 0.375000
v 0.375000 0.437500 0.625000
v 0.375000 0.437500 0.375000
v 0.625000 0.437500 0.375000
v 0.625000 0.437500 0.625000
v 0.437500 0.500000 0.562500
v 0.437500 0.500000 0.437500
v 0.562500 0.500000 0.437500
v 0.562500 0.500000 0.562500
vt 0.375000 0.750000
vt 0.312500 0.812500
vt 0.562500 0.812500
vt 0.500000 0.750000
vt 0.312500 0.812500
vt 0.375000 0.750000
vt 0.562500 0.812500
vt 0.500000 0.750000
vt 0.562500 1.000000
vt 0.562500 0.875000
vt 0.687500 0.875000
vt 0.687500 1.000000
vt 0.562500 0.312500
vt 0.312500 0.312500
vt 0.312500 0.687500
vt 0.562500 0.687500
vt 0.375000 0.750000
vt 0.500000 0.750000
vt 0.562500 0.312500
vt 0.312500 0.312500
vt 0.312500 0.687500
vt 0.562500 0.687500
vt 0.562500 1.000000
vt 0.562500 0.875000
vt 0.687500 0.875000
vt 0.687500 1.000000
vt 0.375000 0.750000
vt 0.500000 0.750000
vn -0.7071 -0.7071 0.0000
vn 0.0000 -0.7071 -0.7071
vn 0.7071 -0.7071 0.0000
vn 0.0000 -0.7071 0.7071
vn 0.0000 -1.0000 0.0000
vn 1.0000 0.0000 0.0000
vn 0.7071 0.7071 0.0000
vn -1.0000 0.0000 0.0000
vn 0.0000 0.0000 1.0000
vn 0.0000 0.0000 -1.0000
vn 0.0000 1.0000 0.0000
vn -0.7071 0.7071 0.0000
vn 0.0000 0.7071 0.7071
vn 0.0000 0.7071 -0.7071
usemtl MAIN
s off
f 1/1/1 2/2/1 4/3/1 3/4/1
f 3/4/2 4/3/2 8/5/2 7/6/2
f 7/6/3 8/5/3 6/7/3 5/8/3
f 5/8/4 6/7/4 2/2/4 1/1/4
f 3/9/5 7/10/5 5/11/5 1/12/5
f 6/13/6 8/14/6 11/15/6 12/16/6
f 12/16/7 11/15/7 15/17/7 16/18/7
f 4/19/8 2/20/8 9/21/8 10/22/8
f 2/20/9 6/13/9 12/16/9 9/21/9
f 8/14/10 4/19/10 10/22/10 11/15/10
f 15/23/11 14/24/11 13/25/11 16/26/11
f 10/22/12 9/21/12 13/27/12 14/28/12
f 9/21/13 12/16/13 16/18/13 13/27/13
f 11/15/14 10/22/14 14/28/14 15/17/14
o BRACE_Cube.006
v 0.687500 0.312500 0.531250
v 0.687500 0.312500 0.468750
v 0.625000 0.312500 0.593750
v 0.625000 0.312500 0.531250
v 0.687500 0.312500 0.593750
v 0.625000 0.312500 0.468750
v 0.625000 0.312500 0.406250
v 0.625000 0.250000 0.406250
v 0.593750 0.250000 0.312500
v 0.593750 0.250000 0.375000
v 0.687500 0.250000 0.406250
v 0.687500 0.312500 0.406250
v 0.625000 0.250000 0.468750
v 0.625000 0.250000 0.531250
v 0.687500 0.250000 0.468750
v 0.687500 0.250000 0.531250
v 0.625000 0.375000 0.468750
v 0.625000 0.375000 0.531250
v 0.593750 0.312500 0.375000
v 0.593750 0.312500 0.312500
v 0.687500 0.187500 0.593750
v 0.625000 0.187500 0.593750
v 0.625000 0.187500 0.406250
v 0.625000 0.125000 0.593750
v 0.625000 0.125000 0.531250
v 0.687500 0.187500 0.406250
v 0.625000 0.187500 0.468750
v 0.625000 0.187500 0.531250
v 0.687500 0.187500 0.468750
v 0.687500 0.187500 0.531250
v 0.625000 0.125000 0.468750
v 0.625000 0.125000 0.406250
v 0.531250 0.312500 0.312500
v 0.468750 0.312500 0.312500
v 0.531250 0.312500 0.375000
v 0.468750 0.312500 0.375000
v 0.406250 0.312500 0.375000
v 0.406250 0.250000 0.375000
v 0.312500 0.250000 0.406250
v 0.375000 0.250000 0.406250
v 0.406250 0.250000 0.312500
v 0.406250 0.312500 0.312500
v 0.468750 0.250000 0.375000
v 0.531250 0.250000 0.375000
v 0.468750 0.250000 0.312500
v 0.531250 0.250000 0.312500
v 0.468750 0.375000 0.375000
v 0.531250 0.375000 0.375000
v 0.593750 0.187500 0.312500
v 0.593750 0.187500 0.375000
v 0.406250 0.187500 0.375000
v 0.593750 0.125000 0.375000
v 0.531250 0.125000 0.375000
v 0.406250 0.187500 0.312500
v 0.468750 0.187500 0.375000
v 0.531250 0.187500 0.375000
v 0.468750 0.187500 0.312500
v 0.531250 0.187500 0.312500
v 0.468750 0.125000 0.375000
v 0.406250 0.125000 0.375000
v 0.312500 0.312500 0.468750
v 0.312500 0.312500 0.531250
v 0.375000 0.312500 0.406250
v 0.375000 0.312500 0.468750
v 0.312500 0.312500 0.406250
v 0.375000 0.312500 0.531250
v 0.375000 0.312500 0.593750
v 0.375000 0.250000 0.593750
v 0.312500 0.250000 0.593750
v 0.312500 0.312500 0.593750
v 0.375000 0.250000 0.531250
v 0.375000 0.250000 0.468750
v 0.312500 0.250000 0.531250
v 0.312500 0.250000 0.468750
v 0.375000 0.375000 0.531250
v 0.375000 0.375000 0.468750
v 0.312500 0.187500 0.406250
v 0.375000 0.187500 0.406250
v 0.375000 0.187500 0.593750
v 0.375000 0.125000 0.406250
v 0.375000 0.125000 0.468750
v 0.312500 0.187500 0.593750
v 0.375000 0.187500 0.531250
v 0.375000 0.187500 0.468750
v 0.312500 0.187500 0.531250
v 0.312500 0.187500 0.468750
v 0.375000 0.125000 0.531250
v 0.375000 0.125000 0.593750
v 0.406250 0.250000 0.687500
v 0.468750 0.312500 0.687500
v 0.406250 0.250000 0.625000
v 0.531250 0.312500 0.687500
v 0.406250 0.312500 0.625000
v 0.468750 0.312500 0.625000
v 0.406250 0.312500 0.687500
v 0.531250 0.312500 0.625000
v 0.593750 0.312500 0.625000
v 0.593750 0.250000 0.625000
v 0.687500 0.250000 0.593750
v 0.625000 0.250000 0.593750
v 0.593750 0.250000 0.687500
v 0.593750 0.312500 0.687500
v 0.531250 0.250000 0.625000
v 0.468750 0.250000 0.625000
v 0.531250 0.250000 0.687500
v 0.468750 0.250000 0.687500
v 0.531250 0.375000 0.625000
v 0.468750 0.375000 0.625000
v 0.406250 0.187500 0.687500
v 0.406250 0.187500 0.625000
v 0.593750 0.187500 0.625000
v 0.406250 0.125000 0.625000
v 0.468750 0.125000 0.625000
v 0.593750 0.187500 0.687500
v 0.531250 0.187500 0.625000
v 0.468750 0.187500 0.625000
v 0.531250 0.187500 0.687500
v 0.468750 0.187500 0.687500
v 0.531250 0.125000 0.625000
v 0.593750 0.125000 0.625000
vt 0.343750 0.406250
vt 0.343750 0.375000
vt 0.375000 0.375000
vt 0.375000 0.406250
vt 0.281250 0.437500
vt 0.281250 0.406250
vt 0.312500 0.406250
vt 0.312500 0.437500
vt 0.343750 0.406250
vt 0.343750 0.375000
vt 0.375000 0.375000
vt 0.375000 0.406250
vt 0.281250 0.375000
vt 0.281250 0.406250
vt 0.250000 0.406250
vt 0.250000 0.375000
vt 0.250000 0.406250
vt 0.250000 0.375000
vt 0.281250 0.375000
vt 0.281250 0.406250
vt 0.250000 0.406250
vt 0.281250 0.406250
vt 0.281250 0.437500
vt 0.250000 0.437500
vt 0.281250 0.406250
vt 0.281250 0.437500
vt 0.250000 0.437500
vt 0.250000 0.406250
vt 0.218750 0.406250
vt 0.250000 0.406250
vt 0.250000 0.437500
vt 0.218750 0.437500
vt 0.343750 0.406250
vt 0.343750 0.375000
vt 0.375000 0.375000
vt 0.375000 0.406250
vt 0.281250 0.406250
vt 0.281250 0.437500
vt 0.312500 0.375000
vt 0.343750 0.375000
vt 0.343750 0.406250
vt 0.312500 0.406250
vt 0.281250 0.437500
vt 0.281250 0.406250
vt 0.312500 0.406250
vt 0.312500 0.437500
vt 0.343750 0.406250
vt 0.343750 0.375000
vt 0.375000 0.375000
vt 0.375000 0.406250
vt 0.250000 0.375000
vt 0.250000 0.406250
vt 0.281250 0.375000
vt 0.250000 0.375000
vt 0.250000 0.406250
vt 0.343750 0.375000
vt 0.281250 0.375000
vt 0.301880 0.406250
vt 0.323120 0.406250
vt 0.301880 0.406250
vt 0.343750 0.375000
vt 0.323120 0.406250
vt 0.343750 0.406250
vt 0.343750 0.437500
vt 0.406250 0.406250
vt 0.375000 0.406250
vt 0.406250 0.375000
vt 0.375000 0.437500
vt 0.343750 0.437500
vt 0.343750 0.406250
vt 0.375000 0.406250
vt 0.375000 0.406250
vt 0.406250 0.406250
vt 0.406250 0.375000
vt 0.375000 0.406250
vt 0.406250 0.406250
vt 0.406250 0.375000
vt 0.375000 0.437500
vt 0.343750 0.437500
vt 0.343750 0.406250
vt 0.375000 0.406250
vt 0.406250 0.406250
vt 0.375000 0.406250
vt 0.406250 0.375000
vt 0.343750 0.406250
vt 0.343750 0.375000
vt 0.375000 0.375000
vt 0.375000 0.406250
vt 0.281250 0.437500
vt 0.281250 0.406250
vt 0.312500 0.406250
vt 0.312500 0.437500
vt 0.343750 0.406250
vt 0.343750 0.375000
vt 0.375000 0.375000
vt 0.375000 0.406250
vt 0.281250 0.375000
vt 0.281250 0.406250
vt 0.250000 0.406250
vt 0.250000 0.375000
vt 0.250000 0.406250
vt 0.250000 0.375000
vt 0.281250 0.375000
vt 0.281250 0.406250
vt 0.250000 0.406250
vt 0.281250 0.406250
vt 0.281250 0.437500
vt 0.250000 0.437500
vt 0.281250 0.406250
vt 0.281250 0.437500
vt 0.250000 0.437500
vt 0.250000 0.406250
vt 0.218750 0.406250
vt 0.250000 0.406250
vt 0.250000 0.437500
vt 0.218750 0.437500
vt 0.343750 0.406250
vt 0.343750 0.375000
vt 0.375000 0.375000
vt 0.375000 0.406250
vt 0.281250 0.406250
vt 0.281250 0.437500
vt 0.312500 0.375000
vt 0.343750 0.375000
vt 0.343750 0.406250
vt 0.312500 0.406250
vt 0.281250 0.437500
vt 0.281250 0.406250
vt 0.312500 0.406250
vt 0.312500 0.437500
vt 0.343750 0.406250
vt 0.343750 0.375000
vt 0.375000 0.375000
vt 0.375000 0.406250
vt 0.250000 0.375000
vt 0.250000 0.406250
vt 0.281250 0.375000
vt 0.250000 0.375000
vt 0.250000 0.406250
vt 0.343750 0.375000
vt 0.281250 0.375000
vt 0.301880 0.406250
vt 0.323120 0.406250
vt 0.301880 0.406250
vt 0.343750 0.375000
vt 0.323120 0.406250
vt 0.343750 0.406250
vt 0.343750 0.437500
vt 0.406250 0.406250
vt 0.375000 0.406250
vt 0.406250 0.375000
vt 0.375000 0.437500
vt 0.343750 0.437500
vt 0.343750 0.406250
vt 0.375000 0.406250
vt 0.375000 0.406250
vt 0.406250 0.406250
vt 0.406250 0.375000
vt 0.375000 0.406250
vt 0.406250 0.406250
vt 0.406250 0.375000
vt 0.375000 0.437500
vt 0.343750 0.437500
vt 0.343750 0.406250
vt 0.375000 0.406250
vt 0.406250 0.406250
vt 0.375000 0.406250
vt 0.406250 0.375000
vt 0.343750 0.406250
vt 0.343750 0.375000
vt 0.375000 0.375000
vt 0.375000 0.406250
vt 0.281250 0.437500
vt 0.281250 0.406250
vt 0.312500 0.406250
vt 0.312500 0.437500
vt 0.343750 0.406250
vt 0.343750 0.375000
vt 0.375000 0.375000
vt 0.375000 0.406250
vt 0.281250 0.375000
vt 0.281250 0.406250
vt 0.250000 0.406250
vt 0.250000 0.375000
vt 0.250000 0.406250
vt 0.250000 0.375000
vt 0.281250 0.375000
vt 0.281250 0.406250
vt 0.250000 0.406250
vt 0.281250 0.406250
vt 0.281250 0.437500
vt 0.250000 0.437500
vt 0.281250 0.406250
vt 0.281250 0.437500
vt 0.250000 0.437500
vt 0.250000 0.406250
vt 0.218750 0.406250
vt 0.250000 0.406250
vt 0.250000 0.437500
vt 0.218750 0.437500
vt 0.343750 0.406250
vt 0.343750 0.375000
vt 0.375000 0.375000
vt 0.375000 0.406250
vt 0.281250 0.406250
vt 0.281250 0.437500
vt 0.312500 0.375000
vt 0.343750 0.375000
vt 0.343750 0.406250
vt 0.312500 0.406250
vt 0.281250 0.437500
vt 0.281250 0.406250
vt 0.312500 0.406250
vt 0.312500 0.437500
vt 0.343750 0.406250
vt 0.343750 0.375000
vt 0.375000 0.375000
vt 0.375000 0.406250
vt 0.250000 0.375000
vt 0.250000 0.406250
vt 0.281250 0.375000
vt 0.250000 0.375000
vt 0.250000 0.406250
vt 0.343750 0.375000
vt 0.281250 0.375000
vt 0.301880 0.406250
vt 0.323120 0.406250
vt 0.301880 0.406250
vt 0.343750 0.375000
vt 0.323120 0.406250
vt 0.343750 0.406250
vt 0.343750 0.437500
vt 0.406250 0.406250
vt 0.375000 0.406250
vt 0.406250 0.375000
vt 0.375000 0.437500
vt 0.343750 0.437500
vt 0.343750 0.406250
vt 0.375000 0.406250
vt 0.375000 0.406250
vt 0.406250 0.406250
vt 0.406250 0.375000
vt 0.375000 0.406250
vt 0.406250 0.406250
vt 0.406250 0.375000
vt 0.375000 0.437500
vt 0.343750 0.437500
vt 0.343750 0.406250
vt 0.375000 0.406250
vt 0.406250 0.406250
vt 0.375000 0.406250
vt 0.406250 0.375000
vt 0.343750 0.406250
vt 0.343750 0.375000
vt 0.375000 0.375000
vt 0.375000 0.406250
vt 0.281250 0.437500
vt 0.281250 0.406250
vt 0.312500 0.406250
vt 0.312500 0.437500
vt 0.343750 0.406250
vt 0.343750 0.375000
vt 0.375000 0.375000
vt 0.375000 0.406250
vt 0.281250 0.375000
vt 0.281250 0.406250
vt 0.250000 0.406250
vt 0.250000 0.375000
vt 0.250000 0.406250
vt 0.250000 0.375000
vt 0.281250 0.375000
vt 0.281250 0.406250
vt 0.250000 0.406250
vt 0.281250 0.406250
vt 0.281250 0.437500
vt 0.250000 0.437500
vt 0.281250 0.406250
vt 0.281250 0.437500
vt 0.250000 0.437500
vt 0.250000 0.406250
vt 0.218750 0.406250
vt 0.250000 0.406250
vt 0.250000 0.437500
vt 0.218750 0.437500
vt 0.343750 0.406250
vt 0.343750 0.375000
vt 0.375000 0.375000
vt 0.375000 0.406250
vt 0.281250 0.406250
vt 0.281250 0.437500
vt 0.312500 0.375000
vt 0.343750 0.375000
vt 0.343750 0.406250
vt 0.312500 0.406250
vt 0.281250 0.437500
vt 0.281250 0.406250
vt 0.312500 0.406250
vt 0.312500 0.437500
vt 0.343750 0.406250
vt 0.343750 0.375000
vt 0.375000 0.375000
vt 0.375000 0.406250
vt 0.250000 0.375000
vt 0.250000 0.406250
vt 0.281250 0.375000
vt 0.250000 0.375000
vt 0.250000 0.406250
vt 0.343750 0.375000
vt 0.281250 0.375000
vt 0.301880 0.406250
vt 0.323120 0.406250
vt 0.301880 0.406250
vt 0.343750 0.375000
vt 0.323120 0.406250
vt 0.343750 0.406250
vt 0.343750 0.437500
vt 0.406250 0.406250
vt 0.375000 0.406250
vt 0.406250 0.375000
vt 0.375000 0.437500
vt 0.343750 0.437500
vt 0.343750 0.406250
vt 0.375000 0.406250
vt 0.375000 0.406250
vt 0.406250 0.406250
vt 0.406250 0.375000
vt 0.375000 0.406250
vt 0.406250 0.406250
vt 0.406250 0.375000
vt 0.375000 0.437500
vt 0.343750 0.437500
vt 0.343750 0.406250
vt 0.375000 0.406250
vt 0.406250 0.406250
vt 0.375000 0.406250
vt 0.406250 0.375000
vn 0.0000 0.0000 -1.0000
vn 1.0000 0.0000 0.0000
vn 0.0000 0.0000 1.0000
vn 0.0000 1.0000 0.0000
vn 0.7071 0.7071 0.0000
vn 0.0000 -1.0000 0.0000
vn 0.7071 0.0000 -0.7071
vn 0.7071 -0.7071 0.0000
vn -1.0000 0.0000 0.0000
vn 0.0000 0.7071 -0.7071
vn -0.7071 0.0000 -0.7071
vn 0.0000 -0.7071 -0.7071
vn -0.7071 0.7071 0.0000
vn -0.7071 0.0000 0.7071
vn -0.7071 -0.7071 0.0000
vn 0.0000 0.7071 0.7071
vn 0.7071 -0.0000 0.7071
vn 0.0000 -0.7071 0.7071
usemtl RING
s off
f 32/29/15 46/30/15 44/31/15 30/32/15
f 115/33/16 37/34/16 46/35/16 32/36/16
f 116/37/17 38/38/17 37/39/17 115/40/17
f 17/41/18 20/42/18 19/43/18 21/44/18
f 22/45/18 18/46/18 28/47/18 23/48/18
f 17/49/19 18/50/19 33/51/19 34/52/19
f 32/53/16 17/54/16 21/55/16 115/56/16
f 32/57/16 31/58/16 18/59/16 17/60/16
f 27/61/15 42/62/15 39/63/15 24/64/15
f 18/59/16 31/58/16 27/65/16 28/66/16
f 30/67/20 29/68/20 31/69/20 32/70/20
f 31/71/16 45/72/16 42/73/16 27/74/16
f 29/75/17 43/76/17 45/77/17 31/78/17
f 20/79/17 17/41/17 34/80/17
f 18/81/15 22/82/15 33/83/15
f 25/84/20 27/85/20 24/86/20 26/87/20
f 23/88/18 28/47/18 36/89/18 35/90/18
f 25/91/21 36/92/21 28/66/21 27/65/21
f 44/93/15 46/94/15 41/95/15
f 46/96/22 37/97/22 40/98/22 41/99/22
f 37/100/17 38/101/17 40/102/17
f 45/103/17 43/104/17 47/105/17
f 42/106/22 45/107/22 47/108/22 48/109/22
f 39/110/15 42/111/15 48/112/15
f 62/113/23 74/114/23 72/115/23 60/116/23
f 25/117/15 65/118/15 74/119/15 62/120/15
f 26/121/16 66/122/16 65/123/16 25/124/16
f 49/125/18 51/126/18 35/127/18 36/128/18
f 52/129/18 50/130/18 58/131/18 53/132/18
f 49/133/24 50/134/24 63/135/24 64/136/24
f 62/137/15 49/138/15 36/139/15 25/140/15
f 62/141/15 61/142/15 50/143/15 49/144/15
f 57/145/23 70/146/23 67/147/23 54/148/23
f 50/143/15 61/142/15 57/149/15 58/150/15
f 60/151/20 59/152/20 61/153/20 62/154/20
f 61/155/15 73/156/15 70/157/15 57/158/15
f 59/159/16 71/160/16 73/161/16 61/162/16
f 51/163/16 49/125/16 64/164/16
f 50/165/23 52/166/23 63/167/23
f 55/168/20 57/169/20 54/170/20 56/171/20
f 53/172/18 58/131/18 81/173/18 79/174/18
f 55/175/25 81/176/25 58/150/25 57/149/25
f 72/177/23 74/178/23 69/179/23
f 74/180/26 65/181/26 68/182/26 69/183/26
f 65/184/16 66/185/16 68/186/16
f 73/187/16 71/188/16 75/189/16
f 70/190/26 73/191/26 75/192/26 76/193/26
f 67/194/23 70/195/23 76/196/23
f 90/197/17 102/198/17 100/199/17 88/200/17
f 55/201/23 93/202/23 102/203/23 90/204/23
f 56/205/15 94/206/15 93/207/15 55/208/15
f 77/209/18 80/210/18 79/211/18 81/212/18
f 82/213/18 78/214/18 86/215/18 83/216/18
f 77/217/27 78/218/27 91/219/27 92/220/27
f 90/221/23 77/222/23 81/223/23 55/224/23
f 90/225/23 89/226/23 78/227/23 77/228/23
f 85/229/17 98/230/17 95/231/17 84/232/17
f 78/227/23 89/226/23 85/233/23 86/234/23
f 88/235/20 87/236/20 89/237/20 90/238/20
f 89/239/23 101/240/23 98/241/23 85/242/23
f 87/243/15 99/244/15 101/245/15 89/246/15
f 80/247/15 77/209/15 92/248/15
f 78/249/17 82/250/17 91/251/17
f 105/252/20 85/253/20 84/254/20 107/255/20
f 83/256/18 86/215/18 111/257/18 109/258/18
f 105/259/28 111/260/28 86/234/28 85/233/28
f 100/261/17 102/262/17 97/263/17
f 102/264/29 93/265/29 96/266/29 97/267/29
f 93/268/15 94/269/15 96/270/15
f 101/271/15 99/272/15 103/273/15
f 98/274/29 101/275/29 103/276/29 104/277/29
f 95/278/17 98/279/17 104/280/17
f 122/281/16 134/282/16 132/283/16 120/284/16
f 105/285/17 125/286/17 134/287/17 122/288/17
f 107/289/23 126/290/23 125/291/23 105/292/23
f 106/293/18 110/294/18 109/295/18 111/296/18
f 112/297/18 108/298/18 118/299/18 113/300/18
f 106/301/30 108/302/30 123/303/30 124/304/30
f 122/305/17 106/306/17 111/307/17 105/308/17
f 122/309/17 121/310/17 108/311/17 106/312/17
f 117/313/16 130/314/16 127/315/16 114/316/16
f 108/311/17 121/310/17 117/317/17 118/318/17
f 120/319/20 119/320/20 121/321/20 122/322/20
f 121/323/17 133/324/17 130/325/17 117/326/17
f 119/327/23 131/328/23 133/329/23 121/330/23
f 110/331/23 106/293/23 124/332/23
f 108/333/16 112/334/16 123/335/16
f 115/336/20 117/337/20 114/338/20 116/339/20
f 113/340/18 118/299/18 21/341/18 19/342/18
f 115/343/31 21/344/31 118/318/31 117/317/31
f 132/345/16 134/346/16 129/347/16
f 134/348/32 125/349/32 128/350/32 129/351/32
f 125/352/23 126/353/23 128/354/23
f 133/355/23 131/356/23 135/357/23
f 130/358/32 133/359/32 135/360/32 136/361/32
f 127/362/16 130/363/16 136/364/16
