# Blender v2.80 (sub 75) OBJ File: 'constructs.blend'
# www.blender.org
mtllib head_smart.mtl
o HEAD_SMART_GOLD_Cube.222
v 0.156250 1.312500 0.156250
v 0.156250 1.625000 0.156250
v -0.156250 1.312500 0.156250
v -0.156250 1.625000 0.156250
v 0.156250 1.312500 -0.156250
v 0.156250 1.625000 -0.156250
v -0.156250 1.312500 -0.156250
v -0.156250 1.625000 -0.156250
v -0.156250 1.375000 0.093750
v -0.156250 1.562500 0.093750
v -0.156250 1.562500 -0.093750
v -0.156250 1.375000 -0.093750
v 0.156250 1.375000 -0.093750
v 0.156250 1.562500 -0.093750
v 0.156250 1.562500 0.093750
v 0.156250 1.375000 0.093750
v -0.140625 1.375000 -0.093750
v -0.140625 1.375000 0.093750
v -0.140625 1.562500 -0.093750
v 0.140625 1.375000 0.093750
v 0.093750 1.375000 0.156250
v -0.093750 1.609375 0.140625
v 0.093750 1.609375 0.140625
v -0.093750 1.375000 0.156250
v 0.093750 1.625000 -0.093750
v -0.093750 1.625000 -0.093750
v -0.093750 1.625000 0.156250
v 0.093750 1.625000 0.156250
v -0.093750 1.609375 -0.093750
v 0.093750 1.609375 -0.093750
v -0.140625 1.562500 0.093750
v 0.140625 1.375000 -0.093750
v 0.140625 1.562500 -0.093750
v 0.140625 1.562500 0.093750
v 0.093750 1.375000 0.140625
v -0.093750 1.375000 0.140625
v -0.031250 1.671875 -0.156250
v -0.031250 1.796875 -0.156250
v -0.031250 1.671875 -0.218750
v -0.031250 1.796875 -0.218750
v 0.031250 1.671875 -0.156250
v 0.031250 1.796875 -0.156250
v 0.031250 1.671875 -0.218750
v 0.031250 1.796875 -0.218750
v 0.000000 1.859375 -0.187500
v 0.062500 1.609375 -0.187500
v 0.062500 1.734375 -0.125000
v 0.062500 1.609375 -0.125000
v 0.000000 1.609375 -0.187500
v 0.125000 1.734375 -0.125000
v 0.125000 1.609375 0.187500
v 0.062500 1.734375 -0.187500
v 0.125000 1.609375 -0.187500
v 0.125000 1.734375 -0.187500
v 0.093750 1.796875 -0.156250
v 0.125000 1.734375 -0.000000
v 0.125000 1.609375 -0.062500
v 0.125000 1.609375 -0.000000
v 0.187500 1.734375 0.000000
v 0.187500 1.609375 0.000000
v 0.125000 1.734375 -0.062500
v 0.187500 1.609375 -0.062500
v 0.187500 1.734375 -0.062500
v 0.125000 1.703125 0.125000
v 0.125000 1.609375 0.062500
v 0.125000 1.609375 0.125000
v 0.187500 1.703125 0.125000
v 0.187500 1.609375 0.125000
v 0.125000 1.703125 0.062500
v 0.187500 1.609375 0.062500
v 0.187500 1.703125 0.062500
v 0.125000 1.671875 0.062500
v 0.187500 1.671875 0.062500
v 0.125000 1.671875 0.125000
v 0.187500 1.671875 0.125000
v 0.125000 1.671875 -0.062500
v 0.187500 1.671875 -0.062500
v 0.125000 1.671875 -0.000000
v 0.187500 1.671875 0.000000
v 0.125000 1.671875 -0.187500
v 0.062500 1.671875 -0.187500
v 0.062500 1.671875 -0.125000
v 0.125000 1.671875 -0.125000
v 0.125000 1.609375 -0.125000
v 0.187500 1.609375 -0.125000
v 0.187500 1.671875 -0.125000
v 0.125000 1.671875 0.187500
v -0.000000 1.609375 0.187500
v 0.000000 1.671875 0.125000
v -0.000000 1.671875 0.187500
v 0.156250 1.765625 -0.031250
v 0.156250 1.734375 0.093750
v -0.062500 1.609375 -0.187500
v -0.062500 1.734375 -0.125000
v -0.062500 1.609375 -0.125000
v -0.125000 1.734375 -0.125000
v -0.125000 1.609375 0.187500
v -0.062500 1.734375 -0.187500
v -0.125000 1.609375 -0.187500
v -0.125000 1.734375 -0.187500
v -0.093750 1.796875 -0.156250
v -0.125000 1.734375 -0.000000
v -0.125000 1.609375 -0.062500
v -0.125000 1.609375 -0.000000
v -0.187500 1.734375 0.000000
v -0.187500 1.609375 0.000000
v -0.125000 1.734375 -0.062500
v -0.187500 1.609375 -0.062500
v -0.187500 1.734375 -0.062500
v -0.125000 1.703125 0.125000
v -0.125000 1.609375 0.062500
v -0.125000 1.609375 0.125000
v -0.187500 1.703125 0.125000
v -0.187500 1.609375 0.125000
v -0.125000 1.703125 0.062500
v -0.187500 1.609375 0.062500
v -0.187500 1.703125 0.062500
v -0.125000 1.671875 0.062500
v -0.187500 1.671875 0.062500
v -0.125000 1.671875 0.125000
v -0.187500 1.671875 0.125000
v -0.125000 1.671875 -0.062500
v -0.187500 1.671875 -0.062500
v -0.125000 1.671875 -0.000000
v -0.187500 1.671875 0.000000
v -0.125000 1.671875 -0.187500
v -0.062500 1.671875 -0.187500
v -0.062500 1.671875 -0.125000
v -0.125000 1.671875 -0.125000
v -0.125000 1.609375 -0.125000
v -0.187500 1.609375 -0.125000
v -0.187500 1.671875 -0.125000
v -0.125000 1.671875 0.187500
v 0.000000 1.609375 0.125000
v -0.156250 1.765625 -0.031250
v -0.156250 1.734375 0.093750
v 0.125000 1.593750 -0.187500
v 0.062500 1.593750 -0.187500
v 0.187500 1.593750 0.125000
v 0.125000 1.593750 0.187500
v 0.062500 1.593750 -0.125000
v 0.187500 1.593750 -0.062500
v 0.125000 1.593750 -0.062500
v 0.187500 1.593750 0.000000
v 0.125000 1.593750 -0.000000
v 0.187500 1.593750 0.062500
v 0.125000 1.593750 0.062500
v 0.125000 1.593750 0.125000
v 0.187500 1.593750 -0.125000
v 0.125000 1.593750 -0.125000
v -0.000000 1.593750 0.187500
v -0.125000 1.593750 -0.187500
v -0.062500 1.593750 -0.187500
v -0.187500 1.593750 0.125000
v -0.125000 1.593750 0.187500
v -0.062500 1.593750 -0.125000
v -0.187500 1.593750 -0.062500
v -0.125000 1.593750 -0.062500
v -0.187500 1.593750 0.000000
v -0.125000 1.593750 -0.000000
v -0.187500 1.593750 0.062500
v -0.125000 1.593750 0.062500
v -0.125000 1.593750 0.125000
v -0.187500 1.593750 -0.125000
v -0.125000 1.593750 -0.125000
v 0.000000 1.593750 0.125000
vt 1.000000 0.218750
vt 0.984375 0.218750
vt 0.984375 0.281250
vt 1.000000 0.296875
vt 0.937500 0.312500
vt 0.984375 0.312500
vt 0.984375 0.328125
vt 0.937500 0.328125
vt 1.000000 0.375000
vt 1.000000 0.453125
vt 0.921875 0.453125
vt 0.921875 0.375000
vt 0.984375 0.328125
vt 0.937500 0.328125
vt 0.937500 0.312500
vt 0.984375 0.312500
vt 1.000000 0.296875
vt 0.984375 0.281250
vt 1.000000 0.296875
vt 1.000000 0.375000
vt 0.984375 0.359375
vt 0.921875 0.375000
vt 0.937500 0.359375
vt 0.921875 0.296875
vt 0.921875 0.296875
vt 0.921875 0.375000
vt 0.937500 0.359375
vt 0.937500 0.312500
vt 1.000000 0.375000
vt 0.984375 0.359375
vt 0.984375 0.312500
vt 0.937500 0.343750
vt 0.984375 0.343750
vt 0.953125 0.359375
vt 0.953125 0.312500
vt 0.937500 0.312500
vt 0.937500 0.359375
vt 0.968750 0.359375
vt 0.968750 0.312500
vt 0.984375 0.343750
vt 0.937500 0.343750
vt 0.968750 0.312500
vt 0.968750 0.359375
vt 0.953125 0.312500
vt 0.953125 0.359375
vt 0.937500 0.359375
vt 0.921875 0.218750
vt 0.921875 0.296875
vt 0.937500 0.281250
vt 0.937500 0.218750
vt 0.937500 0.281250
vt 0.937500 0.265625
vt 0.984375 0.265625
vt 0.921875 0.296875
vt 0.953125 0.281250
vt 0.953125 0.222656
vt 0.984375 0.265625
vt 0.937500 0.265625
vt 0.968750 0.281250
vt 0.968750 0.222656
vt 0.953125 0.281250
vt 0.968750 0.281250
vt 0.984375 0.468750
vt 0.968750 0.468750
vt 0.968750 0.484375
vt 0.984375 0.484375
vt 0.484375 0.515625
vt 0.484375 0.531250
vt 0.468750 0.531250
vt 0.468750 0.515625
vt 0.453125 0.531250
vt 0.453125 0.515625
vt 0.500000 0.515625
vt 0.500000 0.531250
vt 0.453125 0.578125
vt 0.453125 0.562500
vt 0.468750 0.562500
vt 0.468750 0.578125
vt 0.379282 0.587145
vt 0.379262 0.587070
vt 0.379261 0.586860
vt 0.379281 0.586948
vt 0.468750 0.546875
vt 0.453125 0.515625
vt 0.453125 0.531250
vt 0.437500 0.531250
vt 0.437500 0.515625
vt 0.484375 0.546875
vt 0.453125 0.546875
vt 0.375000 0.531250
vt 0.390625 0.531250
vt 0.390625 0.546875
vt 0.421875 0.531250
vt 0.421875 0.515625
vt 0.421875 0.578125
vt 0.421875 0.562500
vt 0.437500 0.562500
vt 0.437500 0.578125
vt 0.406250 0.531250
vt 0.406250 0.515625
vt 0.468750 0.625000
vt 0.484375 0.625000
vt 0.484375 0.609375
vt 0.468750 0.609375
vt 0.421875 0.515625
vt 0.421875 0.531250
vt 0.406250 0.531250
vt 0.406250 0.515625
vt 0.390625 0.515625
vt 0.390625 0.578125
vt 0.390625 0.562500
vt 0.406250 0.562500
vt 0.406250 0.578125
vt 0.375000 0.515625
vt 0.468750 0.625000
vt 0.453125 0.625000
vt 0.453125 0.609375
vt 0.468750 0.609375
vt 0.421875 0.546875
vt 0.382206 0.587252
vt 0.380780 0.587232
vt 0.380780 0.587050
vt 0.382206 0.587073
vt 0.437500 0.593750
vt 0.453125 0.593750
vt 0.390625 0.593750
vt 0.406250 0.593750
vt 0.406250 0.500000
vt 0.390625 0.500000
vt 0.382961 0.586954
vt 0.382734 0.587043
vt 0.382734 0.586829
vt 0.382961 0.586724
vt 0.421875 0.593750
vt 0.437500 0.500000
vt 0.421875 0.500000
vt 0.453125 0.500000
vt 0.453125 0.515625
vt 0.468750 0.593750
vt 0.500000 0.500000
vt 0.484375 0.500000
vt 0.437500 0.609375
vt 0.437500 0.593750
vt 0.453125 0.593750
vt 0.453125 0.609375
vt 0.468750 0.500000
vt 0.421875 0.609375
vt 0.406250 0.609375
vt 0.406250 0.593750
vt 0.421875 0.593750
vt 0.343750 0.625000
vt 0.375000 0.625000
vt 0.375000 0.609375
vt 0.343750 0.609375
vt 0.468750 0.609375
vt 0.375000 0.625000
vt 0.375000 0.609375
vt 0.382536 0.587122
vt 0.382536 0.586921
vt 0.375000 0.515625
vt 0.375000 0.500000
vt 0.390625 0.593750
vt 0.390625 0.609375
vt 0.375000 0.609375
vt 0.375000 0.593750
vt 0.343750 0.593750
vt 0.343750 0.578125
vt 0.375000 0.578125
vt 0.375000 0.609375
vt 0.343750 0.609375
vt 0.343750 0.593750
vt 0.375000 0.593750
vt 0.343750 0.515625
vt 0.343750 0.500000
vt 0.500000 0.546875
vt 0.406250 0.546875
vt 0.421875 0.546875
vt 0.437500 0.546875
vt 0.453125 0.546875
vt 0.484375 0.515625
vt 0.468750 0.515625
vt 0.468750 0.531250
vt 0.484375 0.531250
vt 0.453125 0.515625
vt 0.453125 0.531250
vt 0.500000 0.515625
vt 0.500000 0.531250
vt 0.453125 0.578125
vt 0.468750 0.578125
vt 0.468750 0.562500
vt 0.453125 0.562500
vt 0.437500 0.625000
vt 0.453125 0.625000
vt 0.453125 0.609375
vt 0.437500 0.609375
vt 0.468750 0.546875
vt 0.453125 0.515625
vt 0.437500 0.515625
vt 0.437500 0.531250
vt 0.453125 0.531250
vt 0.484375 0.546875
vt 0.453125 0.546875
vt 0.375000 0.531250
vt 0.390625 0.546875
vt 0.390625 0.531250
vt 0.421875 0.515625
vt 0.421875 0.531250
vt 0.421875 0.578125
vt 0.437500 0.578125
vt 0.437500 0.562500
vt 0.421875 0.562500
vt 0.406250 0.515625
vt 0.406250 0.531250
vt 0.390625 0.625000
vt 0.390625 0.609375
vt 0.421875 0.515625
vt 0.406250 0.515625
vt 0.406250 0.531250
vt 0.421875 0.531250
vt 0.390625 0.515625
vt 0.390625 0.578125
vt 0.406250 0.578125
vt 0.406250 0.562500
vt 0.390625 0.562500
vt 0.375000 0.515625
vt 0.379239 0.586985
vt 0.379213 0.586886
vt 0.379212 0.586644
vt 0.379239 0.586760
vt 0.421875 0.546875
vt 0.379299 0.587211
vt 0.379299 0.587026
vt 0.437500 0.593750
vt 0.453125 0.593750
vt 0.390625 0.593750
vt 0.406250 0.593750
vt 0.406250 0.500000
vt 0.390625 0.500000
vt 0.421875 0.593750
vt 0.437500 0.500000
vt 0.421875 0.500000
vt 0.453125 0.515625
vt 0.453125 0.500000
vt 0.468750 0.593750
vt 0.500000 0.500000
vt 0.484375 0.500000
vt 0.437500 0.609375
vt 0.453125 0.609375
vt 0.453125 0.593750
vt 0.437500 0.593750
vt 0.468750 0.500000
vt 0.421875 0.609375
vt 0.421875 0.593750
vt 0.406250 0.593750
vt 0.406250 0.609375
vt 0.437500 0.625000
vt 0.437500 0.609375
vt 0.468750 0.609375
vt 0.382361 0.587191
vt 0.382361 0.587002
vt 0.375000 0.500000
vt 0.375000 0.515625
vt 0.390625 0.593750
vt 0.375000 0.609375
vt 0.390625 0.609375
vt 0.375000 0.593750
vt 0.375000 0.578125
vt 0.375000 0.609375
vt 0.375000 0.593750
vt 0.500000 0.546875
vt 0.406250 0.546875
vt 0.421875 0.546875
vt 0.437500 0.546875
vt 0.453125 0.546875
vt 0.484375 0.625000
vt 0.484375 0.609375
vt 0.468750 0.609375
vt 0.468750 0.625000
vt 0.437500 0.625000
vt 0.421875 0.609375
vt 0.421875 0.625000
vt 0.406250 0.625000
vt 0.406250 0.609375
vt 0.390625 0.625000
vt 0.343750 0.625000
vt 0.375000 0.625000
vt 0.453125 0.625000
vt 0.468750 0.625000
vt 0.375000 0.625000
vt 0.484375 0.625000
vt 0.468750 0.625000
vt 0.468750 0.609375
vt 0.484375 0.609375
vt 0.437500 0.625000
vt 0.421875 0.625000
vt 0.421875 0.609375
vt 0.406250 0.625000
vt 0.390625 0.625000
vt 0.390625 0.609375
vt 0.406250 0.609375
vt 0.375000 0.625000
vt 0.453125 0.625000
vt 0.468750 0.625000
vt 0.375000 0.625000
vt 0.453125 0.609375
vt 0.468750 0.625000
vt 0.406250 0.625000
vt 0.421875 0.625000
vt 0.390625 0.625000
vt 0.406250 0.625000
vt 0.421875 0.625000
vt 0.380185 0.586904
vt 0.380234 0.586792
vt 0.380233 0.586534
vt 0.380185 0.586665
vt 0.484375 0.625000
vt 0.484375 0.609375
vt 0.382058 0.586937
vt 0.382058 0.586705
vt 0.382253 0.586831
vt 0.382253 0.586580
vt 0.000000 0.437500
vt 0.187500 0.437500
vt 0.187500 0.625000
vt 0.000000 0.625000
vt 0.000000 0.437500
vt 0.187500 0.437500
vt 0.187500 0.625000
vt -0.000000 0.625000
vt 0.187500 0.437500
vt 0.187500 0.203125
vt 0.000000 0.203125
vt 0.000000 0.437500
vt 0.000000 0.000000
vt 0.000000 0.234375
vt 0.187500 0.234375
vt 0.187500 0.000000
vt 0.250000 0.125000
vt 0.250000 0.250000
vt 0.187500 0.250000
vt 0.187500 0.125000
vt 0.125000 0.250000
vt 0.125000 0.125000
vt 0.187500 0.125000
vt 0.187500 0.250000
vt 0.250000 0.250000
vt 0.250000 0.125000
vt 0.312500 0.250000
vt 0.312500 0.125000
vt 0.312500 0.062500
vt 0.250000 0.312500
vt 0.312500 0.312500
vt 0.187500 0.312500
vt 0.187500 0.062500
vt 0.250000 0.062500
vn 0.0000 0.0000 1.0000
vn 0.0000 1.0000 0.0000
vn 0.0000 0.0000 -1.0000
vn -1.0000 0.0000 0.0000
vn 1.0000 0.0000 0.0000
vn 0.0000 -1.0000 0.0000
vn 0.8944 0.4472 0.0000
vn 0.0000 0.4472 -0.8944
vn 0.0000 0.4472 0.8944
vn 0.0000 0.7071 0.7071
vn 0.7071 0.0000 -0.7071
vn -0.7071 0.7071 0.0000
vn 0.7071 0.0000 0.7071
vn -0.8944 0.4472 0.0000
vn 0.7071 0.7071 0.0000
vn 0.0000 0.7071 -0.7071
vn -0.7071 0.0000 -0.7071
vn -0.7071 0.0000 0.7071
vn 0.0000 -0.4472 0.8944
vn 0.0000 -0.4472 -0.8944
vn -0.8944 -0.4472 0.0000
vn 0.8944 -0.4472 0.0000
usemtl MAIN
s off
f 2/1/1 28/2/1 21/3/1 1/4/1
f 12/5/2 9/6/2 18/7/2 17/8/2
f 7/9/3 8/10/3 6/11/3 5/12/3
f 16/13/2 13/14/2 32/15/2 20/16/2
f 28/2/2 2/1/2 6/17/2 25/18/2
f 3/19/4 4/20/4 10/21/4 9/6/4
f 4/20/4 8/22/4 11/23/4 10/21/4
f 8/22/4 7/24/4 12/5/4 11/23/4
f 7/24/4 3/19/4 9/6/4 12/5/4
f 5/25/5 6/26/5 14/27/5 13/28/5
f 6/26/5 2/29/5 15/30/5 14/27/5
f 2/29/5 1/4/5 16/31/5 15/30/5
f 1/4/5 5/25/5 13/28/5 16/31/5
f 10/21/6 11/23/6 19/32/6 31/33/6
f 11/34/1 12/35/1 17/36/1 19/37/1
f 9/6/3 10/21/3 31/38/3 18/39/3
f 14/27/6 15/30/6 34/40/6 33/41/6
f 15/30/3 16/31/3 20/42/3 34/43/3
f 13/44/1 14/45/1 33/46/1 32/15/1
f 4/47/1 3/48/1 24/49/1 27/50/1
f 25/18/1 26/51/1 29/52/1 30/53/1
f 3/48/1 1/4/1 21/3/1 24/49/1
f 4/47/2 27/50/2 26/51/2 8/54/2
f 6/17/2 8/54/2 26/51/2 25/18/2
f 27/50/5 24/49/5 36/55/5 22/56/5
f 24/49/2 21/3/2 35/57/2 36/58/2
f 28/2/4 25/18/4 30/59/4 23/60/4
f 26/51/5 27/50/5 22/56/5 29/61/5
f 21/3/4 28/2/4 23/60/4 35/62/4
f 5/63/6 1/64/6 3/65/6 7/66/6
f 81/67/3 52/68/3 54/69/3 80/70/3
f 80/70/5 54/69/5 50/71/5 83/72/5
f 82/73/4 47/74/4 52/68/4 81/67/4
f 83/75/1 50/76/1 47/77/1 82/78/1
f 65/79/4 58/80/4 145/81/4 147/82/4
f 50/71/7 54/69/7 55/83/7
f 76/84/3 61/85/3 63/86/3 77/87/3
f 54/69/8 52/68/8 55/88/8
f 47/77/9 50/76/9 55/89/9
f 64/90/10 67/91/10 92/92/10
f 77/87/5 63/86/5 59/93/5 79/94/5
f 78/95/4 56/96/4 61/97/4 76/98/4
f 79/94/1 59/93/1 56/99/1 78/100/1
f 99/101/3 93/102/3 153/103/3 152/104/3
f 72/105/3 69/106/3 71/107/3 73/108/3
f 73/108/5 71/107/5 67/91/5 75/109/5
f 74/110/4 64/111/4 69/112/4 72/113/4
f 75/109/1 67/91/1 64/90/1 74/114/1
f 53/115/11 85/116/11 149/117/11 137/118/11
f 61/97/12 56/96/12 91/119/12
f 112/120/3 134/121/3 166/122/3 163/123/3
f 57/124/4 76/98/4 83/75/4 84/125/4
f 66/126/4 74/110/4 72/113/4 65/127/4
f 70/128/5 73/108/5 75/109/5 68/129/5
f 130/130/5 103/131/5 158/132/5 165/133/5
f 58/134/4 78/95/4 76/98/4 57/124/4
f 62/135/5 77/87/5 79/94/5 60/136/5
f 77/87/5 62/135/5 85/137/5 86/138/5
f 84/125/1 83/75/1 82/78/1 48/139/1
f 48/140/4 82/73/4 81/67/4 46/141/4
f 76/142/2 77/143/2 86/144/2 83/145/2
f 46/141/3 81/67/3 80/70/3 53/146/3
f 53/146/11 80/70/11 86/138/11 85/137/11
f 58/134/4 65/127/4 72/113/4 78/95/4
f 78/147/2 72/148/2 73/149/2 79/150/2
f 79/94/5 73/108/5 70/128/5 60/136/5
f 88/151/1 97/152/1 155/153/1 151/154/1
f 83/145/2 86/144/2 80/155/2
f 51/156/1 88/151/1 151/154/1 140/157/1
f 103/131/5 104/158/5 160/159/5 158/132/5
f 68/129/13 75/109/13 87/160/13 51/161/13
f 75/162/2 74/163/2 87/164/2
f 66/165/3 134/166/3 89/167/3 74/168/3
f 74/169/2 89/170/2 90/171/2 87/172/2
f 51/161/1 87/160/1 90/173/1 88/174/1
f 52/68/14 47/74/14 55/175/14
f 69/112/12 64/111/12 92/92/12
f 67/91/15 71/107/15 92/176/15
f 71/107/16 69/106/16 92/177/16
f 56/99/10 59/93/10 91/119/10
f 59/93/15 63/86/15 91/178/15
f 63/86/16 61/85/16 91/179/16
f 127/180/3 126/181/3 100/182/3 98/183/3
f 126/181/4 129/184/4 96/185/4 100/182/4
f 128/186/5 127/180/5 98/183/5 94/187/5
f 129/188/1 128/189/1 94/190/1 96/191/1
f 108/192/4 131/193/4 164/194/4 157/195/4
f 96/185/14 101/196/14 100/182/14
f 122/197/3 123/198/3 109/199/3 107/200/3
f 100/182/8 101/201/8 98/183/8
f 94/190/9 101/202/9 96/191/9
f 110/203/10 136/204/10 113/205/10
f 123/198/4 125/206/4 105/207/4 109/199/4
f 124/208/5 122/209/5 107/210/5 102/211/5
f 125/206/1 124/212/1 102/213/1 105/207/1
f 68/214/13 51/156/13 140/157/13 139/215/13
f 118/216/3 119/217/3 117/218/3 115/219/3
f 119/217/4 121/220/4 113/205/4 117/218/4
f 120/221/5 118/222/5 115/223/5 110/224/5
f 121/220/1 120/225/1 110/203/1 113/205/1
f 57/226/4 84/227/4 150/228/4 143/229/4
f 107/210/15 135/230/15 102/211/15
f 134/121/3 66/231/3 148/232/3 166/122/3
f 103/233/5 130/234/5 129/188/5 122/209/5
f 112/235/5 111/236/5 118/222/5 120/221/5
f 116/237/4 114/238/4 121/220/4 119/217/4
f 58/80/4 57/226/4 143/229/4 145/81/4
f 104/239/5 103/233/5 122/209/5 124/208/5
f 108/240/4 106/241/4 125/206/4 123/198/4
f 123/198/4 132/242/4 131/243/4 108/240/4
f 130/234/1 95/244/1 128/189/1 129/188/1
f 95/245/5 93/246/5 127/180/5 128/186/5
f 122/247/2 129/248/2 132/249/2 123/250/2
f 93/246/3 99/251/3 126/181/3 127/180/3
f 99/251/17 131/243/17 132/242/17 126/181/17
f 104/239/5 124/208/5 118/222/5 111/236/5
f 124/252/2 125/253/2 119/254/2 118/255/2
f 125/206/4 106/241/4 116/237/4 119/217/4
f 85/116/5 62/256/5 142/257/5 149/117/5
f 129/248/2 126/258/2 132/249/2
f 111/259/5 112/120/5 163/123/5 162/260/5
f 66/231/4 65/79/4 147/82/4 148/232/4
f 114/238/18 97/261/18 133/262/18 121/220/18
f 121/263/2 133/264/2 120/265/2
f 112/266/3 120/267/3 89/167/3 134/166/3
f 120/268/2 133/269/2 90/171/2 89/170/2
f 97/261/1 88/174/1 90/173/1 133/262/1
f 98/183/7 101/270/7 94/187/7
f 115/223/15 136/204/15 110/224/15
f 113/205/12 136/271/12 117/218/12
f 117/218/16 136/272/16 115/219/16
f 102/213/10 135/230/10 105/207/10
f 105/207/12 135/273/12 109/199/12
f 109/199/16 135/274/16 107/200/16
f 138/275/6 137/276/6 150/277/6 141/278/6
f 143/279/6 142/257/6 144/280/6 145/281/6
f 147/282/6 146/283/6 139/215/6 148/284/6
f 140/157/6 151/154/6 166/285/6 148/286/6
f 142/257/6 143/279/6 150/287/6 149/117/6
f 144/280/6 146/283/6 147/282/6 145/281/6
f 149/117/6 150/287/6 137/288/6
f 148/284/6 139/215/6 140/289/6
f 153/290/6 156/291/6 165/292/6 152/293/6
f 158/294/6 160/295/6 159/296/6 157/195/6
f 162/297/6 163/298/6 154/299/6 161/300/6
f 155/153/6 163/301/6 166/285/6 151/154/6
f 157/195/6 164/194/6 165/302/6 158/294/6
f 159/296/6 160/295/6 162/297/6 161/300/6
f 164/194/6 152/303/6 165/302/6
f 163/298/6 155/304/6 154/299/6
f 131/193/17 99/305/17 152/104/17 164/306/17
f 70/307/5 68/214/5 139/215/5 146/283/5
f 62/256/5 60/308/5 144/280/5 142/257/5
f 104/158/5 111/259/5 162/260/5 160/159/5
f 114/309/4 116/310/4 161/300/4 154/299/4
f 106/311/4 108/192/4 157/195/4 159/296/4
f 48/312/4 46/313/4 138/314/4 141/315/4
f 60/308/5 70/307/5 146/283/5 144/280/5
f 46/316/3 53/115/3 137/118/3 138/317/3
f 116/310/4 106/311/4 159/296/4 161/300/4
f 97/152/18 114/309/18 154/299/18 155/153/18
f 84/227/1 48/312/1 141/315/1 150/228/1
f 95/318/1 130/130/1 165/133/1 156/319/1
f 93/320/5 95/318/5 156/319/5 153/321/5
usemtl CIRCUITRY
f 18/322/4 31/323/4 19/324/4 17/325/4
f 32/326/5 33/327/5 34/328/5 20/329/5
f 29/330/2 22/331/2 23/332/2 30/333/2
f 35/334/1 23/335/1 22/336/1 36/337/1
usemtl CHIMERITE
f 37/338/4 38/339/4 40/340/4 39/341/4
f 39/341/3 40/340/3 44/342/3 43/343/3
f 43/344/5 44/345/5 42/346/5 41/347/5
f 41/347/1 42/346/1 38/348/1 37/349/1
f 41/347/19 37/349/19 49/350/19
f 42/346/7 44/345/7 45/351/7
f 40/340/14 38/339/14 45/351/14
f 38/348/9 42/346/9 45/352/9
f 44/342/8 40/340/8 45/353/8
f 39/341/20 43/343/20 49/354/20
f 37/338/21 39/341/21 49/355/21
f 43/344/22 41/347/22 49/355/22
