# Blender v2.80 (sub 75) OBJ File: 'construct_arch.blend'
# www.blender.org
mtllib constructgantry_arch.mtl
o ARCH_Cube.012
v 1.937500 0.000000 -0.000000
v 1.875000 0.875000 0.937500
v 1.937500 0.000000 1.000000
v 1.500000 0.875000 0.937500
v 1.437500 0.000000 0.000000
v 1.875000 0.875000 0.062500
v 1.437500 0.000000 1.000000
v 1.500000 0.875000 0.062500
v 1.937500 0.500000 -0.000000
v 1.937500 0.500000 1.000000
v 1.437500 0.500000 1.000000
v 1.437500 0.500000 0.000000
v 1.875000 0.750000 0.062500
v 1.875000 0.750000 0.937500
v 1.500000 0.750000 0.937500
v 1.500000 0.750000 0.062500
v 1.875000 1.125000 0.312500
v 1.875000 1.125000 0.687500
v 1.500000 1.125000 0.687500
v 1.500000 1.125000 0.312500
v 1.875000 2.125000 0.312500
v 1.875000 2.125000 0.687500
v 1.500000 2.125000 0.312500
v 2.000000 0.000000 0.250000
v 2.000000 0.000000 0.750000
v 2.000000 0.375000 0.250000
v 2.000000 0.375000 0.750000
v 1.937500 0.000000 0.250000
v 1.937500 0.000000 0.750000
v 1.937500 0.437500 0.250000
v 1.937500 0.437500 0.750000
v 1.375000 0.000000 0.750000
v 1.375000 0.000000 0.250000
v 1.375000 0.375000 0.750000
v 1.375000 0.375000 0.250000
v 1.437500 0.000000 0.750000
v 1.437500 0.000000 0.250000
v 1.437500 0.437500 0.750000
v 1.437500 0.437500 0.250000
v 1.000000 3.000000 0.687500
v 1.000000 2.625000 0.312500
v 1.000000 3.000000 0.312500
v 1.500000 2.125000 0.687500
v 1.000000 2.625000 0.687500
v 1.765165 2.390165 0.687500
v 1.765165 2.390165 0.312500
v 1.265165 2.890165 0.312500
v 1.265165 2.890165 0.687500
v 1.500000 2.125000 0.250000
v 1.937500 2.125000 0.250000
v 1.000000 3.062500 0.250000
v 1.000000 2.625000 0.250000
v 1.809359 2.434359 0.250000
v 1.309359 2.934359 0.250000
v 1.937500 2.306219 0.250000
v 1.181219 3.062500 0.250000
v 1.500000 2.125000 0.750000
v 1.809359 2.434359 0.750000
v 1.000000 2.625000 0.750000
v 1.309359 2.934359 0.750000
v 1.937500 2.125000 0.750000
v 1.000000 3.062500 0.750000
v 1.937500 2.306219 0.750000
v 1.181219 3.062500 0.750000
v -0.937500 0.000000 -0.000000
v -0.875000 0.875000 0.937500
v -0.937500 0.000000 1.000000
v -0.500000 0.875000 0.937500
v -0.437500 0.000000 0.000000
v -0.875000 0.875000 0.062500
v -0.437500 0.000000 1.000000
v -0.500000 0.875000 0.062500
v -0.937500 0.500000 -0.000000
v -0.937500 0.500000 1.000000
v -0.437500 0.500000 1.000000
v -0.437500 0.500000 0.000000
v -0.875000 0.750000 0.062500
v -0.875000 0.750000 0.937500
v -0.500000 0.750000 0.937500
v -0.500000 0.750000 0.062500
v -0.875000 1.125000 0.312500
v -0.875000 1.125000 0.687500
v -0.500000 1.125000 0.687500
v -0.500000 1.125000 0.312500
v -0.875000 2.125000 0.312500
v -0.875000 2.125000 0.687500
v -0.500000 2.125000 0.312500
v -1.000000 0.000000 0.250000
v -1.000000 0.000000 0.750000
v -1.000000 0.375000 0.250000
v -1.000000 0.375000 0.750000
v -0.937500 0.000000 0.250000
v -0.937500 0.000000 0.750000
v -0.937500 0.437500 0.250000
v -0.937500 0.437500 0.750000
v -0.375000 0.000000 0.750000
v -0.375000 0.000000 0.250000
v -0.375000 0.375000 0.750000
v -0.375000 0.375000 0.250000
v -0.437500 0.000000 0.750000
v -0.437500 0.000000 0.250000
v -0.437500 0.437500 0.750000
v -0.437500 0.437500 0.250000
v 0.000000 3.000000 0.687500
v 0.000000 2.625000 0.312500
v 0.000000 3.000000 0.312500
v -0.500000 2.125000 0.687500
v 0.000000 2.625000 0.687500
v -0.765165 2.390165 0.687500
v -0.765165 2.390165 0.312500
v -0.265165 2.890165 0.312500
v -0.265165 2.890165 0.687500
v -0.500000 2.125000 0.250000
v -0.937500 2.125000 0.250000
v 0.000000 3.062500 0.250000
v 0.000000 2.625000 0.250000
v -0.809359 2.434359 0.250000
v -0.309359 2.934359 0.250000
v -0.937500 2.306219 0.250000
v -0.181219 3.062500 0.250000
v -0.500000 2.125000 0.750000
v -0.809359 2.434359 0.750000
v 0.000000 2.625000 0.750000
v -0.309359 2.934359 0.750000
v -0.937500 2.125000 0.750000
v 0.000000 3.062500 0.750000
v -0.937500 2.306219 0.750000
v -0.181219 3.062500 0.750000
vt 0.031250 0.375000
vt 0.468750 0.375000
vt 0.468750 0.437500
vt 0.031250 0.437500
vt 0.468750 0.375000
vt 0.031250 0.375000
vt 0.031250 0.437500
vt 0.468750 0.437500
vt 0.531250 0.375000
vt 0.718750 0.375000
vt 0.718750 0.437500
vt 0.531250 0.437500
vt 0.156250 0.562500
vt 0.343750 0.562500
vt 0.031250 0.406250
vt -0.000000 0.406250
vt -0.000000 0.375000
vt 0.031250 0.375000
vt 0.531250 0.375000
vt 0.718750 0.375000
vt 0.718750 0.437500
vt 0.531250 0.437500
vt 0.750000 0.000000
vt 0.750000 0.250000
vt 0.500000 0.250000
vt 0.500000 0.000000
vt 0.500000 0.250000
vt 0.000000 0.250000
vt 0.125000 0.218750
vt 0.375000 0.218750
vt 0.750000 -0.000000
vt 0.750000 0.250000
vt 0.500000 0.000000
vt 0.000000 -0.000000
vt 0.125000 -0.000000
vt -0.000000 0.250000
vt 0.500000 0.250000
vt 0.500000 1.000000
vt 0.500000 0.812500
vt 1.000000 0.812500
vt 1.000000 1.000000
vt 0.343750 0.562500
vt 0.156250 0.562500
vt 0.718750 0.562500
vt 0.531250 0.562500
vt 0.718750 0.562500
vt 0.531250 0.562500
vt 0.000000 1.000000
vt 0.000000 0.812500
vt 0.500000 0.812500
vt 0.500000 1.000000
vt 0.000000 0.812500
vt 0.000000 1.000000
vt 0.500000 1.000000
vt 0.500000 0.812500
vt 0.500000 0.812500
vt 0.500000 1.000000
vt 1.000000 1.000000
vt 1.000000 0.812500
vt 0.125000 -0.000000
vt 0.125000 0.187500
vt 0.375000 0.187500
vt 0.375000 -0.000000
vt 0.125000 0.218750
vt 0.375000 0.218750
vt 0.875000 0.625000
vt 0.875000 0.437500
vt 0.843750 0.437500
vt 0.843750 0.656250
vt 0.812500 0.437500
vt 0.812500 0.625000
vt 0.843750 0.656250
vt 0.843750 0.437500
vt 0.031250 0.406250
vt -0.000000 0.406250
vt -0.000000 0.375000
vt 0.031250 0.375000
vt 0.375000 -0.000000
vt 0.375000 0.187500
vt 0.125000 0.187500
vt 0.125000 -0.000000
vt 0.875000 0.625000
vt 0.875000 0.437500
vt 0.843750 0.437500
vt 0.843750 0.656250
vt 0.812500 0.437500
vt 0.812500 0.625000
vt 0.843750 0.656250
vt 0.843750 0.437500
vt -0.000000 0.375000
vt 0.031250 0.375000
vt 0.031250 0.406250
vt -0.000000 0.406250
vt 0.000000 0.812500
vt 0.500000 0.812500
vt 0.500000 1.000000
vt 0.000000 1.000000
vt 0.000000 -0.000000
vt 0.125000 -0.000000
vt 0.500000 0.000000
vt 0.375000 -0.000000
vt 0.375000 -0.000000
vt 0.937500 1.000000
vt 0.937500 0.812500
vt 0.562500 0.812500
vt 0.562500 1.000000
vt 0.062500 0.812500
vt 0.437500 0.812500
vt 0.437500 1.000000
vt 0.062500 1.000000
vt 0.937500 0.812500
vt 0.937500 1.000000
vt 0.562500 1.000000
vt 0.562500 0.812500
vt 0.437500 0.812500
vt 0.062500 0.812500
vt 0.062500 1.000000
vt 0.437500 1.000000
vt 0.750000 0.031250
vt 0.750000 0.218750
vt 0.781250 0.250000
vt 0.781250 0.000000
vt 0.750000 0.468750
vt 0.750000 0.281250
vt 0.781250 0.250000
vt 0.781250 0.468750
vt 0.750000 0.281250
vt 0.750000 0.468750
vt 0.781250 0.468750
vt 0.781250 0.250000
vt 0.750000 0.468750
vt 0.750000 0.281250
vt 0.781250 0.250000
vt 0.781250 0.468750
vt 0.750000 0.281250
vt 0.750000 0.468750
vt 0.781250 0.468750
vt 0.781250 0.250000
vt 0.750000 0.218750
vt 0.750000 0.031250
vt 0.781250 0.000000
vt 1.000000 0.812500
vt 0.500000 0.812500
vt 0.500000 1.000000
vt 1.000000 1.000000
vt 0.000000 0.812500
vt 0.500000 0.812500
vt 0.500000 1.000000
vt -0.000000 1.000000
vt 0.875000 0.250000
vt 0.875000 0.250000
vt 0.781250 0.250000
vt 0.750000 0.281250
vt 0.750000 0.281250
vt 0.750000 0.031250
vt 0.750000 0.218750
vt 0.781250 0.000000
vt 0.781250 0.250000
vt 0.875000 0.250000
vt 0.875000 0.250000
vt 0.781250 0.250000
vt 0.750000 0.281250
vt 0.750000 0.281250
vt 0.781250 0.000000
vt 0.875000 0.000000
vt 0.750000 0.218750
vt 0.750000 0.031250
vt 0.875000 0.000000
vt 0.031250 0.375000
vt 0.031250 0.437500
vt 0.468750 0.437500
vt 0.468750 0.375000
vt 0.468750 0.375000
vt 0.468750 0.437500
vt 0.031250 0.437500
vt 0.031250 0.375000
vt 0.531250 0.375000
vt 0.531250 0.437500
vt 0.718750 0.437500
vt 0.718750 0.375000
vt 0.343750 0.562500
vt 0.156250 0.562500
vt -0.000000 0.406250
vt -0.000000 0.375000
vt 0.031250 0.375000
vt 0.031250 0.406250
vt 0.531250 0.375000
vt 0.531250 0.437500
vt 0.718750 0.437500
vt 0.718750 0.375000
vt 0.750000 0.000000
vt 0.500000 0.000000
vt 0.500000 0.250000
vt 0.750000 0.250000
vt 0.500000 0.250000
vt 0.375000 0.218750
vt 0.125000 0.218750
vt 0.000000 0.250000
vt 0.750000 -0.000000
vt 0.500000 0.000000
vt 0.750000 0.250000
vt 0.125000 -0.000000
vt 0.000000 -0.000000
vt -0.000000 0.250000
vt 0.500000 0.250000
vt 0.500000 1.000000
vt 1.000000 1.000000
vt 1.000000 0.812500
vt 0.500000 0.812500
vt 0.156250 0.562500
vt 0.343750 0.562500
vt 0.531250 0.562500
vt 0.718750 0.562500
vt 0.531250 0.562500
vt 0.718750 0.562500
vt 0.000000 1.000000
vt 0.500000 1.000000
vt 0.500000 0.812500
vt 0.000000 0.812500
vt 0.000000 0.812500
vt 0.500000 0.812500
vt 0.500000 1.000000
vt 0.000000 1.000000
vt 0.500000 0.812500
vt 1.000000 0.812500
vt 1.000000 1.000000
vt 0.500000 1.000000
vt 0.125000 -0.000000
vt 0.375000 -0.000000
vt 0.375000 0.187500
vt 0.125000 0.187500
vt 0.375000 0.218750
vt 0.125000 0.218750
vt 0.875000 0.625000
vt 0.843750 0.656250
vt 0.843750 0.437500
vt 0.875000 0.437500
vt 0.812500 0.437500
vt 0.843750 0.437500
vt 0.843750 0.656250
vt 0.812500 0.625000
vt -0.000000 0.406250
vt -0.000000 0.375000
vt 0.031250 0.375000
vt 0.031250 0.406250
vt 0.375000 -0.000000
vt 0.125000 -0.000000
vt 0.125000 0.187500
vt 0.375000 0.187500
vt 0.875000 0.625000
vt 0.843750 0.656250
vt 0.843750 0.437500
vt 0.875000 0.437500
vt 0.812500 0.437500
vt 0.843750 0.437500
vt 0.843750 0.656250
vt 0.812500 0.625000
vt 0.031250 0.375000
vt 0.031250 0.406250
vt -0.000000 0.406250
vt -0.000000 0.375000
vt 0.000000 -0.000000
vt 0.125000 -0.000000
vt 0.375000 -0.000000
vt 0.500000 0.000000
vt 0.375000 -0.000000
vt 0.937500 1.000000
vt 0.562500 1.000000
vt 0.562500 0.812500
vt 0.937500 0.812500
vt 0.062500 0.812500
vt 0.062500 1.000000
vt 0.437500 1.000000
vt 0.437500 0.812500
vt 0.937500 0.812500
vt 0.562500 0.812500
vt 0.562500 1.000000
vt 0.937500 1.000000
vt 0.437500 0.812500
vt 0.437500 1.000000
vt 0.062500 1.000000
vt 0.062500 0.812500
vt 0.750000 0.031250
vt 0.781250 0.000000
vt 0.781250 0.250000
vt 0.750000 0.218750
vt 0.750000 0.468750
vt 0.781250 0.468750
vt 0.781250 0.250000
vt 0.750000 0.281250
vt 0.750000 0.281250
vt 0.781250 0.250000
vt 0.781250 0.468750
vt 0.750000 0.468750
vt 0.750000 0.468750
vt 0.781250 0.468750
vt 0.781250 0.250000
vt 0.750000 0.281250
vt 0.750000 0.281250
vt 0.781250 0.250000
vt 0.781250 0.468750
vt 0.750000 0.468750
vt 0.750000 0.218750
vt 0.781250 0.000000
vt 0.750000 0.031250
vt 0.875000 0.250000
vt 0.875000 0.250000
vt 0.781250 0.250000
vt 0.750000 0.281250
vt 0.750000 0.281250
vt 0.750000 0.031250
vt 0.781250 0.000000
vt 0.750000 0.218750
vt 0.875000 0.250000
vt 0.781250 0.250000
vt 0.875000 0.250000
vt 0.781250 0.250000
vt 0.750000 0.281250
vt 0.750000 0.281250
vt 0.781250 0.000000
vt 0.875000 0.000000
vt 0.750000 0.218750
vt 0.750000 0.031250
vt 0.875000 0.000000
vt 0.500000 0.812500
vt 1.000000 0.812500
vt 1.000000 1.000000
vn -1.0000 0.0000 0.0000
vn 1.0000 0.0000 0.0000
vn 0.0000 0.0000 -1.0000
vn 0.0000 -1.0000 0.0000
vn 0.0000 0.0000 1.0000
vn -0.0000 0.2425 -0.9701
vn -0.9701 0.2425 0.0000
vn 0.0000 0.2425 0.9701
vn 0.9701 0.2425 0.0000
vn -0.0000 0.7071 -0.7071
vn 0.0000 0.7071 0.7071
vn 0.7071 0.7071 0.0000
vn -0.7071 0.7071 0.0000
vn -0.7071 -0.7071 0.0000
vn 0.7071 -0.7071 -0.0000
vn 0.0000 1.0000 0.0000
usemtl MAIN
s off
f 16/1/1 15/2/1 4/3/1 8/4/1
f 14/5/2 13/6/2 6/7/2 2/8/2
f 13/9/3 16/10/3 8/11/3 6/12/3
f 2/8/2 6/7/2 17/13/2 18/14/2
f 3/15/4 7/16/4 5/17/4 1/18/4
f 15/19/5 14/20/5 2/21/5 4/22/5
f 5/23/3 12/24/3 9/25/3 1/26/3
f 11/27/1 12/28/1 39/29/1 38/30/1
f 3/31/5 10/32/5 11/27/5 7/33/5
f 12/28/1 5/34/1 37/35/1 39/29/1
f 12/24/6 16/10/6 13/9/6 9/25/6
f 11/27/7 15/2/7 16/1/7 12/28/7
f 10/32/8 14/20/8 15/19/8 11/27/8
f 9/36/9 13/6/9 14/5/9 10/37/9
f 18/38/2 17/39/2 21/40/2 22/41/2
f 8/4/1 4/3/1 19/42/1 20/43/1
f 6/12/10 8/11/10 20/44/10 17/45/10
f 4/22/11 2/21/11 18/46/11 19/47/11
f 17/48/3 20/49/3 23/50/3 21/51/3
f 19/52/5 18/53/5 22/54/5 43/55/5
f 20/56/1 19/57/1 43/58/1 23/59/1
f 24/60/2 26/61/2 27/62/2 25/63/2
f 27/62/12 26/61/12 30/64/12 31/65/12
f 26/66/3 24/67/3 28/68/3 30/69/3
f 25/70/5 27/71/5 31/72/5 29/73/5
f 25/74/4 29/75/4 28/76/4 24/77/4
f 32/78/1 34/79/1 35/80/1 33/81/1
f 35/80/13 34/79/13 38/30/13 39/29/13
f 34/82/5 32/83/5 36/84/5 38/85/5
f 33/86/3 35/87/3 39/88/3 37/89/3
f 33/90/4 37/91/4 36/92/4 32/93/4
f 108/94/5 44/95/5 40/96/5 104/97/5
f 1/98/2 9/36/2 30/64/2 28/99/2
f 9/36/2 10/37/2 31/65/2 30/64/2
f 10/37/2 3/100/2 29/101/2 31/65/2
f 7/33/1 11/27/1 38/30/1 36/102/1
f 47/103/12 48/104/12 45/105/12 46/106/12
f 23/107/3 41/108/3 47/109/3 46/110/3
f 44/111/14 41/112/14 23/113/14 43/114/14
f 44/115/5 43/116/5 45/117/5 48/118/5
f 22/119/4 21/120/4 50/121/4 61/122/4
f 41/123/1 42/124/1 51/125/1 52/126/1
f 40/127/1 44/128/1 59/129/1 62/130/1
f 23/131/13 46/132/13 53/133/13 49/134/13
f 45/135/13 43/136/13 57/137/13 58/138/13
f 46/139/13 45/140/13 58/141/13 53/133/13
f 44/142/4 108/143/4 105/144/4 41/145/4
f 41/146/3 105/147/3 106/148/3 42/149/3
f 50/121/3 49/134/3 55/150/3
f 55/150/3 49/134/3 53/133/3
f 52/126/3 51/125/3 56/151/3
f 52/126/3 56/151/3 54/152/3
f 21/153/4 23/131/4 49/134/4 50/121/4
f 47/154/15 41/123/15 52/126/15 54/152/15
f 48/155/15 47/156/15 54/152/15 60/157/15
f 57/137/5 61/158/5 63/159/5
f 57/137/5 63/159/5 58/138/5
f 59/129/5 64/160/5 62/130/5
f 64/160/5 59/129/5 60/161/5
f 43/136/4 22/162/4 61/158/4 57/137/4
f 44/128/15 48/163/15 60/161/15 59/129/15
f 62/164/16 64/165/16 56/151/16 51/125/16
f 42/166/1 40/167/1 62/164/1 51/125/1
f 60/157/12 54/152/12 56/151/12 64/165/12
f 53/133/12 58/141/12 63/168/12 55/150/12
f 50/121/2 55/150/2 63/168/2 61/122/2
f 80/169/2 72/170/2 68/171/2 79/172/2
f 78/173/1 66/174/1 70/175/1 77/176/1
f 77/177/3 70/178/3 72/179/3 80/180/3
f 66/174/1 82/181/1 81/182/1 70/175/1
f 67/183/4 65/184/4 69/185/4 71/186/4
f 79/187/5 68/188/5 66/189/5 78/190/5
f 69/191/3 65/192/3 73/193/3 76/194/3
f 75/195/2 102/196/2 103/197/2 76/198/2
f 67/199/5 71/200/5 75/195/5 74/201/5
f 76/198/2 103/197/2 101/202/2 69/203/2
f 76/194/6 73/193/6 77/177/6 80/180/6
f 75/195/9 76/198/9 80/169/9 79/172/9
f 74/201/8 75/195/8 79/187/8 78/190/8
f 73/204/7 74/205/7 78/173/7 77/176/7
f 82/206/1 86/207/1 85/208/1 81/209/1
f 72/170/2 84/210/2 83/211/2 68/171/2
f 70/178/10 81/212/10 84/213/10 72/179/10
f 68/188/11 83/214/11 82/215/11 66/189/11
f 81/216/3 85/217/3 87/218/3 84/219/3
f 83/220/5 107/221/5 86/222/5 82/223/5
f 84/224/2 87/225/2 107/226/2 83/227/2
f 88/228/1 89/229/1 91/230/1 90/231/1
f 91/230/13 95/232/13 94/233/13 90/231/13
f 90/234/3 94/235/3 92/236/3 88/237/3
f 89/238/5 93/239/5 95/240/5 91/241/5
f 89/242/4 88/243/4 92/244/4 93/245/4
f 96/246/2 97/247/2 99/248/2 98/249/2
f 99/248/12 103/197/12 102/196/12 98/249/12
f 98/250/5 102/251/5 100/252/5 96/253/5
f 97/254/3 101/255/3 103/256/3 99/257/3
f 97/258/4 96/259/4 100/260/4 101/261/4
f 65/262/1 92/263/1 94/233/1 73/204/1
f 73/204/1 94/233/1 95/232/1 74/205/1
f 74/205/1 95/232/1 93/264/1 67/265/1
f 71/200/2 100/266/2 102/196/2 75/195/2
f 111/267/13 110/268/13 109/269/13 112/270/13
f 87/271/3 110/272/3 111/273/3 105/274/3
f 108/275/15 107/276/15 87/277/15 105/278/15
f 108/279/5 112/280/5 109/281/5 107/282/5
f 86/283/4 125/284/4 114/285/4 85/286/4
f 105/287/2 116/288/2 115/289/2 106/290/2
f 104/291/2 126/292/2 123/293/2 108/294/2
f 87/295/12 113/296/12 117/297/12 110/298/12
f 109/299/12 122/300/12 121/301/12 107/302/12
f 110/303/12 117/297/12 122/304/12 109/305/12
f 114/285/3 119/306/3 113/296/3
f 119/306/3 117/297/3 113/296/3
f 116/288/3 120/307/3 115/289/3
f 116/288/3 118/308/3 120/307/3
f 85/309/4 114/285/4 113/296/4 87/295/4
f 111/310/14 118/308/14 116/288/14 105/287/14
f 112/311/14 124/312/14 118/308/14 111/313/14
f 121/301/5 127/314/5 125/315/5
f 121/301/5 122/300/5 127/314/5
f 123/293/5 126/292/5 128/316/5
f 128/316/5 124/317/5 123/293/5
f 107/302/4 121/301/4 125/315/4 86/318/4
f 108/294/14 123/293/14 124/317/14 112/319/14
f 126/320/16 115/289/16 120/307/16 128/321/16
f 106/322/2 115/289/2 126/320/2 104/323/2
f 124/312/13 128/321/13 120/307/13 118/308/13
f 117/297/13 119/306/13 127/324/13 122/304/13
f 114/285/1 125/284/1 127/324/1 119/306/1
f 106/148/16 104/325/16 40/326/16 42/327/16
