# Blender v2.80 (sub 75) OBJ File: 'construct_arch.blend'
# www.blender.org
mtllib constructgantry_hook_arm.mtl
o HOOK_ARM_Cube.006
v -0.031250 -1.195083 -0.088388
v 0.000000 -1.172985 -0.154680
v 0.031250 -1.195083 -0.088388
v -0.031250 -1.239277 -0.132583
v 0.031250 -1.239277 -0.132583
v 0.031250 -1.283471 0.000000
v 0.031250 -1.327665 -0.044194
v -0.031250 -1.327665 -0.044194
v -0.031250 -1.283471 0.000000
v 0.031250 -1.327665 0.044194
v -0.031250 -1.327665 0.044194
v -0.031250 -1.195083 0.088388
v 0.031250 -1.195083 0.088388
v -0.031250 -1.239277 0.132583
v 0.031250 -1.239277 0.132583
v -0.031250 -1.150888 0.132583
v 0.031250 -1.150888 0.132583
v -0.031250 -1.106694 0.000000
v 0.031250 -1.106694 0.000000
v -0.031250 -1.062500 0.044194
v 0.031250 -1.062500 0.044194
v -0.031250 -1.062500 -0.044194
v 0.031250 -1.062500 -0.044194
v -0.062500 -1.062500 0.062500
v -0.062500 -1.000000 0.062500
v -0.062500 -1.062500 -0.062500
v -0.062500 -1.000000 -0.062500
v 0.062500 -1.062500 0.062500
v 0.062500 -1.000000 0.062500
v 0.062500 -1.062500 -0.062500
v 0.062500 -1.000000 -0.062500
v -0.031250 -1.000000 -0.031250
v 0.031250 -1.000000 0.031250
v -0.031250 -1.000000 0.031250
v 0.031250 -1.000000 -0.031250
v -0.062500 -0.125000 0.062500
v -0.062500 0.062500 0.062500
v -0.062500 -0.125000 -0.062500
v -0.062500 0.062500 -0.062500
v 0.062500 -0.125000 0.062500
v 0.062500 0.062500 0.062500
v 0.062500 -0.125000 -0.062500
v 0.062500 0.062500 -0.062500
v 0.031250 -0.125000 -0.031250
v -0.031250 -0.125000 0.031250
v -0.031250 -0.125000 -0.031250
v 0.031250 -0.125000 0.031250
vt 0.125000 0.781250
vt 0.093750 0.781250
vt 0.125000 0.812500
vt 0.062500 0.781250
vt 0.093750 0.781250
vt 0.093750 0.812500
vt 0.125000 0.781250
vt 0.156250 0.781250
vt 0.156250 0.812500
vt 0.125000 0.718750
vt 0.093750 0.718750
vt 0.125000 0.718750
vt 0.093750 0.718750
vt 0.125000 0.687500
vt 0.156250 0.718750
vt 0.062500 0.718750
vt 0.062500 0.687500
vt 0.093750 0.687500
vt 0.125000 0.687500
vt 0.187500 0.718750
vt 0.187500 0.687500
vt 0.218750 0.718750
vt 0.187500 0.687500
vt 0.187500 0.718750
vt 0.125000 0.656250
vt 0.187500 0.656250
vt 0.125000 0.750000
vt 0.187500 0.750000
vt 0.250000 0.718750
vt 0.218750 0.718750
vt 0.218750 0.687500
vt 0.250000 0.687500
vt 0.187500 0.781250
vt 0.218750 0.781250
vt 0.187500 0.812500
vt 0.250000 0.781250
vt 0.218750 0.781250
vt 0.187500 0.781250
vt 0.156250 0.718750
vt 0.156250 0.781250
vt 0.187500 0.812500
vt 0.156250 0.812500
vt 0.062500 0.562500
vt 0.062500 0.593750
vt 0.125000 0.593750
vt 0.125000 0.562500
vt 0.062500 0.593750
vt 0.062500 0.562500
vt 0.125000 0.656250
vt 0.125000 0.687500
vt 0.062500 0.687500
vt 0.062500 0.656250
vt 0.125000 0.687500
vt 0.125000 0.656250
vt 0.125000 0.593750
vt 0.062500 0.593750
vt 0.125000 0.656250
vt 0.062500 0.656250
vt 0.062500 0.718750
vt 0.062500 0.812500
vt 0.000000 0.812500
vt 0.000000 0.718750
vt 0.062500 0.812500
vt 0.062500 0.718750
vt 0.062500 0.562500
vt 0.062500 0.656250
vt 0.000000 0.656250
vt 0.000000 0.562500
vt 0.062500 0.656250
vt 0.000000 0.656250
vt 0.000000 0.718750
vt 0.906250 0.437500
vt 0.875000 0.437500
vt 0.875000 -0.000000
vt 0.906250 -0.000000
vt 0.937500 -0.000000
vt 0.937500 0.437500
vt 0.906250 0.437500
vt 0.906250 -0.000000
vt 0.875000 -0.000000
vt 0.875000 0.437500
vt 0.906250 0.437500
vt 0.906250 -0.000000
vt 0.937500 -0.000000
vt 0.937500 0.437500
vt 0.031250 0.687500
vt 0.031250 0.656250
vt 0.062500 0.687500
vt 0.062500 0.656250
vt 0.062500 0.562500
vn 0.8944 0.3162 -0.3162
vn 0.0000 -0.3162 -0.9487
vn 0.0000 0.9487 0.3162
vn -0.8944 0.3162 -0.3162
vn 1.0000 0.0000 0.0000
vn -1.0000 0.0000 0.0000
vn 0.0000 0.7071 0.7071
vn 0.0000 -0.7071 -0.7071
vn 0.0000 -1.0000 0.0000
vn 0.0000 -0.7071 0.7071
vn 0.0000 0.7071 -0.7071
vn 0.0000 0.0000 1.0000
vn 0.0000 0.0000 -1.0000
vn 0.0000 1.0000 0.0000
usemtl MAIN
s off
f 3/1/1 5/2/1 2/3/1
f 5/4/2 4/5/2 2/6/2
f 1/7/3 3/8/3 2/9/3
f 4/5/4 1/7/4 2/3/4
f 5/2/5 3/1/5 6/10/5 7/11/5
f 9/12/6 8/13/6 11/14/6
f 1/7/6 4/5/6 8/13/6 9/12/6
f 3/8/7 1/7/7 9/12/7 6/15/7
f 4/5/8 5/4/8 7/16/8 8/13/8
f 8/13/9 7/16/9 10/17/9 11/18/9
f 7/11/5 6/10/5 10/19/5
f 10/19/5 6/10/5 13/20/5 15/21/5
f 15/21/5 13/20/5 17/22/5
f 9/12/6 11/14/6 14/23/6 12/24/6
f 11/14/10 10/25/10 15/26/10 14/23/10
f 6/10/11 9/27/11 12/28/11 13/20/11
f 17/29/12 16/30/12 14/31/12 15/32/12
f 12/24/6 14/23/6 16/30/6
f 17/22/5 13/20/5 19/33/5 21/34/5
f 21/34/5 19/33/5 23/35/5
f 16/30/7 17/29/7 21/36/7 20/37/7
f 12/24/6 16/30/6 20/37/6 18/38/6
f 13/39/8 12/24/8 18/38/8 19/40/8
f 19/40/8 18/38/8 22/41/8 23/42/8
f 18/38/6 20/37/6 22/41/6
f 24/43/6 25/44/6 27/45/6 26/46/6
f 26/46/13 27/45/13 31/47/13 30/48/13
f 30/49/5 31/50/5 29/51/5 28/52/5
f 28/52/12 29/51/12 25/53/12 24/54/12
f 26/55/9 30/56/9 28/52/9 24/54/9
f 27/45/14 25/57/14 29/58/14 31/47/14
f 36/59/6 37/60/6 39/61/6 38/62/6
f 38/62/13 39/61/13 43/63/13 42/64/13
f 42/65/5 43/66/5 41/67/5 40/68/5
f 38/69/9 42/70/9 40/71/9 36/59/9
f 46/72/13 44/73/13 35/74/13 32/75/13
f 35/76/5 44/77/5 47/78/5 33/79/5
f 33/80/12 47/81/12 45/82/12 34/83/12
f 46/72/6 32/75/6 34/84/6 45/85/6
f 37/86/14 41/87/14 43/66/14 39/88/14
f 40/68/12 41/67/12 37/89/12 36/90/12
