# Blender v2.80 (sub 75) OBJ File: 'constructs.blend'
# www.blender.org
mtllib arm_grabber_r.mtl
o ARMROUGH_RIGHT_GRABBY_Cube.053
v 0.312500 1.000000 0.062500
v 0.312500 1.062500 0.062500
v 0.437500 1.000000 0.062500
v 0.437500 1.062500 0.062500
v 0.312500 1.000000 -0.062500
v 0.312500 1.062500 -0.062500
v 0.437500 1.000000 -0.062500
v 0.437500 1.062500 -0.062500
v 0.250000 1.062500 0.125000
v 0.250000 1.312500 0.125000
v 0.500000 1.062500 0.125000
v 0.500000 1.312500 0.125000
v 0.250000 1.062500 -0.125000
v 0.250000 1.312500 -0.125000
v 0.500000 1.062500 -0.125000
v 0.500000 1.312500 -0.125000
v 0.312500 0.625000 0.062500
v 0.312500 0.687500 0.062500
v 0.437500 0.625000 0.062500
v 0.437500 0.687500 0.062500
v 0.312500 0.625000 -0.062500
v 0.312500 0.687500 -0.062500
v 0.437500 0.625000 -0.062500
v 0.437500 0.687500 -0.062500
v 0.359375 0.566945 0.052202
v 0.359375 1.124633 -0.021219
v 0.359375 0.562867 0.021219
v 0.359375 1.120554 -0.052202
v 0.328125 0.566945 0.052202
v 0.328125 1.124633 -0.021219
v 0.328125 0.562867 0.021219
v 0.328125 1.120554 -0.052202
v 0.421875 1.120554 0.052202
v 0.421875 0.562867 -0.021219
v 0.421875 1.124633 0.021219
v 0.421875 0.566945 -0.052202
v 0.390625 1.120554 0.052202
v 0.390625 0.562867 -0.021219
v 0.390625 1.124633 0.021219
v 0.390625 0.566945 -0.052202
v 0.322798 0.566945 -0.015625
v 0.396219 1.124633 -0.015625
v 0.353781 0.562867 -0.015625
v 0.427202 1.120554 -0.015625
v 0.322798 0.566945 -0.046875
v 0.396219 1.124633 -0.046875
v 0.353781 0.562867 -0.046875
v 0.427202 1.120554 -0.046875
v 0.322798 1.120554 0.046875
v 0.396219 0.562867 0.046875
v 0.353781 1.124633 0.046875
v 0.427202 0.566945 0.046875
v 0.322798 1.120554 0.015625
v 0.396219 0.562867 0.015625
v 0.353781 1.124633 0.015625
v 0.427202 0.566945 0.015625
v 0.250000 1.342640 0.125000
v 0.500000 1.342640 0.125000
v 0.250000 1.342640 -0.125000
v 0.500000 1.342640 -0.125000
v 0.250000 1.312500 0.125000
v 0.500000 1.312500 0.125000
v 0.250000 1.312500 -0.125000
v 0.500000 1.312500 -0.125000
v 0.312500 1.342640 -0.125000
v 0.375000 1.342640 -0.125000
v 0.375000 1.312500 -0.125000
v 0.312500 1.312500 -0.125000
v 0.500000 1.342640 -0.062500
v 0.500000 1.342640 -0.000000
v 0.500000 1.342640 0.062500
v 0.500000 1.312500 0.062500
v 0.500000 1.312500 -0.000000
v 0.500000 1.312500 -0.062500
v 0.437500 1.342640 0.125000
v 0.312500 1.342640 0.125000
v 0.312500 1.312500 0.125000
v 0.437500 1.312500 0.125000
v 0.343750 0.585377 0.031250
v 0.343750 0.625000 0.031250
v 0.406250 0.585377 0.031250
v 0.406250 0.625000 0.031250
v 0.343750 0.625000 -0.031250
v 0.406250 0.625000 -0.031250
v 0.343750 0.522877 -0.139503
v 0.406250 0.522877 -0.139503
v 0.406250 0.500000 -0.054127
v 0.343750 0.500000 -0.054127
v 0.406250 0.414623 0.077003
v 0.343750 0.468750 -0.108253
v 0.406250 0.445873 0.022877
v 0.406250 0.468750 -0.108253
v 0.406250 0.445873 -0.022877
v 0.406250 0.414623 -0.077003
v 0.406250 0.554127 -0.085377
v 0.406250 0.585377 -0.031250
v 0.343750 0.585377 -0.031250
v 0.343750 0.554127 -0.085377
v 0.406250 0.468750 0.108253
v 0.406250 0.531250 -0.000000
v 0.343750 0.468750 0.108253
v 0.343750 0.531250 -0.000000
v 0.343750 0.500000 0.054127
v 0.406250 0.500000 0.054127
v 0.406250 0.522877 0.139503
v 0.343750 0.522877 0.139503
v 0.343750 0.554127 0.085377
v 0.406250 0.554127 0.085377
v 0.343750 0.445873 0.022877
v 0.343750 0.414623 0.077003
v 0.343750 0.445873 -0.022877
v 0.343750 0.414623 -0.077003
v 0.250000 1.342640 0.125000
v 0.500000 1.342640 0.125000
v 0.250000 1.342640 -0.125000
v 0.500000 1.342640 -0.125000
v 0.250000 1.312500 0.125000
v 0.500000 1.312500 0.125000
v 0.250000 1.312500 -0.125000
v 0.500000 1.312500 -0.125000
v 0.312500 1.342640 -0.125000
v 0.375000 1.342640 -0.125000
v 0.375000 1.312500 -0.125000
v 0.312500 1.312500 -0.125000
v 0.500000 1.342640 -0.062500
v 0.500000 1.342640 -0.000000
v 0.500000 1.342640 0.062500
v 0.500000 1.312500 0.062500
v 0.500000 1.312500 -0.000000
v 0.500000 1.312500 -0.062500
v 0.437500 1.342640 0.125000
v 0.312500 1.342640 0.125000
v 0.312500 1.312500 0.125000
v 0.437500 1.312500 0.125000
vt 0.625000 0.281250
vt 0.687500 0.281250
vt 0.687500 0.312500
vt 0.625000 0.312500
vt 0.687500 0.250000
vt 0.625000 0.250000
vt 0.625000 0.281250
vt 0.687500 0.281250
vt 0.687500 0.281250
vt 0.625000 0.281250
vt 0.625000 0.312500
vt 0.687500 0.312500
vt 0.625000 0.250000
vt 0.687500 0.250000
vt 0.687500 0.281250
vt 0.625000 0.281250
vt 0.625000 0.781250
vt 0.625000 0.843750
vt 0.687500 0.843750
vt 0.687500 0.781250
vt 0.468750 0.281250
vt 0.343750 0.281250
vt 0.343750 0.406250
vt 0.468750 0.406250
vt 0.375000 0.093750
vt 0.250000 0.093750
vt 0.250000 0.218750
vt 0.375000 0.218750
vt 0.218750 0.218750
vt 0.093750 0.218750
vt 0.093750 0.312500
vt 0.218750 0.312500
vt 0.187500 0.375000
vt 0.187500 0.500000
vt 0.312500 0.500000
vt 0.312500 0.375000
vt 0.156250 0.656250
vt 0.156250 0.781250
vt 0.281250 0.781250
vt 0.281250 0.656250
vt 0.156250 0.781250
vt 0.281250 0.781250
vt 0.281250 0.656250
vt 0.156250 0.656250
vt 0.625000 0.250000
vt 0.687500 0.250000
vt 0.687500 0.281250
vt 0.625000 0.281250
vt 0.625000 0.281250
vt 0.687500 0.281250
vt 0.687500 0.312500
vt 0.625000 0.312500
vt 0.625000 0.781250
vt 0.625000 0.843750
vt 0.687500 0.843750
vt 0.687500 0.781250
vt 0.625000 0.781250
vt 0.625000 0.843750
vt 0.687500 0.843750
vt 0.687500 0.781250
vt 0.250000 0.062500
vt 0.281250 0.062500
vt 0.281250 0.343750
vt 0.250000 0.343750
vt 0.343750 0.062500
vt 0.312500 0.062500
vt 0.312500 0.343750
vt 0.343750 0.343750
vt 0.156250 0.062500
vt 0.125000 0.062500
vt 0.125000 0.343750
vt 0.156250 0.343750
vt 0.187500 0.062500
vt 0.218750 0.062500
vt 0.218750 0.343750
vt 0.187500 0.343750
vt 0.187500 0.750000
vt 0.187500 0.781250
vt 0.218750 0.781250
vt 0.218750 0.750000
vt 0.187500 0.750000
vt 0.187500 0.781250
vt 0.218750 0.781250
vt 0.218750 0.750000
vt 0.187500 0.062500
vt 0.218750 0.062500
vt 0.218750 0.343750
vt 0.187500 0.343750
vt 0.156250 0.062500
vt 0.125000 0.062500
vt 0.125000 0.343750
vt 0.156250 0.343750
vt 0.343750 0.062500
vt 0.312500 0.062500
vt 0.312500 0.343750
vt 0.343750 0.343750
vt 0.250000 0.062500
vt 0.281250 0.062500
vt 0.281250 0.343750
vt 0.250000 0.343750
vt 0.250000 0.062500
vt 0.281250 0.062500
vt 0.281250 0.343750
vt 0.250000 0.343750
vt 0.343750 0.062500
vt 0.312500 0.062500
vt 0.312500 0.343750
vt 0.343750 0.343750
vt 0.156250 0.062500
vt 0.125000 0.062500
vt 0.125000 0.343750
vt 0.156250 0.343750
vt 0.187500 0.062500
vt 0.218750 0.062500
vt 0.218750 0.343750
vt 0.187500 0.343750
vt 0.187500 0.750000
vt 0.187500 0.781250
vt 0.218750 0.781250
vt 0.218750 0.750000
vt 0.187500 0.750000
vt 0.187500 0.781250
vt 0.218750 0.781250
vt 0.218750 0.750000
vt 0.187500 0.062500
vt 0.218750 0.062500
vt 0.218750 0.343750
vt 0.187500 0.343750
vt 0.156250 0.062500
vt 0.125000 0.062500
vt 0.125000 0.343750
vt 0.156250 0.343750
vt 0.343750 0.062500
vt 0.312500 0.062500
vt 0.312500 0.343750
vt 0.343750 0.343750
vt 0.250000 0.062500
vt 0.281250 0.062500
vt 0.281250 0.343750
vt 0.250000 0.343750
vt 0.125000 0.312500
vt 0.093750 0.312500
vt 0.093750 0.343750
vt 0.125000 0.343750
vt 0.281250 0.218750
vt 0.250000 0.218750
vt 0.250000 0.250000
vt 0.281250 0.250000
vt 0.375000 0.406250
vt 0.343750 0.406250
vt 0.343750 0.437500
vt 0.375000 0.437500
vt 0.625000 0.250000
vt 0.625000 0.281250
vt 0.687500 0.281250
vt 0.687500 0.250000
vt 0.687500 0.312500
vt 0.687500 0.281250
vt 0.625000 0.281250
vt 0.625000 0.312500
vt 0.343750 0.218750
vt 0.312500 0.218750
vt 0.312500 0.250000
vt 0.343750 0.250000
vt 0.468750 0.406250
vt 0.437500 0.406250
vt 0.437500 0.437500
vt 0.468750 0.437500
vt 0.218750 0.312500
vt 0.156250 0.312500
vt 0.156250 0.343750
vt 0.218750 0.343750
vt 0.406250 0.343750
vt 0.375000 0.343750
vt 0.375000 0.375000
vt 0.406250 0.375000
vt 0.437500 0.343750
vt 0.406250 0.343750
vt 0.406250 0.375000
vt 0.437500 0.375000
vt 0.375000 0.343750
vt 0.406250 0.343750
vt 0.406250 0.375000
vt 0.375000 0.375000
vt 0.437500 0.343750
vt 0.437500 0.375000
vt 0.406250 0.312500
vt 0.375000 0.187500
vt 0.406250 0.187500
vt 0.406250 0.218750
vt 0.375000 0.218750
vt 0.406250 0.187500
vt 0.375000 0.187500
vt 0.375000 0.218750
vt 0.406250 0.218750
vt 0.406250 0.156250
vt 0.375000 0.156250
vt 0.375000 0.250000
vt 0.375000 0.218750
vt 0.406250 0.218750
vt 0.406250 0.250000
vt 0.406250 0.218750
vt 0.406250 0.250000
vt 0.437500 0.250000
vt 0.437500 0.218750
vt 0.437500 0.187500
vt 0.437500 0.218750
vt 0.406250 0.281250
vt 0.406250 0.312500
vt 0.375000 0.312500
vt 0.375000 0.281250
vt 0.375000 0.250000
vt 0.406250 0.250000
vt 0.406250 0.218750
vt 0.375000 0.218750
vt 0.437500 0.250000
vt 0.437500 0.281250
vt 0.406250 0.281250
vt 0.406250 0.250000
vt 0.437500 0.281250
vt 0.406250 0.281250
vt 0.437500 0.312500
vt 0.375000 0.281250
vt 0.406250 0.281250
vt 0.406250 0.218750
vt 0.437500 0.218750
vt 0.406250 0.156250
vt 0.375000 0.156250
vt 0.406250 0.187500
vt 0.406250 0.218750
vt 0.437500 0.218750
vt 0.375000 0.187500
vt 0.375000 0.218750
vt 0.437500 0.187500
vt 0.437500 0.218750
vt 0.406250 0.156250
vt 0.406250 0.187500
vt 0.375000 0.187500
vt 0.375000 0.156250
vt 0.406250 0.312500
vt 0.375000 0.312500
vt 0.437500 0.218750
vt 0.406250 0.218750
vt 0.406250 0.312500
vt 0.406250 0.156250
vt 0.375000 0.156250
vt 0.375000 0.218750
vt 0.125000 0.312500
vt 0.125000 0.343750
vt 0.093750 0.343750
vt 0.093750 0.312500
vt 0.281250 0.218750
vt 0.281250 0.250000
vt 0.250000 0.250000
vt 0.250000 0.218750
vt 0.375000 0.406250
vt 0.375000 0.437500
vt 0.343750 0.437500
vt 0.343750 0.406250
vt 0.343750 0.218750
vt 0.343750 0.250000
vt 0.312500 0.250000
vt 0.312500 0.218750
vt 0.468750 0.406250
vt 0.468750 0.437500
vt 0.437500 0.437500
vt 0.437500 0.406250
vt 0.218750 0.312500
vt 0.218750 0.343750
vt 0.156250 0.343750
vt 0.156250 0.312500
vn 0.0000 0.0000 1.0000
vn 1.0000 0.0000 0.0000
vn 0.0000 0.0000 -1.0000
vn -1.0000 0.0000 0.0000
vn 0.0000 -1.0000 0.0000
vn 0.0000 1.0000 0.0000
vn -0.0000 -0.1305 -0.9914
vn 0.0000 0.1305 0.9914
vn 0.0000 -0.9914 0.1305
vn 0.0000 -0.9914 -0.1305
vn -0.0000 0.1305 -0.9914
vn 0.0000 -0.1305 0.9914
vn 0.9914 -0.1305 0.0000
vn -0.9914 0.1305 0.0000
vn -0.1305 -0.9914 0.0000
vn 0.1305 -0.9914 0.0000
vn 0.9914 0.1305 0.0000
vn -0.9914 -0.1305 0.0000
vn 0.0000 -0.5000 -0.8660
vn 0.0000 -0.8660 0.5000
vn 0.0000 0.8660 -0.5000
vn 0.0000 -0.5000 0.8660
vn 0.0000 0.5000 -0.8660
vn 0.0000 -0.8660 -0.5000
vn 0.0000 0.8660 0.5000
vn 0.0000 0.5000 0.8660
usemtl CONSTRUCT_ROUGH
s off
f 1/1/1 3/2/1 4/3/1 2/4/1
f 3/5/2 7/6/2 8/7/2 4/8/2
f 7/9/3 5/10/3 6/11/3 8/12/3
f 5/13/4 1/14/4 2/15/4 6/16/4
f 3/17/5 1/18/5 5/19/5 7/20/5
f 9/21/1 11/22/1 12/23/1 10/24/1
f 11/25/2 15/26/2 16/27/2 12/28/2
f 15/29/3 13/30/3 14/31/3 16/32/3
f 13/33/4 9/34/4 10/35/4 14/36/4
f 11/37/5 9/38/5 13/39/5 15/40/5
f 16/41/6 14/42/6 10/43/6 12/44/6
f 17/45/1 19/46/1 20/47/1 18/48/1
f 21/49/4 17/50/4 18/51/4 22/52/4
f 19/53/5 17/54/5 21/55/5 23/56/5
f 24/57/6 22/58/6 18/59/6 20/60/6
f 25/61/2 27/62/2 28/63/2 26/64/2
f 27/65/7 31/66/7 32/67/7 28/68/7
f 31/69/4 29/70/4 30/71/4 32/72/4
f 29/73/8 25/74/8 26/75/8 30/76/8
f 27/77/9 25/78/9 29/79/9 31/80/9
f 38/81/10 40/82/10 36/83/10 34/84/10
f 36/85/11 40/86/11 39/87/11 35/88/11
f 34/89/2 36/90/2 35/91/2 33/92/2
f 38/93/12 34/94/12 33/95/12 37/96/12
f 40/97/4 38/98/4 37/99/4 39/100/4
f 41/101/1 43/102/1 44/103/1 42/104/1
f 43/105/13 47/106/13 48/107/13 44/108/13
f 47/109/3 45/110/3 46/111/3 48/112/3
f 45/113/14 41/114/14 42/115/14 46/116/14
f 43/117/15 41/118/15 45/119/15 47/120/15
f 54/121/16 56/122/16 52/123/16 50/124/16
f 52/125/17 56/126/17 55/127/17 51/128/17
f 50/129/1 52/130/1 51/131/1 49/132/1
f 54/133/18 50/134/18 49/135/18 53/136/18
f 56/137/3 54/138/3 53/139/3 55/140/3
f 68/141/3 63/142/3 59/143/3 65/144/3
f 74/145/2 64/146/2 60/147/2 69/148/2
f 78/149/1 62/150/1 58/151/1 75/152/1
f 21/153/3 22/154/3 24/155/3 23/156/3
f 20/157/2 19/158/2 23/159/2 24/160/2
f 72/161/2 73/162/2 70/163/2 71/164/2
f 61/165/1 77/166/1 76/167/1 57/168/1
f 64/169/3 67/170/3 66/171/3 60/172/3
f 79/173/1 81/174/1 82/175/1 80/176/1
f 81/177/2 96/178/2 84/179/2 82/180/2
f 96/181/3 97/182/3 83/183/3 84/184/3
f 97/182/4 79/185/4 80/186/4 83/183/4
f 100/187/2 96/178/2 81/177/2
f 99/188/2 104/189/2 108/190/2 105/191/2
f 103/192/4 101/193/4 106/194/4 107/195/4
f 109/196/4 110/197/4 101/193/4 103/192/4
f 92/198/19 94/199/19 112/200/19 90/201/19
f 94/202/20 93/203/20 111/204/20 112/205/20
f 100/206/2 81/207/2 108/190/2 104/189/2
f 85/208/21 98/209/21 95/210/21 86/211/21
f 99/212/22 101/213/22 110/214/22 89/215/22
f 109/216/23 103/217/23 104/218/23 91/219/23
f 98/209/21 97/182/21 96/181/21 95/210/21
f 88/220/20 87/221/20 100/187/20 102/222/20
f 101/213/22 99/212/22 105/223/22 106/224/22
f 89/225/24 110/226/24 109/216/24 91/219/24
f 91/227/2 104/189/2 99/188/2 89/228/2
f 100/206/2 87/229/2 95/230/2 96/231/2
f 92/232/2 86/233/2 95/230/2 87/229/2
f 102/234/4 103/192/4 107/195/4 79/235/4
f 103/217/24 102/222/24 100/187/24 104/218/24
f 111/236/4 88/237/4 90/238/4 112/239/4
f 107/240/25 108/241/25 81/174/25 79/173/25
f 106/224/25 105/223/25 108/241/25 107/240/25
f 102/234/4 97/242/4 98/243/4 88/237/4
f 90/201/19 85/208/19 86/211/19 92/198/19
f 97/182/4 102/244/4 79/185/4
f 93/245/2 94/246/2 92/232/2 87/229/2
f 88/237/4 98/243/4 85/247/4 90/238/4
f 111/204/26 93/203/26 87/221/26 88/220/26
f 124/248/1 121/249/1 115/250/1 119/251/1
f 130/252/4 125/253/4 116/254/4 120/255/4
f 134/256/3 131/257/3 114/258/3 118/259/3
f 128/260/4 127/261/4 126/262/4 129/263/4
f 117/264/3 113/265/3 132/266/3 133/267/3
f 120/268/1 116/269/1 122/270/1 123/271/1
