# Blender v2.80 (sub 75) OBJ File: 'constructs.blend'
# www.blender.org
mtllib arm_blade_l.mtl
o ARMROUGH_LEFT_BLADE_Cube.050
v -0.312500 1.000000 0.062500
v -0.312500 1.062500 0.062500
v -0.437500 1.000000 0.062500
v -0.437500 1.062500 0.062500
v -0.312500 1.000000 -0.062500
v -0.312500 1.062500 -0.062500
v -0.437500 1.000000 -0.062500
v -0.437500 1.062500 -0.062500
v -0.250000 1.062500 0.125000
v -0.250000 1.312500 0.125000
v -0.500000 1.062500 0.125000
v -0.500000 1.312500 0.125000
v -0.250000 1.062500 -0.125000
v -0.250000 1.312500 -0.125000
v -0.500000 1.062500 -0.125000
v -0.500000 1.312500 -0.125000
v -0.312500 0.625000 0.062500
v -0.312500 0.687500 0.062500
v -0.437500 0.625000 0.062500
v -0.437500 0.687500 0.062500
v -0.312500 0.625000 -0.062500
v -0.312500 0.687500 -0.062500
v -0.437500 0.625000 -0.062500
v -0.437500 0.687500 -0.062500
v -0.359375 0.566945 0.052202
v -0.359375 1.124633 -0.021219
v -0.359375 0.562867 0.021219
v -0.359375 1.120554 -0.052202
v -0.328125 0.566945 0.052202
v -0.328125 1.124633 -0.021219
v -0.328125 0.562867 0.021219
v -0.328125 1.120554 -0.052202
v -0.421875 1.120554 0.052202
v -0.421875 0.562867 -0.021219
v -0.421875 1.124633 0.021219
v -0.421875 0.566945 -0.052202
v -0.390625 1.120554 0.052202
v -0.390625 0.562867 -0.021219
v -0.390625 1.124633 0.021219
v -0.390625 0.566945 -0.052202
v -0.322798 0.566945 -0.015625
v -0.396219 1.124633 -0.015625
v -0.353781 0.562867 -0.015625
v -0.427202 1.120554 -0.015625
v -0.322798 0.566945 -0.046875
v -0.396219 1.124633 -0.046875
v -0.353781 0.562867 -0.046875
v -0.427202 1.120554 -0.046875
v -0.322798 1.120554 0.046875
v -0.396219 0.562867 0.046875
v -0.353781 1.124633 0.046875
v -0.427202 0.566945 0.046875
v -0.322798 1.120554 0.015625
v -0.396219 0.562867 0.015625
v -0.353781 1.124633 0.015625
v -0.427202 0.566945 0.015625
v -0.250000 1.342640 0.125000
v -0.500000 1.342640 0.125000
v -0.250000 1.342640 -0.125000
v -0.500000 1.342640 -0.125000
v -0.250000 1.312500 0.125000
v -0.500000 1.312500 0.125000
v -0.250000 1.312500 -0.125000
v -0.500000 1.312500 -0.125000
v -0.312500 1.342640 -0.125000
v -0.375000 1.342640 -0.125000
v -0.375000 1.312500 -0.125000
v -0.312500 1.312500 -0.125000
v -0.500000 1.342640 -0.062500
v -0.500000 1.342640 0.000000
v -0.500000 1.342640 0.062500
v -0.500000 1.312500 0.062500
v -0.500000 1.312500 0.000000
v -0.500000 1.312500 -0.062500
v -0.437500 1.342640 0.125000
v -0.312500 1.342640 0.125000
v -0.312500 1.312500 0.125000
v -0.437500 1.312500 0.125000
v -0.343750 0.593750 0.031250
v -0.343750 0.656250 0.031250
v -0.406250 0.593750 0.031250
v -0.406250 0.656250 0.031250
v -0.343750 0.593750 -0.031250
v -0.343750 0.656250 -0.031250
v -0.406250 0.593750 -0.031250
v -0.406250 0.656250 -0.031250
v -0.375000 0.593750 0.031250
v -0.382812 0.593750 -0.031250
v -0.367188 0.593750 -0.031250
v -0.375000 0.281250 0.031250
v -0.382812 0.218750 -0.031250
v -0.367188 0.218750 -0.031250
v -0.250000 1.342640 0.125000
v -0.500000 1.342640 0.125000
v -0.250000 1.342640 -0.125000
v -0.500000 1.342640 -0.125000
v -0.250000 1.312500 0.125000
v -0.500000 1.312500 0.125000
v -0.250000 1.312500 -0.125000
v -0.500000 1.312500 -0.125000
v -0.312500 1.342640 -0.125000
v -0.375000 1.342640 -0.125000
v -0.375000 1.312500 -0.125000
v -0.312500 1.312500 -0.125000
v -0.500000 1.342640 -0.062500
v -0.500000 1.342640 0.000000
v -0.500000 1.342640 0.062500
v -0.500000 1.312500 0.062500
v -0.500000 1.312500 0.000000
v -0.500000 1.312500 -0.062500
v -0.437500 1.342640 0.125000
v -0.312500 1.342640 0.125000
v -0.312500 1.312500 0.125000
v -0.437500 1.312500 0.125000
vt 0.625000 0.281250
vt 0.625000 0.312500
vt 0.687500 0.312500
vt 0.687500 0.281250
vt 0.687500 0.250000
vt 0.687500 0.281250
vt 0.625000 0.281250
vt 0.625000 0.250000
vt 0.687500 0.281250
vt 0.687500 0.312500
vt 0.625000 0.312500
vt 0.625000 0.281250
vt 0.625000 0.250000
vt 0.625000 0.281250
vt 0.687500 0.281250
vt 0.687500 0.250000
vt 0.625000 0.781250
vt 0.687500 0.781250
vt 0.687500 0.843750
vt 0.625000 0.843750
vt 0.468750 0.281250
vt 0.468750 0.406250
vt 0.343750 0.406250
vt 0.343750 0.281250
vt 0.375000 0.093750
vt 0.375000 0.218750
vt 0.250000 0.218750
vt 0.250000 0.093750
vt 0.218750 0.218750
vt 0.218750 0.312500
vt 0.093750 0.312500
vt 0.093750 0.218750
vt 0.187500 0.375000
vt 0.312500 0.375000
vt 0.312500 0.500000
vt 0.187500 0.500000
vt 0.156250 0.656250
vt 0.281250 0.656250
vt 0.281250 0.781250
vt 0.156250 0.781250
vt 0.156250 0.781250
vt 0.156250 0.656250
vt 0.281250 0.656250
vt 0.281250 0.781250
vt 0.625000 0.250000
vt 0.625000 0.281250
vt 0.687500 0.281250
vt 0.687500 0.250000
vt 0.625000 0.281250
vt 0.625000 0.312500
vt 0.687500 0.312500
vt 0.687500 0.281250
vt 0.625000 0.781250
vt 0.687500 0.781250
vt 0.687500 0.843750
vt 0.625000 0.843750
vt 0.625000 0.781250
vt 0.687500 0.781250
vt 0.687500 0.843750
vt 0.625000 0.843750
vt 0.250000 0.062500
vt 0.250000 0.343750
vt 0.281250 0.343750
vt 0.281250 0.062500
vt 0.343750 0.062500
vt 0.343750 0.343750
vt 0.312500 0.343750
vt 0.312500 0.062500
vt 0.156250 0.062500
vt 0.156250 0.343750
vt 0.125000 0.343750
vt 0.125000 0.062500
vt 0.187500 0.062500
vt 0.187500 0.343750
vt 0.218750 0.343750
vt 0.218750 0.062500
vt 0.187500 0.750000
vt 0.218750 0.750000
vt 0.218750 0.781250
vt 0.187500 0.781250
vt 0.187500 0.750000
vt 0.218750 0.750000
vt 0.218750 0.781250
vt 0.187500 0.781250
vt 0.187500 0.062500
vt 0.187500 0.343750
vt 0.218750 0.343750
vt 0.218750 0.062500
vt 0.156250 0.062500
vt 0.156250 0.343750
vt 0.125000 0.343750
vt 0.125000 0.062500
vt 0.343750 0.062500
vt 0.343750 0.343750
vt 0.312500 0.343750
vt 0.312500 0.062500
vt 0.250000 0.062500
vt 0.250000 0.343750
vt 0.281250 0.343750
vt 0.281250 0.062500
vt 0.250000 0.062500
vt 0.250000 0.343750
vt 0.281250 0.343750
vt 0.281250 0.062500
vt 0.343750 0.062500
vt 0.343750 0.343750
vt 0.312500 0.343750
vt 0.312500 0.062500
vt 0.156250 0.062500
vt 0.156250 0.343750
vt 0.125000 0.343750
vt 0.125000 0.062500
vt 0.187500 0.062500
vt 0.187500 0.343750
vt 0.218750 0.343750
vt 0.218750 0.062500
vt 0.187500 0.750000
vt 0.218750 0.750000
vt 0.218750 0.781250
vt 0.187500 0.781250
vt 0.187500 0.750000
vt 0.218750 0.750000
vt 0.218750 0.781250
vt 0.187500 0.781250
vt 0.187500 0.062500
vt 0.187500 0.343750
vt 0.218750 0.343750
vt 0.218750 0.062500
vt 0.156250 0.062500
vt 0.156250 0.343750
vt 0.125000 0.343750
vt 0.125000 0.062500
vt 0.343750 0.062500
vt 0.343750 0.343750
vt 0.312500 0.343750
vt 0.312500 0.062500
vt 0.250000 0.062500
vt 0.250000 0.343750
vt 0.281250 0.343750
vt 0.281250 0.062500
vt 0.125000 0.312500
vt 0.093750 0.312500
vt 0.093750 0.343750
vt 0.125000 0.343750
vt 0.281250 0.218750
vt 0.250000 0.218750
vt 0.250000 0.250000
vt 0.281250 0.250000
vt 0.375000 0.406250
vt 0.343750 0.406250
vt 0.343750 0.437500
vt 0.375000 0.437500
vt 0.625000 0.250000
vt 0.687500 0.250000
vt 0.687500 0.281250
vt 0.625000 0.281250
vt 0.687500 0.312500
vt 0.625000 0.312500
vt 0.625000 0.281250
vt 0.687500 0.281250
vt 0.343750 0.218750
vt 0.312500 0.218750
vt 0.312500 0.250000
vt 0.343750 0.250000
vt 0.468750 0.406250
vt 0.437500 0.406250
vt 0.437500 0.437500
vt 0.468750 0.437500
vt 0.218750 0.312500
vt 0.156250 0.312500
vt 0.156250 0.343750
vt 0.218750 0.343750
vt 0.281250 0.437500
vt 0.281250 0.468750
vt 0.312500 0.468750
vt 0.312500 0.437500
vt 0.312500 0.468750
vt 0.312500 0.500000
vt 0.281250 0.500000
vt 0.281250 0.468750
vt 0.312500 0.437500
vt 0.312500 0.468750
vt 0.281250 0.468750
vt 0.281250 0.437500
vt 0.281250 0.468750
vt 0.281250 0.500000
vt 0.312500 0.500000
vt 0.312500 0.468750
vt 0.312500 0.500000
vt 0.343750 0.500000
vt 0.343750 0.312500
vt 0.312500 0.312500
vt 0.312500 0.312500
vt 0.343750 0.312500
vt 0.343750 0.343750
vt 0.312500 0.500000
vt 0.343750 0.500000
vt 0.343750 0.343750
vt 0.312500 0.312500
vt 0.187500 0.406250
vt 0.187500 0.437500
vt 0.218750 0.437500
vt 0.218750 0.406250
vt 0.125000 0.312500
vt 0.125000 0.343750
vt 0.093750 0.343750
vt 0.093750 0.312500
vt 0.281250 0.218750
vt 0.281250 0.250000
vt 0.250000 0.250000
vt 0.250000 0.218750
vt 0.375000 0.406250
vt 0.375000 0.437500
vt 0.343750 0.437500
vt 0.343750 0.406250
vt 0.343750 0.218750
vt 0.343750 0.250000
vt 0.312500 0.250000
vt 0.312500 0.218750
vt 0.468750 0.406250
vt 0.468750 0.437500
vt 0.437500 0.437500
vt 0.437500 0.406250
vt 0.218750 0.312500
vt 0.218750 0.343750
vt 0.156250 0.343750
vt 0.156250 0.312500
vn 0.0000 0.0000 1.0000
vn -1.0000 0.0000 0.0000
vn -0.0000 0.0000 -1.0000
vn 1.0000 0.0000 0.0000
vn 0.0000 -1.0000 0.0000
vn 0.0000 1.0000 0.0000
vn -0.0000 -0.1305 -0.9914
vn 0.0000 0.1305 0.9914
vn 0.0000 -0.9914 0.1305
vn -0.0000 -0.9914 -0.1305
vn -0.0000 0.1305 -0.9914
vn 0.0000 -0.1305 0.9914
vn -0.9914 -0.1305 0.0000
vn 0.9914 0.1305 0.0000
vn 0.1305 -0.9914 0.0000
vn -0.1305 -0.9914 0.0000
vn -0.9914 0.1305 0.0000
vn 0.9914 -0.1305 -0.0000
vn 0.0000 -0.7071 0.7071
vn 0.9923 0.0000 0.1240
vn -0.9923 0.0000 0.1240
usemtl CONSTRUCT_ROUGH
s off
f 1/1/1 2/2/1 4/3/1 3/4/1
f 3/5/2 4/6/2 8/7/2 7/8/2
f 7/9/3 8/10/3 6/11/3 5/12/3
f 5/13/4 6/14/4 2/15/4 1/16/4
f 3/17/5 7/18/5 5/19/5 1/20/5
f 9/21/1 10/22/1 12/23/1 11/24/1
f 11/25/2 12/26/2 16/27/2 15/28/2
f 15/29/3 16/30/3 14/31/3 13/32/3
f 13/33/4 14/34/4 10/35/4 9/36/4
f 11/37/5 15/38/5 13/39/5 9/40/5
f 16/41/6 12/42/6 10/43/6 14/44/6
f 17/45/1 18/46/1 20/47/1 19/48/1
f 21/49/4 22/50/4 18/51/4 17/52/4
f 19/53/5 23/54/5 21/55/5 17/56/5
f 24/57/6 20/58/6 18/59/6 22/60/6
f 25/61/2 26/62/2 28/63/2 27/64/2
f 27/65/7 28/66/7 32/67/7 31/68/7
f 31/69/4 32/70/4 30/71/4 29/72/4
f 29/73/8 30/74/8 26/75/8 25/76/8
f 27/77/9 31/78/9 29/79/9 25/80/9
f 38/81/10 34/82/10 36/83/10 40/84/10
f 36/85/11 35/86/11 39/87/11 40/88/11
f 34/89/2 33/90/2 35/91/2 36/92/2
f 38/93/12 37/94/12 33/95/12 34/96/12
f 40/97/4 39/98/4 37/99/4 38/100/4
f 41/101/1 42/102/1 44/103/1 43/104/1
f 43/105/13 44/106/13 48/107/13 47/108/13
f 47/109/3 48/110/3 46/111/3 45/112/3
f 45/113/14 46/114/14 42/115/14 41/116/14
f 43/117/15 47/118/15 45/119/15 41/120/15
f 54/121/16 50/122/16 52/123/16 56/124/16
f 52/125/17 51/126/17 55/127/17 56/128/17
f 50/129/1 49/130/1 51/131/1 52/132/1
f 54/133/18 53/134/18 49/135/18 50/136/18
f 56/137/3 55/138/3 53/139/3 54/140/3
f 68/141/1 63/142/1 59/143/1 65/144/1
f 74/145/4 64/146/4 60/147/4 69/148/4
f 78/149/3 62/150/3 58/151/3 75/152/3
f 21/153/3 23/154/3 24/155/3 22/156/3
f 20/157/2 24/158/2 23/159/2 19/160/2
f 72/161/4 73/162/4 70/163/4 71/164/4
f 61/165/3 77/166/3 76/167/3 57/168/3
f 64/169/1 67/170/1 66/171/1 60/172/1
f 79/173/1 80/174/1 82/175/1 81/176/1
f 81/177/2 82/178/2 86/179/2 85/180/2
f 85/181/3 86/182/3 84/183/3 83/184/3
f 83/185/4 84/186/4 80/187/4 79/188/4
f 88/189/3 89/190/3 92/191/3 91/192/3
f 90/193/19 91/194/19 92/195/19
f 89/196/20 87/197/20 90/198/20 92/199/20
f 87/197/21 88/189/21 91/192/21 90/198/21
f 81/200/5 85/201/5 83/202/5 79/203/5
f 104/204/3 101/205/3 95/206/3 99/207/3
f 110/208/2 105/209/2 96/210/2 100/211/2
f 114/212/1 111/213/1 94/214/1 98/215/1
f 108/216/2 107/217/2 106/218/2 109/219/2
f 97/220/1 93/221/1 112/222/1 113/223/1
f 100/224/3 96/225/3 102/226/3 103/227/3
