# Blender v2.80 (sub 75) OBJ File: 'constructs.blend'
# www.blender.org
mtllib head_basic.mtl
o HEADROUGH_Cube.012
v 0.156250 1.312500 0.156250
v 0.156250 1.687500 0.156250
v -0.156250 1.312500 0.156250
v -0.156250 1.625000 0.156250
v 0.156250 1.312500 -0.156250
v 0.156250 1.687500 -0.156250
v -0.156250 1.312500 -0.156250
v -0.156250 1.625000 -0.156250
v 0.000000 1.312500 0.156250
v 0.000000 1.656250 0.156250
v -0.000000 1.312500 -0.156250
v -0.000000 1.656250 -0.156250
v -0.093750 1.562060 -0.156250
v -0.093750 1.437060 -0.156250
v -0.031250 1.562060 -0.156250
v -0.031250 1.437060 -0.156250
v 0.031250 1.593310 -0.156250
v 0.031250 1.468310 -0.156250
v 0.093750 1.593310 -0.156250
v 0.093750 1.468310 -0.156250
v -0.093750 1.562060 -0.140625
v -0.093750 1.437060 -0.140625
v -0.031250 1.562060 -0.140625
v -0.031250 1.437060 -0.140625
v 0.031250 1.593310 -0.140625
v 0.031250 1.468310 -0.140625
v 0.093750 1.593310 -0.140625
v 0.093750 1.468310 -0.140625
v 0.156250 1.687500 0.156250
v -0.156250 1.625000 0.156250
v 0.156250 1.687500 -0.156250
v -0.156250 1.625000 -0.156250
v 0.156250 1.718750 0.156250
v -0.156250 1.656250 0.156250
v 0.156250 1.718750 -0.156250
v -0.156250 1.656250 -0.156250
v -0.156250 1.625000 0.156250
v -0.031250 1.681250 -0.156250
v 0.093750 1.706250 -0.156250
v 0.156250 1.687500 0.156250
v -0.031250 1.650000 -0.156250
v 0.093750 1.675000 -0.156250
v 0.156250 1.687500 -0.093750
v 0.156250 1.687500 -0.031250
v 0.156250 1.687500 0.031250
v 0.156250 1.718750 -0.093750
v 0.156250 1.718750 -0.031250
v 0.156250 1.718750 0.031250
v 0.093750 1.675000 0.156250
v 0.031250 1.662500 0.156250
v -0.031250 1.650000 0.156250
v 0.093750 1.706250 0.156250
v 0.031250 1.693750 0.156250
v -0.031250 1.681250 0.156250
v -0.156250 1.625000 0.093750
v -0.156250 1.625000 -0.031250
v -0.156250 1.625000 -0.093750
v -0.156250 1.656250 0.093750
v -0.156250 1.656250 -0.031250
v -0.156250 1.656250 -0.093750
v 0.156250 1.687500 -0.156250
v -0.156250 1.625000 -0.156250
v 0.156250 1.718750 0.156250
v -0.156250 1.656250 0.156250
v 0.156250 1.718750 -0.156250
v -0.156250 1.656250 -0.156250
v -0.031250 1.681250 -0.156250
v 0.093750 1.706250 -0.156250
v -0.031250 1.650000 -0.156250
v 0.093750 1.675000 -0.156250
v 0.156250 1.687500 -0.093750
v 0.156250 1.687500 -0.031250
v 0.156250 1.687500 0.031250
v 0.156250 1.718750 -0.093750
v 0.156250 1.718750 -0.031250
v 0.156250 1.718750 0.031250
v 0.093750 1.675000 0.156250
v 0.031250 1.662500 0.156250
v -0.031250 1.650000 0.156250
v 0.093750 1.706250 0.156250
v 0.031250 1.693750 0.156250
v -0.031250 1.681250 0.156250
v -0.156250 1.625000 0.093750
v -0.156250 1.625000 -0.031250
v -0.156250 1.625000 -0.093750
v -0.156250 1.656250 0.093750
v -0.156250 1.656250 -0.031250
v -0.156250 1.656250 -0.093750
vt 0.031250 0.187500
vt 0.031250 0.375000
vt 0.187500 0.375000
vt 0.187500 0.187500
vt 0.343750 0.187500
vt 0.343750 0.343750
vt 0.312500 0.312500
vt 0.312500 0.250000
vt 0.218750 0.265625
vt 0.187500 0.187500
vt 0.265625 0.187500
vt 0.250000 0.265625
vt 0.500000 0.187500
vt 0.500000 0.343750
vt 0.250000 0.328125
vt 0.265625 0.359375
vt 0.187500 0.375000
vt 0.218750 0.328125
vt 0.171875 0.750000
vt 0.328125 0.750000
vt 0.328125 0.671875
vt 0.171875 0.671875
vt 0.328125 0.828125
vt 0.171875 0.828125
vt 0.281250 0.312500
vt 0.281250 0.250000
vt 0.265625 0.359375
vt 0.265625 0.187500
vt 0.328125 0.671875
vt 0.328125 0.750000
vt 0.171875 0.750000
vt 0.171875 0.671875
vt 0.218750 0.281250
vt 0.250000 0.281250
vt 0.250000 0.250000
vt 0.218750 0.250000
vt 0.312500 0.281250
vt 0.281250 0.281250
vt 0.343750 0.343750
vt 0.343750 0.187500
vt 0.328125 0.828125
vt 0.171875 0.828125
vt 0.000000 0.968750
vt 0.031250 0.968750
vt 0.031250 1.000000
vt 0.000000 1.000000
vt -0.000000 0.968750
vt 0.031250 0.968750
vt 0.031250 1.000000
vt 0.000000 1.000000
vt 0.281250 0.281250
vt 0.312500 0.281250
vt 0.250000 0.265625
vt 0.250000 0.328125
vt 0.218750 0.328125
vt 0.218750 0.265625
vt 0.250000 0.343750
vt 0.218750 0.343750
vt 0.218750 0.312500
vt 0.250000 0.312500
vt 0.312500 0.250000
vt 0.312500 0.312500
vt 0.281250 0.312500
vt 0.281250 0.250000
vt 0.218750 0.343750
vt 0.187500 0.343750
vt 0.187500 0.375000
vt 0.218750 0.375000
vt 0.218750 0.368750
vt 0.187500 0.375000
vt 0.187500 0.343750
vt 0.218750 0.350000
vt 0.218750 0.343750
vt 0.218750 0.375000
vt 0.187500 0.375000
vt 0.187500 0.343750
vt 0.218750 0.368750
vt 0.218750 0.350000
vt 0.187500 0.343750
vt 0.187500 0.375000
vt 0.031250 0.375000
vt 0.062500 0.375000
vt 0.062500 0.343750
vt 0.031250 0.343750
vt 0.093750 0.375000
vt 0.125000 0.375000
vt 0.125000 0.343750
vt 0.093750 0.343750
vt 0.281250 0.356250
vt 0.250000 0.362500
vt 0.250000 0.356250
vt 0.281250 0.362500
vt 0.500000 0.343750
vt 0.468750 0.343750
vt 0.468750 0.375000
vt 0.500000 0.375000
vt 0.406250 0.343750
vt 0.375000 0.343750
vt 0.375000 0.375000
vt 0.406250 0.375000
vt 0.343750 0.343750
vt 0.281250 0.343750
vt 0.281250 0.375000
vt 0.343750 0.375000
vt 0.031250 0.375000
vt 0.031250 0.343750
vt 0.062500 0.343750
vt 0.062500 0.375000
vt 0.093750 0.375000
vt 0.093750 0.343750
vt 0.125000 0.343750
vt 0.125000 0.375000
vt 0.281250 0.356250
vt 0.281250 0.362500
vt 0.250000 0.356250
vt 0.250000 0.362500
vt 0.500000 0.343750
vt 0.500000 0.375000
vt 0.468750 0.375000
vt 0.468750 0.343750
vt 0.406250 0.343750
vt 0.406250 0.375000
vt 0.375000 0.375000
vt 0.375000 0.343750
vt 0.343750 0.343750
vt 0.343750 0.375000
vt 0.281250 0.375000
vt 0.281250 0.343750
vn 1.0000 0.0000 0.0000
vn 0.0000 0.0000 -1.0000
vn -1.0000 0.0000 0.0000
vn 0.0000 -1.0000 0.0000
vn 0.0000 0.0000 1.0000
vn -0.1961 0.9806 0.0000
vn 0.0000 1.0000 0.0000
usemtl CONSTRUCT_ROUGH
s off
f 5/1/1 6/2/1 2/3/1 1/4/1
f 7/5/2 8/6/2 13/7/2 14/8/2
f 20/9/2 5/10/2 11/11/2 18/12/2
f 3/13/3 4/14/3 8/6/3 7/5/3
f 17/15/2 12/16/2 6/17/2 19/18/2
f 9/19/4 11/20/4 5/21/4 1/22/4
f 7/23/4 11/20/4 9/19/4 3/24/4
f 8/6/2 12/16/2 15/25/2 13/7/2
f 7/5/2 14/8/2 16/26/2 11/11/2
f 15/25/2 12/16/2 17/15/2
f 6/17/2 5/10/2 20/9/2 19/18/2
f 1/4/5 2/3/5 10/27/5 9/28/5
f 4/29/6 10/30/6 12/31/6 8/32/6
f 20/33/7 18/34/7 26/35/7 28/36/7
f 16/26/2 15/25/2 17/15/2 18/12/2
f 11/11/2 16/26/2 18/12/2
f 16/26/7 14/8/7 22/37/7 24/38/7
f 10/27/5 4/39/5 3/40/5 9/28/5
f 12/31/6 10/30/6 2/41/6 6/42/6
f 26/43/2 25/44/2 27/45/2 28/46/2
f 22/47/2 21/48/2 23/49/2 24/50/2
f 13/7/4 15/25/4 23/51/4 21/52/4
f 19/18/3 20/9/3 28/53/3 27/54/3
f 18/12/1 17/15/1 25/55/1 26/56/1
f 17/57/4 19/58/4 27/59/4 25/60/4
f 15/25/3 16/26/3 24/61/3 23/62/3
f 14/8/1 13/7/1 21/63/1 22/64/1
f 42/65/5 31/66/5 35/67/5 39/68/5
f 49/69/5 29/70/5 33/71/5 52/72/5
f 70/73/2 68/74/2 65/75/2 61/76/2
f 77/77/2 80/78/2 63/79/2 40/80/2
f 31/81/3 43/82/3 46/83/3 35/84/3
f 44/85/3 45/86/3 48/87/3 47/88/3
f 51/89/5 50/90/5 53/91/5 54/92/5
f 30/93/1 55/94/1 58/95/1 34/96/1
f 56/97/1 57/98/1 60/99/1 59/100/1
f 32/101/5 41/102/5 38/103/5 36/104/5
f 61/105/1 65/106/1 74/107/1 71/108/1
f 72/109/1 75/110/1 76/111/1 73/112/1
f 79/113/2 82/114/2 81/115/2 78/116/2
f 37/117/3 64/118/3 86/119/3 83/120/3
f 84/121/3 87/122/3 88/123/3 85/124/3
f 62/125/2 66/126/2 67/127/2 69/128/2
