# Blender v2.80 (sub 75) OBJ File: 'constructs.blend'
# www.blender.org
mtllib leg_basic_r.mtl
o LEGROUGH_RIGHT_Cube.021
v 0.125000 0.560256 0.033494
v 0.250000 0.560256 0.033494
v 0.250000 0.622756 0.033494
v 0.125000 0.560256 -0.091506
v 0.125000 0.622756 -0.091506
v 0.250000 0.560256 -0.091506
v 0.250000 0.622756 -0.091506
v 0.125000 0.622756 0.033494
v 0.125000 0.747756 0.033494
v 0.250000 0.747756 0.033494
v 0.125000 0.747756 -0.091506
v 0.250000 0.747756 -0.091506
v 0.125000 0.185256 0.033494
v 0.125000 0.247756 0.033494
v 0.250000 0.185256 0.033494
v 0.250000 0.247756 0.033494
v 0.125000 0.185256 -0.091506
v 0.125000 0.247756 -0.091506
v 0.250000 0.185256 -0.091506
v 0.250000 0.247756 -0.091506
v 0.208719 0.123123 0.017869
v 0.135298 0.680811 0.017869
v 0.239702 0.127202 0.017869
v 0.166281 0.684890 0.017869
v 0.208719 0.123123 -0.013381
v 0.135298 0.680811 -0.013381
v 0.239702 0.127202 -0.013381
v 0.166281 0.684890 -0.013381
v 0.062500 -0.000000 0.093750
v 0.125000 0.125000 0.031250
v 0.312500 -0.000000 0.093750
v 0.250000 0.125000 0.031250
v 0.062500 -0.000000 -0.156250
v 0.125000 0.125000 -0.093750
v 0.312500 -0.000000 -0.156250
v 0.250000 0.125000 -0.093750
v 0.062500 0.062500 0.093750
v 0.312500 0.062500 0.093750
v 0.312500 0.062500 -0.156250
v 0.062500 0.062500 -0.156250
v 0.156250 0.125000 -0.000000
v 0.156250 0.187500 -0.000000
v 0.218750 0.125000 -0.000000
v 0.218750 0.187500 -0.000000
v 0.156250 0.125000 -0.062500
v 0.156250 0.187500 -0.062500
v 0.218750 0.125000 -0.062500
v 0.218750 0.187500 -0.062500
v 0.250000 0.747756 0.033494
v 0.250000 0.779006 0.033494
v 0.250000 0.747756 -0.029006
v 0.250000 0.779006 -0.029006
v 0.166281 0.123123 -0.075881
v 0.239702 0.680811 -0.075881
v 0.135298 0.127202 -0.075881
v 0.208719 0.684890 -0.075881
v 0.166281 0.123123 -0.044631
v 0.239702 0.680811 -0.044631
v 0.135298 0.127202 -0.044631
v 0.208719 0.684890 -0.044631
v 0.140625 0.123123 -0.007787
v 0.140625 0.680811 -0.081208
v 0.140625 0.127202 0.023195
v 0.140625 0.684890 -0.050226
v 0.171875 0.123123 -0.007787
v 0.171875 0.680811 -0.081208
v 0.171875 0.127202 0.023195
v 0.171875 0.684890 -0.050226
v 0.234375 0.123123 -0.050226
v 0.234375 0.680811 0.023195
v 0.234375 0.127202 -0.081208
v 0.234375 0.684890 -0.007787
v 0.203125 0.123123 -0.050226
v 0.203125 0.680811 0.023195
v 0.203125 0.127202 -0.081208
v 0.203125 0.684890 -0.007787
v 0.250000 0.747756 0.033494
v 0.250000 0.779006 0.033494
v 0.250000 0.747756 -0.029006
v 0.250000 0.779006 -0.029006
vt 0.625000 0.281250
vt 0.687500 0.281250
vt 0.687500 0.312500
vt 0.625000 0.312500
vt 0.625000 0.250000
vt 0.687500 0.250000
vt 0.687500 0.281250
vt 0.625000 0.281250
vt 0.625000 0.281250
vt 0.687500 0.281250
vt 0.687500 0.312500
vt 0.625000 0.312500
vt 0.625000 0.250000
vt 0.687500 0.250000
vt 0.687500 0.281250
vt 0.625000 0.281250
vt 0.625000 0.781250
vt 0.625000 0.843750
vt 0.687500 0.843750
vt 0.687500 0.781250
vt 0.156250 0.156250
vt 0.093750 0.156250
vt 0.093750 0.218750
vt 0.156250 0.218750
vt 0.343750 0.312500
vt 0.281250 0.312500
vt 0.281250 0.375000
vt 0.343750 0.375000
vt 0.281250 0.187500
vt 0.218750 0.187500
vt 0.218750 0.250000
vt 0.281250 0.250000
vt 0.156250 0.187500
vt 0.156250 0.250000
vt 0.625000 0.281250
vt 0.687500 0.281250
vt 0.687500 0.312500
vt 0.625000 0.312500
vt 0.625000 0.250000
vt 0.687500 0.250000
vt 0.687500 0.281250
vt 0.625000 0.281250
vt 0.625000 0.281250
vt 0.687500 0.281250
vt 0.687500 0.312500
vt 0.625000 0.312500
vt 0.625000 0.250000
vt 0.687500 0.250000
vt 0.687500 0.281250
vt 0.625000 0.281250
vt 0.625000 0.781250
vt 0.625000 0.843750
vt 0.687500 0.843750
vt 0.687500 0.781250
vt 0.625000 0.781250
vt 0.625000 0.843750
vt 0.687500 0.843750
vt 0.687500 0.781250
vt 0.281250 0.062500
vt 0.250000 0.062500
vt 0.250000 0.343750
vt 0.281250 0.343750
vt 0.218750 0.062500
vt 0.187500 0.062500
vt 0.187500 0.343750
vt 0.218750 0.343750
vt 0.156250 0.062500
vt 0.125000 0.062500
vt 0.125000 0.343750
vt 0.156250 0.343750
vt 0.343750 0.062500
vt 0.312500 0.062500
vt 0.312500 0.343750
vt 0.343750 0.343750
vt 0.187500 0.718750
vt 0.187500 0.750000
vt 0.218750 0.750000
vt 0.218750 0.718750
vt 0.281250 0.781250
vt 0.281250 0.718750
vt 0.218750 0.718750
vt 0.218750 0.781250
vt 0.875000 0.218750
vt 0.750000 0.218750
vt 0.750000 0.250000
vt 0.875000 0.250000
vt 0.625000 0.218750
vt 0.625000 0.250000
vt 0.875000 0.218750
vt 0.750000 0.218750
vt 0.750000 0.250000
vt 0.875000 0.250000
vt 0.625000 0.218750
vt 0.625000 0.250000
vt 0.750000 0.750000
vt 0.750000 0.625000
vt 0.875000 0.625000
vt 0.875000 0.750000
vt 0.843750 0.718750
vt 0.843750 0.656250
vt 0.781250 0.656250
vt 0.781250 0.718750
vt 0.750000 0.625000
vt 0.750000 0.750000
vt 0.875000 0.750000
vt 0.875000 0.625000
vt 0.250000 0.375000
vt 0.250000 0.406250
vt 0.281250 0.406250
vt 0.281250 0.375000
vt 0.218750 0.375000
vt 0.218750 0.406250
vt 0.250000 0.406250
vt 0.250000 0.375000
vt 0.250000 0.375000
vt 0.250000 0.406250
vt 0.281250 0.406250
vt 0.281250 0.375000
vt 0.218750 0.375000
vt 0.218750 0.406250
vt 0.250000 0.406250
vt 0.250000 0.375000
vt 0.312500 0.375000
vt 0.343750 0.375000
vt 0.343750 0.406250
vt 0.312500 0.406250
vt 0.281250 0.062500
vt 0.250000 0.062500
vt 0.250000 0.343750
vt 0.281250 0.343750
vt 0.218750 0.062500
vt 0.187500 0.062500
vt 0.187500 0.343750
vt 0.218750 0.343750
vt 0.156250 0.062500
vt 0.125000 0.062500
vt 0.125000 0.343750
vt 0.156250 0.343750
vt 0.343750 0.062500
vt 0.312500 0.062500
vt 0.312500 0.343750
vt 0.343750 0.343750
vt 0.187500 0.718750
vt 0.187500 0.750000
vt 0.218750 0.750000
vt 0.218750 0.718750
vt 0.281250 0.062500
vt 0.250000 0.062500
vt 0.250000 0.343750
vt 0.281250 0.343750
vt 0.218750 0.062500
vt 0.187500 0.062500
vt 0.187500 0.343750
vt 0.218750 0.343750
vt 0.156250 0.062500
vt 0.125000 0.062500
vt 0.125000 0.343750
vt 0.156250 0.343750
vt 0.343750 0.062500
vt 0.312500 0.062500
vt 0.312500 0.343750
vt 0.343750 0.343750
vt 0.187500 0.718750
vt 0.187500 0.750000
vt 0.218750 0.750000
vt 0.218750 0.718750
vt 0.281250 0.062500
vt 0.250000 0.062500
vt 0.250000 0.343750
vt 0.281250 0.343750
vt 0.218750 0.062500
vt 0.187500 0.062500
vt 0.187500 0.343750
vt 0.218750 0.343750
vt 0.156250 0.062500
vt 0.125000 0.062500
vt 0.125000 0.343750
vt 0.156250 0.343750
vt 0.343750 0.062500
vt 0.312500 0.062500
vt 0.312500 0.343750
vt 0.343750 0.343750
vt 0.187500 0.718750
vt 0.187500 0.750000
vt 0.218750 0.750000
vt 0.218750 0.718750
vt 0.312500 0.375000
vt 0.312500 0.406250
vt 0.343750 0.406250
vt 0.343750 0.375000
vn 0.0000 0.0000 1.0000
vn 1.0000 0.0000 0.0000
vn -0.0000 0.0000 -1.0000
vn -1.0000 0.0000 0.0000
vn 0.0000 -1.0000 0.0000
vn 0.0000 1.0000 0.0000
vn 0.9914 0.1305 0.0000
vn -0.9914 -0.1305 0.0000
vn 0.1305 -0.9914 0.0000
vn 0.0000 0.7071 0.7071
vn 0.7071 0.7071 0.0000
vn -0.0000 0.7071 -0.7071
vn -0.7071 0.7071 0.0000
vn -0.9914 0.1305 0.0000
vn 0.9914 -0.1305 0.0000
vn -0.1305 -0.9914 0.0000
vn 0.0000 0.1305 0.9914
vn 0.0000 -0.1305 -0.9914
vn 0.0000 -0.9914 0.1305
vn -0.0000 0.1305 -0.9914
vn 0.0000 -0.1305 0.9914
vn 0.0000 -0.9914 -0.1305
usemtl CONSTRUCT_ROUGH
s off
f 1/1/1 2/2/1 3/3/1 8/4/1
f 2/5/2 6/6/2 7/7/2 3/8/2
f 6/9/3 4/10/3 5/11/3 7/12/3
f 4/13/4 1/14/4 8/15/4 5/16/4
f 2/17/5 1/18/5 4/19/5 6/20/5
f 8/21/1 3/22/1 10/23/1 9/24/1
f 3/25/2 7/26/2 12/27/2 10/28/2
f 7/29/3 5/30/3 11/31/3 12/32/3
f 5/30/4 8/33/4 9/34/4 11/31/4
f 13/35/1 15/36/1 16/37/1 14/38/1
f 15/39/2 19/40/2 20/41/2 16/42/2
f 19/43/3 17/44/3 18/45/3 20/46/3
f 17/47/4 13/48/4 14/49/4 18/50/4
f 15/51/5 13/52/5 17/53/5 19/54/5
f 20/55/6 18/56/6 14/57/6 16/58/6
f 21/59/1 23/60/1 24/61/1 22/62/1
f 23/63/7 27/64/7 28/65/7 24/66/7
f 27/67/3 25/68/3 26/69/3 28/70/3
f 25/71/8 21/72/8 22/73/8 26/74/8
f 23/75/9 21/76/9 25/77/9 27/78/9
f 10/79/6 12/80/6 11/81/6 9/82/6
f 29/83/1 31/84/1 38/85/1 37/86/1
f 31/84/2 35/87/2 39/88/2 38/85/2
f 35/89/3 33/90/3 40/91/3 39/92/3
f 33/90/4 29/93/4 37/94/4 40/91/4
f 31/95/5 29/96/5 33/97/5 35/98/5
f 36/99/6 34/100/6 30/101/6 32/102/6
f 30/101/10 37/103/10 38/104/10 32/102/10
f 32/102/11 38/104/11 39/105/11 36/99/11
f 36/99/12 39/105/12 40/106/12 34/100/12
f 34/100/13 40/106/13 37/103/13 30/101/13
f 41/107/1 43/108/1 44/109/1 42/110/1
f 43/111/2 47/112/2 48/113/2 44/114/2
f 47/115/3 45/116/3 46/117/3 48/118/3
f 45/119/4 41/120/4 42/121/4 46/122/4
f 51/123/4 49/124/4 50/125/4 52/126/4
f 53/127/3 55/128/3 56/129/3 54/130/3
f 55/131/14 59/132/14 60/133/14 56/134/14
f 59/135/1 57/136/1 58/137/1 60/138/1
f 57/139/15 53/140/15 54/141/15 58/142/15
f 55/143/16 53/144/16 57/145/16 59/146/16
f 61/147/4 63/148/4 64/149/4 62/150/4
f 63/151/17 67/152/17 68/153/17 64/154/17
f 67/155/2 65/156/2 66/157/2 68/158/2
f 65/159/18 61/160/18 62/161/18 66/162/18
f 63/163/19 61/164/19 65/165/19 67/166/19
f 69/167/2 71/168/2 72/169/2 70/170/2
f 71/171/20 75/172/20 76/173/20 72/174/20
f 75/175/4 73/176/4 74/177/4 76/178/4
f 73/179/21 69/180/21 70/181/21 74/182/21
f 71/183/22 69/184/22 73/185/22 75/186/22
f 79/187/2 80/188/2 78/189/2 77/190/2
