# Blender v2.80 (sub 75) OBJ File: 'wizard_lab_storage.blend'
# www.blender.org
mtllib deco_scroll.mtl
o SCROLL_MAIN.000
v -0.039307 -0.039551 0.093750
v -0.039307 0.038574 0.093750
v -0.039307 -0.039551 -0.218750
v -0.039307 0.038574 -0.218750
v 0.038818 0.038574 0.093750
v 0.038818 0.038574 -0.218750
v 0.038818 -0.020019 0.093750
v 0.038818 -0.020020 -0.218750
v -0.019775 -0.020019 0.093750
v -0.019775 -0.020020 -0.218750
v -0.019775 0.019043 0.093750
v -0.019775 0.019043 -0.218750
v 0.019287 0.019043 0.093750
v 0.019287 0.019043 -0.218750
v 0.019287 -0.000488 0.093750
v 0.019287 -0.000488 -0.218750
v -0.039307 -0.039551 0.093750
v -0.039307 0.038574 0.093750
v -0.039307 -0.039551 -0.218750
v -0.039307 0.038574 -0.218750
v 0.038818 -0.039551 0.093750
v 0.038818 0.038574 0.093750
v 0.038818 -0.039551 -0.218750
v 0.038818 0.038574 -0.218750
v 0.038818 -0.020019 0.093750
v 0.038818 -0.020020 -0.218750
v -0.019775 -0.020019 0.093750
v -0.019775 -0.020020 -0.218750
v -0.019775 0.019043 0.093750
v -0.019775 0.019043 -0.218750
v 0.019287 0.019043 0.093750
v 0.019287 0.019043 -0.218750
v 0.019287 -0.000488 0.093750
v 0.019287 -0.000488 -0.218750
v 0.038818 -0.039551 -0.218750
v 0.038818 -0.039551 0.093750
vt 0.125000 1.000000
vt 0.187500 1.000000
vt 0.187500 0.687500
vt 0.125000 0.687500
vt 0.375000 0.687500
vt 0.375000 1.000000
vt 0.437500 1.000000
vt 0.437500 0.687500
vt 0.312500 0.375000
vt 0.312500 0.687500
vt 0.375000 0.687500
vt 0.375000 0.375000
vt 0.250000 0.687500
vt 0.250000 1.000000
vt 0.312500 1.000000
vt 0.312500 0.687500
vt 0.500000 1.000000
vt 0.500000 0.687500
vt 0.562500 1.000000
vt 0.562500 0.687500
vt 0.125000 1.000000
vt 0.125000 0.687500
vt 0.187500 0.687500
vt 0.187500 1.000000
vt 0.375000 0.687500
vt 0.437500 0.687500
vt 0.437500 1.000000
vt 0.375000 1.000000
vt 0.312500 0.375000
vt 0.375000 0.375000
vt 0.375000 0.687500
vt 0.312500 0.687500
vt 0.250000 0.687500
vt 0.312500 0.687500
vt 0.312500 1.000000
vt 0.250000 1.000000
vt 0.125000 0.375000
vt 0.062500 0.375000
vt 0.062500 0.687500
vt 0.125000 0.687500
vt 0.500000 0.687500
vt 0.500000 1.000000
vt 0.562500 0.687500
vt 0.562500 1.000000
vt 0.125000 0.375000
vt 0.125000 0.687500
vt 0.062500 0.687500
vt 0.062500 0.375000
vt 0.500000 0.687500
vt 0.500000 0.625000
vt 0.562500 0.625000
vt 0.562500 0.687500
vt 0.500000 0.625000
vt 0.500000 0.687500
vt 0.562500 0.687500
vt 0.562500 0.625000
vn -1.0000 0.0000 -0.0000
vn 0.0000 -1.0000 0.0000
vn 1.0000 0.0000 0.0000
vn -0.0000 1.0000 -0.0000
vn 0.0000 -0.0000 1.0000
vn -0.0000 0.0000 -1.0000
usemtl SCROLL
s off
f 1/1/1 2/2/1 4/3/1 3/4/1
f 10/5/1 9/6/1 11/7/1 12/8/1
f 8/9/2 7/10/2 9/11/2 10/12/2
f 6/13/3 5/14/3 7/15/3 8/16/3
f 6/13/4 4/3/4 2/2/4 5/14/4
f 12/8/4 11/7/4 13/17/4 14/18/4
f 14/18/3 13/17/3 15/19/3 16/20/3
f 17/21/3 19/22/3 20/23/3 18/24/3
f 28/25/3 30/26/3 29/27/3 27/28/3
f 26/29/4 28/30/4 27/31/4 25/32/4
f 24/33/1 26/34/1 25/35/1 22/36/1
f 3/37/2 23/38/2 21/39/2 1/40/2
f 24/33/2 22/36/2 18/24/2 20/23/2
f 30/26/2 32/41/2 31/42/2 29/27/2
f 32/41/1 34/43/1 33/44/1 31/42/1
f 19/45/4 17/46/4 36/47/4 35/48/4
f 20/49/5 19/50/5 35/51/5 24/52/5
f 17/53/6 18/54/6 22/55/6 36/56/6
