# Blender v2.80 (sub 75) OBJ File: 'wands.blend'
# www.blender.org
mtllib manaweaving_advanced.mtl
o WAND_ADVANCED_Cube.007
v 0.531250 -0.000000 0.531250
v 0.531250 0.062500 0.531250
v 0.468750 0.062500 0.531250
v 0.468750 -0.000000 0.531250
v 0.531250 0.250000 0.531250
v 0.468750 0.250000 0.531250
v 0.531250 0.000000 0.468750
v 0.531250 0.062500 0.468750
v 0.531250 0.250000 0.468750
v 0.468750 0.000000 0.468750
v 0.468750 0.062500 0.468750
v 0.468750 0.250000 0.468750
v 0.531250 0.437500 0.468750
v 0.531250 0.437500 0.531250
v 0.542299 0.437500 0.542299
v 0.542299 0.437500 0.457701
v 0.542299 0.250000 0.457701
v 0.542299 0.250000 0.542299
v 0.468750 0.437500 0.531250
v 0.457701 0.437500 0.542299
v 0.457701 0.250000 0.542299
v 0.457701 0.250000 0.457701
v 0.457701 0.437500 0.457701
v 0.468750 0.437500 0.468750
v 0.468750 0.687500 0.468750
v 0.468750 0.750000 0.468750
v 0.531250 0.750000 0.468750
v 0.531250 0.687500 0.468750
v 0.531250 0.750000 0.531250
v 0.531250 0.687500 0.531250
v 0.468750 0.687500 0.531250
v 0.468750 0.750000 0.531250
v 0.531250 0.500000 0.531250
v 0.468750 0.500000 0.531250
v 0.531250 0.562500 0.531250
v 0.468750 0.562500 0.531250
v 0.531250 0.625000 0.531250
v 0.468750 0.625000 0.531250
v 0.468750 0.500000 0.468750
v 0.468750 0.562500 0.468750
v 0.468750 0.625000 0.468750
v 0.531250 0.500000 0.468750
v 0.531250 0.562500 0.468750
v 0.531250 0.625000 0.468750
v 0.562500 0.812500 0.562500
v 0.437500 0.812500 0.562500
v 0.500000 1.000000 0.500000
v 0.562500 0.812500 0.437500
v 0.437500 0.812500 0.437500
v 0.500000 -0.062500 0.500000
vt 0.125000 0.187500
vt 0.187500 0.187500
vt 0.187500 0.250000
vt 0.125000 0.250000
vt 0.875000 0.750000
vt 0.937500 0.750000
vt 0.937500 0.562500
vt 0.875000 0.562500
vt 0.125000 0.375000
vt 0.187500 0.375000
vt 0.187500 0.437500
vt 0.125000 0.437500
vt 1.000000 0.562500
vt 0.937500 0.562500
vt 0.937500 0.750000
vt 1.000000 0.750000
vt 0.125000 0.312500
vt 0.187500 0.312500
vt 0.750000 0.750000
vt 0.812500 0.750000
vt 0.812500 0.562500
vt 0.750000 0.562500
vt 0.554337 0.741837
vt 0.554337 0.695663
vt 0.562500 0.687500
vt 0.562500 0.750000
vt 0.554337 0.741837
vt 0.554337 0.695663
vt 0.562500 0.687500
vt 0.562500 0.750000
vt 0.875000 0.750000
vt 0.875000 0.562500
vt 0.812500 0.562500
vt 0.812500 0.750000
vt 0.508163 0.695663
vt 0.500000 0.687500
vt 0.508163 0.695663
vt 0.508163 0.741837
vt 0.500000 0.750000
vt 0.500000 0.687500
vt 0.000000 0.437500
vt -0.000000 0.250000
vt 0.062500 0.250000
vt 0.062500 0.437500
vt 0.312500 0.250000
vt 0.312500 0.437500
vt 0.250000 0.437500
vt 0.250000 0.250000
vt 0.125000 0.250000
vt 0.125000 0.437500
vt 0.187500 0.250000
vt 0.187500 0.437500
vt 0.508163 0.741837
vt 0.500000 0.750000
vt 0.312500 0.312500
vt 0.312500 0.375000
vt 0.250000 0.375000
vt 0.250000 0.312500
vt 0.312500 0.375000
vt 0.312500 0.437500
vt 0.250000 0.437500
vt 0.250000 0.375000
vt 0.312500 0.500000
vt 0.312500 0.437500
vt 0.250000 0.437500
vt 0.250000 0.500000
vt 0.250000 0.500000
vt 0.250000 0.562500
vt 0.312500 0.562500
vt 0.687500 0.437500
vt 0.687500 0.500000
vt 0.750000 0.500000
vt 0.750000 0.437500
vt 0.687500 0.562500
vt 0.750000 0.562500
vt 0.687500 0.625000
vt 0.750000 0.625000
vt 0.687500 0.687500
vt 0.750000 0.687500
vt 0.687500 0.750000
vt 0.687500 0.687500
vt 0.625000 0.687500
vt 0.625000 0.750000
vt 0.687500 0.625000
vt 0.625000 0.625000
vt 0.687500 0.562500
vt 0.625000 0.562500
vt 0.687500 0.500000
vt 0.625000 0.500000
vt 0.687500 0.125000
vt 0.687500 0.187500
vt 0.625000 0.187500
vt 0.625000 0.125000
vt 0.687500 0.250000
vt 0.625000 0.250000
vt 0.687500 0.312500
vt 0.625000 0.312500
vt 0.687500 0.375000
vt 0.625000 0.375000
vt 0.750000 0.125000
vt 0.750000 0.187500
vt 0.750000 0.250000
vt 0.750000 0.312500
vt 0.750000 0.375000
vt 0.468750 0.875000
vt 0.500000 0.937500
vt 0.375000 0.937500
vt 0.406250 0.875000
vt 0.500000 0.062500
vt 0.437500 0.250000
vt 0.375000 0.062500
vt 0.625000 0.062500
vt 0.562500 0.250000
vt 0.250000 0.062500
vt 0.187500 0.250000
vt 0.125000 0.062500
vt 0.343751 0.875000
vt 0.250000 0.937500
vt 0.281250 0.875000
vt 0.312500 0.250000
vt 0.593750 0.875000
vt 0.625000 0.937500
vt 0.531250 0.875000
vt 0.218750 0.875000
vt 0.125000 0.937500
vt 0.156250 0.875000
vt 0.875000 0.125000
vt 0.875000 0.187500
vt 0.812500 0.125000
vt 0.125000 0.875000
vt 0.125000 0.812500
vt 0.187500 0.875000
vt 0.875000 0.875000
vt 0.812500 0.875000
vt 0.875000 0.812500
vt 0.125000 0.187500
vt 0.125000 0.125000
vt 0.187500 0.125000
vn 0.0000 0.0000 1.0000
vn 1.0000 0.0000 0.0000
vn 0.0000 0.0000 -1.0000
vn -1.0000 0.0000 0.0000
vn 0.0000 1.0000 0.0000
vn 0.0000 -1.0000 0.0000
vn 0.0000 -0.4472 0.8944
vn 0.0000 0.3162 0.9487
vn 0.9487 0.3162 0.0000
vn 0.0000 0.3162 -0.9487
vn -0.8944 -0.4472 0.0000
vn -0.9487 0.3162 0.0000
vn 0.8944 -0.4472 0.0000
vn 0.0000 -0.4472 -0.8944
usemtl WAND
s 1
f 1/1/1 2/2/1 3/3/1 4/4/1
f 5/5/1 6/6/1 3/7/1 2/8/1
f 7/9/2 8/10/2 2/11/2 1/12/2
f 9/13/2 5/14/2 2/15/2 8/16/2
f 10/17/3 11/18/3 8/10/3 7/9/3
f 12/19/3 9/20/3 8/21/3 11/22/3
f 4/4/4 3/3/4 11/18/4 10/17/4
f 13/23/5 14/24/5 15/25/5 16/26/5
f 5/27/6 9/28/6 17/29/6 18/30/6
f 3/31/4 6/32/4 12/33/4 11/34/4
f 14/24/5 19/35/5 20/36/5 15/25/5
f 12/37/6 6/38/6 21/39/6 22/40/6
f 20/41/1 21/42/1 18/43/1 15/44/1
f 21/45/4 20/46/4 23/47/4 22/48/4
f 18/43/2 17/49/2 16/50/2 15/44/2
f 17/51/3 22/48/3 23/47/3 16/52/3
f 9/28/6 12/37/6 22/40/6 17/29/6
f 24/53/5 13/23/5 16/26/5 23/54/5
f 6/38/6 5/27/6 18/30/6 21/39/6
f 19/35/5 24/53/5 23/54/5 20/36/5
f 25/55/3 26/56/3 27/57/3 28/58/3
f 28/59/2 27/60/2 29/61/2 30/62/2
f 31/63/4 32/64/4 26/65/4 25/66/4
f 30/67/1 29/68/1 32/69/1 31/63/1
f 14/70/1 33/71/1 34/72/1 19/73/1
f 33/71/1 35/74/1 36/75/1 34/72/1
f 35/74/1 37/76/1 38/77/1 36/75/1
f 37/76/1 30/78/1 31/79/1 38/77/1
f 19/80/4 34/81/4 39/82/4 24/83/4
f 34/81/4 36/84/4 40/85/4 39/82/4
f 36/84/4 38/86/4 41/87/4 40/85/4
f 38/86/4 31/88/4 25/89/4 41/87/4
f 13/90/2 42/91/2 33/92/2 14/93/2
f 42/91/2 43/94/2 35/95/2 33/92/2
f 43/94/2 44/96/2 37/97/2 35/95/2
f 44/96/2 28/98/2 30/99/2 37/97/2
f 24/100/3 39/101/3 42/91/3 13/90/3
f 39/101/3 40/102/3 43/94/3 42/91/3
f 40/102/3 41/103/3 44/96/3 43/94/3
f 41/103/3 25/104/3 28/98/3 44/96/3
usemtl CHIMERITE
f 29/105/7 45/106/7 46/107/7 32/108/7
f 45/109/8 47/110/8 46/111/8
f 48/112/9 47/113/9 45/109/9
f 49/114/10 47/115/10 48/116/10
f 32/117/11 46/107/11 49/118/11 26/119/11
f 46/111/12 47/120/12 49/114/12
f 27/121/13 48/122/13 45/106/13 29/123/13
f 26/124/14 49/118/14 48/125/14 27/126/14
f 10/127/14 7/128/14 50/129/14
f 7/130/13 1/131/13 50/132/13
f 1/133/7 4/134/7 50/135/7
f 4/136/11 10/137/11 50/138/11