# Blender v2.83.5 OBJ File: ''
# www.blender.org
mtllib manaweaving_basic.mtl
o Cube.003_Cube.005
v 0.468750 0.000000 0.468750
v 0.531250 0.000000 0.468750
v 0.531250 -0.000000 0.531250
v 0.468750 -0.000000 0.531250
v 0.531250 0.062500 0.531250
v 0.468750 0.062500 0.531250
v 0.531250 0.250000 0.531250
v 0.468750 0.250000 0.531250
v 0.531250 0.750000 0.531250
v 0.531250 0.812500 0.531250
v 0.468750 0.812500 0.531250
v 0.468750 0.750000 0.531250
v 0.531250 1.000000 0.531250
v 0.468750 1.000000 0.531250
v 0.531250 0.062500 0.468750
v 0.531250 0.250000 0.468750
v 0.531250 0.812500 0.468750
v 0.531250 1.000000 0.468750
v 0.468750 0.062500 0.468750
v 0.468750 0.250000 0.468750
v 0.468750 0.812500 0.468750
v 0.468750 1.000000 0.468750
v 0.531250 0.437500 0.468750
v 0.531250 0.437500 0.531250
v 0.542299 0.437500 0.542299
v 0.542299 0.437500 0.457701
v 0.468750 0.750000 0.468750
v 0.542299 0.250000 0.457701
v 0.542299 0.250000 0.542299
v 0.531250 0.750000 0.468750
v 0.468750 0.437500 0.531250
v 0.457701 0.437500 0.542299
v 0.457701 0.250000 0.542299
v 0.457701 0.250000 0.457701
v 0.457701 0.437500 0.457701
v 0.468750 0.437500 0.468750
vt 0.875000 0.000000
vt 1.000000 0.000000
vt 1.000000 0.125000
vt 0.875000 0.125000
vt 0.125000 0.187500
vt 0.187500 0.187500
vt 0.187500 0.250000
vt 0.125000 0.250000
vt 0.875000 0.750000
vt 0.937500 0.750000
vt 0.937500 0.562500
vt 0.875000 0.562500
vt 0.437500 0.187500
vt 0.375000 0.187500
vt 0.375000 0.250000
vt 0.437500 0.250000
vt 0.187500 1.000000
vt 0.187500 0.812500
vt 0.250000 0.812500
vt 0.250000 1.000000
vt 0.125000 0.375000
vt 0.187500 0.375000
vt 0.187500 0.437500
vt 0.125000 0.437500
vt 1.000000 0.562500
vt 0.937500 0.562500
vt 0.937500 0.750000
vt 1.000000 0.750000
vt 0.000000 1.000000
vt 0.000000 0.812500
vt 0.062500 0.812500
vt 0.062500 1.000000
vt 0.125000 0.312500
vt 0.187500 0.312500
vt 0.750000 0.750000
vt 0.812500 0.750000
vt 0.812500 0.562500
vt 0.750000 0.562500
vt 0.062500 1.000000
vt 0.062500 0.812500
vt 0.125000 0.812500
vt 0.125000 1.000000
vt 0.554337 0.741837
vt 0.554337 0.695663
vt 0.562500 0.687500
vt 0.562500 0.750000
vt 0.437500 0.375000
vt 0.375000 0.375000
vt 0.375000 0.437500
vt 0.437500 0.437500
vt 0.125000 1.000000
vt 0.125000 0.812500
vt 0.187500 0.812500
vt 0.187500 1.000000
vt 0.554337 0.741837
vt 0.554337 0.695663
vt 0.562500 0.687500
vt 0.562500 0.750000
vt 0.875000 0.750000
vt 0.875000 0.562500
vt 0.812500 0.562500
vt 0.812500 0.750000
vt 0.375000 0.250000
vt 0.437500 0.250000
vt 0.437500 0.312500
vt 0.375000 0.312500
vt 0.508163 0.695663
vt 0.500000 0.687500
vt 0.508163 0.695663
vt 0.508163 0.741837
vt 0.500000 0.750000
vt 0.500000 0.687500
vt 0.375000 0.312500
vt 0.437500 0.312500
vt 0.437500 0.375000
vt 0.375000 0.375000
vt 0.000000 0.437500
vt -0.000000 0.250000
vt 0.062500 0.250000
vt 0.062500 0.437500
vt 0.312500 0.250000
vt 0.312500 0.437500
vt 0.250000 0.437500
vt 0.250000 0.250000
vt 0.125000 0.250000
vt 0.125000 0.437500
vt 0.187500 0.250000
vt 0.187500 0.437500
vt 0.508163 0.741837
vt 0.500000 0.750000
vt 0.750000 0.125000
vt 0.750000 0.437500
vt 0.687500 0.437500
vt 0.687500 0.125000
vt 0.625000 0.437500
vt 0.625000 0.125000
vt 0.687500 0.750000
vt 0.687500 0.437500
vt 0.625000 0.437500
vt 0.625000 0.750000
vt 0.687500 0.437500
vt 0.687500 0.750000
vt 0.750000 0.750000
vt 0.750000 0.437500
vt 0.812500 0.062500
vt 0.875000 0.062500
vt 0.875000 0.125000
vt 0.812500 0.125000
vn 0.0000 -1.0000 -0.0000
vn 0.0000 0.0000 1.0000
vn 1.0000 0.0000 0.0000
vn 0.0000 0.0000 -1.0000
vn -1.0000 0.0000 0.0000
vn 0.0000 1.0000 0.0000
usemtl WAND
s 1
f 1/1/1 2/2/1 3/3/1 4/4/1
f 3/5/2 5/6/2 6/7/2 4/8/2
f 7/9/2 8/10/2 6/11/2 5/12/2
f 9/13/2 10/14/2 11/15/2 12/16/2
f 10/17/2 13/18/2 14/19/2 11/20/2
f 2/21/3 15/22/3 5/23/3 3/24/3
f 16/25/3 7/26/3 5/27/3 15/28/3
f 17/29/3 18/30/3 13/31/3 10/32/3
f 1/33/4 19/34/4 15/22/4 2/21/4
f 20/35/4 16/36/4 15/37/4 19/38/4
f 21/39/4 22/40/4 18/41/4 17/42/4
f 4/8/5 6/7/5 19/34/5 1/33/5
f 23/43/6 24/44/6 25/45/6 26/46/6
f 12/47/5 11/48/5 21/49/5 27/50/5
f 11/51/5 14/52/5 22/53/5 21/54/5
f 7/55/1 16/56/1 28/57/1 29/58/1
f 6/59/5 8/60/5 20/61/5 19/62/5
f 30/63/3 17/64/3 10/65/3 9/66/3
f 24/44/6 31/67/6 32/68/6 25/45/6
f 20/69/1 8/70/1 33/71/1 34/72/1
f 27/73/4 21/74/4 17/75/4 30/76/4
f 32/77/2 33/78/2 29/79/2 25/80/2
f 33/81/5 32/82/5 35/83/5 34/84/5
f 29/79/3 28/85/3 26/86/3 25/80/3
f 28/87/4 34/84/4 35/83/4 26/88/4
f 16/56/1 20/69/1 34/72/1 28/57/1
f 36/89/6 23/43/6 26/46/6 35/90/6
f 8/70/1 7/55/1 29/58/1 33/71/1
f 31/67/6 36/89/6 35/90/6 32/68/6
f 36/91/4 27/92/4 30/93/4 23/94/4
f 23/94/3 30/93/3 9/95/3 24/96/3
f 31/97/5 12/98/5 27/99/5 36/100/5
f 24/101/2 9/102/2 12/103/2 31/104/2
f 14/105/6 13/106/6 18/107/6 22/108/6
