# Blender v2.80 (sub 75) OBJ File: 'manaweave_cache.blend'
# www.blender.org
mtllib manaweave_cache_inner.mtl
o CACHE_INNER_Cube.004
v -0.250000 0.000000 0.250000
v -0.187500 1.000000 0.187500
v -0.250000 0.000000 -0.250000
v -0.187500 1.000000 -0.187500
v 0.250000 0.000000 0.250000
v 0.187500 1.000000 0.187500
v 0.250000 0.000000 -0.250000
v 0.187500 1.000000 -0.187500
v -0.250000 1.000000 0.250000
v -0.250000 1.000000 -0.250000
v 0.250000 1.000000 -0.250000
v 0.250000 1.000000 0.250000
v 0.000000 1.187500 0.000000
v -0.187500 2.062500 0.187500
v -0.187500 2.000000 0.187500
v -0.187500 2.062500 -0.187500
v -0.187500 2.000000 -0.187500
v 0.187500 2.062500 0.187500
v 0.187500 2.000000 0.187500
v 0.187500 2.062500 -0.187500
v 0.187500 2.000000 -0.187500
v -0.250000 2.000000 0.250000
v -0.250000 2.000000 -0.250000
v 0.250000 2.000000 -0.250000
v 0.250000 2.000000 0.250000
v 0.000000 1.812500 0.000000
v -0.250000 2.062500 -0.250000
v -0.250000 2.062500 0.250000
v 0.250000 2.062500 -0.250000
v 0.250000 2.062500 0.250000
v -0.125000 2.187500 -0.125000
v -0.125000 2.187500 0.125000
v 0.125000 2.187500 -0.125000
v 0.125000 2.187500 0.125000
v -0.187500 2.187500 -0.187500
v -0.187500 2.187500 0.187500
v 0.187500 2.187500 -0.187500
v 0.187500 2.187500 0.187500
v 0.000000 2.312500 0.000000
v -0.250000 0.500000 0.250000
v -0.250000 0.500000 -0.250000
v 0.250000 0.500000 -0.250000
v 0.250000 0.500000 0.250000
vt 0.000000 0.937500
vt 0.062500 0.937500
vt 0.062500 1.000000
vt -0.000000 1.000000
vt 0.125000 0.437500
vt 0.125000 0.937500
vt 0.062500 0.937500
vt 0.062500 0.437500
vt 0.843750 0.718750
vt 0.843750 0.531250
vt 0.875000 0.500000
vt 0.875000 0.750000
vt 0.656250 0.531250
vt 0.625000 0.500000
vt 0.656250 0.718750
vt 0.625000 0.750000
vt 0.062500 0.437500
vt 0.062500 0.937500
vt 0.125000 0.937500
vt 0.125000 0.437500
vt 0.125000 0.937500
vt 0.125000 0.437500
vt 0.062500 0.437500
vt 0.062500 0.937500
vt 0.062500 0.937500
vt 0.062500 0.437500
vt 0.125000 0.437500
vt 0.125000 0.937500
vt 0.375000 0.375000
vt 0.500000 0.375000
vt 0.500000 0.750000
vt 0.375000 0.750000
vt 0.187500 0.875000
vt 0.125000 0.937500
vt 0.187500 0.500000
vt 0.187500 0.875000
vt 0.125000 0.437500
vt 0.187500 0.500000
vt 0.187500 0.875000
vt 0.187500 0.500000
vt 0.187500 0.500000
vt 0.125000 0.437500
vt 0.187500 0.875000
vt 0.125000 0.937500
vt 0.625000 0.625000
vt 0.500000 0.625000
vt 0.500000 0.250000
vt 0.625000 0.250000
vt 0.375000 0.000000
vt 0.500000 0.000000
vt 0.500000 0.375000
vt 0.375000 0.375000
vt 0.625000 1.000000
vt 0.500000 1.000000
vt 0.500000 0.625000
vt 0.625000 0.625000
vt 0.687500 0.687500
vt 0.625000 0.625000
vt 0.625000 1.000000
vt 0.687500 0.937500
vt 0.937500 0.687500
vt 1.000000 0.625000
vt 0.937500 0.937500
vt 1.000000 1.000000
vt 0.250000 0.750000
vt 0.250000 0.250000
vt 0.750000 0.250000
vt 0.750000 0.750000
vt 0.250000 0.750000
vt 0.250000 0.250000
vt 0.750000 0.250000
vt 0.750000 0.750000
vt 0.250000 0.750000
vt 0.250000 0.250000
vt 0.750000 0.250000
vt 0.750000 0.750000
vt 0.250000 0.750000
vt 0.250000 0.250000
vt 0.750000 0.250000
vt 0.750000 0.750000
vt 0.750000 0.750000
vt 0.250000 0.750000
vt 0.750000 0.750000
vt 0.250000 0.750000
vt 0.750000 0.750000
vt 0.250000 0.750000
vt 0.750000 0.750000
vt 0.250000 0.750000
vt 0.125000 0.125000
vt 0.500000 0.125000
vt 0.312500 0.312500
vt 0.500000 0.500000
vt 0.125000 0.500000
vt 0.500000 0.500000
vt 0.687500 0.687500
vt 0.875000 0.500000
vt 0.875000 0.875000
vt 0.500000 0.875000
vt 0.875000 0.125000
vt 0.750000 0.250000
vt 0.625000 0.125000
vt 0.625000 0.375000
vt 0.875000 0.375000
vn 0.0000 -1.0000 0.0000
vn -1.0000 0.0000 0.0000
vn 0.0000 1.0000 0.0000
vn 0.0000 0.0000 -1.0000
vn 1.0000 0.0000 0.0000
vn 0.0000 0.0000 1.0000
vn 0.0000 0.7071 -0.7071
vn -0.7071 0.7071 0.0000
vn 0.0000 0.7071 0.7071
vn 0.7071 0.7071 0.0000
vn 0.0000 -0.7071 -0.7071
vn -0.7071 -0.7071 0.0000
vn 0.0000 -0.7071 0.7071
vn 0.7071 -0.7071 0.0000
usemtl ARCANE_BI
s off
f 3/1/1 7/2/1 5/3/1 1/4/1
f 28/5/2 27/6/2 23/7/2 22/8/2
f 2/9/3 4/10/3 10/11/3 9/12/3
f 4/10/3 8/13/3 11/14/3 10/11/3
f 8/13/3 6/15/3 12/16/3 11/14/3
f 6/15/3 2/9/3 9/12/3 12/16/3
f 27/17/4 29/18/4 24/19/4 23/20/4
f 29/21/5 30/22/5 25/23/5 24/24/5
f 30/25/6 28/26/6 22/27/6 25/28/6
f 20/29/5 37/30/5 38/31/5 18/32/5
f 15/33/1 22/34/1 23/20/1 17/35/1
f 17/35/1 23/20/1 24/19/1 21/36/1
f 21/36/1 24/19/1 25/37/1 19/38/1
f 19/38/1 25/37/1 22/34/1 15/33/1
f 16/39/3 27/6/3 28/5/3 14/40/3
f 20/41/3 29/42/3 27/6/3 16/39/3
f 18/43/3 30/44/3 29/42/3 20/41/3
f 14/40/3 28/5/3 30/44/3 18/43/3
f 14/45/2 36/46/2 35/47/2 16/48/2
f 18/49/6 38/50/6 36/51/6 14/52/6
f 16/53/4 35/54/4 37/55/4 20/56/4
f 31/57/3 35/58/3 36/59/3 32/60/3
f 33/61/3 37/62/3 35/58/3 31/57/3
f 34/63/3 38/64/3 37/62/3 33/61/3
f 32/60/3 36/59/3 38/64/3 34/63/3
f 5/65/6 43/66/6 40/67/6 1/68/6
f 7/69/5 42/70/5 43/71/5 5/72/5
f 3/73/4 41/74/4 42/75/4 7/76/4
f 1/77/2 40/78/2 41/79/2 3/80/2
usemtl ARCANE_TRI
f 40/67/2 9/81/2 10/82/2 41/74/2
f 41/79/4 10/83/4 11/84/4 42/70/4
f 42/75/5 11/85/5 12/86/5 43/66/5
f 43/71/6 12/87/6 9/88/6 40/78/6
usemtl CHIMERITE
f 8/89/7 4/90/7 13/91/7
f 4/90/8 2/92/8 13/91/8
f 2/92/9 6/93/9 13/91/9
f 6/93/10 8/89/10 13/91/10
f 21/94/11 26/95/11 17/96/11
f 17/96/12 26/95/12 15/97/12
f 15/97/13 26/95/13 19/98/13
f 19/98/14 26/95/14 21/94/14
f 34/99/9 39/100/9 32/101/9
f 31/102/7 39/100/7 33/103/7
f 33/103/10 39/100/10 34/99/10
f 32/101/8 39/100/8 31/102/8
