# Blender v2.80 (sub 75) OBJ File: 'constructs.blend'
# www.blender.org
mtllib head_basic.mtl
o HEAD_DECO_WOOD_Cube.089
v -0.219952 1.729911 0.179927
v -0.248478 1.686897 0.293773
v -0.156250 1.625000 0.156250
v -0.184776 1.581985 0.270096
v -0.219952 1.729911 0.179927
v -0.248478 1.686897 0.293773
v -0.156250 1.625000 0.156250
v -0.184776 1.581985 0.270096
v 0.009837 1.694488 0.164381
v -0.042919 1.762529 0.255002
v -0.093750 1.625000 0.156250
v -0.146506 1.693041 0.246871
v 0.009837 1.694488 0.164381
v -0.042919 1.762529 0.255002
v -0.093750 1.625000 0.156250
v -0.146506 1.693041 0.246871
v 0.075965 1.654775 0.276342
v 0.132315 1.764737 0.257424
v 0.093750 1.625000 0.156250
v 0.150100 1.734963 0.137332
v 0.075965 1.654775 0.276342
v 0.132315 1.764737 0.257424
v 0.093750 1.625000 0.156250
v 0.150100 1.734963 0.137332
v 0.235718 1.582886 0.243062
v 0.312257 1.678879 0.219566
v 0.156250 1.625000 0.156250
v 0.232789 1.720994 0.132754
v 0.235718 1.582886 0.243062
v 0.312257 1.678879 0.219566
v 0.156250 1.625000 0.156250
v 0.232789 1.720994 0.132754
vt -0.000000 0.500000
vt 0.000000 0.531250
vt 0.031250 0.531250
vt 0.031250 0.500000
vt -0.000000 0.500000
vt 0.031250 0.500000
vt 0.031250 0.531250
vt 0.000000 0.531250
vt -0.000000 0.500000
vt 0.000000 0.531250
vt 0.031250 0.531250
vt 0.031250 0.500000
vt -0.000000 0.500000
vt 0.031250 0.500000
vt 0.031250 0.531250
vt 0.000000 0.531250
vt -0.000000 0.500000
vt 0.000000 0.531250
vt 0.031250 0.531250
vt 0.031250 0.500000
vt -0.000000 0.500000
vt 0.031250 0.500000
vt 0.031250 0.531250
vt 0.000000 0.531250
vt -0.000000 0.500000
vt 0.000000 0.531250
vt 0.031250 0.531250
vt 0.031250 0.500000
vt -0.000000 0.500000
vt 0.031250 0.500000
vt 0.031250 0.531250
vt 0.000000 0.531250
vn -0.8296 -0.4209 -0.3669
vn 0.8296 0.4209 0.3669
vn -0.3676 0.6282 -0.6857
vn 0.3676 -0.6282 0.6857
vn 0.8812 -0.4116 0.2325
vn -0.8812 0.4116 -0.2325
vn 0.4700 -0.5447 -0.6945
vn -0.4700 0.5447 0.6945
usemtl MAIN
s off
f 1/1/1 3/2/1 4/3/1 2/4/1
f 5/5/2 6/6/2 8/7/2 7/8/2
f 9/9/3 11/10/3 12/11/3 10/12/3
f 13/13/4 14/14/4 16/15/4 15/16/4
f 17/17/5 19/18/5 20/19/5 18/20/5
f 21/21/6 22/22/6 24/23/6 23/24/6
f 25/25/7 27/26/7 28/27/7 26/28/7
f 29/29/8 30/30/8 32/31/8 31/32/8
o HEAD_BASIC_Cube.002
v 0.156250 1.312500 0.156250
v 0.156250 1.625000 0.156250
v -0.156250 1.312500 0.156250
v -0.156250 1.625000 0.156250
v 0.156250 1.312500 -0.156250
v 0.156250 1.625000 -0.156250
v -0.156250 1.312500 -0.156250
v -0.156250 1.625000 -0.156250
v -0.156250 1.375000 0.093750
v -0.156250 1.562500 0.093750
v -0.156250 1.562500 -0.093750
v -0.156250 1.375000 -0.093750
v 0.156250 1.375000 -0.093750
v 0.156250 1.562500 -0.093750
v 0.156250 1.562500 0.093750
v 0.156250 1.375000 0.093750
v -0.140625 1.375000 -0.093750
v -0.140625 1.375000 0.093750
v -0.140625 1.562500 0.093750
v -0.140625 1.562500 -0.093750
v 0.140625 1.375000 0.093750
v 0.140625 1.375000 -0.093750
v 0.140625 1.562500 -0.093750
v 0.140625 1.562500 0.093750
v 0.093750 1.375000 0.156250
v -0.093750 1.609375 0.140625
v 0.093750 1.609375 0.140625
v -0.093750 1.375000 0.156250
v 0.093750 1.375000 0.140625
v 0.093750 1.625000 -0.093750
v -0.093750 1.625000 -0.093750
v -0.093750 1.375000 0.140625
v -0.093750 1.625000 0.156250
v 0.093750 1.625000 0.156250
v -0.093750 1.609375 -0.093750
v 0.093750 1.609375 -0.093750
v -0.140625 1.375000 -0.093750
v -0.140625 1.375000 0.093750
v -0.140625 1.562500 0.093750
v -0.140625 1.562500 -0.093750
v 0.140625 1.375000 0.093750
v 0.140625 1.375000 -0.093750
v 0.140625 1.562500 -0.093750
v 0.140625 1.562500 0.093750
v -0.093750 1.609375 0.140625
v 0.093750 1.609375 0.140625
v 0.093750 1.375000 0.140625
v -0.093750 1.375000 0.140625
v -0.093750 1.609375 -0.093750
v 0.093750 1.609375 -0.093750
vt 1.000000 0.218750
vt 0.984375 0.218750
vt 0.984375 0.281250
vt 1.000000 0.296875
vt 0.937500 0.312500
vt 0.984375 0.312500
vt 0.984375 0.328125
vt 0.937500 0.328125
vt 1.000000 0.375000
vt 1.000000 0.453125
vt 0.921875 0.453125
vt 0.921875 0.375000
vt 0.984375 0.328125
vt 0.937500 0.328125
vt 0.937500 0.312500
vt 0.984375 0.312500
vt 1.000000 0.296875
vt 0.984375 0.281250
vt 1.000000 0.296875
vt 1.000000 0.375000
vt 0.984375 0.359375
vt 0.921875 0.375000
vt 0.937500 0.359375
vt 0.921875 0.296875
vt 0.921875 0.296875
vt 0.921875 0.375000
vt 0.937500 0.359375
vt 0.937500 0.312500
vt 1.000000 0.375000
vt 0.984375 0.359375
vt 0.984375 0.312500
vt 0.937500 0.343750
vt 0.984375 0.343750
vt 0.953125 0.359375
vt 0.953125 0.312500
vt 0.937500 0.312500
vt 0.937500 0.359375
vt 0.968750 0.359375
vt 0.968750 0.312500
vt 0.984375 0.343750
vt 0.937500 0.343750
vt 0.968750 0.312500
vt 0.968750 0.359375
vt 0.953125 0.312500
vt 0.953125 0.359375
vt 0.937500 0.359375
vt 0.921875 0.218750
vt 0.921875 0.296875
vt 0.937500 0.281250
vt 0.937500 0.218750
vt 0.937500 0.281250
vt 0.937500 0.265625
vt 0.984375 0.265625
vt 0.921875 0.296875
vt 0.953125 0.281250
vt 0.953125 0.222656
vt 0.984375 0.265625
vt 0.937500 0.265625
vt 0.968750 0.281250
vt 0.968750 0.222656
vt 0.953125 0.281250
vt 0.968750 0.281250
vt 0.984375 0.468750
vt 0.968750 0.468750
vt 0.968750 0.484375
vt 0.984375 0.484375
vt 0.000000 0.437500
vt 0.187500 0.437500
vt 0.187500 0.625000
vt 0.000000 0.625000
vt 0.000000 0.437500
vt 0.187500 0.437500
vt 0.187500 0.625000
vt -0.000000 0.625000
vt 0.187500 0.437500
vt 0.187500 0.203125
vt 0.000000 0.203125
vt 0.000000 0.437500
vt 0.000000 0.000000
vt 0.000000 0.234375
vt 0.187500 0.234375
vt 0.187500 0.000000
vn 0.0000 0.0000 1.0000
vn 0.0000 1.0000 0.0000
vn 0.0000 0.0000 -1.0000
vn -1.0000 0.0000 0.0000
vn 1.0000 0.0000 0.0000
vn 0.0000 -1.0000 0.0000
usemtl MAIN
s off
f 34/33/9 66/34/9 57/35/9 33/36/9
f 44/37/10 41/38/10 50/39/10 49/40/10
f 39/41/11 40/42/11 38/43/11 37/44/11
f 48/45/10 45/46/10 54/47/10 53/48/10
f 66/34/10 34/33/10 38/49/10 62/50/10
f 35/51/12 36/52/12 42/53/12 41/38/12
f 36/52/12 40/54/12 43/55/12 42/53/12
f 40/54/12 39/56/12 44/37/12 43/55/12
f 39/56/12 35/51/12 41/38/12 44/37/12
f 37/57/13 38/58/13 46/59/13 45/60/13
f 38/58/13 34/61/13 47/62/13 46/59/13
f 34/61/13 33/36/13 48/63/13 47/62/13
f 33/36/13 37/57/13 45/60/13 48/63/13
f 42/53/14 43/55/14 52/64/14 51/65/14
f 43/66/9 44/67/9 49/68/9 52/69/9
f 41/38/11 42/53/11 51/70/11 50/71/11
f 46/59/14 47/62/14 56/72/14 55/73/14
f 47/62/11 48/63/11 53/74/11 56/75/11
f 45/76/9 46/77/9 55/78/9 54/47/9
f 36/79/9 35/80/9 60/81/9 65/82/9
f 62/50/9 63/83/9 67/84/9 68/85/9
f 35/80/9 33/36/9 57/35/9 60/81/9
f 36/79/10 65/82/10 63/83/10 40/86/10
f 38/49/10 40/86/10 63/83/10 62/50/10
f 65/82/13 60/81/13 64/87/13 58/88/13
f 60/81/10 57/35/10 61/89/10 64/90/10
f 66/34/12 62/50/12 68/91/12 59/92/12
f 63/83/13 65/82/13 58/88/13 67/93/13
f 57/35/12 66/34/12 59/92/12 61/94/12
f 37/95/14 33/96/14 35/97/14 39/98/14
usemtl CIRCUITRY
f 70/99/12 71/100/12 72/101/12 69/102/12
f 74/103/13 75/104/13 76/105/13 73/106/13
f 81/107/10 77/108/10 78/109/10 82/110/10
f 79/111/9 78/112/9 77/113/9 80/114/9
