# Blender v2.80 (sub 75) OBJ File: 'constructs.blend'
# www.blender.org
mtllib leg_ender_back_l.mtl
o LEG_ENDER_LEFTBACK_Cube.004
v -0.187500 0.528185 0.213441
v -0.250000 0.707312 0.028185
v -0.375000 0.528185 0.213441
v -0.312500 0.707312 0.028185
v -0.187500 0.690565 0.307191
v -0.250000 0.761438 0.059435
v -0.375000 0.690565 0.307191
v -0.312500 0.761438 0.059435
v -0.187500 0.621935 0.051062
v -0.375000 0.621935 0.051062
v -0.375000 0.784315 0.144812
v -0.187500 0.784315 0.144812
v -0.218750 0.415416 0.258015
v -0.343750 0.415416 0.258015
v -0.218750 0.450775 0.377910
v -0.343750 0.450775 0.377910
v -0.218750 0.655206 0.187297
v -0.343750 0.655206 0.187297
v -0.343750 0.690565 0.307191
v -0.218750 0.690565 0.307191
v -0.312500 0.322041 0.383295
v -0.312500 0.304361 0.323347
v -0.250000 0.304361 0.323347
v -0.250000 0.322041 0.383295
v -0.250000 0.064572 0.394065
v -0.250000 0.082252 0.454013
v -0.312500 0.082252 0.454013
v -0.312500 0.064572 0.394065
v -0.281250 0.000362 0.445583
vt 0.875000 0.406250
vt 0.921875 0.406250
vt 0.921875 0.359375
vt 0.875000 0.359375
vt 0.875000 0.406250
vt 0.875000 0.359375
vt 0.921875 0.406250
vt 0.921875 0.359375
vt 0.875000 0.359375
vt 0.921875 0.359375
vt 0.921875 0.312500
vt 0.875000 0.312500
vt 0.890625 0.296875
vt 0.906250 0.296875
vt 0.906250 0.281250
vt 0.890625 0.281250
vt 0.921875 0.265625
vt 0.875000 0.265625
vt 0.875000 0.312500
vt 0.921875 0.312500
vt 0.875000 0.234375
vt 0.843750 0.234375
vt 0.843750 0.296875
vt 0.875000 0.296875
vt 0.812500 0.234375
vt 0.843750 0.234375
vt 0.843750 0.296875
vt 0.812500 0.296875
vt 0.875000 0.234375
vt 0.843750 0.234375
vt 0.843750 0.296875
vt 0.875000 0.296875
vt 0.812500 0.234375
vt 0.843750 0.234375
vt 0.843750 0.296875
vt 0.812500 0.296875
vt 0.835938 0.203125
vt 0.820312 0.203125
vt 0.812500 0.234375
vt 0.867188 0.203125
vt 0.851562 0.203125
vt 0.820312 0.203125
vt 0.835938 0.203125
vt 0.867188 0.203125
vt 0.851562 0.203125
vt 0.906250 0.265625
vt 0.906250 0.203125
vt 0.890625 0.203125
vt 0.890625 0.265625
vt 0.921875 0.203125
vt 0.906250 0.187500
vt 0.906250 0.203125
vt 0.906250 0.265625
vt 0.906250 0.203125
vt 0.921875 0.203125
vt 0.921875 0.265625
vt 0.921875 0.265625
vt 0.921875 0.203125
vt 0.890625 0.265625
vt 0.890625 0.203125
vt 0.906250 0.203125
vt 0.906250 0.265625
vt 0.921875 0.203125
vt 0.890625 0.187500
vn 0.0000 -0.8660 -0.5000
vn -1.0000 -0.0000 0.0000
vn 0.0000 0.8660 0.5000
vn 1.0000 0.0000 -0.0000
vn 0.0000 -0.5000 0.8660
vn -0.0000 0.5000 -0.8660
vn -0.0000 -0.2588 -0.9659
vn -0.7071 0.3536 -0.6124
vn -0.0000 0.9659 -0.2588
vn 0.7071 0.3536 -0.6124
vn 0.0000 -0.2829 -0.9592
vn 0.0000 0.2829 0.9592
vn 0.9701 -0.2326 0.0686
vn 0.0000 0.0418 0.9991
vn -0.9701 -0.2326 0.0686
vn 0.0000 -0.5071 -0.8619
vn 0.0000 -0.1024 0.9947
vn 0.0000 -0.6258 -0.7800
vn 0.9251 -0.3641 0.1074
vn -0.9251 -0.3641 0.1074
usemtl MAIN
s off
f 1/1/1 3/2/1 10/3/1 9/4/1
f 3/2/2 7/5/2 11/6/2 10/3/2
f 7/5/3 5/7/3 12/8/3 11/6/3
f 5/7/4 1/1/4 9/4/4 12/8/4
f 3/9/5 1/10/5 5/11/5 7/12/5
f 8/13/6 6/14/6 2/15/6 4/16/6
f 2/15/7 9/17/7 10/18/7 4/16/7
f 4/16/8 10/18/8 11/19/8 8/13/8
f 8/13/9 11/19/9 12/20/9 6/14/9
f 6/14/10 12/20/10 9/17/10 2/15/10
f 13/21/11 14/22/11 18/23/11 17/24/11
f 14/25/2 16/26/2 19/27/2 18/28/2
f 16/29/12 15/30/12 20/31/12 19/32/12
f 15/33/4 13/34/4 17/35/4 20/36/4
f 15/30/13 24/37/13 23/38/13 13/39/13
f 16/29/14 21/40/14 24/41/14 15/30/14
f 14/25/15 22/42/15 21/43/15 16/26/15
f 13/21/16 23/44/16 22/45/16 14/22/16
f 22/46/2 28/47/2 27/48/2 21/49/2
f 27/50/17 29/51/17 26/52/17
f 21/53/12 27/54/12 26/55/12 24/56/12
f 23/57/11 25/58/11 28/47/11 22/46/11
f 24/59/4 26/60/4 25/61/4 23/62/4
f 25/61/18 29/51/18 28/63/18
f 26/60/19 29/64/19 25/61/19
f 28/47/20 29/64/20 27/48/20
