# Blender v2.83.5 OBJ File: 'untitled.blend'
# www.blender.org
mtllib mana_crystal_runes.mtl
o Cube.001
v 0.500000 0.000000 0.500000
v -0.500000 0.000000 0.500000
v 0.500000 0.000000 -0.500000
v -0.500000 0.000000 -0.500000
v 0.000000 0.000000 0.312500
v 0.312500 0.000000 -0.312500
v -0.312500 0.000000 -0.312500
v 0.312500 0.000000 0.312500
v -0.312500 0.000000 0.312500
v 0.000000 0.000000 0.500000
v -0.312500 0.000000 -0.000000
v -0.500000 0.000000 -0.000000
v 0.000000 0.000000 -0.312500
v 0.000000 0.000000 -0.500000
v 0.312500 0.000000 -0.000000
v 0.500000 0.000000 -0.000000
v 0.500000 0.000000 0.500000
v -0.500000 0.000000 0.500000
v 0.500000 0.000000 -0.500000
v -0.500000 0.000000 -0.500000
v 0.000000 0.000000 0.312500
v 0.312500 0.000000 -0.312500
v -0.312500 0.000000 -0.312500
v 0.312500 0.000000 0.312500
v -0.312500 0.000000 0.312500
v 0.000000 0.000000 0.500000
v -0.312500 0.000000 -0.000000
v -0.500000 0.000000 -0.000000
v 0.000000 0.000000 -0.312500
v 0.000000 0.000000 -0.500000
v 0.312500 0.000000 -0.000000
v 0.500000 0.000000 -0.000000
vt 0.625000 0.625000
vt 0.625000 0.000000
vt 1.000000 0.000000
vt 1.000000 1.000000
vt 0.625000 0.625000
vt 0.625000 0.000000
vt 1.000000 0.000000
vt 1.000000 1.000000
vt 0.625000 0.000000
vt 0.625000 0.625000
vt 1.000000 1.000000
vt 1.000000 0.000000
vt 0.625000 0.000000
vt 1.000000 0.000000
vt 0.625000 0.625000
vt 1.000000 1.000000
vt 0.625000 0.625000
vt 1.000000 1.000000
vt 1.000000 0.000000
vt 0.625000 0.000000
vt 0.625000 0.625000
vt 1.000000 1.000000
vt 1.000000 0.000000
vt 0.625000 0.000000
vt 0.625000 0.000000
vt 1.000000 0.000000
vt 1.000000 1.000000
vt 0.625000 0.625000
vt 0.625000 0.000000
vt 1.000000 0.000000
vt 1.000000 1.000000
vt 0.625000 0.625000
vn 0.0000 1.0000 0.0000
vn 0.0000 -1.0000 0.0000
usemtl Crystal
s off
f 9/1/1 11/2/1 12/3/1 2/4/1
f 8/5/1 5/6/1 10/7/1 1/8/1
f 13/9/1 6/10/1 3/11/1 14/12/1
f 15/13/1 8/5/1 1/8/1 16/14/1
f 5/6/1 9/1/1 2/4/1 10/7/1
f 11/2/1 7/15/1 4/16/1 12/3/1
f 7/15/1 13/9/1 14/12/1 4/16/1
f 6/10/1 15/13/1 16/14/1 3/11/1
f 25/17/2 18/18/2 28/19/2 27/20/2
f 24/21/2 17/22/2 26/23/2 21/24/2
f 29/25/2 30/26/2 19/27/2 22/28/2
f 31/29/2 32/30/2 17/22/2 24/21/2
f 21/24/2 26/23/2 18/18/2 25/17/2
f 27/20/2 28/19/2 20/31/2 23/32/2
f 23/32/2 20/31/2 30/26/2 29/25/2
f 22/28/2 19/27/2 32/30/2 31/29/2
