# Blender v2.80 (sub 75) OBJ File: 'pylon.blend'
# www.blender.org
mtllib pylon_ring.mtl
o PYLON_RING_Cylinder.001
v -0.041826 0.062500 -0.011207
v -0.030618 0.062500 0.030618
v 0.113233 0.062500 0.422593
v -0.113234 0.062500 0.422593
v 0.309359 -0.062500 0.309359
v 0.309359 0.062500 0.309359
v -0.113234 -0.062500 0.422593
v 0.011207 0.062500 0.041826
v 0.041826 0.062500 0.011207
v -0.011207 0.062500 -0.041826
v 0.097057 -0.062500 0.362222
v 0.113233 -0.062500 0.422593
v 0.097057 0.062500 0.362222
v -0.097058 -0.062500 0.362222
v -0.097058 0.062500 0.362222
v 0.265165 -0.062500 0.265165
v 0.265165 0.062500 0.265165
v 0.030619 0.062500 -0.030618
v 0.362222 -0.062500 0.097057
v 0.422593 0.062500 -0.113233
v 0.113233 0.062500 -0.422592
v 0.422593 0.062500 0.113234
v 0.309359 -0.062500 -0.309359
v 0.309359 0.062500 -0.309359
v 0.422593 -0.062500 0.113234
v 0.362222 -0.062500 -0.097057
v 0.113233 -0.062500 -0.422592
v 0.422593 -0.062500 -0.113233
v 0.362222 0.062500 -0.097057
v 0.362222 0.062500 0.097057
v 0.265165 -0.062500 -0.265165
v 0.265165 0.062500 -0.265165
v 0.097057 0.062500 -0.362222
v -0.113233 0.062500 -0.422593
v -0.422592 0.062500 -0.113233
v -0.309359 -0.062500 -0.309359
v -0.309359 0.062500 -0.309359
v -0.097057 -0.062500 -0.362222
v -0.422592 -0.062500 -0.113233
v -0.113233 -0.062500 -0.422593
v -0.097057 0.062500 -0.362222
v 0.097057 -0.062500 -0.362222
v -0.265165 -0.062500 -0.265165
v -0.265165 0.062500 -0.265165
v -0.422593 0.062500 0.113233
v -0.309359 -0.062500 0.309359
v -0.309359 0.062500 0.309359
v -0.362222 -0.062500 0.097057
v -0.422593 -0.062500 0.113233
v -0.362222 0.062500 0.097057
v -0.362222 -0.062500 -0.097057
v -0.362222 0.062500 -0.097057
v -0.265165 -0.062500 0.265165
v -0.265165 0.062500 0.265165
vt 0.750000 0.000000
vt 0.875000 0.000000
vt 0.875000 0.187500
vt 0.750000 0.187500
vt 0.875000 0.375000
vt 0.875000 0.562500
vt 0.750000 0.562500
vt 0.750000 0.375000
vt 0.750000 0.986875
vt 0.625000 0.986875
vt 0.625000 0.825625
vt 0.750000 0.825625
vt 0.500000 0.825625
vt 0.625000 0.825625
vt 0.625000 0.986875
vt 0.500000 0.986875
vt 0.812500 0.000000
vt 0.875000 0.013125
vt 0.875000 0.174375
vt 0.812500 0.187500
vt 0.812500 0.562500
vt 0.750000 0.549375
vt 0.750000 0.388125
vt 0.812500 0.375000
vt 0.875000 0.200625
vt 0.875000 0.361875
vt 0.812500 0.375000
vt 0.875000 0.388125
vt 0.875000 0.549375
vt 0.812500 0.562500
vt 0.812500 0.187500
vt 0.750000 0.174375
vt 0.750000 0.013125
vt 0.812500 0.000000
vt 0.750000 0.361875
vt 0.750000 0.200625
vt 0.875000 0.825625
vt 0.875000 0.986875
vt 0.750000 0.986875
vt 0.750000 0.825625
vt 0.750000 0.000000
vt 0.875000 0.000000
vt 0.875000 0.187500
vt 0.750000 0.187500
vt 0.875000 0.375000
vt 0.875000 0.562500
vt 0.750000 0.562500
vt 0.750000 0.375000
vt 0.750000 0.986875
vt 0.625000 0.986875
vt 0.625000 0.825625
vt 0.750000 0.825625
vt 0.500000 0.825625
vt 0.625000 0.825625
vt 0.625000 0.986875
vt 0.500000 0.986875
vt 0.812500 0.000000
vt 0.875000 0.013125
vt 0.875000 0.174375
vt 0.812500 0.187500
vt 0.812500 0.562500
vt 0.750000 0.549375
vt 0.750000 0.388125
vt 0.812500 0.375000
vt 0.875000 0.200625
vt 0.875000 0.361875
vt 0.812500 0.375000
vt 0.875000 0.388125
vt 0.875000 0.549375
vt 0.812500 0.562500
vt 0.812500 0.187500
vt 0.750000 0.174375
vt 0.750000 0.013125
vt 0.812500 0.000000
vt 0.750000 0.361875
vt 0.750000 0.200625
vt 0.875000 0.825625
vt 0.875000 0.986875
vt 0.750000 0.986875
vt 0.750000 0.825625
vt 0.750000 0.000000
vt 0.875000 0.000000
vt 0.875000 0.187500
vt 0.750000 0.187500
vt 0.875000 0.375000
vt 0.875000 0.562500
vt 0.750000 0.562500
vt 0.750000 0.375000
vt 0.750000 0.986875
vt 0.625000 0.986875
vt 0.625000 0.825625
vt 0.750000 0.825625
vt 0.500000 0.825625
vt 0.625000 0.825625
vt 0.625000 0.986875
vt 0.500000 0.986875
vt 0.812500 0.000000
vt 0.875000 0.013125
vt 0.875000 0.174375
vt 0.812500 0.187500
vt 0.812500 0.562500
vt 0.750000 0.549375
vt 0.750000 0.388125
vt 0.812500 0.375000
vt 0.875000 0.200625
vt 0.875000 0.361875
vt 0.812500 0.375000
vt 0.875000 0.388125
vt 0.875000 0.549375
vt 0.812500 0.562500
vt 0.812500 0.187500
vt 0.750000 0.174375
vt 0.750000 0.013125
vt 0.812500 0.000000
vt 0.750000 0.361875
vt 0.750000 0.200625
vt 0.875000 0.825625
vt 0.875000 0.986875
vt 0.750000 0.986875
vt 0.750000 0.825625
vt 0.750000 0.000000
vt 0.875000 0.000000
vt 0.875000 0.187500
vt 0.750000 0.187500
vt 0.875000 0.375000
vt 0.875000 0.562500
vt 0.750000 0.562500
vt 0.750000 0.375000
vt 0.750000 0.986875
vt 0.625000 0.986875
vt 0.625000 0.825625
vt 0.750000 0.825625
vt 0.500000 0.825625
vt 0.625000 0.825625
vt 0.625000 0.986875
vt 0.500000 0.986875
vt 0.812500 0.000000
vt 0.875000 0.013125
vt 0.875000 0.174375
vt 0.812500 0.187500
vt 0.812500 0.562500
vt 0.750000 0.549375
vt 0.750000 0.388125
vt 0.812500 0.375000
vt 0.875000 0.200625
vt 0.875000 0.361875
vt 0.812500 0.375000
vt 0.875000 0.388125
vt 0.875000 0.549375
vt 0.812500 0.562500
vt 0.812500 0.187500
vt 0.750000 0.174375
vt 0.750000 0.013125
vt 0.812500 0.000000
vt 0.750000 0.361875
vt 0.750000 0.200625
vt 0.875000 0.825625
vt 0.875000 0.986875
vt 0.750000 0.986875
vt 0.750000 0.825625
vn 0.8660 0.0000 0.5000
vn -0.0000 0.0000 1.0000
vn 0.5000 0.0000 0.8660
vn -0.5000 0.0000 -0.8660
vn 0.0000 0.0000 -1.0000
vn 0.0000 1.0000 0.0000
vn 0.0000 -1.0000 -0.0000
vn -0.8660 0.0000 -0.5000
vn 0.5000 0.0000 -0.8660
vn 1.0000 0.0000 0.0000
vn 0.8660 0.0000 -0.5000
vn -0.8660 0.0000 0.5000
vn -1.0000 0.0000 -0.0000
vn -0.5000 -0.0000 0.8660
usemtl MAIN
s off
f 25/1/1 22/2/1 6/3/1 5/4/1
f 3/5/2 4/6/2 7/7/2 12/8/2
f 12/8/3 5/4/3 6/3/3 3/5/3
f 11/9/4 13/10/4 17/11/4 16/12/4
f 13/13/5 11/14/5 14/15/5 15/16/5
f 22/17/6 30/18/6 17/19/6 6/20/6
f 7/21/7 14/22/7 11/23/7 12/24/7
f 6/20/6 17/25/6 13/26/6 3/27/6
f 3/27/6 13/28/6 15/29/6 4/30/6
f 5/31/7 16/32/7 19/33/7 25/34/7
f 12/24/7 11/35/7 16/36/7 5/31/7
f 19/37/8 16/38/8 17/39/8 30/40/8
f 27/41/9 21/42/9 24/43/9 23/44/9
f 20/45/10 22/46/10 25/47/10 28/48/10
f 28/48/11 23/44/11 24/43/11 20/45/11
f 26/49/12 29/50/12 32/51/12 31/52/12
f 29/53/13 26/54/13 19/55/13 30/56/13
f 21/57/6 33/58/6 32/59/6 24/60/6
f 25/61/7 19/62/7 26/63/7 28/64/7
f 24/60/6 32/65/6 29/66/6 20/67/6
f 20/67/6 29/68/6 30/69/6 22/70/6
f 23/71/7 31/72/7 42/73/7 27/74/7
f 28/64/7 26/75/7 31/76/7 23/71/7
f 42/77/14 31/78/14 32/79/14 33/80/14
f 39/81/8 35/82/8 37/83/8 36/84/8
f 34/85/5 21/86/5 27/87/5 40/88/5
f 40/88/4 36/84/4 37/83/4 34/85/4
f 38/89/3 41/90/3 44/91/3 43/92/3
f 41/93/2 38/94/2 42/95/2 33/96/2
f 35/97/6 52/98/6 44/99/6 37/100/6
f 27/101/7 42/102/7 38/103/7 40/104/7
f 37/100/6 44/105/6 41/106/6 34/107/6
f 34/107/6 41/108/6 33/109/6 21/110/6
f 36/111/7 43/112/7 51/113/7 39/114/7
f 40/104/7 38/115/7 43/116/7 36/111/7
f 51/117/1 43/118/1 44/119/1 52/120/1
f 7/121/14 4/122/14 47/123/14 46/124/14
f 45/125/13 35/126/13 39/127/13 49/128/13
f 49/128/12 46/124/12 47/123/12 45/125/12
f 48/129/11 50/130/11 54/131/11 53/132/11
f 50/133/10 48/134/10 51/135/10 52/136/10
f 4/137/6 15/138/6 54/139/6 47/140/6
f 39/141/7 51/142/7 48/143/7 49/144/7
f 47/140/6 54/145/6 50/146/6 45/147/6
f 45/147/6 50/148/6 52/149/6 35/150/6
f 46/151/7 53/152/7 14/153/7 7/154/7
f 49/144/7 48/155/7 53/156/7 46/151/7
f 14/157/9 53/158/9 54/159/9 15/160/9
l 1 2
l 10 1
l 2 8
l 8 9
l 9 18
l 18 10
