# Blender v2.80 (sub 75) OBJ File: 'constructs.blend'
# www.blender.org
mtllib arm_shield_l.mtl
o ARM_LEFT_BONE_SHIELD_Cube.422
v -0.406250 0.718750 0.031250
v -0.406250 1.156250 0.031250
v -0.406250 0.718750 -0.031250
v -0.406250 1.156250 -0.031250
v -0.343750 0.718750 0.031250
v -0.343750 1.156250 0.031250
v -0.343750 0.718750 -0.031250
v -0.343750 1.156250 -0.031250
v -0.375000 0.718750 0.088388
v -0.463388 0.718750 0.000000
v -0.286612 0.718750 0.000000
v -0.375000 0.718750 -0.088388
v -0.463388 0.656250 0.000000
v -0.375000 0.656250 0.088388
v -0.375000 0.656250 -0.088388
v -0.286612 0.656250 0.000000
v -0.440938 0.656250 -0.021744
v -0.440938 0.718750 -0.021744
v -0.463035 0.687500 -0.088035
v -0.286965 0.687500 0.088035
v -0.396744 0.656250 -0.065938
v -0.396744 0.718750 -0.065938
v -0.309062 0.718750 0.021744
v -0.309062 0.656250 0.021744
v -0.353256 0.656250 0.065938
v -0.353256 0.718750 0.065938
v -0.396744 0.656250 0.065938
v -0.396744 0.718750 0.065938
v -0.463035 0.687500 0.088035
v -0.286965 0.687500 -0.088035
v -0.440938 0.656250 0.021744
v -0.440938 0.718750 0.021744
v -0.353256 0.718750 -0.065938
v -0.353256 0.656250 -0.065938
v -0.309062 0.656250 -0.021744
v -0.309062 0.718750 -0.021744
v -0.379620 1.227866 0.026630
v -0.429894 1.192804 0.038856
v -0.405441 1.122681 -0.061691
v -0.355168 1.157743 -0.073918
v -0.394832 1.154757 0.073918
v -0.344559 1.189819 0.061691
v -0.320106 1.119695 -0.038856
v -0.370380 1.084634 -0.026630
v -0.472562 1.194297 0.027438
v -0.402438 1.118202 0.097562
v -0.301891 1.188326 0.073109
v -0.372014 1.264421 0.002986
v -0.436007 1.210335 0.063993
v -0.400945 1.172288 0.099055
v -0.350672 1.207349 0.086828
v -0.385733 1.245397 0.051767
v -0.405566 1.243904 0.125684
v -0.347562 1.194297 -0.097562
v -0.448109 1.124174 -0.073109
v -0.377986 1.048079 -0.002986
v -0.277438 1.118202 -0.027438
v -0.349055 1.140212 -0.099055
v -0.399328 1.105150 -0.086828
v -0.364267 1.067103 -0.051767
v -0.313993 1.102165 -0.063993
v -0.344434 1.068596 -0.125684
v -0.363562 0.593750 -0.042688
v -0.417688 0.593750 -0.011438
v -0.480188 0.593750 -0.119691
v -0.426062 0.593750 -0.150941
v -0.480188 0.656250 -0.119691
v -0.426062 0.656250 -0.150941
v -0.332312 0.656250 0.011438
v -0.386438 0.656250 0.042688
v -0.417688 0.656250 -0.011438
v -0.363562 0.656250 -0.042688
v -0.417688 0.588031 0.048407
v -0.448938 0.634906 0.021344
v -0.417688 0.556781 -0.005719
v -0.448938 0.603656 -0.032782
v -0.363562 0.615094 0.032782
v -0.394812 0.661969 0.005719
v -0.363562 0.583844 -0.021344
v -0.394812 0.630719 -0.048407
v -0.332312 0.588031 -0.048407
v -0.301062 0.634906 -0.021344
v -0.332312 0.556781 0.005719
v -0.301062 0.603656 0.032782
v -0.386438 0.615094 -0.032782
v -0.355188 0.661969 -0.005719
v -0.386438 0.583844 0.021344
v -0.355188 0.630719 0.048407
v -0.534315 0.343750 -0.088441
v -0.371935 0.906250 -0.182191
v -0.604066 0.843750 -0.084255
v -0.604066 0.468750 -0.084255
v -0.333434 0.843750 -0.240505
v -0.333434 0.468750 -0.240505
v -0.387560 0.843750 -0.209255
v -0.387560 0.406250 -0.209255
v -0.642568 0.906250 -0.025941
v -0.549940 0.843750 -0.115505
v -0.549940 0.406250 -0.115505
v -0.534315 0.906250 -0.088441
v -0.371935 0.343750 -0.182191
v -0.263682 0.468750 -0.244691
v -0.263682 0.906250 -0.244691
v -0.642568 0.468750 -0.025941
v -0.565565 0.406250 -0.142568
v -0.565565 0.843750 -0.142568
v -0.403185 0.406250 -0.236318
v -0.403185 0.843750 -0.236318
v -0.349059 0.468750 -0.267568
v -0.349059 0.843750 -0.267568
v -0.619691 0.468750 -0.111318
v -0.619691 0.843750 -0.111318
v -0.403185 0.906250 -0.236318
v -0.565565 0.906250 -0.142568
v -0.403185 0.343750 -0.236318
v -0.565565 0.343750 -0.142568
v -0.294932 0.468750 -0.298818
v -0.294932 0.906250 -0.298818
v -0.673818 0.468750 -0.080068
v -0.673818 0.906250 -0.080068
vt 0.250000 0.859375
vt 0.265625 0.859375
vt 0.265625 0.875000
vt 0.250000 0.875000
vt 0.312500 0.859375
vt 0.296875 0.859375
vt 0.296875 0.875000
vt 0.312500 0.875000
vt 0.187500 0.828125
vt 0.187500 0.859375
vt 0.156250 0.859375
vt 0.156250 0.828125
vt 0.156250 0.859375
vt 0.187500 0.859375
vt 0.187500 0.890625
vt 0.156250 0.890625
vt 0.343750 0.890625
vt 0.453125 0.890625
vt 0.453125 0.906250
vt 0.343750 0.906250
vt 0.453125 0.921875
vt 0.343750 0.921875
vt 0.343750 0.906250
vt 0.453125 0.906250
vt 0.453125 0.890625
vt 0.343750 0.890625
vt 0.343750 0.875000
vt 0.453125 0.875000
vt 0.250000 0.859375
vt 0.218750 0.859375
vt 0.218750 0.890625
vt 0.250000 0.890625
vt 0.218750 0.859375
vt 0.218750 0.890625
vt 0.187500 0.890625
vt 0.187500 0.859375
vt 0.218750 0.859375
vt 0.218750 0.843750
vt 0.187500 0.843750
vt 0.218750 0.859375
vt 0.250000 0.859375
vt 0.250000 0.843750
vt 0.218750 0.843750
vt 0.250000 0.859375
vt 0.250000 0.843750
vt 0.218750 0.843750
vt 0.453125 0.890625
vt 0.468750 0.890625
vt 0.453125 0.906250
vt 0.453125 0.906250
vt 0.453125 0.890625
vt 0.468750 0.890625
vt 0.453125 0.890625
vt 0.453125 0.906250
vt 0.468750 0.890625
vt 0.453125 0.890625
vt 0.468750 0.890625
vt 0.453125 0.875000
vt 0.468750 0.875000
vt 0.468750 0.906250
vt 0.453125 0.921875
vt 0.453125 0.890625
vt 0.453125 0.875000
vt 0.468750 0.875000
vt 0.468750 0.906250
vt 0.453125 0.906250
vt 0.453125 0.921875
vt 0.453125 0.890625
vt 0.468750 0.890625
vt 0.453125 0.906250
vt 0.453125 0.906250
vt 0.453125 0.890625
vt 0.468750 0.890625
vt 0.453125 0.890625
vt 0.468750 0.890625
vt 0.453125 0.890625
vt 0.468750 0.890625
vt 0.453125 0.890625
vt 0.453125 0.875000
vt 0.468750 0.875000
vt 0.468750 0.906250
vt 0.453125 0.906250
vt 0.453125 0.921875
vt 0.453125 0.890625
vt 0.453125 0.875000
vt 0.468750 0.875000
vt 0.468750 0.906250
vt 0.453125 0.906250
vt 0.453125 0.921875
vt 0.187500 0.859375
vt 0.156250 0.828125
vt 0.187500 0.828125
vt 0.156250 0.859375
vt 0.187500 0.890625
vt 0.156250 0.890625
vt 0.281250 0.875000
vt 0.265625 0.875000
vt 0.281250 0.890625
vt 0.281250 0.859375
vt 0.296875 0.859375
vt 0.296875 0.875000
vt 0.281250 0.875000
vt 0.281250 0.859375
vt 0.265625 0.859375
vt 0.265625 0.890625
vt 0.296875 0.890625
vt 0.187500 0.890625
vt 0.156250 0.890625
vt 0.156250 0.859375
vt 0.156250 0.828125
vt 0.187500 0.828125
vt 0.187500 0.859375
vt 0.312500 0.875000
vt 0.328125 0.875000
vt 0.328125 0.890625
vt 0.312500 0.859375
vt 0.328125 0.859375
vt 0.281250 0.859375
vt 0.296875 0.859375
vt 0.296875 0.875000
vt 0.281250 0.875000
vt 0.296875 0.859375
vt 0.312500 0.859375
vt 0.312500 0.875000
vt 0.296875 0.875000
vt 0.296875 0.890625
vt 0.312500 0.890625
vt 0.343750 0.656250
vt 0.343750 0.671875
vt 0.312500 0.671875
vt 0.312500 0.656250
vt 0.343750 0.687500
vt 0.343750 0.703125
vt 0.312500 0.703125
vt 0.312500 0.687500
vt 0.390625 0.718750
vt 0.390625 0.703125
vt 0.359375 0.703125
vt 0.359375 0.718750
vt 0.359375 0.718750
vt 0.359375 0.703125
vt 0.343750 0.703125
vt 0.328125 0.718750
vt 0.312500 0.718750
vt 0.312500 0.703125
vt 0.328125 0.703125
vt 0.343750 0.703125
vt 0.468750 0.968750
vt 0.453125 0.968750
vt 0.453125 0.984375
vt 0.468750 0.984375
vt 0.453125 0.984375
vt 0.468750 0.984375
vt 0.468750 1.000000
vt 0.453125 1.000000
vt 0.484375 0.984375
vt 0.500000 0.984375
vt 0.500000 0.968750
vt 0.484375 0.968750
vt 0.500000 1.000000
vt 0.484375 1.000000
vt 0.484375 0.984375
vt 0.500000 0.984375
vt 0.453125 0.984375
vt 0.468750 0.984375
vt 0.468750 1.000000
vt 0.453125 1.000000
vt 0.468750 0.984375
vt 0.453125 0.984375
vt 0.453125 0.968750
vt 0.468750 0.968750
vt 0.500000 1.000000
vt 0.484375 1.000000
vt 0.484375 0.984375
vt 0.500000 0.984375
vt 0.484375 0.968750
vt 0.500000 0.968750
vt 0.500000 0.984375
vt 0.484375 0.984375
vt 0.421875 0.500000
vt 0.421875 0.640625
vt 0.375000 0.640625
vt 0.375000 0.500000
vt 0.453125 0.750000
vt 0.453125 0.640625
vt 0.468750 0.656250
vt 0.468750 0.750000
vt 0.343750 0.640625
vt 0.343750 0.531250
vt 0.406250 0.750000
vt 0.390625 0.750000
vt 0.390625 0.656250
vt 0.406250 0.640625
vt 0.296875 0.515625
vt 0.296875 0.531250
vt 0.250000 0.531250
vt 0.250000 0.515625
vt 0.234375 0.625000
vt 0.234375 0.609375
vt 0.250000 0.609375
vt 0.250000 0.625000
vt 0.312500 0.625000
vt 0.296875 0.625000
vt 0.296875 0.531250
vt 0.312500 0.531250
vt 0.453125 0.531250
vt 0.453125 0.640625
vt 0.296875 0.625000
vt 0.296875 0.609375
vt 0.312500 0.609375
vt 0.234375 0.531250
vt 0.250000 0.531250
vt 0.250000 0.625000
vt 0.265625 0.531250
vt 0.265625 0.546875
vt 0.250000 0.546875
vt 0.250000 0.531250
vt 0.296875 0.531250
vt 0.296875 0.546875
vt 0.281250 0.546875
vt 0.281250 0.531250
vt 0.296875 0.593750
vt 0.296875 0.609375
vt 0.250000 0.609375
vt 0.250000 0.593750
vt 0.328125 0.531250
vt 0.328125 0.500000
vt 0.343750 0.500000
vt 0.328125 0.500000
vt 0.343750 0.500000
vt 0.343750 0.531250
vt 0.328125 0.531250
vt 0.343750 0.640625
vt 0.328125 0.640625
vt 0.250000 0.656250
vt 0.250000 0.640625
vt 0.296875 0.640625
vt 0.296875 0.656250
vt 0.328125 0.640625
vt 0.328125 0.656250
vt 0.218750 0.656250
vt 0.218750 0.640625
vt 0.250000 0.500000
vt 0.296875 0.500000
vt 0.218750 0.531250
vn -0.5610 0.6088 -0.5610
vn 0.5610 -0.6088 0.5610
vn -0.8044 -0.5610 0.1956
vn 0.8044 0.5610 -0.1956
vn -1.0000 0.0000 0.0000
vn 0.0000 0.0000 -1.0000
vn 1.0000 0.0000 0.0000
vn 0.0000 0.0000 1.0000
vn 0.0000 -1.0000 0.0000
vn 0.0000 1.0000 0.0000
vn 0.7071 0.0000 -0.7071
vn -0.7071 0.0000 0.7071
vn 0.7071 0.0000 0.7071
vn -0.7071 0.0000 -0.7071
vn -0.9487 0.0000 0.3162
vn -0.3162 0.0000 0.9487
vn 0.3162 0.0000 -0.9487
vn 0.9487 0.0000 -0.3162
vn -0.3162 -0.8944 -0.3162
vn -0.3162 0.8944 -0.3162
vn 0.3162 -0.8944 0.3162
vn 0.3162 0.8944 0.3162
vn 0.3162 0.0000 0.9487
vn 0.9487 0.0000 0.3162
vn -0.9487 0.0000 -0.3162
vn -0.3162 0.0000 -0.9487
vn -0.3162 -0.8944 0.3162
vn -0.3162 0.8944 0.3162
vn 0.3162 -0.8944 -0.3162
vn 0.3162 0.8944 -0.3162
vn 0.6320 0.7526 0.1848
vn -0.8069 -0.2509 0.5347
vn -0.5892 0.7954 -0.1420
vn 0.4143 -0.2936 0.8615
vn -0.1956 0.5610 0.8044
vn 0.1956 -0.5610 -0.8044
vn -0.6320 -0.7526 -0.1848
vn 0.8069 0.2509 -0.5347
vn -0.4143 0.2936 -0.8615
vn 0.5892 -0.7954 0.1420
vn 0.8660 0.0000 -0.5000
vn 0.3536 -0.7071 0.6124
vn -0.8660 0.0000 0.5000
vn -0.8660 -0.4330 0.2500
vn 0.0000 -0.5000 -0.8660
vn 0.8660 0.4330 -0.2500
vn -0.0000 0.5000 0.8660
vn 0.5000 -0.7500 0.4330
vn -0.5000 0.7500 -0.4330
vn 0.8660 -0.4330 -0.2500
vn 0.0000 -0.5000 0.8660
vn -0.8660 0.4330 0.2500
vn 0.0000 0.5000 -0.8660
vn -0.5000 -0.7500 -0.4330
vn 0.5000 0.7500 0.4330
vn 0.5000 0.0000 0.8660
vn -0.5000 0.0000 -0.8660
vn -0.6124 0.7071 0.3536
vn 0.6124 0.7071 -0.3536
vn -0.6124 -0.7071 0.3536
vn 0.6124 -0.7071 -0.3536
usemtl MAIN
s off
f 37/1/1 38/2/1 49/3/1 52/4/1
f 43/5/2 44/6/2 60/7/2 61/8/2
f 45/9/3 55/10/3 56/11/3 46/12/3
f 54/13/4 48/14/4 47/15/4 57/16/4
f 1/17/5 2/18/5 4/19/5 3/20/5
f 3/20/6 4/19/6 8/21/6 7/22/6
f 7/23/7 8/24/7 6/25/7 5/26/7
f 5/27/8 6/28/8 2/18/8 1/17/8
f 13/29/9 15/30/9 16/31/9 14/32/9
f 10/33/10 9/34/10 11/35/10 12/36/10
f 12/36/11 11/37/11 16/38/11 15/39/11
f 9/40/12 10/41/12 13/42/12 14/43/12
f 11/44/13 9/40/13 14/43/13 16/45/13
f 10/33/14 12/36/14 15/39/14 13/46/14
f 17/47/15 18/48/15 19/49/15
f 20/50/16 26/51/16 25/52/16
f 19/53/17 22/54/17 21/55/17
f 24/56/18 23/57/18 20/50/18
f 19/58/19 21/59/19 17/47/19
f 19/49/20 18/60/20 22/61/20
f 20/62/21 25/63/21 24/64/21
f 20/65/22 23/66/22 26/67/22
f 27/68/23 28/69/23 29/70/23
f 30/71/24 36/72/24 35/73/24
f 29/70/25 32/74/25 31/75/25
f 34/76/26 33/77/26 30/71/26
f 29/78/27 31/79/27 27/80/27
f 29/81/28 28/82/28 32/83/28
f 30/84/29 35/85/29 34/86/29
f 30/87/30 33/88/30 36/89/30
f 46/90/2 56/11/2 57/91/2 47/92/2
f 45/93/1 48/14/1 54/94/1 55/95/1
f 51/96/31 52/97/31 53/98/31
f 41/99/2 42/100/2 51/101/2 50/102/2
f 42/103/4 37/104/4 52/97/4 51/96/4
f 38/2/3 41/99/3 50/102/3 49/3/3
f 49/3/32 50/102/32 53/98/32
f 52/4/33 49/3/33 53/105/33
f 50/102/34 51/101/34 53/106/34
f 45/107/35 46/108/35 47/109/35 48/14/35
f 55/110/36 54/111/36 57/112/36 56/11/36
f 60/113/37 59/114/37 62/115/37
f 44/116/3 39/117/3 59/114/3 60/113/3
f 40/118/4 43/119/4 61/120/4 58/121/4
f 39/122/1 40/123/1 58/124/1 59/125/1
f 58/121/38 61/120/38 62/126/38
f 59/125/39 58/124/39 62/127/39
f 61/8/40 60/7/40 62/127/40
f 63/128/9 64/129/9 65/130/9 66/131/9
f 71/132/10 72/133/10 68/134/10 67/135/10
f 72/136/41 63/137/41 66/138/41 68/139/41
f 63/140/41 72/141/41 69/142/41
f 64/143/42 63/144/42 69/145/42 70/146/42
f 64/129/43 71/132/43 67/135/43 65/130/43
f 64/143/43 70/146/43 71/147/43
f 73/148/44 74/149/44 76/150/44 75/151/44
f 75/152/45 76/153/45 80/154/45 79/155/45
f 79/156/46 80/157/46 78/158/46 77/159/46
f 77/160/47 78/161/47 74/162/47 73/163/47
f 75/151/48 79/156/48 77/159/48 73/148/48
f 80/154/49 76/153/49 74/162/49 78/161/49
f 81/164/50 82/165/50 84/166/50 83/167/50
f 83/168/51 84/169/51 88/170/51 87/171/51
f 87/172/52 88/173/52 86/174/52 85/175/52
f 85/176/53 86/177/53 82/178/53 81/179/53
f 83/168/54 87/171/54 85/176/54 81/179/54
f 88/173/55 84/166/55 82/165/55 86/174/55
f 101/180/56 90/181/56 100/182/56 89/183/56
f 98/184/57 99/185/57 92/186/57 91/187/57
f 89/183/56 100/182/56 97/188/56 104/189/56
f 95/190/57 93/191/57 94/192/57 96/193/57
f 98/184/57 95/190/57 96/193/57 99/185/57
f 105/194/10 99/195/10 96/196/10 107/197/10
f 110/198/9 93/199/9 95/200/9 108/201/9
f 112/202/41 91/203/41 92/204/41 111/205/41
f 90/181/56 101/180/56 102/206/56 103/207/56
f 106/208/9 98/209/9 91/210/9 112/202/9
f 108/201/9 95/200/9 98/209/9 106/208/9
f 109/211/43 94/212/43 93/213/43 110/198/43
f 107/214/58 96/215/58 94/216/58 109/217/58
f 111/218/59 92/219/59 99/220/59 105/221/59
f 89/222/9 116/223/9 115/224/9 101/225/9
f 104/189/60 119/226/60 116/227/60 89/228/60
f 101/229/61 115/230/61 117/231/61 102/232/61
f 102/232/41 117/231/41 118/233/41 103/234/41
f 90/235/10 113/236/10 114/237/10 100/238/10
f 100/238/10 114/237/10 120/239/10 97/240/10
f 97/188/43 120/239/43 119/226/43 104/189/43
f 103/241/10 118/242/10 113/236/10 90/235/10
f 106/208/57 114/237/57 113/236/57 108/201/57
f 107/197/57 115/243/57 116/244/57 105/194/57
f 110/198/57 118/242/57 117/245/57 109/211/57
f 108/201/57 113/236/57 118/242/57 110/198/57
f 109/211/57 117/245/57 115/243/57 107/197/57
f 111/205/57 119/226/57 120/239/57 112/202/57
f 105/194/57 116/244/57 119/226/57 111/205/57
f 112/202/57 120/239/57 114/237/57 106/208/57
