# Blender v2.80 (sub 75) OBJ File: 'constructs.blend'
# www.blender.org
mtllib arm_grabber_r.mtl
o ARM_RIGHT_BONE_GRABBER_Cube.451
v 0.406250 0.718750 0.031250
v 0.406250 1.156250 0.031250
v 0.406250 0.718750 -0.031250
v 0.406250 1.156250 -0.031250
v 0.343750 0.718750 0.031250
v 0.343750 1.156250 0.031250
v 0.343750 0.718750 -0.031250
v 0.343750 1.156250 -0.031250
v 0.375000 0.718750 0.088388
v 0.463388 0.718750 0.000000
v 0.286612 0.718750 0.000000
v 0.375000 0.718750 -0.088388
v 0.463388 0.656250 0.000000
v 0.375000 0.656250 0.088388
v 0.375000 0.656250 -0.088388
v 0.286612 0.656250 0.000000
v 0.440938 0.656250 -0.021744
v 0.440938 0.718750 -0.021744
v 0.463035 0.687500 -0.088035
v 0.286965 0.687500 0.088035
v 0.396744 0.656250 -0.065938
v 0.396744 0.718750 -0.065938
v 0.309062 0.718750 0.021744
v 0.309062 0.656250 0.021744
v 0.353256 0.656250 0.065938
v 0.353256 0.718750 0.065938
v 0.396744 0.656250 0.065938
v 0.396744 0.718750 0.065938
v 0.463035 0.687500 0.088035
v 0.286965 0.687500 -0.088035
v 0.440938 0.656250 0.021744
v 0.440938 0.718750 0.021744
v 0.353256 0.718750 -0.065938
v 0.353256 0.656250 -0.065938
v 0.309062 0.656250 -0.021744
v 0.309062 0.718750 -0.021744
v 0.379620 1.227866 0.026630
v 0.429894 1.192804 0.038856
v 0.405441 1.122681 -0.061691
v 0.355168 1.157743 -0.073918
v 0.394832 1.154757 0.073918
v 0.344559 1.189819 0.061691
v 0.320106 1.119695 -0.038856
v 0.370380 1.084634 -0.026630
v 0.472562 1.194297 0.027438
v 0.402438 1.118202 0.097562
v 0.301891 1.188326 0.073109
v 0.372014 1.264421 0.002986
v 0.436007 1.210335 0.063993
v 0.400945 1.172288 0.099055
v 0.350672 1.207349 0.086828
v 0.385733 1.245397 0.051767
v 0.405566 1.243904 0.125684
v 0.347562 1.194297 -0.097562
v 0.448109 1.124174 -0.073109
v 0.377986 1.048079 -0.002986
v 0.277438 1.118202 -0.027438
v 0.349055 1.140212 -0.099055
v 0.399328 1.105150 -0.086828
v 0.364267 1.067103 -0.051767
v 0.313993 1.102165 -0.063993
v 0.344434 1.068596 -0.125684
v 0.343750 0.593750 0.031250
v 0.406250 0.593750 0.031250
v 0.343750 0.531250 -0.139503
v 0.406250 0.531250 -0.139503
v 0.406250 0.508373 -0.054127
v 0.343750 0.508373 -0.054127
v 0.406250 0.422997 0.077003
v 0.343750 0.477123 -0.108253
v 0.406250 0.454247 0.022877
v 0.406250 0.477123 -0.108253
v 0.406250 0.454247 -0.022877
v 0.406250 0.422997 -0.077003
v 0.406250 0.562500 -0.085377
v 0.406250 0.593750 -0.031250
v 0.343750 0.593750 -0.031250
v 0.343750 0.562500 -0.085377
v 0.406250 0.477123 0.108253
v 0.406250 0.539623 0.000000
v 0.343750 0.477123 0.108253
v 0.343750 0.539623 0.000000
v 0.343750 0.508373 0.054127
v 0.406250 0.508373 0.054127
v 0.406250 0.531250 0.139503
v 0.343750 0.531250 0.139503
v 0.343750 0.562500 0.085377
v 0.406250 0.562500 0.085377
v 0.343750 0.454247 0.022877
v 0.343750 0.422997 0.077003
v 0.343750 0.454247 -0.022877
v 0.343750 0.422997 -0.077003
v 0.343750 0.656250 0.031250
v 0.406250 0.656250 0.031250
v 0.406250 0.656250 -0.031250
v 0.343750 0.656250 -0.031250
v 0.417688 0.588031 0.048407
v 0.448938 0.634906 0.021344
v 0.417688 0.556781 -0.005719
v 0.448938 0.603656 -0.032782
v 0.363562 0.615094 0.032782
v 0.394812 0.661969 0.005719
v 0.363562 0.583844 -0.021344
v 0.394812 0.630719 -0.048407
v 0.332312 0.588031 -0.048407
v 0.301062 0.634906 -0.021344
v 0.332312 0.556781 0.005719
v 0.301062 0.603656 0.032782
v 0.386438 0.615094 -0.032782
v 0.355188 0.661969 -0.005719
v 0.386438 0.583844 0.021344
v 0.355188 0.630719 0.048407
vt 0.250000 0.859375
vt 0.250000 0.875000
vt 0.265625 0.875000
vt 0.265625 0.859375
vt 0.312500 0.859375
vt 0.312500 0.875000
vt 0.296875 0.875000
vt 0.296875 0.859375
vt 0.187500 0.828125
vt 0.156250 0.828125
vt 0.156250 0.859375
vt 0.187500 0.859375
vt 0.156250 0.859375
vt 0.156250 0.890625
vt 0.187500 0.890625
vt 0.187500 0.859375
vt 0.343750 0.890625
vt 0.343750 0.906250
vt 0.453125 0.906250
vt 0.453125 0.890625
vt 0.343750 0.921875
vt 0.453125 0.921875
vt 0.343750 0.906250
vt 0.343750 0.890625
vt 0.453125 0.890625
vt 0.453125 0.906250
vt 0.343750 0.875000
vt 0.453125 0.875000
vt 0.250000 0.859375
vt 0.250000 0.890625
vt 0.218750 0.890625
vt 0.218750 0.859375
vt 0.218750 0.859375
vt 0.187500 0.859375
vt 0.187500 0.890625
vt 0.218750 0.890625
vt 0.187500 0.843750
vt 0.218750 0.843750
vt 0.218750 0.859375
vt 0.218750 0.859375
vt 0.218750 0.843750
vt 0.250000 0.843750
vt 0.250000 0.859375
vt 0.250000 0.859375
vt 0.250000 0.843750
vt 0.218750 0.843750
vt 0.453125 0.890625
vt 0.453125 0.906250
vt 0.468750 0.890625
vt 0.453125 0.906250
vt 0.468750 0.890625
vt 0.453125 0.890625
vt 0.453125 0.890625
vt 0.468750 0.890625
vt 0.453125 0.906250
vt 0.453125 0.890625
vt 0.468750 0.890625
vt 0.453125 0.875000
vt 0.468750 0.875000
vt 0.453125 0.921875
vt 0.468750 0.906250
vt 0.453125 0.890625
vt 0.468750 0.875000
vt 0.453125 0.875000
vt 0.468750 0.906250
vt 0.453125 0.921875
vt 0.453125 0.906250
vt 0.453125 0.890625
vt 0.453125 0.906250
vt 0.468750 0.890625
vt 0.453125 0.906250
vt 0.468750 0.890625
vt 0.453125 0.890625
vt 0.468750 0.890625
vt 0.453125 0.890625
vt 0.453125 0.890625
vt 0.468750 0.890625
vt 0.453125 0.890625
vt 0.468750 0.875000
vt 0.453125 0.875000
vt 0.468750 0.906250
vt 0.453125 0.921875
vt 0.453125 0.906250
vt 0.453125 0.890625
vt 0.468750 0.875000
vt 0.453125 0.875000
vt 0.468750 0.906250
vt 0.453125 0.921875
vt 0.453125 0.906250
vt 0.187500 0.859375
vt 0.187500 0.828125
vt 0.156250 0.828125
vt 0.156250 0.859375
vt 0.156250 0.890625
vt 0.187500 0.890625
vt 0.281250 0.875000
vt 0.281250 0.890625
vt 0.265625 0.875000
vt 0.281250 0.859375
vt 0.281250 0.875000
vt 0.296875 0.875000
vt 0.296875 0.859375
vt 0.281250 0.859375
vt 0.265625 0.859375
vt 0.265625 0.890625
vt 0.296875 0.890625
vt 0.187500 0.890625
vt 0.156250 0.859375
vt 0.156250 0.890625
vt 0.156250 0.828125
vt 0.187500 0.859375
vt 0.187500 0.828125
vt 0.312500 0.875000
vt 0.328125 0.890625
vt 0.328125 0.875000
vt 0.312500 0.859375
vt 0.328125 0.859375
vt 0.281250 0.859375
vt 0.281250 0.875000
vt 0.296875 0.875000
vt 0.296875 0.859375
vt 0.296875 0.859375
vt 0.296875 0.875000
vt 0.312500 0.875000
vt 0.312500 0.859375
vt 0.296875 0.890625
vt 0.312500 0.890625
vt 0.484375 0.953125
vt 0.484375 0.968750
vt 0.500000 0.968750
vt 0.468750 0.890625
vt 0.484375 0.890625
vt 0.484375 0.906250
vt 0.468750 0.906250
vt 0.484375 0.890625
vt 0.468750 0.890625
vt 0.468750 0.906250
vt 0.484375 0.906250
vt 0.484375 0.875000
vt 0.468750 0.875000
vt 0.468750 0.921875
vt 0.468750 0.906250
vt 0.484375 0.906250
vt 0.484375 0.921875
vt 0.484375 0.906250
vt 0.484375 0.921875
vt 0.500000 0.921875
vt 0.500000 0.906250
vt 0.500000 0.890625
vt 0.500000 0.906250
vt 0.484375 0.937500
vt 0.484375 0.953125
vt 0.468750 0.953125
vt 0.468750 0.937500
vt 0.468750 0.921875
vt 0.484375 0.921875
vt 0.484375 0.906250
vt 0.468750 0.906250
vt 0.500000 0.921875
vt 0.500000 0.937500
vt 0.484375 0.937500
vt 0.484375 0.921875
vt 0.484375 0.968750
vt 0.468750 0.968750
vt 0.500000 0.937500
vt 0.484375 0.937500
vt 0.500000 0.953125
vt 0.468750 0.937500
vt 0.484375 0.937500
vt 0.484375 0.906250
vt 0.500000 0.906250
vt 0.484375 0.875000
vt 0.468750 0.875000
vt 0.484375 0.890625
vt 0.484375 0.906250
vt 0.500000 0.906250
vt 0.468750 0.890625
vt 0.468750 0.906250
vt 0.500000 0.890625
vt 0.500000 0.906250
vt 0.484375 0.875000
vt 0.484375 0.890625
vt 0.468750 0.890625
vt 0.468750 0.875000
vt 0.484375 0.953125
vt 0.468750 0.953125
vt 0.468750 0.968750
vt 0.484375 0.968750
vt 0.500000 0.906250
vt 0.484375 0.906250
vt 0.484375 0.953125
vt 0.500000 0.968750
vt 0.484375 0.875000
vt 0.468750 0.875000
vt 0.468750 0.906250
vt 0.328125 0.890625
vt 0.343750 0.890625
vt 0.343750 0.906250
vt 0.328125 0.906250
vt 0.328125 0.890625
vt 0.343750 0.890625
vt 0.343750 0.875000
vt 0.328125 0.875000
vt 0.328125 0.921875
vt 0.343750 0.921875
vt 0.343750 0.906250
vt 0.328125 0.906250
vt 0.468750 0.968750
vt 0.468750 0.984375
vt 0.453125 0.984375
vt 0.453125 0.968750
vt 0.453125 0.984375
vt 0.453125 1.000000
vt 0.468750 1.000000
vt 0.468750 0.984375
vt 0.484375 0.984375
vt 0.484375 0.968750
vt 0.500000 0.968750
vt 0.500000 0.984375
vt 0.500000 1.000000
vt 0.500000 0.984375
vt 0.484375 0.984375
vt 0.484375 1.000000
vt 0.453125 0.984375
vt 0.453125 1.000000
vt 0.468750 1.000000
vt 0.468750 0.984375
vt 0.468750 0.984375
vt 0.468750 0.968750
vt 0.453125 0.968750
vt 0.453125 0.984375
vt 0.500000 1.000000
vt 0.500000 0.984375
vt 0.484375 0.984375
vt 0.484375 1.000000
vt 0.484375 0.968750
vt 0.484375 0.984375
vt 0.500000 0.984375
vt 0.500000 0.968750
vn 0.5610 0.6088 -0.5610
vn -0.5610 -0.6088 0.5610
vn 0.8044 -0.5610 0.1956
vn -0.8044 0.5610 -0.1956
vn 1.0000 0.0000 0.0000
vn 0.0000 0.0000 -1.0000
vn -1.0000 0.0000 0.0000
vn 0.0000 0.0000 1.0000
vn 0.0000 -1.0000 0.0000
vn 0.0000 1.0000 0.0000
vn -0.7071 0.0000 -0.7071
vn 0.7071 0.0000 0.7071
vn -0.7071 0.0000 0.7071
vn 0.7071 0.0000 -0.7071
vn 0.9487 0.0000 0.3162
vn 0.3162 0.0000 0.9487
vn -0.3162 0.0000 -0.9487
vn -0.9487 0.0000 -0.3162
vn 0.3162 -0.8944 -0.3162
vn 0.3162 0.8944 -0.3162
vn -0.3162 -0.8944 0.3162
vn -0.3162 0.8944 0.3162
vn -0.3162 0.0000 0.9487
vn -0.9487 0.0000 0.3162
vn 0.9487 0.0000 -0.3162
vn 0.3162 0.0000 -0.9487
vn 0.3162 -0.8944 0.3162
vn 0.3162 0.8944 0.3162
vn -0.3162 -0.8944 -0.3162
vn -0.3162 0.8944 -0.3162
vn -0.6320 0.7526 0.1848
vn 0.8069 -0.2509 0.5347
vn 0.5892 0.7954 -0.1420
vn -0.4143 -0.2936 0.8615
vn 0.1956 0.5610 0.8044
vn -0.1956 -0.5610 -0.8044
vn 0.6320 -0.7526 -0.1848
vn -0.8069 0.2509 -0.5347
vn 0.4143 0.2936 -0.8615
vn -0.5892 -0.7954 0.1420
vn 0.0000 -0.5000 -0.8660
vn -0.0000 -0.8660 0.5000
vn 0.0000 0.8660 -0.5000
vn 0.0000 -0.5000 0.8660
vn 0.0000 0.5000 -0.8660
vn 0.0000 -0.8660 -0.5000
vn 0.0000 0.8660 0.5000
vn 0.0000 0.5000 0.8660
vn 0.8660 -0.4330 0.2500
vn -0.8660 0.4330 -0.2500
vn -0.5000 -0.7500 0.4330
vn 0.5000 0.7500 -0.4330
vn -0.8660 -0.4330 -0.2500
vn 0.8660 0.4330 0.2500
vn 0.5000 -0.7500 -0.4330
vn -0.5000 0.7500 0.4330
usemtl MAIN
s off
f 37/1/1 52/2/1 49/3/1 38/4/1
f 43/5/2 61/6/2 60/7/2 44/8/2
f 45/9/3 46/10/3 56/11/3 55/12/3
f 54/13/4 57/14/4 47/15/4 48/16/4
f 1/17/5 3/18/5 4/19/5 2/20/5
f 3/18/6 7/21/6 8/22/6 4/19/6
f 7/23/7 5/24/7 6/25/7 8/26/7
f 5/27/8 1/17/8 2/20/8 6/28/8
f 13/29/9 14/30/9 16/31/9 15/32/9
f 10/33/10 12/34/10 11/35/10 9/36/10
f 12/34/11 15/37/11 16/38/11 11/39/11
f 9/40/12 14/41/12 13/42/12 10/43/12
f 11/44/13 16/45/13 14/41/13 9/40/13
f 10/33/14 13/46/14 15/37/14 12/34/14
f 17/47/15 19/48/15 18/49/15
f 20/50/16 25/51/16 26/52/16
f 19/53/17 21/54/17 22/55/17
f 24/56/18 20/50/18 23/57/18
f 19/58/19 17/47/19 21/59/19
f 19/48/20 22/60/20 18/61/20
f 20/62/21 24/63/21 25/64/21
f 20/65/22 26/66/22 23/67/22
f 27/68/23 29/69/23 28/70/23
f 30/71/24 35/72/24 36/73/24
f 29/69/25 31/74/25 32/75/25
f 34/76/26 30/71/26 33/77/26
f 29/78/27 27/79/27 31/80/27
f 29/81/28 32/82/28 28/83/28
f 30/84/29 34/85/29 35/86/29
f 30/87/30 36/88/30 33/89/30
f 46/90/2 47/91/2 57/92/2 56/11/2
f 45/93/1 55/94/1 54/95/1 48/16/1
f 51/96/31 53/97/31 52/98/31
f 41/99/2 50/100/2 51/101/2 42/102/2
f 42/103/4 51/96/4 52/98/4 37/104/4
f 38/4/3 49/3/3 50/100/3 41/99/3
f 49/3/32 53/97/32 50/100/32
f 52/2/33 53/105/33 49/3/33
f 50/100/34 53/106/34 51/101/34
f 45/107/35 48/16/35 47/108/35 46/109/35
f 55/110/36 56/11/36 57/111/36 54/112/36
f 60/113/37 62/114/37 59/115/37
f 44/116/3 60/113/3 59/115/3 39/117/3
f 40/118/4 58/119/4 61/120/4 43/121/4
f 39/122/1 59/123/1 58/124/1 40/125/1
f 58/119/38 62/126/38 61/120/38
f 59/123/39 62/127/39 58/124/39
f 61/6/40 62/127/40 60/7/40
f 80/128/5 76/129/5 64/130/5
f 79/131/5 84/132/5 88/133/5 85/134/5
f 83/135/7 81/136/7 86/137/7 87/138/7
f 89/139/7 90/140/7 81/136/7 83/135/7
f 72/141/41 74/142/41 92/143/41 70/144/41
f 74/145/42 73/146/42 91/147/42 92/148/42
f 80/149/5 64/150/5 88/133/5 84/132/5
f 65/151/43 78/152/43 75/153/43 66/154/43
f 79/155/44 81/156/44 90/157/44 69/158/44
f 89/159/45 83/160/45 84/161/45 71/162/45
f 78/152/43 77/163/43 76/164/43 75/153/43
f 68/165/42 67/166/42 80/128/42 82/167/42
f 81/156/44 79/155/44 85/168/44 86/169/44
f 69/170/46 90/171/46 89/159/46 71/162/46
f 71/172/5 84/132/5 79/131/5 69/173/5
f 80/149/5 67/174/5 75/175/5 76/176/5
f 72/177/5 66/178/5 75/175/5 67/174/5
f 82/179/7 83/135/7 87/138/7 63/180/7
f 83/160/46 82/167/46 80/128/46 84/161/46
f 91/181/7 68/182/7 70/183/7 92/184/7
f 87/185/47 88/186/47 64/187/47 63/188/47
f 86/169/47 85/168/47 88/186/47 87/185/47
f 82/179/7 77/189/7 78/190/7 68/182/7
f 70/144/41 65/151/41 66/154/41 72/141/41
f 77/163/7 82/191/7 63/192/7
f 73/193/5 74/194/5 72/177/5 67/174/5
f 68/182/7 78/190/7 65/195/7 70/183/7
f 91/147/48 73/146/48 67/166/48 68/165/48
f 63/196/7 93/197/7 96/198/7 77/199/7
f 64/200/8 94/201/8 93/202/8 63/203/8
f 77/204/6 96/205/6 95/206/6 76/207/6
f 76/207/5 95/206/5 94/201/5 64/200/5
f 97/208/49 99/209/49 100/210/49 98/211/49
f 99/212/41 103/213/41 104/214/41 100/215/41
f 103/216/50 101/217/50 102/218/50 104/219/50
f 101/220/48 97/221/48 98/222/48 102/223/48
f 99/209/51 97/208/51 101/217/51 103/216/51
f 104/214/52 102/223/52 98/222/52 100/215/52
f 105/224/53 107/225/53 108/226/53 106/227/53
f 107/228/44 111/229/44 112/230/44 108/231/44
f 111/232/54 109/233/54 110/234/54 112/235/54
f 109/236/45 105/237/45 106/238/45 110/239/45
f 107/228/55 105/237/55 109/236/55 111/229/55
f 112/235/56 110/234/56 106/227/56 108/226/56
