# Blender v2.80 (sub 75) OBJ File: 'constructs.blend'
# www.blender.org
mtllib arm_blade_l.mtl
o ARM_LEFT_BONE_BLADED_Cube.411
v -0.406250 0.718750 0.031250
v -0.406250 1.156250 0.031250
v -0.406250 0.718750 -0.031250
v -0.406250 1.156250 -0.031250
v -0.343750 0.718750 0.031250
v -0.343750 1.156250 0.031250
v -0.343750 0.718750 -0.031250
v -0.343750 1.156250 -0.031250
v -0.375000 0.718750 0.088388
v -0.463388 0.718750 0.000000
v -0.286612 0.718750 0.000000
v -0.375000 0.718750 -0.088388
v -0.463388 0.656250 0.000000
v -0.375000 0.656250 0.088388
v -0.375000 0.656250 -0.088388
v -0.286612 0.656250 0.000000
v -0.440938 0.656250 -0.021744
v -0.440938 0.718750 -0.021744
v -0.463035 0.687500 -0.088035
v -0.286965 0.687500 0.088035
v -0.396744 0.656250 -0.065938
v -0.396744 0.718750 -0.065938
v -0.309062 0.718750 0.021744
v -0.309062 0.656250 0.021744
v -0.353256 0.656250 0.065938
v -0.353256 0.718750 0.065938
v -0.396744 0.656250 0.065938
v -0.396744 0.718750 0.065938
v -0.463035 0.687500 0.088035
v -0.286965 0.687500 -0.088035
v -0.440938 0.656250 0.021744
v -0.440938 0.718750 0.021744
v -0.353256 0.718750 -0.065938
v -0.353256 0.656250 -0.065938
v -0.309062 0.656250 -0.021744
v -0.309062 0.718750 -0.021744
v -0.379620 1.227866 0.026630
v -0.429894 1.192804 0.038856
v -0.405441 1.122681 -0.061691
v -0.355168 1.157743 -0.073918
v -0.394832 1.154757 0.073918
v -0.344559 1.189819 0.061691
v -0.320106 1.119695 -0.038856
v -0.370380 1.084634 -0.026630
v -0.472562 1.194297 0.027438
v -0.402438 1.118202 0.097562
v -0.301891 1.188326 0.073109
v -0.372014 1.264421 0.002986
v -0.436007 1.210335 0.063993
v -0.400945 1.172288 0.099055
v -0.350672 1.207349 0.086828
v -0.385733 1.245397 0.051767
v -0.405566 1.243904 0.125684
v -0.347562 1.194297 -0.097562
v -0.448109 1.124174 -0.073109
v -0.377986 1.048079 -0.002986
v -0.277438 1.118202 -0.027438
v -0.349055 1.140212 -0.099055
v -0.399328 1.105150 -0.086828
v -0.364267 1.067103 -0.051767
v -0.313993 1.102165 -0.063993
v -0.344434 1.068596 -0.125684
v -0.367188 0.593750 0.000000
v -0.382812 0.593750 0.000000
v -0.375000 0.565799 -0.055902
v -0.375000 0.313085 0.005183
v -0.359375 0.628299 -0.087152
v -0.390625 0.628299 -0.087152
v -0.382812 0.380148 -0.100304
v -0.367188 0.380148 -0.100304
v -0.375000 0.440932 -0.061661
v -0.382812 0.569098 -0.127428
v -0.382812 0.444231 -0.133188
v -0.367188 0.569098 -0.127428
v -0.367188 0.444231 -0.133188
v -0.343750 0.656250 0.031250
v -0.406250 0.656250 0.031250
v -0.406250 0.656250 -0.031250
v -0.343750 0.656250 -0.031250
vt 0.250000 0.859375
vt 0.265625 0.859375
vt 0.265625 0.875000
vt 0.250000 0.875000
vt 0.312500 0.859375
vt 0.296875 0.859375
vt 0.296875 0.875000
vt 0.312500 0.875000
vt 0.187500 0.828125
vt 0.187500 0.859375
vt 0.156250 0.859375
vt 0.156250 0.828125
vt 0.156250 0.859375
vt 0.187500 0.859375
vt 0.187500 0.890625
vt 0.156250 0.890625
vt 0.343750 0.890625
vt 0.453125 0.890625
vt 0.453125 0.906250
vt 0.343750 0.906250
vt 0.453125 0.921875
vt 0.343750 0.921875
vt 0.343750 0.906250
vt 0.453125 0.906250
vt 0.453125 0.890625
vt 0.343750 0.890625
vt 0.343750 0.875000
vt 0.453125 0.875000
vt 0.250000 0.859375
vt 0.218750 0.859375
vt 0.218750 0.890625
vt 0.250000 0.890625
vt 0.218750 0.859375
vt 0.218750 0.890625
vt 0.187500 0.890625
vt 0.187500 0.859375
vt 0.218750 0.859375
vt 0.218750 0.843750
vt 0.187500 0.843750
vt 0.218750 0.859375
vt 0.250000 0.859375
vt 0.250000 0.843750
vt 0.218750 0.843750
vt 0.250000 0.859375
vt 0.250000 0.843750
vt 0.218750 0.843750
vt 0.453125 0.890625
vt 0.468750 0.890625
vt 0.453125 0.906250
vt 0.453125 0.906250
vt 0.453125 0.890625
vt 0.468750 0.890625
vt 0.453125 0.890625
vt 0.453125 0.906250
vt 0.468750 0.890625
vt 0.453125 0.890625
vt 0.468750 0.890625
vt 0.453125 0.875000
vt 0.468750 0.875000
vt 0.468750 0.906250
vt 0.453125 0.921875
vt 0.453125 0.890625
vt 0.453125 0.875000
vt 0.468750 0.875000
vt 0.468750 0.906250
vt 0.453125 0.906250
vt 0.453125 0.921875
vt 0.453125 0.890625
vt 0.468750 0.890625
vt 0.453125 0.906250
vt 0.453125 0.906250
vt 0.453125 0.890625
vt 0.468750 0.890625
vt 0.453125 0.890625
vt 0.468750 0.890625
vt 0.453125 0.890625
vt 0.468750 0.890625
vt 0.453125 0.890625
vt 0.453125 0.875000
vt 0.468750 0.875000
vt 0.468750 0.906250
vt 0.453125 0.906250
vt 0.453125 0.921875
vt 0.453125 0.890625
vt 0.453125 0.875000
vt 0.468750 0.875000
vt 0.468750 0.906250
vt 0.453125 0.906250
vt 0.453125 0.921875
vt 0.187500 0.859375
vt 0.156250 0.828125
vt 0.187500 0.828125
vt 0.156250 0.859375
vt 0.187500 0.890625
vt 0.156250 0.890625
vt 0.281250 0.875000
vt 0.265625 0.875000
vt 0.281250 0.890625
vt 0.281250 0.859375
vt 0.296875 0.859375
vt 0.296875 0.875000
vt 0.281250 0.875000
vt 0.281250 0.859375
vt 0.265625 0.859375
vt 0.265625 0.890625
vt 0.296875 0.890625
vt 0.187500 0.890625
vt 0.156250 0.890625
vt 0.156250 0.859375
vt 0.156250 0.828125
vt 0.187500 0.828125
vt 0.187500 0.859375
vt 0.312500 0.875000
vt 0.328125 0.875000
vt 0.328125 0.890625
vt 0.312500 0.859375
vt 0.328125 0.859375
vt 0.281250 0.859375
vt 0.296875 0.859375
vt 0.296875 0.875000
vt 0.281250 0.875000
vt 0.296875 0.859375
vt 0.312500 0.859375
vt 0.312500 0.875000
vt 0.296875 0.875000
vt 0.296875 0.890625
vt 0.312500 0.890625
vt 0.328125 0.859375
vt 0.328125 0.843750
vt 0.343750 0.843750
vt 0.343750 0.859375
vt 0.437500 0.843750
vt 0.406250 0.859375
vt 0.406250 0.843750
vt 0.390625 0.859375
vt 0.390625 0.843750
vt 0.390625 0.875000
vt 0.406250 0.875000
vt 0.359375 0.843750
vt 0.359375 0.859375
vt 0.390625 0.859375
vt 0.359375 0.875000
vt 0.359375 0.859375
vt 0.343750 0.875000
vt 0.343750 0.859375
vt 0.359375 0.843750
vt 0.359375 0.843750
vt 0.406250 0.859375
vt 0.328125 0.843750
vt 0.328125 0.859375
vt 0.328125 0.875000
vt 0.312500 0.859375
vt 0.375000 0.828125
vt 0.359375 0.828125
vt 0.359375 0.812500
vt 0.375000 0.812500
vt 0.312500 0.859375
vt 0.437500 0.859375
vn -0.5610 0.6088 -0.5610
vn 0.5610 -0.6088 0.5610
vn -0.8044 -0.5610 0.1956
vn 0.8044 0.5610 -0.1956
vn -1.0000 0.0000 0.0000
vn 0.0000 0.0000 -1.0000
vn 1.0000 0.0000 0.0000
vn 0.0000 0.0000 1.0000
vn 0.0000 -1.0000 0.0000
vn 0.0000 1.0000 0.0000
vn 0.7071 0.0000 -0.7071
vn -0.7071 0.0000 0.7071
vn 0.7071 0.0000 0.7071
vn -0.7071 0.0000 -0.7071
vn -0.9487 0.0000 0.3162
vn -0.3162 0.0000 0.9487
vn 0.3162 0.0000 -0.9487
vn 0.9487 0.0000 -0.3162
vn -0.3162 -0.8944 -0.3162
vn -0.3162 0.8944 -0.3162
vn 0.3162 -0.8944 0.3162
vn 0.3162 0.8944 0.3162
vn 0.3162 0.0000 0.9487
vn 0.9487 0.0000 0.3162
vn -0.9487 0.0000 -0.3162
vn -0.3162 0.0000 -0.9487
vn -0.3162 -0.8944 0.3162
vn -0.3162 0.8944 0.3162
vn 0.3162 -0.8944 -0.3162
vn 0.3162 0.8944 -0.3162
vn 0.6320 0.7526 0.1848
vn -0.8069 -0.2509 0.5347
vn -0.5892 0.7954 -0.1420
vn 0.4143 -0.2936 0.8615
vn -0.1956 0.5610 0.8044
vn 0.1956 -0.5610 -0.8044
vn -0.6320 -0.7526 -0.1848
vn 0.8069 0.2509 -0.5347
vn -0.4143 0.2936 -0.8615
vn 0.5892 -0.7954 0.1420
vn 0.9478 -0.3164 -0.0405
vn 0.9923 0.0576 0.1101
vn 0.9922 0.0570 0.1110
vn 0.0000 -0.4565 -0.8897
vn -0.9941 -0.0050 0.1083
vn 0.0000 0.0461 -0.9989
vn 0.0000 0.5625 -0.8268
vn -0.9759 -0.1952 0.0976
vn 0.9941 -0.0050 0.1083
vn 0.9759 -0.1952 0.0976
vn -0.9922 0.0570 0.1110
vn -0.9478 -0.3164 -0.0405
vn 0.0000 0.8944 -0.4472
vn 0.9363 -0.3511 0.0000
vn 0.0000 -0.4472 0.8944
vn 0.0000 -0.8944 0.4472
vn -0.9363 -0.3511 0.0000
vn 0.0000 -0.8439 -0.5365
vn -0.9923 0.0576 0.1101
usemtl MAIN
s off
f 37/1/1 38/2/1 49/3/1 52/4/1
f 43/5/2 44/6/2 60/7/2 61/8/2
f 45/9/3 55/10/3 56/11/3 46/12/3
f 54/13/4 48/14/4 47/15/4 57/16/4
f 1/17/5 2/18/5 4/19/5 3/20/5
f 3/20/6 4/19/6 8/21/6 7/22/6
f 7/23/7 8/24/7 6/25/7 5/26/7
f 5/27/8 6/28/8 2/18/8 1/17/8
f 13/29/9 15/30/9 16/31/9 14/32/9
f 10/33/10 9/34/10 11/35/10 12/36/10
f 12/36/11 11/37/11 16/38/11 15/39/11
f 9/40/12 10/41/12 13/42/12 14/43/12
f 11/44/13 9/40/13 14/43/13 16/45/13
f 10/33/14 12/36/14 15/39/14 13/46/14
f 17/47/15 18/48/15 19/49/15
f 20/50/16 26/51/16 25/52/16
f 19/53/17 22/54/17 21/55/17
f 24/56/18 23/57/18 20/50/18
f 19/58/19 21/59/19 17/47/19
f 19/49/20 18/60/20 22/61/20
f 20/62/21 25/63/21 24/64/21
f 20/65/22 23/66/22 26/67/22
f 27/68/23 28/69/23 29/70/23
f 30/71/24 36/72/24 35/73/24
f 29/70/25 32/74/25 31/75/25
f 34/76/26 33/77/26 30/71/26
f 29/78/27 31/79/27 27/80/27
f 29/81/28 28/82/28 32/83/28
f 30/84/29 35/85/29 34/86/29
f 30/87/30 33/88/30 36/89/30
f 46/90/2 56/11/2 57/91/2 47/92/2
f 45/93/1 48/14/1 54/94/1 55/95/1
f 51/96/31 52/97/31 53/98/31
f 41/99/2 42/100/2 51/101/2 50/102/2
f 42/103/4 37/104/4 52/97/4 51/96/4
f 38/2/3 41/99/3 50/102/3 49/3/3
f 49/3/32 50/102/32 53/98/32
f 52/4/33 49/3/33 53/105/33
f 50/102/34 51/101/34 53/106/34
f 45/107/35 46/108/35 47/109/35 48/14/35
f 55/110/36 54/111/36 57/112/36 56/11/36
f 60/113/37 59/114/37 62/115/37
f 44/116/3 39/117/3 59/114/3 60/113/3
f 40/118/4 43/119/4 61/120/4 58/121/4
f 39/122/1 40/123/1 58/124/1 59/125/1
f 58/121/38 61/120/38 62/126/38
f 59/125/39 58/124/39 62/127/39
f 61/8/40 60/7/40 62/127/40
f 79/128/41 63/129/41 65/130/41 67/131/41
f 66/132/42 70/133/42 71/134/42
f 75/135/43 71/136/43 70/133/43
f 73/137/44 75/135/44 70/133/44 69/138/44
f 65/139/45 72/140/45 73/141/45 71/136/45
f 72/142/46 74/143/46 75/135/46 73/137/46
f 68/144/47 67/131/47 74/143/47 72/142/47
f 65/130/48 68/145/48 72/146/48
f 74/143/49 65/139/49 71/136/49 75/135/49
f 67/131/50 65/130/50 74/147/50
f 71/136/51 73/141/51 69/148/51
f 64/149/52 78/150/52 68/145/52 65/130/52
f 78/151/53 79/128/53 67/131/53 68/144/53
f 63/129/54 79/128/54 76/152/54
f 64/153/55 63/154/55 76/155/55 77/156/55
f 63/154/56 64/153/56 65/139/56
f 64/149/57 77/157/57 78/150/57
f 70/133/58 66/158/58 69/138/58
f 69/148/59 66/132/59 71/134/59
