# Blender v2.80 (sub 75) OBJ File: 'constructs.blend'
# www.blender.org
mtllib arm_caster_l.mtl
o ARM_LEFT_BONE_CASTER_Cube.419
v -0.406250 0.718750 0.031250
v -0.406250 1.156250 0.031250
v -0.406250 0.718750 -0.031250
v -0.406250 1.156250 -0.031250
v -0.343750 0.718750 0.031250
v -0.343750 1.156250 0.031250
v -0.343750 0.718750 -0.031250
v -0.343750 1.156250 -0.031250
v -0.375000 0.718750 0.088388
v -0.463388 0.718750 0.000000
v -0.286612 0.718750 0.000000
v -0.375000 0.718750 -0.088388
v -0.463388 0.656250 0.000000
v -0.375000 0.656250 0.088388
v -0.375000 0.656250 -0.088388
v -0.286612 0.656250 0.000000
v -0.440938 0.656250 -0.021744
v -0.440938 0.718750 -0.021744
v -0.463035 0.687500 -0.088035
v -0.286965 0.687500 0.088035
v -0.396744 0.656250 -0.065938
v -0.396744 0.718750 -0.065938
v -0.309062 0.718750 0.021744
v -0.309062 0.656250 0.021744
v -0.353256 0.656250 0.065938
v -0.353256 0.718750 0.065938
v -0.396744 0.656250 0.065938
v -0.396744 0.718750 0.065938
v -0.463035 0.687500 0.088035
v -0.286965 0.687500 -0.088035
v -0.440938 0.656250 0.021744
v -0.440938 0.718750 0.021744
v -0.353256 0.718750 -0.065938
v -0.353256 0.656250 -0.065938
v -0.309062 0.656250 -0.021744
v -0.309062 0.718750 -0.021744
v -0.379620 1.227866 0.026630
v -0.429894 1.192804 0.038856
v -0.405441 1.122681 -0.061691
v -0.355168 1.157743 -0.073918
v -0.394832 1.154757 0.073918
v -0.344559 1.189819 0.061691
v -0.320106 1.119695 -0.038856
v -0.370380 1.084634 -0.026630
v -0.472562 1.194297 0.027438
v -0.402438 1.118202 0.097562
v -0.301891 1.188326 0.073109
v -0.372014 1.264421 0.002986
v -0.436007 1.210335 0.063993
v -0.400945 1.172288 0.099055
v -0.350672 1.207349 0.086828
v -0.385733 1.245397 0.051767
v -0.405566 1.243904 0.125684
v -0.347562 1.194297 -0.097562
v -0.448109 1.124174 -0.073109
v -0.377986 1.048079 -0.002986
v -0.277438 1.118202 -0.027438
v -0.349055 1.140212 -0.099055
v -0.399328 1.105150 -0.086828
v -0.364267 1.067103 -0.051767
v -0.313993 1.102165 -0.063993
v -0.344434 1.068596 -0.125684
v -0.417688 0.588031 0.048407
v -0.448938 0.634906 0.021344
v -0.417688 0.556781 -0.005719
v -0.448938 0.603656 -0.032782
v -0.363562 0.615094 0.032782
v -0.394812 0.661969 0.005719
v -0.363562 0.583844 -0.021344
v -0.394812 0.630719 -0.048407
v -0.332312 0.588031 -0.048407
v -0.301062 0.634906 -0.021344
v -0.332312 0.556781 0.005719
v -0.301062 0.603656 0.032782
v -0.386438 0.615094 -0.032782
v -0.355188 0.661969 -0.005719
v -0.386438 0.583844 0.021344
v -0.355188 0.630719 0.048407
v -0.343750 0.593750 0.031250
v -0.343750 0.656250 0.031250
v -0.406250 0.593750 0.031250
v -0.406250 0.656250 0.031250
v -0.343750 0.593750 -0.031250
v -0.343750 0.656250 -0.031250
v -0.406250 0.593750 -0.031250
v -0.406250 0.656250 -0.031250
v -0.312500 0.468750 0.031250
v -0.312500 0.593750 0.031250
v -0.437500 0.468750 0.031250
v -0.437500 0.593750 0.031250
v -0.312500 0.468750 -0.031250
v -0.312500 0.593750 -0.031250
v -0.437500 0.468750 -0.031250
v -0.437500 0.593750 -0.031250
v -0.343750 0.500000 0.531250
v -0.343750 0.562500 0.531250
v -0.406250 0.500000 0.531250
v -0.406250 0.562500 0.531250
v -0.343750 0.500000 -0.281250
v -0.343750 0.562500 -0.281250
v -0.406250 0.500000 -0.281250
v -0.406250 0.562500 -0.281250
v -0.312500 0.468750 -0.281250
v -0.312500 0.593750 -0.281250
v -0.437500 0.468750 -0.281250
v -0.437500 0.593750 -0.281250
v -0.312500 0.468750 -0.343750
v -0.312500 0.593750 -0.343750
v -0.437500 0.468750 -0.343750
v -0.437500 0.593750 -0.343750
v -0.343750 0.500000 -0.343750
v -0.343750 0.562500 -0.343750
v -0.406250 0.500000 -0.343750
v -0.406250 0.562500 -0.343750
v -0.343750 0.500000 -0.468750
v -0.343750 0.562500 -0.468750
v -0.406250 0.500000 -0.468750
v -0.406250 0.562500 -0.468750
v -0.375000 0.531250 -0.531250
v -0.328125 0.484375 0.593750
v -0.328125 0.578125 0.593750
v -0.421875 0.484375 0.593750
v -0.421875 0.578125 0.593750
v -0.328125 0.484375 0.531250
v -0.328125 0.578125 0.531250
v -0.421875 0.484375 0.531250
v -0.421875 0.578125 0.531250
v -0.375000 0.531250 0.656250
v -0.343750 0.500000 0.593750
v -0.343750 0.562500 0.593750
v -0.406250 0.500000 0.593750
v -0.406250 0.562500 0.593750
v -0.406250 0.500000 -0.031250
v -0.406250 0.500000 0.031250
v -0.406250 0.562500 0.031250
v -0.406250 0.562500 -0.031250
v -0.343750 0.500000 0.031250
v -0.343750 0.500000 -0.031250
v -0.343750 0.562500 -0.031250
v -0.343750 0.562500 0.031250
vt 0.250000 0.859375
vt 0.265625 0.859375
vt 0.265625 0.875000
vt 0.250000 0.875000
vt 0.312500 0.859375
vt 0.296875 0.859375
vt 0.296875 0.875000
vt 0.312500 0.875000
vt 0.187500 0.828125
vt 0.187500 0.859375
vt 0.156250 0.859375
vt 0.156250 0.828125
vt 0.156250 0.859375
vt 0.187500 0.859375
vt 0.187500 0.890625
vt 0.156250 0.890625
vt 0.343750 0.890625
vt 0.453125 0.890625
vt 0.453125 0.906250
vt 0.343750 0.906250
vt 0.453125 0.921875
vt 0.343750 0.921875
vt 0.343750 0.906250
vt 0.453125 0.906250
vt 0.453125 0.890625
vt 0.343750 0.890625
vt 0.343750 0.875000
vt 0.453125 0.875000
vt 0.250000 0.859375
vt 0.218750 0.859375
vt 0.218750 0.890625
vt 0.250000 0.890625
vt 0.218750 0.859375
vt 0.218750 0.890625
vt 0.187500 0.890625
vt 0.187500 0.859375
vt 0.218750 0.859375
vt 0.218750 0.843750
vt 0.187500 0.843750
vt 0.218750 0.859375
vt 0.250000 0.859375
vt 0.250000 0.843750
vt 0.218750 0.843750
vt 0.250000 0.859375
vt 0.250000 0.843750
vt 0.218750 0.843750
vt 0.453125 0.890625
vt 0.468750 0.890625
vt 0.453125 0.906250
vt 0.453125 0.906250
vt 0.453125 0.890625
vt 0.468750 0.890625
vt 0.453125 0.890625
vt 0.453125 0.906250
vt 0.468750 0.890625
vt 0.453125 0.890625
vt 0.468750 0.890625
vt 0.453125 0.875000
vt 0.468750 0.875000
vt 0.468750 0.906250
vt 0.453125 0.921875
vt 0.453125 0.890625
vt 0.453125 0.875000
vt 0.468750 0.875000
vt 0.468750 0.906250
vt 0.453125 0.906250
vt 0.453125 0.921875
vt 0.453125 0.890625
vt 0.468750 0.890625
vt 0.453125 0.906250
vt 0.453125 0.906250
vt 0.453125 0.890625
vt 0.468750 0.890625
vt 0.453125 0.890625
vt 0.468750 0.890625
vt 0.453125 0.890625
vt 0.468750 0.890625
vt 0.453125 0.890625
vt 0.453125 0.875000
vt 0.468750 0.875000
vt 0.468750 0.906250
vt 0.453125 0.906250
vt 0.453125 0.921875
vt 0.453125 0.890625
vt 0.453125 0.875000
vt 0.468750 0.875000
vt 0.468750 0.906250
vt 0.453125 0.906250
vt 0.453125 0.921875
vt 0.187500 0.859375
vt 0.156250 0.828125
vt 0.187500 0.828125
vt 0.156250 0.859375
vt 0.187500 0.890625
vt 0.156250 0.890625
vt 0.281250 0.875000
vt 0.265625 0.875000
vt 0.281250 0.890625
vt 0.281250 0.859375
vt 0.296875 0.859375
vt 0.296875 0.875000
vt 0.281250 0.875000
vt 0.281250 0.859375
vt 0.265625 0.859375
vt 0.265625 0.890625
vt 0.296875 0.890625
vt 0.187500 0.890625
vt 0.156250 0.890625
vt 0.156250 0.859375
vt 0.156250 0.828125
vt 0.187500 0.828125
vt 0.187500 0.859375
vt 0.312500 0.875000
vt 0.328125 0.875000
vt 0.328125 0.890625
vt 0.312500 0.859375
vt 0.328125 0.859375
vt 0.281250 0.859375
vt 0.296875 0.859375
vt 0.296875 0.875000
vt 0.281250 0.875000
vt 0.296875 0.859375
vt 0.312500 0.859375
vt 0.312500 0.875000
vt 0.296875 0.875000
vt 0.296875 0.890625
vt 0.312500 0.890625
vt 0.468750 0.968750
vt 0.453125 0.968750
vt 0.453125 0.984375
vt 0.468750 0.984375
vt 0.453125 0.984375
vt 0.468750 0.984375
vt 0.468750 1.000000
vt 0.453125 1.000000
vt 0.484375 0.984375
vt 0.500000 0.984375
vt 0.500000 0.968750
vt 0.484375 0.968750
vt 0.500000 1.000000
vt 0.484375 1.000000
vt 0.484375 0.984375
vt 0.500000 0.984375
vt 0.453125 0.984375
vt 0.468750 0.984375
vt 0.468750 1.000000
vt 0.453125 1.000000
vt 0.468750 0.984375
vt 0.453125 0.984375
vt 0.453125 0.968750
vt 0.468750 0.968750
vt 0.500000 1.000000
vt 0.484375 1.000000
vt 0.484375 0.984375
vt 0.500000 0.984375
vt 0.484375 0.968750
vt 0.500000 0.968750
vt 0.500000 0.984375
vt 0.484375 0.984375
vt 0.328125 0.890625
vt 0.328125 0.875000
vt 0.343750 0.875000
vt 0.343750 0.890625
vt 0.328125 0.906250
vt 0.328125 0.890625
vt 0.343750 0.890625
vt 0.343750 0.906250
vt 0.328125 0.890625
vt 0.328125 0.875000
vt 0.343750 0.875000
vt 0.343750 0.890625
vt 0.328125 0.906250
vt 0.328125 0.890625
vt 0.343750 0.890625
vt 0.343750 0.906250
vt 0.140625 0.796875
vt 0.140625 0.828125
vt 0.171875 0.828125
vt 0.171875 0.796875
vt 0.203125 0.812500
vt 0.234375 0.812500
vt 0.234375 0.828125
vt 0.203125 0.828125
vt 0.171875 0.796875
vt 0.171875 0.828125
vt 0.140625 0.828125
vt 0.140625 0.796875
vt 0.203125 0.828125
vt 0.234375 0.828125
vt 0.234375 0.812500
vt 0.203125 0.812500
vt 0.171875 0.812500
vt 0.171875 0.828125
vt 0.171875 0.812500
vt 0.203125 0.812500
vt 0.203125 0.828125
vt 0.140625 0.796875
vt 0.140625 0.828125
vt 0.171875 0.828125
vt 0.171875 0.796875
vt 0.203125 0.812500
vt 0.234375 0.812500
vt 0.234375 0.828125
vt 0.203125 0.828125
vt 0.171875 0.796875
vt 0.171875 0.828125
vt 0.140625 0.828125
vt 0.140625 0.796875
vt 0.203125 0.828125
vt 0.234375 0.828125
vt 0.234375 0.812500
vt 0.203125 0.812500
vt 0.171875 0.812500
vt 0.171875 0.828125
vt 0.171875 0.812500
vt 0.203125 0.812500
vt 0.203125 0.828125
vt 0.140625 0.796875
vt 0.140625 0.828125
vt 0.171875 0.828125
vt 0.171875 0.796875
vt 0.203125 0.828125
vt 0.234375 0.828125
vt 0.234375 0.812500
vt 0.203125 0.812500
vt 0.171875 0.796875
vt 0.171875 0.828125
vt 0.140625 0.828125
vt 0.140625 0.796875
vt 0.203125 0.812500
vt 0.234375 0.812500
vt 0.234375 0.828125
vt 0.203125 0.828125
vt 0.171875 0.812500
vt 0.171875 0.828125
vt 0.203125 0.828125
vt 0.203125 0.812500
vt 0.171875 0.812500
vt 0.203125 0.812500
vt 0.203125 0.828125
vt 0.265625 0.812500
vt 0.328125 0.812500
vt 0.328125 0.828125
vt 0.265625 0.828125
vt 0.234375 0.812500
vt 0.359375 0.812500
vt 0.359375 0.828125
vt 0.234375 0.828125
vt 0.359375 0.812500
vt 0.234375 0.812500
vt 0.234375 0.828125
vt 0.359375 0.828125
vt 0.328125 0.812500
vt 0.265625 0.812500
vt 0.265625 0.828125
vt 0.328125 0.828125
vt 0.265625 0.812500
vt 0.328125 0.812500
vt 0.234375 0.812500
vt 0.359375 0.812500
vt 0.359375 0.828125
vt 0.234375 0.828125
vt 0.328125 0.828125
vt 0.265625 0.828125
vt 0.062500 0.531250
vt 0.093750 0.531250
vt 0.093750 0.593750
vt 0.062500 0.593750
vt 0.093750 0.625000
vt 0.062500 0.593750
vt 0.093750 0.593750
vt 0.093750 0.531250
vt 0.062500 0.531250
vt 0.062500 0.625000
vt 0.062500 0.687500
vt 0.093750 0.687500
vt 0.093750 0.625000
vt 0.062500 0.687500
vt 0.062500 0.625000
vt 0.093750 0.625000
vt 0.093750 0.687500
vt 0.093750 0.718750
vt 0.093750 0.625000
vt 0.093750 0.593750
vt 0.062500 0.593750
vt 0.062500 0.593750
vt 0.093750 0.593750
vt 0.093750 0.718750
vt 0.093750 0.687500
vt 0.062500 0.687500
vt 0.093750 0.687500
vt 0.062500 0.687500
vn -0.5610 0.6088 -0.5610
vn 0.5610 -0.6088 0.5610
vn -0.8044 -0.5610 0.1956
vn 0.8044 0.5610 -0.1956
vn -1.0000 0.0000 0.0000
vn 0.0000 0.0000 -1.0000
vn 1.0000 0.0000 0.0000
vn 0.0000 0.0000 1.0000
vn 0.0000 -1.0000 0.0000
vn 0.0000 1.0000 0.0000
vn 0.7071 0.0000 -0.7071
vn -0.7071 0.0000 0.7071
vn 0.7071 0.0000 0.7071
vn -0.7071 0.0000 -0.7071
vn -0.9487 0.0000 0.3162
vn -0.3162 0.0000 0.9487
vn 0.3162 0.0000 -0.9487
vn 0.9487 0.0000 -0.3162
vn -0.3162 -0.8944 -0.3162
vn -0.3162 0.8944 -0.3162
vn 0.3162 -0.8944 0.3162
vn 0.3162 0.8944 0.3162
vn 0.3162 0.0000 0.9487
vn 0.9487 0.0000 0.3162
vn -0.9487 0.0000 -0.3162
vn -0.3162 0.0000 -0.9487
vn -0.3162 -0.8944 0.3162
vn -0.3162 0.8944 0.3162
vn 0.3162 -0.8944 -0.3162
vn 0.3162 0.8944 -0.3162
vn 0.6320 0.7526 0.1848
vn -0.8069 -0.2509 0.5347
vn -0.5892 0.7954 -0.1420
vn 0.4143 -0.2936 0.8615
vn -0.1956 0.5610 0.8044
vn 0.1956 -0.5610 -0.8044
vn -0.6320 -0.7526 -0.1848
vn 0.8069 0.2509 -0.5347
vn -0.4143 0.2936 -0.8615
vn 0.5892 -0.7954 0.1420
vn -0.8660 -0.4330 0.2500
vn 0.0000 -0.5000 -0.8660
vn 0.8660 0.4330 -0.2500
vn -0.0000 0.5000 0.8660
vn 0.5000 -0.7500 0.4330
vn -0.5000 0.7500 -0.4330
vn 0.8660 -0.4330 -0.2500
vn 0.0000 -0.5000 0.8660
vn -0.8660 0.4330 0.2500
vn 0.0000 0.5000 -0.8660
vn -0.5000 -0.7500 -0.4330
vn 0.5000 0.7500 0.4330
vn -0.8944 0.0000 -0.4472
vn 0.8944 0.0000 -0.4472
vn 0.0000 -0.8944 -0.4472
vn 0.0000 0.8944 -0.4472
vn -0.8944 0.0000 0.4472
vn 0.8944 0.0000 0.4472
vn 0.0000 -0.8944 0.4472
vn 0.0000 0.8944 0.4472
usemtl MAIN
s off
f 37/1/1 38/2/1 49/3/1 52/4/1
f 43/5/2 44/6/2 60/7/2 61/8/2
f 45/9/3 55/10/3 56/11/3 46/12/3
f 54/13/4 48/14/4 47/15/4 57/16/4
f 1/17/5 2/18/5 4/19/5 3/20/5
f 3/20/6 4/19/6 8/21/6 7/22/6
f 7/23/7 8/24/7 6/25/7 5/26/7
f 5/27/8 6/28/8 2/18/8 1/17/8
f 13/29/9 15/30/9 16/31/9 14/32/9
f 10/33/10 9/34/10 11/35/10 12/36/10
f 12/36/11 11/37/11 16/38/11 15/39/11
f 9/40/12 10/41/12 13/42/12 14/43/12
f 11/44/13 9/40/13 14/43/13 16/45/13
f 10/33/14 12/36/14 15/39/14 13/46/14
f 17/47/15 18/48/15 19/49/15
f 20/50/16 26/51/16 25/52/16
f 19/53/17 22/54/17 21/55/17
f 24/56/18 23/57/18 20/50/18
f 19/58/19 21/59/19 17/47/19
f 19/49/20 18/60/20 22/61/20
f 20/62/21 25/63/21 24/64/21
f 20/65/22 23/66/22 26/67/22
f 27/68/23 28/69/23 29/70/23
f 30/71/24 36/72/24 35/73/24
f 29/70/25 32/74/25 31/75/25
f 34/76/26 33/77/26 30/71/26
f 29/78/27 31/79/27 27/80/27
f 29/81/28 28/82/28 32/83/28
f 30/84/29 35/85/29 34/86/29
f 30/87/30 33/88/30 36/89/30
f 46/90/2 56/11/2 57/91/2 47/92/2
f 45/93/1 48/14/1 54/94/1 55/95/1
f 51/96/31 52/97/31 53/98/31
f 41/99/2 42/100/2 51/101/2 50/102/2
f 42/103/4 37/104/4 52/97/4 51/96/4
f 38/2/3 41/99/3 50/102/3 49/3/3
f 49/3/32 50/102/32 53/98/32
f 52/4/33 49/3/33 53/105/33
f 50/102/34 51/101/34 53/106/34
f 45/107/35 46/108/35 47/109/35 48/14/35
f 55/110/36 54/111/36 57/112/36 56/11/36
f 60/113/37 59/114/37 62/115/37
f 44/116/3 39/117/3 59/114/3 60/113/3
f 40/118/4 43/119/4 61/120/4 58/121/4
f 39/122/1 40/123/1 58/124/1 59/125/1
f 58/121/38 61/120/38 62/126/38
f 59/125/39 58/124/39 62/127/39
f 61/8/40 60/7/40 62/127/40
f 63/128/41 64/129/41 66/130/41 65/131/41
f 65/132/42 66/133/42 70/134/42 69/135/42
f 69/136/43 70/137/43 68/138/43 67/139/43
f 67/140/44 68/141/44 64/142/44 63/143/44
f 65/131/45 69/136/45 67/139/45 63/128/45
f 70/134/46 66/133/46 64/142/46 68/141/46
f 71/144/47 72/145/47 74/146/47 73/147/47
f 73/148/48 74/149/48 78/150/48 77/151/48
f 77/152/49 78/153/49 76/154/49 75/155/49
f 75/156/50 76/157/50 72/158/50 71/159/50
f 73/148/51 77/151/51 75/156/51 71/159/51
f 78/153/52 74/146/52 72/145/52 76/154/52
f 79/160/8 80/161/8 82/162/8 81/163/8
f 81/164/5 82/165/5 86/166/5 85/167/5
f 85/168/6 86/169/6 84/170/6 83/171/6
f 83/172/7 84/173/7 80/174/7 79/175/7
f 87/176/8 88/177/8 90/178/8 89/179/8
f 89/180/5 90/181/5 94/182/5 93/183/5
f 93/184/6 94/185/6 92/186/6 91/187/6
f 91/188/7 92/189/7 88/190/7 87/191/7
f 89/192/9 93/193/9 91/188/9 87/191/9
f 94/185/10 90/194/10 88/195/10 92/196/10
f 103/197/8 104/198/8 106/199/8 105/200/8
f 105/201/5 106/202/5 110/203/5 109/204/5
f 109/205/6 110/206/6 108/207/6 107/208/6
f 107/209/7 108/210/7 104/211/7 103/212/7
f 105/213/9 109/214/9 107/209/9 103/212/9
f 110/206/10 106/215/10 104/216/10 108/217/10
f 120/218/8 121/219/8 123/220/8 122/221/8
f 122/222/5 123/223/5 127/224/5 126/225/5
f 126/226/6 127/227/6 125/228/6 124/229/6
f 124/230/7 125/231/7 121/232/7 120/233/7
f 122/234/9 126/235/9 124/236/9 120/237/9
f 127/227/10 123/238/10 121/239/10 125/240/10
f 102/241/10 136/242/10 139/243/10 100/244/10
f 135/245/10 98/246/10 96/247/10 140/248/10
f 97/249/9 134/250/9 137/251/9 95/252/9
f 133/253/9 101/254/9 99/255/9 138/256/9
f 99/257/7 100/244/7 139/243/7 138/258/7
f 137/259/7 140/248/7 96/247/7 95/260/7
f 97/249/5 98/261/5 135/262/5 134/250/5
f 133/253/5 136/263/5 102/264/5 101/254/5
usemtl CHIMERITE
f 113/265/5 114/266/5 118/267/5 117/268/5
f 117/268/53 118/267/53 119/269/53
f 115/270/7 116/271/7 112/272/7 111/273/7
f 113/274/9 117/275/9 115/276/9 111/277/9
f 118/278/10 114/279/10 112/280/10 116/281/10
f 116/271/54 115/270/54 119/269/54
f 115/276/55 117/275/55 119/282/55
f 118/278/56 116/281/56 119/282/56
f 128/283/57 132/284/57 131/285/57
f 129/286/58 130/287/58 128/283/58
f 128/288/59 131/289/59 129/290/59
f 132/291/60 128/288/60 130/292/60
