# Blender v2.80 (sub 75) OBJ File: 'constructs.blend'
# www.blender.org
mtllib bone_eyes_happy.mtl
o EYES_BONE_HAPPY_Cube.436
v 0.062500 1.531250 -0.093750
v 0.062500 1.500000 -0.093750
v 0.031250 1.515625 -0.156250
v 0.031250 1.484375 -0.156250
v 0.093750 1.484375 -0.093750
v 0.093750 1.515625 -0.156250
v 0.093750 1.484375 -0.156250
v 0.093750 1.515625 -0.093750
v 0.062500 1.500000 -0.156250
v 0.031250 1.484375 -0.093750
v 0.062500 1.531250 -0.156250
v 0.031250 1.515625 -0.093750
v 0.062500 1.437500 -0.156250
v 0.093750 1.437500 -0.156250
v 0.031250 1.562500 -0.156250
v 0.093750 1.562500 -0.156250
v 0.062500 1.562500 -0.156250
v 0.031250 1.437500 -0.156250
v -0.062500 1.531250 -0.093750
v -0.062500 1.500000 -0.093750
v -0.031250 1.515625 -0.156250
v -0.031250 1.484375 -0.156250
v -0.093750 1.484375 -0.093750
v -0.093750 1.515625 -0.156250
v -0.093750 1.484375 -0.156250
v -0.093750 1.515625 -0.093750
v -0.062500 1.500000 -0.156250
v -0.031250 1.484375 -0.093750
v -0.062500 1.531250 -0.156250
v -0.031250 1.515625 -0.093750
v -0.062500 1.437500 -0.156250
v -0.093750 1.437500 -0.156250
v -0.031250 1.562500 -0.156250
v -0.093750 1.562500 -0.156250
v -0.062500 1.562500 -0.156250
v -0.031250 1.437500 -0.156250
vt -0.000000 0.812500
vt 0.015625 0.812500
vt 0.015625 0.796875
vt -0.000000 0.796875
vt 0.015625 0.796875
vt 0.031250 0.796875
vt 0.031250 0.812500
vt 0.015625 0.812500
vt -0.000000 0.812500
vt -0.000000 0.796875
vt 0.015625 0.796875
vt 0.015625 0.812500
vt 0.046875 0.875000
vt 0.031250 0.875000
vt 0.031250 0.859375
vt 0.046875 0.859375
vt 0.046875 0.875000
vt 0.046875 0.890625
vt 0.031250 0.890625
vt 0.031250 0.875000
vt 0.031250 0.859375
vt 0.031250 0.875000
vt 0.031250 0.875000
vt 0.031250 0.890625
vt -0.000000 0.812500
vt -0.000000 0.796875
vt 0.015625 0.796875
vt 0.015625 0.812500
vt 0.015625 0.796875
vt 0.015625 0.812500
vt 0.031250 0.812500
vt 0.031250 0.796875
vt -0.000000 0.796875
vt -0.000000 0.812500
vt 0.015625 0.812500
vt 0.015625 0.796875
vt 0.046875 0.875000
vt 0.046875 0.859375
vt 0.031250 0.859375
vt 0.031250 0.875000
vt 0.046875 0.875000
vt 0.031250 0.875000
vt 0.031250 0.890625
vt 0.046875 0.890625
vt 0.031250 0.875000
vt 0.031250 0.859375
vt 0.031250 0.890625
vt 0.031250 0.875000
vn 0.4472 -0.8944 0.0000
vn 0.4472 0.8944 0.0000
vn -0.4472 -0.8944 0.0000
vn -0.4472 0.8944 0.0000
vn 0.0000 0.0000 -1.0000
usemtl MAIN
s off
f 3/1/1 11/2/1 1/3/1 12/4/1
f 7/5/2 9/6/2 2/7/2 5/8/2
f 11/2/3 6/9/3 8/10/3 1/3/3
f 9/6/4 4/11/4 10/12/4 2/7/4
f 9/13/5 7/14/5 14/15/5 13/16/5
f 11/17/5 17/18/5 16/19/5 6/20/5
f 9/13/5 13/16/5 18/21/5 4/22/5
f 11/17/5 3/23/5 15/24/5 17/18/5
f 21/25/3 30/26/3 19/27/3 29/28/3
f 25/29/4 23/30/4 20/31/4 27/32/4
f 29/28/1 19/27/1 26/33/1 24/34/1
f 27/32/2 20/31/2 28/35/2 22/36/2
f 27/37/5 31/38/5 32/39/5 25/40/5
f 29/41/5 24/42/5 34/43/5 35/44/5
f 27/37/5 22/45/5 36/46/5 31/38/5
f 29/41/5 35/44/5 33/47/5 21/48/5
