# Blender v2.80 (sub 75) OBJ File: 'constructs.blend'
# www.blender.org
mtllib bone_eyes_unimpressed.mtl
o EYES_BONE_UNIMPRESSED_Cube.438
v -0.093750 1.531000 -0.156250
v -0.031250 1.531000 -0.156250
v 0.031250 1.531000 -0.156250
v 0.093750 1.531000 -0.156250
v -0.093750 1.562250 -0.156250
v -0.031250 1.562250 -0.156250
v 0.031250 1.562250 -0.156250
v 0.093750 1.562250 -0.156250
v -0.093750 1.531000 -0.093750
v -0.031250 1.531000 -0.093750
v 0.031250 1.531000 -0.093750
v 0.093750 1.531000 -0.093750
vt 0.031250 0.875000
vt 0.046875 0.875000
vt 0.046875 0.890625
vt 0.031250 0.890625
vt 0.046875 0.875000
vt 0.046875 0.890625
vt 0.031250 0.890625
vt 0.031250 0.875000
vt 0.015625 0.796875
vt 0.000000 0.796875
vt 0.000000 0.812500
vt 0.015625 0.812500
vt 0.015625 0.796875
vt 0.000000 0.796875
vt 0.000000 0.812500
vt 0.015625 0.812500
vn 0.0000 0.0000 -1.0000
vn 0.0000 -1.0000 0.0000
usemtl MAIN
s off
f 2/1/1 1/2/1 5/3/1 6/4/1
f 3/5/1 7/6/1 8/7/1 4/8/1
f 1/9/2 2/10/2 10/11/2 9/12/2
f 3/13/2 4/14/2 12/15/2 11/16/2
