# Blender v2.80 (sub 75) OBJ File: 'constructs.blend'
# www.blender.org
mtllib eyes_base.mtl
o EYES_BONE_BASE_EMISSIVE_Cube.443
v 0.078125 1.453125 -0.109375
v 0.078125 1.546875 -0.109375
v 0.046875 1.546875 -0.109375
v 0.046875 1.453125 -0.109375
v -0.046875 1.453125 -0.109375
v -0.046875 1.546875 -0.109375
v -0.078125 1.546875 -0.109375
v -0.078125 1.453125 -0.109375
vt 0.375000 0.656250
vt 0.390625 0.656250
vt 0.390625 0.687500
vt 0.375000 0.687500
vt 0.375000 0.656250
vt 0.390625 0.656250
vt 0.390625 0.687500
vt 0.375000 0.687500
vn 0.0000 0.0000 -1.0000
usemtl MAIN
s off
f 1/1/1 4/2/1 3/3/1 2/4/1
f 5/5/1 8/6/1 7/7/1 6/8/1
