# Blender v2.80 (sub 75) OBJ File: 'constructs.blend'
# www.blender.org
mtllib head_basic.mtl
o HEAD_BONE_BASIC_Cube.396
v 0.156250 1.375000 -0.093750
v -0.156250 1.375000 -0.093750
v -0.156250 1.375000 -0.156250
v -0.156250 1.625000 -0.156250
v 0.156250 1.375000 -0.156250
v -0.156250 1.625000 -0.093750
v 0.156250 1.625000 -0.093750
v 0.156250 1.625000 -0.156250
v -0.093750 1.312500 -0.093750
v -0.093750 1.312500 0.093750
v 0.093700 1.312500 -0.093750
v 0.093700 1.312500 0.093750
v -0.093750 1.375000 -0.156250
v 0.093700 1.375000 -0.156250
v -0.093750 1.312500 -0.156250
v 0.093700 1.312500 -0.156250
v -0.093750 1.437500 -0.156250
v 0.093750 1.437500 -0.156250
v -0.093750 1.562500 -0.156250
v 0.093750 1.562500 -0.156250
v 0.031250 1.625000 -0.156250
v 0.031250 1.562500 -0.156250
v -0.031250 1.625000 -0.156250
v -0.031250 1.562500 -0.156250
v 0.031250 1.437500 -0.156250
v -0.031250 1.437500 -0.156250
v -0.093750 1.437500 -0.093750
v 0.093750 1.437500 -0.093750
v -0.093750 1.562500 -0.093750
v 0.093750 1.562500 -0.093750
v 0.031250 1.562500 -0.093750
v -0.031250 1.562500 -0.093750
v 0.031250 1.437500 -0.093750
v -0.031250 1.437500 -0.093750
v 0.093750 1.625000 -0.093750
v -0.093750 1.625000 -0.093750
v 0.156250 1.375000 0.093750
v -0.156250 1.375000 0.093750
v -0.156250 1.625000 0.093750
v 0.156250 1.625000 0.093750
v 0.093750 1.625000 0.093750
v -0.093750 1.625000 0.093750
v -0.093750 1.375000 0.156250
v 0.156250 1.375000 0.156250
v -0.156250 1.375000 0.156250
v -0.156250 1.625000 0.156250
v 0.156250 1.625000 0.156250
v -0.093750 1.625000 0.156250
v 0.093750 1.375000 0.156250
v 0.093750 1.625000 0.156250
vt 0.078125 0.859375
vt 0.093750 0.859375
vt 0.093750 0.921875
vt 0.078125 0.921875
vt 0.015625 0.843750
vt 0.015625 0.859375
vt 0.000000 0.859375
vt 0.093750 0.859375
vt 0.078125 0.859375
vt 0.078125 0.921875
vt 0.093750 0.921875
vt 0.000000 0.921875
vt 0.015625 0.906250
vt 0.031250 0.906250
vt 0.031250 0.921875
vt 0.062500 0.843750
vt 0.062500 0.859375
vt 0.093750 0.843750
vt 0.093750 0.843750
vt 0.015625 0.843750
vt 0.062500 0.843750
vt 0.031250 0.875000
vt 0.031250 0.890625
vt 0.015625 0.875000
vt 0.046875 0.890625
vt 0.046875 0.875000
vt 0.062500 0.875000
vt 0.031250 0.796875
vt 0.031250 0.843750
vt 0.046875 0.843750
vt 0.046875 0.796875
vt 0.015625 0.875000
vt 0.062500 0.906250
vt 0.062500 0.875000
vt 0.046875 0.921875
vt 0.046875 0.906250
vt 0.031250 0.875000
vt 0.046875 0.875000
vt 0.000000 0.796875
vt 0.015625 0.796875
vt 0.015625 0.812500
vt 0.000000 0.812500
vt 0.000000 0.812500
vt 0.000000 0.843750
vt 0.015625 0.843750
vt 0.015625 0.812500
vt 0.000000 0.812500
vt 0.000000 0.843750
vt 0.015625 0.843750
vt 0.015625 0.812500
vt 0.000000 0.812500
vt 0.000000 0.796875
vt 0.015625 0.796875
vt 0.000000 0.796875
vt 0.015625 0.796875
vt 0.000000 0.812500
vt 0.015625 0.812500
vt 0.000000 0.812500
vt 0.000000 0.796875
vt 0.015625 0.796875
vt 0.000000 0.843750
vt 0.000000 0.812500
vt 0.015625 0.812500
vt 0.015625 0.843750
vt 0.000000 0.843750
vt 0.000000 0.812500
vt 0.015625 0.812500
vt 0.015625 0.843750
vt 0.031250 0.812500
vt 0.031250 0.843750
vt 0.031250 0.843750
vt 0.031250 0.812500
vt 0.046875 1.000000
vt 0.031250 1.000000
vt 0.015625 0.984375
vt 0.062500 0.984375
vt 0.078125 0.984375
vt 0.078125 1.000000
vt 0.000000 1.000000
vt 0.000000 0.984375
vt 0.156250 0.843750
vt 0.140625 0.843750
vt 0.140625 0.828125
vt 0.156250 0.828125
vt 0.140625 0.859375
vt 0.140625 0.921875
vt 0.000000 0.937500
vt 0.015625 0.937500
vt 0.062500 0.937500
vt 0.140625 0.921875
vt 0.140625 0.859375
vt 0.078125 0.937500
vt 0.140625 0.843750
vt 0.140625 0.843750
vt 0.062500 0.921875
vt 0.078125 0.921875
vt 0.156250 0.859375
vt 0.000000 0.921875
vt 0.015625 0.921875
vt 0.156250 0.859375
vt 0.156250 0.921875
vt 0.156250 0.921875
vt 0.078125 0.937500
vt 0.093750 0.921875
vt 0.093750 0.937500
vt 0.078125 1.000000
vt 0.093750 1.000000
vt 0.140625 0.921875
vt 0.156250 0.937500
vt 0.140625 0.937500
vt 0.156250 1.000000
vt 0.140625 1.000000
vn -1.0000 0.0000 0.0000
vn 0.0000 -0.7071 -0.7071
vn 1.0000 0.0000 0.0000
vn 0.0000 0.0000 -1.0000
vn 0.7068 -0.7074 0.0000
vn -0.7071 -0.7071 0.0000
vn 0.0000 -1.0000 0.0000
vn 0.0000 1.0000 0.0000
vn 0.0000 -0.7071 0.7071
vn 0.0000 0.0000 1.0000
usemtl MAIN
s off
f 3/1/1 2/2/1 6/3/1 4/4/1
f 11/5/2 14/6/2 5/7/2
f 1/8/3 5/9/3 8/10/3 7/11/3
f 8/12/4 20/13/4 22/14/4 21/15/4
f 9/16/2 3/1/2 13/17/2
f 11/18/5 5/9/5 1/8/5
f 3/1/6 9/19/6 2/2/6
f 13/17/4 14/6/4 16/20/4 15/21/4
f 16/22/3 14/23/3 11/24/3
f 13/25/1 15/26/1 9/27/1
f 15/28/7 16/29/7 11/30/7 9/31/7
f 8/12/4 5/7/4 18/32/4 20/13/4
f 3/1/4 4/4/4 19/33/4 17/34/4
f 19/33/4 4/4/4 23/35/4 24/36/4
f 22/14/4 24/36/4 23/35/4 21/15/4
f 24/36/4 22/14/4 25/37/4 26/38/4
f 13/17/4 26/38/4 25/37/4 14/6/4
f 14/6/4 25/37/4 18/32/4 5/7/4
f 17/34/4 26/38/4 13/17/4 3/1/4
f 26/39/8 17/40/8 27/41/8 34/42/8
f 25/43/3 22/44/3 31/45/3 33/46/3
f 17/47/3 19/48/3 29/49/3 27/41/3
f 19/50/7 24/51/7 32/52/7 29/53/7
f 18/54/8 25/55/8 33/46/8 28/56/8
f 22/57/7 20/58/7 30/59/7 31/60/7
f 24/61/1 26/62/1 34/63/1 32/64/1
f 20/65/1 18/66/1 28/67/1 30/68/1
f 28/67/4 33/69/4 31/70/4 30/68/4
f 29/71/4 32/64/4 34/63/4 27/72/4
f 21/73/8 23/74/8 36/75/8 35/76/8
f 35/76/8 7/77/8 8/78/8 21/73/8
f 23/74/8 4/79/8 6/80/8 36/75/8
f 9/81/7 11/82/7 12/83/7 10/84/7
f 6/3/1 2/2/1 38/85/1 39/86/1
f 36/75/8 6/80/8 39/87/8 42/88/8
f 35/76/8 36/75/8 42/88/8 41/89/8
f 1/8/3 7/11/3 40/90/3 37/91/3
f 7/77/8 35/76/8 41/89/8 40/92/8
f 2/2/6 9/19/6 10/93/6 38/85/6
f 1/8/5 37/91/5 12/94/5 11/18/5
f 40/92/8 41/89/8 50/95/8 47/96/8
f 12/94/5 37/91/5 44/97/5
f 42/88/8 39/87/8 46/98/8 48/99/8
f 39/86/1 38/85/1 45/100/1 46/101/1
f 38/85/6 10/93/6 45/100/6
f 37/91/3 40/90/3 47/102/3 44/97/3
f 45/103/9 10/104/9 43/105/9
f 46/106/10 45/103/10 43/105/10 48/107/10
f 12/108/9 44/109/9 49/110/9
f 44/109/10 47/111/10 50/112/10 49/110/10
f 12/108/9 49/110/9 43/105/9 10/104/9
f 41/89/8 42/88/8 48/99/8 50/95/8
f 50/112/10 48/107/10 43/105/10 49/110/10
