# Blender v2.80 (sub 75) OBJ File: 'constructs.blend'
# www.blender.org
mtllib leg_rocket_l.mtl
o LEG_LEFT_BONE_ROCKET_Cube.427
v -0.218750 0.654006 0.033494
v -0.156250 0.654006 -0.091506
v -0.218750 0.654006 -0.091506
v -0.156250 0.654006 0.033494
v -0.156250 0.716506 0.033494
v -0.218750 0.716506 0.033494
v -0.156250 0.716506 -0.091506
v -0.218750 0.716506 -0.091506
v -0.125000 -0.000000 0.031250
v -0.125000 0.125000 0.031250
v -0.250000 -0.000000 0.031250
v -0.250000 0.125000 0.031250
v -0.125000 -0.000000 -0.093750
v -0.125000 0.125000 -0.093750
v -0.250000 -0.000000 -0.093750
v -0.250000 0.125000 -0.093750
v -0.062500 0.062500 0.093750
v -0.312500 0.062500 0.093750
v -0.312500 0.062500 -0.156250
v -0.062500 0.062500 -0.156250
v -0.218750 0.625000 0.000000
v -0.218750 0.625000 -0.062500
v -0.156250 0.625000 0.000000
v -0.156250 0.625000 -0.062500
v -0.218750 0.187500 -0.062500
v -0.156250 0.187500 -0.062500
v -0.218750 0.187500 0.000000
v -0.156250 0.187500 0.000000
v -0.187500 0.187500 0.057138
v -0.275888 0.187500 -0.031250
v -0.099112 0.187500 -0.031250
v -0.187500 0.187500 -0.119638
v -0.275888 0.125000 -0.031250
v -0.187500 0.125000 0.057138
v -0.187500 0.125000 -0.119638
v -0.099112 0.125000 -0.031250
v -0.253438 0.125000 -0.052994
v -0.253438 0.187500 -0.052994
v -0.275535 0.156250 -0.119285
v -0.099465 0.156250 0.056785
v -0.209244 0.125000 -0.097188
v -0.209244 0.187500 -0.097188
v -0.121562 0.187500 -0.009506
v -0.121562 0.125000 -0.009506
v -0.165756 0.125000 0.034688
v -0.165756 0.187500 0.034688
v -0.209244 0.125000 0.034688
v -0.209244 0.187500 0.034688
v -0.275535 0.156250 0.056785
v -0.099465 0.156250 -0.119285
v -0.253438 0.125000 -0.009506
v -0.253438 0.187500 -0.009506
v -0.165756 0.187500 -0.097188
v -0.165756 0.125000 -0.097188
v -0.121562 0.125000 -0.052994
v -0.121562 0.187500 -0.052994
v -0.250000 0.622756 -0.091506
v -0.125000 0.622756 -0.091506
v -0.250000 0.747756 -0.091506
v -0.125000 0.747756 -0.091506
v -0.218750 0.654006 -0.122756
v -0.156250 0.654006 -0.122756
v -0.218750 0.716506 -0.122756
v -0.156250 0.716506 -0.122756
v -0.187500 0.685256 -0.185256
v -0.125000 0.622756 0.033494
v -0.125000 0.747756 0.033494
v -0.250000 0.747756 0.033494
v -0.250000 0.622756 0.033494
v -0.156250 0.654006 0.064744
v -0.156250 0.716506 0.064744
v -0.218750 0.716506 0.064744
v -0.218750 0.654006 0.064744
v -0.187500 0.685256 0.127244
v -0.312500 -0.000000 0.093750
v -0.062500 -0.000000 0.093750
v -0.312500 -0.000000 -0.156250
v -0.062500 -0.000000 -0.156250
v -0.218750 0.093750 0.000000
v -0.156250 0.093750 0.000000
v -0.218750 0.093750 -0.062500
v -0.156250 0.093750 -0.062500
v -0.250000 0.062500 0.031250
v -0.125000 0.062500 0.031250
v -0.250000 0.062500 -0.093750
v -0.125000 0.062500 -0.093750
v -0.296875 0.080843 0.220449
v -0.296875 0.141214 0.204273
v -0.281250 0.047407 0.035294
v -0.281250 0.077593 0.027206
v -0.234375 0.080843 0.220449
v -0.234375 0.141214 0.204273
v -0.250000 0.047407 0.035294
v -0.250000 0.077593 0.027206
v -0.265625 0.102940 0.182176
v -0.218750 0.047407 0.156706
v -0.218750 0.109907 0.156706
v -0.156250 0.047407 0.156706
v -0.156250 0.109907 0.156706
v -0.187500 0.078657 0.125456
v -0.208333 0.057824 0.031706
v -0.208333 0.099491 0.031706
v -0.166667 0.057824 0.031706
v -0.166667 0.099491 0.031706
vt 0.281250 0.828125
vt 0.312500 0.828125
vt 0.312500 0.859375
vt 0.281250 0.859375
vt 0.312500 0.859375
vt 0.328125 0.859375
vt 0.328125 0.875000
vt 0.312500 0.875000
vt 0.281250 0.859375
vt 0.250000 0.859375
vt 0.250000 0.828125
vt 0.281250 0.859375
vt 0.296875 0.859375
vt 0.296875 0.875000
vt 0.281250 0.875000
vt 0.281250 0.859375
vt 0.281250 0.828125
vt 0.312500 0.828125
vt 0.109375 0.500000
vt 0.125000 0.500000
vt 0.125000 0.609375
vt 0.109375 0.609375
vt 0.140625 0.500000
vt 0.156250 0.500000
vt 0.156250 0.609375
vt 0.140625 0.609375
vt 0.250000 0.859375
vt 0.250000 0.828125
vt 0.281250 0.828125
vt 0.218750 0.500000
vt 0.218750 0.515625
vt 0.156250 0.515625
vt 0.156250 0.500000
vt 0.218750 0.515625
vt 0.218750 0.531250
vt 0.156250 0.531250
vt 0.156250 0.515625
vt 0.218750 0.500000
vt 0.218750 0.515625
vt 0.156250 0.515625
vt 0.156250 0.500000
vt 0.218750 0.515625
vt 0.218750 0.531250
vt 0.156250 0.531250
vt 0.156250 0.515625
vt 0.218750 0.656250
vt 0.250000 0.656250
vt 0.250000 0.671875
vt 0.218750 0.671875
vt 0.203125 0.578125
vt 0.171875 0.578125
vt 0.171875 0.546875
vt 0.203125 0.546875
vt 0.156250 0.593750
vt 0.218750 0.593750
vt 0.125000 0.500000
vt 0.140625 0.500000
vt 0.140625 0.609375
vt 0.125000 0.609375
vt 0.140625 0.500000
vt 0.125000 0.500000
vt 0.125000 0.609375
vt 0.140625 0.609375
vt 0.250000 0.890625
vt 0.218750 0.890625
vt 0.218750 0.859375
vt 0.250000 0.859375
vt 0.218750 0.859375
vt 0.218750 0.890625
vt 0.187500 0.890625
vt 0.187500 0.859375
vt 0.218750 0.859375
vt 0.218750 0.843750
vt 0.187500 0.843750
vt 0.218750 0.859375
vt 0.250000 0.859375
vt 0.250000 0.843750
vt 0.218750 0.843750
vt 0.250000 0.859375
vt 0.250000 0.843750
vt 0.218750 0.843750
vt 0.453125 0.890625
vt 0.453125 0.906250
vt 0.468750 0.890625
vt 0.453125 0.906250
vt 0.453125 0.890625
vt 0.468750 0.890625
vt 0.453125 0.906250
vt 0.453125 0.890625
vt 0.468750 0.890625
vt 0.453125 0.890625
vt 0.453125 0.906250
vt 0.468750 0.890625
vt 0.453125 0.890625
vt 0.453125 0.875000
vt 0.468750 0.875000
vt 0.453125 0.921875
vt 0.468750 0.906250
vt 0.453125 0.890625
vt 0.453125 0.875000
vt 0.468750 0.875000
vt 0.453125 0.921875
vt 0.468750 0.906250
vt 0.453125 0.890625
vt 0.453125 0.906250
vt 0.468750 0.890625
vt 0.453125 0.906250
vt 0.453125 0.890625
vt 0.468750 0.890625
vt 0.453125 0.906250
vt 0.453125 0.890625
vt 0.468750 0.890625
vt 0.453125 0.890625
vt 0.453125 0.906250
vt 0.468750 0.890625
vt 0.453125 0.890625
vt 0.453125 0.875000
vt 0.468750 0.875000
vt 0.453125 0.921875
vt 0.468750 0.906250
vt 0.453125 0.890625
vt 0.453125 0.875000
vt 0.468750 0.875000
vt 0.453125 0.921875
vt 0.468750 0.906250
vt 0.281250 0.875000
vt 0.265625 0.875000
vt 0.281250 0.890625
vt 0.281250 0.859375
vt 0.265625 0.859375
vt 0.250000 0.859375
vt 0.265625 0.859375
vt 0.265625 0.875000
vt 0.250000 0.875000
vt 0.265625 0.859375
vt 0.281250 0.859375
vt 0.281250 0.875000
vt 0.265625 0.875000
vt 0.265625 0.890625
vt 0.296875 0.890625
vt 0.281250 0.859375
vt 0.312500 0.828125
vt 0.250000 0.828125
vt 0.296875 0.875000
vt 0.312500 0.890625
vt 0.312500 0.859375
vt 0.296875 0.859375
vt 0.296875 0.875000
vt 0.312500 0.875000
vt 0.296875 0.859375
vt 0.281250 0.859375
vt 0.281250 0.875000
vt 0.296875 0.890625
vt 0.328125 0.890625
vt 0.171875 0.578125
vt 0.171875 0.546875
vt 0.156250 0.531250
vt 0.156250 0.593750
vt 0.203125 0.578125
vt 0.218750 0.593750
vt 0.203125 0.546875
vt 0.218750 0.531250
vt 0.218750 0.703125
vt 0.234375 0.703125
vt 0.234375 0.687500
vt 0.218750 0.687500
vt 0.218750 0.656250
vt 0.250000 0.656250
vt 0.250000 0.671875
vt 0.218750 0.671875
vt 0.218750 0.656250
vt 0.250000 0.656250
vt 0.250000 0.671875
vt 0.218750 0.671875
vt 0.218750 0.656250
vt 0.250000 0.656250
vt 0.250000 0.671875
vt 0.218750 0.671875
vt 0.242188 0.687500
vt 0.226562 0.687500
vt 0.242188 0.687500
vt 0.226562 0.687500
vt 0.242188 0.687500
vt 0.226562 0.687500
vt 0.242188 0.687500
vt 0.226562 0.687500
vt 0.375000 0.640625
vt 0.375000 0.656250
vt 0.328125 0.656250
vt 0.328125 0.640625
vt 0.343750 0.640625
vt 0.343750 0.656250
vt 0.328125 0.656250
vt 0.328125 0.640625
vt 0.328125 0.656250
vt 0.375000 0.656250
vt 0.375000 0.640625
vt 0.328125 0.656250
vt 0.375000 0.656250
vt 0.328125 0.640625
vt 0.375000 0.640625
vt 0.390625 0.640625
vt 0.375000 0.656250
vt 0.390625 0.640625
vt 0.375000 0.640625
vt 0.375000 0.656250
vt 0.343750 0.656250
vt 0.343750 0.640625
vt 0.343750 0.640625
vt 0.343750 0.656250
vt 0.375000 0.656250
vt 0.375000 0.640625
vt 0.343750 0.656250
vt 0.375000 0.656250
vt 0.390625 0.640625
vt 0.375000 0.640625
vt 0.375000 0.656250
vt 0.390625 0.640625
vt 0.343750 0.640625
vn 0.0000 -1.0000 0.0000
vn -1.0000 0.0000 0.0000
vn 1.0000 0.0000 0.0000
vn -0.0000 0.0000 -1.0000
vn 0.0000 0.0000 1.0000
vn 0.0000 1.0000 0.0000
vn 0.0000 0.7071 0.7071
vn -0.7071 0.7071 0.0000
vn -0.0000 0.7071 -0.7071
vn 0.7071 0.7071 -0.0000
vn 0.7071 0.0000 -0.7071
vn -0.7071 0.0000 0.7071
vn 0.7071 0.0000 0.7071
vn -0.7071 0.0000 -0.7071
vn -0.9487 0.0000 0.3162
vn -0.3162 0.0000 0.9487
vn 0.3162 0.0000 -0.9487
vn 0.9487 0.0000 -0.3162
vn -0.3162 -0.8944 -0.3162
vn -0.3162 0.8944 -0.3162
vn 0.3162 -0.8944 0.3162
vn 0.3162 0.8944 0.3162
vn 0.3162 0.0000 0.9487
vn 0.9487 0.0000 0.3162
vn -0.9487 0.0000 -0.3162
vn -0.3162 0.0000 -0.9487
vn -0.3162 -0.8944 0.3162
vn -0.3162 0.8944 0.3162
vn 0.3162 -0.8944 -0.3162
vn 0.3162 0.8944 -0.3162
vn 0.8944 0.0000 -0.4472
vn 0.0000 0.8944 -0.4472
vn -0.8944 0.0000 -0.4472
vn 0.0000 -0.8944 -0.4472
vn -0.8944 0.0000 0.4472
vn 0.0000 0.8944 0.4472
vn 0.0000 -0.8944 0.4472
vn 0.8944 0.0000 0.4472
vn -0.0000 -0.7071 -0.7071
vn 0.7071 -0.7071 0.0000
vn 0.0000 -0.7071 0.7071
vn -0.7071 -0.7071 0.0000
vn -0.9965 -0.0215 -0.0802
vn 0.0000 -0.2588 -0.9659
vn 0.9965 -0.0215 -0.0802
vn 0.0000 -0.9841 0.1777
vn 0.0000 0.9411 -0.3381
vn -0.7071 0.1830 0.6830
vn 0.0000 -0.5000 0.8660
vn 0.7071 0.1830 0.6830
vn 0.0000 0.8660 0.5000
vn -0.9965 -0.0000 -0.0830
vn 0.9965 0.0000 -0.0830
vn -0.0000 -0.9965 -0.0830
vn 0.0000 0.9965 -0.0830
usemtl MAIN
s off
f 69/1/1 57/2/1 58/3/1 66/4/1
f 1/5/1 4/6/1 70/7/1 73/8/1
f 69/1/2 68/9/2 59/10/2 57/11/2
f 2/12/1 3/13/1 61/14/1 62/15/1
f 58/3/3 60/16/3 67/17/3 66/18/3
f 26/19/4 25/20/4 22/21/4 24/22/4
f 27/23/5 28/24/5 23/25/5 21/26/5
f 68/9/6 67/27/6 60/28/6 59/29/6
f 76/30/5 17/31/5 18/32/5 75/33/5
f 75/34/2 18/35/2 19/36/2 77/37/2
f 77/38/4 19/39/4 20/40/4 78/41/4
f 78/42/3 20/43/3 17/44/3 76/45/3
f 9/46/4 11/47/4 83/48/4 84/49/4
f 16/50/6 12/51/6 10/52/6 14/53/6
f 10/52/7 12/51/7 18/54/7 17/44/7
f 12/51/8 16/50/8 19/55/8 18/54/8
f 16/50/9 14/53/9 20/43/9 19/55/9
f 14/53/10 10/52/10 17/44/10 20/43/10
f 28/56/3 26/57/3 24/58/3 23/59/3
f 25/60/2 27/61/2 21/62/2 22/63/2
f 33/64/1 35/65/1 36/66/1 34/67/1
f 30/68/6 29/69/6 31/70/6 32/71/6
f 32/71/11 31/72/11 36/73/11 35/74/11
f 29/75/12 30/76/12 33/77/12 34/78/12
f 31/79/13 29/75/13 34/78/13 36/80/13
f 30/68/14 32/71/14 35/74/14 33/81/14
f 37/82/15 38/83/15 39/84/15
f 40/85/16 46/86/16 45/87/16
f 39/88/17 42/89/17 41/90/17
f 44/91/18 43/92/18 40/93/18
f 39/94/19 41/95/19 37/96/19
f 39/97/20 38/83/20 42/98/20
f 40/99/21 45/100/21 44/101/21
f 40/102/22 43/92/22 46/103/22
f 47/104/23 48/105/23 49/106/23
f 50/107/24 56/108/24 55/109/24
f 49/110/25 52/111/25 51/112/25
f 54/113/26 53/114/26 50/115/26
f 49/116/27 51/117/27 47/118/27
f 49/119/28 48/105/28 52/120/28
f 50/121/29 55/122/29 54/123/29
f 50/124/30 53/114/30 56/125/30
f 64/126/31 62/127/31 65/128/31
f 7/129/3 2/130/3 62/127/3 64/126/3
f 8/131/6 7/132/6 64/133/6 63/134/6
f 3/135/2 8/136/2 63/137/2 61/138/2
f 63/134/32 64/133/32 65/139/32
f 61/138/33 63/137/33 65/128/33
f 62/15/34 61/14/34 65/140/34
f 58/3/4 57/141/4 59/29/4 60/142/4
f 66/143/5 67/27/5 68/9/5 69/1/5
f 72/144/35 73/8/35 74/145/35
f 4/146/3 5/147/3 71/148/3 70/149/3
f 6/150/2 1/5/2 73/8/2 72/144/2
f 5/147/6 6/151/6 72/152/6 71/148/6
f 71/148/36 72/152/36 74/153/36
f 73/8/37 70/7/37 74/154/37
f 70/149/38 71/148/38 74/145/38
f 11/155/1 9/156/1 76/157/1 75/158/1
f 15/159/1 11/155/1 75/158/1 77/160/1
f 13/161/1 15/159/1 77/160/1 78/162/1
f 9/156/1 13/161/1 78/162/1 76/157/1
f 79/163/1 81/164/1 82/165/1 80/166/1
f 13/167/2 9/168/2 84/169/2 86/170/2
f 11/171/3 15/172/3 85/173/3 83/174/3
f 15/175/5 13/176/5 86/177/5 85/178/5
f 79/179/39 80/180/39 84/49/39 83/48/39
f 81/181/40 79/182/40 83/174/40 85/173/40
f 82/183/41 81/184/41 85/178/41 86/177/41
f 80/185/42 82/186/42 86/170/42 84/169/42
f 87/187/43 88/188/43 90/189/43 89/190/43
f 89/190/44 90/191/44 94/192/44 93/193/44
f 93/194/45 94/195/45 92/196/45 91/197/45
f 89/198/46 93/194/46 91/197/46 87/199/46
f 94/200/47 90/189/47 88/188/47 92/201/47
f 91/202/48 92/201/48 95/203/48
f 92/201/49 88/204/49 95/203/49
f 88/204/50 87/187/50 95/203/50
f 87/187/51 91/202/51 95/203/51
f 96/205/52 97/206/52 102/207/52 101/208/52
f 103/209/53 104/210/53 99/211/53 98/212/53
f 101/213/54 103/209/54 98/212/54 96/214/54
f 98/215/12 99/216/12 100/217/12
f 99/216/41 97/218/41 100/217/41
f 97/218/13 96/205/13 100/217/13
f 96/205/7 98/215/7 100/217/7
f 104/219/55 102/207/55 97/206/55 99/216/55
