# Blender v2.80 (sub 75) OBJ File: 'constructs.blend'
# www.blender.org
mtllib leg_basic_r.mtl
o LEG_RIGHT_BONE_BASIC_Cube.455
v 0.218750 0.654006 0.033494
v 0.156250 0.654006 -0.091506
v 0.218750 0.654006 -0.091506
v 0.156250 0.654006 0.033494
v 0.156250 0.716506 0.033494
v 0.218750 0.716506 0.033494
v 0.156250 0.716506 -0.091506
v 0.218750 0.716506 -0.091506
v 0.062500 -0.000000 0.093750
v 0.125000 0.125000 0.031250
v 0.312500 -0.000000 0.093750
v 0.250000 0.125000 0.031250
v 0.062500 -0.000000 -0.156250
v 0.125000 0.125000 -0.093750
v 0.312500 -0.000000 -0.156250
v 0.250000 0.125000 -0.093750
v 0.062500 0.062500 0.093750
v 0.312500 0.062500 0.093750
v 0.312500 0.062500 -0.156250
v 0.062500 0.062500 -0.156250
v 0.218750 0.625000 0.000000
v 0.218750 0.625000 -0.062500
v 0.156250 0.625000 0.000000
v 0.156250 0.625000 -0.062500
v 0.218750 0.187500 -0.062500
v 0.156250 0.187500 -0.062500
v 0.218750 0.187500 0.000000
v 0.156250 0.187500 0.000000
v 0.187500 0.187500 0.057138
v 0.275888 0.187500 -0.031250
v 0.099112 0.187500 -0.031250
v 0.187500 0.187500 -0.119638
v 0.275888 0.125000 -0.031250
v 0.187500 0.125000 0.057138
v 0.187500 0.125000 -0.119638
v 0.099112 0.125000 -0.031250
v 0.253438 0.125000 -0.052994
v 0.253438 0.187500 -0.052994
v 0.275535 0.156250 -0.119285
v 0.099465 0.156250 0.056785
v 0.209244 0.125000 -0.097188
v 0.209244 0.187500 -0.097188
v 0.121562 0.187500 -0.009506
v 0.121562 0.125000 -0.009506
v 0.165756 0.125000 0.034688
v 0.165756 0.187500 0.034688
v 0.209244 0.125000 0.034688
v 0.209244 0.187500 0.034688
v 0.275535 0.156250 0.056785
v 0.099465 0.156250 -0.119285
v 0.253438 0.125000 -0.009506
v 0.253438 0.187500 -0.009506
v 0.165756 0.187500 -0.097188
v 0.165756 0.125000 -0.097188
v 0.121562 0.125000 -0.052994
v 0.121562 0.187500 -0.052994
v 0.250000 0.622756 -0.091506
v 0.125000 0.622756 -0.091506
v 0.250000 0.747756 -0.091506
v 0.125000 0.747756 -0.091506
v 0.218750 0.654006 -0.122756
v 0.156250 0.654006 -0.122756
v 0.218750 0.716506 -0.122756
v 0.156250 0.716506 -0.122756
v 0.187500 0.685256 -0.185256
v 0.125000 0.622756 0.033494
v 0.125000 0.747756 0.033494
v 0.250000 0.747756 0.033494
v 0.250000 0.622756 0.033494
v 0.156250 0.654006 0.064744
v 0.156250 0.716506 0.064744
v 0.218750 0.716506 0.064744
v 0.218750 0.654006 0.064744
v 0.187500 0.685256 0.127244
vt 0.281250 0.828125
vt 0.281250 0.859375
vt 0.312500 0.859375
vt 0.312500 0.828125
vt 0.312500 0.859375
vt 0.312500 0.875000
vt 0.328125 0.875000
vt 0.328125 0.859375
vt 0.250000 0.828125
vt 0.250000 0.859375
vt 0.281250 0.859375
vt 0.281250 0.859375
vt 0.281250 0.875000
vt 0.296875 0.875000
vt 0.296875 0.859375
vt 0.312500 0.828125
vt 0.281250 0.828125
vt 0.281250 0.859375
vt 0.109375 0.500000
vt 0.109375 0.609375
vt 0.125000 0.609375
vt 0.125000 0.500000
vt 0.140625 0.500000
vt 0.140625 0.609375
vt 0.156250 0.609375
vt 0.156250 0.500000
vt 0.281250 0.828125
vt 0.250000 0.828125
vt 0.250000 0.859375
vt 0.218750 0.500000
vt 0.156250 0.500000
vt 0.156250 0.515625
vt 0.218750 0.515625
vt 0.218750 0.515625
vt 0.156250 0.515625
vt 0.156250 0.531250
vt 0.218750 0.531250
vt 0.218750 0.500000
vt 0.156250 0.500000
vt 0.156250 0.515625
vt 0.218750 0.515625
vt 0.218750 0.515625
vt 0.156250 0.515625
vt 0.156250 0.531250
vt 0.218750 0.531250
vt 0.156250 0.593750
vt 0.156250 0.531250
vt 0.218750 0.531250
vt 0.218750 0.593750
vt 0.203125 0.578125
vt 0.203125 0.546875
vt 0.171875 0.546875
vt 0.171875 0.578125
vt 0.156250 0.593750
vt 0.218750 0.593750
vt 0.125000 0.500000
vt 0.125000 0.609375
vt 0.140625 0.609375
vt 0.140625 0.500000
vt 0.140625 0.500000
vt 0.140625 0.609375
vt 0.125000 0.609375
vt 0.125000 0.500000
vt 0.250000 0.890625
vt 0.250000 0.859375
vt 0.218750 0.859375
vt 0.218750 0.890625
vt 0.218750 0.859375
vt 0.187500 0.859375
vt 0.187500 0.890625
vt 0.218750 0.890625
vt 0.187500 0.843750
vt 0.218750 0.843750
vt 0.218750 0.859375
vt 0.218750 0.859375
vt 0.218750 0.843750
vt 0.250000 0.843750
vt 0.250000 0.859375
vt 0.250000 0.859375
vt 0.250000 0.843750
vt 0.218750 0.843750
vt 0.453125 0.890625
vt 0.468750 0.890625
vt 0.453125 0.906250
vt 0.453125 0.906250
vt 0.468750 0.890625
vt 0.453125 0.890625
vt 0.453125 0.906250
vt 0.468750 0.890625
vt 0.453125 0.890625
vt 0.453125 0.890625
vt 0.468750 0.890625
vt 0.453125 0.906250
vt 0.453125 0.890625
vt 0.468750 0.875000
vt 0.453125 0.875000
vt 0.453125 0.921875
vt 0.468750 0.906250
vt 0.453125 0.890625
vt 0.468750 0.875000
vt 0.453125 0.875000
vt 0.453125 0.921875
vt 0.468750 0.906250
vt 0.453125 0.890625
vt 0.468750 0.890625
vt 0.453125 0.906250
vt 0.453125 0.906250
vt 0.468750 0.890625
vt 0.453125 0.890625
vt 0.453125 0.906250
vt 0.468750 0.890625
vt 0.453125 0.890625
vt 0.453125 0.890625
vt 0.468750 0.890625
vt 0.453125 0.906250
vt 0.453125 0.890625
vt 0.468750 0.875000
vt 0.453125 0.875000
vt 0.453125 0.921875
vt 0.468750 0.906250
vt 0.453125 0.890625
vt 0.468750 0.875000
vt 0.453125 0.875000
vt 0.453125 0.921875
vt 0.468750 0.906250
vt 0.281250 0.875000
vt 0.281250 0.890625
vt 0.265625 0.875000
vt 0.281250 0.859375
vt 0.265625 0.859375
vt 0.250000 0.859375
vt 0.250000 0.875000
vt 0.265625 0.875000
vt 0.265625 0.859375
vt 0.265625 0.859375
vt 0.265625 0.875000
vt 0.281250 0.875000
vt 0.281250 0.859375
vt 0.265625 0.890625
vt 0.296875 0.890625
vt 0.312500 0.828125
vt 0.281250 0.859375
vt 0.250000 0.828125
vt 0.296875 0.875000
vt 0.312500 0.890625
vt 0.312500 0.859375
vt 0.312500 0.875000
vt 0.296875 0.875000
vt 0.296875 0.859375
vt 0.296875 0.859375
vt 0.281250 0.875000
vt 0.281250 0.859375
vt 0.296875 0.890625
vt 0.328125 0.890625
vn 0.0000 -1.0000 0.0000
vn 1.0000 0.0000 0.0000
vn -1.0000 0.0000 0.0000
vn 0.0000 0.0000 -1.0000
vn 0.0000 0.0000 1.0000
vn 0.0000 1.0000 0.0000
vn 0.0000 0.7071 0.7071
vn 0.7071 0.7071 0.0000
vn -0.0000 0.7071 -0.7071
vn -0.7071 0.7071 0.0000
vn -0.7071 0.0000 -0.7071
vn 0.7071 0.0000 0.7071
vn -0.7071 0.0000 0.7071
vn 0.7071 0.0000 -0.7071
vn 0.9487 0.0000 0.3162
vn 0.3162 0.0000 0.9487
vn -0.3162 0.0000 -0.9487
vn -0.9487 0.0000 -0.3162
vn 0.3162 -0.8944 -0.3162
vn 0.3162 0.8944 -0.3162
vn -0.3162 -0.8944 0.3162
vn -0.3162 0.8944 0.3162
vn -0.3162 0.0000 0.9487
vn -0.9487 0.0000 0.3162
vn 0.9487 0.0000 -0.3162
vn 0.3162 0.0000 -0.9487
vn 0.3162 -0.8944 0.3162
vn 0.3162 0.8944 0.3162
vn -0.3162 -0.8944 -0.3162
vn -0.3162 0.8944 -0.3162
vn -0.8944 0.0000 -0.4472
vn 0.0000 0.8944 -0.4472
vn 0.8944 0.0000 -0.4472
vn 0.0000 -0.8944 -0.4472
vn 0.8944 0.0000 0.4472
vn 0.0000 0.8944 0.4472
vn 0.0000 -0.8944 0.4472
vn -0.8944 0.0000 0.4472
usemtl MAIN
s off
f 69/1/1 66/2/1 58/3/1 57/4/1
f 1/5/1 73/6/1 70/7/1 4/8/1
f 69/1/2 57/9/2 59/10/2 68/11/2
f 2/12/1 62/13/1 61/14/1 3/15/1
f 58/3/3 66/16/3 67/17/3 60/18/3
f 26/19/4 24/20/4 22/21/4 25/22/4
f 27/23/5 21/24/5 23/25/5 28/26/5
f 68/11/6 59/27/6 60/28/6 67/29/6
f 9/30/5 11/31/5 18/32/5 17/33/5
f 11/34/2 15/35/2 19/36/2 18/37/2
f 15/38/4 13/39/4 20/40/4 19/41/4
f 13/42/3 9/43/3 17/44/3 20/45/3
f 11/46/1 9/47/1 13/48/1 15/49/1
f 16/50/6 14/51/6 10/52/6 12/53/6
f 10/52/7 17/44/7 18/54/7 12/53/7
f 12/53/8 18/54/8 19/55/8 16/50/8
f 16/50/9 19/55/9 20/45/9 14/51/9
f 14/51/10 20/45/10 17/44/10 10/52/10
f 28/56/3 23/57/3 24/58/3 26/59/3
f 25/60/2 22/61/2 21/62/2 27/63/2
f 33/64/1 34/65/1 36/66/1 35/67/1
f 30/68/6 32/69/6 31/70/6 29/71/6
f 32/69/11 35/72/11 36/73/11 31/74/11
f 29/75/12 34/76/12 33/77/12 30/78/12
f 31/79/13 36/80/13 34/76/13 29/75/13
f 30/68/14 33/81/14 35/72/14 32/69/14
f 37/82/15 39/83/15 38/84/15
f 40/85/16 45/86/16 46/87/16
f 39/88/17 41/89/17 42/90/17
f 44/91/18 40/92/18 43/93/18
f 39/94/19 37/95/19 41/96/19
f 39/97/20 42/98/20 38/84/20
f 40/99/21 44/100/21 45/101/21
f 40/102/22 46/103/22 43/93/22
f 47/104/23 49/105/23 48/106/23
f 50/107/24 55/108/24 56/109/24
f 49/110/25 51/111/25 52/112/25
f 54/113/26 50/114/26 53/115/26
f 49/116/27 47/117/27 51/118/27
f 49/119/28 52/120/28 48/106/28
f 50/121/29 54/122/29 55/123/29
f 50/124/30 56/125/30 53/115/30
f 64/126/31 65/127/31 62/128/31
f 7/129/3 64/126/3 62/128/3 2/130/3
f 8/131/6 63/132/6 64/133/6 7/134/6
f 3/135/2 61/136/2 63/137/2 8/138/2
f 63/132/32 65/139/32 64/133/32
f 61/136/33 65/127/33 63/137/33
f 62/13/34 65/140/34 61/14/34
f 58/3/4 60/141/4 59/27/4 57/142/4
f 66/143/5 69/1/5 68/11/5 67/29/5
f 72/144/35 74/145/35 73/6/35
f 4/146/3 70/147/3 71/148/3 5/149/3
f 6/150/2 72/144/2 73/6/2 1/5/2
f 5/149/6 71/148/6 72/151/6 6/152/6
f 71/148/36 74/153/36 72/151/36
f 73/6/37 74/154/37 70/7/37
f 70/147/38 74/145/38 71/148/38
