# Blender v2.80 (sub 75) OBJ File: 'constructs.blend'
# www.blender.org
mtllib leg_ender_back_l.mtl
o LEG_ENDER_BONE_LEFTBACK_Cube.459
v -0.218750 0.582312 0.244691
v -0.218750 0.707312 0.028185
v -0.281250 0.582312 0.244691
v -0.281250 0.707312 0.028185
v -0.218750 0.636438 0.275941
v -0.218750 0.761438 0.059435
v -0.281250 0.636438 0.275941
v -0.281250 0.761438 0.059435
v -0.187500 0.648998 0.066687
v -0.312500 0.648998 0.066687
v -0.312500 0.757252 0.129187
v -0.187500 0.757252 0.129187
v -0.218750 0.664046 0.183026
v -0.281250 0.664046 0.183026
v -0.281250 0.681725 0.242973
v -0.218750 0.681725 0.242973
v -0.218750 0.064572 0.359821
v -0.218750 0.082252 0.419769
v -0.281250 0.082252 0.419769
v -0.281250 0.064572 0.359821
v -0.250000 0.000362 0.411338
v -0.312500 0.694752 0.237440
v -0.312500 0.586498 0.174940
v -0.187500 0.586498 0.174940
v -0.187500 0.694752 0.237440
v -0.281250 0.741627 0.156250
v -0.218750 0.741627 0.156250
v -0.281250 0.710377 0.210377
v -0.218750 0.710377 0.210377
v -0.281250 0.768690 0.171875
v -0.281250 0.737440 0.226002
v -0.218750 0.737440 0.226002
v -0.218750 0.768690 0.171875
v -0.250000 0.807191 0.230188
vt 0.515625 0.671875
vt 0.515625 0.703125
vt 0.546875 0.703125
vt 0.546875 0.671875
vt 0.515625 0.734375
vt 0.546875 0.734375
vt 0.515625 0.765625
vt 0.546875 0.765625
vt 0.515625 0.734375
vt 0.515625 0.703125
vt 0.546875 0.703125
vt 0.546875 0.734375
vt 0.562500 0.765625
vt 0.562500 0.750000
vt 0.578125 0.750000
vt 0.578125 0.765625
vt 0.562500 0.750000
vt 0.578125 0.750000
vt 0.578125 0.734375
vt 0.562500 0.734375
vt 0.562500 0.679688
vt 0.562500 0.695312
vt 0.562500 0.710938
vt 0.562500 0.726562
vt 0.562500 0.742188
vt 0.562500 0.757812
vt 0.562500 0.726562
vt 0.562500 0.710938
vt 0.468750 0.640625
vt 0.453125 0.640625
vt 0.453125 0.546875
vt 0.468750 0.546875
vt 0.484375 0.546875
vt 0.468750 0.531250
vt 0.468750 0.546875
vt 0.468750 0.640625
vt 0.484375 0.640625
vt 0.484375 0.546875
vt 0.468750 0.546875
vt 0.453125 0.640625
vt 0.453125 0.546875
vt 0.484375 0.640625
vt 0.468750 0.640625
vt 0.468750 0.546875
vt 0.484375 0.546875
vt 0.484375 0.546875
vt 0.453125 0.531250
vt 0.500000 0.726562
vt 0.500000 0.710938
vt 0.500000 0.695312
vt 0.500000 0.679688
vt 0.500000 0.757812
vt 0.500000 0.742188
vt 0.500000 0.710938
vt 0.500000 0.726562
vt 0.484375 0.515625
vt 0.484375 0.531250
vt 0.468750 0.515625
vt 0.484375 0.500000
vt 0.468750 0.500000
vt 0.453125 0.500000
vt 0.453125 0.515625
vt 0.468750 0.515625
vt 0.468750 0.500000
vt 0.453125 0.515625
vt 0.453125 0.500000
vt 0.468750 0.500000
vt 0.468750 0.515625
vt 0.484375 0.515625
vt 0.484375 0.500000
vt 0.468750 0.531250
vn -0.0000 -0.8660 -0.5000
vn -1.0000 0.0000 0.0000
vn 0.0000 0.8660 0.5000
vn 1.0000 0.0000 0.0000
vn 0.0000 -0.5000 0.8660
vn -0.0000 0.5000 -0.8660
vn -0.0000 -0.5510 -0.8345
vn -0.8944 0.2236 -0.3873
vn 0.0000 0.9982 0.0599
vn 0.8944 0.2236 -0.3873
vn 0.0000 -0.1024 0.9947
vn 0.0000 -0.2829 -0.9592
vn 0.0000 0.2829 0.9592
vn 0.0000 -0.6258 -0.7800
vn 0.9251 -0.3641 0.1074
vn -0.9251 -0.3641 0.1074
vn -0.8944 -0.2236 0.3873
vn -0.0000 -0.9982 -0.0599
vn 0.0000 0.5510 0.8345
vn 0.8944 -0.2236 0.3873
vn 0.0000 0.8345 -0.5510
vn -0.8944 0.3873 0.2236
vn 0.8944 0.3873 0.2236
vn 0.0000 -0.0599 0.9982
usemtl MAIN
s off
f 24/1/1 23/2/1 10/3/1 9/4/1
f 23/2/2 22/5/2 11/6/2 10/3/2
f 22/5/3 25/7/3 12/8/3 11/6/3
f 25/9/4 24/10/4 9/11/4 12/12/4
f 3/13/5 1/14/5 5/15/5 7/16/5
f 8/17/6 6/18/6 2/19/6 4/20/6
f 2/21/7 9/4/7 10/3/7 4/22/7
f 4/23/8 10/3/8 11/6/8 8/24/8
f 8/25/9 11/6/9 12/8/9 6/26/9
f 6/27/10 12/12/10 9/11/10 2/28/10
f 13/29/4 16/30/4 18/31/4 17/32/4
f 19/33/11 21/34/11 18/35/11
f 14/36/12 13/37/12 17/38/12 20/39/12
f 15/40/2 14/36/2 20/39/2 19/41/2
f 16/42/13 15/43/13 19/44/13 18/45/13
f 17/32/14 21/34/14 20/46/14
f 18/31/15 21/47/15 17/32/15
f 20/39/16 21/47/16 19/41/16
f 7/48/17 22/5/17 23/2/17 3/49/17
f 3/50/18 23/2/18 24/1/18 1/51/18
f 5/52/19 25/7/19 22/5/19 7/53/19
f 1/54/20 24/10/20 25/9/20 5/55/20
f 30/56/21 34/57/21 33/58/21
f 26/59/6 30/56/6 33/58/6 27/60/6
f 28/61/2 31/62/2 30/63/2 26/64/2
f 27/60/4 33/58/4 32/65/4 29/66/4
f 29/67/5 32/68/5 31/69/5 28/70/5
f 31/62/22 34/71/22 30/63/22
f 33/58/23 34/71/23 32/65/23
f 32/68/24 34/57/24 31/69/24
