# Blender v2.80 (sub 75) OBJ File: 'constructs.blend'
# www.blender.org
mtllib pelvis_ender.mtl
o LEG_BONE_ENDER_PELVIS_Cube.434
v -0.062500 0.625000 0.125000
v -0.062500 0.750000 0.125000
v -0.187500 0.625000 0.125000
v -0.187500 0.750000 0.125000
v -0.062500 0.625000 -0.125000
v -0.062500 0.750000 -0.125000
v -0.187500 0.625000 -0.125000
v -0.187500 0.750000 -0.125000
v -0.187500 0.687500 -0.187500
v -0.062500 0.687500 0.187500
v -0.062500 0.687500 -0.187500
v -0.187500 0.687500 0.187500
v 0.062500 0.625000 0.125000
v 0.062500 0.750000 0.125000
v 0.187500 0.625000 0.125000
v 0.187500 0.750000 0.125000
v 0.062500 0.625000 -0.125000
v 0.062500 0.750000 -0.125000
v 0.187500 0.625000 -0.125000
v 0.187500 0.750000 -0.125000
v 0.187500 0.687500 -0.187500
v 0.062500 0.687500 0.187500
v 0.062500 0.687500 -0.187500
v 0.187500 0.687500 0.187500
v -0.187500 0.625000 0.000000
v -0.187500 0.750000 0.000000
v -0.062500 0.625000 0.000000
v -0.062500 0.750000 0.000000
v 0.187500 0.625000 -0.000000
v 0.187500 0.750000 -0.000000
v 0.062500 0.625000 -0.000000
v 0.062500 0.750000 -0.000000
vt 0.468750 0.656250
vt 0.500000 0.656250
vt 0.484375 0.640625
vt 0.500000 0.687500
vt 0.468750 0.687500
vt 0.468750 0.656250
vt 0.500000 0.656250
vt 0.468750 0.718750
vt 0.500000 0.718750
vt 0.500000 0.734375
vt 0.468750 0.734375
vt 0.500000 0.687500
vt 0.468750 0.687500
vt 0.468750 0.656250
vt 0.500000 0.656250
vt 0.468750 0.687500
vt 0.468750 0.718750
vt 0.500000 0.718750
vt 0.468750 0.718750
vt 0.500000 0.718750
vt 0.500000 0.687500
vt 0.484375 0.640625
vt 0.468750 0.656250
vt 0.500000 0.656250
vt 0.484375 0.640625
vt 0.484375 0.640625
vt 0.468750 0.734375
vt 0.500000 0.734375
vt 0.468750 0.718750
vt 0.500000 0.718750
vt 0.468750 0.656250
vt 0.484375 0.640625
vt 0.500000 0.656250
vt 0.500000 0.687500
vt 0.500000 0.656250
vt 0.468750 0.656250
vt 0.468750 0.687500
vt 0.468750 0.718750
vt 0.468750 0.734375
vt 0.500000 0.734375
vt 0.500000 0.718750
vt 0.500000 0.687500
vt 0.500000 0.656250
vt 0.468750 0.656250
vt 0.468750 0.687500
vt 0.468750 0.687500
vt 0.500000 0.718750
vt 0.468750 0.718750
vt 0.500000 0.687500
vt 0.500000 0.718750
vt 0.468750 0.718750
vt 0.484375 0.640625
vt 0.468750 0.656250
vt 0.484375 0.640625
vt 0.500000 0.656250
vt 0.484375 0.640625
vt 0.500000 0.734375
vt 0.468750 0.734375
vt 0.468750 0.718750
vt 0.500000 0.718750
vn -1.0000 0.0000 0.0000
vn -0.0000 0.7071 -0.7071
vn 1.0000 0.0000 -0.0000
vn 0.0000 -1.0000 0.0000
vn 0.0000 1.0000 0.0000
vn -0.0000 -0.7071 -0.7071
vn 0.0000 0.7071 0.7071
vn 0.0000 -0.7071 0.7071
usemtl MAIN
s off
f 4/1/1 3/2/1 12/3/1
f 25/4/1 26/5/1 8/6/1 7/7/1
f 8/8/2 6/9/2 11/10/2 9/11/2
f 27/12/3 28/13/3 2/14/3 1/15/3
f 25/16/4 7/17/4 5/18/4 27/12/4
f 26/5/5 4/19/5 2/20/5 28/21/5
f 7/7/1 8/6/1 9/22/1
f 6/23/3 5/24/3 11/25/3
f 5/18/6 7/17/6 9/11/6 11/10/6
f 1/15/3 2/14/3 10/26/3
f 2/20/7 4/19/7 12/27/7 10/28/7
f 3/29/8 1/30/8 10/28/8 12/27/8
f 16/31/3 24/32/3 15/33/3
f 29/34/3 19/35/3 20/36/3 30/37/3
f 20/38/2 21/39/2 23/40/2 18/41/2
f 31/42/1 13/43/1 14/44/1 32/45/1
f 29/46/4 31/42/4 17/47/4 19/48/4
f 30/37/5 32/49/5 14/50/5 16/51/5
f 19/35/3 21/52/3 20/36/3
f 18/53/1 23/54/1 17/55/1
f 17/47/6 23/40/6 21/39/6 19/48/6
f 13/43/1 22/56/1 14/44/1
f 14/50/7 22/57/7 24/58/7 16/51/7
f 15/59/8 24/58/8 22/57/8 13/60/8
f 8/8/5 26/5/5 28/21/5 6/9/5
f 3/29/4 25/16/4 27/12/4 1/30/4
f 5/24/3 6/23/3 28/13/3 27/12/3
f 3/2/1 4/1/1 26/5/1 25/4/1
f 20/38/5 18/41/5 32/49/5 30/37/5
f 15/59/4 13/60/4 31/42/4 29/46/4
f 17/55/1 31/42/1 32/45/1 18/53/1
f 15/33/3 29/34/3 30/37/3 16/31/3
