# Blender v2.83.5 OBJ File: 'seer_stone.blend'
# www.blender.org
mtllib seer_stone_inventory.mtl
o Base_Cube
v 0.937500 0.062500 1.000000
v 0.937500 0.125000 0.937500
v 0.937500 0.000000 1.000000
v 1.000000 0.000000 0.500000
v 1.000000 0.062500 0.500000
v 0.937500 0.000000 0.937500
v 0.937500 0.125000 0.500000
v 0.937500 0.000000 0.500000
v 1.000000 0.000000 0.937500
v 1.000000 0.062500 0.937500
v 0.500000 0.125000 0.500000
v 0.500000 0.000000 1.000000
v 0.500000 0.125000 0.937500
v 0.500000 0.000000 0.937500
v 0.500000 0.062500 1.000000
v 1.000000 0.062500 0.062500
v 0.937500 0.125000 0.062500
v 1.000000 0.000000 0.062500
v 0.937500 0.000000 0.062500
v 0.500000 0.000000 0.062500
v 0.937500 0.000000 0.000000
v 0.937500 0.062500 0.000000
v 0.062500 0.062500 0.000000
v 0.062500 0.125000 0.062500
v 0.062500 0.000000 0.000000
v 0.000000 0.000000 0.500000
v 0.062500 0.000000 0.062500
v 0.062500 0.000000 0.500000
v 0.000000 0.000000 0.062500
v 0.000000 0.062500 0.062500
v 0.500000 0.000000 0.000000
v 0.500000 0.000000 0.500000
v 0.500000 0.125000 0.062500
v 0.500000 0.062500 0.000000
v 0.000000 0.062500 0.937500
v 0.062500 0.125000 0.937500
v 0.000000 0.000000 0.937500
v 0.062500 0.000000 0.937500
v 0.062500 0.000000 1.000000
v 0.062500 0.062500 1.000000
v 0.062500 0.125000 0.500000
v 0.000000 0.062500 0.500000
vt 0.562500 0.062500
vt 0.562500 0.000000
vt 0.500000 0.000000
vt 1.000000 -0.000000
vt 1.000000 0.062500
vt 0.062500 0.062500
vt 0.062500 0.125000
vt 0.000000 0.062500
vt 0.500000 0.000000
vt 0.500000 0.062500
vt 0.062500 0.000000
vt 0.562500 0.125000
vt 1.000000 0.125000
vt 1.000000 0.562500
vt 0.562500 0.562500
vt 0.500000 0.125000
vt 0.562500 0.125000
vt 0.562500 0.062500
vt 1.000000 0.062500
vt 1.000000 0.125000
vt 0.000000 0.000000
vt 0.437500 0.125000
vt 0.437500 0.187500
vt 0.000000 0.187500
vt 0.000000 0.125000
vt 0.562500 1.000000
vt 0.562500 0.562500
vt 1.000000 0.562500
vt 1.000000 1.000000
vt 0.437500 0.250000
vt 0.000000 0.250000
vt 0.562500 0.062500
vt 0.562500 0.000000
vt 0.500000 0.000000
vt 1.000000 -0.000000
vt 1.000000 0.062500
vt 0.062500 0.062500
vt 0.062500 0.125000
vt 0.000000 0.062500
vt 0.500000 0.000000
vt 0.500000 0.062500
vt 0.062500 0.000000
vt 1.000000 0.125000
vt 1.000000 0.562500
vt 0.562500 0.562500
vt 0.500000 0.125000
vt 0.562500 0.125000
vt 0.562500 0.062500
vt 1.000000 0.062500
vt 1.000000 0.125000
vt 0.000000 0.000000
vt 0.437500 0.125000
vt 0.437500 0.187500
vt 0.000000 0.187500
vt 0.000000 0.125000
vt 0.562500 1.000000
vt 1.000000 0.562500
vt 1.000000 1.000000
vt 0.437500 0.250000
vt 0.000000 0.250000
vt 0.562500 0.062500
vt 0.562500 0.000000
vt 0.500000 0.000000
vt 1.000000 -0.000000
vt 1.000000 0.062500
vt 0.062500 0.062500
vt 0.062500 0.125000
vt 0.000000 0.062500
vt 0.500000 0.000000
vt 0.500000 0.062500
vt 0.062500 0.000000
vt 1.000000 0.125000
vt 1.000000 0.562500
vt 0.562500 0.562500
vt 0.500000 0.125000
vt 0.562500 0.125000
vt 0.562500 0.062500
vt 1.000000 0.062500
vt 1.000000 0.125000
vt 0.000000 0.000000
vt 0.437500 0.125000
vt 0.437500 0.187500
vt 0.000000 0.187500
vt 0.000000 0.125000
vt 0.562500 1.000000
vt 1.000000 0.562500
vt 1.000000 1.000000
vt 0.437500 0.250000
vt 0.000000 0.250000
vt 0.562500 0.062500
vt 0.562500 0.000000
vt 0.500000 0.000000
vt 1.000000 -0.000000
vt 1.000000 0.062500
vt 0.062500 0.062500
vt 0.062500 0.125000
vt 0.000000 0.062500
vt 0.500000 0.000000
vt 0.500000 0.062500
vt 0.062500 0.000000
vt 1.000000 0.125000
vt 1.000000 0.562500
vt 0.562500 0.562500
vt 0.500000 0.125000
vt 0.562500 0.125000
vt 0.562500 0.062500
vt 1.000000 0.062500
vt 1.000000 0.125000
vt 0.000000 0.000000
vt 0.437500 0.125000
vt 0.437500 0.187500
vt 0.000000 0.187500
vt 0.000000 0.125000
vt 0.562500 1.000000
vt 1.000000 0.562500
vt 1.000000 1.000000
vt 0.437500 0.250000
vt 0.000000 0.250000
vn 0.0000 -1.0000 0.0000
vn 0.5774 0.5774 0.5774
vn 1.0000 0.0000 0.0000
vn 0.7071 0.7071 0.0000
vn 0.7071 0.0000 0.7071
vn 0.0000 0.0000 1.0000
vn 0.0000 1.0000 0.0000
vn 0.0000 0.7071 0.7071
vn 0.5774 0.5774 -0.5774
vn 0.0000 0.0000 -1.0000
vn 0.0000 0.7071 -0.7071
vn 0.7071 0.0000 -0.7071
vn -0.5774 0.5774 -0.5774
vn -1.0000 0.0000 0.0000
vn -0.7071 0.7071 0.0000
vn -0.7071 0.0000 -0.7071
vn -0.5774 0.5774 0.5774
vn -0.7071 0.0000 0.7071
usemtl MAIN
s off
f 3/1/1 6/2/1 9/3/1
f 14/4/1 6/2/1 3/1/1 12/5/1
f 10/6/2 2/7/2 1/8/2
f 4/9/3 5/10/3 10/6/3 9/11/3
f 32/12/1 8/13/1 6/14/1 14/15/1
f 5/10/4 7/16/4 2/7/4 10/6/4
f 8/17/1 4/18/1 9/19/1 6/20/1
f 9/11/5 10/6/5 1/8/5 3/21/5
f 3/22/6 1/23/6 15/24/6 12/25/6
f 7/26/7 11/27/7 13/28/7 2/29/7
f 1/23/8 2/30/8 13/31/8 15/24/8
f 18/32/1 19/33/1 21/34/1
f 8/35/1 19/33/1 18/32/1 4/36/1
f 22/37/9 17/38/9 16/39/9
f 31/40/10 34/41/10 22/37/10 21/42/10
f 32/12/1 20/43/1 19/44/1 8/45/1
f 34/41/11 33/46/11 17/38/11 22/37/11
f 20/47/1 31/48/1 21/49/1 19/50/1
f 21/42/12 22/37/12 16/39/12 18/51/12
f 18/52/3 16/53/3 5/54/3 4/55/3
f 33/56/7 11/27/7 7/57/7 17/58/7
f 16/53/4 17/59/4 7/60/4 5/54/4
f 25/61/1 27/62/1 29/63/1
f 20/64/1 27/62/1 25/61/1 31/65/1
f 30/66/13 24/67/13 23/68/13
f 26/69/14 42/70/14 30/66/14 29/71/14
f 32/12/1 28/72/1 27/73/1 20/74/1
f 42/70/15 41/75/15 24/67/15 30/66/15
f 28/76/1 26/77/1 29/78/1 27/79/1
f 29/71/16 30/66/16 23/68/16 25/80/16
f 25/81/10 23/82/10 34/83/10 31/84/10
f 41/85/7 11/27/7 33/86/7 24/87/7
f 23/82/11 24/88/11 33/89/11 34/83/11
f 37/90/1 38/91/1 39/92/1
f 28/93/1 38/91/1 37/90/1 26/94/1
f 40/95/17 36/96/17 35/97/17
f 12/98/6 15/99/6 40/95/6 39/100/6
f 32/12/1 14/101/1 38/102/1 28/103/1
f 15/99/8 13/104/8 36/96/8 40/95/8
f 14/105/1 12/106/1 39/107/1 38/108/1
f 39/100/18 40/95/18 35/97/18 37/109/18
f 37/110/14 35/111/14 42/112/14 26/113/14
f 13/114/7 11/27/7 41/115/7 36/116/7
f 35/111/15 36/117/15 41/118/15 42/112/15
o Crystal_Cube.001
v 0.500000 0.250000 0.500000
v 0.500000 0.843750 0.500000
v 0.375000 0.437500 0.625000
v 0.375000 0.437500 0.375000
v 0.625000 0.437500 0.375000
v 0.625000 0.437500 0.625000
v 0.625000 0.468750 0.375000
v 0.375000 0.468750 0.375000
v 0.375000 0.468750 0.625000
v 0.625000 0.468750 0.625000
vt 0.250000 0.625000
vt 0.125000 1.000000
vt 0.000000 0.625000
vt 0.125000 0.375000
vt 0.250000 0.562500
vt 0.000000 0.562500
vt 0.250000 0.625000
vt 0.375000 1.000000
vt 0.500000 0.625000
vt 0.250000 0.625000
vt 0.500000 0.625000
vt 0.375000 0.375000
vt 0.250000 0.562500
vt 0.500000 0.562500
vt 0.250000 0.562500
vt 0.500000 0.562500
vt 0.250000 0.562500
vt 0.000000 0.562500
vt 0.250000 0.625000
vt 0.000000 0.625000
vn 0.0000 0.3162 -0.9487
vn 0.0000 -0.5547 0.8321
vn 0.9487 0.3162 0.0000
vn -0.9487 0.3162 0.0000
vn 0.8321 -0.5547 0.0000
vn -0.8321 -0.5547 0.0000
vn 0.0000 -0.5547 -0.8321
vn 0.0000 0.3162 0.9487
usemtl MAIN
s off
f 50/119/19 44/120/19 49/121/19
f 43/122/20 48/123/20 45/124/20
f 49/125/21 44/126/21 52/127/21
f 51/128/22 44/126/22 50/129/22
f 43/130/23 47/131/23 48/132/23
f 43/130/24 45/133/24 46/134/24
f 43/122/25 46/135/25 47/136/25
f 52/137/26 44/120/26 51/138/26
o Band_Cube.003
v 0.375000 0.437500 0.625000
v 0.375000 0.437500 0.375000
v 0.625000 0.437500 0.375000
v 0.625000 0.437500 0.625000
v 0.625000 0.468750 0.375000
v 0.375000 0.468750 0.375000
v 0.375000 0.468750 0.625000
v 0.625000 0.468750 0.625000
vt 0.500000 0.625000
vt 0.500000 0.562500
vt 0.250000 0.562500
vt 0.250000 0.625000
vt 0.250000 0.562500
vt 0.250000 0.625000
vt 0.000000 0.625000
vt 0.000000 0.562500
vt 0.250000 0.625000
vt 0.500000 0.625000
vt 0.500000 0.562500
vt 0.250000 0.562500
vt 0.250000 0.625000
vt 0.000000 0.625000
vt 0.000000 0.562500
vt 0.250000 0.562500
vn 1.0000 0.0000 0.0000
vn 0.0000 0.0000 1.0000
vn -1.0000 0.0000 0.0000
vn 0.0000 0.0000 -1.0000
usemtl MAIN
s off
f 60/139/27 56/140/27 55/141/27 57/142/27
f 56/143/28 60/144/28 59/145/28 53/146/28
f 59/147/29 58/148/29 54/149/29 53/150/29
f 58/151/30 57/152/30 55/153/30 54/154/30
