# Blender v2.80 (sub 75) OBJ File: 'conjured_workbench.blend'
# www.blender.org
mtllib conjured_stonecutter.mtl
o STONECUTTER_Cube.007
v -0.155765 0.937500 -0.343750
v -0.093265 0.937500 -0.343750
v 0.094235 0.937500 -0.343750
v 0.156735 0.937500 -0.343750
v -0.155765 0.937500 0.343750
v -0.093265 0.937500 0.343750
v 0.094235 0.937500 0.343750
v 0.156735 0.937500 0.343750
v 0.156735 0.875000 -0.343750
v 0.094235 0.875000 -0.343750
v -0.093265 0.875000 -0.343750
v -0.155765 0.875000 -0.343750
v 0.156735 0.875000 0.343750
v 0.094235 0.875000 0.343750
v -0.093265 0.875000 0.343750
v -0.155765 0.875000 0.343750
v 0.094235 0.875000 0.406250
v 0.094235 0.937500 0.406250
v -0.093265 0.875000 0.406250
v -0.093265 0.937500 0.406250
v 0.094235 0.937500 -0.406250
v -0.093265 0.937500 -0.406250
v -0.093265 0.875000 -0.406250
v 0.094235 0.875000 -0.406250
vt 0.750000 0.750000
vt 0.750000 0.062500
vt 0.687500 0.062500
vt 0.687500 0.750000
vt 0.937500 0.750000
vt 0.937500 0.062500
vt 1.000000 0.062500
vt 1.000000 0.750000
vt 0.875000 0.750000
vt 0.875000 0.062500
vt 0.750000 0.062500
vt 0.812500 0.062500
vt 0.812500 0.750000
vt 0.750000 0.750000
vt 0.875000 0.062500
vt 0.937500 0.062500
vt 0.937500 0.750000
vt 0.875000 0.750000
vt 0.937500 0.000000
vt 0.687500 0.750000
vt 0.687500 0.062500
vt 1.000000 0.750000
vt 1.000000 0.062500
vt 0.937500 0.062500
vt 0.937500 0.750000
vt 0.750000 0.750000
vt 0.750000 0.062500
vt 0.812500 0.062500
vt 0.812500 0.750000
vt 0.937500 0.750000
vt 0.937500 0.687500
vt 0.750000 0.687500
vt 0.750000 0.750000
vt 0.750000 0.062500
vt 0.937500 0.062500
vt 0.937500 0.125000
vt 0.750000 0.125000
vt 0.937500 0.000000
vt 0.750000 0.000000
vt 0.750000 0.125000
vt 0.750000 0.062500
vt 0.937500 0.062500
vt 0.937500 0.125000
vt 0.750000 0.000000
vt 0.937500 0.812500
vt 0.750000 0.812500
vt 0.750000 0.812500
vt 0.937500 0.812500
vt 0.750000 0.687500
vt 0.937500 0.687500
vt 0.750000 0.125000
vt 0.812500 0.062500
vt 0.812500 0.125000
vt 0.937500 0.125000
vt 0.875000 0.125000
vt 0.875000 0.062500
vt 0.937500 0.687500
vt 0.937500 0.750000
vt 0.875000 0.750000
vt 0.875000 0.687500
vt 0.750000 0.750000
vt 0.812500 0.750000
vt 0.812500 0.687500
vt 0.750000 0.687500
vn 0.0000 -1.0000 0.0000
vn 0.0000 1.0000 0.0000
vn -1.0000 0.0000 0.0000
vn 1.0000 0.0000 0.0000
vn 0.0000 0.0000 -1.0000
vn 0.0000 0.0000 1.0000
vn -0.7071 0.0000 0.7071
vn 0.7071 0.0000 0.7071
vn 0.7071 0.0000 -0.7071
vn -0.7071 0.0000 -0.7071
usemtl MAIN
s off
f 11/1/1 15/2/1 16/3/1 12/4/1
f 3/5/2 7/6/2 8/7/2 4/8/2
f 10/9/3 14/10/3 7/6/3 3/5/3
f 6/11/4 15/12/4 11/13/4 2/14/4
f 8/15/4 13/16/4 9/17/4 4/18/4
f 7/6/2 18/19/2 8/7/2
f 1/20/2 5/21/2 6/11/2 2/14/2
f 9/22/1 13/23/1 14/24/1 10/25/1
f 12/26/3 16/27/3 5/28/3 1/29/3
f 21/30/5 24/31/5 23/32/5 22/33/5
f 18/34/6 20/35/6 19/36/6 17/37/6
f 14/24/1 17/38/1 19/39/1 15/2/1
f 7/40/5 14/41/5 15/42/5 6/43/5
f 6/11/2 20/44/2 18/19/2 7/6/2
f 3/5/2 21/45/2 22/46/2 2/14/2
f 14/24/1 13/23/1 17/38/1
f 11/1/1 23/47/1 24/48/1 10/25/1
f 2/49/6 11/1/6 10/25/6 3/50/6
f 6/11/2 5/21/2 20/44/2
f 16/3/1 15/2/1 19/39/1
f 5/51/7 16/27/7 19/52/7 20/53/7
f 8/54/8 18/55/8 17/56/8 13/16/8
f 12/4/1 23/47/1 11/1/1
f 2/14/2 22/46/2 1/20/2
f 3/5/2 4/8/2 21/45/2
f 10/25/1 24/48/1 9/22/1
f 9/57/9 24/58/9 21/59/9 4/60/9
f 1/61/10 22/62/10 23/63/10 12/64/10
