# Blender v2.80 (sub 75) OBJ File: 'conjured_workbench.blend'
# www.blender.org
mtllib conjured_floaty_top.mtl
o FLOATY_TOP_Cube.004
v -0.281250 0.687500 0.281250
v 0.281250 0.687500 0.281250
v -0.281250 0.687500 -0.281250
v 0.281250 0.687500 -0.281250
v 0.218750 0.687500 0.218750
v -0.218750 0.687500 0.218750
v 0.218750 0.687500 -0.218750
v -0.218750 0.687500 -0.218750
v -0.281250 0.687500 0.281250
v 0.281250 0.687500 0.281250
v -0.281250 0.687500 -0.281250
v 0.281250 0.687500 -0.281250
v 0.218750 0.687500 0.218750
v -0.218750 0.687500 0.218750
v 0.218750 0.687500 -0.218750
v -0.218750 0.687500 -0.218750
vt 0.500000 0.062500
vt 0.562500 0.000000
vt 0.000000 0.000000
vt 0.062500 0.062500
vt 0.000000 0.000000
vt 0.062500 0.062500
vt 0.500000 0.062500
vt 0.562500 0.000000
vt 0.500000 0.062500
vt 0.062500 0.062500
vt 0.000000 0.000000
vt 0.562500 0.000000
vt 0.000000 0.000000
vt 0.562500 0.000000
vt 0.500000 0.062500
vt 0.062500 0.062500
vn 0.0000 1.0000 0.0000
vn 0.0000 -1.0000 0.0000
usemtl MAIN
s off
f 5/1/1 2/2/1 4/3/1 7/4/1
f 1/5/1 6/6/1 8/7/1 3/8/1
f 1/5/1 2/2/1 5/1/1 6/6/1
f 8/7/1 7/4/1 4/3/1 3/8/1
f 13/9/2 15/10/2 12/11/2 10/12/2
f 9/13/2 11/14/2 16/15/2 14/16/2
f 9/13/2 14/16/2 13/9/2 10/12/2
f 16/15/2 11/14/2 12/11/2 15/10/2
