# Blender v2.80 (sub 75) OBJ File: 'conjured_workbench.blend'
# www.blender.org
mtllib conjured_anvil.mtl
o ANVIL_Cube.003
v -0.343750 0.937500 0.125000
v -0.343750 0.937500 -0.125000
v 0.593750 0.937500 -0.062500
v 0.593750 0.937500 0.062500
v -0.281250 0.937500 -0.187500
v 0.281250 0.937500 -0.187500
v 0.343750 0.937500 -0.187500
v -0.281250 0.937500 -0.125000
v 0.281250 0.937500 -0.125000
v 0.343750 0.937500 -0.125000
v 0.531250 0.937500 -0.125000
v 0.281250 0.937500 -0.062500
v 0.343750 0.937500 -0.062500
v 0.531250 0.937500 -0.062500
v 0.343750 0.875000 0.187500
v 0.281250 0.875000 0.187500
v 0.281250 0.937500 0.062500
v 0.343750 0.937500 0.062500
v -0.281250 0.875000 0.187500
v 0.531250 0.875000 0.125000
v 0.531250 0.937500 0.062500
v -0.281250 0.937500 0.125000
v 0.343750 0.875000 0.125000
v 0.281250 0.875000 0.125000
v -0.281250 0.875000 0.125000
v 0.343750 0.875000 0.062500
v 0.281250 0.875000 0.062500
v 0.343750 0.875000 -0.062500
v 0.281250 0.875000 -0.062500
v 0.343750 0.875000 -0.125000
v 0.281250 0.875000 -0.125000
v 0.281250 0.937500 0.125000
v 0.343750 0.937500 0.125000
v -0.281250 0.875000 -0.125000
v 0.343750 0.875000 -0.187500
v 0.531250 0.937500 0.125000
v -0.281250 0.937500 0.187500
v 0.281250 0.875000 -0.187500
v -0.281250 0.875000 -0.187500
v 0.593750 0.875000 0.062500
v 0.531250 0.875000 0.062500
v 0.531250 0.875000 -0.125000
v 0.593750 0.875000 -0.062500
v 0.531250 0.875000 -0.062500
v -0.343750 0.875000 -0.125000
v -0.343750 0.875000 0.125000
v 0.281250 0.937500 0.187500
v 0.343750 0.937500 0.187500
v -0.281250 0.875000 -0.125000
v 0.281250 0.875000 -0.125000
v 0.281250 0.875000 -0.062500
v 0.343750 0.875000 -0.062500
v 0.531250 0.875000 -0.062500
v 0.281250 0.875000 0.062500
v 0.343750 0.875000 0.062500
v 0.531250 0.875000 0.062500
v -0.281250 0.875000 0.125000
v 0.281250 0.875000 0.125000
v -0.281250 0.937500 -0.125000
v 0.281250 0.937500 -0.125000
v 0.281250 0.937500 -0.062500
v 0.343750 0.937500 -0.062500
v 0.531250 0.937500 -0.062500
v 0.281250 0.937500 0.062500
v 0.343750 0.937500 0.062500
v 0.531250 0.937500 0.062500
v -0.281250 0.937500 0.125000
v 0.281250 0.937500 0.125000
vt 0.062500 0.812500
vt 0.062500 0.875000
vt 0.625000 0.875000
vt 0.625000 0.812500
vt 0.687500 0.812500
vt 0.625000 0.812500
vt 0.625000 0.875000
vt 0.687500 0.875000
vt 0.000000 0.625000
vt 0.062500 0.625000
vt 0.062500 0.875000
vt 0.000000 0.875000
vt 0.812500 0.812500
vt 0.875000 0.812500
vt 0.875000 0.687500
vt 0.812500 0.687500
vt 0.687500 0.625000
vt 0.625000 0.625000
vt 0.625000 0.562500
vt 0.687500 0.562500
vt 0.125000 0.625000
vt 0.125000 0.875000
vt 0.625000 0.812500
vt 0.062500 0.875000
vt 0.062500 0.812500
vt 0.937500 0.625000
vt 0.875000 0.625000
vt 0.875000 0.562500
vt 0.937500 0.562500
vt 0.875000 0.937500
vt 0.875000 0.875000
vt 0.937500 0.875000
vt 0.937500 0.937500
vt 0.000000 0.500000
vt 0.000000 0.562500
vt 0.062500 0.562500
vt 0.062500 0.500000
vt 0.687500 0.687500
vt 0.687500 0.750000
vt 0.875000 0.750000
vt 0.875000 0.687500
vt 0.062500 0.937500
vt 0.000000 0.937500
vt 0.000000 1.000000
vt 0.062500 1.000000
vt 0.875000 0.687500
vt 0.875000 0.750000
vt 0.687500 0.750000
vt 0.687500 0.687500
vt 0.062500 0.562500
vt 0.687500 0.937500
vt 0.687500 0.875000
vt 0.625000 0.937500
vt 0.937500 0.687500
vt 0.875000 0.625000
vt 0.062500 0.937500
vt 0.687500 0.812500
vt 0.625000 0.812500
vt 0.625000 0.687500
vt 0.062500 0.875000
vt 0.125000 0.875000
vt 0.125000 0.625000
vt 0.062500 0.625000
vt 0.625000 0.687500
vt 0.625000 0.625000
vt 0.062500 0.625000
vt 0.062500 0.687500
vt 0.937500 0.812500
vt 0.875000 0.812500
vt 0.062500 0.687500
vt 0.062500 0.625000
vt 0.625000 0.625000
vt 0.625000 0.687500
vt 0.687500 0.812500
vt 0.687500 0.750000
vt 0.875000 0.750000
vt 0.875000 0.875000
vt 0.687500 0.875000
vt 0.000000 0.625000
vt 0.937500 0.812500
vt 0.875000 0.875000
vt 0.625000 0.875000
vt 0.625000 0.812500
vt 0.875000 0.812500
vt 0.875000 0.750000
vt 0.687500 0.750000
vt 0.687500 0.812500
vt 0.562500 0.812500
vt 0.562500 0.875000
vt 0.625000 0.875000
vt 0.625000 0.625000
vt 0.562500 0.625000
vt 0.562500 0.687500
vt 0.625000 0.875000
vt 0.875000 0.687500
vt 0.812500 0.687500
vt 0.812500 0.812500
vt 0.875000 0.812500
vt 0.687500 0.687500
vt 0.687500 0.625000
vt 0.625000 0.625000
vt 0.625000 0.750000
vt 0.625000 0.687500
vt 0.687500 0.687500
vt 0.687500 0.750000
vt 0.625000 0.750000
vt 0.625000 0.812500
vt 0.687500 0.937500
vt 0.625000 0.937500
vt 0.000000 0.875000
vt 0.937500 0.687500
vt 0.687500 0.687500
vt 0.687500 0.625000
vt 0.625000 0.687500
vt 0.625000 0.562500
vt 0.687500 0.562500
vt 0.875000 0.250000
vt 0.875000 0.125000
vt 0.687500 0.125000
vt 0.687500 0.250000
vt 0.625000 0.250000
vt 0.625000 0.125000
vt 0.062500 0.062500
vt 0.062500 0.312500
vt 0.625000 0.062500
vt 0.625000 0.312500
vt 0.875000 0.250000
vt 0.687500 0.250000
vt 0.687500 0.125000
vt 0.875000 0.125000
vt 0.625000 0.250000
vt 0.625000 0.125000
vt 0.062500 0.062500
vt 0.062500 0.312500
vt 0.625000 0.062500
vt 0.625000 0.312500
vn 0.0000 0.0000 1.0000
vn 0.0000 0.0000 -1.0000
vn 0.0000 1.0000 0.0000
vn -1.0000 0.0000 0.0000
vn 1.0000 0.0000 0.0000
vn 0.7071 0.0000 0.7071
vn 0.7071 0.0000 -0.7071
vn -0.7071 0.0000 0.7071
vn -0.7071 0.0000 -0.7071
vn 0.0000 -1.0000 0.0000
usemtl MAIN
s off
f 8/1/1 34/2/1 31/3/1 9/4/1
f 7/5/2 35/6/2 38/7/2 6/8/2
f 1/9/3 22/10/3 8/11/3 2/12/3
f 14/13/4 44/14/4 41/15/4 21/16/4
f 33/17/3 32/18/3 47/19/3 48/20/3
f 22/10/5 25/21/5 34/22/5 8/11/5
f 6/23/2 38/7/2 39/24/2 5/25/2
f 36/26/6 20/27/6 40/28/6 4/29/6
f 3/30/7 43/31/7 42/32/7 11/33/7
f 1/34/8 46/35/8 19/36/8 37/37/8
f 33/38/1 23/39/1 20/40/1 36/41/1
f 5/42/9 39/43/9 45/44/9 2/45/9
f 21/46/2 41/47/2 26/48/2 18/49/2
f 22/10/3 37/50/3 47/19/3 32/18/3
f 35/51/10 30/52/10 31/3/10 38/53/10
f 4/54/3 21/46/3 36/55/3
f 18/49/3 33/17/3 36/55/3 21/46/3
f 39/56/10 38/53/10 31/3/10 34/2/10
f 30/52/10 28/57/10 29/58/10 31/3/10
f 18/49/3 17/59/3 32/18/3 33/17/3
f 2/60/4 45/61/4 46/62/4 1/63/4
f 32/64/2 24/65/2 25/66/2 22/67/2
f 3/68/3 14/69/3 21/46/3 4/54/3
f 37/70/1 19/71/1 16/72/1 47/73/1
f 13/74/1 28/75/1 44/76/1 14/69/1
f 8/11/3 5/42/3 2/12/3
f 3/68/3 11/77/3 14/69/3
f 10/78/3 13/74/3 14/69/3 11/77/3
f 25/66/10 19/36/10 46/79/10
f 43/80/10 44/14/10 42/81/10
f 10/78/3 9/82/3 12/83/3 13/74/3
f 11/84/2 42/85/2 30/86/2 10/87/2
f 9/4/4 31/88/4 29/89/4 12/90/4
f 17/91/4 27/92/4 24/93/4 32/64/4
f 10/78/5 30/94/5 35/6/5 7/5/5
f 4/95/5 40/96/5 43/97/5 3/98/5
f 47/73/1 16/99/1 15/100/1 48/101/1
f 18/49/2 26/48/2 27/102/2 17/59/2
f 48/101/5 15/103/5 23/104/5 33/17/5
f 12/105/1 29/106/1 28/107/1 13/74/1
f 22/10/3 1/9/3 37/50/3
f 7/108/3 6/109/3 9/82/3 10/78/3
f 34/2/10 45/110/10 39/56/10
f 30/52/10 42/81/10 44/14/10 28/57/10
f 43/80/10 40/111/10 41/15/10 44/14/10
f 26/112/10 23/113/10 24/65/10 27/114/10
f 26/112/10 41/15/10 20/27/10 23/113/10
f 40/111/10 20/27/10 41/15/10
f 25/66/10 24/65/10 16/115/10 19/36/10
f 23/113/10 15/116/10 16/115/10 24/65/10
f 5/42/3 8/11/3 9/82/3 6/109/3
f 46/79/10 45/110/10 34/2/10 25/66/10
usemtl ILLUSION
f 53/117/10 56/118/10 55/119/10 52/120/10
f 51/121/10 52/120/10 55/119/10 54/122/10
f 57/123/10 49/124/10 51/121/10 54/122/10
f 58/125/10 57/123/10 54/122/10
f 49/124/10 50/126/10 51/121/10
f 63/127/3 62/128/3 65/129/3 66/130/3
f 61/131/3 64/132/3 65/129/3 62/128/3
f 67/133/3 64/132/3 61/131/3 59/134/3
f 68/135/3 64/132/3 67/133/3
f 59/134/3 61/131/3 60/136/3
