# Blender v2.80 (sub 75) OBJ File: 'conjured_workbench.blend'
# www.blender.org
mtllib conjured_craftingtable.mtl
o CRAFTING_TABLE_Cube.000
v -0.406250 0.875000 0.406250
v -0.406250 0.937500 0.406250
v -0.406250 0.875000 -0.406250
v -0.406250 0.937500 -0.406250
v 0.406250 0.875000 0.406250
v 0.406250 0.937500 0.406250
v 0.406250 0.875000 -0.406250
v 0.406250 0.937500 -0.406250
v -0.406250 0.875000 -0.125000
v -0.406250 0.875000 0.125000
v -0.406250 0.937500 0.125000
v -0.406250 0.937500 -0.125000
v 0.406250 0.875000 0.125000
v 0.406250 0.875000 -0.125000
v 0.406250 0.937500 -0.125000
v 0.406250 0.937500 0.125000
v 0.125485 0.875000 -0.406250
v -0.124515 0.875000 -0.406250
v -0.124515 0.937500 -0.406250
v 0.125485 0.937500 -0.406250
v -0.124515 0.875000 0.406250
v 0.125485 0.875000 0.406250
v 0.125485 0.937500 0.406250
v -0.124515 0.937500 0.406250
v -0.343265 0.937500 -0.343750
v -0.155765 0.937500 -0.343750
v -0.093265 0.937500 -0.343750
v 0.094235 0.937500 -0.343750
v 0.156735 0.937500 -0.343750
v 0.344235 0.937500 -0.343750
v -0.343265 0.937500 -0.156250
v -0.155765 0.937500 -0.156250
v -0.093265 0.937500 -0.156250
v 0.094235 0.937500 -0.156250
v 0.156735 0.937500 -0.156250
v 0.344235 0.937500 -0.156250
v -0.343265 0.937500 -0.093750
v -0.155765 0.937500 -0.093750
v -0.093265 0.937500 -0.093750
v 0.094235 0.937500 -0.093750
v 0.156735 0.937500 -0.093750
v 0.344235 0.937500 -0.093750
v -0.343265 0.937500 0.093750
v -0.155765 0.937500 0.093750
v -0.093265 0.937500 0.093750
v 0.094235 0.937500 0.093750
v 0.156735 0.937500 0.093750
v 0.344235 0.937500 0.093750
v -0.343265 0.937500 0.156250
v -0.155765 0.937500 0.156250
v -0.093265 0.937500 0.156250
v 0.094235 0.937500 0.156250
v 0.156735 0.937500 0.156250
v 0.344235 0.937500 0.156250
v -0.343265 0.937500 0.343750
v -0.155765 0.937500 0.343750
v -0.093265 0.937500 0.343750
v 0.094235 0.937500 0.343750
v 0.156735 0.937500 0.343750
v 0.344235 0.937500 0.343750
v 0.344235 0.875000 -0.343750
v 0.156735 0.875000 -0.343750
v 0.094235 0.875000 -0.343750
v -0.093265 0.875000 -0.343750
v -0.155765 0.875000 -0.343750
v -0.343265 0.875000 -0.343750
v 0.344235 0.875000 -0.156250
v 0.156735 0.875000 -0.156250
v 0.094235 0.875000 -0.156250
v -0.093265 0.875000 -0.156250
v -0.155765 0.875000 -0.156250
v -0.343265 0.875000 -0.156250
v 0.344235 0.875000 -0.093750
v 0.156735 0.875000 -0.093750
v 0.094235 0.875000 -0.093750
v -0.093265 0.875000 -0.093750
v -0.155765 0.875000 -0.093750
v -0.343265 0.875000 -0.093750
v 0.344235 0.875000 0.093750
v 0.156735 0.875000 0.093750
v 0.094235 0.875000 0.093750
v -0.093265 0.875000 0.093750
v -0.155765 0.875000 0.093750
v -0.343265 0.875000 0.093750
v 0.344235 0.875000 0.156250
v 0.156735 0.875000 0.156250
v 0.094235 0.875000 0.156250
v -0.093265 0.875000 0.156250
v -0.155765 0.875000 0.156250
v -0.343265 0.875000 0.156250
v 0.344235 0.875000 0.343750
v 0.156735 0.875000 0.343750
v 0.094235 0.875000 0.343750
v -0.093265 0.875000 0.343750
v -0.155765 0.875000 0.343750
v -0.343265 0.875000 0.343750
vt 0.062500 0.656250
vt 0.125485 0.687500
vt 0.125485 0.875000
vt 0.062500 0.937500
vt 0.125485 0.625000
vt 0.062500 0.406250
vt 0.125485 0.437500
vt 0.125485 0.375000
vt 0.062500 0.125000
vt 0.125485 0.187500
vt 0.562985 0.875000
vt 0.625485 0.875000
vt 0.625485 0.687500
vt 0.562985 0.687500
vt 0.812985 0.687500
vt 0.875000 0.656250
vt 0.812985 0.625000
vt 0.562985 0.625000
vt 0.625485 0.625000
vt 0.625485 0.437500
vt 0.562985 0.437500
vt 0.812985 0.437500
vt 0.875000 0.406250
vt 0.812985 0.375000
vt 0.562985 0.375000
vt 0.625485 0.375000
vt 0.625485 0.187500
vt 0.562985 0.187500
vt 0.875000 0.937500
vt 0.875000 0.656250
vt 0.937500 0.656250
vt 0.937500 0.937500
vt 0.875000 0.406250
vt 0.937500 0.406250
vt 0.875000 0.125000
vt 0.937500 0.125000
vt 0.062500 0.406250
vt -0.000000 0.406250
vt -0.000000 0.125000
vt 0.062500 0.656250
vt -0.000000 0.656250
vt 0.000000 0.937500
vt 0.062500 0.406250
vt 0.125485 0.375000
vt 0.125485 0.187500
vt 0.062500 0.125000
vt 0.312985 0.375000
vt 0.375485 0.375000
vt 0.375485 0.187500
vt 0.312985 0.187500
vt 0.875000 0.125000
vt 0.812985 0.187500
vt 0.125485 0.437500
vt 0.312985 0.437500
vt 0.375485 0.437500
vt 0.312985 0.625000
vt 0.375485 0.625000
vt 0.062500 0.656250
vt 0.125485 0.625000
vt 0.125485 0.687500
vt 0.312985 0.687500
vt 0.375485 0.687500
vt 0.312985 0.875000
vt 0.375485 0.875000
vt 0.062500 0.937500
vt 0.125485 0.875000
vt 0.812985 0.875000
vt 0.875000 0.937500
vt 0.344235 0.937500
vt 0.594235 0.937500
vt 0.625485 0.375000
vt 0.562985 0.375000
vt 0.562985 0.187500
vt 0.625485 0.187500
vt 0.812985 0.375000
vt 0.812985 0.187500
vt 0.375485 0.375000
vt 0.312985 0.375000
vt 0.312985 0.187500
vt 0.375485 0.187500
vt 0.812985 0.437500
vt 0.625485 0.437500
vt 0.562985 0.437500
vt 0.375485 0.437500
vt 0.312985 0.437500
vt 0.625485 0.625000
vt 0.562985 0.625000
vt 0.812985 0.625000
vt 0.375485 0.625000
vt 0.312985 0.625000
vt 0.812985 0.687500
vt 0.625485 0.687500
vt 0.562985 0.687500
vt 0.375485 0.687500
vt 0.312985 0.687500
vt 0.625485 0.875000
vt 0.562985 0.875000
vt 0.812985 0.875000
vt 0.375485 0.875000
vt 0.312985 0.875000
vt 0.594235 0.937500
vt 0.344235 0.937500
vt 0.594235 0.125000
vt 0.344235 0.125000
vt 0.344235 0.125000
vt 0.594235 0.125000
vt 0.594235 0.062500
vt 0.875000 0.062500
vt 0.344235 0.062500
vt 0.062500 0.062500
vt 0.344235 1.000000
vt 0.062500 1.000000
vt 0.594235 1.000000
vt 0.875000 1.000000
vt 0.312500 0.875000
vt 0.250000 0.875000
vt 0.250000 0.687500
vt 0.312500 0.687500
vt 0.312016 0.750000
vt 0.312016 0.687500
vt 0.124515 0.687500
vt 0.124515 0.750000
vt 0.125000 0.687500
vt 0.187500 0.687500
vt 0.187500 0.875000
vt 0.125000 0.875000
vt 0.125485 0.812500
vt 0.312985 0.812500
vt 0.562500 0.875000
vt 0.500000 0.875000
vt 0.500000 0.687500
vt 0.562500 0.687500
vt 0.562016 0.750000
vt 0.562016 0.687500
vt 0.374516 0.687500
vt 0.374516 0.750000
vt 0.375000 0.687500
vt 0.437500 0.687500
vt 0.437500 0.875000
vt 0.375000 0.875000
vt 0.375485 0.812500
vt 0.562985 0.812500
vt 0.812500 0.875000
vt 0.750000 0.875000
vt 0.750000 0.687500
vt 0.812500 0.687500
vt 0.812015 0.750000
vt 0.812015 0.687500
vt 0.624515 0.687500
vt 0.624515 0.750000
vt 0.625000 0.687500
vt 0.687500 0.687500
vt 0.687500 0.875000
vt 0.625000 0.875000
vt 0.625485 0.812500
vt 0.812985 0.812500
vt 0.812500 0.625000
vt 0.750000 0.625000
vt 0.750000 0.437500
vt 0.812500 0.437500
vt 0.812015 0.500000
vt 0.812015 0.437500
vt 0.624515 0.437500
vt 0.624515 0.500000
vt 0.625000 0.437500
vt 0.687500 0.437500
vt 0.687500 0.625000
vt 0.625000 0.625000
vt 0.625485 0.562500
vt 0.812985 0.562500
vt 0.562500 0.625000
vt 0.500000 0.625000
vt 0.500000 0.437500
vt 0.562500 0.437500
vt 0.562016 0.500000
vt 0.562016 0.437500
vt 0.374516 0.437500
vt 0.374516 0.500000
vt 0.375000 0.437500
vt 0.437500 0.437500
vt 0.437500 0.625000
vt 0.375000 0.625000
vt 0.375485 0.562500
vt 0.562985 0.562500
vt 0.312500 0.625000
vt 0.250000 0.625000
vt 0.250000 0.437500
vt 0.312500 0.437500
vt 0.312016 0.500000
vt 0.312016 0.437500
vt 0.124515 0.437500
vt 0.124515 0.500000
vt 0.125000 0.437500
vt 0.187500 0.437500
vt 0.187500 0.625000
vt 0.125000 0.625000
vt 0.125485 0.562500
vt 0.312985 0.562500
vt 0.312500 0.375000
vt 0.250000 0.375000
vt 0.250000 0.187500
vt 0.312500 0.187500
vt 0.312016 0.250000
vt 0.312016 0.187500
vt 0.124515 0.187500
vt 0.124515 0.250000
vt 0.125000 0.187500
vt 0.187500 0.187500
vt 0.187500 0.375000
vt 0.125000 0.375000
vt 0.125485 0.312500
vt 0.312985 0.312500
vt 0.562500 0.375000
vt 0.500000 0.375000
vt 0.500000 0.187500
vt 0.562500 0.187500
vt 0.562016 0.250000
vt 0.562016 0.187500
vt 0.374516 0.187500
vt 0.374516 0.250000
vt 0.375000 0.187500
vt 0.437500 0.187500
vt 0.437500 0.375000
vt 0.375000 0.375000
vt 0.375485 0.312500
vt 0.562985 0.312500
vt 0.812500 0.375000
vt 0.750000 0.375000
vt 0.750000 0.187500
vt 0.812500 0.187500
vt 0.812015 0.250000
vt 0.812015 0.187500
vt 0.624515 0.187500
vt 0.624515 0.250000
vt 0.625000 0.187500
vt 0.687500 0.187500
vt 0.687500 0.375000
vt 0.625000 0.375000
vt 0.625485 0.312500
vt 0.812985 0.312500
vn 0.0000 1.0000 0.0000
vn 0.0000 -1.0000 0.0000
vn 1.0000 0.0000 0.0000
vn -1.0000 0.0000 0.0000
vn 0.0000 0.0000 1.0000
vn 0.0000 0.0000 -1.0000
usemtl MAIN
s off
f 12/1/1 31/2/1 25/3/1 4/4/1
f 31/2/1 12/1/1 37/5/1
f 11/6/1 43/7/1 37/5/1 12/1/1
f 43/7/1 11/6/1 49/8/1
f 2/9/1 55/10/1 49/8/1 11/6/1
f 63/11/2 62/12/2 68/13/2 69/14/2
f 67/15/2 14/16/2 73/17/2
f 75/18/2 74/19/2 80/20/2 81/21/2
f 79/22/2 13/23/2 85/24/2
f 87/25/2 86/26/2 92/27/2 93/28/2
f 8/29/3 15/30/3 14/31/3 7/32/3
f 15/30/3 16/33/3 13/34/3 14/31/3
f 16/33/3 6/35/3 5/36/3 13/34/3
f 2/9/4 11/37/4 10/38/4 1/39/4
f 11/37/4 12/40/4 9/41/4 10/38/4
f 12/40/4 4/4/4 3/42/4 9/41/4
f 10/43/2 90/44/2 96/45/2 1/46/2
f 89/47/2 88/48/2 94/49/2 95/50/2
f 5/51/2 91/52/2 85/24/2 13/23/2
f 10/43/2 84/53/2 90/44/2
f 83/54/2 89/47/2 90/44/2 84/53/2
f 83/54/2 82/55/2 88/48/2 89/47/2
f 81/21/2 87/25/2 88/48/2 82/55/2
f 81/21/2 80/20/2 86/26/2 87/25/2
f 79/22/2 85/24/2 86/26/2 80/20/2
f 77/56/2 76/57/2 82/55/2 83/54/2
f 9/58/2 78/59/2 84/53/2 10/43/2
f 13/23/2 79/22/2 73/17/2 14/16/2
f 9/58/2 72/60/2 78/59/2
f 71/61/2 77/56/2 78/59/2 72/60/2
f 71/61/2 70/62/2 76/57/2 77/56/2
f 69/14/2 75/18/2 76/57/2 70/62/2
f 69/14/2 68/13/2 74/19/2 75/18/2
f 67/15/2 73/17/2 74/19/2 68/13/2
f 65/63/2 64/64/2 70/62/2 71/61/2
f 3/65/2 66/66/2 72/60/2 9/58/2
f 14/16/2 67/15/2 61/67/2 7/68/2
f 18/69/2 65/63/2 66/66/2 3/65/2
f 18/69/2 64/64/2 65/63/2
f 17/70/2 63/11/2 64/64/2 18/69/2
f 17/70/2 62/12/2 63/11/2
f 7/68/2 61/67/2 62/12/2 17/70/2
f 53/71/1 52/72/1 58/73/1 59/74/1
f 16/33/1 54/75/1 60/76/1 6/35/1
f 51/77/1 50/78/1 56/79/1 57/80/1
f 16/33/1 48/81/1 54/75/1
f 47/82/1 53/71/1 54/75/1 48/81/1
f 47/82/1 46/83/1 52/72/1 53/71/1
f 45/84/1 51/77/1 52/72/1 46/83/1
f 45/84/1 44/85/1 50/78/1 51/77/1
f 43/7/1 49/8/1 50/78/1 44/85/1
f 41/86/1 40/87/1 46/83/1 47/82/1
f 15/30/1 42/88/1 48/81/1 16/33/1
f 39/89/1 38/90/1 44/85/1 45/84/1
f 15/30/1 36/91/1 42/88/1
f 35/92/1 41/86/1 42/88/1 36/91/1
f 35/92/1 34/93/1 40/87/1 41/86/1
f 33/94/1 39/89/1 40/87/1 34/93/1
f 33/94/1 32/95/1 38/90/1 39/89/1
f 31/2/1 37/5/1 38/90/1 32/95/1
f 29/96/1 28/97/1 34/93/1 35/92/1
f 8/29/1 30/98/1 36/91/1 15/30/1
f 27/99/1 26/100/1 32/95/1 33/94/1
f 20/101/1 29/96/1 30/98/1 8/29/1
f 20/101/1 28/97/1 29/96/1
f 19/102/1 27/99/1 28/97/1 20/101/1
f 19/102/1 26/100/1 27/99/1
f 4/4/1 25/3/1 26/100/1 19/102/1
f 59/74/1 23/103/1 6/35/1 60/76/1
f 59/74/1 58/73/1 23/103/1
f 57/80/1 24/104/1 23/103/1 58/73/1
f 57/80/1 56/79/1 24/104/1
f 55/10/1 2/9/1 24/104/1 56/79/1
f 95/50/2 21/105/2 1/46/2 96/45/2
f 95/50/2 94/49/2 21/105/2
f 93/28/2 22/106/2 21/105/2 94/49/2
f 93/28/2 92/27/2 22/106/2
f 91/52/2 5/51/2 22/106/2 92/27/2
f 6/35/5 23/103/5 22/107/5 5/108/5
f 23/103/5 24/104/5 21/109/5 22/107/5
f 24/104/5 2/9/5 1/110/5 21/109/5
f 4/4/6 19/102/6 18/111/6 3/112/6
f 19/102/6 20/101/6 17/113/6 18/111/6
f 20/101/6 8/29/6 7/114/6 17/113/6
f 26/115/4 65/116/4 71/117/4 32/118/4
f 32/119/6 71/120/6 72/121/6 31/122/6
f 31/123/3 72/124/3 66/125/3 25/126/3
f 25/3/5 66/127/5 65/128/5 26/100/5
f 28/129/4 63/130/4 69/131/4 34/132/4
f 34/133/6 69/134/6 70/135/6 33/136/6
f 33/137/3 70/138/3 64/139/3 27/140/3
f 27/99/5 64/141/5 63/142/5 28/97/5
f 30/143/4 61/144/4 67/145/4 36/146/4
f 36/147/6 67/148/6 68/149/6 35/150/6
f 35/151/3 68/152/3 62/153/3 29/154/3
f 29/96/5 62/155/5 61/156/5 30/98/5
f 42/157/4 73/158/4 79/159/4 48/160/4
f 48/161/6 79/162/6 80/163/6 47/164/6
f 47/165/3 80/166/3 74/167/3 41/168/3
f 41/86/5 74/169/5 73/170/5 42/88/5
f 40/171/4 75/172/4 81/173/4 46/174/4
f 46/175/6 81/176/6 82/177/6 45/178/6
f 45/179/3 82/180/3 76/181/3 39/182/3
f 39/89/5 76/183/5 75/184/5 40/87/5
f 38/185/4 77/186/4 83/187/4 44/188/4
f 44/189/6 83/190/6 84/191/6 43/192/6
f 43/193/3 84/194/3 78/195/3 37/196/3
f 37/5/5 78/197/5 77/198/5 38/90/5
f 50/199/4 89/200/4 95/201/4 56/202/4
f 56/203/6 95/204/6 96/205/6 55/206/6
f 55/207/3 96/208/3 90/209/3 49/210/3
f 49/8/5 90/211/5 89/212/5 50/78/5
f 52/213/4 87/214/4 93/215/4 58/216/4
f 58/217/6 93/218/6 94/219/6 57/220/6
f 57/221/3 94/222/3 88/223/3 51/224/3
f 51/77/5 88/225/5 87/226/5 52/72/5
f 54/227/4 85/228/4 91/229/4 60/230/4
f 60/231/6 91/232/6 92/233/6 59/234/6
f 59/235/3 92/236/3 86/237/3 53/238/3
f 53/71/5 86/239/5 85/240/5 54/75/5
